<svg xmlns="http://www.w3.org/2000/svg" width="197.658" height="202.179" viewBox="0 0 197.658 202.179">
  <g id="Group_55" data-name="Group 55" transform="translate(-85.515 -203.821)">
    <path id="Path_62" data-name="Path 62" d="M169.638,24.316c11.548,10.376,19.106,24.852,31.24,45.66,12.19,20.808,29,47.944,22.625,64.122s-36.046,21.393-64.063,32-54.393,26.551-78.657,23.443-46.417-25.26-51.988-49.761C23.166,115.223,34.068,88.32,41.92,63.82c7.8-24.5,12.544-46.6,26.2-56.613s36.223-7.858,55.332-3.7C142.558,7.72,158.089,13.944,169.638,24.316Z" transform="translate(58.273 203.793)" fill="#2d3748"/>
    <rect id="Rectangle_21" data-name="Rectangle 21" width="4.365" height="3.695" transform="translate(220.633 402.882) rotate(180)" fill="#de8e68"/>
    <path id="Path_66" data-name="Path 66" d="M525.266,773.45v3.7H514.88V775.8l5.4-2.351Z" transform="translate(-304.222 -371.146)" fill="#2d3748"/>
    <rect id="Rectangle_22" data-name="Rectangle 22" width="4.365" height="3.695" transform="translate(152.78 357.548) rotate(180)" fill="#de8e68"/>
    <path id="Path_67" data-name="Path 67" d="M260.873,596.8v3.7H250.49v-1.342l5.4-2.353Z" transform="translate(-107.683 -239.829)" fill="#4a5568"/>
    <path id="Path_68" data-name="Path 68" d="M467.723,404.21c.221,2.1,4.858,92.615,4.858,92.615h-4.858L444.1,411.6Z" transform="translate(-251.607 -96.664)" fill="#3182ce"/>
    <path id="Path_69" data-name="Path 69" d="M338.819,342.7c0,12.293-4.519,23.353-13.668,23.353-12.559,0-29.187-8.007-33.762-12.526-1.142,3.377-17.34,45.916-17.34,45.916H267.34s4.3-49.53,12.357-62.233c2.651-3.531,24.285-2.648,35.215,0S338.819,342.7,338.819,342.7Z" transform="translate(-120.209 -45.129)" fill="#63b3ed"/>
    <path id="Path_70" data-name="Path 70" d="M414.2,82.587a1.578,1.578,0,0,1,1.678-1.263c.983.069,2.589,2.666,2.589,4.768s-.593,2.892-.413,4.419,4.068,22.232,4.068,23.494a41.139,41.139,0,0,0,4.488-.421l-2.456,9.891h-7.15L412.39,83.639Z" transform="translate(-228.034 143.364)" fill="#d37c59"/>
    <path id="Path_71" data-name="Path 71" d="M392.526,82.31,391.02,88.4s-14.861-1.727-16.483-2.127.821-10.465,2.487-10.055S392.526,82.31,392.526,82.31Z" transform="translate(-199.499 147.167)" fill="#cbd5e0"/>
    <path id="Path_72" data-name="Path 72" d="M452.308,170.17c19.011,0,14.323,49.116,12.1,50.954s-25.855-4.363-27.819-7.1S438.365,170.17,452.308,170.17Z" transform="translate(-245.664 77.315)" fill="#f7fafc"/>
    <path id="Path_73" data-name="Path 73" d="M418.678,113.38c-1.044.354-7.17,2.743-7.17,2.743-.1-1.232-4.812-25.663-5.1-27.159a12.22,12.22,0,0,0,.865-4.7c0-4.011-1.63-7.268-3.639-7.268s-3.636,3.257-3.636,7.268a12.023,12.023,0,0,0,.95,4.891c-.226,3.054-2.253,32.051,1.884,36.185,4.363,4.363,14.969.429,21.416-2.5C425.625,122.365,423.744,112.009,418.678,113.38Z" transform="translate(-218.819 146.574)" fill="#de8e68"/>
    <rect id="Rectangle_23" data-name="Rectangle 23" width="3.978" height="2.779" transform="matrix(0.967, 0.257, -0.257, 0.967, 191.465, 230.971)" fill="#cbd5e0"/>
    <path id="Path_74" data-name="Path 74" d="M490.818,197.613c2.9,5.625-8.577,15.76-11.751,15.005s-8.294-12.082-7.337-14.115S488,192.139,490.818,197.613Z" transform="translate(-272.059 58.895)" fill="#f7fafc"/>
    <path id="Path_75" data-name="Path 75" d="M486.958,156.963c0,.952-5.808,1.193-5.808,0V146h5.808Z" transform="translate(-279.149 95.282)" fill="#d37c59"/>
    <ellipse id="Ellipse_13" data-name="Ellipse 13" cx="7.581" cy="12.259" rx="7.581" ry="12.259" transform="translate(195.226 223.128)" fill="#dc8e6c"/>
    <path id="Path_76" data-name="Path 76" d="M455.068,51.342a4.974,4.974,0,0,0,2.246,4.491c2.261,1.54,3.873.86,5.53,2.31.875.875,3.018,2.566,3.039,5.179,0,1.932.634,2.908,1.191,2.908s2.025-.385,2.969-.385c9.275,0,20.166,9.575,41.061,9.575,10.914,0,28.042-2.754,28.042-18.783,0-8.656-3.116-19.116-19.583-19.116-10.458,0-17.784,5.133-26.376,5.133-11.035,0-15.29-4-22.914-4-5.43,0-17.651,3.146-17.651,11.389,0,3.131.98,4.039,1.283,4.2A17.756,17.756,0,0,1,455.068,51.342Z" transform="translate(-257.94 175.923)" fill="#fbd38d"/>
    <circle id="Ellipse_14" data-name="Ellipse 14" cx="1.935" cy="1.935" r="1.935" transform="translate(205.227 236.355)" fill="#dc8e6c"/>
    <path id="Path_79" data-name="Path 79" d="M59.378,96.716v38.271a5.212,5.212,0,0,1-5.219,5.219H5.219A5.212,5.212,0,0,1,0,134.987V96.716A1.708,1.708,0,0,1,.522,95.5l8.872,19.971h40.59L58.856,95.5A1.709,1.709,0,0,1,59.378,96.716Z" transform="translate(118.76 265.794)" fill="#4a5568"/>
    <path id="Path_80" data-name="Path 80" d="M285.689,96.716v38.271a5.212,5.212,0,0,1-5.219,5.219H256V115.469h20.3L285.167,95.5A1.709,1.709,0,0,1,285.689,96.716Z" transform="translate(-107.551 265.794)" fill="#2d3748"/>
    <path id="Path_81" data-name="Path 81" d="M62.835,91.522l-5.393,19.971a5.211,5.211,0,0,1-5.045,3.862H14.939a5.211,5.211,0,0,1-5.045-3.862L4.5,91.522A1.708,1.708,0,0,1,5.719,91h55.9A1.708,1.708,0,0,1,62.835,91.522Z" transform="translate(114.781 269.771)" fill="#718096"/>
    <path id="Path_82" data-name="Path 82" d="M285.167,91.522l-5.393,19.971a5.211,5.211,0,0,1-5.045,3.862H256V91h27.949A1.708,1.708,0,0,1,285.167,91.522Z" transform="translate(-107.551 269.771)" fill="#4a5568"/>
    <path id="Path_83" data-name="Path 83" d="M196.656,256H182.74a1.723,1.723,0,0,0-1.74,1.74V264.7a1.723,1.723,0,0,0,1.74,1.74h13.917a1.723,1.723,0,0,0,1.74-1.74V257.74A1.723,1.723,0,0,0,196.656,256Z" transform="translate(-41.249 123.906)" fill="#fbd38d"/>
    <path id="Path_84" data-name="Path 84" d="M264.7,257.74V264.7a1.723,1.723,0,0,1-1.74,1.74H256V256h6.958A1.723,1.723,0,0,1,264.7,257.74Z" transform="translate(-107.551 123.906)" fill="#f6ad55"/>
  </g>
</svg>
