<svg xmlns="http://www.w3.org/2000/svg" width="120" height="120" viewBox="0 0 120 120">
  <g id="Grupo_785" data-name="Grupo 785" transform="translate(-128 -197)">
    <circle id="Elipse_33" data-name="Elipse 33" cx="60" cy="60" r="60" transform="translate(128 197)" fill="#2d3748"/>
    <path id="search" d="M20.038,45.051H-.111A1.908,1.908,0,0,1-2.02,43.143V1.235A3.251,3.251,0,0,1,1.2-2.02H40.564a3.251,3.251,0,0,1,3.215,3.254V18.659a17.76,17.76,0,0,1,1.434,23.856l2.631,2.63A6.761,6.761,0,0,1,55.835,46.3l5.313,5.312a6.742,6.742,0,0,1-9.535,9.535L46.3,55.835a6.763,6.763,0,0,1-1.155-7.991l-2.63-2.631A17.761,17.761,0,0,1,20.038,45.051Zm14.91-7.446a1.908,1.908,0,1,0,1.908,1.908A1.908,1.908,0,0,0,34.948,37.605ZM51.067,48.147A2.927,2.927,0,0,0,49,53.136l5.312,5.313a2.927,2.927,0,0,0,4.139-4.139L53.136,49A2.916,2.916,0,0,0,51.067,48.147ZM37.425,2.98a1.334,1.334,0,1,0,1.334,1.334A1.334,1.334,0,0,0,37.425,2.98Zm-5.337,0a1.334,1.334,0,1,0,1.335,1.334A1.334,1.334,0,0,0,32.088,2.98Zm-5.337,0a1.334,1.334,0,1,0,1.334,1.334A1.335,1.335,0,0,0,26.751,2.98ZM1.8,6.886H39.963V1.8H1.8ZM39.963,10.7H1.8V41.235H16.6a17.7,17.7,0,0,1-1.931-3.817H7.522A1.908,1.908,0,0,1,5.614,35.51V29.785a1.908,1.908,0,0,1,1.908-1.908h6.434a17.629,17.629,0,0,1,1.226-3.817H7.522a1.908,1.908,0,0,1-1.908-1.908V16.427a1.908,1.908,0,0,1,1.908-1.908c3.4,0,15.442.045,18.1.045a17.813,17.813,0,0,1,14.342,1.257Zm-11.108,26.9a1.908,1.908,0,1,0,1.908,1.908A1.908,1.908,0,0,0,28.855,37.605ZM28.079,25.85l-.369-1.684a1.863,1.863,0,0,0-1.824-1.5l-1.952,0a1.908,1.908,0,0,0,0,3.817h.38l2,9.1a1.907,1.907,0,0,0,1.881,1.584h7.639v-.006a1.9,1.9,0,0,0,1.737-1.127l3.371-7.507A1.9,1.9,0,0,0,39.2,25.849Zm8.181,3.8H28.912l.81,3.7H34.6Zm4.363-8.717a13.948,13.948,0,1,0,.614,20.306A13.945,13.945,0,0,0,40.623,20.934Zm-23.092-.69a17.827,17.827,0,0,1,1.781-1.908H9.43v1.908ZM13.749,33.6a17.94,17.94,0,0,1-.136-1.908H9.43V33.6Zm0,0" transform="translate(157.02 226.02)" fill="#718096" fill-rule="evenodd"/>
  </g>
</svg>
