<svg xmlns="http://www.w3.org/2000/svg" width="120" height="120" viewBox="0 0 120 120">
  <g id="Grupo_786" data-name="Grupo 786" transform="translate(-128 -197)">
    <g id="Grupo_785" data-name="Grupo 785">
      <circle id="Elipse_33" data-name="Elipse 33" cx="60" cy="60" r="60" transform="translate(128 197)" fill="#2d3748"/>
    </g>
    <g id="partners-claping-hands" transform="translate(152 192.463)">
      <path id="Trazado_191" data-name="Trazado 191" d="M71.568,79.511a7.188,7.188,0,1,0-7.187-7.188A7.195,7.195,0,0,0,71.568,79.511Z" transform="translate(-55.449 -27.216)" fill="#718096"/>
      <path id="Trazado_192" data-name="Trazado 192" d="M32.539,112.67a3.03,3.03,0,0,0-2.084.827l-2.779,2.616a22.294,22.294,0,0,1-2.2,1.762l-5.591,3.8h-8.37a3.088,3.088,0,0,0-2.728,1.141l-3.643,4.551c-.589.736-1.527,1.959-2.09,2.727L.59,133.458A3.042,3.042,0,0,0,3.04,138.3a3.055,3.055,0,0,0,2.455-1.243l2.468-3.366L8,133.634l-.522,5.83L3.213,159.741a3.21,3.21,0,0,0,3.141,3.868,3.22,3.22,0,0,0,3.135-2.547l4-18.975h1.04l.571,6.4a28.6,28.6,0,0,1,.074,2.893l-.336,8.895a3.207,3.207,0,0,0,3.084,3.326l.123,0a3.2,3.2,0,0,0,3.2-3.086l.336-8.895a34.734,34.734,0,0,0-.095-3.705l-.853-9.577c0-.026-.008-.051-.011-.077l.928-10.368,7.35-5a28.36,28.36,0,0,0,2.946-2.363l2.779-2.616a3.042,3.042,0,0,0-2.085-5.257Z" transform="translate(0 -68.155)" fill="#718096"/>
      <path id="Trazado_193" data-name="Trazado 193" d="M350.339,63.511a7.188,7.188,0,1,0-7.185-7.188A7.2,7.2,0,0,0,350.339,63.511Z" transform="translate(-295.548 -13.435)" fill="#718096"/>
      <path id="Trazado_194" data-name="Trazado 194" d="M298.856,134.04a3.055,3.055,0,0,0,2.455,1.243,3.042,3.042,0,0,0,2.451-4.84l-2.469-3.366c-.562-.767-1.5-1.99-2.09-2.726L295.56,119.8a2.738,2.738,0,0,0-2.376-1.141H284.15l-5.591-3.8a19.479,19.479,0,0,1-1.873-1.458l-.88-.829a3.042,3.042,0,1,0-4.169,4.43l.88.828a24.979,24.979,0,0,0,2.623,2.059l7.35,4.995.928,10.367c0,.026-.008.051-.011.077l-.853,9.577a11.307,11.307,0,0,0,.7,4.676l2.549,6.237a3.207,3.207,0,1,0,5.937-2.426l-2.55-6.238a5.227,5.227,0,0,1-.253-1.679l.571-6.4h1.04l1.521,7.221a4.647,4.647,0,0,0,2.281,3.119,4.591,4.591,0,0,0,2.222.571,4.729,4.729,0,0,0,1.633-.291l3.357-1.23a3.207,3.207,0,1,0-2.207-6.022l-1.432.525-1.372-6.514-.564-6.307c.146.194.281.375.4.532Z" transform="translate(-233.128 -67.36)" fill="#718096"/>
      <path id="Trazado_195" data-name="Trazado 195" d="M277.723,39.923a1.039,1.039,0,0,0,1.264-.753c.334-1.318,1.174-3.32,1.88-3.65a1.04,1.04,0,0,0-.88-1.886c-1.882.878-2.844,4.339-3.017,5.024A1.04,1.04,0,0,0,277.723,39.923Z" transform="translate(-238.519 0)" fill="#718096"/>
      <path id="Trazado_196" data-name="Trazado 196" d="M238.791,59.273a1.041,1.041,0,1,0-.88,1.886c.7.328,1.544,2.331,1.881,3.65a1.04,1.04,0,0,0,2.017-.512C241.635,63.612,240.673,60.151,238.791,59.273Z" transform="translate(-204.388 -22.082)" fill="#718096"/>
    </g>
  </g>
</svg>
