<svg xmlns="http://www.w3.org/2000/svg" width="120" height="120" viewBox="0 0 120 120">
  <g id="Grupo_250" data-name="Grupo 250" transform="translate(-127 -171)">
    <circle id="Elipse_33" data-name="Elipse 33" cx="60" cy="60" r="60" transform="translate(127 171)" fill="#2d3748"/>
    <g id="Grupo_249" data-name="Grupo 249" transform="translate(20 36.951)">
      <g id="Grupo_184" data-name="Grupo 184" transform="translate(130 193.849)">
        <g id="Grupo_183" data-name="Grupo 183" transform="translate(0)">
          <path id="Trazado_167" data-name="Trazado 167" d="M19.125,288.985a6.442,6.442,0,0,0-2.782-1.03,8.488,8.488,0,0,0,3.224-6.174c0-8.086-4.656-9.783-8.56-9.783s-8.56,1.7-8.56,9.783a8.488,8.488,0,0,0,3.225,6.174A6.46,6.46,0,0,0,0,294.377v8.193a1.223,1.223,0,0,0,1.223,1.223H20.789a1.223,1.223,0,0,0,1.223-1.223v-8.193A6.47,6.47,0,0,0,19.125,288.985Zm-14.17-8.5c.331-4.1,2.26-6.044,6.051-6.044,3.471,0,5.381,1.641,5.927,5.065l-4.075-2.446a1.223,1.223,0,0,0-1.789.662C10.451,279.581,7.11,280.283,4.955,280.487Zm.106,2.453c2.094-.172,5.87-.806,7.631-3.124l4.371,2.623c-.49,2.995-4.18,5.457-6.057,5.457A7.7,7.7,0,0,1,5.061,282.94Zm6.955,12-1.01,1.013L10,294.938l1.01-2.528Zm7.55,6.41H2.446v-6.97a4.036,4.036,0,0,1,4.036-4.036H9.2l-1.772,4.438A1.223,1.223,0,0,0,7.7,296.1l2.446,2.446a1.223,1.223,0,0,0,1.729,0l2.446-2.446a1.223,1.223,0,0,0,.271-1.318l-1.776-4.438h2.718a4.036,4.036,0,0,1,4.036,4.036Z" transform="translate(0 -271.998)" fill="#718096"/>
        </g>
      </g>
      <g id="Grupo_186" data-name="Grupo 186" transform="translate(155.681 193.849)">
        <g id="Grupo_185" data-name="Grupo 185">
          <path id="Trazado_168" data-name="Trazado 168" d="M187.125,288.985a6.442,6.442,0,0,0-2.782-1.03,8.488,8.488,0,0,0,3.224-6.174c0-8.086-4.656-9.783-8.56-9.783s-8.56,1.7-8.56,9.783a8.488,8.488,0,0,0,3.225,6.174A6.46,6.46,0,0,0,168,294.377v8.193a1.223,1.223,0,0,0,1.223,1.223h19.566a1.223,1.223,0,0,0,1.223-1.223v-8.193A6.47,6.47,0,0,0,187.125,288.985Zm-14.17-8.5c.331-4.1,2.26-6.044,6.051-6.044,3.471,0,5.381,1.641,5.927,5.065l-4.075-2.446a1.223,1.223,0,0,0-1.789.662C178.451,279.581,175.11,280.283,172.955,280.487Zm.106,2.453c2.094-.172,5.87-.806,7.631-3.124l4.371,2.623c-.49,2.995-4.18,5.457-6.057,5.457A7.7,7.7,0,0,1,173.061,282.94Zm6.955,12-1.01,1.013L178,294.938l1.01-2.528Zm7.55,6.41h-17.12v-6.97a4.036,4.036,0,0,1,4.036-4.036H177.2l-1.776,4.438a1.223,1.223,0,0,0,.271,1.318l2.446,2.446a1.223,1.223,0,0,0,1.729,0l2.446-2.446a1.223,1.223,0,0,0,.271-1.318l-1.772-4.438h2.718a4.036,4.036,0,0,1,4.036,4.036Z" transform="translate(-168 -271.998)" fill="#718096"/>
        </g>
      </g>
      <g id="Grupo_188" data-name="Grupo 188" transform="translate(181.361 193.849)">
        <g id="Grupo_187" data-name="Grupo 187">
          <path id="Trazado_169" data-name="Trazado 169" d="M355.125,288.985a6.442,6.442,0,0,0-2.782-1.03,8.488,8.488,0,0,0,3.224-6.174c0-8.086-4.656-9.783-8.56-9.783s-8.56,1.7-8.56,9.783a8.488,8.488,0,0,0,3.225,6.174A6.46,6.46,0,0,0,336,294.377v8.193a1.223,1.223,0,0,0,1.223,1.223h19.566a1.223,1.223,0,0,0,1.223-1.223v-8.193A6.47,6.47,0,0,0,355.125,288.985Zm-14.17-8.5c.331-4.1,2.26-6.044,6.051-6.044,3.471,0,5.381,1.641,5.927,5.065l-4.075-2.446a1.223,1.223,0,0,0-1.789.662C346.451,279.581,343.11,280.283,340.955,280.487Zm.106,2.453c2.094-.172,5.87-.806,7.631-3.124l4.371,2.623c-.49,2.995-4.18,5.457-6.057,5.457A7.7,7.7,0,0,1,341.061,282.94Zm6.955,12-1.01,1.013L346,294.938l1.01-2.528Zm7.55,6.41h-17.12v-6.97a4.036,4.036,0,0,1,4.036-4.036H345.2l-1.776,4.438a1.223,1.223,0,0,0,.271,1.318l2.446,2.446a1.223,1.223,0,0,0,1.729,0l2.446-2.446a1.223,1.223,0,0,0,.271-1.318l-1.772-4.438h2.719a4.036,4.036,0,0,1,4.036,4.036Z" transform="translate(-336 -271.998)" fill="#718096"/>
        </g>
      </g>
      <g id="Grupo_190" data-name="Grupo 190" transform="translate(147.12 162.049)">
        <g id="Grupo_189" data-name="Grupo 189">
          <path id="Trazado_170" data-name="Trazado 170" d="M151.129,90.875v-15.9a1.223,1.223,0,0,0-1.223-1.223H138.9V70.086a1.223,1.223,0,0,0-1.223-1.223h-7.429a9.761,9.761,0,0,0-8.768-4.892A10.046,10.046,0,0,0,112,74.114a16.753,16.753,0,0,0,2.624,9.013l4.931,7.748h-1.441v2.446h34.241V90.875Zm-25.681,0h-1.441l1.441-2.264Zm-3.669-1.054-5.095-8.007a14.307,14.307,0,0,1-2.243-7.7,7.582,7.582,0,0,1,7.111-7.7h.226a7.337,7.337,0,0,1,7.337,7.337v.36a14.307,14.307,0,0,1-2.243,7.7Zm14.675,1.054h-8.56V84.767l1.044-1.64a16.753,16.753,0,0,0,2.624-9.013v-.36a9.834,9.834,0,0,0-.318-2.446h5.209Zm8.56,0h-2.446V87.206h2.446Zm3.669-13.452h-2.446v2.446h2.446v1.223h-2.446v2.446h2.446v7.337H147.46V85.983a1.223,1.223,0,0,0-1.223-1.223h-4.892a1.223,1.223,0,0,0-1.223,1.223v4.892H138.9V83.538h2.446V81.092H138.9V79.869h2.446V77.423H138.9V76.2h9.783Z" transform="translate(-111.996 -63.967)" fill="#718096"/>
        </g>
      </g>
      <g id="Grupo_192" data-name="Grupo 192" transform="translate(167.97 170.357)">
        <g id="Grupo_191" data-name="Grupo 191" transform="translate(0 0)">
          <rect id="Rectángulo_151" data-name="Rectángulo 151" width="2.566" height="2.566" fill="#718096"/>
        </g>
      </g>
      <g id="Grupo_194" data-name="Grupo 194" transform="translate(177.592 175.488)">
        <g id="Grupo_193" data-name="Grupo 193" transform="translate(0 0)">
          <rect id="Rectángulo_152" data-name="Rectángulo 152" width="2.566" height="2.566" fill="#718096"/>
        </g>
      </g>
      <g id="Grupo_196" data-name="Grupo 196" transform="translate(177.592 179.337)">
        <g id="Grupo_195" data-name="Grupo 195" transform="translate(0 0)">
          <rect id="Rectángulo_153" data-name="Rectángulo 153" width="2.566" height="2.566" fill="#718096"/>
        </g>
      </g>
      <g id="Grupo_198" data-name="Grupo 198" transform="translate(167.97 174.206)">
        <g id="Grupo_197" data-name="Grupo 197" transform="translate(0 0)">
          <rect id="Rectángulo_154" data-name="Rectángulo 154" width="2.566" height="2.566" fill="#718096"/>
        </g>
      </g>
      <g id="Grupo_200" data-name="Grupo 200" transform="translate(167.97 178.054)">
        <g id="Grupo_199" data-name="Grupo 199" transform="translate(0 0)">
          <rect id="Rectángulo_155" data-name="Rectángulo 155" width="2.566" height="2.566" fill="#718096"/>
        </g>
      </g>
      <g id="Grupo_202" data-name="Grupo 202" transform="translate(164.121 181.903)">
        <g id="Grupo_201" data-name="Grupo 201" transform="translate(0 0)">
          <rect id="Rectángulo_156" data-name="Rectángulo 156" width="2.566" height="1.924" fill="#718096"/>
        </g>
      </g>
      <g id="Grupo_204" data-name="Grupo 204" transform="translate(167.97 181.903)">
        <g id="Grupo_203" data-name="Grupo 203" transform="translate(0 0)">
          <rect id="Rectángulo_157" data-name="Rectángulo 157" width="2.566" height="1.924" fill="#718096"/>
        </g>
      </g>
      <g id="Grupo_206" data-name="Grupo 206" transform="translate(164.121 185.11)">
        <g id="Grupo_205" data-name="Grupo 205" transform="translate(0 0)">
          <rect id="Rectángulo_158" data-name="Rectángulo 158" width="2.566" height="2.566" fill="#718096"/>
        </g>
      </g>
      <g id="Grupo_208" data-name="Grupo 208" transform="translate(167.97 185.11)">
        <g id="Grupo_207" data-name="Grupo 207" transform="translate(0 0)">
          <rect id="Rectángulo_159" data-name="Rectángulo 159" width="2.566" height="2.566" fill="#718096"/>
        </g>
      </g>
      <g id="Grupo_248" data-name="Grupo 248" transform="translate(152.012 166.946)">
        <g id="Grupo_247" data-name="Grupo 247">
          <path id="Trazado_190" data-name="Trazado 190" d="M148.892,96a4.892,4.892,0,1,0,4.892,4.892A4.892,4.892,0,0,0,148.892,96Zm0,7.337a2.446,2.446,0,1,1,2.446-2.446A2.446,2.446,0,0,1,148.892,103.335Z" transform="translate(-144 -95.998)" fill="#718096"/>
        </g>
      </g>
    </g>
  </g>
</svg>
