<svg height="511pt" viewBox="1 -7 511.999 511" width="511pt" xmlns="http://www.w3.org/2000/svg"><path d="m463.558594.5h-415.117188c-26.707031 0-48.43749975 21.730469-48.43749975 48.441406l-.00390625 293.730469c0 27.960937 22.746094 50.703125 50.707031 50.703125h45.261719c4.199219 0 7.605469-3.402344 7.605469-7.601562 0-4.199219-3.40625-7.605469-7.605469-7.605469h-45.261719c-18.722656 0-34.09375-14.566407-35.398437-32.960938h481.382812c-1.304687 18.394531-16.675781 32.960938-35.398437 32.960938h-339.972657c-4.199218 0-7.605468 3.40625-7.605468 7.605469 0 4.199218 3.40625 7.601562 7.605468 7.601562h38.570313l-10.101563 42.300781h-21.027343c-21.847657 0-39.625 17.777344-39.625 39.625v13.660157c0 4.199218 3.40625 7.601562 7.605469 7.601562h318.515624c4.199219 0 7.605469-3.402344 7.605469-7.601562v-13.660157c0-21.847656-17.777343-39.625-39.625-39.625h-21.03125l-10.097656-42.300781h109.183594c27.960937 0 50.707031-22.746094 50.707031-50.703125v-164.871094c0-4.199219-3.40625-7.605469-7.605469-7.605469s-7.601562 3.40625-7.601562 7.605469v152.199219h-83.472657c40.261719-21.644531 67.695313-64.175781 67.695313-112.996094 0-4.199218-3.402344-7.605468-7.601563-7.605468h-76.34375c-4.199218 0-7.605468 3.40625-7.605468 7.605468 0 4.199219 3.40625 7.601563 7.605468 7.601563h33.949219c-3.839843 39.773437-37.441406 70.972656-78.203125 70.972656-40.757812 0-74.359375-31.199219-78.199218-70.972656h97.105468c4.199219 0 7.601563-3.402344 7.601563-7.601563 0-4.199218-3.402344-7.605468-7.601563-7.605468h-139.5c-4.199218 0-7.605468 3.40625-7.605468 7.605468 0 48.820313 27.4375 91.351563 67.699218 112.996094h-92.875c9.152344-9.25 14.816406-21.957031 14.816406-35.964844 0-27.679687-22.09375-50.285156-49.574218-51.136718 5.679687-8.242188 9.011718-18.21875 9.011718-28.960938 0-28.21875-22.957031-51.175781-51.175781-51.175781-28.214843 0-51.171875 22.957031-51.171875 51.175781 0 10.753906 3.339844 20.738281 9.03125 28.984375-27.015625 1.359375-48.574218 23.765625-48.574218 51.109375 0 14.007812 5.664062 26.71875 14.8125 35.96875h-31.410157v-197.226562c10.472657 11.34375 25.457031 18.464843 42.078125 18.464843 21.230469 0 39.78125-11.613281 49.679688-28.816406 9.894531 17.203125 28.449218 28.816406 49.675781 28.816406 21.230469 0 39.785156-11.617187 49.679687-28.820312 9.894532 17.203125 28.449219 28.820312 49.679688 28.820312 21.226562 0 39.78125-11.617187 49.679688-28.820312 9.894531 17.203125 28.449218 28.820312 49.675781 28.820312 21.230469 0 39.785156-11.617187 49.679687-28.820312 9.898438 17.203125 28.453125 28.820312 49.679688 28.820312 16.621094 0 31.601562-7.121093 42.078125-18.460937v19.675781c0 4.199219 3.402343 7.601563 7.601562 7.601563s7.605469-3.402344 7.605469-7.601563v-103.515625c0-26.707031-21.730469-48.4375-48.441406-48.4375zm-55.902344 474.800781v6.054688h-303.3125v-6.054688c0-13.464843 10.953125-24.417969 24.417969-24.417969h254.476562c13.464844 0 24.417969 10.953126 24.417969 24.417969zm-61.082031-39.625h-181.148438l10.097657-42.296875h160.953124zm-106.492188-211.070312h19.265625c3.882813 48.167969 44.320313 86.179687 93.472656 86.179687 49.148438 0 89.585938-38.011718 93.472657-86.179687h19.265625c-3.925782 58.773437-52.992188 105.390625-112.738282 105.390625-59.75 0-108.816406-46.617188-112.738281-105.390625zm-120.738281 105.394531c1.292969-1.308594 2.511719-2.691406 3.660156-4.132812 1.148438 1.449218 2.371094 2.828124 3.65625 4.132812zm79.703125-35.964844c0 19.828125-16.136719 35.960938-35.96875 35.960938-13.410156 0-25.578125-7.417969-31.78125-19.121094 1.84375-5.277344 2.859375-10.941406 2.859375-16.84375 0-5.898438-1.015625-11.566406-2.859375-16.84375 6.203125-11.703125 18.371094-19.125 31.78125-19.125 19.832031 0 35.96875 16.136719 35.96875 35.972656zm-76.523437-116.066406c19.832031 0 35.964843 16.132812 35.964843 35.96875 0 19.832031-16.132812 35.96875-35.964843 35.96875-19.832032 0-35.96875-16.136719-35.96875-35.96875 0-19.835938 16.136718-35.96875 35.96875-35.96875zm-75.507813 116.0625c0-19.832031 16.132813-35.96875 35.964844-35.96875 19.835937 0 35.96875 16.136719 35.96875 35.96875s-16.132813 35.96875-35.96875 35.96875c-19.832031 0-35.964844-16.136719-35.964844-35.96875zm10.269531-158c-23.199218 0-42.074218-18.875-42.074218-42.074219v-45.019531c0-18.324219 14.90625-33.230469 33.230468-33.230469h50.917969v78.25.066407c-.035156 23.171874-18.894531 42.007812-42.074219 42.007812zm99.355469 0c-23.175781 0-42.035156-18.835938-42.070313-42.007812 0-.019532 0-.042969 0-.066407v-78.25h84.148438v78.25c0 23.199219-18.878906 42.074219-42.078125 42.074219zm99.359375 0c-23.199219 0-42.074219-18.875-42.074219-42.074219v-78.25h84.148438v78.25c0 23.199219-18.875 42.074219-42.074219 42.074219zm99.359375 0c-23.199219 0-42.078125-18.875-42.078125-42.074219v-78.25h84.152344v78.25c0 23.199219-18.875 42.074219-42.074219 42.074219zm99.359375 0c-23.203125 0-42.078125-18.875-42.078125-42.074219v-78.25h50.917969c18.324218 0 33.234375 14.90625 33.234375 33.230469v45.019531c0 23.199219-18.875 42.074219-42.074219 42.074219zm0 0"/><path d="m319.605469 239.140625c-1.757813-2.5625-4.945313-3.882813-7.996094-3.191406-2.910156.664062-5.195313 3.003906-5.78125 5.929687-.640625 3.183594.886719 6.5 3.707031 8.097656 2.9375 1.664063 6.722656 1.148438 9.117188-1.234374 2.546875-2.53125 2.917968-6.617188.953125-9.601563zm0 0"/><path d="m359.144531 239.140625c-1.753906-2.5625-4.941406-3.882813-7.996093-3.191406-2.910157.664062-5.195313 3.003906-5.78125 5.929687-.640626 3.1875.882812 6.496094 3.707031 8.097656 2.941406 1.664063 6.722656 1.148438 9.117187-1.234374 2.546875-2.53125 2.917969-6.617188.953125-9.601563zm0 0"/><path d="m386.03125 239.140625c-1.757812 2.671875-1.671875 6.257813.265625 8.8125 1.980469 2.609375 5.535156 3.679687 8.625 2.566406 3.050781-1.097656 5.121094-4.097656 5.035156-7.34375-.074219-2.984375-1.9375-5.6875-4.6875-6.832031-3.328125-1.386719-7.21875-.15625-9.238281 2.796875zm0 0"/><path d="m331.558594 263.351562c-3.0625.652344-5.484375 3.105469-6.007813 6.207032-.550781 3.246094 1.148438 6.566406 4.082031 8.039062 2.855469 1.4375 6.367188.910156 8.675782-1.300781 2.359375-2.257813 3-5.886719 1.566406-8.824219-1.492188-3.046875-4.980469-4.789062-8.316406-4.121094zm0 0"/><path d="m376.808594 264.488281c-2.832032-1.910156-6.726563-1.617187-9.269532.644531-2.25 2.007813-3.09375 5.199219-2.164062 8.0625.996094 3.074219 3.980469 5.222657 7.214844 5.222657 3.164062 0 6.101562-2.058594 7.15625-5.042969 1.15625-3.28125-.082032-6.933594-2.9375-8.886719zm0 0"/><path d="m130.703125 206.394531c2.574219 6.101563 11.496094 6.148438 14.042969-.003906 1.273437-3.066406.351562-6.710937-2.234375-8.804687-2.320313-1.886719-5.605469-2.222657-8.265625-.859376-3.453125 1.773438-5.0625 6.070313-3.542969 9.667969zm0 0"/><path d="m68.269531 280.972656c-2.746093-1.847656-6.492187-1.640625-9.042969.449219-2.515624 2.054687-3.425781 5.585937-2.269531 8.613281 1.109375 2.894532 3.992188 4.871094 7.09375 4.871094 3.113281 0 5.964844-1.980469 7.082031-4.871094 1.265626-3.273437.074219-7.125-2.863281-9.0625zm0 0"/><path d="m160.285156 272.894531c-1.226562-3.0625-4.5-4.972656-7.761718-4.652343-3.109376.308593-5.746094 2.542968-6.578126 5.546874-1.820312 6.5625 5.625 12.058594 11.386719 8.4375 3.101563-1.945312 4.347657-5.953124 2.953125-9.332031zm0 0"/></svg>