<?xml version="1.0" encoding="utf-8"?>
<!-- Generator: Adobe Illustrator 16.0.0, SVG Export Plug-In . SVG Version: 6.00 Build 0)  -->
<!DOCTYPE svg PUBLIC "-//W3C//DTD SVG 1.1//EN" "http://www.w3.org/Graphics/SVG/1.1/DTD/svg11.dtd">
<svg xmlns="http://www.w3.org/2000/svg" xmlns:xlink="http://www.w3.org/1999/xlink" version="1.1" id="Bakery" x="0px" y="0px" width="512" height="512" viewBox="0 0 144.083 144" enable-background="new 0 0 144.083 144" xml:space="preserve">
<path d="M122.03,94.193c-0.1-1.133-2.986-27.739-49.989-27.739c-46.904,0-49.883,26.597-49.987,27.729l-0.013,0.274  c0,18,16.85,18,28,18h44c11.15,0,28,0,28-18L122.03,94.193z M94.042,106.457h-44c-15.127,0-21.923-1.713-22-11.826  c0.215-1.563,2.646-14.572,23.536-19.904l-3.7,12.116c-0.484,1.585,0.408,3.262,1.993,3.745c0.292,0.089,0.587,0.132,0.877,0.132  c1.285,0,2.474-0.832,2.868-2.125l4.641-15.199c3.795-0.56,8.074-0.89,12.879-0.927l-4.389,14.374  c-0.484,1.585,0.408,3.262,1.993,3.745c0.292,0.089,0.587,0.132,0.877,0.132c1.285,0,2.474-0.832,2.868-2.125l4.848-15.876  c0.012-0.041,0.014-0.083,0.023-0.125c4.574,0.224,8.611,0.729,12.17,1.448L85.62,86.843c-0.484,1.585,0.408,3.262,1.992,3.745  c0.293,0.089,0.588,0.132,0.877,0.132c1.285,0,2.475-0.832,2.869-2.125l3.992-13.077c18.406,5.751,20.51,17.725,20.689,19.102  C115.969,104.743,109.174,106.457,94.042,106.457z"/>
<path d="M55.838,55.834c1.852,0,3.701,0,5.551,0c6.664-8.096-6.662-16.193,0-24.291c-1.85,0-3.699,0-5.551,0  C49.174,39.641,62.502,47.738,55.838,55.834z"/>
<path d="M69.264,55.834c1.852,0,3.704,0,5.553,0c6.664-8.096-6.665-16.193,0-24.291c-1.85,0-3.702,0-5.553,0  C62.6,39.641,75.928,47.738,69.264,55.834z"/>
<path d="M82.692,55.834c1.852,0,3.701,0,5.553,0c6.664-8.096-6.664-16.193,0-24.291c-1.852,0-3.701,0-5.553,0  C76.028,39.641,89.356,47.738,82.692,55.834z"/>
</svg>
