<?xml version="1.0" encoding="iso-8859-1"?>
<!-- Generator: Adobe Illustrator 19.0.0, SVG Export Plug-In . SVG Version: 6.00 Build 0)  -->
<svg version="1.1" id="Capa_1" xmlns="http://www.w3.org/2000/svg" xmlns:xlink="http://www.w3.org/1999/xlink" x="0px" y="0px"
	 viewBox="0 0 512.001 512.001" style="enable-background:new 0 0 512.001 512.001;" xml:space="preserve">
<g>
	<g>
		<path d="M86.733,71.647c-22.44,0-40.697,18.257-40.697,40.696s18.257,40.697,40.697,40.697c22.441,0,40.696-18.257,40.696-40.697
			S109.173,71.647,86.733,71.647z M86.733,133.028c-11.405,0-20.684-9.279-20.684-20.684c0-11.404,9.279-20.683,20.684-20.683
			c11.404,0,20.683,9.279,20.683,20.683C107.417,123.749,98.138,133.028,86.733,133.028z"/>
	</g>
</g>
<g>
	<g>
		<path d="M86.736,286.497c-22.445,0-40.704,18.26-40.704,40.705c0,22.439,18.26,40.694,40.704,40.694
			c22.439,0,40.693-18.256,40.693-40.694C127.43,304.757,109.175,286.497,86.736,286.497z M86.736,347.883
			c-11.409,0-20.691-9.277-20.691-20.681c0-11.409,9.282-20.691,20.691-20.691c11.403,0,20.68,9.282,20.68,20.691
			C107.417,338.605,98.14,347.883,86.736,347.883z"/>
	</g>
</g>
<g>
	<g>
		<path d="M250.613,219.495c-0.13-0.64-0.32-1.27-0.57-1.871c-0.25-0.61-0.56-1.191-0.921-1.731c-0.37-0.55-0.791-1.061-1.251-1.521
			c-2.321-2.322-5.774-3.392-9.026-2.732c-0.64,0.13-1.271,0.32-1.871,0.57c-0.61,0.25-1.191,0.56-1.731,0.921
			c-0.55,0.36-1.061,0.781-1.521,1.241c-0.46,0.46-0.881,0.971-1.241,1.521c-0.36,0.54-0.67,1.121-0.921,1.731
			c-0.25,0.6-0.44,1.231-0.57,1.871c-0.13,0.64-0.2,1.301-0.2,1.951c0,2.642,1.071,5.213,2.932,7.075
			c0.46,0.46,0.971,0.881,1.521,1.251c0.54,0.36,1.121,0.67,1.731,0.921c0.6,0.25,1.231,0.44,1.871,0.57
			c0.64,0.13,1.301,0.19,1.951,0.19c0.65,0,1.311-0.06,1.961-0.19c0.63-0.13,1.261-0.32,1.871-0.57c0.6-0.25,1.181-0.56,1.721-0.921
			c0.55-0.37,1.061-0.791,1.521-1.251c0.46-0.46,0.881-0.971,1.251-1.521c0.36-0.54,0.67-1.121,0.921-1.721
			c0.25-0.61,0.44-1.241,0.57-1.871c0.13-0.65,0.19-1.301,0.19-1.961C250.803,220.796,250.743,220.136,250.613,219.495z"/>
	</g>
</g>
<g>
	<g>
		<path d="M165.908,293.814c-0.12-0.64-0.32-1.27-0.57-1.871c-0.25-0.61-0.56-1.191-0.921-1.731c-0.36-0.55-0.781-1.061-1.241-1.521
			c-0.46-0.46-0.971-0.881-1.521-1.241c-0.54-0.36-1.121-0.67-1.721-0.921c-0.61-0.25-1.241-0.45-1.881-0.57
			c-1.281-0.26-2.612-0.26-3.903,0c-0.64,0.12-1.271,0.32-1.871,0.57c-0.61,0.25-1.191,0.56-1.731,0.921
			c-0.55,0.36-1.061,0.781-1.521,1.241c-0.46,0.46-0.881,0.971-1.241,1.521c-0.36,0.54-0.67,1.121-0.921,1.731
			c-0.25,0.6-0.44,1.231-0.57,1.871c-0.13,0.64-0.2,1.301-0.2,1.951c0,0.65,0.07,1.311,0.2,1.951c0.13,0.64,0.32,1.271,0.57,1.871
			c0.25,0.61,0.56,1.191,0.921,1.731c0.36,0.55,0.781,1.061,1.241,1.521c0.46,0.46,0.971,0.881,1.521,1.241
			c0.54,0.36,1.121,0.67,1.731,0.921c0.6,0.25,1.231,0.45,1.871,0.58c0.64,0.13,1.301,0.19,1.951,0.19c0.65,0,1.311-0.06,1.951-0.19
			c0.64-0.13,1.271-0.33,1.881-0.58c0.6-0.25,1.181-0.56,1.721-0.921c0.55-0.36,1.061-0.781,1.521-1.241
			c0.46-0.46,0.881-0.971,1.241-1.521c0.36-0.54,0.67-1.121,0.921-1.731c0.25-0.6,0.45-1.231,0.57-1.871
			c0.13-0.64,0.2-1.301,0.2-1.951C166.108,295.115,166.038,294.454,165.908,293.814z"/>
	</g>
</g>
<g>
	<g>
		<path d="M508.246,365.901L326.237,220.288L508.231,75.216c2.382-1.898,3.769-4.779,3.769-7.825v-1.025
			c0-5.527-4.48-10.006-10.006-10.006h-92.248c-1.808,0-3.582,0.489-5.133,1.418l-153.715,91.87
			c-36.947-35.367-98.299-94.114-101.338-97.098c-12.882-13.535-29.275-22.305-47.227-25.53c-0.195-0.036-0.391-0.07-0.587-0.104
			c-0.985-0.17-1.973-0.327-2.967-0.463c-0.753-0.105-1.509-0.2-2.268-0.286c-0.494-0.055-0.988-0.109-1.484-0.156
			c-1.184-0.113-2.374-0.204-3.57-0.268c-0.138-0.007-0.276-0.016-0.414-0.023c-1.425-0.07-2.859-0.107-4.302-0.107
			c-0.001,0-0.002,0-0.003,0h-0.001h-0.001h-0.001C38.907,25.613,0,64.521,0,112.347c0,47.78,38.844,86.659,86.616,86.724
			c0.039,0,0.078,0.006,0.117,0.006c0.974,0,1.941-0.022,2.907-0.054c0.129-0.004,0.258-0.01,0.386-0.015
			c0.813-0.03,1.622-0.072,2.429-0.125c0.19-0.012,0.381-0.023,0.571-0.036c0.876-0.063,1.748-0.136,2.617-0.225
			c0.366-0.037,0.73-0.084,1.097-0.126c0.453-0.052,0.906-0.105,1.356-0.164c0.546-0.071,1.092-0.148,1.635-0.229
			c0.168-0.025,0.336-0.052,0.504-0.079c11.412-1.772,22.28-5.786,32.135-11.911l31.303,26.444l-46.341,33.506
			c-2.142-0.805-4.313-1.552-6.533-2.193c-0.53-0.153-1.064-0.248-1.595-0.312c-6.208-1.652-14.027-3.092-22.47-3.092
			C38.909,240.466,0,279.375,0,327.201c0,47.821,38.909,86.725,86.736,86.725c6.045,0,12.038-0.644,17.885-1.885
			c-1.848,8.178-9.159,14.308-17.887,14.308c-20.645,0-31.447,15.102-31.447,30.02c0,14.918,10.802,30.02,31.447,30.02
			c43.957,0,78.389-33.405,78.389-76.049V371.83c20.087-19.539,55.999-54.468,85.315-82.982l154.079,94.423
			c1.573,0.964,3.383,1.475,5.228,1.475h92.248c5.527,0,10.006-4.48,10.006-10.007v-1.025
			C512.001,370.676,510.619,367.801,508.246,365.901z M96.986,178.274c-0.13,0.02-0.261,0.036-0.391,0.055
			c-0.857,0.127-1.718,0.235-2.585,0.329c-0.328,0.035-0.655,0.068-0.985,0.099c-0.683,0.064-1.371,0.114-2.06,0.157
			c-0.394,0.024-0.786,0.053-1.182,0.071c-0.747,0.034-1.501,0.048-2.254,0.057c-0.264,0.003-0.527,0.016-0.792,0.016
			c-36.792,0-66.724-29.926-66.724-66.712c0-36.791,29.932-66.721,66.721-66.722c36.789,0.001,66.718,29.93,66.718,66.719
			C153.453,145.647,128.926,173.327,96.986,178.274z M148.3,173.371c15.547-15.683,25.165-37.252,25.165-61.028
			c0-3.261-0.187-6.478-0.539-9.647c19.134,18.331,42.287,40.497,61.39,58.783l-53.932,38.995L148.3,173.371z M145.109,410.34
			c0,31.422-25.642,56.036-58.376,56.036c-10.883,0-11.434-8.335-11.434-10.006c0-1.671,0.551-10.007,11.434-10.007
			c21.154,0,38.363-17.21,38.363-38.363v-3.017c7.362-3.618,14.077-8.196,20.013-13.578V410.34z M172.986,336.263
			c0.037-0.344,0.089-0.688,0.122-1.032c0.517-5.503-3.523-10.382-9.026-10.9c-5.507-0.519-10.382,3.523-10.9,9.026
			c-0.39,4.152-1.181,8.308-2.349,12.352c-2.907,10.066-8.014,19.083-14.839,26.542c-0.596,0.582-0.626,0.614-0.661,0.651
			c-2.871,3.052-5.982,5.777-9.274,8.194c-4.482,3.255-9.395,6-14.696,8.11c-0.189,0.075-0.366,0.165-0.547,0.25
			c-7.562,2.919-15.682,4.456-24.08,4.456c-36.791,0-66.723-29.927-66.723-66.712c0-36.791,29.932-66.722,66.723-66.722
			c11.512,0,21.837,3.615,25.862,5.223c5.921,2.478,11.422,5.764,16.409,9.849c1.86,1.524,4.106,2.267,6.336,2.267
			c2.896,0,5.768-1.251,7.746-3.665c3.502-4.275,2.877-10.58-1.398-14.082c-1.519-1.245-3.086-2.412-4.675-3.543l48.901-35.357
			c0.002-0.001,0.003-0.002,0.005-0.003l74.754-54.049l151.834-90.746h62.164L283.952,228.402c-0.257,0.205-0.503,0.422-0.74,0.651
			C229,281.782,194.709,315.133,172.986,336.263z M412.567,364.733l-147.325-90.284c16.824-16.364,29.316-28.514,31.569-30.705
			l13.379-10.664l164.558,131.653H412.567z"/>
	</g>
</g>
<g>
</g>
<g>
</g>
<g>
</g>
<g>
</g>
<g>
</g>
<g>
</g>
<g>
</g>
<g>
</g>
<g>
</g>
<g>
</g>
<g>
</g>
<g>
</g>
<g>
</g>
<g>
</g>
<g>
</g>
</svg>
