<?xml version="1.0" encoding="iso-8859-1"?>
<!-- Generator: Adobe Illustrator 19.0.0, SVG Export Plug-In . SVG Version: 6.00 Build 0)  -->
<svg version="1.1" id="Capa_1" xmlns="http://www.w3.org/2000/svg" xmlns:xlink="http://www.w3.org/1999/xlink" x="0px" y="0px"
	 viewBox="0 0 512 512" style="enable-background:new 0 0 512 512;" xml:space="preserve">
<g>
	<g>
		<path d="M389.076,211.508c0.359-2.18,0.547-4.394,0.547-6.638c0-19.39-13.566-35.66-31.702-39.848V123.06h10.226
			c5.647,0,10.226-4.578,10.226-10.226c0-5.648-4.579-10.226-10.226-10.226h-10.226V89.313c0-22.555-18.35-40.905-40.905-40.905
			c-22.555,0-40.905,18.35-40.905,40.905v13.294H163.986c-5.055-40.581-39.736-72.096-81.664-72.096
			C36.929,30.512,0,67.441,0,112.833s36.929,82.322,82.322,82.322c41.928,0,76.609-31.514,81.664-72.096h112.124v42.487
			c-6.589,1.888-12.646,5.426-17.658,10.43c-7.737,7.75-11.999,18.012-11.999,28.893c0,1.96,0.142,3.901,0.417,5.817
			c-26.105,12.417-48.408,31.456-64.853,55.519c-18.592,27.204-28.421,59.061-28.427,92.131c0,0.01-0.001,0.02-0.001,0.032
			c0,0.009,0.001,0.018,0.001,0.028c0.004,26.14,5.995,51.119,17.807,74.244c11.265,22.054,27.711,41.597,47.562,56.516
			c1.771,1.331,3.928,2.051,6.144,2.051h184.033c2.216,0,4.372-0.72,6.144-2.051c19.849-14.918,36.294-34.462,47.556-56.517
			c11.811-23.133,17.8-48.121,17.8-74.272C480.637,295.57,444.981,238.896,389.076,211.508z M82.322,174.703
			c-34.114,0-61.869-27.754-61.869-61.869c0-34.115,27.755-61.869,61.869-61.869c34.114,0,61.869,27.754,61.869,61.869
			C144.191,146.949,116.436,174.703,82.322,174.703z M296.563,89.313c0-11.278,9.175-20.453,20.453-20.453
			c11.278,0,20.453,9.175,20.453,20.453v74.652h-40.905V89.313z M272.916,190.438c3.343-3.337,7.604-5.375,12.182-5.884
			c0.407,0.049,0.819,0.083,1.239,0.083c0.721,0,1.423-0.077,2.102-0.218h57.451c0.587,0.104,1.188,0.169,1.805,0.169
			c0.552,0,1.089-0.056,1.618-0.14c10.467,0.303,18.993,8.49,19.796,18.827c-16.691-5.602-34.127-8.435-51.991-8.435
			c-17.17,0-33.968,2.626-50.091,7.818C267.526,198.061,269.576,193.783,272.916,190.438z M405.657,470.755H228.58
			c-32.014-25.216-51.36-61.869-54.169-102.161h31.4c5.647,0,10.226-4.578,10.226-10.226s-4.579-10.226-10.226-10.226h-31.4
			c3.811-54.109,37.67-101.379,88.449-122.202c0,0,0.001,0,0.001-0.001c17.226-7.065,35.48-10.648,54.255-10.648
			c19.328,0,38.074,3.785,55.717,11.249c0.002,0.001,0.005,0.002,0.007,0.003c49.898,21.131,83.182,68.153,86.972,121.598h-172.19
			c-5.647,0-10.226,4.578-10.226,10.226s4.579,10.226,10.226,10.226h172.193C457.007,408.889,437.665,445.542,405.657,470.755z"/>
	</g>
</g>
<g>
	<g>
		<path d="M501.772,102.607h-81.811c-5.647,0-10.226,4.578-10.226,10.226c0,5.648,4.579,10.226,10.226,10.226h81.811
			c5.647,0,10.226-4.578,10.226-10.226C511.998,107.186,507.419,102.607,501.772,102.607z"/>
	</g>
</g>
<g>
	<g>
		<path d="M506.345,185.498l-81.81-40.905c-5.052-2.526-11.194-0.479-13.72,4.573c-2.526,5.052-0.479,11.195,4.574,13.721
			l81.81,40.905c1.469,0.734,3.028,1.082,4.565,1.082c3.751,0,7.363-2.072,9.155-5.655
			C513.444,194.165,511.397,188.023,506.345,185.498z"/>
	</g>
</g>
<g>
	<g>
		<path d="M510.919,26.449c-2.525-5.052-8.672-7.1-13.72-4.573l-81.811,40.905c-5.052,2.526-7.099,8.669-4.574,13.721
			c1.792,3.584,5.403,5.655,9.155,5.655c1.537,0,3.098-0.348,4.565-1.082l81.811-40.905
			C511.397,37.643,513.444,31.501,510.919,26.449z"/>
	</g>
</g>
<g>
	<g>
		<path d="M256.742,356.271c-0.133-0.654-0.327-1.299-0.583-1.912c-0.256-0.624-0.574-1.217-0.942-1.769
			c-0.367-0.562-0.797-1.084-1.267-1.554s-0.993-0.9-1.555-1.268c-0.552-0.368-1.156-0.685-1.768-0.941
			c-0.615-0.256-1.258-0.46-1.912-0.583c-1.319-0.266-2.679-0.266-3.999,0c-0.654,0.123-1.289,0.327-1.912,0.583
			c-0.614,0.256-1.207,0.573-1.759,0.941c-0.562,0.368-1.085,0.798-1.555,1.268c-0.481,0.47-0.9,0.992-1.278,1.554
			c-0.367,0.552-0.685,1.145-0.941,1.769c-0.256,0.614-0.449,1.258-0.582,1.912c-0.134,0.654-0.194,1.329-0.194,1.994
			s0.061,1.34,0.194,1.994c0.133,0.655,0.326,1.299,0.582,1.912c0.256,0.624,0.574,1.217,0.941,1.769
			c0.378,0.562,0.798,1.084,1.278,1.554c0.47,0.47,0.993,0.9,1.555,1.268c0.552,0.368,1.145,0.685,1.759,0.941
			c0.624,0.256,1.258,0.46,1.912,0.593c0.665,0.133,1.34,0.194,2.004,0.194c2.69,0,5.328-1.094,7.23-2.996
			c1.901-1.902,2.996-4.541,2.996-7.23C256.946,357.6,256.875,356.925,256.742,356.271z"/>
	</g>
</g>
<g>
</g>
<g>
</g>
<g>
</g>
<g>
</g>
<g>
</g>
<g>
</g>
<g>
</g>
<g>
</g>
<g>
</g>
<g>
</g>
<g>
</g>
<g>
</g>
<g>
</g>
<g>
</g>
<g>
</g>
</svg>
