<svg height="461pt" viewBox="0 -87 461.638 461" width="461pt" xmlns="http://www.w3.org/2000/svg"><path d="m8 157.847656c16.257812 0 23.957031 4.847656 32.871094 10.464844 9.621094 6.058594 20.523437 12.925781 41.402344 12.925781 20.878906 0 31.777343-6.867187 41.398437-12.925781 8.914063-5.617188 16.613281-10.464844 32.871094-10.464844 16.257812 0 23.957031 4.847656 32.871093 10.464844 9.621094 6.058594 20.523438 12.925781 41.402344 12.925781s31.78125-6.867187 41.398438-12.925781c8.914062-5.617188 16.613281-10.464844 32.875-10.464844 16.257812 0 23.957031 4.847656 32.875 10.464844 9.617187 6.058594 20.519531 12.925781 41.398437 12.925781 20.875 0 31.78125-6.867187 41.398438-12.925781 8.917969-5.617188 16.617187-10.464844 32.875-10.464844 4.417969 0 8-3.582031 8-8 0-4.417968-3.582031-8-8-8-20.878907 0-31.78125 6.867188-41.398438 12.925782-8.914062 5.617187-16.617187 10.464843-32.875 10.464843-14.480469 0-22.089843-3.847656-29.898437-8.660156.207031-.664063.328125-1.355469.359375-2.050781v-118.375c-.027344-10.933594 8.816406-19.8125 19.75-19.832032 4.417969.003907 8.003906-3.574218 8.011719-7.992187.003906-4.417969-3.574219-8.003906-7.992188-8.007813-19.769531.023438-35.78125 16.0625-35.773438 35.832032v10.261718h-55v-10.261718c.074219-10.972656 8.992188-19.832032 19.96875-19.832032 4.417969-.011718 7.992188-3.601562 7.984376-8.019531-.011719-4.417969-3.601563-7.992187-8.019532-7.980469-19.800781.011719-35.863281 16.03125-35.933594 35.832032v117.199218c.042969.570313.152344 1.132813.316407 1.679688-8.742188 5.5-16.386719 10.207031-32.394531 10.207031-16.257813 0-23.921876-4.851562-32.839844-10.464843-9.4375-5.949219-20.109375-12.671876-40.246094-12.917969-5.65625-5-10.15625-9.199219-14.898438-13.597657-2.300781-2.140624-4.722656-4.402343-7.429687-6.886718 6.089844 5.195312 13.828125 8.046875 21.832031 8.042968 3.828125-.003906 7.628906-.640624 11.246094-1.882812 8.574219-2.976562 15.597656-9.265625 19.5-17.460938 3.964844-8.121093 4.457031-17.503906 1.367188-26-3.929688-11.570312-13.777344-20.136718-25.78125-22.425781-12.003907-2.289062-24.3125 2.054688-32.222657 11.371094-7.910156 9.3125-10.203125 22.164063-5.996093 33.636719 1.71875 4.914062 4.535156 9.371094 8.230468 13.035156-3.421875-3.132812-7.300781-6.636719-11.917968-10.722656-12.308594-10.886719-24.542969-21.886719-35.929688-32.152344-5.226562-4.710938-11.179688-6.382812-17.695312-4.960938-7.214844 1.570313-14.433594 3.125-21.660157 4.65625-8.234375 1.757813-16.75 3.574219-25.125 5.414063-10.625 2.339844-17.402343 12.78125-15.214843 23.441406 2 10.429688 12.023437 17.304688 22.476562 15.414063 11.175781-2.089844 22.621094-4.539063 34.003906-7.277344.824219-.222656 1.664063-.363281 2.511719-.417969.210937.214844.398437.445313.570313.691407 1.980468 2.734374 4.128906 5.34375 6.429687 7.820312.386719.414062.566406.976562.5 1.539062-.054687.574219-.359375 1.09375-.832031 1.421876l-33.496094 23.730468c-7.472656-3.617187-16.75-6.4375-30.125-6.4375-4.417969 0-8 3.582032-8 8 0 4.417969 3.582031 8 8 8zm325.820312-45.433594h-55v-15h55zm-55 34.042969v-18.042969h55v19.140626c-7-3.261719-16.328124-5.707032-28.789062-5.707032-8.953125-.144531-17.847656 1.421875-26.210938 4.609375zm55-84.042969v19h-55v-19zm-192.820312 25.160157c2.074219-4.273438 5.773438-7.535157 10.273438-9.058594 9.574218-3.34375 19.449218 1.410156 22.972656 11.046875 1.597656 4.449219 1.320312 9.359375-.769532 13.601562-3.121093 6.578126-9.910156 10.617188-17.179687 10.210938-7.269531-.402344-13.570313-5.167969-15.941406-12.050781-1.632813-4.484375-1.402344-9.4375.644531-13.75zm-60.132812 50.03125c4.203124-2.976563 6.929687-7.617188 7.488281-12.738281.554687-5.125-1.113281-10.238282-4.578125-14.050782-1.859375-1.996094-3.601563-4.097656-5.210938-6.300781-6.875-9.691406-16.3125-7.421875-19.867187-6.566406-11.121094 2.671875-22.292969 5.0625-33.207031 7.101562-1.792969.25-3.472657-.941406-3.824219-2.71875-.273438-1.027343-.113281-2.117187.441406-3.023437.554687-.902344 1.457031-1.539063 2.496094-1.757813 8.328125-1.828125 16.820312-3.644531 25.03125-5.394531 7.246093-1.546875 14.488281-3.105469 21.726562-4.671875 1.082031-.238281 1.917969-.28125 3.574219 1.210937 11.417969 10.292969 23.683594 21.324219 36.039062 32.253907 9.148438 8.09375 15.390626 13.902343 20.902344 19.023437 1.59375 1.480469 3.164063 2.945313 4.757813 4.417969-9.042969 2.546875-15.515625 6.621094-21.492188 10.386719-8.914062 5.617187-16.613281 10.464844-32.867187 10.464844-13.882813 0-21.523438-3.539063-29.011719-8.070313zm0 0"/><path d="m8 210.480469c16.257812 0 23.957031 4.851562 32.871094 10.464843 9.621094 6.0625 20.523437 12.929688 41.402344 12.929688 20.878906 0 31.777343-6.867188 41.398437-12.929688 8.914063-5.613281 16.613281-10.464843 32.871094-10.464843 16.257812 0 23.957031 4.851562 32.871093 10.464843 9.621094 6.0625 20.523438 12.929688 41.402344 12.929688s31.78125-6.867188 41.398438-12.929688c8.914062-5.613281 16.613281-10.464843 32.875-10.464843 16.257812 0 23.957031 4.851562 32.875 10.464843 9.617187 6.0625 20.519531 12.929688 41.398437 12.929688 20.875 0 31.78125-6.867188 41.398438-12.929688 8.917969-5.613281 16.617187-10.464843 32.875-10.464843 4.417969 0 8-3.582031 8-8s-3.582031-8-8-8c-20.878907 0-31.78125 6.871093-41.398438 12.929687-8.917969 5.613282-16.621093 10.464844-32.878906 10.464844s-23.957031-4.851562-32.875-10.460938c-9.617187-6.058593-20.519531-12.929687-41.398437-12.929687-20.875 0-31.78125 6.871094-41.398438 12.929687-8.917969 5.613282-16.617188 10.464844-32.875 10.464844s-23.960938-4.855468-32.875-10.464844c-9.617188-6.058593-20.519531-12.929687-41.398438-12.929687-20.878906 0-31.78125 6.871094-41.402343 12.929687-8.914063 5.617188-16.609375 10.464844-32.867188 10.464844-16.257812 0-23.949219-4.855468-32.871093-10.464844-9.617188-6.058593-20.519532-12.929687-41.398438-12.929687-4.417969 0-8 3.582031-8 8 0 4.421875 3.582031 8 8 8zm0 0"/><path d="m8 263.113281c16.257812 0 23.957031 4.851563 32.871094 10.464844 9.621094 6.0625 20.523437 12.929687 41.402344 12.929687 20.878906 0 31.777343-6.867187 41.398437-12.929687 8.914063-5.613281 16.613281-10.464844 32.871094-10.464844 16.257812 0 23.957031 4.851563 32.871093 10.464844 9.621094 6.0625 20.523438 12.929687 41.402344 12.929687s31.78125-6.867187 41.398438-12.929687c8.914062-5.613281 16.613281-10.464844 32.875-10.464844 16.257812 0 23.957031 4.851563 32.875 10.464844 9.617187 6.0625 20.519531 12.929687 41.398437 12.929687 20.875 0 31.78125-6.867187 41.398438-12.929687 8.917969-5.613281 16.617187-10.464844 32.875-10.464844 4.417969 0 8-3.582031 8-8s-3.582031-8-8-8c-20.878907 0-31.78125 6.867188-41.398438 12.929688-8.917969 5.617187-16.621093 10.472656-32.878906 10.472656s-23.957031-4.851563-32.875-10.46875c-9.617187-6.058594-20.519531-12.925781-41.398437-12.925781-20.875 0-31.78125 6.867187-41.398438 12.925781-8.917969 5.617187-16.617188 10.46875-32.875 10.46875s-23.957031-4.851563-32.871094-10.46875c-9.621094-6.0625-20.523437-12.933594-41.402344-12.933594-20.878906 0-31.78125 6.867188-41.398437 12.929688-8.914063 5.613281-16.613281 10.464843-32.871094 10.464843-16.257812 0-23.957031-4.851562-32.871093-10.464843-9.617188-6.058594-20.519532-12.929688-41.398438-12.929688-4.417969 0-8 3.582031-8 8s3.582031 8 8 8zm0 0"/></svg>