<svg id="Layer_5" enable-background="new 0 0 64 64" height="512" viewBox="0 0 64 64" width="512" xmlns="http://www.w3.org/2000/svg"><path d="m63 37v-5.309l-15.472-22.691h-1.985c-.229-.449-.509-.806-.762-1.123-.47-.588-.781-.977-.781-1.876s.311-1.287.781-1.875c.543-.68 1.219-1.524 1.219-3.126h-2c0 .899-.311 1.288-.781 1.876-.543.68-1.219 1.524-1.219 3.125 0 1.505.596 2.34 1.119 2.999h-3.575c-.229-.449-.509-.806-.762-1.123-.471-.588-.782-.977-.782-1.876s.311-1.287.781-1.875c.543-.68 1.219-1.524 1.219-3.126h-2c0 .899-.311 1.288-.781 1.876-.543.68-1.219 1.524-1.219 3.125 0 1.505.596 2.34 1.119 2.999h-17.593l-18.526 22.643v5.357c0 2.086 1.071 3.924 2.69 5-1.619 1.076-2.69 2.914-2.69 5s1.071 3.924 2.69 5c-1.619 1.076-2.69 2.914-2.69 5 0 3.309 2.691 6 6 6h50c3.309 0 6-2.691 6-6 0-2.086-1.071-3.924-2.69-5 1.62-1.076 2.69-2.914 2.69-5s-1.071-3.924-2.69-5c1.619-1.076 2.69-2.914 2.69-5zm-16.528-26 14.528 21.309v.232c-1.063-.955-2.462-1.541-4-1.541h-19.509l-15.454-20h15.963v.002c0 .898-.311 1.287-.781 1.874-.416.521-.908 1.142-1.116 2.124h-2.103v10h14v-10h-3.804c.137-.304.336-.564.585-.874.543-.679 1.219-1.523 1.219-3.124 0-.001 0-.001 0-.002zm-7.472 26c0 2.206-1.794 4-4 4s-4-1.794-4-4 1.794-4 4-4 4 1.794 4 4zm0 10c0 2.206-1.794 4-4 4s-4-1.794-4-4 1.794-4 4-4 4 1.794 4 4zm0 10c0 2.206-1.794 4-4 4s-4-1.794-4-4 1.794-4 4-4 4 1.794 4 4zm-14 4h-8v-11c0-.552.449-1 1-1h6c.551 0 1 .448 1 1zm-1-14h-6c-1.654 0-3 1.346-3 3v11h-3.54c.954-1.063 1.54-2.462 1.54-4 0-2.086-1.071-3.924-2.69-5 1.62-1.076 2.69-2.914 2.69-5s-1.071-3.924-2.69-5c1.62-1.076 2.69-2.914 2.69-5 0-1.538-.586-2.937-1.54-4h19.08c-.954 1.063-1.54 2.462-1.54 4 0 1.771.776 3.36 2 4.46v1.081c-1.224 1.099-2 2.688-2 4.46s.776 3.36 2 4.46v1.081c-1.224 1.099-2 2.688-2 4.46 0 1.538.586 2.937 1.54 4h-3.54v-11.002c0-1.654-1.346-3-3-3zm-14.899-16 10.867-13.375 10.032 13.375zm36.899-14v6h-10v-6zm-2-6v.002c0 .898-.311 1.287-.781 1.874-.416.521-.908 1.142-1.116 2.124h-3.907c.137-.304.336-.564.585-.874.543-.679 1.219-1.523 1.219-3.124 0-.001 0-.001 0-.002zm-24.022.607 14.985 19.393h-2.463l-12.468-16.625-13.528 16.65c-1.342.111-2.557.665-3.504 1.515v-.183zm-16.978 25.393c0-2.206 1.794-4 4-4s4 1.794 4 4-1.794 4-4 4-4-1.794-4-4zm0 10c0-2.206 1.794-4 4-4s4 1.794 4 4-1.794 4-4 4-4-1.794-4-4zm0 10c0-2.206 1.794-4 4-4s4 1.794 4 4-1.794 4-4 4-4-1.794-4-4zm58 0c0 2.206-1.794 4-4 4h-17.54c.954-1.063 1.54-2.462 1.54-4s-.586-2.937-1.54-4h17.54c2.206 0 4 1.794 4 4zm0-10c0 2.206-1.794 4-4 4h-17.54c.954-1.063 1.54-2.462 1.54-4s-.586-2.937-1.54-4h17.54c2.206 0 4 1.794 4 4zm-4-6h-17.54c.954-1.063 1.54-2.462 1.54-4s-.586-2.937-1.54-4h17.54c2.206 0 4 1.794 4 4s-1.794 4-4 4z"/><path d="m22 23h-4c-1.103 0-2 .897-2 2v2c0 1.103.897 2 2 2h4c1.103 0 2-.897 2-2v-2c0-1.103-.897-2-2-2zm-4 4v-2h4l.001 2z"/><path d="m27 37c0-1.103-.897-2-2-2h-8c-1.103 0-2 .897-2 2v4c0 1.103.897 2 2 2h8c1.103 0 2-.897 2-2zm-10 4v-4h8l.001 4z"/><path d="m57 57h2v2h-2z"/><path d="m53 57h2v2h-2z"/><path d="m49 57h2v2h-2z"/><path d="m51 45h2v2h-2z"/><path d="m47 45h2v2h-2z"/><path d="m43 45h2v2h-2z"/><path d="m57 37h2v2h-2z"/><path d="m53 37h2v2h-2z"/><path d="m49 37h2v2h-2z"/></svg>