<?xml version="1.0" encoding="iso-8859-1"?>
<!-- Generator: Adobe Illustrator 19.0.0, SVG Export Plug-In . SVG Version: 6.00 Build 0)  -->
<svg version="1.1" id="Layer_1" xmlns="http://www.w3.org/2000/svg" xmlns:xlink="http://www.w3.org/1999/xlink" x="0px" y="0px"
	 viewBox="0 0 512 512" style="enable-background:new 0 0 512 512;" xml:space="preserve">
<g>
	<g>
		<path d="M401.041,282.031c-4.377-1.095-8.811,1.581-9.899,5.959c-11.542,46.459-48.895,83.253-95.298,93.968h-80.337
			c-46.058-10.901-83.154-47.691-94.647-93.966c-1.087-4.38-5.517-7.046-9.899-5.961c-4.379,1.088-7.047,5.52-5.96,9.899
			c6.381,25.693,19.728,49.19,38.598,67.951c19.132,19.022,43.043,32.235,69.145,38.21c0.598,0.137,1.21,0.206,1.824,0.206h82.191
			c0.599,0,1.196-0.066,1.781-0.197c26.283-5.872,50.359-19.032,69.621-38.059c19.001-18.769,32.431-42.322,38.838-68.112
			C408.088,287.55,405.42,283.119,401.041,282.031z"/>
	</g>
</g>
<g>
	<g>
		<path d="M278.382,462.979H233.62c-4.512,0-8.17,3.657-8.17,8.17s3.658,8.17,8.17,8.17h44.762c4.512,0,8.17-3.657,8.17-8.17
			S282.894,462.979,278.382,462.979z"/>
	</g>
</g>
<g>
	<g>
		<path d="M509.606,35.928L478.795,5.116c-3.191-3.19-8.364-3.19-11.554,0L364.129,108.228c-3.191,3.192-3.191,8.364,0,11.555
			c3.191,3.19,8.364,3.19,11.554,0l97.336-97.337l19.258,19.258L370.091,163.89c-4.373-1.778-8.898-3.257-13.549-4.413
			c-2.788-42.566-32.12-77.998-71.565-89.863c7.335-7.388,11.874-17.555,11.874-28.763C296.851,18.325,278.526,0,256,0
			s-40.851,18.325-40.851,40.851c0,11.208,4.54,21.375,11.875,28.763c-39.445,11.864-68.777,47.297-71.565,89.863
			c-4.652,1.156-9.175,2.636-13.547,4.415L19.725,41.705l19.258-19.258l97.337,97.338c3.191,3.19,8.364,3.19,11.554,0
			c3.191-3.192,3.191-8.364,0-11.555L44.759,5.116c-3.191-3.19-8.364-3.19-11.554,0L2.393,35.928c-3.191,3.192-3.191,8.364,0,11.555
			l124.222,124.222c-26.394,16.447-44.676,44.744-47.309,77.402h-3.051c-4.512,0-8.17,3.657-8.17,8.17
			c0,41.032,14.357,81.041,40.424,112.657c24.104,29.234,57.089,50.056,93.524,59.192l-7.629,33.852h-31
			c-22.526,0-40.851,18.325-40.851,40.851c0,4.513,3.658,8.17,8.17,8.17h250.553c4.512,0,8.17-3.657,8.17-8.17
			c0-22.526-18.325-40.851-40.851-40.851h-31c-1.972-8.751-5.516-24.48-7.661-33.998c78.12-19.509,133.981-90.413,133.981-171.703
			c0-4.513-3.658-8.17-8.17-8.17h-3.056c-2.633-32.657-20.904-60.962-47.297-77.409L509.606,47.483
			C512.798,44.291,512.798,39.119,509.606,35.928z M256,16.341c13.516,0,24.511,10.996,24.511,24.511
			c0,13.515-10.995,24.511-24.511,24.511c-13.516,0-24.511-10.996-24.511-24.511C231.489,27.337,242.484,16.341,256,16.341z
			 M256,81.702c43.398,0,79.24,32.921,83.898,75.097c-2.523-0.191-5.072-0.288-7.643-0.288c-29.462,0-57.254,12.9-76.296,34.957
			c-18.492-21.386-45.79-34.957-76.215-34.957c-2.575,0-5.12,0.125-7.647,0.316C176.743,114.637,212.592,81.702,256,81.702z
			 M179.744,172.852c46.553,0,84.426,37.874,84.426,84.426v65.362c0,4.506-3.665,8.17-8.17,8.17c-4.506,0-8.17-3.665-8.17-8.17
			v-65.362c0-4.513-3.658-8.17-8.17-8.17h-32.681c-4.512,0-8.17,3.657-8.17,8.17v32.681c0,4.506-3.665,8.17-8.17,8.17
			s-8.17-3.665-8.17-8.17v-32.681c0-4.513-3.658-8.17-8.17-8.17H95.711C99.834,206.374,135.949,172.852,179.744,172.852z
			 M311.061,479.319h37.534c10.652,0,19.739,6.83,23.111,16.34H140.293c3.372-9.51,12.459-16.34,23.111-16.34h37.534
			c3.82,0,7.13-2.647,7.97-6.375l9.457-41.966h75.268l9.336,41.424C304.452,478.986,309.97,479.319,311.061,479.319z
			 M299.351,414.638h-87.358c-71.331-14.961-123.675-76.862-127.358-149.19h81.493v24.511c0,13.515,10.995,24.511,24.511,24.511
			s24.511-10.996,24.511-24.511v-24.511h16.34v57.191c0,13.515,10.995,24.511,24.511,24.511c13.516,0,24.511-10.996,24.511-24.511
			v-57.191h146.857C423.673,338.036,371.025,399.943,299.351,414.638z M416.279,249.108H280.182
			c-1.291-16.019-6.353-30.988-14.284-44.029c15.968-20.272,40.392-32.227,66.357-32.227
			C376.051,172.852,412.154,206.375,416.279,249.108z"/>
	</g>
</g>
<g>
</g>
<g>
</g>
<g>
</g>
<g>
</g>
<g>
</g>
<g>
</g>
<g>
</g>
<g>
</g>
<g>
</g>
<g>
</g>
<g>
</g>
<g>
</g>
<g>
</g>
<g>
</g>
<g>
</g>
</svg>
