<?xml version="1.0" encoding="iso-8859-1"?>
<!-- Generator: Adobe Illustrator 19.0.0, SVG Export Plug-In . SVG Version: 6.00 Build 0)  -->
<svg version="1.1" id="Capa_1" xmlns="http://www.w3.org/2000/svg" xmlns:xlink="http://www.w3.org/1999/xlink" x="0px" y="0px"
	 viewBox="0 0 512.001 512.001" style="enable-background:new 0 0 512.001 512.001;" xml:space="preserve">
<g>
	<g>
		<path d="M504.272,140.489L312.51,95.092c3.811-5.297,6.065-11.784,6.065-18.792c0-17.78-14.47-32.246-32.256-32.246
			c-8.495,0-16.229,3.308-21.995,8.696c-4.547-12.306-16.399-21.104-30.269-21.104c-17.78,0-32.246,14.465-32.246,32.246
			c0,1.732,0.142,3.431,0.406,5.09L12.355,24.037c-5.394-1.279-10.804,2.06-12.082,7.456c-1.278,5.396,2.061,10.805,7.457,12.081
			l238.232,56.398v48.45h-9.537c-5.545,0-10.039,4.495-10.039,10.039s4.495,10.039,10.039,10.039h9.537v12.87h-87.32
			c-40.615,0-73.657,33.043-73.657,73.657v159.552c0,40.615,33.043,73.657,73.657,73.657H353.36
			c40.615,0,73.657-33.043,73.657-73.657V255.027c0-40.614-33.043-73.657-73.657-73.657h-87.32V168.5h9.537
			c5.545,0,10.039-4.495,10.039-10.039c0-5.545-4.495-10.039-10.039-10.039h-9.537v-43.696l233.606,55.302
			c0.778,0.185,1.555,0.272,2.322,0.272c4.547,0,8.667-3.111,9.76-7.729C513.005,147.175,509.667,141.766,504.272,140.489z
			 M234.054,76.071c-6.709,0-12.167-5.462-12.167-12.177c0-6.709,5.458-12.167,12.167-12.167c6.714,0,12.177,5.458,12.177,12.167
			C246.232,70.608,240.77,76.071,234.054,76.071z M353.359,201.449c29.543,0.001,53.579,24.036,53.579,53.579v159.552
			c0,29.543-24.036,53.579-53.579,53.579H158.641c-29.543,0-53.579-24.036-53.579-53.579V255.027
			c0-29.543,24.036-53.579,53.579-53.579H353.359z M286.318,88.479c-6.709,0-12.167-5.462-12.167-12.177
			c0-6.709,5.458-12.167,12.167-12.167c6.714,0,12.177,5.458,12.177,12.167C298.496,83.016,293.033,88.479,286.318,88.479z"/>
	</g>
</g>
<g>
	<g>
		<path d="M349.715,228.786h-187.43c-17.73,0-32.155,14.429-32.155,32.165v83.586c0,5.545,4.495,10.039,10.039,10.039h231.673
			c5.545,0,10.039-4.495,10.039-10.039v-83.586C381.88,243.215,367.451,228.786,349.715,228.786z M187.854,334.498h-37.647v-73.547
			c0-6.665,5.417-12.087,12.077-12.087h25.57V334.498z M245.961,334.498h-38.028v-85.634h38.028V334.498z M361.802,334.498h-95.763
			v-85.634h83.676c6.665,0,12.087,5.422,12.087,12.087V334.498z"/>
	</g>
</g>
<g>
	<g>
		<path d="M199.901,381.993h-61.741c-5.545,0-10.039,4.495-10.039,10.039s4.495,10.039,10.039,10.039h61.741
			c5.545,0,10.039-4.495,10.039-10.039S205.446,381.993,199.901,381.993z"/>
	</g>
</g>
<g>
	<g>
		<path d="M226.947,381.993c-12.919,0-12.94,20.078,0,20.078C239.866,402.071,239.888,381.993,226.947,381.993z"/>
	</g>
</g>
<g>
</g>
<g>
</g>
<g>
</g>
<g>
</g>
<g>
</g>
<g>
</g>
<g>
</g>
<g>
</g>
<g>
</g>
<g>
</g>
<g>
</g>
<g>
</g>
<g>
</g>
<g>
</g>
<g>
</g>
</svg>
