<?xml version="1.0" encoding="iso-8859-1"?>
<!-- Generator: Adobe Illustrator 19.0.0, SVG Export Plug-In . SVG Version: 6.00 Build 0)  -->
<svg version="1.1" id="Layer_1" xmlns="http://www.w3.org/2000/svg" xmlns:xlink="http://www.w3.org/1999/xlink" x="0px" y="0px"
	 viewBox="0 0 512 512" style="enable-background:new 0 0 512 512;" xml:space="preserve">
<g>
	<g>
		<path d="M500.704,230.067c-5.423-5.866-12.399-9.763-20.159-11.365V8.17c0-4.512-3.657-8.17-8.17-8.17h-54.468
			c-4.513,0-8.17,3.658-8.17,8.17v13.617h-38.128V8.17c0-4.512-3.657-8.17-8.17-8.17h-54.468c-4.513,0-8.17,3.658-8.17,8.17v13.617
			h-38.128V8.17c0-4.512-3.657-8.17-8.17-8.17h-54.468c-4.512,0-8.17,3.658-8.17,8.17v92.596c0,4.512,3.658,8.17,8.17,8.17
			s8.17-3.658,8.17-8.17V16.34h38.128v108.936h-128c-58.566,0-106.213,45.203-106.213,100.766v49.021c0,4.512,3.658,8.17,8.17,8.17
			h364.936c4.513,0,8.17-3.658,8.17-8.17v-49.021c0-22.941-8.128-44.11-21.787-61.066V38.128h38.128v155.234
			c0,4.512,3.657,8.17,8.17,8.17s8.17-3.658,8.17-8.17V16.34h38.128v201.532h-46.298c-4.513,0-8.17,3.658-8.17,8.17
			c0,4.512,3.657,8.17,8.17,8.17h54.468c6.389,0,12.189,2.467,16.331,6.947c4.143,4.481,6.149,10.456,5.649,16.825l-18.64,237.675
			h-82.469c-4.513,0-8.17,3.658-8.17,8.17s3.657,8.17,8.17,8.17h90.024c4.265,0,7.812-3.28,8.145-7.532l19.232-245.207
			C511.506,248.298,507.976,237.93,500.704,230.067z M262.673,38.128h38.128v64.961c0,4.512,3.657,8.17,8.17,8.17
			s8.17-3.658,8.17-8.17V16.34h38.128v132.426c-18.448-14.654-42.198-23.49-68.085-23.49h-24.511V38.128z M377.056,226.043v40.851
			H28.46v-40.851c0-46.553,40.316-84.426,89.872-84.426h168.851C336.739,141.617,377.056,179.49,377.056,226.043z"/>
	</g>
</g>
<g>
	<g>
		<circle cx="126.507" cy="187.915" r="8.17"/>
	</g>
</g>
<g>
	<g>
		<circle cx="164.635" cy="220.596" r="8.17"/>
	</g>
</g>
<g>
	<g>
		<circle cx="240.89" cy="220.596" r="8.17"/>
	</g>
</g>
<g>
	<g>
		<circle cx="202.763" cy="187.915" r="8.17"/>
	</g>
</g>
<g>
	<g>
		<circle cx="279.018" cy="187.915" r="8.17"/>
	</g>
</g>
<g>
	<g>
		<path d="M385.226,430.298H20.29c-4.512,0-8.17,3.658-8.17,8.17C12.12,479.014,45.106,512,85.652,512h234.213
			c40.546,0,73.532-32.986,73.532-73.532C393.397,433.956,389.74,430.298,385.226,430.298z M319.865,495.66H85.652
			c-28.761,0-52.633-21.342-56.61-49.021h347.432C372.498,474.318,348.627,495.66,319.865,495.66z"/>
	</g>
</g>
<g>
	<g>
		<path d="M363.439,332.255h-54.684l34.723-16.34h41.748c4.513,0,8.17-3.658,8.17-8.17s-3.657-8.17-8.17-8.17h-43.574
			c-1.203,0-2.39,0.266-3.478,0.778l-135.415,63.724L67.344,300.352c-1.088-0.512-2.276-0.778-3.478-0.778H20.291
			c-4.512,0-8.17,3.658-8.17,8.17s3.658,8.17,8.17,8.17h41.748l34.723,16.34H42.077c-22.526,0-40.851,18.325-40.851,40.851
			s18.325,40.851,40.851,40.851h321.362c22.526,0,40.851-18.325,40.851-40.851S385.965,332.255,363.439,332.255z M363.439,397.617
			H42.077c-13.516,0-24.511-10.995-24.511-24.511s10.995-24.511,24.511-24.511h89.408l67.794,31.903
			c1.101,0.519,2.29,0.778,3.478,0.778s2.377-0.259,3.478-0.778l67.795-31.903h89.407c13.515,0,24.511,10.995,24.511,24.511
			S376.954,397.617,363.439,397.617z"/>
	</g>
</g>
<g>
</g>
<g>
</g>
<g>
</g>
<g>
</g>
<g>
</g>
<g>
</g>
<g>
</g>
<g>
</g>
<g>
</g>
<g>
</g>
<g>
</g>
<g>
</g>
<g>
</g>
<g>
</g>
<g>
</g>
</svg>
