<?xml version="1.0" encoding="iso-8859-1"?>
<!-- Generator: Adobe Illustrator 19.0.0, SVG Export Plug-In . SVG Version: 6.00 Build 0)  -->
<svg version="1.1" id="Capa_1" xmlns="http://www.w3.org/2000/svg" xmlns:xlink="http://www.w3.org/1999/xlink" x="0px" y="0px"
	 viewBox="0 0 499.104 499.104" style="enable-background:new 0 0 499.104 499.104;" xml:space="preserve">
<g>
	<g>
		<g>
			<path d="M211.104,233.552h-16c0,13.232-10.768,24-24,24s-24-10.768-24-24h-16c0,22.056,17.944,40,40,40
				C193.16,273.552,211.104,255.608,211.104,233.552z"/>
			<path d="M467.104,227.32V1.552h-160v77.472c-5.976-8.488-13.48-15.984-22.328-22.04c-13.272-33.264-45.76-55.432-81.672-55.432
				c-11.016,0-21.768,2.032-32,6.048c-10.232-4.016-20.984-6.048-32-6.048c-35.912,0-68.4,22.168-81.672,55.432
				c-24.048,16.464-38.328,43.4-38.328,72.568c0,22.824,8.672,44.2,24.344,60.624c-0.096,1.128-0.344,2.216-0.344,3.376
				c0,20.352,15.336,37.016,35.032,39.496c6.36,25.128,22.6,46.296,44.384,59.16l-14.672,2.448l-0.168-0.072l-0.04,0.104
				l-37.344,6.224c-20.512,3.416-37.344,17.8-43.92,37.52L0,417.552h307.104v80h160V383.784c19.76-20.2,32-47.8,32-78.232
				S486.864,247.52,467.104,227.32z M323.104,17.552h128v196.216c-18.16-12.704-40.208-20.216-64-20.216s-45.84,7.512-64,20.216
				V17.552z M59.104,193.552c0-10.416,6.712-19.216,16-22.528v38.528c0,2.24,0.184,4.432,0.336,6.632
				C65.976,212.968,59.104,204.088,59.104,193.552z M75.104,116.968v37.392c-10.872,2.216-20.072,8.92-25.8,18.016
				c-9.176-12.32-14.2-27.144-14.2-42.824c0-24.584,12.416-47.24,33.208-60.584l2.272-1.464l0.92-2.536
				c10.328-28.36,37.488-47.416,67.6-47.416c9.952,0,19.64,2.032,28.8,6.032l3.2,1.408l3.2-1.408c9.16-4,18.848-6.032,28.8-6.032
				c30.112,0,57.272,19.056,67.592,47.416l0.92,2.536l2.272,1.464c20.8,13.344,33.216,36,33.216,60.584
				c0,15.672-5.032,30.496-14.208,42.824c-5.72-9.096-14.92-15.792-25.792-18.008v-13.392c0-15.128-12.296-27.424-27.416-27.424
				h-35.504c-30.872,0-61.792-7.296-89.408-21.112c-3.792-1.888-8.032-2.888-12.256-2.888
				C87.4,89.552,75.104,101.848,75.104,116.968z M195.104,145.552c-8.824,0-16,7.176-16,16v8h-16v-8c0-8.824-7.176-16-16-16h-32
				c-5.896,0-11,3.24-13.776,8H91.104v-36.584c0-6.296,5.12-11.416,11.416-11.416c1.768,0,3.528,0.416,5.112,1.2
				c29.816,14.92,63.208,22.8,96.552,22.8h35.504c6.296,0,11.416,5.12,11.416,11.416v12.584H240.88c-2.776-4.76-7.88-8-13.776-8
				H195.104z M227.104,161.552v24c0,4.416-3.584,8-8,8h-16c-4.416,0-8-3.584-8-8v-24H227.104z M147.104,161.552v24
				c0,4.416-3.584,8-8,8h-16c-4.416,0-8-3.584-8-8v-24H147.104z M264.072,233.04c19.696-2.472,35.032-19.136,35.032-39.488
				c0-1.16-0.248-2.248-0.344-3.384c3.04-3.184,5.848-6.536,8.344-10.08v47.232c-18.92,19.344-30.816,45.496-31.808,74.392
				c-1.136-0.264-2.24-0.616-3.392-0.808l-37.336-6.224l-0.04-0.104l-0.168,0.072l-14.672-2.448
				C241.472,279.344,257.712,258.168,264.072,233.04z M266.768,216.184c0.152-2.2,0.336-4.392,0.336-6.632v-38.528
				c9.288,3.312,16,12.112,16,22.528C283.104,204.088,276.232,212.968,266.768,216.184z M91.104,209.552v-40h8v16
				c0,13.232,10.768,24,24,24h16c13.232,0,24-10.768,24-24h16c0,13.232,10.768,24,24,24h16c13.232,0,24-10.768,24-24v-16h8v40
				c0,44.112-35.888,80-80,80S91.104,253.664,91.104,209.552z M194.568,302.528c-2.296,10.856-11.936,19.024-23.464,19.024
				s-21.168-8.168-23.464-19.024c7.52,1.904,15.36,3.024,23.464,3.024S187.048,304.432,194.568,302.528z M76.864,401.552
				l6.088-30.432l-15.688-3.136l-6.72,33.568H22.208l19.344-58.056c4.704-14.096,16.728-24.36,31.376-26.808l27.76-4.624
				L89.272,340.6l24.312,16.208l-7.832,23.504l26.544,21.24H76.864z M124.456,374.792l8.168-24.496l-23.688-15.8l10.208-25.504
				l6.592-1.096l25.152,88.04L124.456,374.792z M169.136,401.552l-20.256-70.92c6.376,4.296,13.968,6.92,22.224,6.92
				s15.848-2.624,22.224-6.92l-20.264,70.92H169.136z M216.472,307.888l6.592,1.096l10.208,25.512l-23.688,15.792l8.168,24.496
				l-26.432,21.144L216.472,307.888z M307.096,401.552h-25.432l-6.712-33.568l-15.688,3.144l6.08,30.424h-55.432l26.544-21.232
				l-7.832-23.504l24.312-16.208l-11.416-28.536l27.76,4.624c2.264,0.376,4.464,1.016,6.624,1.768
				c2.92,25.288,14.272,48.024,31.192,65.32V401.552z M451.104,481.552h-128v-84.216c18.16,12.704,40.208,20.216,64,20.216
				s45.84-7.512,64-20.216V481.552z M387.104,401.552c-52.936,0-96-43.064-96-96c0-52.936,43.064-96,96-96c52.936,0,96,43.064,96,96
				C483.104,358.488,440.04,401.552,387.104,401.552z"/>
			<path d="M387.104,225.552c-44.112,0-80,35.888-80,80s35.888,80,80,80c26.76,0,51.624-13.288,66.52-35.544l-13.296-8.904
				c-11.92,17.816-31.816,28.448-53.224,28.448c-35.288,0-64-28.712-64-64c0-35.288,28.712-64,64-64c35.288,0,64,28.712,64,64
				c0,7.32-1.224,14.496-3.64,21.328l15.096,5.328c3.016-8.544,4.544-17.512,4.544-26.656
				C467.104,261.44,431.216,225.552,387.104,225.552z"/>
			<rect x="379.104" y="129.552" width="16" height="16"/>
			<rect x="379.104" y="81.552" width="16" height="16"/>
			<rect x="379.104" y="33.552" width="16" height="16"/>
			<polygon points="379.104,257.552 379.104,308.216 404.704,342.352 417.504,332.752 395.104,302.888 395.104,257.552 			"/>
		</g>
	</g>
</g>
<g>
</g>
<g>
</g>
<g>
</g>
<g>
</g>
<g>
</g>
<g>
</g>
<g>
</g>
<g>
</g>
<g>
</g>
<g>
</g>
<g>
</g>
<g>
</g>
<g>
</g>
<g>
</g>
<g>
</g>
</svg>
