<?xml version="1.0" encoding="iso-8859-1"?>
<!-- Generator: Adobe Illustrator 19.0.0, SVG Export Plug-In . SVG Version: 6.00 Build 0)  -->
<svg version="1.1" id="Layer_1" xmlns="http://www.w3.org/2000/svg" xmlns:xlink="http://www.w3.org/1999/xlink" x="0px" y="0px"
	 viewBox="0 0 512 512" style="enable-background:new 0 0 512 512;" xml:space="preserve">
<g>
	<g>
		<circle cx="228.766" cy="261.447" r="8.17"/>
	</g>
</g>
<g>
	<g>
		<circle cx="381.277" cy="375.83" r="8.17"/>
	</g>
</g>
<g>
	<g>
		<circle cx="163.404" cy="343.149" r="8.17"/>
	</g>
</g>
<g>
	<g>
		<circle cx="130.723" cy="375.83" r="8.17"/>
	</g>
</g>
<g>
	<g>
		<path d="M487.489,408.511h-24.511V195.263c18.624-3.795,32.681-20.3,32.681-40.029c0-22.526-18.325-40.851-40.851-40.851H223.242
			c3.605-7.595,5.524-15.948,5.524-24.511c0-28.947-21.622-52.923-49.559-56.668c-1.626-11.627-6.945-22.365-15.392-30.813
			c-3.192-3.19-8.364-3.19-11.555,0c-3.191,3.192-3.191,8.364,0,11.555c5.392,5.391,8.965,12.115,10.415,19.429
			c-27.323,4.289-48.292,27.988-48.292,56.497c0,4.513,3.657,8.17,8.17,8.17c4.513,0,8.17-3.657,8.17-8.17
			c0-22.526,18.325-40.851,40.851-40.851s40.851,18.325,40.851,40.851c0,8.888-2.882,17.466-8.173,24.511H89.872
			c-22.526,0-40.851,18.325-40.851,40.851v188.735C30.398,347.766,16.34,364.273,16.34,384c0,9.19,3.051,17.678,8.192,24.511
			C10.996,408.511,0,419.507,0,433.021c0,13.515,10.996,24.511,24.511,24.511h10.451l5.959,17.878
			C47.761,495.928,70.06,512,91.688,512h328.623c21.628,0,43.927-16.072,50.768-36.591l5.959-17.878h10.451
			c13.515,0,24.511-10.996,24.511-24.511C512,419.507,501.004,408.511,487.489,408.511z M57.192,359.489
			c4.513,0,8.17-3.657,8.17-8.17V155.234c0-13.515,10.996-24.511,24.511-24.511h364.936c13.515,0,24.511,10.996,24.511,24.511
			c0,13.515-10.996,24.511-24.511,24.511c-10.979,0-16.092-4.033-22.566-9.139c-7.146-5.635-16.039-12.649-32.685-12.649
			c-16.645,0-25.537,7.013-32.683,12.647c-3.191,2.518-6.205,4.893-9.704,6.541c-2.863,1.348-4.691,4.228-4.691,7.392v134.1
			c0,4.506-3.665,8.17-8.17,8.17c-4.506,0-8.17-3.665-8.17-8.17V184.536c0-3.164-1.827-6.044-4.69-7.391
			c-3.498-1.648-6.512-4.023-9.702-6.539c-7.146-5.635-16.04-12.647-32.686-12.647c-16.644,0-25.536,7.013-32.681,12.649
			c-6.473,5.106-11.586,9.139-22.563,9.139c-10.979,0-16.092-4.033-22.566-9.139c-7.145-5.635-16.038-12.649-32.684-12.649
			c-16.645,0-25.537,7.013-32.682,12.649c-6.473,5.106-11.586,9.139-22.563,9.139h-33.45c-4.513,0-8.17,3.657-8.17,8.17v220.596
			H57.192c-13.515,0-24.511-10.996-24.511-24.511S43.677,359.489,57.192,359.489z M319.798,310.468v8.17
			c0,13.515,10.996,24.511,24.511,24.511c13.515,0,24.511-10.996,24.511-24.511v-8.17h77.819v98.043H98.043v-98.043H319.798z
			 M98.043,294.128v-98.043h25.28c16.646,0,25.537-7.013,32.682-12.649c6.473-5.106,11.586-9.139,22.563-9.139
			c10.979,0,16.092,4.033,22.566,9.139c7.146,5.635,16.039,12.649,32.685,12.649c16.645,0,25.537-7.013,32.682-12.649
			c6.473-5.106,11.585-9.139,22.562-9.139c10.98,0,16.093,4.033,22.568,9.139c2.437,1.922,5.095,4.018,8.169,5.928v104.763h-0.001
			H98.043z M368.82,294.128V189.367c3.076-1.912,5.735-4.009,8.173-5.93c6.473-5.106,11.586-9.139,22.564-9.139
			c10.979,0,16.092,4.033,22.566,9.139c5.875,4.633,12.941,10.189,24.515,12.022v98.669H368.82z M487.489,441.191h-16.141
			c-0.042-0.001-0.085,0-0.126,0H106.213c-4.513,0-8.17,3.657-8.17,8.17s3.657,8.17,8.17,8.17h353.6l-4.237,12.71
			c-4.593,13.777-20.741,25.418-35.265,25.418H91.688c-14.523,0-30.672-11.641-35.265-25.418l-4.237-12.71h21.345
			c4.513,0,8.17-3.657,8.17-8.17s-3.657-8.17-8.17-8.17H24.511c-4.506,0-8.17-3.665-8.17-8.17c0-4.506,3.665-8.17,8.17-8.17h462.979
			c4.506,0,8.17,3.665,8.17,8.17C495.66,437.527,491.995,441.191,487.489,441.191z"/>
	</g>
</g>
<g>
</g>
<g>
</g>
<g>
</g>
<g>
</g>
<g>
</g>
<g>
</g>
<g>
</g>
<g>
</g>
<g>
</g>
<g>
</g>
<g>
</g>
<g>
</g>
<g>
</g>
<g>
</g>
<g>
</g>
</svg>
