<svg height="512" viewBox="0 0 512 512" width="512" xmlns="http://www.w3.org/2000/svg"><g id="Outline"><path d="m488 16h-320a8 8 0 0 0 -8 8v144h16v-40h304v320h-176v16h184a8 8 0 0 0 8-8v-432a8 8 0 0 0 -8-8zm-312 96v-80h304v80z"/><path d="m264 48h-64a8 8 0 0 0 -8 8v32a8 8 0 0 0 8 8h64a8 8 0 0 0 8-8v-32a8 8 0 0 0 -8-8zm-8 32h-48v-16h48z"/><path d="m440 48a24 24 0 1 0 24 24 24.028 24.028 0 0 0 -24-24zm0 32a8 8 0 1 1 8-8 8.009 8.009 0 0 1 -8 8z"/><path d="m288 64h16v16h-16z"/><path d="m320 64h16v16h-16z"/><path d="m352 64h16v16h-16z"/><path d="m384 64h16v16h-16z"/><path d="m328 400a121.139 121.139 0 0 1 -22.509-2.108l-2.982 15.718a136 136 0 0 0 161.491-133.61 134.924 134.924 0 0 0 -26.193-80.233 136.013 136.013 0 0 0 -186.313-32.218l9.012 13.221a119.985 119.985 0 0 1 159.502 22.23l-12.82 9.614a104.116 104.116 0 0 0 -105.182-33.333l3.988 15.494a88.147 88.147 0 0 1 88.373 27.454l-15.167 11.371a8 8 0 0 0 -3.2 6.4v64a8 8 0 0 0 3.2 6.4l22.859 17.144a88.155 88.155 0 0 1 -96.065 37.685l-3.988 15.5a104.15 104.15 0 0 0 112.879-43.561l12.813 9.61a120.587 120.587 0 0 1 -99.698 53.222zm64-156 37.444-28.081a119.991 119.991 0 0 1 6.315 116.9l-43.759-32.819z"/><path d="m318.656 316.438 32-48a8 8 0 0 0 -1-10.095l-64-64a8.007 8.007 0 0 0 -4.342-2.235l-48-8c-.068-.011-.136-.013-.2-.022-.168-.024-.337-.043-.508-.055-.116-.009-.232-.015-.349-.018-.085 0-.168-.013-.254-.013h-96.003c-.086 0-.169.01-.254.013-.117 0-.233.009-.349.018-.171.012-.34.031-.508.055-.068.009-.136.011-.2.022l-48 8a8.007 8.007 0 0 0 -4.342 2.235l-64 64a8 8 0 0 0 -1.289 9.626l32 56a8 8 0 0 0 11.742 2.431l19.2-14.4v176a8 8 0 0 0 8 8h192a8 8 0 0 0 8-8v-179.056l20.422 10.211a8 8 0 0 0 10.234-2.717zm-94.656-116.438a40 40 0 0 1 -80 0zm-128 280v-224h-16v36l-21.55 16.163-24.472-42.827 57.866-57.866 36.175-6.03a56 56 0 0 0 111.962 0l36.175 6.03 57.55 57.55-24.445 36.667-21.261-10.631v-35.056h-16v192h-160v16h160v16z"/><path d="m168 208h32v16h-32z"/></g></svg>