<?xml version="1.0" encoding="iso-8859-1"?>
<!-- Generator: Adobe Illustrator 19.0.0, SVG Export Plug-In . SVG Version: 6.00 Build 0)  -->
<svg version="1.1" id="Capa_1" xmlns="http://www.w3.org/2000/svg" xmlns:xlink="http://www.w3.org/1999/xlink" x="0px" y="0px"
	 viewBox="0 0 397.2 397.2" style="enable-background:new 0 0 397.2 397.2;" xml:space="preserve">
<g>
	<g>
		<path d="M226,338c-9.2,0-17.2-4.4-22.4-11.2h21.6V314H198c-0.4-1.6-0.4-3.6-0.4-5.2c0-1.6,0.4-3.6,0.4-5.2h27.2v-12.8h-21.6
			c5.2-6.4,13.2-10.8,22.4-10.8c8.4,0,16.4,3.6,22,10l9.6-8.4c-8-9.2-19.6-14.4-31.6-14.4c-16.4,0-30.8,9.6-37.6,24h-10.8V304h7.2
			c-0.4,1.6-0.4,3.6-0.4,5.2c0,1.6,0.4,3.6,0.4,5.2h-7.2v12.4h10.8c6.8,14,20.8,24,37.6,24c12,0,23.6-5.2,31.6-14.4L248,328
			C242.4,334.4,234.4,338,226,338z"/>
	</g>
</g>
<g>
	<g>
		<path d="M221.6,236c-40.4,0-72.8,32.8-72.8,72.8s32.8,72.8,72.8,72.8s72.8-32.8,72.8-72.8S262,236,221.6,236z M221.6,369.2
			c-33.2,0-60-26.8-60-60s26.8-60,60-60s60,26.8,60,60C281.6,342,254.8,369.2,221.6,369.2z"/>
	</g>
</g>
<g>
	<g>
		<path d="M73.2,38C33.2,38,0,70.4,0,110.8c0,40.4,32.8,72.8,72.8,72.8s73.2-32.8,73.2-72.8C146,70.4,113.2,38,73.2,38z M73.2,170.8
			c-33.2,0-60-26.8-60-60s26.8-60,60-60c33.2,0,60,26.8,60,60S106.4,170.8,73.2,170.8z"/>
	</g>
</g>
<g>
	<g>
		<path d="M96,122.4c-0.4-1.2-0.8-2.8-1.2-4c-0.4-1.2-1.2-2.4-2-3.2c-0.8-1.2-1.6-2-2.8-2.8c-1.2-0.8-2-2-3.2-2.8s-2.4-1.6-3.6-2.4
			c-1.2-0.8-2.8-1.6-4-2c-1.6-0.8-2.8-1.2-4.4-1.6c-0.8-0.4-1.6-0.4-2-0.8c-0.8-0.4-1.6-0.8-2-0.8c-0.8-0.4-1.2-0.8-2-1.2
			c-0.4-0.4-1.2-0.8-1.6-1.6c-0.4-0.4-0.8-1.2-1.2-2c-0.4-0.8-0.4-1.6-0.4-2.4s0-1.6,0-2.4s0.4-1.6,0.8-2c0.4-0.8,0.8-1.2,1.2-2
			c0.4-0.8,1.2-1.2,1.6-1.6c0.8-0.4,1.6-0.8,2.4-1.2c0.8-0.4,1.6-0.4,2.8-0.4c0.4,0,1.2,0,1.6,0s1.2,0,1.6,0c0.8,0,1.6,0,2.8,0.4
			c0.8,0,2,0.4,2.8,0.4s1.2,0.4,2,0.4c0.8,0.4,1.6,0.4,2,0.4l2.8,0.8l0.4-2.8l1.2-8.4l0.4-2l-2-0.8c-0.8-0.4-1.2-0.4-2-0.4
			c-0.4,0-1.2-0.4-2-0.4s-1.6-0.4-2.4-0.4c-0.8,0-1.6-0.4-2.4-0.4h-0.8v-7.2v-2.4H78h-7.2h-2.4v2.4v8h-0.8c-1.6,0.4-3.2,1.2-4.4,2
			c-1.2,0.8-2.8,1.6-4,2.8C58,78.8,56.8,80,56,81.2s-1.6,2.8-2.4,4c-0.8,1.6-1.2,3.2-1.6,4.8c-1.2,1.2-1.2,2.8-1.2,4.8
			c0,1.2,0,2.8,0.4,4c0.4,1.2,0.8,2.8,1.2,4c0.4,1.2,1.2,2.4,2,3.2c0.8,1.2,1.6,2,2.8,2.8c1.2,0.8,2.4,1.6,3.2,2.4
			c1.2,0.8,2.4,1.6,4,2.4c1.6,0.8,2.8,1.2,4.4,2s2.8,1.2,4.4,1.6c0.8,0.4,1.6,0.4,2,0.8c0.8,0.4,1.2,0.8,2,1.2
			c0.8,0.4,1.2,0.8,1.6,1.2c0.4,0.4,0.8,0.8,1.2,1.6c0.4,0.4,0.8,1.2,0.8,2c0.4,0.8,0.4,1.6,0.4,2.4s0,1.6,0,2.4s-0.4,1.6-0.8,2
			c-0.4,0.8-0.8,1.2-1.6,1.6c-0.4,0.4-1.2,0.8-2,1.2c-0.8,0.4-1.2,0.8-2,0.8c-0.8,0.4-1.6,0.4-2.4,0.4s-1.2,0-2,0c-0.8,0-1.2,0-2,0
			c-0.8,0-2,0-2.8-0.4c-0.8,0-2-0.4-2.8-0.4c-1.2-0.4-2.4-0.4-3.2-0.8c-1.2-0.4-2.4-0.8-3.2-1.2c-0.4,0-0.8-0.4-1.2-0.4
			c-0.4-0.4-0.8-0.4-1.2-0.8l-3.2-1.6l-0.4,3.2l-1.2,9.2l-0.4,1.6l1.6,0.8c1.2,0.4,2.4,1.2,3.6,1.6s2.4,0.8,3.6,1.2
			c1.2,0.4,2.4,0.8,4,0.8c1.2,0.4,2.8,0.4,4,0.8h0.8v7.6v2.4h2.4H76h2.4V156v-8h0.8c1.6-0.4,3.2-1.2,4.8-2c1.6-0.8,2.8-1.6,4-2.8
			c1.2-1.2,2.4-2.4,3.2-3.6c0.8-1.2,1.6-2.8,2.4-4c0.8-1.6,1.2-3.2,1.6-4.8c0.4-1.6,0.4-3.2,0.4-4.8C96.4,125.2,96,124,96,122.4z"/>
	</g>
</g>
<g>
	<g>
		<path d="M324.4,15.6c-40.4,0-72.8,32.8-72.8,72.8s32.8,72.8,72.8,72.8s72.8-32.8,72.8-72.8S364.8,15.6,324.4,15.6z M324.4,148.8
			c-33.2,0-60-26.8-60-60s26.8-60,60-60s60,26.8,60,60S357.6,148.8,324.4,148.8z"/>
	</g>
</g>
<g>
	<g>
		<polygon points="356.4,57.2 347.6,48.4 324.4,71.2 301.6,48.4 292.4,57.2 312.8,77.6 305.2,77.6 305.2,90.4 318,90.4 318,95.6 
			305.2,95.6 305.2,108.8 318,108.8 318,124.8 330.8,124.8 330.8,108.8 344,108.8 344,95.6 330.8,95.6 330.8,90.4 344,90.4 
			344,77.6 336,77.6 		"/>
	</g>
</g>
<g>
	<g>
		<path d="M238.4,86.8c0-0.4-0.4-0.4-0.4-0.8c0-0.4-0.4-0.4-0.4-0.8v-0.4l-8.8-11.2c-2-2.8-6.4-3.2-9.2-1.2s-3.2,6.4-1.2,9.2l2,2.4
			l-60,8.8c-3.6,0.4-6,3.6-5.6,7.2c0.8,3.6,3.6,5.6,6.8,5.6c0.4,0,0.8,0,0.8,0l60-8.8l-1.2,2.8c-1.2,3.2,0.4,7.2,3.6,8.4
			c0.8,0.4,1.6,0.4,2.4,0.4c2.4,0,4.8-1.6,6-4l5.2-13.2v-0.4c0-0.4,0-0.4,0.4-0.8c0-0.4,0-0.4,0-0.8c0-0.4,0-0.4,0-0.8V88v-0.4
			C238.8,87.2,238.8,87.2,238.4,86.8z"/>
	</g>
</g>
<g>
	<g>
		<path d="M302.4,162c-3.2-2-6.8-0.8-8.8,2.4l-30.8,52l-1.6-2.4c-1.6-3.2-5.6-4-8.8-2.4c-3.2,1.6-4,5.6-2.4,8.8l6.8,12.4
			c0,0,0,0,0.4,0.4c0,0.4,0.4,0.4,0.4,0.8c0.4,0.4,0.4,0.4,0.8,0.8c0.4,0,0.4,0.4,0.8,0.4h0.4c0.8,0.4,2,0.8,2.8,0.8h14
			c3.6,0,6.4-2.8,6.4-6.4c0-3.6-2.8-6.4-6.4-6.4h-2.8l30.8-52C306.4,168,305.2,164,302.4,162z"/>
	</g>
</g>
<g>
	<g>
		<path d="M160.8,243.6l-35.2-49.2l2.8-0.4c3.6-0.4,6-3.6,5.6-7.2c-0.4-3.6-3.6-6-7.2-5.6l-14,1.2h-0.4c-0.4,0-0.4,0-0.8,0
			s-0.4,0-0.8,0.4c-0.4,0-0.4,0.4-0.8,0.4h-0.4c0,0,0,0.4-0.4,0.4c-0.4,0-0.4,0.4-0.8,0.4c-0.4,0.4-0.4,0.4-0.4,0.8
			c0,0.4-0.4,0.4-0.4,0.8c0,0,0,0-0.4,0.4l-4.8,12.8c-1.6,3.2,0,7.2,3.2,8.4c0.8,0.4,1.6,0.4,2.8,0.4c2.4,0,4.8-1.6,6-3.6l1.2-2.8
			l34.8,49.6c1.2,1.6,3.2,2.8,5.2,2.8c1.2,0,2.4-0.4,3.6-1.2C162,250.4,162.8,246.4,160.8,243.6z"/>
	</g>
</g>
<g>
</g>
<g>
</g>
<g>
</g>
<g>
</g>
<g>
</g>
<g>
</g>
<g>
</g>
<g>
</g>
<g>
</g>
<g>
</g>
<g>
</g>
<g>
</g>
<g>
</g>
<g>
</g>
<g>
</g>
</svg>
