<svg id="crane" enable-background="new 0 0 300 300" height="512" viewBox="0 0 300 300" width="512" xmlns="http://www.w3.org/2000/svg"><g><path d="m128 56c2.211 0 4-1.791 4-4v-8c0-2.209-1.789-4-4-4s-4 1.791-4 4v8c0 2.209 1.789 4 4 4z"/><path d="m128 64c-2.211 0-4 1.791-4 4v8c0 2.209 1.789 4 4 4s4-1.791 4-4v-8c0-2.209-1.789-4-4-4z"/><path d="m112 64h8c2.211 0 4-1.791 4-4s-1.789-4-4-4h-8c-2.211 0-4 1.791-4 4s1.789 4 4 4z"/><path d="m136 64h8c2.211 0 4-1.791 4-4s-1.789-4-4-4h-8c-2.211 0-4 1.791-4 4s1.789 4 4 4z"/><path d="m42.96 92.224c2.362 0 4.276-1.915 4.276-4.276s-1.915-4.277-4.276-4.277-4.276 1.915-4.276 4.277 1.914 4.276 4.276 4.276z"/><path d="m220 216c-8.824 0-16 7.178-16 16s7.176 16 16 16 16-7.178 16-16-7.176-16-16-16zm0 24c-4.41 0-8-3.588-8-8s3.59-8 8-8 8 3.588 8 8-3.59 8-8 8z"/><path d="m252.457 168h-10.137l-14.848-25.984c-.71-1.246-2.038-2.016-3.472-2.016h-40c-2.211 0-4 1.791-4 4v52h-8v-24c0-2.209-1.789-4-4-4h-28c-2.211 0-4 1.791-4 4v24h-8v-40.643c0-9.168-6.423-16.828-14.995-18.818l90.995-57.293v9.26c-6.895 1.781-12 8.053-12 15.494 0 8.822 7.176 16 16 16s16-7.178 16-16c0-2.209-1.789-4-4-4s-4 1.791-4 4c0 4.412-3.59 8-8 8s-8-3.588-8-8 3.59-8 8-8c2.211 0 4-1.791 4-4v-20-8-12c0-1.455-.793-2.797-2.066-3.502-1.277-.703-2.836-.66-4.062.115l-139.123 87.449c-10.388.33-18.749 8.831-18.749 19.295v40.643h-.754c-6.199 0-11.246 5.045-11.246 11.246v9.508c0 5.206 3.574 9.555 8.383 10.831-.23 1.442-.383 2.909-.383 4.415 0 15.439 12.562 28 28 28 10.19 0 19.102-5.491 24-13.653 4.898 8.162 13.81 13.653 24 13.653 15.438 0 28-12.561 28-28 0-1.362-.131-2.69-.319-4h44.639c-.189 1.31-.32 2.638-.32 4 0 15.439 12.562 28 28 28s28-12.561 28-28c0-1.362-.131-2.69-.319-4h12.319c2.211 0 4-1.791 4-4v-44.459c0-6.363-5.18-11.541-11.543-11.541zm-108.457 8h20v20h-20zm60-112v5.791l-105.156 66.209h-16.963l122.119-76.762zm-148 91.357c0-6.261 5.098-11.357 11.359-11.357h41.281c6.262 0 11.359 5.096 11.359 11.357v40.643h-63.999zm16 96.643c-11.027 0-20-8.973-20-20s8.973-20 20-20 20 8.973 20 20-8.973 20-20 20zm48 0c-11.027 0-20-8.973-20-20s8.973-20 20-20 20 8.973 20 20-8.973 20-20 20zm0-48c-10.19 0-19.102 5.491-24 13.653-4.898-8.162-13.81-13.653-24-13.653-11.103 0-20.69 6.514-25.215 15.907-1.562-.233-2.785-1.527-2.785-3.153v-9.508c0-1.789 1.457-3.246 3.246-3.246h24.754 48 60v16h-34.74c-4.506-9.443-14.12-16-25.26-16zm100 48c-11.027 0-20-8.973-20-20s8.973-20 20-20 20 8.973 20 20-8.973 20-20 20zm36-32h-10.74c-4.506-9.443-14.12-16-25.26-16s-20.754 6.557-25.26 16h-6.74v-20-52h33.68l14.848 25.984c.71 1.246 2.038 2.016 3.472 2.016h12.457c1.953 0 3.543 1.588 3.543 3.541z"/><path d="m120 216c-8.824 0-16 7.178-16 16s7.176 16 16 16 16-7.178 16-16-7.176-16-16-16zm0 24c-4.41 0-8-3.588-8-8s3.59-8 8-8 8 3.588 8 8-3.59 8-8 8z"/><path d="m72 216c-8.824 0-16 7.178-16 16s7.176 16 16 16 16-7.178 16-16-7.176-16-16-16zm0 24c-4.41 0-8-3.588-8-8s3.59-8 8-8 8 3.588 8 8-3.59 8-8 8z"/><path d="m219.578 154.211c-.68-1.355-2.062-2.211-3.578-2.211h-20c-2.211 0-4 1.791-4 4v16c0 2.209 1.789 4 4 4h28c1.387 0 2.672-.719 3.402-1.896.73-1.18.797-2.652.176-3.893zm-19.578 13.789v-8h13.527l4 8z"/><path d="m64 160c-2.211 0-4 1.791-4 4v12c0 2.209 1.789 4 4 4s4-1.791 4-4v-12c0-2.209-1.789-4-4-4z"/><path d="m76 160c-2.211 0-4 1.791-4 4v12c0 2.209 1.789 4 4 4s4-1.791 4-4v-12c0-2.209-1.789-4-4-4z"/></g></svg>