<svg id="Capa_1" enable-background="new 0 0 480.001 480.001" height="512" viewBox="0 0 480.001 480.001" width="512" xmlns="http://www.w3.org/2000/svg"><path d="m136 203.986c8.122.015 15.916-3.208 21.656-8.955 3.089-3.159 3.033-8.224-.126-11.313-3.109-3.04-8.077-3.041-11.186-.001-5.717 5.703-14.971 5.703-20.688 0-3.089-3.159-8.154-3.215-11.313-.126s-3.215 8.154-.126 11.313c.042.043.084.085.127.127 5.74 5.747 13.534 8.969 21.656 8.955z"/><path d="m160 364.001h16v16h-16z"/><path d="m472 380.001h-31.767l1.858-1.072c2.475-1.429 4-4.07 4-6.928v-32c0-2.858-1.525-5.499-4-6.928l-1.858-1.072h31.767c4.418 0 8-3.583 7.999-8.001 0-.996-.186-1.984-.549-2.912-19.216-49.346-74.797-73.771-124.142-54.554-15.277 5.949-28.773 15.716-39.2 28.367-1.359 1.646-2.673 3.351-3.93 5.1h-42.478c-6.998-23.225-28.102-39.344-52.35-39.984l-21.8-7.268-19.55-13.029v-15.886c17.631-11.793 29.171-30.755 31.545-51.833h.455c17.673 0 32-14.327 32-32s-14.327-32-32-32v-48c-.025-22.081-17.919-39.975-40-40h-64c-22.081.025-39.975 17.919-40 40v48c-17.673 0-32 14.327-32 32s14.327 32 32 32h.455c2.374 21.078 13.914 40.04 31.545 51.833v15.886l-19.544 13.029-21.863 7.288c-30.351.79-54.555 25.602-54.593 55.964v120c.015 13.248 10.752 23.985 24 24h224c13.248-.015 23.985-10.752 24-24v-24h40.176c30.887 43.032 90.809 52.878 133.841 21.991 15.078-10.822 26.691-25.786 33.433-43.078 1.609-4.115-.423-8.755-4.538-10.364-.928-.363-1.916-.549-2.912-.549zm-61.622-46.763 19.713 11.382v13.525l-31.426-18.144zm-19.713 20.619 31.426 18.144-11.713 6.763-19.713-11.382zm-96.218 10.144h-22.447v-16h22.447c-.238 2.693-.356 5.349-.356 8s.118 5.307.356 8zm-38.447-48v8h-32v-47.206c18.599 3.852 31.952 20.212 32 39.206zm-134.111 80-30.311-15.155c-2.252-1.126-4.904-1.126-7.156 0l-20.422 10.211v-117.289l11.948-3.983 28.9 57.794c1.15 2.3 3.336 3.906 5.874 4.318.422.069.85.104 1.278.104 2.122 0 4.157-.843 5.657-2.343l10.343-10.343v76.686zm22.111-76.686 10.343 10.343c1.5 1.5 3.535 2.343 5.657 2.343.429.001.857-.032 1.281-.1 2.538-.412 4.724-2.018 5.874-4.318l28.9-57.794 11.945 3.979v122.233h-64zm13.809-8.819-11.831-11.831 24.715-43.254 10.994 7.329zm-21.809-178.495c-21.505.072-41.181-12.088-50.733-31.355l-.323-.645h102.112l-.323.645c-9.552 19.267-29.228 31.427-50.733 31.355zm88 8c-.01 8.832-7.168 15.99-16 16v-32c8.832.01 15.99 7.167 16 16zm-144-80c.015-13.248 10.752-23.985 24-24h64c13.248.015 23.985 10.752 24 24v24h-112zm-32 80c.01-8.832 7.168-15.99 16-16v32c-8.832-.011-15.99-7.168-16-16zm32 24v-42.295c6.287 7.632 14.077 13.889 22.885 18.382-4.375.616-7.422 4.662-6.806 9.037s4.662 7.422 9.037 6.806 7.422-4.662 6.806-9.037c-.173-1.231-.631-2.405-1.337-3.428 4.718 1.746 9.604 2.997 14.581 3.732l-4.756 14.273c-1.397 4.192.868 8.722 5.059 10.119.816.272 1.67.411 2.531.411h16c4.418 0 8-3.582 8-8s-3.582-8-8-8h-4.9l2.746-8.239c6.689-.524 13.274-1.971 19.567-4.3-2.509 3.636-1.596 8.619 2.041 11.128 3.636 2.509 8.619 1.596 11.128-2.041 2.509-3.636 1.596-8.619-2.041-11.128-1.023-.706-2.197-1.164-3.428-1.337 8.809-4.491 16.599-10.747 22.887-18.378v42.295c-.016 20.213-10.919 38.851-28.53 48.771-.369.173-.725.373-1.064.6-16.493 8.844-36.319 8.844-52.812 0-.339-.227-.695-.427-1.064-.6-17.611-9.921-28.514-28.558-28.53-48.771zm56 72c8.177.003 16.294-1.393 24-4.128v10l-24 42-24-42v-10c7.706 2.735 15.823 4.131 24 4.128zm-34.693 19.41 24.715 43.254-11.831 11.836-23.878-47.756zm-53.307 21.395v47.195h-32v-8c.025-19 13.39-35.369 32-39.195zm-32 159.195v-96h32v64c0 .046.006.091.007.137 0 .173.012.345.026.519.008.094.016.188.027.282.017.15.042.3.068.45.02.111.038.222.062.332s.061.244.094.365.068.259.109.386c.007.019.011.039.017.059l12.49 37.47h-36.9c-4.416-.005-7.995-3.584-8-8zm240 0c-.005 4.416-3.584 7.995-8 8h-170.233l-11.984-35.947 22.217-11.109 28.422 14.211c1.111.556 2.336.845 3.578.845h96c4.418 0 8-3.582 8-8v-64h32zm134.091 0c-27.055.019-52.277-13.673-67-36.372-1.477-2.263-3.997-3.628-6.7-3.628h-44.391v-16h31.614c4.418 0 8-3.582 8-8 0-.486-.044-.97-.132-1.448-1.854-9.611-1.854-19.489 0-29.1.802-4.345-2.07-8.517-6.415-9.319-.479-.088-.966-.133-1.453-.133h-31.614v-16h44.39c2.703 0 5.223-1.364 6.7-3.627 1.648-2.524 3.436-4.954 5.355-7.279 28.055-34.055 78.405-38.918 112.459-10.863 7.396 6.093 13.636 13.467 18.421 21.77h-48.947c-1.404 0-2.784.37-4 1.071l-27.713 16c-2.475 1.429-4 4.071-4 6.929v32c0 2.858 1.525 5.5 4 6.929l27.713 16c1.216.701 2.596 1.071 4 1.071h48.947c-14.191 24.827-40.637 40.106-69.234 39.999z"/><path d="m376.372 402.014c-25.412-7.589-39.861-34.342-32.272-59.754 4.631-15.508 16.763-27.64 32.272-32.272 4.235-1.26 6.646-5.715 5.386-9.95s-5.715-6.646-9.95-5.386c-33.883 10.108-53.156 45.77-43.047 79.653 6.172 20.69 22.357 36.875 43.047 43.047 4.235 1.26 8.69-1.151 9.95-5.386s-1.151-8.69-5.386-9.95z"/></svg>