<svg id="icons" enable-background="new 0 0 64 64" height="512" viewBox="0 0 64 64" width="512" xmlns="http://www.w3.org/2000/svg"><g><g><path d="m51.5 31.96c-1.93 0-3.5-1.57-3.5-3.5s1.57-3.5 3.5-3.5 3.5 1.57 3.5 3.5-1.57 3.5-3.5 3.5zm0-5c-.827 0-1.5.673-1.5 1.5s.673 1.5 1.5 1.5 1.5-.673 1.5-1.5-.673-1.5-1.5-1.5z"/></g><g><path d="m51.5 35.002c-3.584 0-6.5-2.916-6.5-6.5s2.916-6.5 6.5-6.5 6.5 2.916 6.5 6.5-2.916 6.5-6.5 6.5zm0-11c-2.481 0-4.5 2.019-4.5 4.5s2.019 4.5 4.5 4.5 4.5-2.019 4.5-4.5-2.019-4.5-4.5-4.5z"/></g><g><path d="m13.5 31.96c-1.93 0-3.5-1.57-3.5-3.5s1.57-3.5 3.5-3.5 3.5 1.57 3.5 3.5-1.57 3.5-3.5 3.5zm0-5c-.827 0-1.5.673-1.5 1.5s.673 1.5 1.5 1.5 1.5-.673 1.5-1.5-.673-1.5-1.5-1.5z"/></g><g><path d="m13.5 35.002c-3.584 0-6.5-2.916-6.5-6.5s2.916-6.5 6.5-6.5 6.5 2.916 6.5 6.5-2.916 6.5-6.5 6.5zm0-11c-2.481 0-4.5 2.019-4.5 4.5s2.019 4.5 4.5 4.5 4.5-2.019 4.5-4.5-2.019-4.5-4.5-4.5z"/></g><g><path d="m63 31.002h-6.208c-.553 0-1-.447-1-1s.447-1 1-1h5.208v-6.764l-.895-1.789c-.157-.314-.136-.682.043-.971-2.3-.644-7.411-1.802-16.226-2.479-.189-.015-.371-.083-.522-.197-3.735-2.801-8.404-5.8-9.4-5.8h-12c-3.086 0-12.273 4.255-15.553 5.895-.138.069-.292.105-.447.105h-4v2c0 .266-.105.52-.293.707l-.707.707v6.172l2.707 2.707c.391.391.391 1.023 0 1.414s-1.023.391-1.414 0l-3-3c-.188-.188-.293-.441-.293-.707v-7c0-.266.105-.52.293-.707l.707-.707v-2.586c0-.553.447-1 1-1h4.765c1.97-.977 12.294-6 16.235-6h12c2.085 0 8.187 4.401 10.366 6.025 12.791 1.008 17.799 2.979 18.008 3.063.313.126.541.401.606.731.066.331-.039.673-.279.909l-.481.475.675 1.35c.069.138.105.292.105.447v8c0 .553-.447 1-1 1z"/></g><g><path d="m22.998 31.002h-4.206c-.553 0-1-.447-1-1s.447-1 1-1h4.206c.553 0 1 .447 1 1s-.447 1-1 1z"/></g><g><path d="m45 17.002h-21c-.055 0-.11-.005-.164-.014l-6-1c-.386-.064-.699-.348-.801-.725-.103-.377.024-.779.324-1.03l6-5c.426-.353 1.055-.296 1.409.128.354.425.296 1.056-.128 1.409l-4.325 3.604 3.768.628h20.917c.553 0 1 .447 1 1s-.447 1-1 1z"/></g><g><path d="m8.208 31.002h-4.208c-.553 0-1-.447-1-1s.447-1 1-1h4.208c.553 0 1 .447 1 1s-.447 1-1 1z"/></g><g><path d="m24 17.002c-.553 0-1-.447-1-1v-6c0-.553.447-1 1-1s1 .447 1 1v6c0 .553-.447 1-1 1z"/></g><g><path d="m31.999 40c-5.514 0-10-4.486-10-10s4.486-10 10-10 10 4.486 10 10-4.486 10-10 10zm0-18c-4.411 0-8 3.589-8 8s3.589 8 8 8 8-3.589 8-8-3.589-8-8-8z"/></g><g><path d="m31.999 37c-3.859 0-7-3.141-7-7s3.141-7 7-7 7 3.141 7 7-3.141 7-7 7zm0-12c-2.757 0-5 2.243-5 5s2.243 5 5 5 5-2.243 5-5-2.243-5-5-5z"/></g><g><path d="m46.209 31h-5.209c-.553 0-1-.447-1-1s.447-1 1-1h5.209c.553 0 1 .447 1 1s-.447 1-1 1z"/></g><g><path d="m33.498 44c-.553 0-1-.447-1-1v-4.124c0-.553.447-1 1-1s1 .447 1 1v4.124c0 .553-.447 1-1 1z"/></g><g><path d="m30.499 44c-.553 0-1-.447-1-1v-4.124c0-.553.447-1 1-1s1 .447 1 1v4.124c0 .553-.447 1-1 1z"/></g><g><path d="m35 44h-6c-.553 0-1-.447-1-1s.447-1 1-1h6c.553 0 1 .447 1 1s-.447 1-1 1z"/></g><g><path d="m35 52.001c-.553 0-1-.447-1-1v-8.001c0-.553.447-1 1-1s1 .447 1 1v8.001c0 .553-.447 1-1 1z"/></g><g><path d="m29 52.001c-.553 0-1-.447-1-1v-8.001c0-.553.447-1 1-1s1 .447 1 1v8.001c0 .553-.447 1-1 1z"/></g><g><path d="m32 54.998c-2.206 0-4-1.794-4-4 0-.553.447-1 1-1s1 .447 1 1c0 1.103.897 2 2 2s2-.897 2-2c0-.553.447-1 1-1s1 .447 1 1c0 2.206-1.794 4-4 4z"/></g><g><path d="m54.997 44.001h-15c-.553 0-1-.447-1-1s.447-1 1-1h15c.553 0 1 .447 1 1s-.447 1-1 1z"/></g><g><path d="m54.997 47.001h-15c-.553 0-1-.447-1-1s.447-1 1-1h15c.553 0 1 .447 1 1s-.447 1-1 1z"/></g><g><path d="m54.997 50.001h-15c-.553 0-1-.447-1-1s.447-1 1-1h15c.553 0 1 .447 1 1s-.447 1-1 1z"/></g><g><path d="m46.997 53.001h-7c-.553 0-1-.447-1-1s.447-1 1-1h7c.553 0 1 .447 1 1s-.447 1-1 1z"/></g><g><path d="m23.997 44.001h-15c-.553 0-1-.447-1-1s.447-1 1-1h15c.553 0 1 .447 1 1s-.447 1-1 1z"/></g><g><path d="m23.997 47.001h-15c-.553 0-1-.447-1-1s.447-1 1-1h15c.553 0 1 .447 1 1s-.447 1-1 1z"/></g><g><path d="m23.997 50.001h-15c-.553 0-1-.447-1-1s.447-1 1-1h15c.553 0 1 .447 1 1s-.447 1-1 1z"/></g><g><path d="m23.997 53.001h-7c-.553 0-1-.447-1-1s.447-1 1-1h7c.553 0 1 .447 1 1s-.447 1-1 1z"/></g></g></svg>