<?xml version="1.0" encoding="iso-8859-1"?>
<!-- Generator: Adobe Illustrator 19.0.0, SVG Export Plug-In . SVG Version: 6.00 Build 0)  -->
<svg version="1.1" id="Capa_1" xmlns="http://www.w3.org/2000/svg" xmlns:xlink="http://www.w3.org/1999/xlink" x="0px" y="0px"
	 viewBox="0 0 512 512" style="enable-background:new 0 0 512 512;" xml:space="preserve">
<g>
	<g>
		<path d="M191.065,399.564c-4.021-4.036-9.368-6.264-15.055-6.274c-0.014,0.001-0.025,0.001-0.038,0.001
			c-11.734,0-21.292,9.537-21.313,21.276c-0.01,5.687,2.2,11.041,6.221,15.077c4.022,4.035,9.368,6.263,15.055,6.273
			c0.013,0,0.026,0,0.039,0c5.672,0,11.012-2.209,15.038-6.221c4.035-4.021,6.263-9.368,6.273-15.055
			C197.295,408.954,195.086,403.6,191.065,399.564z M180.725,419.374c-1.275,1.271-2.962,1.97-4.752,1.97c-0.004,0-0.008,0-0.012,0
			c-1.794-0.003-3.484-0.709-4.758-1.987c-1.274-1.278-1.974-2.971-1.971-4.765c0.007-3.712,3.029-6.728,6.74-6.728
			c0.004,0,0.008,0,0.012,0c1.794,0.003,3.484,0.709,4.758,1.987c1.273,1.278,1.973,2.97,1.97,4.765
			C182.709,416.41,182.003,418.1,180.725,419.374z"/>
	</g>
</g>
<g>
	<g>
		<path d="M414.437,393.708c-0.012,0-0.025,0-0.037,0c-5.673,0-11.013,2.209-15.04,6.22c-4.035,4.021-6.264,9.368-6.273,15.054
			c-0.01,5.687,2.198,11.042,6.22,15.077c4.022,4.035,9.368,6.265,15.055,6.275c0.013,0,0.026,0,0.038,0
			c5.673,0,11.013-2.209,15.04-6.221c4.035-4.021,6.264-9.368,6.273-15.055C435.733,403.307,426.189,393.729,414.437,393.708z
			 M419.152,419.789c-1.276,1.271-2.963,1.971-4.753,1.971c-0.004,0-0.008,0-0.011,0c-1.795-0.003-3.485-0.709-4.759-1.987
			c-1.273-1.278-1.972-2.97-1.97-4.766c0.004-1.793,0.71-3.482,1.988-4.756c1.276-1.271,2.963-1.971,4.753-1.971
			c0.004,0,0.008,0,0.011,0c3.716,0.007,6.735,3.036,6.728,6.752C421.136,416.826,420.43,418.516,419.152,419.789z"/>
	</g>
</g>
<g>
	<g>
		<path d="M448.681,359.29c9.326-0.001,17.458-6.304,19.779-15.341l42.887-166.935c1.581-6.152,0.257-12.56-3.631-17.583
			c-3.889-5.023-9.762-7.91-16.113-7.921l-52.459-0.092c-0.004,0-0.009,0-0.012,0c-4.018,0-7.28,3.254-7.286,7.274
			c-0.007,4.024,3.249,7.292,7.274,7.299l52.459,0.092c1.819,0.003,3.501,0.83,4.615,2.268c1.114,1.439,1.493,3.275,1.041,5.036
			l-42.887,166.935c-0.666,2.589-2.994,4.394-5.667,4.394c-0.003,0-0.007,0-0.01,0l-273.596-0.478L129.809,165.45l257.499,0.45
			c0.004,0,0.009,0,0.012,0c4.018,0,7.28-3.254,7.286-7.274c0.007-4.024-3.249-7.292-7.274-7.299l-261.215-0.457L111.37,92.625
			c-1.721-6.799-6.64-12.401-13.158-14.985L29.997,50.577C18.768,46.125,6.01,51.636,1.556,62.862
			c-2.158,5.439-2.069,11.393,0.251,16.765C4.128,85,8.401,89.147,13.841,91.305l57.803,22.934l68.102,268.98
			c-16.297,18.786-15.563,47.338,2.265,65.228c9.352,9.385,21.656,14.08,33.962,14.08c12.249,0,24.5-4.652,33.842-13.961
			c4.524-4.508,7.947-9.706,10.291-15.255l150.096,0.262c2.324,5.558,5.729,10.767,10.237,15.291
			c9.04,9.071,21.072,14.08,33.878,14.102c0.028,0,0.057,0,0.086,0c12.774,0,24.789-4.964,33.84-13.984
			c4.464-4.448,7.938-9.623,10.324-15.255l16.164,0.028c0.014,0,0.027,0,0.04,0c5.837,0,11.327-2.268,15.463-6.389
			c4.145-4.13,6.433-9.628,6.444-15.48c0.021-12.08-9.789-21.925-21.869-21.946h-0.001l-19.56-0.034
			c-1.931-3.127-4.227-6.059-6.886-8.727c-18.66-18.727-49.078-18.78-67.804-0.119c-2.689,2.68-4.98,5.608-6.899,8.703
			l-156.856-0.274c-1.908-3.102-4.189-6.038-6.869-8.727c-8.122-8.151-18.472-12.761-29.115-13.833l-2.053-8.11l269.879,0.471
			C448.657,359.29,448.668,359.29,448.681,359.29z M474.782,404.513c4.045,0.007,7.33,3.303,7.322,7.348
			c-0.004,1.959-0.769,3.8-2.157,5.183c-1.384,1.379-3.223,2.139-5.177,2.139c-0.004,0-0.009,0-0.013,0l-12.588-0.022
			c0.042-0.483,0.071-0.967,0.098-1.45c0.005-0.084,0.013-0.168,0.017-0.252c0.039-0.767,0.058-1.534,0.06-2.301
			c0-0.017,0.001-0.035,0.001-0.052c0-0.048-0.003-0.096-0.003-0.144c-0.001-0.669-0.016-1.338-0.045-2.007
			c-0.007-0.169-0.016-0.338-0.025-0.507c-0.03-0.555-0.07-1.11-0.119-1.664c-0.019-0.214-0.034-0.428-0.056-0.641
			c-0.051-0.504-0.115-1.006-0.182-1.508c-0.092-0.695-0.201-1.385-0.323-2.072c-0.018-0.102-0.033-0.204-0.052-0.306
			c-0.109-0.594-0.232-1.181-0.363-1.768L474.782,404.513z M382.411,405.535c0.02-0.068,0.042-0.136,0.062-0.204
			c0.122-0.403,0.253-0.804,0.39-1.204c0.057-0.165,0.116-0.329,0.176-0.493c0.108-0.298,0.221-0.595,0.337-0.891
			c0.095-0.241,0.193-0.48,0.294-0.719c0.091-0.217,0.186-0.432,0.282-0.647c0.132-0.295,0.268-0.589,0.409-0.882
			c1.59-3.296,3.745-6.385,6.48-9.11c6.505-6.483,15.032-9.72,23.558-9.72c8.565,0,17.132,3.268,23.64,9.8
			c2.603,2.613,4.713,5.584,6.301,8.797c0.018,0.039,0.03,0.081,0.049,0.12c1.356,2.777,2.306,5.699,2.848,8.685
			c0.015,0.086,0.03,0.173,0.044,0.26c0.068,0.393,0.129,0.787,0.183,1.181c0.026,0.196,0.048,0.393,0.071,0.589
			c0.035,0.299,0.07,0.598,0.097,0.898c0.028,0.313,0.048,0.627,0.067,0.941c0.012,0.198,0.028,0.396,0.037,0.595
			c0.018,0.427,0.026,0.857,0.029,1.287c0.001,0.101,0.005,0.202,0.005,0.303c-0.001,0.483-0.016,0.964-0.038,1.443
			c-0.003,0.066-0.003,0.131-0.006,0.197c-0.014,0.284-0.042,0.565-0.064,0.848c-0.178,2.279-0.582,4.552-1.232,6.784
			c-0.012,0.04-0.017,0.08-0.027,0.12c-1.562,5.294-4.43,10.143-8.448,14.148c-6.301,6.278-14.663,9.734-23.555,9.734
			c-0.02,0-0.041,0-0.06,0c-8.914-0.015-17.289-3.501-23.581-9.816C381.849,429.637,379.07,416.867,382.411,405.535z
			 M367.66,404.326c-1.101,4.802-1.453,9.747-1.043,14.668l-142.878-0.25c0.428-4.92,0.093-9.865-0.99-14.671L367.66,404.326z
			 M84.856,107.051c-0.574-2.268-2.202-4.122-4.376-4.984L19.215,77.76c-1.822-0.723-3.252-2.111-4.029-3.91
			c-0.777-1.799-0.807-3.792-0.084-5.613c1.14-2.875,3.907-4.63,6.828-4.63c0.898,0,1.811,0.166,2.694,0.517l68.214,27.065
			c2.181,0.865,3.827,2.74,4.404,5.016l68.743,271.513c-0.451,0.096-0.899,0.204-1.347,0.313c-0.003,0.001-0.006,0.001-0.009,0.002
			c-1.459,0.354-2.898,0.775-4.313,1.263c-0.161,0.055-0.32,0.116-0.48,0.173c-0.49,0.175-0.978,0.357-1.462,0.548
			c-0.257,0.101-0.513,0.205-0.769,0.311c-0.379,0.157-0.754,0.32-1.129,0.487c-0.3,0.133-0.6,0.264-0.897,0.404
			c-0.293,0.138-0.582,0.285-0.872,0.428c-0.72,0.355-1.432,0.73-2.137,1.124c-0.128,0.072-0.258,0.138-0.385,0.211L84.856,107.051z
			 M199.61,391.047c2.728,2.737,4.873,5.835,6.452,9.138c0.139,0.29,0.273,0.583,0.403,0.876c0.096,0.217,0.191,0.435,0.282,0.653
			c0.1,0.238,0.196,0.476,0.29,0.716c0.116,0.298,0.229,0.597,0.336,0.897c0.059,0.163,0.116,0.326,0.172,0.49
			c0.136,0.4,0.265,0.801,0.385,1.204c0.021,0.069,0.042,0.139,0.063,0.208c3.3,11.343,0.477,24.103-8.465,33.014
			c-6.3,6.278-14.662,9.733-23.555,9.733c-0.02,0-0.041,0-0.06,0c-8.914-0.016-17.289-3.502-23.581-9.816
			c-12.989-13.035-12.952-34.207,0.083-47.195c0.124-0.123,0.254-0.239,0.379-0.36c0.016-0.015,0.034-0.028,0.05-0.044
			c6.048-5.822,14.002-9.128,22.397-9.31c0.011,0,0.022-0.002,0.033-0.003c0.232-0.005,0.463-0.017,0.695-0.017
			c0.02,0,0.041,0,0.06,0C184.943,381.247,193.318,384.733,199.61,391.047z"/>
	</g>
</g>
<g>
	<g>
		<path d="M211.319,314.501l-12.733-50.29c-0.988-3.901-4.95-6.263-8.852-5.275c-3.901,0.988-6.263,4.951-5.275,8.852l12.733,50.29
			c0.836,3.301,3.802,5.5,7.058,5.5c0.592,0,1.194-0.073,1.794-0.225C209.945,322.365,212.307,318.402,211.319,314.501z"/>
	</g>
</g>
<g>
	<g>
		<path d="M185.736,213.461l-5.536-21.865c-0.988-3.901-4.947-6.264-8.852-5.275c-3.901,0.988-6.263,4.951-5.275,8.852l5.536,21.865
			c0.836,3.301,3.802,5.5,7.058,5.5c0.592,0,1.194-0.073,1.794-0.225C184.362,221.325,186.724,217.362,185.736,213.461z"/>
	</g>
</g>
<g>
	<g>
		<path d="M278.493,315.801l-10.229-122.868c-0.334-4.01-3.854-6.991-7.866-6.656c-4.01,0.334-6.991,3.856-6.657,7.866
			l10.229,122.868c0.317,3.805,3.503,6.682,7.253,6.682c0.203,0,0.407-0.009,0.613-0.026
			C275.846,323.333,278.826,319.811,278.493,315.801z"/>
	</g>
</g>
<g>
	<g>
		<path d="M349.497,186.433c-3.994-0.347-7.539,2.62-7.887,6.629l-10.66,122.832c-0.348,4.009,2.619,7.541,6.629,7.889
			c0.214,0.019,0.427,0.028,0.638,0.028c3.739,0,6.921-2.862,7.25-6.657l10.659-122.832
			C356.474,190.313,353.507,186.781,349.497,186.433z"/>
	</g>
</g>
<g>
	<g>
		<path d="M438.547,186.789c-3.901-1.001-7.869,1.348-8.87,5.244L398.13,314.828c-1.002,3.897,1.346,7.869,5.244,8.87
			c0.608,0.156,1.218,0.231,1.818,0.231c3.247,0,6.208-2.186,7.052-5.475l31.547-122.795
			C444.793,191.762,442.445,187.79,438.547,186.789z"/>
	</g>
</g>
<g>
</g>
<g>
</g>
<g>
</g>
<g>
</g>
<g>
</g>
<g>
</g>
<g>
</g>
<g>
</g>
<g>
</g>
<g>
</g>
<g>
</g>
<g>
</g>
<g>
</g>
<g>
</g>
<g>
</g>
</svg>
