<?xml version="1.0" encoding="iso-8859-1"?>
<!-- Generator: Adobe Illustrator 19.0.0, SVG Export Plug-In . SVG Version: 6.00 Build 0)  -->
<svg version="1.1" id="Layer_1" xmlns="http://www.w3.org/2000/svg" xmlns:xlink="http://www.w3.org/1999/xlink" x="0px" y="0px"
	 viewBox="0 0 512 512" style="enable-background:new 0 0 512 512;" xml:space="preserve">
<g>
	<g>
		<path d="M394,141.186c-7.72,0-14,6.244-14,13.92v136.16c0,7.676,6.28,13.92,14,13.92c7.72,0,14-6.244,14-13.92v-136.16
			C408,147.434,401.72,141.186,394,141.186z M400,291.266c0,3.264-2.692,5.92-6,5.92c-3.308,0-6-2.656-6-5.92v-136.16
			c0-3.264,2.692-5.92,6-5.92c3.308,0,6,2.656,6,5.92V291.266z"/>
	</g>
</g>
<g>
	<g>
		<path d="M450,141.186c-7.72,0-14,6.244-14,13.92v136.16c0,7.676,6.28,13.92,14,13.92c7.72,0,14-6.244,14-13.92v-136.16
			C464,147.434,457.72,141.186,450,141.186z M456,291.266c0,3.264-2.692,5.92-6,5.92c-3.308,0-6-2.656-6-5.92v-136.16
			c0-3.264,2.692-5.92,6-5.92c3.308,0,6,2.656,6,5.92V291.266z"/>
	</g>
</g>
<g>
	<g>
		<path d="M338,141.186c-7.72,0-14,6.244-14,13.92v136.16c0,7.676,6.28,13.92,14,13.92c7.72,0,14-6.244,14-13.92v-136.16
			C352,147.434,345.72,141.186,338,141.186z M344,291.266c0,3.264-2.692,5.92-6,5.92c-3.308,0-6-2.656-6-5.92v-136.16
			c0-3.264,2.692-5.92,6-5.92c3.308,0,6,2.656,6,5.92V291.266z"/>
	</g>
</g>
<g>
	<g>
		<path d="M282,141.186c-7.72,0-14,6.244-14,13.92v136.16c0,7.676,6.28,13.92,14,13.92c7.72,0,14-6.244,14-13.92v-136.16
			C296,147.434,289.72,141.186,282,141.186z M288,291.266c0,3.264-2.692,5.92-6,5.92c-3.308,0-6-2.656-6-5.92v-136.16
			c0-3.264,2.692-5.92,6-5.92c3.308,0,6,2.656,6,5.92V291.266z"/>
	</g>
</g>
<g>
	<g>
		<path d="M226,141.186c-7.72,0-14,6.244-14,13.92v136.16c0,7.676,6.28,13.92,14,13.92c7.72,0,14-6.244,14-13.92v-136.16
			C240,147.434,233.72,141.186,226,141.186z M232,291.266c0,3.264-2.692,5.92-6,5.92s-6-2.656-6-5.92v-136.16
			c0-3.264,2.692-5.92,6-5.92s6,2.656,6,5.92V291.266z"/>
	</g>
</g>
<g>
	<g>
		<path d="M170,141.186c-7.72,0-14,6.244-14,13.92v44.16c0,7.676,6.28,13.92,14,13.92c7.72,0,14-6.244,14-13.92v-44.16
			C184,147.434,177.72,141.186,170,141.186z M176,199.266c0,3.264-2.692,5.92-6,5.92s-6-2.656-6-5.92v-44.16
			c0-3.264,2.692-5.92,6-5.92s6,2.656,6,5.92V199.266z"/>
	</g>
</g>
<g>
	<g>
		<path d="M112.032,95.566L91.396,49.098c-9.108-20.212-24.336-30.036-46.56-30.036H4c-2.208,0-4,1.792-4,4v20c0,2.208,1.792,4,4,4
			h40.248c12.944,0,14.952,4.172,18.9,12.36l17.488,39.84c0.66,1.5,2.124,2.396,3.664,2.396c0.536-0.004,1.08-0.108,1.604-0.344
			c2.024-0.884,2.944-3.244,2.056-5.268L70.412,56.078c-4.216-8.752-8.192-17.016-26.164-17.016H8v-12h36.836
			c19.004,0,31.484,8.048,39.26,25.304l20.624,46.448c0.896,2.016,3.256,2.924,5.28,2.032
			C112.02,99.95,112.928,97.586,112.032,95.566z"/>
	</g>
</g>
<g>
	<g>
		<path d="M500,115.062c-2.208,0-4,1.792-4,4v194.124c0,6.416-5.244,13.876-12,13.876H200.968c-6.964,0-15.708-6.068-18.708-12.98
			L97.688,118.57c-0.88-2.028-3.232-2.96-5.26-2.084c-2.028,0.876-2.96,3.232-2.084,5.26l84.572,195.52
			c4.268,9.812,15.952,17.796,26.052,17.796H484c11.448,0,20-11.548,20-21.876V119.062C504,116.854,502.208,115.062,500,115.062z"/>
	</g>
</g>
<g>
	<g>
		<path d="M172,397.438c-26.332,0-47.752,21.416-47.752,47.748s21.42,47.752,47.752,47.752c26.332,0,47.752-21.416,47.752-47.748
			S198.332,397.438,172,397.438z M172,484.942c-21.92,0-39.752-17.832-39.752-39.752s17.836-39.752,39.752-39.752
			s39.752,17.832,39.752,39.752C211.752,467.11,193.92,484.942,172,484.942z"/>
	</g>
</g>
<g>
	<g>
		<path d="M108,95.062H88c-2.208,0-4,1.792-4,4s1.792,4,4,4h20c2.208,0,4-1.792,4-4S110.208,95.062,108,95.062z"/>
	</g>
</g>
<g>
	<g>
		<path d="M195.696,441.186c-2.208,0-4,1.792-4,4c0,10.86-8.836,19.696-19.696,19.696s-19.696-8.836-19.696-19.696
			S161.14,425.49,172,425.49c2.208,0,4-1.792,4-4s-1.792-4-4-4c-15.272,0-27.696,12.424-27.696,27.696s12.424,27.696,27.696,27.696
			c15.272,0,27.696-12.424,27.696-27.696C199.696,442.978,197.904,441.186,195.696,441.186z"/>
	</g>
</g>
<g>
	<g>
		<path d="M464.248,397.434c-26.332,0-47.752,21.42-47.752,47.752s21.42,47.752,47.752,47.752c26.332,0,47.752-21.424,47.752-47.752
			S490.58,397.434,464.248,397.434z M464.248,484.942c-21.92,0-39.752-17.832-39.752-39.752s17.836-39.752,39.752-39.752
			c21.92,0,39.752,17.832,39.752,39.752C504,467.11,486.168,484.942,464.248,484.942z"/>
	</g>
</g>
<g>
	<g>
		<path d="M487.944,441.186c-2.208,0-4,1.792-4,4c0,10.86-8.836,19.696-19.696,19.696s-19.696-8.836-19.696-19.696
			s8.836-19.696,19.696-19.696c2.208,0,4-1.792,4-4s-1.792-4-4-4c-15.272,0-27.696,12.424-27.696,27.696
			s12.424,27.696,27.696,27.696c15.272,0,27.696-12.424,27.696-27.696C491.944,442.978,490.152,441.186,487.944,441.186z"/>
	</g>
</g>
<g>
	<g>
		<path d="M420,451.062H216c-2.208,0-4,1.792-4,4s1.792,4,4,4h204c2.208,0,4-1.792,4-4S422.208,451.062,420,451.062z"/>
	</g>
</g>
<g>
	<g>
		<path d="M420,431.062H216c-2.208,0-4,1.792-4,4s1.792,4,4,4h204c2.208,0,4-1.792,4-4S422.208,431.062,420,431.062z"/>
	</g>
</g>
<g>
	<g>
		<path d="M232.804,330.39c-2.028-0.88-4.388,0.064-5.256,2.092l-32.22,74.872c-0.872,2.028,0.064,4.384,2.092,5.256
			c0.516,0.224,1.052,0.328,1.58,0.328c1.548,0,3.024-0.904,3.676-2.42l32.22-74.872
			C235.768,333.618,234.832,331.262,232.804,330.39z"/>
	</g>
</g>
<g>
	<g>
		<path d="M211.032,330.394c-2.032-0.88-4.384,0.064-5.256,2.092l-28.628,66.508c-0.872,2.028,0.064,4.384,2.092,5.256
			c0.516,0.224,1.052,0.328,1.58,0.328c1.548,0,3.024-0.908,3.676-2.42l28.628-66.508
			C213.996,333.622,213.06,331.266,211.032,330.394z"/>
	</g>
</g>
<g>
	<g>
		<path d="M500,95.062H84c-6.616,0-12,5.384-12,12v4c0,6.616,5.384,12,12,12h416c6.616,0,12-5.384,12-12v-4
			C512,100.446,506.616,95.062,500,95.062z M504,111.062c0,2.204-1.796,4-4,4H84c-2.204,0-4-1.796-4-4v-4c0-2.204,1.796-4,4-4h416
			c2.204,0,4,1.796,4,4V111.062z"/>
	</g>
</g>
<g>
</g>
<g>
</g>
<g>
</g>
<g>
</g>
<g>
</g>
<g>
</g>
<g>
</g>
<g>
</g>
<g>
</g>
<g>
</g>
<g>
</g>
<g>
</g>
<g>
</g>
<g>
</g>
<g>
</g>
</svg>
