<?xml version="1.0"?>
<svg xmlns="http://www.w3.org/2000/svg" viewBox="0 0 512 512" width="512" height="512"><g id="Out_line" data-name="Out line"><path d="M405.65674,18.34277A8.00035,8.00035,0,0,0,400,16H376a8.00035,8.00035,0,0,0-5.65674,2.34277l-16,16a8.00034,8.00034,0,0,0,0,11.31446L356.686,48,344,60.686l-2.34326-2.34327a8.00182,8.00182,0,0,0-11.31348,0l-88,88a8.00041,8.00041,0,0,0,6.97217,13.54883,86.616,86.616,0,0,1,48.01129,5.70874,184.20615,184.20615,0,0,1-116.68414,96.1145l-12.80359,3.4917a87.04173,87.04173,0,0,0-69.49573,25.13623l-80,80a8.00034,8.00034,0,0,0,0,11.31446l32,32a8.00063,8.00063,0,0,0,11.31348,0L80,395.314,116.686,432,98.34326,450.34277a8.00034,8.00034,0,0,0,0,11.31446l32,32a8.00063,8.00063,0,0,0,11.31348,0l80-80a87.04021,87.04021,0,0,0,25.13745-69.49781l3.49145-12.802a184.2051,184.2051,0,0,1,96.113-116.68384,86.64725,86.64725,0,0,1,5.71021,48.011,8.00016,8.00016,0,0,0,13.54785,6.97266l88-88a8.00034,8.00034,0,0,0,0-11.31446L451.314,168,464,155.314l2.34326,2.34327a8.00063,8.00063,0,0,0,11.31348,0l16-16A8.00076,8.00076,0,0,0,496,136V112a8.00076,8.00076,0,0,0-2.34326-5.65723Zm-219.31348,360A37.25409,37.25409,0,1,1,197.25488,352,37.29779,37.29779,0,0,1,186.34326,378.34277Zm-64,11.31446a53.34121,53.34121,0,0,0,69.231,5.23095l12.7876,12.7876A71.18686,71.18686,0,0,1,104.3241,307.63818l12.78314,12.783a53.275,53.275,0,0,0,5.236,69.23609ZM74.12659,337.1875a87.89128,87.89128,0,0,0,0,29.62524L59.314,352ZM56,396.68652,35.31348,376l12.68646-12.686L68.6861,384Zm80,80L115.31348,456l12.68646-12.686L148.6861,464Zm24-24-14.81317-14.81323a86.2231,86.2231,0,0,0,29.62628,0Zm55.6759-56.3247-12.78314-12.783a53.26137,53.26137,0,0,0-74.467-74.467l-12.78754-12.7876A71.18686,71.18686,0,0,1,215.6759,396.36182Zm70.766-158.11768a200.61026,200.61026,0,0,0-47.70495,76.31421,87.01565,87.01565,0,0,0-41.296-41.29517,200.6109,200.6109,0,0,0,76.31445-47.70459,199.37841,199.37841,0,0,0,37.67505-52.37426,86.20686,86.20686,0,0,1,13.322,10.88208l3.18164,3.18164a86.17679,86.17679,0,0,1,10.88123,13.32153A199.377,199.377,0,0,0,286.44189,238.24414Zm82.71582,5.28418a102.79609,102.79609,0,0,0-29.91015-67.59473l-3.18164-3.18164a102.77455,102.77455,0,0,0-67.59473-29.90918L336,75.31348,436.686,176ZM440,156.686,355.314,72,368,59.314,452.686,144Zm40-23.99952-8,8L371.31348,40l8-8h17.373L480,115.31348Z"/><path d="M360,176a24,24,0,1,0-24-24A24.02718,24.02718,0,0,0,360,176Zm0-32a8,8,0,1,1-8,8A8.00917,8.00917,0,0,1,360,144Z"/><path d="M266.34326,317.65723,336,387.314V440a8.00076,8.00076,0,0,0,2.34326,5.65723l40,40A8.00035,8.00035,0,0,0,384,488h56a8.00035,8.00035,0,0,0,5.65674-2.34277l40-40A8.00076,8.00076,0,0,0,488,440V384a8.00076,8.00076,0,0,0-2.34326-5.65723l-40-40A8.00035,8.00035,0,0,0,440,336H387.314l-77.65722-77.65723-11.31348,11.31446L372.68652,344,344,372.68652l-66.34326-66.34375ZM387.314,352h49.37256L472,387.31348v49.373L436.68652,472h-49.373L352,436.68652V387.314Z"/><path d="M58.34326,165.65723A8.00035,8.00035,0,0,0,64,168h52.686l77.65722,77.65723,11.31348-11.31446L131.31348,160,160,131.31348l82.34326,82.34375,11.31348-11.31446L168,116.686V64a8.00076,8.00076,0,0,0-2.34326-5.65723l-40-40A8.00035,8.00035,0,0,0,120,16H64a8.0001,8.0001,0,0,0-5.65674,13.65723L104,75.31348v17.373L92.68652,104h-17.373L29.65674,58.34277A8.00038,8.00038,0,0,0,16,64v56a8.00076,8.00076,0,0,0,2.34326,5.65723ZM32,83.31348l34.34326,34.34375A8.00035,8.00035,0,0,0,72,120H96a8.00035,8.00035,0,0,0,5.65674-2.34277l16-16A8.00076,8.00076,0,0,0,120,96V72a8.00076,8.00076,0,0,0-2.34326-5.65723L83.31348,32h33.373L152,67.31348V116.686L116.686,152H67.31348L32,116.68652Z"/><path d="M378.34326,429.65723l16,16A8.00035,8.00035,0,0,0,400,448h24a8.00035,8.00035,0,0,0,5.65674-2.34277l16-16A8.00076,8.00076,0,0,0,448,424V400a8.00076,8.00076,0,0,0-2.34326-5.65723l-16-16A8.00035,8.00035,0,0,0,424,376H400a8.00035,8.00035,0,0,0-5.65674,2.34277l-16,16A8.00076,8.00076,0,0,0,376,400v24A8.00076,8.00076,0,0,0,378.34326,429.65723ZM392,403.31348,403.31348,392h17.373L432,403.31348v17.373L420.68652,432h-17.373L392,420.68652Z"/><rect x="177.99982" y="149.23045" width="16.00036" height="73.53911" transform="translate(-77.04372 186.01135) rotate(-45.00247)"/><rect x="309.99982" y="281.23045" width="16.00036" height="73.53911" transform="translate(-131.71991 318.01941) rotate(-45.00247)"/></g></svg>
