<svg height="500pt" viewBox="0 -14 500.81701 500" width="500pt" xmlns="http://www.w3.org/2000/svg"><path d="m494.8125 432.4375h-1.613281c-8.574219-.84375-15.113281-8.046875-15.125-16.664062v-92.011719c-.03125-26.332031-21.367188-47.671875-47.699219-47.703125h-68.71875v-269.648438c0-3.316406-2.6875-6-6-6-8.023438 0-12.300781 2.878906-15.734375 5.199219-2.816406 1.886719-4.671875 3.144531-9.03125 3.144531s-6.214844-1.25-9.027344-3.144531c-3.433593-2.316406-7.710937-5.195313-15.734375-5.195313-8.023437 0-12.300781 2.878907-15.734375 5.199219-2.8125 1.894531-4.667969 3.144531-9.027343 3.144531-4.355469 0-6.214844-1.25-9.027344-3.144531-3.433594-2.316406-7.707032-5.195312-15.730469-5.195312s-12.300781 2.878906-15.734375 5.199219c-2.8125 1.878906-4.667969 3.136718-9.027344 3.136718s-6.210937-1.25-9.027344-3.144531c-3.433593-2.316406-7.707031-5.195313-15.730468-5.195313-8.023438 0-12.300782 2.878907-15.730469 5.199219-2.8125 1.882813-4.671875 3.140625-9.027344 3.140625s-6.214843-1.25-9.023437-3.144531c-3.433594-2.316406-7.710938-5.195313-15.730469-5.195313-3.3125 0-6 2.6875-6 6v286.800782h-106.6875l-1.765625-11.171875c-1.867188-12.082031-12.285156-20.980469-24.511719-20.933594h-12.613281c-3.3125 0-6 2.6875-6 6s2.6875 6 6 6h12.613281c6.3125-.023437 11.695313 4.570313 12.660157 10.808594l17.902343 113.082031c1.863281 12.082031 12.285157 20.984375 24.511719 20.933594h110.65625c3.316406 0 6-2.683594 6-6 0-3.3125-2.683594-6-6-6h-110.65625c-6.316406.027344-11.695312-4.570313-12.660156-10.808594l-.882813-5.578125h108.914063c6.800781-.007813 13.300781-2.804687 17.980468-7.742187h114.660157v14.929687c.03125 26.332031 21.371093 47.671875 47.699219 47.699219h143.300781c.699219.050781 1.402343.078125 2.117187.078125 3.328125-.035157 6.007813-2.746094 6-6.078125 0-3.3125-2.6875-5.996094-6.003906-5.996094zm-331.234375-418.753906c1.046875.5625 2.054687 1.1875 3.023437 1.871094 3.433594 2.3125 7.707032 5.199218 15.730469 5.199218 8.023438 0 12.300781-2.878906 15.730469-5.195312 2.8125-1.898438 4.671875-3.144532 9.027344-3.144532 4.355468 0 6.214844 1.25 9.027344 3.144532 3.433593 2.316406 7.707031 5.195312 15.730468 5.195312 8.023438 0 12.300782-2.878906 15.734375-5.195312 2.8125-1.898438 4.667969-3.144532 9.027344-3.144532 4.355469 0 6.214844 1.25 9.027344 3.144532 3.433593 2.316406 7.707031 5.195312 15.730469 5.195312 8.023437 0 12.300781-2.878906 15.734374-5.195312 2.8125-1.898438 4.667969-3.144532 9.027344-3.144532s6.214844 1.25 9.027344 3.144532c3.4375 2.316406 7.710938 5.195312 15.734375 5.195312s12.300781-2.878906 15.738281-5.195312c.96875-.683594 1.980469-1.308594 3.027344-1.871094v262.371094h-77.398438c-.121093 0-.242187 0-.359374.011718-.3125-.007812-.632813-.011718-.949219-.011718-23.597657.027344-42.71875 19.152344-42.746094 42.75v18.765625c.003906 3.789062-.660156 7.550781-1.960937 11.109375-4.472657 12.21875-16.542969 20.425781-30.039063 20.425781h-2.589844l20.007813-68.214844c.535156-1.816406.179687-3.773437-.953125-5.285156-1.132813-1.515625-2.914063-2.40625-4.804688-2.40625h-44.285156zm5.480469 363.863281h-110.8125l-11.453125-72.34375h153.058593l-18.726562 63.851563c-1.828125 5.09375-6.65625 8.488281-12.066406 8.492187zm56.867187-7.742187c5.199219-4.625 9.179688-10.464844 11.585938-17 1.785156-4.878907 2.695312-10.035157 2.6875-15.234376v-18.761718c0-16.980469 13.769531-30.75 30.75-30.75 16.984375 0 30.75 13.769531 30.75 30.75v51zm123.476563 62.632812c-19.707032-.023438-35.679688-15.992188-35.703125-35.699219v-77.929687c.007812-11.601563-4.714844-22.707032-13.078125-30.75h129.75c19.707031.023437 35.679687 15.992187 35.703125 35.699218v92.015626c-.007813 5.976562 1.855469 11.804687 5.332031 16.664062zm0 0"/><path d="m217.40625 87.296875h103.613281c3.3125 0 6-2.6875 6-6s-2.6875-6-6-6h-103.613281c-3.3125 0-6 2.6875-6 6s2.6875 6 6 6zm0 0"/><path d="m197.378906 75.296875h-5.164062c-3.316406 0-6 2.6875-6 6s2.683594 6 6 6h5.164062c3.3125 0 6-2.6875 6-6s-2.6875-6-6-6zm0 0"/><path d="m217.40625 127.195312h103.613281c3.3125 0 6-2.6875 6-6 0-3.316406-2.6875-6-6-6h-103.613281c-3.3125 0-6 2.683594-6 6 0 3.3125 2.6875 6 6 6zm0 0"/><path d="m197.378906 115.195312h-5.164062c-3.316406 0-6 2.683594-6 6 0 3.3125 2.683594 6 6 6h5.164062c3.3125 0 6-2.6875 6-6 0-3.316406-2.6875-6-6-6zm0 0"/><path d="m217.40625 167.089844h103.613281c3.3125 0 6-2.6875 6-6s-2.6875-6-6-6h-103.613281c-3.3125 0-6 2.6875-6 6s2.6875 6 6 6zm0 0"/><path d="m197.378906 155.089844h-5.164062c-3.316406 0-6 2.6875-6 6s2.683594 6 6 6h5.164062c3.3125 0 6-2.6875 6-6s-2.6875-6-6-6zm0 0"/><path d="m217.40625 206.988281h103.613281c3.3125 0 6-2.6875 6-6 0-3.316406-2.6875-6-6-6h-103.613281c-3.3125 0-6 2.683594-6 6 0 3.3125 2.6875 6 6 6zm0 0"/><path d="m197.378906 194.988281h-5.164062c-3.316406 0-6 2.683594-6 6 0 3.3125 2.683594 6 6 6h5.164062c3.3125 0 6-2.6875 6-6 0-3.316406-2.6875-6-6-6zm0 0"/><path d="m217.40625 242.277344h103.613281c3.3125 0 6-2.6875 6-6s-2.6875-6-6-6h-103.613281c-3.3125 0-6 2.6875-6 6s2.6875 6 6 6zm0 0"/><path d="m197.378906 230.277344h-5.164062c-3.316406 0-6 2.6875-6 6s2.683594 6 6 6h5.164062c3.3125 0 6-2.6875 6-6s-2.6875-6-6-6zm0 0"/><path d="m358.433594 331.207031c5.582031.007813 10.105468 4.53125 10.113281 10.113281 0 3.3125 2.683594 6 6 6 3.3125 0 6-2.6875 6-6-.015625-9.894531-6.59375-18.582031-16.113281-21.277343v-3.6875c0-3.316407-2.6875-6-6-6-3.316406 0-6 2.683593-6 6v3.6875c-10.628906 2.996093-17.417969 13.371093-15.902344 24.308593 1.511719 10.9375 10.859375 19.082032 21.902344 19.082032 5.582031-.03125 10.132812 4.46875 10.167968 10.054687.03125 5.582031-4.46875 10.136719-10.050781 10.167969-.039062 0-.078125 0-.117187 0-.039063 0-.078125 0-.117188 0-5.535156-.066406-9.992187-4.570312-10-10.109375 0-3.3125-2.6875-6-6-6s-6 2.6875-6 6c.011719 9.898437 6.589844 18.585937 16.113282 21.28125v4.421875c0 3.3125 2.6875 6 6 6s6-2.6875 6-6v-4.421875c10.628906-2.996094 17.417968-13.371094 15.90625-24.3125-1.511719-10.9375-10.863282-19.082031-21.90625-19.082031-5.585938 0-10.113282-4.527344-10.113282-10.113282 0-5.585937 4.527344-10.113281 10.113282-10.113281zm0 0"/><path d="m433.929688 384.039062h-26.683594c-3.3125 0-6 2.683594-6 6 0 3.3125 2.6875 6 6 6h26.683594c3.3125 0 6-2.6875 6-6 0-3.316406-2.6875-6-6-6zm0 0"/><path d="m433.929688 351.800781h-26.683594c-3.3125 0-6 2.6875-6 6s2.6875 6 6 6h26.683594c3.3125 0 6-2.6875 6-6s-2.6875-6-6-6zm0 0"/><path d="m433.929688 319.566406h-26.683594c-3.3125 0-6 2.683594-6 6 0 3.3125 2.6875 6 6 6h26.683594c3.3125 0 6-2.6875 6-6 0-3.316406-2.6875-6-6-6zm0 0"/><path d="m78.632812 473.101562c12.8125 0 23.199219-10.386718 23.199219-23.199218 0-12.816406-10.386719-23.203125-23.199219-23.203125s-23.199218 10.386719-23.199218 23.203125c.011718 12.804687 10.390625 23.183594 23.199218 23.199218zm0-34.402343c6.1875 0 11.199219 5.015625 11.199219 11.203125 0 6.183594-5.011719 11.199218-11.199219 11.199218-6.183593 0-11.199218-5.015624-11.199218-11.199218.007812-6.183594 5.015625-11.191406 11.199218-11.199219zm0 0"/><path d="m156.046875 473.101562c12.8125 0 23.199219-10.386718 23.199219-23.199218 0-12.816406-10.386719-23.203125-23.199219-23.203125s-23.199219 10.386719-23.199219 23.203125c.011719 12.804687 10.390625 23.183594 23.199219 23.199218zm0-34.402343c6.183594 0 11.199219 5.015625 11.199219 11.203125 0 6.183594-5.015625 11.199218-11.199219 11.199218-6.1875 0-11.199219-5.015624-11.199219-11.199218.007813-6.183594 5.015625-11.191406 11.199219-11.199219zm0 0"/></svg>