<?xml version="1.0" encoding="iso-8859-1"?>
<!-- Generator: Adobe Illustrator 19.0.0, SVG Export Plug-In . SVG Version: 6.00 Build 0)  -->
<svg version="1.1" id="Layer_1" xmlns="http://www.w3.org/2000/svg" xmlns:xlink="http://www.w3.org/1999/xlink" x="0px" y="0px"
	 viewBox="0 0 512 512" style="enable-background:new 0 0 512 512;" xml:space="preserve">
<g>
	<g>
		<path d="M394,156.224c-7.72,0-14,6.244-14,13.92v136.16c0,7.672,6.28,13.916,14,13.916c7.72,0,14-6.244,14-13.916v-136.16
			C408,162.472,401.72,156.224,394,156.224z M400,306.3c0,3.26-2.692,5.916-6,5.916c-3.308,0-6-2.652-6-5.916V170.14
			c0-3.264,2.692-5.92,6-5.92c3.308,0,6,2.656,6,5.92V306.3z"/>
	</g>
</g>
<g>
	<g>
		<path d="M450,156.224c-7.72,0-14,6.244-14,13.92v136.16c0,7.672,6.28,13.916,14,13.916c7.72,0,14-6.244,14-13.916v-136.16
			C464,162.472,457.72,156.224,450,156.224z M456,306.3c0,3.26-2.692,5.916-6,5.916c-3.308,0-6-2.652-6-5.916V170.14
			c0-3.264,2.692-5.92,6-5.92c3.308,0,6,2.656,6,5.92V306.3z"/>
	</g>
</g>
<g>
	<g>
		<path d="M338,156.224c-7.72,0-14,6.244-14,13.92v136.16c0,7.672,6.28,13.916,14,13.916c7.72,0,14-6.244,14-13.916v-136.16
			C352,162.472,345.72,156.224,338,156.224z M344,306.3c0,3.26-2.692,5.916-6,5.916c-3.308,0-6-2.652-6-5.916V170.14
			c0-3.264,2.692-5.92,6-5.92c3.308,0,6,2.656,6,5.92V306.3z"/>
	</g>
</g>
<g>
	<g>
		<path d="M282,156.224c-7.72,0-14,6.244-14,13.92v136.16c0,7.672,6.28,13.916,14,13.916c7.72,0,14-6.244,14-13.916v-136.16
			C296,162.472,289.72,156.224,282,156.224z M288,306.3c0,3.26-2.692,5.916-6,5.916c-3.308,0-6-2.652-6-5.916V170.14
			c0-3.264,2.692-5.92,6-5.92c3.308,0,6,2.656,6,5.92V306.3z"/>
	</g>
</g>
<g>
	<g>
		<path d="M226,156.224c-7.72,0-14,6.244-14,13.92v136.16c0,7.672,6.28,13.916,14,13.916c7.72,0,14-6.244,14-13.916v-136.16
			C240,162.472,233.72,156.224,226,156.224z M232,306.3c0,3.26-2.692,5.916-6,5.916s-6-2.652-6-5.916V170.14
			c0-3.264,2.692-5.92,6-5.92s6,2.656,6,5.92V306.3z"/>
	</g>
</g>
<g>
	<g>
		<path d="M170,156.224c-7.72,0-14,6.244-14,13.92v44.16c0,7.672,6.28,13.916,14,13.916c7.72,0,14-6.244,14-13.916v-44.16
			C184,162.472,177.72,156.224,170,156.224z M176,214.3c0,3.26-2.692,5.916-6,5.916s-6-2.652-6-5.916v-44.16
			c0-3.264,2.692-5.92,6-5.92s6,2.656,6,5.92V214.3z"/>
	</g>
</g>
<g>
	<g>
		<path d="M112.044,110.624L91.4,63.1c-9.424-20.904-24.652-31.068-46.564-31.068H4c-2.212,0-4,1.792-4,4v20c0,2.208,1.788,4,4,4
			h40.248c12.456,0,14.68,4.628,18.72,13.036l17.656,40.696c0.876,2.024,3.232,2.96,5.26,2.08c2.028-0.88,2.96-3.236,2.084-5.26
			l-17.556-40.5L70.176,69.6c-4.152-8.64-8.448-17.568-25.928-17.568H8v-12h36.836c18.688,0,31.164,8.376,39.248,26.304
			l20.624,47.476c0.652,1.508,2.124,2.408,3.672,2.408c0.532,0,1.068-0.104,1.588-0.336
			C111.996,115.008,112.928,112.648,112.044,110.624z"/>
	</g>
</g>
<g>
	<g>
		<path d="M500,128.032c-2.212,0-4,1.792-4,4V328.22c0,6.512-5.384,11.812-12,11.812H200.968c-7.08,0-15.828-5.828-18.716-12.46
			l-84.6-195.08c-0.872-2.024-3.224-2.96-5.256-2.08c-2.028,0.876-2.96,3.232-2.08,5.26l84.6,195.08
			c4.212,9.692,15.656,17.28,26.052,17.28H484c11.028,0,20-8.888,20-19.812V132.032C504,129.824,502.212,128.032,500,128.032z"/>
	</g>
</g>
<g>
	<g>
		<path d="M172,412.468c-26.328,0-47.752,21.416-47.752,47.748s21.424,47.752,47.752,47.752s47.752-21.416,47.752-47.748
			S198.328,412.468,172,412.468z M172,499.972c-21.92,0-39.752-17.832-39.752-39.752s17.836-39.752,39.752-39.752
			s39.752,17.832,39.752,39.752C211.752,482.14,193.92,499.972,172,499.972z"/>
	</g>
</g>
<g>
	<g>
		<path d="M108,108.032H88c-2.212,0-4,1.792-4,4s1.788,4,4,4h20c2.212,0,4-1.792,4-4S110.212,108.032,108,108.032z"/>
	</g>
</g>
<g>
	<g>
		<path d="M195.696,456.22c-2.212,0-4,1.792-4,4c0,10.86-8.836,19.696-19.696,19.696s-19.696-8.836-19.696-19.696
			s8.836-19.696,19.696-19.696c2.212,0,4-1.792,4-4s-1.788-4-4-4c-15.272,0-27.696,12.424-27.696,27.696
			c0,15.272,12.428,27.696,27.696,27.696s27.696-12.424,27.696-27.696C199.696,458.012,197.908,456.22,195.696,456.22z"/>
	</g>
</g>
<g>
	<g>
		<path d="M464.248,412.464c-26.332,0-47.752,21.42-47.752,47.752s21.424,47.752,47.752,47.752
			c26.332,0,47.752-21.416,47.752-47.748C512,433.888,490.58,412.464,464.248,412.464z M464.248,499.972
			c-21.92,0-39.752-17.832-39.752-39.752s17.836-39.752,39.752-39.752c21.92,0,39.752,17.832,39.752,39.752
			C504,482.14,486.168,499.972,464.248,499.972z"/>
	</g>
</g>
<g>
	<g>
		<path d="M487.944,456.22c-2.212,0-4,1.792-4,4c0,10.86-8.836,19.696-19.696,19.696s-19.696-8.836-19.696-19.696
			s8.836-19.696,19.696-19.696c2.212,0,4-1.792,4-4s-1.788-4-4-4c-15.272,0-27.696,12.424-27.696,27.696
			c0,15.272,12.428,27.696,27.696,27.696c15.272,0,27.696-12.424,27.696-27.696C491.944,458.012,490.156,456.22,487.944,456.22z"/>
	</g>
</g>
<g>
	<g>
		<path d="M420,464.032H216c-2.212,0-4,1.792-4,4s1.788,4,4,4h204c2.212,0,4-1.792,4-4S422.212,464.032,420,464.032z"/>
	</g>
</g>
<g>
	<g>
		<path d="M420,444.032H216c-2.212,0-4,1.792-4,4s1.788,4,4,4h204c2.212,0,4-1.792,4-4S422.212,444.032,420,444.032z"/>
	</g>
</g>
<g>
	<g>
		<path d="M234.9,340.544c-2.016-0.876-4.38,0.06-5.256,2.092l-34.32,79.752c-0.872,2.028,0.064,4.384,2.092,5.256
			c0.516,0.224,1.052,0.328,1.584,0.328c1.548,0,3.024-0.908,3.672-2.42l34.32-79.752
			C237.864,343.772,236.928,341.416,234.9,340.544z"/>
	</g>
</g>
<g>
	<g>
		<path d="M213.128,340.544c-2.016-0.876-4.38,0.06-5.256,2.092l-30.728,71.392c-0.872,2.028,0.064,4.384,2.092,5.256
			c0.516,0.224,1.052,0.328,1.584,0.328c1.548,0,3.024-0.908,3.672-2.42L215.22,345.8
			C216.092,343.772,215.156,341.416,213.128,340.544z"/>
	</g>
</g>
<g>
	<g>
		<path d="M500,108.032H84c-6.616,0-12,5.384-12,12v4c0,6.616,5.384,12,12,12h416c6.616,0,12-5.384,12-12v-4
			C512,113.416,506.616,108.032,500,108.032z M504,124.032c0,2.204-1.792,4-4,4H84c-2.208,0-4-1.796-4-4v-4c0-2.204,1.792-4,4-4h416
			c2.208,0,4,1.796,4,4V124.032z"/>
	</g>
</g>
<g>
	<g>
		<path d="M400.168,4.032h-208C181.236,4.032,172,13.276,172,24.22v15.812c0,2.208,1.788,4,4,4c2.212,0,4-1.792,4-4V24.22
			c0-6.604,5.572-12.188,12.168-12.188h208C406.692,12.032,412,17.5,412,24.22v87.812c0,2.208,1.788,4,4,4c2.212,0,4-1.792,4-4
			V24.22C420,13.088,411.1,4.032,400.168,4.032z"/>
	</g>
</g>
<g>
	<g>
		<path d="M468.16,52.032H416c-2.212,0-4,1.792-4,4s1.788,4,4,4h52.16c6.528,0,11.84,5.468,11.84,12.188v39.812c0,2.208,1.788,4,4,4
			c2.212,0,4-1.792,4-4V72.22C488,61.088,479.1,52.032,468.16,52.032z"/>
	</g>
</g>
<g>
	<g>
		<path d="M328.192,36.032H160.188c-10.94,0-20.188,9.244-20.188,20.188v55.812c0,2.208,1.788,4,4,4c2.212,0,4-1.792,4-4V56.22
			c0-6.604,5.584-12.188,12.188-12.188h168.004C334.704,44.032,340,49.5,340,56.22v55.812c0,2.208,1.788,4,4,4c2.212,0,4-1.792,4-4
			V56.22C348,45.088,339.112,36.032,328.192,36.032z"/>
	</g>
</g>
<g>
</g>
<g>
</g>
<g>
</g>
<g>
</g>
<g>
</g>
<g>
</g>
<g>
</g>
<g>
</g>
<g>
</g>
<g>
</g>
<g>
</g>
<g>
</g>
<g>
</g>
<g>
</g>
<g>
</g>
</svg>
