<svg id="Layer_3" enable-background="new 0 0 64 64" height="512" viewBox="0 0 64 64" width="512" xmlns="http://www.w3.org/2000/svg"><path d="m62.275 22.039-13.639-3.897-8.432-13.032c-1.665-2.573-4.49-4.11-7.556-4.11h-16.291c-3.661 0-6.927 2.188-8.322 5.573l-4.705 11.427h-2.33v2h3c.405 0 .771-.245.925-.619l4.96-12.046c1.084-2.633 3.625-4.335 6.472-4.335h16.291c2.385 0 4.582 1.195 5.877 3.197l8.636 13.346c.131.203.332.352.564.418l9.275 2.651v5.388c0 .552.448 1 1 1h3v6h-4.059c-.5-4.493-4.317-8-8.941-8-4.962 0-9 4.038-9 9s4.038 9 9 9c4.624 0 8.441-3.507 8.941-8h5.059c.552 0 1-.448 1-1v-13c0-.446-.296-.839-.725-.961zm-14.275 20.961c-3.86 0-7-3.14-7-7s3.14-7 7-7 7 3.14 7 7-3.14 7-7 7zm11-16v-3.817l2 .571v3.246z"/><path d="m48 31c-2.757 0-5 2.243-5 5s2.243 5 5 5 5-2.243 5-5-2.243-5-5-5zm0 8c-1.654 0-3-1.346-3-3s1.346-3 3-3 3 1.346 3 3-1.346 3-3 3z"/><path d="m42.873 19.488c.177-.316.168-.703-.021-1.012l-6.829-11.096c-.903-1.468-2.535-2.38-4.258-2.38h-15.018c-2.054 0-3.929 1.288-4.667 3.205l-4.014 10.436c-.118.308-.077.653.109.925.187.272.495.434.825.434h33c.362 0 .696-.196.873-.512zm-28.926-10.565c.443-1.15 1.568-1.923 2.8-1.923h7.253v11h-13.544zm12.053 9.077v-11h5.765c1.034 0 2.013.547 2.555 1.428l5.89 9.572z"/><path d="m24 22h4v2h-4z"/><path d="m8 22h4v2h-4z"/><path d="m62 48c-2.206 0-4-1.794-4-4 0-.552-.448-1-1-1s-1 .448-1 1c0 2.206-1.794 4-4 4-.552 0-1 .448-1 1s.448 1 1 1c2.206 0 4 1.794 4 4 0 .552.448 1 1 1s1-.448 1-1c0-2.206 1.794-4 4-4 .552 0 1-.448 1-1s-.448-1-1-1zm-5 2.687c-.444-.668-1.019-1.242-1.687-1.687.668-.444 1.242-1.019 1.687-1.687.444.668 1.019 1.242 1.687 1.687-.668.444-1.243 1.019-1.687 1.687z"/><path d="m52 8c2.206 0 4 1.794 4 4 0 .552.448 1 1 1s1-.448 1-1c0-2.206 1.794-4 4-4 .552 0 1-.448 1-1s-.448-1-1-1c-2.206 0-4-1.794-4-4 0-.552-.448-1-1-1s-1 .448-1 1c0 2.206-1.794 4-4 4-.552 0-1 .448-1 1s.448 1 1 1zm5-2.687c.444.668 1.019 1.243 1.687 1.687-.668.444-1.243 1.019-1.687 1.687-.444-.668-1.019-1.243-1.687-1.687.668-.444 1.243-1.019 1.687-1.687z"/><path d="m37 42v-2c0-.552-.448-1-1-1h-3c2.206 0 4-1.794 4-4s-1.794-4-4-4c-.437 0-.863.082-1.27.219-.76-2.442-3.041-4.219-5.73-4.219-.582 0-1.142.087-1.675.242-1.014-1.972-3.039-3.242-5.325-3.242-2.316 0-4.325 1.321-5.325 3.247-.541-.158-1.099-.247-1.675-.247-2.691 0-4.973 1.781-5.732 4.225-.401-.135-.822-.225-1.268-.225-2.206 0-4 1.794-4 4s1.794 4 4 4h-3c-.552 0-1 .448-1 1v2c0 5.065 2.918 9.451 7.154 11.596l.85 8.504c.052.511.482.9.996.9h18c.514 0 .944-.389.995-.9l.85-8.504c4.237-2.145 7.155-6.531 7.155-11.596zm-2-1v1c0 3.814-1.953 7.179-4.91 9.153l.815-8.153h1.095c.552 0 1-.448 1-1v-1zm-11 10h-10c-.552 0-1 .448-1 1v.949c-1.039-.094-2.034-.338-2.97-.702l-.925-9.247h19.79l-.925 9.247c-.936.364-1.931.608-2.97.702v-.949c0-.552-.448-1-1-1zm-1 2v2h-8v-2zm-16-14h24v2h-24zm-4-4c0-1.103.897-2 2-2s2 .897 2 2h2c0-.974-.364-1.856-.944-2.55.271-1.944 1.927-3.45 3.944-3.45.367 0 .721.063 1.066.159-.039.276-.066.555-.066.841 0 1.31.415 2.555 1.2 3.601l1.6-1.201c-.524-.696-.8-1.526-.8-2.4 0-2.206 1.794-4 4-4 1.507 0 2.841.829 3.525 2.118-1.526 1.089-2.525 2.869-2.525 4.882h2c0-2.206 1.794-4 4-4s4 1.794 4 4c0 .557-.112 1.095-.333 1.6l1.833.801c.294-.674.452-1.387.485-2.122.306-.18.655-.279 1.015-.279 1.103 0 2 .897 2 2s-.897 2-2 2h-1-1-24-1-1c-1.103 0-2-.897-2-2zm0 7v-1h2v1c0 .552.448 1 1 1h1.095l.815 8.153c-2.957-1.974-4.91-5.339-4.91-9.153zm24.095 19h-16.19l-.656-6.557c.881.266 1.802.433 2.751.506v1.051c0 .552.448 1 1 1h10c.552 0 1-.448 1-1v-1.051c.948-.073 1.87-.24 2.751-.506z"/><path d="m60 57h-6c-.551 0-1-.449-1-1 0-1.654-1.346-3-3-3h-14c-1.654 0-3 1.346-3 3s1.346 3 3 3h6c.551 0 1 .449 1 1 0 1.654 1.346 3 3 3h14c1.654 0 3-1.346 3-3s-1.346-3-3-3zm0 4h-14c-.551 0-1-.449-1-1 0-1.654-1.346-3-3-3h-6c-.551 0-1-.449-1-1s.449-1 1-1h14c.551 0 1 .449 1 1 0 1.654 1.346 3 3 3h6c.551 0 1 .449 1 1s-.449 1-1 1z"/></svg>