<svg id="Layer_5" enable-background="new 0 0 64 64" height="512" viewBox="0 0 64 64" width="512" xmlns="http://www.w3.org/2000/svg"><g><path d="m58 1h-28c-2.757 0-5 2.243-5 5v17h-19c-2.757 0-5 2.243-5 5s2.243 5 5 5h19v25c0 2.757 2.243 5 5 5h28c2.757 0 5-2.243 5-5v-52c0-2.757-2.243-5-5-5zm3 29.816c-1.161-.414-2-1.514-2-2.816s.839-2.402 2-2.816zm0-11.757c-4.493.5-8 4.317-8 8.941 0 2.018.659 3.929 1.906 5.526l1.576-1.23c-.969-1.243-1.482-2.729-1.482-4.296 0-3.519 2.614-6.432 6-6.92v2.021c-2.279.465-4 2.484-4 4.899s1.721 4.434 4 4.899v2.019c-1.195-.172-2.321-.64-3.296-1.4l-1.23 1.577c1.331 1.038 2.881 1.662 4.526 1.844v4.061h-1.223l-.598-2.354-.528-.169c-.557-.178-1.124-.415-1.686-.704l-.493-.253-2.094 1.245-3.143-3.143 1.246-2.096-.256-.493c-.288-.558-.525-1.124-.704-1.683l-.168-.528-2.353-.599v-4.445l2.354-.599.168-.528c.179-.558.416-1.125.705-1.683l.255-.493-1.246-2.095 3.143-3.143 2.095 1.246.492-.254c.56-.289 1.126-.525 1.686-.704l.528-.169.597-2.356h1.223zm-31-16.059h28c1.654 0 3 1.346 3 3v3h-34v-3c0-1.654 1.346-3 3-3zm-27 25c0-1.654 1.346-3 3-3h22.074c1.422 0 2.771-.601 3.7-1.648 1.329-1.495 3.234-2.352 5.226-2.352 1.878 0 3.656.738 4.96 2h-1.96c-1.565 0-3.061.748-4 2-1.324 1.767-1.324 4.233 0 6 .939 1.252 2.435 2 4 2h1.96c-1.304 1.262-3.082 2-4.96 2-1.992 0-3.897-.857-5.225-2.352-.93-1.047-2.279-1.648-3.701-1.648h-22.074c-1.654 0-3-1.346-3-3zm55 33h-28c-1.654 0-3-1.346-3-3v-2.026c.838.635 1.87 1.026 3 1.026h28c1.13 0 2.162-.391 3-1.026v2.026c0 1.654-1.346 3-3 3zm0-6h-28c-1.654 0-3-1.346-3-3v-19h1.074c.851 0 1.654.356 2.206.977 1.707 1.921 4.157 3.023 6.72 3.023 3.244 0 6.258-1.724 7.865-4.499l.87-1.501h-5.735c-.939 0-1.836-.449-2.4-1.2-.794-1.06-.794-2.54 0-3.6.564-.751 1.461-1.2 2.4-1.2h5.735l-.87-1.501c-1.607-2.775-4.621-4.499-7.865-4.499-2.563 0-5.013 1.102-6.721 3.023-.55.621-1.354.977-2.205.977h-1.074v-12h34v2h-2.777l-.713 2.802c-.318.119-.639.252-.956.4l-2.489-1.48-5.342 5.342 1.479 2.489c-.147.318-.281.637-.4.957l-2.802.713v7.555l2.802.713c.119.319.253.639.4.956l-1.479 2.489 5.342 5.342 2.489-1.48c.318.148.638.282.956.4l.713 2.802h2.777v9c0 1.654-1.346 3-3 3z"/><path d="m43 5h6v2h-6z"/><path d="m39 5h2v2h-2z"/><path d="m33.586 47h-.586c-1.103 0-2 .897-2 2v2c0 1.103.897 2 2 2h.586c.526 0 1.042-.213 1.414-.586l2.414-2.414-2.414-2.414c-.372-.373-.888-.586-1.414-.586zm0 4h-.586v-2h.586l1 1z"/><path d="m45 47h-2c-1.103 0-2 .897-2 2v2c0 1.103.897 2 2 2h2c1.103 0 2-.897 2-2v-2c0-1.103-.897-2-2-2zm-2 4v-2h2l.001 2z"/><path d="m55 47h-.586c-.526 0-1.042.213-1.414.586l-2.414 2.414 2.414 2.414c.372.373.888.586 1.414.586h.586c1.103 0 2-.897 2-2v-2c0-1.103-.897-2-2-2zm-.586 4-1-1 1-1h.586l.001 2z"/><circle cx="6" cy="28" r="1"/><path d="m29 39h2v2h-2z"/><path d="m33 39h17v2h-17z"/><path d="m29 43h21v2h-21z"/><path d="m33 13h2v2h-2z"/><path d="m37 13h2v2h-2z"/><path d="m29 13h2v2h-2z"/></g></svg>