<?xml version="1.0"?>
<svg xmlns="http://www.w3.org/2000/svg" id="Layer_1" data-name="Layer 1" viewBox="0 0 512 512" width="512" height="512"><title>cart location map</title><path d="M250.48,434.349a38.47,38.47,0,1,0-38.469,38.47A38.513,38.513,0,0,0,250.48,434.349Zm-64.94,0a26.47,26.47,0,1,1,26.471,26.47A26.5,26.5,0,0,1,185.54,434.349Z"/><path d="M358.167,472.819a38.47,38.47,0,1,0-38.471-38.47A38.514,38.514,0,0,0,358.167,472.819Zm0-64.94a26.47,26.47,0,1,1-26.471,26.47A26.5,26.5,0,0,1,358.167,407.879Z"/><path d="M456,143.832H353.433l4.589-6.634a61.307,61.307,0,0,0-8.468-79.622c-25.677-24.457-67.453-24.456-93.128,0a61.307,61.307,0,0,0-8.469,79.622l4.59,6.634H143.758l-4.051-25.585A41.33,41.33,0,0,0,98.7,83.218H56a6,6,0,0,0,0,12H98.7a29.386,29.386,0,0,1,29.16,24.906l33.8,213.515a41.33,41.33,0,0,0,41.012,35.028H411.6a6,6,0,0,0,0-12H202.672a29.387,29.387,0,0,1-29.16-24.9L167.581,294.3H382.736a41.547,41.547,0,0,0,39.234-27.93l39.7-114.577A6,6,0,0,0,456,143.832ZM264.7,66.266a56.132,56.132,0,0,1,76.573,0,49.361,49.361,0,0,1,6.877,64.1l-45.164,65.28-45.163-65.28A49.363,49.363,0,0,1,264.7,66.266ZM410.632,262.445a29.542,29.542,0,0,1-27.9,19.858H165.682L145.657,155.832H260.849l37.206,53.778a6,6,0,0,0,9.869,0l37.207-53.778h102.44Z"/><path d="M302.989,138.223A36.087,36.087,0,1,0,266.9,102.136,36.128,36.128,0,0,0,302.989,138.223Zm0-60.174A24.087,24.087,0,1,1,278.9,102.136,24.115,24.115,0,0,1,302.989,78.049Z"/></svg>
