<?xml version="1.0" encoding="iso-8859-1"?>
<!-- Generator: Adobe Illustrator 19.0.0, SVG Export Plug-In . SVG Version: 6.00 Build 0)  -->
<svg version="1.1" id="Capa_1" xmlns="http://www.w3.org/2000/svg" xmlns:xlink="http://www.w3.org/1999/xlink" x="0px" y="0px"
	 viewBox="0 0 512.009 512.009" style="enable-background:new 0 0 512.009 512.009;" xml:space="preserve">
<g>
	<g>
		<g>
			<path d="M290.134,0h-256C15.291,0.019,0.02,15.29,0.001,34.133v443.733C0.02,496.71,15.291,511.981,34.134,512h256
				c18.844-0.019,34.115-15.29,34.133-34.133V34.133C324.249,15.29,308.978,0.019,290.134,0z M307.201,477.867
				c-0.012,9.421-7.646,17.054-17.067,17.067h-256c-9.421-0.012-17.054-7.646-17.067-17.067V34.133
				c0.012-9.421,7.646-17.054,17.067-17.067h256c9.421,0.012,17.054,7.646,17.067,17.067V477.867z"/>
			<path d="M273.067,34.133h-34.133c-9.421,0.012-17.054,7.646-17.067,17.067v17.067H102.401V51.2
				c-0.012-9.421-7.646-17.054-17.067-17.067H51.201C41.78,34.146,34.146,41.779,34.134,51.2v409.6
				c0.012,9.421,7.646,17.054,17.067,17.067h221.867c9.421-0.012,17.054-7.646,17.067-17.067V51.2
				C290.122,41.779,282.488,34.146,273.067,34.133z M51.201,51.2h34.133v17.067c0.012,9.421,7.646,17.054,17.067,17.067h46.339
				l11.603,36.292l-13.5,42.225c-0.586,1.826-0.539,3.796,0.133,5.592l13.575,36.317l-3.52,25.15l-13.18-21.967
				c-1.007-1.677-2.561-2.957-4.4-3.625l-34.717-12.642l-21.575-34.183c-0.512-0.805-1.154-1.52-1.9-2.116l-30.058-23.953V51.2z
				 M51.201,154.247l18.292,14.578l22.367,35.433c1.011,1.597,2.524,2.813,4.3,3.458l34.617,12.6l14.616,24.363l-11.741-1.879
				c-1.321-0.228-2.678-0.124-3.95,0.3l-27.25,8.717L75.159,243.1c-1.69-0.55-3.51-0.55-5.2,0l-18.758,5.994V154.247z
				 M51.201,267.005l21.358-6.822l27.292,8.717c1.69,0.55,3.51,0.55,5.2,0l27.908-8.925l11.595,1.854l-21.754,22.354
				c-0.569,0.587-1.052,1.252-1.434,1.975l-16.575,31.458L65.817,334.35c-1.584,0.683-2.926,1.827-3.85,3.283l-10.767,17.052
				V267.005z M147.375,460.8H51.201v-75.237c0.81-0.592,1.507-1.324,2.058-2.163l21.725-34.408l39.317-16.883
				c1.796-0.772,3.272-2.137,4.183-3.867l17.408-33.042l17.709-18.196v31.029l-16.658,52.092c-0.665,2.076-0.51,4.327,0.433,6.292
				l24.125,50.267L147.375,460.8z M273.067,460.8H165.292l13.5-42.15c0.665-2.076,0.51-4.327-0.433-6.292l-24.133-50.267
				l16.033-50.125c0.273-0.84,0.41-1.717,0.408-2.6v-35.653l18.292,14.578l22.367,35.433c0.678,1.075,1.589,1.984,2.667,2.658
				l34.967,22.05l22.05,34.958c0.551,0.84,1.248,1.575,2.058,2.169V460.8z M273.067,354.675L262.359,337.7
				c-0.678-1.078-1.589-1.989-2.667-2.667l-34.967-22.059l-22.1-35.017c-0.512-0.805-1.154-1.52-1.9-2.116l-18.15-14.464
				l8.792-1.403l27.95,8.925c1.69,0.55,3.51,0.55,5.2,0l27.25-8.717l21.3,6.818V354.675z M273.067,249.085l-18.7-5.985
				c-1.69-0.55-3.51-0.55-5.2,0l-27.25,8.717l-27.292-8.717c-1.273-0.419-2.628-0.522-3.95-0.3l-3.897,0.623l30.772-30.773
				l23.083-4.7c3.198-0.647,5.746-3.065,6.558-6.225l8.525-32.992l17.35-9.366V249.085z M273.067,139.977l-28.733,15.506
				c-2.091,1.126-3.617,3.075-4.208,5.375l-8.117,31.433l-20.375,4.15c-1.641,0.333-3.148,1.141-4.333,2.325l-33.185,33.185
				l3.635-25.969c0.2-1.408,0.042-2.844-0.458-4.175l-13.3-35.575l13.433-42.008c0.542-1.691,0.542-3.509,0-5.2l-10.773-33.692
				h55.215c9.421-0.012,17.054-7.646,17.067-17.067V51.2h34.133V139.977z"/>
			<path d="M136.534,51.2c0.542-0.016,1.083-0.073,1.617-0.171c0.566-0.082,1.115-0.255,1.625-0.513
				c0.543-0.188,1.059-0.447,1.533-0.771c0.425-0.338,0.858-0.679,1.284-1.021c3.3-3.365,3.3-8.752,0-12.117
				c-0.425-0.341-0.858-0.683-1.283-1.025c-0.474-0.324-0.99-0.583-1.533-0.771c-0.51-0.258-1.059-0.43-1.625-0.509
				c-1.093-0.258-2.232-0.258-3.325,0c-0.534,0.091-1.051,0.263-1.533,0.508c-0.546,0.187-1.064,0.447-1.542,0.771l-1.275,1.025
				c-3.3,3.365-3.3,8.752,0,12.117C132.102,50.297,134.272,51.184,136.534,51.2z"/>
			<path d="M170.667,51.2h17.067c4.713,0,8.533-3.82,8.533-8.533s-3.82-8.533-8.533-8.533h-17.067c-4.713,0-8.533,3.82-8.533,8.533
				S165.955,51.2,170.667,51.2z"/>
			<path d="M498.143,299.217c8.024-1.544,13.832-8.554,13.858-16.725v-17.958c-0.015-14.132-11.468-25.585-25.6-25.6h-25.6V79.383
				l12.642-18.958v-0.009c3.633-5.494,3.801-12.582,0.433-18.242L451.051,4.142C449.508,1.572,446.731,0,443.734,0h-17.067
				c-2.997,0-5.774,1.572-7.317,4.142l-22.833,38.05c-3.361,5.66-3.189,12.743,0.442,18.233l12.642,18.958v159.55h-25.6
				c-14.132,0.015-25.585,11.468-25.6,25.6v17.958c0.025,8.169,5.829,15.177,13.85,16.725c11.825,2.515,20.281,12.957,20.284,25.047
				s-8.451,22.535-20.275,25.053c-8.024,1.544-13.832,8.554-13.858,16.725V435.2c0.033,21.221,8.811,41.491,24.267,56.033
				c14.18,13.398,32.966,20.836,52.475,20.775c1.7,0,3.408-0.056,5.125-0.167c40.95-3.377,72.294-37.882,71.733-78.967v-66.833
				c-0.025-8.169-5.829-15.177-13.85-16.725c-11.825-2.515-20.281-12.957-20.284-25.047
				C477.866,312.18,486.318,301.735,498.143,299.217z M431.501,17.067h7.4l20.333,33.875l0.009,0.025l-14.075,21.1
				c-0.934,1.402-1.433,3.049-1.434,4.733v162.133h-17.067V76.8c-0.001-1.685-0.499-3.331-1.434-4.733l-14.075-21.108
				L431.501,17.067z M494.934,366.042v66.833c0.574,32.091-23.791,59.151-55.767,61.933c-16.496,1.099-32.71-4.688-44.782-15.984
				c-12.072-11.296-18.921-27.091-18.918-43.624l0.3-69.183c19.778-4.18,33.906-21.67,33.833-41.885
				c-0.073-20.215-14.325-37.602-34.133-41.641v-17.958c0.003-4.711,3.822-8.53,8.533-8.533h102.4
				c4.712,0.003,8.53,3.822,8.533,8.533l-0.3,17.983c-19.778,4.18-33.905,21.67-33.833,41.885
				C460.874,344.616,475.126,362.004,494.934,366.042z"/>
			<path d="M452.267,358.4h-34.133c-2.264-0.001-4.435,0.897-6.035,2.498s-2.499,3.772-2.498,6.035v85.333
				c0,14.138,11.461,25.6,25.6,25.6s25.6-11.462,25.6-25.6v-85.333c0.001-2.264-0.897-4.435-2.498-6.035
				C456.702,359.297,454.531,358.399,452.267,358.4z M443.734,452.267c0,4.713-3.82,8.533-8.533,8.533s-8.533-3.821-8.533-8.533
				v-76.8h17.067V452.267z"/>
		</g>
	</g>
</g>
<g>
</g>
<g>
</g>
<g>
</g>
<g>
</g>
<g>
</g>
<g>
</g>
<g>
</g>
<g>
</g>
<g>
</g>
<g>
</g>
<g>
</g>
<g>
</g>
<g>
</g>
<g>
</g>
<g>
</g>
</svg>
