<?xml version="1.0" encoding="iso-8859-1"?>
<!-- Generator: Adobe Illustrator 21.0.0, SVG Export Plug-In . SVG Version: 6.00 Build 0)  -->
<svg version="1.1" id="Capa_1" xmlns="http://www.w3.org/2000/svg" xmlns:xlink="http://www.w3.org/1999/xlink" x="0px" y="0px"
	 viewBox="0 0 511.999 511.999" style="enable-background:new 0 0 511.999 511.999;" xml:space="preserve">
<g>
	<g>
		<path d="M485.263,392.235c8.765-8.96,14.182-21.206,14.182-34.7v-96.614c0-4.142-3.357-7.5-7.5-7.5c-4.143,0-7.5,3.358-7.5,7.5
			v96.614c0,19.112-15.549,34.66-34.661,34.66c-8.044,0-378.668,0-387.568,0c-19.111,0-34.66-15.548-34.66-34.66V98.525
			c0-19.112,15.549-34.661,34.66-34.661h387.568c19.112,0,34.661,15.549,34.661,34.661v127.393c0,4.142,3.357,7.5,7.5,7.5
			c4.143,0,7.5-3.358,7.5-7.5V98.525c0-27.384-22.278-49.662-49.662-49.662H62.216c-27.384,0-49.661,22.278-49.661,49.662v259.01
			c0,13.494,5.417,25.742,14.182,34.7C11.862,393.015,0,405.362,0,420.426v14.479c0,15.567,12.665,28.231,28.231,28.231h455.537
			c15.567,0,28.232-12.665,28.232-28.231v-14.479C512,405.362,500.138,393.015,485.263,392.235z M483.768,448.135H28.231
			c-7.295,0-13.23-5.935-13.23-13.23v-14.479c0-7.295,5.935-13.231,13.23-13.231c4.494,0,125.033,0,129.532,0V423.9
			c0,6.212,5.054,11.267,11.267,11.267h69.928c4.143,0,7.5-3.358,7.5-7.5c0-4.142-3.357-7.5-7.5-7.5h-66.193v-12.97h166.47v12.97
			H273.96c-4.143,0-7.5,3.358-7.5,7.5c0,4.142,3.357,7.5,7.5,7.5h69.009c6.212,0,11.267-5.054,11.267-11.267v-16.704
			c4.501,0,125.043,0,129.532,0c7.295,0,13.231,5.935,13.231,13.231v14.479h0.001C496.999,442.201,491.063,448.135,483.768,448.135z
			"/>
	</g>
</g>
<g>
	<g>
		<path d="M449.784,82.634c-16.18,0-370.915,0-387.567,0c-8.216,0-14.994,6.265-15.809,14.269c-0.054,0.533-0.082,1.075-0.082,1.622
			c0,11.322,0,245.535,0,259.01c0,8.763,7.128,15.891,15.891,15.891c3.976,0,383.705,0,387.567,0
			c8.763,0,15.892-7.128,15.892-15.891c0-13.552,0-247.728,0-259.01C465.676,89.762,458.547,82.634,449.784,82.634z M111.83,97.635
			h337.953c0.409,0,0.891,0.482,0.891,0.89v29.361H344.757l-0.696-3.227c-1.284-5.954-6.636-10.276-12.728-10.276h-24.334
			c-5.995,0-11.264,4.254-12.527,10.115c-0.113,0.523-0.618,2.865-0.73,3.388h-49.913c-4.624-4.667-9.934-8.701-15.82-12.016
			c-7.747-4.359-17.146,1.258-17.146,10v2.016h-34.884v-2.016c0-8.795-9.472-14.317-17.146-9.999
			c-5.872,3.306-11.176,7.339-15.804,12.015H111.83V97.635z M210.865,142.886v41.849l-17.443,10.071l-17.441-10.071v-41.849H210.865
			z M61.326,98.525c0-0.408,0.482-0.89,0.891-0.89H96.83v30.251H61.326V98.525z M163.456,358.424H62.216
			c-0.407,0.001-0.89-0.482-0.89-0.889V142.887c7.138,0,62.87,0,70.521,0c-6.159,11.008-9.362,23.679-8.939,36.838
			c0.86,26.773,15.791,49.693,39.938,61.313c0,0,0,0,0.001,0c0.375,0.181,0.608,0.545,0.608,0.952V358.424z M208.386,240.355v118.07
			h-7.47V247.816c0-4.142-3.357-7.5-7.5-7.5s-7.5,3.358-7.5,7.5v110.609h-7.457V241.991c0-6.129-3.574-11.81-9.107-14.471h0.001
			c-19.015-9.15-30.772-27.197-31.449-48.277c-0.626-19.437,8.31-36.475,23.076-46.992c0,10.543,0,43.202,0,54.513
			c0,4.089,2.199,7.899,5.741,9.946l20.959,12.102c3.543,2.044,7.942,2.044,11.484,0l20.962-12.103
			c3.54-2.046,5.739-5.856,5.739-9.944l-0.001-54.517c14.849,10.552,23.899,27.765,23.04,47.564
			c-0.928,21.377-13.092,39.409-32.539,48.235C211.515,230.248,208.385,235.08,208.386,240.355z M285.489,311.427
			c-8.279,2.82-14.259,10.655-14.259,19.876v27.121h-47.844V241.327c23.865-11.194,39.356-34.432,40.503-60.865
			c0.583-13.434-2.603-26.368-8.872-37.575h35.49l-5.544,25.721c-0.861,3.997-0.168,8.122,1.954,11.619l8.292,13.655v94.105
			c-5.501,0.892-9.72,5.662-9.72,11.412V311.427z M298.327,358.425h-12.095v-27.121c0-3.313,2.694-6.007,6.007-6.007h0.751h5.336
			V358.425z M325.185,358.425h-11.857v-33.128h11.857V358.425z M338.021,310.295h-5.336h-26.858h-5.336v-7.47h2.219h33.08h2.231
			V310.295z M338.8,172.372l-9.422,15.517c-0.712,1.173-1.089,2.52-1.089,3.893v96.041H310.21v-96.041
			c0-1.373-0.377-2.719-1.089-3.893l-9.381-15.449c-0.123-0.202-0.163-0.44-0.112-0.671l9.138-42.386h20.969
			c0.387,1.798,7.61,35.305,9.154,42.465C338.928,172.028,338.896,172.215,338.8,172.372z M352.28,358.425h-12.095v-33.128h5.336
			h0.75c3.313,0,6.008,2.695,6.008,6.007V358.425z M450.674,357.535c-0.001,0.407-0.483,0.89-0.891,0.89h-82.502v-27.121
			c0-9.221-5.979-17.055-14.259-19.875v-12.031c0-5.753-4.224-10.527-9.732-11.414v-94.103l8.332-13.724
			c2.096-3.452,2.78-7.526,1.93-11.472l-5.561-25.8h102.682V357.535z"/>
	</g>
</g>
<g>
</g>
<g>
</g>
<g>
</g>
<g>
</g>
<g>
</g>
<g>
</g>
<g>
</g>
<g>
</g>
<g>
</g>
<g>
</g>
<g>
</g>
<g>
</g>
<g>
</g>
<g>
</g>
<g>
</g>
</svg>
