<svg id="Capa_1" enable-background="new 0 0 511.981 511.981" height="512" viewBox="0 0 511.981 511.981" width="512" xmlns="http://www.w3.org/2000/svg"><path d="m499.351 397.541c9.538-15.397 13.715-31.491 12.39-47.928-1.297-16.089-7.654-32.341-19.434-49.685-20.772-30.584-55.569-59.884-89.22-88.22-16.855-14.193-34.286-28.871-49.121-43.087-17.327-16.606-34.597-37.181-52.88-58.965-28.561-34.029-58.094-69.216-89.106-89.619-17.657-11.617-34.216-17.515-50.62-18.03-16.621-.525-32.849 4.717-48.341 15.549-3.637-1.846-7.179-3.393-10.659-4.646-43.248-15.57-67.56 2.813-78.203 15.158-19.752 22.914-24.577 61.459-12.034 90.449-11.638 17.057-14.984 39.22-9.66 65.448 11.199 55.183 61.817 129.736 135.403 199.43 33.88 32.088 69.998 60.498 104.451 82.156 36.866 23.176 70.941 37.925 98.542 42.652 7.074 1.212 13.861 1.806 20.312 1.805 20.362-.001 37.312-5.931 48.955-17.034 8.892 4.604 18.312 6.674 27.638 6.674 20.802 0 41.117-10.243 53.949-25.326 11.672-13.72 17.255-31.053 15.72-48.808-.817-9.442-3.537-18.784-8.082-27.973zm-375.03-332.151c.486-2.597 1.955-4.849 4.135-6.341 1.667-1.142 3.598-1.734 5.565-1.734.605 0 1.215.056 1.821.169 28.229 5.349 42.919 11.084 54.204 21.162 11.857 10.588 18.347 24.922 26.173 47.667 7.555 21.957 18.53 25.456 30.061 27.328 11.433 1.856 21.307 3.459 32.855 13.707 8.229 7.303 10.348 16.601 13.03 28.371 2.128 9.341 4.539 19.929 11.732 26.871 11.715 11.304 23.579 13.853 33.113 15.901 13.716 2.947 23.625 5.077 33.996 17.888 8.666 10.704 10.697 18.693 12.848 27.152 1.659 6.524 3.724 14.644 15.514 22.806 6.517 4.512 12.944 7.25 18.622 9.667 19.911 8.48 31.929 13.598 41.274 53.008.611 2.582.182 5.247-1.212 7.504-1.393 2.258-3.581 3.838-6.163 4.45s-5.246.181-7.505-1.211c-2.258-1.393-3.838-3.581-4.449-6.165-6.546-27.605-16.434-33.733-29.691-39.38-6.797-2.895-13.825-5.888-22.079-11.604-18.044-12.491-20.358-21.593-23.562-34.19-1.412-5.554-3.168-12.466-8.897-19.543-5.982-7.388-14.891-9.302-22.751-10.991-13.256-2.849-26.964-5.795-42.742-21.021-11.458-11.056-14.313-23.591-17.346-36.898-2.386-10.462-3.373-14.792-6.786-17.82-7.248-6.432-15.973-7.848-22.983-8.986-19.528-3.17-33.637-5.46-45.667-40.421-6.937-20.163-12.019-31.794-20.546-39.41-9.391-8.384-24.044-12.488-44.643-16.391-.007-.001-.014-.003-.021-.004-2.597-.486-4.849-1.955-6.342-4.135-1.491-2.179-2.044-4.809-1.558-7.406zm161.446 57.124c17.821 21.234 36.25 43.19 54.361 60.547 15.299 14.662 32.979 29.549 50.077 43.947 71.305 60.042 117.768 104.38 96.782 151.336-2.31-2.894-4.805-5.768-7.497-8.62-.098-1.776-.346-3.557-.765-5.324-11.677-49.241-30.779-57.376-52.904-66.798-5.027-2.141-10.226-4.355-15.068-7.708-5.636-3.902-6.225-6.218-7.516-11.292-2.344-9.221-5.262-20.696-16.686-34.807-14.813-18.298-30.332-21.632-45.34-24.857-8.135-1.748-15.818-3.399-23.426-10.74-2.904-2.803-4.688-10.631-6.121-16.922-3.062-13.434-6.227-27.325-19.256-38.888-15.891-14.1-30.881-16.533-42.925-18.488-6.912-1.123-10.067-1.635-14.354-14.093-8.928-25.946-16.634-42.567-31.764-56.078-15.326-13.686-34.829-20.094-59.192-24.993-4.253-3.49-8.322-6.635-12.238-9.455 47.976-26.214 92.878 20.609 153.832 93.233zm190.713 338.848c-12.682 14.905-35.332 23.366-54.675 15.02 14.318-31.922-2.392-74.886-41.685-107.037-85.522-69.977-152.321-135.373-210.219-205.804-3.505-4.266-9.808-4.883-14.075-1.375-4.266 3.507-4.882 9.809-1.374 14.075 58.754 71.473 126.437 137.752 213.002 208.583 37.09 30.348 44.672 64.597 36.021 83.575-8.126 17.826-29.72 25.148-59.239 20.092-49.94-8.554-123.747-54.388-192.617-119.617-70.712-66.972-119.144-137.584-129.556-188.887-6.119-30.15.98-51.265 21.706-64.552 17.715-11.357 32.808-11.67 50.469-1.047 4.734 2.847 10.877 1.318 13.724-3.415s1.317-10.877-3.415-13.724c-24.117-14.507-47.528-14.066-71.572 1.349-1.868 1.198-3.652 2.454-5.364 3.758-5.693-20.872-1.354-46.092 11.695-61.229 12.767-14.809 32.228-18.057 56.279-9.399 6.349 2.286 13.301 6.005 20.999 11.232-6.269 4.508-10.496 11.135-11.921 18.749-1.47 7.848.204 15.798 4.715 22.387 4.51 6.588 11.315 11.026 19.163 12.496 19.81 3.755 29.958 7.132 35.023 11.654 5.181 4.627 9.406 14.869 14.955 30.999 15.924 46.278 40.07 50.197 61.374 53.655 4.541.737 8.559 1.39 11.449 3.134.601 2.129 1.433 5.776 2.033 8.411 3.21 14.086 7.204 31.616 22.949 46.811 19.886 19.189 37.93 23.067 52.43 26.184 5.074 1.09 9.868 2.12 11.408 4.022 2.969 3.668 3.891 7.293 5.058 11.886 3.62 14.235 7.363 28.955 31.561 45.707 9.928 6.875 18.269 10.426 25.632 13.563 8.883 3.783 13.342 5.682 18.063 25.589 1.843 7.78 6.605 14.377 13.41 18.575 4.785 2.952 10.176 4.469 15.659 4.468 2.315 0 4.647-.271 6.957-.818 5.985-1.418 11.264-4.569 15.294-9.042 19.448 24.821 21.392 50.334 4.684 69.972z"/><path d="m133.376 125.32h-.008c-5.522 0-9.996 4.477-9.996 10s4.481 10 10.004 10c5.522 0 10-4.477 10-10s-4.478-10-10-10z"/></svg>