<svg height="496pt" viewBox="-32 0 496 496.00151" width="496pt" xmlns="http://www.w3.org/2000/svg"><path d="m408 112h-156.6875l26.34375-26.34375c1.503906-1.496094 2.34375-3.535156 2.34375-5.65625v-40c0-2.117188-.839844-4.160156-2.34375-5.65625l-32-32c-2.289062-2.2851562-5.726562-2.964844-8.71875-1.734375-2.992188 1.238281-4.9375 4.160156-4.9375 7.390625v40h-32v-40c0-3.230469-1.941406-6.152344-4.933594-7.390625-2.992187-1.238281-6.433594-.5507812-8.722656 1.734375l-32 32c-1.503906 1.496094-2.34375 3.539062-2.34375 5.65625v40c0 2.121094.839844 4.160156 2.34375 5.65625l26.34375 26.34375h-156.6875c-13.230469 0-24 10.769531-24 24v256c0 13.234375 10.769531 24 24 24h160v16h-16c-30.871094 0-56 25.128906-56 56 0 4.425781 3.578125 8 8 8h192c4.425781 0 8-3.574219 8-8 0-30.871094-25.128906-56-56-56h-16v-16h160c13.234375 0 24-10.765625 24-24v-256c0-13.230469-10.765625-24-24-24zm-160 144c0 17.648438-14.351562 32-32 32s-32-14.351562-32-32 14.351562-32 32-32 32 14.351562 32 32zm-80 0c0 26.472656 21.527344 48 48 48s48-21.527344 48-48c0-14.167969-6.207031-26.878906-16-35.679688v-19.472656c.382812.226563.785156.402344 1.167969.640625 3.136719 1.914063 7.199219 1.441407 9.832031-1.167969l5-5.007812 12.6875 12.6875-5.007812 5c-2.605469 2.609375-3.09375 6.671875-1.167969 9.824219 3.746093 6.128906 6.386719 12.496093 7.847656 18.953125.824219 3.640625 4.066406 6.222656 7.800781 6.222656h9.839844v16h-9.839844c-3.734375 0-6.96875 2.585938-7.800781 6.226562-1.519531 6.6875-4.144531 13.09375-7.765625 19.023438-1.921875 3.160156-1.449219 7.214844 1.167969 9.832031l4.925781 4.917969-12.6875 12.691406-4.917969-4.921875c-2.617187-2.632812-6.699219-3.105469-9.832031-1.167969-5.929688 3.625-12.335938 6.238282-19.023438 7.769532-3.640624.8125-6.226562 4.054687-6.226562 7.789062v9.839844h-16v-9.839844c0-3.734375-2.582031-6.964844-6.214844-7.796875-6.457031-1.480469-12.832031-4.121093-18.945312-7.851562-3.152344-1.925781-7.214844-1.460938-9.832032 1.167969l-5.007812 5.011718-12.6875-12.691406 5.007812-5.007812c2.609376-2.605469 3.097657-6.671876 1.167969-9.832032-3.734375-6.117187-6.375-12.496094-7.847656-18.941406-.824219-3.632812-4.0625-6.21875-7.800781-6.21875h-9.839844v-16h9.839844c3.738281 0 6.96875-2.582031 7.800781-6.222656 1.519531-6.679688 4.136719-13.085938 7.769531-19.023438 1.917969-3.160156 1.4375-7.214844-1.167968-9.832031l-4.929688-4.921875 12.6875-12.6875 4.921875 4.921875c2.605469 2.613281 6.679687 3.078125 9.832031 1.167969.40625-.25.839844-.441406 1.246094-.679688v19.597656c-9.792969 8.800782-16 21.511719-16 35.679688zm16-73.085938c-1.34375.589844-2.726562 1.070313-4.039062 1.734376l-6.304688-6.304688c-3.128906-3.125-8.183594-3.125-11.3125 0l-24 24c-3.128906 3.128906-3.128906 8.1875 0 11.3125l6.304688 6.3125c-1.96875 3.878906-3.617188 7.90625-4.910157 12.03125h-11.738281c-4.421875 0-8 3.585938-8 8v32c0 4.425781 3.578125 8 8 8h11.753906c1.304688 4.058594 2.96875 8.050781 4.976563 11.960938l-6.386719 6.382812c-3.128906 3.128906-3.128906 8.1875 0 11.3125l24 24c3.128906 3.128906 8.183594 3.128906 11.3125 0l6.382812-6.382812c3.914063 2.007812 7.90625 3.671874 11.960938 4.976562v11.75c0 4.425781 3.578125 8 8 8h32c4.425781 0 8-3.574219 8-8v-11.734375c4.136719-1.296875 8.160156-2.945313 12.039062-4.914063l6.304688 6.304688c3.128906 3.128906 8.183594 3.128906 11.3125 0l24-24c3.128906-3.125 3.128906-8.183594 0-11.3125l-6.304688-6.300781c1.96875-3.882813 3.617188-7.90625 4.914063-12.042969h11.734375c4.425781 0 8-3.574219 8-8v-32c0-4.414062-3.574219-8-8-8h-11.75c-1.304688-4.046875-2.96875-8.046875-4.976562-11.964844l6.382812-6.378906c1.503906-1.496094 2.34375-3.535156 2.34375-5.65625 0-2.117188-.839844-4.160156-2.34375-5.65625l-24-24c-3.128906-3.125-8.183594-3.125-11.3125 0l-6.382812 6.378906c-1.304688-.671875-2.640626-1.144531-3.960938-1.738281v-22.984375h136v208h-336v-208h136zm-16-139.601562 16-16v28.6875c0 4.417969 3.578125 8 8 8h48c4.425781 0 8-3.582031 8-8v-28.6875l16 16v33.378906l-29.65625 29.652344c-1.503906 1.496094-2.34375 3.539062-2.34375 5.65625v98.800781c-5.015625-1.773437-10.382812-2.800781-16-2.800781s-10.984375 1.027344-16 2.800781v-98.800781c0-2.117188-.839844-4.160156-2.34375-5.65625l-29.65625-29.652344zm135.191406 436.6875h-174.382812c3.71875-18.230469 19.871094-32 39.191406-32h96c19.320312 0 35.480469 13.769531 39.191406 32zm-71.191406-48h-32v-16h32zm184-40c0 4.417969-3.582031 8-8 8h-384c-4.414062 0-8-3.582031-8-8v-256c0-4.40625 3.585938-8 8-8h160v16h-144c-4.421875 0-8 3.585938-8 8v224c0 4.425781 3.578125 8 8 8h352c4.425781 0 8-3.574219 8-8v-224c0-4.414062-3.574219-8-8-8h-144v-16h160c4.417969 0 8 3.59375 8 8zm0 0"/></svg>