<svg height="479pt" viewBox="0 -3 479.87364 479" width="479pt" xmlns="http://www.w3.org/2000/svg"><path d="m328.050781 232.4375v-13.441406c2.789063-1.257813 5.46875-2.757813 8-4.476563l11.679688 6.71875c3.824219 2.171875 8.683593.847657 10.878906-2.960937 2.1875-3.800782.902344-8.65625-2.878906-10.878906l-16-9.441407c-2.941407-1.6875-6.628907-1.332031-9.199219.878907-3.742188 3.167968-8.023438 5.636718-12.640625 7.28125-3.199219 1.117187-5.347656 4.132812-5.359375 7.519531v10.800781h-16.480469v-10.800781c-.015625-3.386719-2.160156-6.402344-5.359375-7.519531-4.617187-1.644532-8.898437-4.113282-12.640625-7.28125-2.570312-2.210938-6.257812-2.566407-9.199219-.878907l-9.28125 5.441407-8-13.921876 9.28125-5.039062c2.960938-1.679688 4.53125-5.050781 3.917969-8.398438-.957031-4.808593-.957031-9.753906 0-14.5625.925781-3.554687-.691406-7.285156-3.917969-9.039062l-9.28125-5.359375 8-13.921875 9.28125 5.441406c2.941407 1.6875 6.628907 1.335938 9.199219-.878906 3.742188-3.167969 8.023438-5.636719 12.640625-7.28125 3.199219-1.117188 5.34375-4.132812 5.359375-7.519531v-10.480469h16v10.800781c.011719 3.386719 2.160157 6.402344 5.359375 7.519531 4.617188 1.644532 8.898438 4.113282 12.640625 7.28125 2.570313 2.210938 6.257813 2.566407 9.199219.878907l9.28125-5.441407 8 13.921876-9.28125 5.039062c-2.960938 1.679688-4.535156 5.050781-3.917969 8.398438.957031 4.808593.957031 9.753906 0 14.5625-.925781 3.554687.691407 7.285156 3.917969 9.039062l16 9.359375c3.804688 2.183594 8.65625.902344 10.878906-2.878906 1.078125-1.835938 1.378906-4.023438.835938-6.078125-.539063-2.054688-1.875-3.8125-3.714844-4.882813l-11.199219-7.039062c0-1.519531 0-2.960938 0-4.480469s0-2.960938 0-4.480469l11.601563-6.71875c1.835937-1.070312 3.171875-2.828125 3.714844-4.882812.539062-2.054688.238281-4.242188-.835938-6.078125l-16-27.679688c-2.199219-3.808594-7.058594-5.132812-10.878906-2.960937l-11.601563 6.722656c-2.53125-1.722656-5.210937-3.222656-8-4.480469v-13.441406c0-4.417969-3.582031-8-8-8h-32c-4.417969 0-8 3.582031-8 8v13.441406c-2.792969 1.257813-5.46875 2.757813-8 4.480469l-11.679687-6.722656c-3.824219-2.171875-8.683594-.847657-10.878906 2.960937l-16 27.679688c-1.078126 1.835937-1.378907 4.023437-.835938 6.078125.539062 2.054687 1.875 3.8125 3.714844 4.882812l11.597656 6.71875v4.480469 4.480469l-11.597656 6.71875c-1.839844 1.070312-3.175782 2.828125-3.714844 4.882812-.542969 2.058594-.242188 4.242188.835938 6.078125l16 27.679688c2.195312 3.808594 7.054687 5.132812 10.878906 2.960937l11.679687-6.71875c2.53125 1.71875 5.207031 3.21875 8 4.476563v13.441406c0 4.417969 3.582031 8 8 8h32c4.417969 0 8-3.582031 8-8zm0 0"/><path d="m280.050781 168.4375c0 13.253906 10.746094 24 24 24 13.253907 0 24-10.746094 24-24s-10.746093-24-24-24c-13.253906 0-24 10.746094-24 24zm32 0c0 4.417969-3.582031 8-8 8s-8-3.582031-8-8 3.582031-8 8-8 8 3.582031 8 8zm0 0"/><path d="m184.050781 152.4375c13.253907 0 24-10.746094 24-24s-10.746093-24-24-24c-13.253906 0-24 10.746094-24 24s10.746094 24 24 24zm0-32c4.417969 0 8 3.582031 8 8s-3.582031 8-8 8-8-3.582031-8-8 3.582031-8 8-8zm0 0"/><path d="m266.289062 251.398438c-1.488281-1.480469-3.5-2.3125-5.597656-2.320313-2.128906-.011719-4.171875.820313-5.679687 2.320313l-33.921875 34-34-34 34-33.921876c1.5-1.507812 2.332031-3.550781 2.320312-5.679687-.007812-2.097656-.839844-4.109375-2.320312-5.597656l-11.359375-11.363281c-12.644531-12.078126-32.554688-12.078126-45.199219 0l-45.28125 45.601562c-6.007812 6.003906-9.382812 14.148438-9.382812 22.640625s3.375 16.636719 9.382812 22.640625l5.679688 5.597656-113.199219 112.800782c-15.640625 15.640624-15.640625 41 0 56.640624 15.640625 15.640626 41 15.640626 56.640625 0l96.960937-97.039062c2.714844-3.175781 2.535157-7.90625-.421875-10.863281-2.953125-2.953125-7.683594-3.136719-10.859375-.417969l-97.039062 96.960938c-9.457031 8.8125-24.195313 8.550781-33.332031-.589844-9.140626-9.140625-9.402344-23.875-.589844-33.332032l112.960937-113.117187 8.480469 8.476563c3.121094 3.101562 8.160156 3.101562 11.277344 0 1.515625-1.5 2.367187-3.546876 2.367187-5.679688s-.851562-4.175781-2.367187-5.679688l-14.078125-14.078124-11.199219-11.359376c-3.003906-3.003906-4.691406-7.074218-4.691406-11.320312s1.6875-8.320312 4.691406-11.320312l45.519531-45.199219c3-3.007813 7.074219-4.695313 11.320313-4.695313s8.316406 1.6875 11.320312 4.695313l5.679688 5.597656-34 34c-3.101563 3.121094-3.101563 8.160156 0 11.28125l45.28125 45.28125c3.117187 3.101563 8.15625 3.101563 11.277344 0l34-34 5.601562 5.679687c3.003906 3 4.691406 7.070313 4.691406 11.320313 0 4.246094-1.6875 8.316406-4.691406 11.316406l-45.199219 45.28125c-3.003906 3.003907-7.074219 4.691407-11.320312 4.691407-4.246094 0-8.320313-1.6875-11.320313-4.691407l-20.960937-20.960937c-3.175781-2.714844-7.90625-2.535156-10.859375.421875-2.957032 2.953125-3.140625 7.6875-.421875 10.859375l20.882812 20.960937c6 6.007813 14.144531 9.382813 22.636719 9.382813 8.496094 0 16.640625-3.375 22.640625-9.382813l45.28125-45.28125c12.460937-12.488281 12.460937-32.707031 0-45.199219zm0 0"/><path d="m62.691406 398.519531-28.320312 28.238281c-1.515625 1.5-2.367188 3.546876-2.367188 5.679688s.851563 4.179688 2.367188 5.679688c1.5 1.515624 3.546875 2.367187 5.679687 2.367187 2.132813 0 4.175781-.851563 5.679688-2.367187l28.238281-28.320313c2.71875-3.171875 2.539062-7.90625-.417969-10.859375-2.953125-2.957031-7.6875-3.136719-10.859375-.417969zm0 0"/><path d="m366.210938 315.316406c-1.519532-1.832031-3.777344-2.894531-6.160157-2.894531-2.382812 0-4.640625 1.0625-6.160156 2.894531l-40 48c-1.988281 2.386719-2.414063 5.710938-1.09375 8.519532 1.320313 2.8125 4.148437 4.605468 7.253906 4.601562h16v24c0 4.417969 3.582031 8 8 8s8-3.582031 8-8v-32c0-4.417969-3.582031-8-8-8h-6.878906l22.878906-27.519531 22.878907 27.519531h-6.878907c-4.417969 0-8 3.582031-8 8v48c0 4.417969 3.582031 8 8 8s8-3.582031 8-8v-40h16c3.105469.003906 5.933594-1.789062 7.253907-4.601562 1.320312-2.808594.894531-6.132813-1.09375-8.519532zm0 0"/><path d="m411.25 114.597656c-17.566406-66.988281-77.949219-113.816406-147.199219-114.160156-60.09375-.191406-114.589843 35.238281-138.800781 90.238281-6.964844-1.496093-14.074219-2.246093-21.199219-2.238281-53.925781.183594-98.765625 41.550781-103.28125 95.285156-4.519531 53.734375 32.785157 102.011719 85.921875 111.195313 4.417969.75 8.609375-2.222657 9.359375-6.640625.75-4.417969-2.222656-8.609375-6.640625-9.359375-32.804687-4.671875-60.203125-27.375-70.890625-58.738281-10.6875-31.367188-2.847656-66.074219 20.277344-89.804688 23.128906-23.730469 57.625-32.453125 89.253906-22.578125 3.984375 1.152344 8.183594-.933594 9.679688-4.800781 20.132812-52.214844 70.355469-86.628906 126.320312-86.558594 63.742188.3125 118.820313 44.609375 132.800781 106.800781.714844 3.203125 3.316407 5.648438 6.558594 6.160157 28.960938 4.464843 52.324219 26.035156 59.085938 54.542968 6.761718 28.511719-4.429688 58.277344-28.300782 75.269532-23.871093 16.992187-55.65625 17.828124-80.386718 2.105468-2.722656-1.863281-6.3125-1.863281-9.039063 0-10.804687 8.085938-22.746093 14.53125-35.4375 19.121094-4.417969.75-7.394531 4.941406-6.640625 9.359375.75 4.417969 4.941406 7.390625 9.359375 6.640625.925781 0 1.847657-.164062 2.71875-.480469 12.464844-4.417969 24.296875-10.441406 35.199219-17.917969 12.929688 6.953126 27.402344 10.53125 42.082031 10.398438 44.792969-.089844 82.375-33.816406 87.289063-78.339844 4.917968-44.523437-24.394532-85.636718-68.089844-95.5zm0 0"/></svg>