<svg height="512" viewBox="0 0 512 512" width="512" xmlns="http://www.w3.org/2000/svg"><g id="Outline"><path d="m488 104h-112v-80a8 8 0 0 0 -8-8h-40a8 8 0 0 0 -8 8v80h-72v16h232v32h-168v16h143.182l-30.44 312h-72.742v16h80a8 8 0 0 0 7.962-7.223l31.295-320.777h16.743a8 8 0 0 0 8-8v-48a8 8 0 0 0 -8-8zm-152 0v-72h24v72z"/><path d="m336 264c0-74.991-61.01-136-136-136h-48c-74.99 0-136 61.009-136 136a8 8 0 0 0 8 8h125.611l71.234 46.691a8 8 0 0 0 9.245-.336l60.472-46.243a32 32 0 0 1 -2.562 63.888h-224a32.021 32.021 0 0 1 -29.341-44.8l-14.659-6.4a48 48 0 0 0 17.507 59.2 47.925 47.925 0 0 0 -9.246 72h-4.261a8 8 0 0 0 -8 8v40a32.036 32.036 0 0 0 32 32h256a32.036 32.036 0 0 0 32-32v-40a8 8 0 0 0 -8-8h-4.261a47.925 47.925 0 0 0 -9.246-72 47.925 47.925 0 0 0 9.246-72h4.261a8 8 0 0 0 8-8zm-162.8 88-46.075 30.2-39.493-30.2zm146.8 112a16.019 16.019 0 0 1 -16 16h-256a16.019 16.019 0 0 1 -16-16v-32h288zm0-80a32.036 32.036 0 0 1 -32 32h-224a32 32 0 0 1 -2.562-63.888l60.472 46.243a8 8 0 0 0 9.245.336l71.234-46.691h85.611a32.036 32.036 0 0 1 32 32zm-287.736-128a120.16 120.16 0 0 1 119.736-112h48a120.16 120.16 0 0 1 119.736 112zm192.61 46.2-46.074-30.2h85.569z"/><path d="m164.686 168h22.627v16h-22.627z" transform="matrix(.707 -.707 .707 .707 -72.902 176.011)"/><path d="m116.686 168h22.627v16h-22.627z" transform="matrix(.707 -.707 .707 .707 -86.96 142.059)"/><path d="m216 164.686h16v22.627h-16z" transform="matrix(.707 -.707 .707 .707 -58.843 209.941)"/><path d="m188.686 208h22.627v16h-22.627z" transform="matrix(.707 -.707 .707 .707 -94.156 204.686)"/><path d="m92.686 208h22.627v16h-22.627z" transform="matrix(.707 -.707 .707 .707 -122.278 136.814)"/><path d="m144 204.686h16v22.627h-16z" transform="matrix(.707 -.707 .707 .707 -108.215 170.745)"/><path d="m240 204.686h16v22.627h-16z" transform="matrix(.707 -.707 .707 .707 -80.099 238.613)"/><path d="m64 288h16v16h-16z"/><path d="m136 304h16v16h-16z"/><path d="m200 368h16v16h-16z"/><path d="m264 376h16v16h-16z"/></g></svg>