<?xml version="1.0"?>
<svg xmlns="http://www.w3.org/2000/svg" viewBox="0 0 64 64" width="512" height="512"><g id="wrench-service-tool-hardware-shop"><rect x="10" y="47" width="2" height="4"/><path d="M61,16a1,1,0,0,0,1-1V7a1,1,0,0,0-1-1V4a2.006,2.006,0,0,0-2-2H5A2.006,2.006,0,0,0,3,4V6A1,1,0,0,0,2,7v8a1,1,0,0,0,1,1V60H2v2H62V60H61ZM5,4H59V6H5ZM19,60H9V40H19Zm0-22H9V37H19Zm0-3H9V34H19ZM59,60H21V33a1,1,0,0,0-1-1H8a1,1,0,0,0-1,1V60H5V24.97A4.924,4.924,0,0,0,8,26a4.994,4.994,0,0,0,4-2.03,4.956,4.956,0,0,0,8,0,4.956,4.956,0,0,0,8,0,4.956,4.956,0,0,0,8,0,4.956,4.956,0,0,0,8,0,4.956,4.956,0,0,0,8,0A4.994,4.994,0,0,0,56,26a4.924,4.924,0,0,0,3-1.03ZM5,21V16h6v5a3,3,0,0,1-6,0Zm8,0V16h6v5a3,3,0,0,1-6,0Zm8,0V16h6v5a3,3,0,0,1-6,0Zm8,0V16h6v5a3,3,0,0,1-6,0Zm8,0V16h6v5a3,3,0,0,1-6,0Zm8,0V16h6v5a3,3,0,0,1-6,0Zm14,0a3,3,0,0,1-6,0V16h6Zm1-7H4V8H60Z"/><path d="M56,28H24a1,1,0,0,0-1,1V57a1,1,0,0,0,1,1H56a1,1,0,0,0,1-1V29A1,1,0,0,0,56,28ZM55,56H25V30H55Z"/><path d="M33.05,54.947a4.957,4.957,0,0,0,4.93-4.27l5.156-5.156a6.988,6.988,0,0,0,7.537-9.9,1,1,0,0,0-.821-.558,1.013,1.013,0,0,0-.8.3L45.78,38.636,44.364,37.22l3.261-3.26a1,1,0,0,0-.245-1.634,6.989,6.989,0,0,0-9.9,7.538L32.324,45.02a4.99,4.99,0,0,0,.726,9.927Zm-2.121-7.119a2.988,2.988,0,0,1,1.921-.854,1,1,0,0,0,.639-.291l5.791-5.791a1,1,0,0,0,.26-.963,4.995,4.995,0,0,1,4.822-6.294,4.949,4.949,0,0,1,.708.051l-2.827,2.827a1,1,0,0,0,0,1.414l2.83,2.83a1,1,0,0,0,1.414,0l2.827-2.827a4.994,4.994,0,0,1-6.242,5.53,1,1,0,0,0-.964.26l-5.791,5.792a.994.994,0,0,0-.29.637,2.993,2.993,0,1,1-5.1-2.321Z"/><circle cx="33" cy="50" r="2"/></g></svg>
