<svg height="512pt" viewBox="0 -102 512 511" width="512pt" xmlns="http://www.w3.org/2000/svg"><path d="m353.875 224.664062-71.835938-43.472656-1.191406 34.925782c-13.796875-1.597657-26.5625-7.746094-36.53125-17.710938l-177.039062-177.042969-26.949219 26.945313c-26 26.003906-40.3203125 60.574218-40.3203125 97.347656v7.503906l19.5039065 153.359375h35.113281l-3.160156-127.476562c3.90625.980469 7.597656 2.710937 10.917968 5.144531l100.628907 73.667969 33.769531 33.765625c9.605469 9.605468 22.382812 14.898437 35.96875 14.898437h163.039062v-7.5c0-30.21875-16.058593-58.710937-41.914062-74.355469zm-282.625-52.585937c-8.035156-5.878906-17.542969-8.988281-27.5-8.988281h-7.691406l3.1875 128.425781h-6.441406l-17.683594-138.355469h30.128906c8.429688 0 16.351562 3.28125 22.308594 9.238282l26.046875 26.046874zm161.5 119.4375c-9.578125 0-18.585938-3.730469-25.359375-10.503906l-129.222656-129.222657c-8.789063-8.789062-20.480469-13.632812-32.914063-13.632812h-30.019531c1.796875-29.941406 14.316406-57.84375 35.707031-79.234375l16.335938-16.339844 166.433594 166.433594c14.523437 14.523437 33.832031 22.523437 54.371093 22.523437h7.25l.828125-24.261718 49.949219 30.226562c19.234375 11.640625 31.917969 31.871094 34.277344 54.011719zm0 0"/><path d="m0 .5v70.148438h15.003906v-55.144532h481.992188v53.015625h-357.378906v15.003907h372.382812v-83.023438zm0 0"/><path d="m66.945312 291.515625h119.546876v15.003906h-119.546876zm0 0"/><path d="m488.3125 109.132812h-56.515625v15.003907h56.515625v167.378906h-80.019531v15.003906h95.023437v-210.492187h-15.003906zm0 0"/><path d="m191.011719 201.683594-93.675781-93.675782 10.609374-10.609374 93.675782 93.675781zm-100.75-100.75-10.609375-10.605469 10.609375-10.613281 10.609375 10.609375zm-17.683594-17.679688-10.609375-10.609375 10.613281-10.609375 10.609375 10.605469zm0 0"/><path d="m479.492188 40.511719h-176.398438v-15.003907h176.398438zm-186.402344 0h-15.003906v-15.003907h15.003906zm-25.007813 0h-15.003906v-15.003907h15.003906zm0 0"/></svg>