<svg id="Layer_5" enable-background="new 0 0 64 64" height="512" viewBox="0 0 64 64" width="512" xmlns="http://www.w3.org/2000/svg"><path d="m63 54c0-3.272-1.779-6.238-4.586-7.822.38-1.17.586-2.402.586-3.667 0-4.906-3.087-9.361-7.682-11.084l-.318-.12v-1.863c.591.344 1.268.556 2 .556h8v-8h-8c-.732 0-1.409.212-2 .556v-.556c0-1.601-.777-3.097-2.054-4.032-.259-1.676-1.699-2.968-3.446-2.968l-12.229-.001c1.431-1.259 2.408-3.016 2.657-5.001h3.069c1.654 0 3-1.346 3-3s-1.346-3-3-3h-4.774c-1.513-1.882-3.795-3-6.226-3-4.411 0-8 3.589-8 8 0 2.966 1.626 5.554 4.03 6.936-2.089 1.033-3.718 2.849-4.505 5.066h-15.522c-1.654 0-3 1.346-3 3v12c0 1.654 1.346 3 3 3h3.111c-1.301 1.272-2.111 3.042-2.111 5v2.026c-1.207.913-2 2.347-2 3.974 0 2.057 1.251 3.826 3.03 4.592.307 4.687 4.207 8.408 8.97 8.408 4.625 0 8.442-3.507 8.941-8h19.118c.499 4.493 4.316 8 8.941 8s8.442-3.507 8.941-8h2.059zm-2.071-1h-7.515l2.118-2.118c.855-.855 1.56-1.819 2.109-2.858 1.782 1.086 2.991 2.911 3.288 4.976zm-18.046-3.608-2.843-12.084c-.74-3.149-3.28-5.528-6.473-6.06l-.567-.095-.002-9.153h12.002v31h-2.704c.454-.701.703-1.515.702-2.37v-.24c0-.332-.039-.667-.115-.998zm11.933 5.608c-.414 1.161-1.514 2-2.816 2s-2.402-.839-2.816-2zm2.184-12.489c0 .163-.016.324-.024.486-2.195-.016-3.976-2.25-3.976-4.997 0-1.025.248-1.997.706-2.822 2.046 1.836 3.294 4.491 3.294 7.333zm-4.918-8.514c-.7 1.167-1.082 2.55-1.082 4.003 0 3.732 2.519 6.783 5.677 6.981-.434 1.681-1.299 3.227-2.559 4.487l-3.532 3.532h-3.586v-31.351c.608-.291 1.116-.748 1.468-1.317.33.489.532 1.061.532 1.668v10.693l1.616.606c.513.192 1.001.429 1.466.698zm6.918-5.997h-2v-4h2zm-6-4h2v4h-2c-1.103 0-2-.897-2-2s.897-2 2-2zm-13.002-17.002c0 .551-.448 1-1 1h-8.382l.171-.341c.512-1.023 1.54-1.659 2.684-1.659h5.527c.552 0 1 .449 1 1zm-12-4c1.375 0 2.686.481 3.737 1.319-1.17.431-2.156 1.282-2.737 2.445l-.618 1.236h-6.292c.479-2.833 2.943-5 5.91-5zm-5.91 7h11.819c-.478 2.833-2.942 5-5.91 5s-5.43-2.167-5.909-5zm-1.09 14.002c0-3.861 3.141-7.002 7.002-7.002l17.5.002c.827 0 1.5.673 1.5 1.5s-.673 1.5-1.5 1.5h-18.5v2h3.998l.002 10.847 2.239.374c2.394.398 4.299 2.183 4.854 4.544l2.842 12.081c.042.181.063.363.063.544v.241c0 .633-.246 1.228-.693 1.675-.448.448-1.042.694-1.675.694-1.089 0-2.033-.738-2.298-1.794l-2.604-10.419c-.558-2.23-2.552-3.787-4.851-3.787l-2.88-.001c-2.757 0-4.999-2.243-4.999-5zm13.963 29h-3.961v-9c0-1.957-.81-3.727-2.109-4.999 1.373.006 2.564.938 2.898 2.27l2.604 10.419c.118.476.314.916.568 1.31zm-25.961-30h4v4h-4zm-5 14c-.552 0-1-.448-1-1v-12c0-.551.448-1 1-1h3v6h8v-6h4.057c-.037.329-.059.662-.059 1v7.999c0 1.958.811 3.729 2.111 5.001h-1.109-8zm11 24c-3.519 0-6.432-2.614-6.92-6h2.021c.465 2.279 2.484 4 4.899 4s4.434-1.721 4.899-4h2.021c-.488 3.386-3.401 6-6.92 6zm-2.816-6h5.631c-.414 1.161-1.514 2-2.816 2s-2.401-.839-2.815-2zm12.816-2h-17c-1.654 0-3-1.346-3-3s1.346-3 3-3h14c1.654 0 3 1.346 3 3zm-3-8h-14c-.342 0-.677.035-1 .101v-1.101c0-2.757 2.243-5 5-5h8 4c2.757 0 5 2.243 5 5v9h-2v-3c0-2.757-2.243-5-5-5zm30 16c-3.519 0-6.432-2.614-6.92-6h2.021c.465 2.279 2.484 4 4.899 4s4.434-1.721 4.899-4h2.021c-.488 3.386-3.401 6-6.92 6z"/><path d="m11 49h2v2h-2z"/><path d="m7 49h2v2h-2z"/><path d="m15 49h2v2h-2z"/></svg>