<svg height="512" viewBox="0 0 60 60" width="512" xmlns="http://www.w3.org/2000/svg"><g id="Page-1" fill="none" fill-rule="evenodd"><g id="019---Pet-Shop" fill="rgb(0,0,0)" fill-rule="nonzero"><path id="Shape" d="m57 54h-2v-28.142c1.7606851-.4545933 2.9931852-2.0395884 3-3.858v-1.89c-.0000741-.8785695-.192227-1.7465003-.563-2.543l-5.452-11.681c-.8270139-1.75747653-2.5926685-2.8811103-4.535-2.886h-3.592c-.4545933-1.76068514-2.0395884-2.99318518-3.858-3h-20c-1.8184116.00681482-3.4034067 1.23931486-3.858 3h-3.592c-1.9428509.00493072-3.70892961 1.12897597-4.536 2.887l-5.452 11.684c-.37038172.7951774-.5622048 1.6617944-.562 2.539v1.89c.00681482 1.8184116 1.23931486 3.4034067 3 3.858v28.142h-2c-1.65685425 0-3 1.3431458-3 3v2c0 .5522847.44771525 1 1 1h58c.5522847 0 1-.4477153 1-1v-2c0-1.6568542-1.3431458-3-3-3zm-6.826-47.267 5.448 11.677c.2487356.5322284.3777644 1.1125169.378 1.7v1.89c0 1.1045695-.8954305 2-2 2h-3c-1.1045695 0-2-.8954305-2-2v-2h4c.5522847 0 1-.4477153 1-1s-.4477153-1-1-1h-4.324c-.018-.051-.024-.107-.043-.157l-.682-2.11c-.0957671-.3569027-.3805502-.6319024-.7405813-.7151396-.3600311-.0832373-.7366201.0388569-.9793236.317507-.2427034.2786501-.3119572.6684323-.1800951 1.0136326l.532 1.651h-3.139c.3599241-.6053465.5518554-1.2957468.556-2v-11h3.45c1.1664904.00310663 2.2268921.67773078 2.724 1.733zm-37.174 13.267h7v.731 1.269c0 1.1045695-.8954305 2-2 2h-3c-1.1045695 0-2-.8954305-2-2zm9 .726c0-.3 0-.532 0-.726h7v2c0 1.1045695-.8954305 2-2 2h-3c-1.1045695 0-2-.8954305-2-2zm9-.726h7v.709 1.291c0 1.1045695-.8954305 2-2 2h-3c-1.1045695 0-2-.8954305-2-2zm9 .713c0-.29 0-.519 0-.713h7v2c0 1.1045695-.8954305 2-2 2h-3c-1.1045695 0-2-.8954305-2-2zm-22-16.713c0-1.1045695.8954305-2 2-2h20c1.1045695 0 2 .8954305 2 2v12c0 1.1045695-.8954305 2-2 2h-20c-1.1045695 0-2-.8954305-2-2zm-14 18v-1.89c-.00022873-.5873158.12810824-1.1675627.376-1.7l5.449-11.676c.4971645-1.05581669 1.5579903-1.73085226 2.725-1.734h3.45v11c.0041446.7042532.1960759 1.3946535.556 2h-3.113l.6-1.608c.13419-.3366643.0757217-.7195834-.1528226-1.0008614-.2285444-.281278-.5913892-.4168848-.9483921-.3544445-.3570028.0624403-.6522798.3131535-.7717853.6553059l-.788 2.108c-.025.066-.033.135-.056.2h-4.326c-.55228475 0-1 .4477153-1 1s.44771525 1 1 1h4v2c0 1.1045695-.8954305 2-2 2h-3c-1.1045695 0-2-.8954305-2-2zm3 4h2c1.1487161.0006041 2.2419626-.4939077 3-1.357.056.063.113.125.173.184.7479933.7526612 1.7658738 1.1750078 2.827 1.173h3c1.1487161.0006041 2.2419626-.4939077 3-1.357.056.063.113.125.173.184.7479933.7526612 1.7658738 1.1750078 2.827 1.173h3c1.1487161.0006041 2.2419626-.4939077 3-1.357.056.063.113.125.173.184.7479933.7526612 1.7658738 1.1750078 2.827 1.173h3c1.1487161.0006041 2.2419626-.4939077 3-1.357.056.063.113.125.173.184.7479933.7526612 1.7658738 1.1750078 2.827 1.173h3c1.1487161.0006041 2.2419626-.4939077 3-1.357.7580374.8630923 1.8512839 1.3576041 3 1.357h2v28h-24v-23c0-1.6568542-1.3431458-3-3-3h-14c-1.6568542 0-3 1.3431458-3 3v23h-2zm4 20h2c.5522847 0 1-.4477153 1-1s-.4477153-1-1-1h-2v-13c0-.5522847.4477153-1 1-1h14c.5522847 0 1 .4477153 1 1v23h-16zm47 12h-56v-1c0-.5522847.44771525-1 1-1h54c.5522847 0 1 .4477153 1 1z"/><path id="Shape" d="m23 32h-8c-1.1045695 0-2 .8954305-2 2v6c0 1.1045695.8954305 2 2 2h8c1.1045695 0 2-.8954305 2-2v-6c0-1.1045695-.8954305-2-2-2zm-8 8v-6h8v6z"/><path id="Shape" d="m34 48h14c1.6568542 0 3-1.3431458 3-3v-14c0-1.6568542-1.3431458-3-3-3h-14c-1.6568542 0-3 1.3431458-3 3v14c0 1.6568542 1.3431458 3 3 3zm7-14.78c.5466671.4993521 1.259601.7773963 2 .78h5c.3414397-.0033144.679743-.0655622 1-.184v3.184h-7v-1c0-.5522847-.4477153-1-1-1s-1 .4477153-1 1v1h-7v-3.184c.320257.1184378.6585603.1806856 1 .184h5c.740399-.0026037 1.4533329-.2806479 2-.78zm-8 11.78v-6h7v7h-6c-.5522847 0-1-.4477153-1-1zm15 1h-6v-7h7v6c0 .5522847-.4477153 1-1 1zm1-15c0 .5522847-.4477153 1-1 1h-5c-.5522847 0-1-.4477153-1-1v-1h6c.5522847 0 1 .4477153 1 1zm-15-1h6v1c0 .5522847-.4477153 1-1 1h-5c-.5522847 0-1-.4477153-1-1s.4477153-1 1-1z"/><path id="Shape" d="m23 15c1.1052828.0002994 2.1212013-.6071768 2.644-1.581.1771503-.2759259.4885331-.4358149.816-.419h7.08c.3277581-.0170248.6393866.1433723.816.42.5470648 1.019953 1.6320613 1.6342356 2.7881238 1.5785268 1.1560625-.0557089 2.1769662-.7714716 2.623424-1.839301.4464577-1.0678293.238828-2.2972399-.5335478-3.1592258.7733355-.86190369.9815717-2.0919288.5350292-3.16035082s-1.4681235-1.78445019-2.6247873-1.83971872c-1.1566639-.05526853-2.2418622.56009203-2.7882419 1.58106954-.1771503.27592586-.4885331.43581485-.816.419h-7.08c-.3277581.01702481-.6393866-.14337226-.816-.42-.5470648-1.019953-1.6320613-1.63423563-2.7881238-1.57852676-1.1560625.05570888-2.1769662.7714716-2.623424 1.83930092-.4464577 1.06782933-.238828 2.29723995.5335478 3.15922584-.788453.8815167-.985422 2.1440017-.5029675 3.2238015.4824546 1.0797997 1.5542887 1.7753835 2.7369675 1.7761985zm0-6c-.4890677-.00045865-.9060507-.35458548-.9857086-.83712261-.0796579-.48253712.2013831-.95189471.6643546-1.10951731.4629714-.15762261.9720246.04274064 1.203354.47363992.521979.9288057 1.5127953 1.49493151 2.578 1.473h7.08c1.0648802.02168851 2.0554334-.54390278 2.578-1.472.2309396-.43134733.7400812-.63224919 1.2033432-.47482639s.7445873.62693622.6649051 1.10968289c-.0796822.48274668-.4969697.83694706-.9862483.8371435-.5522847 0-1 .44771525-1 1 0 .5522847.4477153 1 1 1 .4890677.0004587.9060507.3545855.9857086.8371226s-.2013831.9518947-.6643546 1.1095173c-.4629714.1576226-.9720246-.0427406-1.203354-.4736399-.521979-.9288057-1.5127953-1.4949315-2.578-1.473h-7.08c-1.0648802-.0216885-2.0554334.5439028-2.578 1.472-.2309396.4313473-.7400812.6322492-1.2033432.4748264s-.7445873-.6269362-.6649051-1.1096829.4969697-.8369471.9862483-.8371435c.5522847 0 1-.4477153 1-1 0-.55228475-.4477153-1-1-1z"/></g></g></svg>