<svg id="Capa_1" enable-background="new 0 0 511.994 511.994" height="512" viewBox="0 0 511.994 511.994" width="512" xmlns="http://www.w3.org/2000/svg"><g><path d="m150.997 256v20.504c0 18.661-9.107 37.189-25.645 52.17-27.182 24.622-39.312 61.089-32.448 97.549 7.634 40.556 39.962 74.539 80.194 83.285 23.267 5.057 46.071 2.235 66.082-6.984 10.687-4.923 22.946-4.923 33.633 0 20.596 9.49 43.446 11.904 66.082 6.985 40.164-8.731 72.549-42.665 80.194-83.285 6.863-36.46-5.267-72.927-32.448-97.549-16.537-14.98-25.645-33.506-25.645-52.165v-13.142c0-60.098-42.957-112.377-105-112.366-57.618.011-104.999 46.641-104.999 104.998zm104.856-75.012c45.515 0 75.145 38.885 75.145 82.381v13.142c0 27.237 12.608 53.659 35.504 74.398 19.387 17.561 28.024 43.641 23.106 69.765-5.443 28.921-28.918 53.396-57.085 59.519-16.216 3.525-32.523 1.825-47.156-4.917-18.664-8.599-40.074-8.598-58.738 0-14.634 6.741-30.941 8.441-47.156 4.916-28.167-6.123-51.642-30.598-57.085-59.519-4.918-26.124 3.721-52.204 23.106-69.765 22.896-20.741 35.504-47.165 35.504-74.404v-20.504c-.001-40.992 33.199-75.012 74.855-75.012z"/><path d="m240.997 391h30v-30h30v-30h-30v-30h-30v30h-30v30h30z"/><path d="m390.997 196c0 24.813 20.187 45 45 45s45-20.187 45-45v-30c0-24.813-20.187-45-45-45s-45 20.187-45 45zm30-30c0-8.271 6.729-15 15-15s15 6.729 15 15v30c0 8.271-6.729 15-15 15s-15-6.729-15-15z"/><path d="m75.997 241c24.813 0 45-20.187 45-45v-30c0-24.813-20.187-45-45-45s-45 20.187-45 45v30c0 24.813 20.187 45 45 45zm-15-75c0-8.271 6.729-15 15-15s15 6.729 15 15v30c0 8.271-6.729 15-15 15s-15-6.729-15-15z"/><path d="m330.997 151c33.084 0 60-26.916 60-60v-31c0-33.084-26.916-60-60-60s-60 26.916-60 60v31c0 33.084 26.916 60 60 60zm-30-91c0-16.542 13.458-30 30-30s30 13.458 30 30v31c0 16.542-13.458 30-30 30s-30-13.458-30-30z"/><path d="m180.997 151c33.084 0 60-26.916 60-60v-31c0-33.084-26.916-60-60-60s-60 26.916-60 60v31c0 33.084 26.916 60 60 60zm-30-91c0-16.542 13.458-30 30-30s30 13.458 30 30v31c0 16.542-13.458 30-30 30s-30-13.458-30-30z"/></g></svg>