<svg id="bandaid" enable-background="new 0 0 300 300" height="512" viewBox="0 0 300 300" width="512" xmlns="http://www.w3.org/2000/svg"><g><path d="m229.291 71.929c-9.949-9.947-23.176-15.426-37.242-15.426s-27.293 5.479-37.238 15.426l-17.094 17.094-17.094-17.094c-9.945-9.947-23.172-15.426-37.238-15.426s-27.293 5.479-37.242 15.426c-20.531 20.533-20.535 53.943 0 74.479l17.094 17.094-17.094 17.094c-20.535 20.535-20.535 53.945 0 74.479 9.949 9.947 23.176 15.426 37.242 15.426s27.293-5.479 37.238-15.426l17.093-17.093 17.094 17.093c9.945 9.947 23.172 15.426 37.238 15.426s27.293-5.479 37.242-15.426c20.531-20.533 20.535-53.943 0-74.479l-17.095-17.093 17.095-17.094c20.536-20.537 20.536-53.947.001-74.48zm-177.492 68.822c-17.414-17.416-17.414-45.752 0-63.166 8.438-8.436 19.656-13.082 31.586-13.082s23.145 4.646 31.582 13.082l17.094 17.094-63.167 63.167zm171.836 45.5c17.414 17.416 17.414 45.752 0 63.166-8.438 8.436-19.656 13.082-31.586 13.082s-23.145-4.646-31.582-13.082l-17.094-17.093 63.168-63.166zm-108.669 63.166c-8.437 8.436-19.652 13.082-31.582 13.082s-23.148-4.646-31.586-13.082c-17.414-17.414-17.414-45.75 0-63.166l108.668-108.666c8.438-8.436 19.652-13.082 31.582-13.082s23.148 4.646 31.586 13.082c17.414 17.414 17.414 45.75 0 63.166z"/><path d="m247.717 45.501c2.211 0 4-1.791 4-4v-8c0-2.209-1.789-4-4-4s-4 1.791-4 4v8c0 2.209 1.789 4 4 4z"/><path d="m247.717 53.501c-2.211 0-4 1.791-4 4v8c0 2.209 1.789 4 4 4s4-1.791 4-4v-8c0-2.209-1.79-4-4-4z"/><path d="m231.717 53.501h8c2.211 0 4-1.791 4-4s-1.789-4-4-4h-8c-2.211 0-4 1.791-4 4s1.789 4 4 4z"/><path d="m267.717 49.501c0-2.209-1.789-4-4-4h-8c-2.211 0-4 1.791-4 4s1.789 4 4 4h8c2.21 0 4-1.791 4-4z"/><path d="m264.983 92.409c-2.362 0-4.277 1.915-4.277 4.277s1.915 4.276 4.277 4.276 4.276-1.915 4.276-4.276-1.915-4.277-4.276-4.277z"/><path d="m152.439 171.694c-1.637-1.16-2.574-2.844-2.574-4.617 0-7.152-5.367-13.035-12.219-13.393-3.559-.184-6.977 1.062-9.574 3.525-2.559 2.426-4.023 5.84-4.023 9.363v.504c0 1.775-.938 3.457-2.574 4.617-4.109 2.916-6.195 7.84-5.441 12.854.816 5.395 5.098 9.914 10.422 10.992 2.273.457 4.605.342 6.766-.344 2.477-.785 4.992-.785 7.477 0 1.293.412 2.656.619 4.027.619.914 0 1.832-.092 2.738-.275 5.32-1.078 9.602-5.6 10.418-10.992.753-5.017-1.333-9.943-5.443-12.853zm-2.473 11.662c-.316 2.1-2.039 3.926-4.094 4.344-.957.188-1.883.146-2.758-.129-2.016-.639-4.086-.959-6.156-.959-2.074 0-4.145.32-6.16.959-.871.279-1.805.318-2.758.129-2.055-.418-3.777-2.244-4.094-4.344-.309-2.039.5-3.961 2.156-5.137 3.723-2.639 5.945-6.803 5.945-11.143v-.504c0-1.359.543-2.625 1.531-3.561s2.242-1.391 3.648-1.34c2.555.135 4.637 2.559 4.637 5.404 0 4.336 2.223 8.5 5.945 11.143 1.662 1.178 2.467 3.097 2.158 5.138z"/><path d="m167.693 150.97c-6.754 0-12.246 5.494-12.246 12.246s5.492 12.246 12.246 12.246 12.246-5.494 12.246-12.246-5.492-12.246-12.246-12.246zm0 16.492c-2.34 0-4.246-1.904-4.246-4.246s1.906-4.246 4.246-4.246 4.246 1.904 4.246 4.246-1.906 4.246-4.246 4.246z"/><path d="m152.326 152.409c6.754 0 12.246-5.494 12.246-12.246s-5.492-12.246-12.246-12.246-12.246 5.494-12.246 12.246 5.492 12.246 12.246 12.246zm0-16.492c2.34 0 4.246 1.904 4.246 4.246s-1.906 4.246-4.246 4.246-4.246-1.904-4.246-4.246 1.906-4.246 4.246-4.246z"/><path d="m125.431 152.409c6.754 0 12.246-5.494 12.246-12.246s-5.492-12.246-12.246-12.246-12.246 5.494-12.246 12.246 5.492 12.246 12.246 12.246zm0-16.492c2.34 0 4.246 1.904 4.246 4.246s-1.906 4.246-4.246 4.246-4.246-1.904-4.246-4.246 1.907-4.246 4.246-4.246z"/><path d="m106.22 150.97c-6.754 0-12.246 5.494-12.246 12.246s5.492 12.246 12.246 12.246 12.246-5.494 12.246-12.246-5.492-12.246-12.246-12.246zm0 16.492c-2.34 0-4.246-1.904-4.246-4.246s1.906-4.246 4.246-4.246 4.246 1.904 4.246 4.246-1.906 4.246-4.246 4.246z"/><circle cx="203.717" cy="233.501" r="4"/><circle cx="207.717" cy="209.501" r="4"/><circle cx="179.717" cy="229.501" r="4"/><circle cx="67.717" cy="89.501" r="4"/><circle cx="63.717" cy="113.501" r="4"/><circle cx="91.717" cy="93.501" r="4"/></g></svg>