<svg id="Layer_3" enable-background="new 0 0 64 64" height="512" viewBox="0 0 64 64" width="512" xmlns="http://www.w3.org/2000/svg"><g><path d="m48 53c-1.654 0-3 1.346-3 3s1.346 3 3 3 3-1.346 3-3-1.346-3-3-3zm0 4c-.551 0-1-.448-1-1s.449-1 1-1 1 .448 1 1-.449 1-1 1z"/><path d="m14 53c-1.654 0-3 1.346-3 3s1.346 3 3 3 3-1.346 3-3-1.346-3-3-3zm0 4c-.551 0-1-.448-1-1s.449-1 1-1 1 .448 1 1-.449 1-1 1z"/><path d="m22 47h2v2h-2z"/><path d="m24 45h2v2h-2z"/><path d="m26 47h2v2h-2z"/><path d="m28 45h2v2h-2z"/><path d="m30 47h2v2h-2z"/><path d="m32 45h2v2h-2z"/><path d="m34 47h2v2h-2z"/><path d="m36 45h2v2h-2z"/><path d="m38 47h2v2h-2z"/><path d="m33 10h2v6h2v-6h2v-2h-6z"/><path d="m44 8c-1.654 0-3 1.346-3 3v5h2v-2h2v2h2v-5c0-1.654-1.346-3-3-3zm-1 4v-1c0-.552.449-1 1-1s1 .448 1 1v1z"/><path d="m53 8c0 .944-.37 1.86-1 2.559-.63-.699-1-1.615-1-2.559h-2c0 1.48.583 2.925 1.598 4-1.015 1.075-1.598 2.52-1.598 4h2c0-.944.37-1.86 1-2.559.63.699 1 1.615 1 2.559h2c0-1.48-.583-2.925-1.598-4 1.015-1.075 1.598-2.52 1.598-4z"/><path d="m57 8h2v8h-2z"/><path d="m50 27c.552 0 1-.447 1-1v-3h11c.552 0 1-.447 1-1v-20c0-.553-.448-1-1-1h-32c-.552 0-1 .447-1 1v20c0 .553.448 1 1 1h11v3c0 .553.448 1 1 1h1v5.331l-.162-.149c-1.645-1.518-3.656-2.527-5.815-2.952v-3.23c0-.553-.448-1-1-1h-16.023c-.552 0-1 .447-1 1v3.354c-2.874.71-5.414 2.464-7.098 4.99l-4.437 6.656h-1.465c-2.757 0-5 2.243-5 5v8c0 1.654 1.346 3 3 3h3.08c.488 3.386 3.401 6 6.92 6s6.432-2.614 6.92-6h20.16c.488 3.386 3.401 6 6.92 6s6.432-2.614 6.92-6h5.08c1.654 0 3-1.346 3-3v-8c0-2.757-2.243-5-5-5h-5.609l-3.391-3.13v-10.87zm-19-24h30v18h-30zm18 20v2h-6v-2zm-28 4h14.023v2.015c-.108-.003-.215-.015-.324-.015h-12.812c-.299 0-.592.033-.887.055zm5.023 14v-10h2v10zm-12.457-5.547c1.859-2.788 4.97-4.453 8.321-4.453h2.136v10h-14.155zm-8.566 7.731v2.816c0 1.302-.839 2.402-2 2.816v-2.816c0-1.302.839-2.402 2-2.816zm9 17.816c-2.757 0-5-2.243-5-5s2.243-5 5-5 5 2.243 5 5-2.243 5-5 5zm34 0c-2.757 0-5-2.243-5-5s2.243-5 5-5 5 2.243 5 5-2.243 5-5 5zm12-6h-5.08c-.488-3.386-3.401-6-6.92-6s-6.432 2.614-6.92 6h-20.16c-.488-3.386-3.401-6-6.92-6s-6.432 2.614-6.92 6h-3.08c-.551 0-1-.448-1-1v-3.101c2.279-.465 4-2.485 4-4.899v-3h48v2c0 2.206 1.794 4 4 4h2v5c0 .552-.449 1-1 1zm1-9v1h-2c-1.103 0-2-.897-2-2v-2h1c1.654 0 3 1.346 3 3zm-30.977-5v-10h4.676c2.521 0 4.93.941 6.783 2.651l7.961 7.349zm16.977-4.976-2-1.846v-7.178h2z"/></g></svg>