<svg id="Capa_1" enable-background="new 0 0 480.024 480.024" height="512" viewBox="0 0 480.024 480.024" width="512" xmlns="http://www.w3.org/2000/svg"><path d="m472.012 72.024h-138.272c-13.811-51.764-66.97-82.532-118.734-68.721-33.558 8.953-59.768 35.164-68.721 68.721h-138.273c-4.418 0-8 3.582-8 8v104c0 4.418 3.582 8 8 8h8v280c0 4.418 3.582 8 8 8h432c4.418 0 8-3.582 8-8v-280h8c4.418 0 8-3.582 8-8v-104c0-4.419-3.582-8-8-8zm-232-56c44.735 0 81 36.265 81 81s-36.265 81-81 81-81-36.265-81-81c.051-44.714 36.286-80.95 81-81zm-13.766 336 10.666 32h-28.9v-32zm-18.234-16v-8h16v8zm26.557-65.969c-1.425 14.23-4.238 28.287-8.4 41.969h-18.157v-88h31.16zm-218.557-182.031h127.421c-.274 2.964-.421 5.965-.421 9-.019 16.449 4.172 32.628 12.173 47h-139.173zm128 376h-112v-208h112zm0-224h-112v-48h112zm-128-64v-16h150.307c5.153 6.022 11.018 11.394 17.468 16zm432 288h-288v-272h32v232c0 4.418 3.582 8 8 8h248zm0-48h-240v-16h240zm-208-73.3v-21.461c5.27-16.113 8.783-32.748 10.478-49.616l4.762-47.623h145.52l4.762 47.623c1.695 16.868 5.208 33.503 10.478 49.616v21.461l-13.766 41.3h-148.468zm208 41.3h-28.9l10.666-32h18.234zm0-48h-16v-8h16zm0-24h-18.154c-4.162-13.682-6.975-27.739-8.4-41.969l-4.606-46.031h31.16zm0-104h-240v-16h12.357c12.96 2.667 26.326 2.667 39.286 0h188.357zm16-32h-167.775c6.45-4.606 12.315-9.978 17.468-16h150.307zm0-32h-139.173c8.001-14.372 12.192-30.551 12.173-47 0-3.035-.147-6.036-.421-9h127.421z"/><path d="m202.597 118.184c-5.982 11.833-1.239 26.275 10.593 32.257 3.355 1.696 7.062 2.581 10.822 2.583h.383 31.617c13.255.006 24.005-10.735 24.01-23.99.004-10.578-6.917-19.912-17.041-22.979-3.842-12.686-17.241-19.855-29.927-16.012-7.678 2.326-13.687 8.334-16.012 16.012-6.276 1.888-11.5 6.274-14.445 12.129zm14.277 7.225c1.361-2.694 4.127-4.388 7.145-4.376 4.416-.004 7.993-3.584 7.993-8v-.069c.017-4.418 3.612-7.987 8.03-7.97s7.987 3.612 7.97 8.03c0 4.418 3.582 8 8 8s8 3.582 8 8-3.582 8-8 8h-31.69-.16c-4.417.084-8.066-3.43-8.15-7.847-.025-1.308.271-2.601.862-3.768z"/><path d="m240.012 81.024c11.046 0 20-8.954 20-20s-8.954-20-20-20-20 8.954-20 20c.012 11.04 8.959 19.987 20 20zm0-24c2.209 0 4 1.791 4 4s-1.791 4-4 4-4-1.791-4-4 1.791-4 4-4z"/><path d="m216.012 85.024c0-11.046-8.954-20-20-20s-20 8.954-20 20 8.954 20 20 20c11.04-.013 19.987-8.96 20-20zm-24 0c0-2.209 1.791-4 4-4s4 1.791 4 4-1.791 4-4 4-4-1.791-4-4z"/><path d="m284.012 105.024c11.046 0 20-8.954 20-20s-8.954-20-20-20-20 8.954-20 20c.012 11.04 8.959 19.987 20 20zm0-24c2.209 0 4 1.791 4 4s-1.791 4-4 4-4-1.791-4-4 1.791-4 4-4z"/><path d="m272.012 336.024h24v24c0 4.418 3.582 8 8 8h48c4.418 0 8-3.582 8-8v-24h24c4.418 0 8-3.582 8-8v-48c0-4.418-3.582-8-8-8h-24v-24c0-4.418-3.582-8-8-8h-48c-4.418 0-8 3.582-8 8v24h-24c-4.418 0-8 3.582-8 8v48c0 4.418 3.582 8 8 8zm8-48h24c4.418 0 8-3.582 8-8v-24h32v24c0 4.418 3.582 8 8 8h24v32h-24c-4.418 0-8 3.582-8 8v24h-32v-24c0-4.418-3.582-8-8-8h-24z"/><path d="m56.012 416.024c4.418 0 8-3.582 8-8v-8h8c4.418 0 8-3.582 8-8s-3.582-8-8-8h-16c-4.418 0-8 3.582-8 8v16c0 4.418 3.582 8 8 8z"/><path d="m48.012 208.024h16v16h-16z"/><path d="m80.012 208.024h48v16h-48z"/><path d="m56.012 368.024h64c4.418 0 8-3.582 8-8v-80c0-4.418-3.582-8-8-8h-64c-4.418 0-8 3.582-8 8v80c0 4.418 3.582 8 8 8zm56-16h-16.454l16.454-23.036zm-48-64h24l-24 32zm0 58.667 44-58.667h4v13.437l-36.117 50.563h-11.883z"/></svg>