<svg height="496pt" viewBox="-80 0 496 496" width="496pt" xmlns="http://www.w3.org/2000/svg"><path d="m160 192h16v32h-16zm0 0"/><path d="m132 200c6.617188 0 12-5.382812 12-12s-5.382812-12-12-12-12 5.382812-12 12 5.382812 12 12 12zm0 0"/><path d="m204 200c6.617188 0 12-5.382812 12-12s-5.382812-12-12-12-12 5.382812-12 12 5.382812 12 12 12zm0 0"/><path d="m296.472656 309.921875-55.550781-17.089844c16.132813-13.886719 28.269531-32.246093 34.453125-53.175781 20.457031-1.746094 36.625-18.753906 36.625-39.65625 0-15.542969-9-28.894531-21.984375-35.511719l18.785156-14.089843c2.015625-1.503907 3.199219-3.878907 3.199219-6.398438v-44.6875l8.96875-8.96875c4.535156-4.527344 7.03125-10.558594 7.03125-16.976562v-6.816407c0-9.613281-5.710938-18.269531-14.542969-22.054687l-66.082031-28.320313c-25.039062-10.734375-51.542969-16.175781-78.78125-16.175781h-1.179688c-27.238281 0-53.742187 5.441406-78.78125 16.167969l-66.082031 28.320312c-8.839843 3.792969-14.550781 12.449219-14.550781 22.0625v6.824219c0 6.410156 2.496094 12.441406 7.03125 16.976562l8.96875 8.960938v44.6875c0 2.519531 1.183594 4.886719 3.199219 6.398438l18.785156 14.089843c-12.984375 6.617188-21.984375 19.96875-21.984375 35.511719 0 20.902344 16.167969 37.910156 36.632812 39.65625 6.183594 20.929688 18.320313 39.289062 34.457032 53.175781l-55.554688 17.089844c-23.648437 7.277344-39.535156 28.796875-39.535156 53.535156v124.542969c0 4.425781 3.585938 8 8 8h320c4.414062 0 8-3.574219 8-8v-124.542969c0-24.738281-15.886719-46.257812-39.527344-53.535156zm-128.472656 22.765625-13.601562-13.597656c4.472656.542968 8.992187.910156 13.601562.910156s9.128906-.367188 13.601562-.910156zm-44.664062-22.039062 30.425781 30.421874-21.144531 8.464844-15.753907-42.007812c2.128907 1.097656 4.273438 2.160156 6.472657 3.121094zm89.328124 0c2.199219-.960938 4.34375-2.023438 6.464844-3.121094l-15.753906 42.007812-21.144531-8.464844zm66.230469-87.777344c.648438-4.878906 1.105469-9.816406 1.105469-14.871094v-30.527344c9.289062 3.3125 16 12.113282 16 22.527344 0 10.824219-7.238281 19.886719-17.105469 22.871094zm-254.894531-156.320313c0-3.199219 1.902344-6.085937 4.847656-7.351562l66.082032-28.320313c23.03125-9.878906 47.414062-14.878906 72.476562-14.878906h1.179688c25.0625 0 49.445312 5 72.476562 14.871094l66.082031 28.320312c2.953125 1.273438 4.855469 4.152344 4.855469 7.359375v6.824219c0 2.136719-.832031 4.152344-2.34375 5.664062l-8.96875 8.960938h-265.375l-8.96875-8.96875c-1.511719-1.511719-2.34375-3.527344-2.34375-5.664062zm16 37.449219h256v36l-16 12v-24c0-4.414062-3.585938-8-8-8h-208c-4.414062 0-8 3.585938-8 8v24l-16-12zm211.335938 32c-26.488282 10.574219-54.390626 16-83.710938 16-28.609375 0-56.472656-5.425781-82.953125-16zm-211.335938 64c0-10.414062 6.710938-19.214844 16-22.527344v30.527344c0 5.054688.457031 9.992188 1.105469 14.871094-9.859375-2.984375-17.105469-12.046875-17.105469-22.871094zm32 8v-59.871094l1.078125.464844c30.050781 12.878906 61.859375 19.40625 95.296875 19.40625 32.679688 0 64.496094-6.527344 94.546875-19.40625l1.078125-.464844v59.871094c0 52.9375-43.0625 96-96 96s-96-43.0625-96-96zm-27.769531 117.214844 15.632812-4.808594 45.824219 72c-7.703125 4.320312-14.976562 9.320312-21.609375 15.089844l-49.46875-77.742188c2.957031-1.867187 6.132813-3.464844 9.621094-4.539062zm152.175781 87.058594c-3.726562-1.167969-7.765625.558593-9.519531 4.0625l-.75 1.503906c-6.632813 13.265625-10.136719 28.105468-10.136719 42.9375v19.222656h-16v-19.222656c0-14.832032-3.503906-29.671875-10.136719-42.929688l-.75-1.503906c-1.753906-3.503906-5.785156-5.207031-9.519531-4.0625-32.066406 9.917969-56.074219 35.597656-64.335938 67.726562h-16.632812c11.09375-50.761718 56.558594-88.007812 109.375-88.007812s98.28125 37.246094 109.375 88h-16.632812c-8.269532-32.128906-32.269532-57.808594-64.335938-67.726562zm47.914062 67.726562h-52.320312v-19.222656c0-10.5625 2.136719-21.144532 6.207031-30.890625 22.191407 9.007812 39.015625 27.378906 46.113281 50.113281zm-100.320312 0h-52.320312c7.097656-22.734375 23.921874-41.105469 46.113281-50.121094 4.070312 9.753906 6.207031 20.328125 6.207031 30.898438zm-128-116.542969c0-8.226562 2.542969-15.898437 6.871094-22.328125l49.617187 77.960938c-15.03125 16.847656-25.679687 37.6875-30.097656 60.910156h-26.390625zm304 116.542969h-26.382812c-11.371094-59.742188-64.089844-104-125.617188-104-16.816406 0-32.953125 3.375-47.808594 9.398438l-44.464844-69.871094 24.25-7.457032 20.527344 54.746094c.761719 2.007813 2.296875 3.640625 4.265625 4.503906 1.03125.457032 2.125.679688 3.230469.679688 1.007812 0 2.015625-.183594 2.976562-.566406l37.023438-14.816406 37.023438 14.808593c.960937.390625 1.96875.574219 2.976562.574219 1.105469 0 2.199219-.222656 3.230469-.679688 1.96875-.863281 3.503906-2.496093 4.265625-4.503906l20.527344-54.746094 55.746093 17.152344c16.886719 5.191406 28.238281 20.5625 28.238281 38.234375v116.542969zm0 0"/><path d="m168 288c30.878906 0 56-25.128906 56-56h-16c0 22.054688-17.945312 40-40 40s-40-17.945312-40-40h-16c0 30.871094 25.121094 56 56 56zm0 0"/><path d="m160 56h16v16h-16zm0 0"/><path d="m176 40h16v16h-16zm0 0"/><path d="m192 56h16v16h-16zm0 0"/><path d="m144 40h16v16h-16zm0 0"/><path d="m128 56h16v16h-16zm0 0"/><path d="m208 40h16v16h-16zm0 0"/><path d="m112 40h16v16h-16zm0 0"/></svg>