<svg id="dog_x5F_syringe" enable-background="new 0 0 300 300" height="512" viewBox="0 0 300 300" width="512" xmlns="http://www.w3.org/2000/svg"><g><path d="m237.727 260h-37.832c9.25-23.248 5.949-47.465 5.793-48.566-.02-.135-.047-.27-.082-.404-10.52-42.088-60.27-46.566-70.133-47.037-2.371-.111-4.477-1.297-5.777-3.248-1.711-2.568-1.613-5.967.25-8.459 5.445-7.301 8.363-13.502 8.672-18.43l1.688-26.979c.441-7.045-1.98-13.756-6.812-18.9s-11.381-7.977-18.439-7.977h-14.395c-8.117 0-15.75 3.162-21.492 8.902l-7.098 7.098h-6.383c-11.008 0-19.961 8.955-19.961 19.961 0 8.865 5.953 16.758 14.477 19.191l11.973 3.422c-5.246 12.479-17.723 48.723 1.355 74.641 4.93 6.695 7.055 14.496 5.984 21.967l-1.257 8.818h-.531c-11.027 0-20 8.973-20 20 0 2.209 1.789 4 4 4h32c1.723 0 3.25-1.102 3.793-2.734l10.032-30.097c4.345 3.861 11.149 9.409 17.985 13.065-4.724 3.662-7.811 9.341-7.811 15.766 0 2.209 1.789 4 4 4h116c2.211 0 4-1.791 4-4s-1.788-4-3.999-4zm-46.524 0h-64.793c1.652-4.656 6.102-8 11.316-8 1.305 0 2.523-.637 3.273-1.703s.93-2.434.488-3.66c-.07-.197-7.027-19.846.727-30.891 3.609-5.141 10.176-7.746 19.512-7.746 2.211 0 4-1.791 4-4s-1.789-4-4-4c-12.109 0-20.883 3.758-26.074 11.172-6.847 9.775-5.369 23.314-3.585 31.381-7.639-3.269-17.021-11.225-21.833-15.762l7.34-25.691c.605-2.125-.625-4.338-2.75-4.945-2.102-.6-4.336.619-4.945 2.746l-7.996 27.986-11.039 33.113h-24.434c1.652-4.656 6.102-8 11.316-8h4c1.992 0 3.68-1.463 3.961-3.434l1.75-12.252c1.367-9.561-1.281-19.447-7.461-27.842-19.98-27.139 1.113-70.254 1.328-70.686.531-1.064.562-2.311.082-3.398s-1.418-1.908-2.562-2.234l-16.426-4.693c-5.105-1.459-8.672-6.188-8.672-11.5 0-6.596 5.367-11.961 11.961-11.961h8.039c1.062 0 2.078-.422 2.828-1.172l8.27-8.27c4.231-4.228 9.856-6.558 15.836-6.558h14.395c4.824 0 9.305 1.938 12.609 5.455 3.305 3.516 4.957 8.105 4.656 12.922l-1.688 26.979c-.203 3.258-2.727 8.281-7.098 14.145-.191.256-.333.536-.506.801-.284-.101-.549-.241-.861-.275-7.633-.85-12.688-3.621-15.453-8.475-6.984-12.27 2.559-33.684 2.656-33.898.91-2.012.016-4.383-1.992-5.293-2.016-.912-4.383-.027-5.293 1.986-.469 1.025-11.324 25.32-2.332 41.145 3.958 6.966 10.959 11.109 20.775 12.368-.178 3.234.637 6.513 2.51 9.323 2.684 4.027 7.191 6.57 12.051 6.803 8.855.422 53.426 4.373 62.699 40.768.298 2.359 2.946 26.203-6.585 47.246z"/><path d="m53.727 48c2.211 0 4-1.791 4-4v-8c0-2.209-1.789-4-4-4s-4 1.791-4 4v8c0 2.209 1.789 4 4 4z"/><path d="m53.727 56c-2.211 0-4 1.791-4 4v8c0 2.209 1.789 4 4 4s4-1.791 4-4v-8c0-2.209-1.789-4-4-4z"/><path d="m49.727 52c0-2.209-1.789-4-4-4h-8c-2.211 0-4 1.791-4 4s1.789 4 4 4h8c2.211 0 4-1.791 4-4z"/><path d="m61.727 56h8c2.211 0 4-1.791 4-4s-1.789-4-4-4h-8c-2.211 0-4 1.791-4 4s1.789 4 4 4z"/><path d="m108.018 66.119c2.362 0 4.277-1.915 4.277-4.276s-1.915-4.277-4.277-4.277-4.276 1.915-4.276 4.277 1.914 4.276 4.276 4.276z"/><path d="m265.102 58.922-17.602-17.604c-1.562-1.562-4.094-1.562-5.656 0s-1.562 4.094 0 5.656l5.638 5.638-11.907 11.986-10.079-10.078c-1.562-1.562-4.094-1.562-5.656 0l-60.145 60.145c-.75.75-1.172 1.768-1.172 2.828s.422 2.078 1.172 2.828l4.506 4.506-4.506 4.508c-1.562 1.562-1.562 4.094 0 5.656l2.985 2.985-10.888 10.96c-1.559 1.566-1.551 4.1.016 5.656.781.775 1.801 1.162 2.82 1.162 1.027 0 2.055-.395 2.836-1.182l10.87-10.942 3.095 3.095c.781.781 1.805 1.172 2.828 1.172s2.047-.391 2.828-1.172l4.508-4.507 4.507 4.507c.781.781 1.805 1.172 2.828 1.172s2.047-.391 2.828-1.172l60.145-60.145c.75-.75 1.172-1.768 1.172-2.828s-.422-2.078-1.172-2.828l-10.673-10.672 11.906-11.986 6.31 6.311c.781.781 1.805 1.172 2.828 1.172s2.047-.391 2.828-1.172c1.564-1.561 1.564-4.093.002-5.655zm-42.434 4.084 7.27 7.269-16.293 16.402-7.324-7.323zm-48.41 75.236-6.078-6.078 1.679-1.679 6.079 6.079zm14.672 0-20.75-20.748 32.484-32.484 20.75 20.748zm54.488-54.488-16.348 16.348-7.771-7.771 16.293-16.402z"/></g></svg>