<?xml version="1.0"?>
<svg xmlns="http://www.w3.org/2000/svg" viewBox="0 0 64 64" width="512" height="512"><g id="Truck"><path d="M61,52H60V39a1,1,0,0,0-.14-.51l-6-10A.99.99,0,0,0,53,28H39a1,1,0,0,0-1,1V46H37V26h6a1,1,0,0,0,1-1V21a1,1,0,0,0-1-1H32a1,1,0,0,0-1,1v6H29a6,6,0,0,0-6-6c-.12,0-.23.01-.34.02a5.992,5.992,0,0,0-11.32.01c-.11-.01-.22-.03-.34-.03a6,6,0,0,0-6,6H3a1,1,0,0,0-1,1v4a.292.292,0,0,0,.02.09.215.215,0,0,0,0,.08l3,17A.989.989,0,0,0,6,50H7v2H5a1,1,0,0,0-1,1v2a3.009,3.009,0,0,0,3,3h3.68a6.993,6.993,0,0,0,12.64,0H42.68a6.993,6.993,0,0,0,12.64,0H59a3.009,3.009,0,0,0,3-3V53A1,1,0,0,0,61,52ZM44,30h8.43l4.8,8H54V36a1,1,0,0,0-2,0v2H45a1,1,0,0,1-1-1ZM38,48v4H29V48ZM11,23a4,4,0,0,1,2.4.8,1,1,0,1,0,1.2-1.6,6.064,6.064,0,0,0-1.29-.72,3.989,3.989,0,0,1,7.62.81A3.628,3.628,0,0,1,21,23a3.986,3.986,0,0,1-.33,1.6,1.006,1.006,0,0,0,.51,1.32,1.14,1.14,0,0,0,.4.08.989.989,0,0,0,.92-.6A6,6,0,0,0,23,23a4,4,0,0,1,4,4H7A4,4,0,0,1,11,23ZM4,29H32a1,1,0,0,0,1-1V22h9v2H36a1,1,0,0,0-1,1v6H4Zm27,4v5.5a.5.5,0,0,1-1,0V33Zm-7,0v5.5a.5.5,0,0,1-1,0V33Zm-7,0v5.5a.5.5,0,0,1-1,0V33Zm-7,0v5.5a.5.5,0,0,1-1,0V33ZM6.84,48,4.19,33H7v5.5a2.5,2.5,0,0,0,5,0V33h2v5.5a2.5,2.5,0,0,0,5,0V33h2v5.5a2.5,2.5,0,0,0,5,0V33h2v5.5a2.5,2.5,0,0,0,5,0V33h2V46H28a1,1,0,0,0-1,1v1Zm3.24,8H7a1,1,0,0,1-1-1V54h4.08a6.29,6.29,0,0,0,0,2Zm.6-4H9V50h3.11A6.96,6.96,0,0,0,10.68,52ZM17,60a5,5,0,1,1,5-5A5,5,0,0,1,17,60Zm4.89-10H27v2H23.32A6.96,6.96,0,0,0,21.89,50Zm20.19,6H23.92a6.29,6.29,0,0,0,0-2H42.08a6.29,6.29,0,0,0,0,2ZM49,60a5,5,0,1,1,5-5A5,5,0,0,1,49,60Zm0-12a7.01,7.01,0,0,0-6.32,4H40V30h2v7a3.009,3.009,0,0,0,3,3H58v2H55a3,3,0,0,0,0,6h3v4H55.32A7.01,7.01,0,0,0,49,48Zm9-4v2H55a1,1,0,0,1,0-2Zm2,11a1,1,0,0,1-1,1H55.92a6.29,6.29,0,0,0,0-2H60Z"/><path d="M49,52a3,3,0,1,0,3,3A3,3,0,0,0,49,52Zm0,4a1,1,0,1,1,1-1A1,1,0,0,1,49,56Z"/><path d="M17,52a3,3,0,1,0,3,3A3,3,0,0,0,17,52Zm0,4a1,1,0,1,1,1-1A1,1,0,0,1,17,56Z"/><path d="M44,44h2a1,1,0,0,0,0-2H44a1,1,0,0,0,0,2Z"/><path d="M11,24H10a1,1,0,0,0,0,2h1a1,1,0,0,0,0-2Z"/><path d="M19,21H18a1,1,0,0,0,0,2h1a1,1,0,0,0,0-2Z"/><path d="M17,24H16a1,1,0,0,0,0,2h1a1,1,0,0,0,0-2Z"/></g></svg>
