<svg id="Capa_1" enable-background="new 0 0 478.637 478.637" height="512" viewBox="0 0 478.637 478.637" width="512" xmlns="http://www.w3.org/2000/svg"><path d="m35.318 478.637h392c4.418 0 8-3.582 8-8v-16c-.025-22.081-17.919-39.975-40-40h-10.381l7.3-41.556 22.485-9.886c2.449-1.076 4.198-3.305 4.661-5.94l23.517-133.951c.764-4.352-2.145-8.499-6.497-9.262-.001 0-.002 0-.003-.001l-15.759-2.766 5.534-31.518 15.758 2.766c4.347.768 8.493-2.133 9.26-6.48.001-.007.002-.013.004-.02.764-4.352-2.145-8.499-6.497-9.262-.001 0-.002 0-.003-.001l-47.278-8.3c-4.352-.764-8.499 2.144-9.263 6.496s2.144 8.499 6.496 9.263l15.759 2.767-5.534 31.518-15.752-2.767c-4.352-.764-8.499 2.144-9.263 6.496 0 .001-.001.003-.001.004l-23.519 133.951c-.462 2.635.423 5.326 2.359 7.172l17.773 16.954-7.782 44.323h-71.674l37.552-16.689c2.888-1.285 4.749-4.15 4.748-7.311v-56c-.01-8.832-7.168-15.99-16-16h-42.584l-5.942-14.855c-6.031-15.221-20.766-25.198-37.139-25.145h-59.965c-11.426.003-22.306 4.888-29.9 13.425l-52.063 58.575h-60.407c-4.418 0-8 3.582-8 8v112c0 4.419 3.582 8 8 8zm382.558-251.6 7.879 1.384-5.537 31.516-7.879-1.383zm-23.639-4.15 7.879 1.383-5.534 31.519-7.879-1.384zm-21.395 121.85 13.094-74.578 15.754 2.766h.01l15.754 2.766-2.766 15.759-15.76-2.767-2.767 15.759 15.76 2.767-2.767 15.759-15.759-2.767-2.767 15.759 15.759 2.767-2.026 11.541-17.605 7.74zm-65.524-10.1h16v16h-10c-3.312-.003-5.997-2.688-6-6zm-264 32h56c2.285 0 4.461-.977 5.979-2.685l18.021-20.273v43.181c0 22.091 17.909 40 40 40s40-17.909 40-40v-68.223c0-4.418-3.582-8-8-8s-8 3.582-8 8v68.223c0 13.255-10.745 24-24 24s-24-10.745-24-24v-60.223c-.001-.301-.019-.601-.053-.9l20.486-23.047c4.556-5.121 11.083-8.051 17.937-8.053h59.965c9.824-.032 18.665 5.954 22.283 15.087l7.954 19.884c1.215 3.037 4.157 5.029 7.428 5.029h16v10c.014 12.145 9.855 21.986 22 22h10v18.8l-65.7 29.2h-11.88l-21.984-14.656c-3.663-2.47-8.635-1.503-11.105 2.161-2.47 3.663-1.503 8.635 2.161 11.105.023.015.046.031.069.046l24 16c1.315.877 2.86 1.344 4.44 1.344h152c13.249.015 23.985 10.751 24 24v8h-376v-96z"/><path d="m243.318 350.637c4.418 0 8-3.582 8-8v-8c0-4.418-3.582-8-8-8s-8 3.582-8 8v8c0 4.419 3.582 8 8 8z"/><path d="m337.856 57.794h-20v-20c0-4.418-3.582-8-8-8h-32c-4.418 0-8 3.582-8 8v20h-20c-4.418 0-8 3.582-8 8v32c0 4.418 3.582 8 8 8h20v20c0 4.418 3.582 8 8 8h32c4.418 0 8-3.582 8-8v-20h20c4.418 0 8-3.582 8-8v-32c0-4.418-3.581-8-8-8zm-8 32h-20c-4.418 0-8 3.582-8 8v20h-16v-20c0-4.418-3.582-8-8-8h-20v-16h20c4.418 0 8-3.582 8-8v-20h16v20c0 4.418 3.582 8 8 8h20z"/><path d="m348.776 21.362c-36.816-31.747-92.398-27.637-124.144 9.18s-27.637 92.398 9.18 124.144c29.646 25.563 72.612 28.477 105.438 7.151l30.3 2.061c4.408.301 8.225-3.029 8.526-7.437.052-.759-.005-1.521-.168-2.263l-6.507-29.661c16.258-35.594 7.036-77.649-22.625-103.175zm6.408 103.927 4.808 21.925-22.394-1.523c-1.819-.128-3.627.373-5.12 1.42-32.63 22.727-77.505 14.698-100.232-17.932s-14.698-77.505 17.932-100.232 77.505-14.698 100.232 17.932c15.017 21.561 17.096 49.591 5.425 73.132-.812 1.634-1.042 3.496-.651 5.278z"/></svg>