<svg id="Capa_1" enable-background="new 0 0 512 512" height="512" viewBox="0 0 512 512" width="512" xmlns="http://www.w3.org/2000/svg"><g><g><path d="m204.648 309.172 2.402-4.451c13.006-24.108 14.458-52.793 3.953-78.091l-17.735-42.708c-9.939-23.935-21.438-47.192-34.423-69.622l-59.585-102.931c-4.446-7.679-16.202-2.797-13.9 5.772l30.854 114.861c6.723 25.029 15.082 49.591 25.021 73.526l42.601 102.59c3.727 8.975 16.199 9.606 20.812 1.054z" fill="#f1f4f6"/></g><g><path d="m211.003 226.629-17.735-42.708c-9.939-23.935-21.438-47.193-34.423-69.622l-59.585-102.93c-4.446-7.679-16.202-2.797-13.9 5.772l8.487 31.595 37.954 65.563c12.984 22.43 24.483 45.687 34.423 69.622l29.067 69.998c3.335 8.032 2.874 17.14-1.255 24.794l-12.664 23.473 2.463 5.932c3.727 8.974 16.198 9.605 20.812 1.053l2.402-4.451c13.007-24.108 14.459-52.793 3.954-78.091z" fill="#dfeaef"/></g><g><path d="m162.655 309.172-2.402-4.451c-13.006-24.108-14.458-52.793-3.953-78.091l17.735-42.708c9.939-23.935 21.438-47.192 34.423-69.622l59.586-102.93c4.445-7.679 16.201-2.797 13.899 5.772l-30.854 114.861c-6.723 25.029-15.082 49.591-25.021 73.526l-42.601 102.59c-3.726 8.974-16.198 9.605-20.812 1.053z" fill="#f1f4f6"/></g><g><path d="m268.044 11.369-18.462 31.891-21.954 81.73c-6.723 25.029-15.082 49.591-25.021 73.526l-42.601 102.59c-.24.577-.518 1.117-.825 1.624l3.475 6.441c4.614 8.552 17.086 7.921 20.812-1.053l42.601-102.59c9.939-23.935 18.297-48.497 25.021-73.526l30.854-114.861c2.301-8.569-9.455-13.451-13.9-5.772z" fill="#dfeaef"/></g><g><path d="m410.253 15.439h-62.563c-9.237 0-17.082 7.559-16.909 16.794.168 8.956 7.48 16.165 16.477 16.165h51.586c10.016 0 18.136 8.12 18.136 18.136v169.753c0 13.538-10.974 24.512-24.512 24.512h-16.815v118.416c0 10.077.874 20.136 2.611 30.062l12.677 72.429c1.772 10.126 10.105 18.032 20.362 18.712 11.369.755 21.331-7.18 23.267-18.244l12.759-72.896c1.737-9.927 2.611-19.985 2.611-30.063v-324.089c0-21.919-17.769-39.687-39.687-39.687z" fill="#756e78"/></g><g><path d="m410.253 15.439h-21.692c21.918 0 39.687 17.768 39.687 39.687v324.089c0 10.078-.874 20.136-2.611 30.063l-12.759 72.896c-1.172 6.698-5.296 12.232-10.881 15.403 2.788 1.603 5.94 2.617 9.306 2.841 11.369.755 21.33-7.18 23.267-18.244l12.759-72.896c1.737-9.927 2.611-19.986 2.611-30.063v-324.089c0-21.919-17.769-39.687-39.687-39.687z" fill="#665e66"/></g><g><path d="m175.044 232.979c0 4.974 4.032 9.006 9.006 9.006s9.006-4.032 9.006-9.006-4.032-9.006-9.006-9.006c-4.974.001-9.006 4.032-9.006 9.006z"/><path d="m328.137 493.525c-6.387 3.542-13.773 4.386-20.795 2.373-5.997-1.719-11.11-5.348-14.683-10.349 11.435-10.192 18.654-25.019 18.654-41.506 0-30.663-24.947-55.609-55.609-55.609-1.384 0-2.751.068-4.11.168l-4.761-17.523c-.756-2.782-2.527-5.178-4.984-6.744-10.5-6.699-18.698-16.809-23.083-28.467l-8.235-21.895c.559-.824 2.61-4.753 3.131-5.686 12.158-22.537 15.061-48.455 8.221-73.09l11.124-26.788c10.028-24.15 18.553-49.202 25.338-74.458l30.854-114.861c2.023-7.529-1.592-14.876-8.793-17.866-7.2-2.992-14.957-.366-18.863 6.381l-19.254 33.26c-2.079 3.59-.852 8.186 2.738 10.265 3.594 2.079 8.187.853 10.266-2.738l19.254-33.26c.012-.021.023-.04.033-.057.042.014.086.032.125.052-.004.02-.01.041-.016.064l-30.854 114.861c-6.615 24.624-14.926 49.048-24.704 72.594l-42.601 102.59c-1.794 3.292-5.142 3.46-7.263.367 0 0-2.402-4.451-2.402-4.451-11.985-22.218-13.307-48.331-3.626-71.644l17.735-42.708c9.78-23.552 21.215-46.679 33.987-68.74l23.328-40.296c2.079-3.591.853-8.187-2.738-10.265-3.592-2.079-8.186-.852-10.266 2.738l-23.328 40.296c-6.448 11.138-12.559 22.544-18.304 34.133-5.739-11.573-11.865-23.008-18.305-34.133l-59.586-102.928c-3.908-6.747-11.663-9.37-18.863-6.381-7.2 2.99-10.816 10.337-8.794 17.866l30.854 114.861c6.784 25.256 15.31 50.307 25.338 74.458l11.119 26.777c-6.807 24.404-3.985 50.465 8.226 73.102l.98 1.815-5.166 13.737c-4.391 11.674-12.681 21.657-23.346 28.119-5.056-1.517-10.409-2.343-15.953-2.343-15.669 0-30.693 6.664-41.22 18.282-2.786 3.074-2.552 7.825.522 10.611 3.074 2.784 7.826 2.552 10.611-.523 7.685-8.482 18.651-13.346 30.087-13.346 22.379 0 40.585 18.206 40.585 40.585s-18.206 40.585-40.585 40.585c-22.378 0-40.584-18.206-40.584-40.585 0-4.149-3.363-7.512-7.512-7.512s-7.512 3.363-7.512 7.512c0 30.663 24.946 55.609 55.608 55.609 17.174 0 32.552-7.829 42.761-20.102l8.416 4.506c3.586 1.94 8.2.616 10.169-3.077 1.958-3.657.58-8.21-3.077-10.168l-7.537-4.036c3.125-6.945 4.878-14.636 4.878-22.732 0-19.001-9.585-35.799-24.167-45.834 9.815-7.918 17.457-18.398 21.919-30.261l2.819-7.497c2.321.836 4.896 1.221 7.436 1.088 3.643-.184 7.033-1.368 9.879-3.333 2.846 1.965 6.235 3.148 9.879 3.333 1.388.074 2.797-.017 4.148-.243l7.026 18.68c5.368 14.274 15.275 26.704 27.977 35.136l4.192 15.429c-21.422 7.734-36.778 28.265-36.778 52.321 0 8.097 1.754 15.787 4.878 22.732l-7.537 4.035c-3.657 1.958-5.035 6.511-3.077 10.168 1.969 3.693 6.583 5.017 10.169 3.077l8.415-4.506c10.209 12.273 25.586 20.102 42.76 20.102 8.785 0 17.097-2.056 24.492-5.699 5.547 7.932 13.574 13.684 23.007 16.388 3.872 1.11 7.814 1.659 11.734 1.659 7.094 0 14.113-1.8 20.488-5.336 3.628-2.012 4.938-6.584 2.926-10.213-2.015-3.628-6.587-4.938-10.215-2.926zm-204.668-363.471-30.854-114.861c-.006-.023-.012-.045-.016-.064.039-.021.083-.039.125-.052.01.017.022.035.033.056l59.586 102.93c8.263 14.273 15.997 29.066 23.029 44.007-2.87 6.286-5.635 12.612-8.276 18.971l-13.948 33.59-4.976-11.982c-9.777-23.547-18.088-47.972-24.703-72.595zm70.82 177.661c-.475-.024-1.377-.158-2.203-.763l18.382-44.267c-.172 13.301-3.547 26.452-10.029 38.468l-2.402 4.453c-1.09 2.02-2.985 2.143-3.748 2.109zm20.83 136.329c0-22.378 18.206-40.585 40.584-40.585 22.379 0 40.585 18.206 40.585 40.585s-18.206 40.585-40.585 40.585c-22.378 0-40.584-18.207-40.584-40.585z"/><path d="m449.94 316.108c4.149 0 7.512-3.363 7.512-7.512v-253.47c0-26.026-21.174-47.199-47.199-47.199h-62.563c-6.544 0-12.943 2.696-17.556 7.396-4.545 4.631-6.983 10.687-6.864 17.051.243 12.978 11.003 23.537 23.988 23.537h51.585c5.858 0 10.625 4.766 10.625 10.625v1.954h-70.39c-4.149 0-7.512 3.363-7.512 7.512s3.363 7.512 7.512 7.512h70.39v15.775h-70.39c-4.149 0-7.512 3.363-7.512 7.512s3.363 7.512 7.512 7.512h70.39v15.775h-70.39c-4.149 0-7.512 3.363-7.512 7.512s3.363 7.512 7.512 7.512h70.39v15.775h-70.39c-4.149 0-7.512 3.363-7.512 7.512s3.363 7.512 7.512 7.512h70.39v15.775h-70.39c-4.149 0-7.512 3.363-7.512 7.512s3.363 7.512 7.512 7.512h70.39v15.775h-70.39c-4.149 0-7.512 3.363-7.512 7.512s3.363 7.512 7.512 7.512h70.328c-.632 8.802-7.978 15.775-16.938 15.775h-53.39c-4.149 0-7.512 3.363-7.512 7.512s3.363 7.512 7.512 7.512h29.064v110.903c0 10.482.917 21.033 2.723 31.357l12.677 72.429c2.409 13.762 13.621 24.007 27.264 24.912.671.044 1.339.066 2.002.066 14.315 0 26.663-10.231 29.162-24.511l12.758-72.896c1.808-10.323 2.724-20.874 2.724-31.359v-36.213c0-4.149-3.363-7.512-7.512-7.512s-7.512 3.363-7.512 7.512v36.213c0 9.619-.841 19.297-2.499 28.768l-12.758 72.896c-1.289 7.362-7.909 12.536-15.37 12.043-6.607-.439-12.268-5.701-13.46-12.511l-12.677-72.429c-1.658-9.472-2.498-19.151-2.498-28.767v-110.897h9.302c17.658 0 32.024-14.366 32.024-32.024v-169.753c0-14.143-11.506-25.649-25.649-25.649h-51.585c-4.854 0-8.876-3.944-8.966-8.794-.043-2.299.868-4.517 2.564-6.246 1.807-1.84 4.297-2.896 6.833-2.896h62.563c17.742 0 32.175 14.433 32.175 32.175v253.47c.001 4.15 3.364 7.513 7.513 7.513z"/></g></g></svg>