<svg id="Capa_1" enable-background="new 0 0 512 512" height="512" viewBox="0 0 512 512" width="512" xmlns="http://www.w3.org/2000/svg"><g><path d="m32.521 164.399c-3.968-1.191-8.15 1.061-9.34 5.028-1.191 3.968 1.061 8.15 5.029 9.34l39.444 11.836c.719.216 1.444.318 2.158.318 3.226 0 6.207-2.098 7.181-5.347 1.191-3.968-1.061-8.15-5.029-9.34z"/><path d="m25.723 145.93 39.445 11.836c.719.216 1.444.318 2.158.318 3.226 0 6.207-2.098 7.181-5.347 1.191-3.968-1.061-8.149-5.029-9.34l-39.445-11.836c-3.967-1.191-8.149 1.061-9.34 5.029-1.19 3.968 1.062 8.15 5.03 9.34z"/><path d="m5.926 204.122 39.445 11.836c.719.216 1.444.318 2.158.318 3.226 0 6.207-2.098 7.181-5.347 1.191-3.968-1.061-8.149-5.029-9.34l-39.445-11.836c-3.967-1.192-8.149 1.061-9.34 5.029-1.189 3.968 1.062 8.15 5.03 9.34z"/><path d="m465.488 398.83h-419.009c-25.629 0-46.479 20.85-46.479 46.478 0 7.996 6.505 14.501 14.501 14.501h57.195c4.143 0 7.501-3.358 7.501-7.501s-3.358-7.501-7.501-7.501h-56.691c.269-17.126 14.284-30.977 31.474-30.977h419.009c17.19 0 31.205 13.851 31.474 30.977h-388.013c-4.143 0-7.501 3.358-7.501 7.501s3.358 7.501 7.501 7.501h388.517c7.996 0 14.501-6.505 14.501-14.501 0-25.628-20.85-46.478-46.479-46.478z"/><path d="m102.206 221.071c35.833 39.487 81.807 68.329 132.952 83.409l150.779 44.454c3.866 1.172 8.156-1.065 9.316-5.073 1.171-3.973-1.101-8.144-5.074-9.316l-150.779-44.454c-48.504-14.3-92.104-41.653-126.087-79.101l-7.736-8.525 158.071 46.604c3.977 1.17 8.145-1.1 9.315-5.073 1.172-3.973-1.1-8.144-5.073-9.316l-9.861-2.907-4.434-163.137 25.491 7.515c.693.204 1.268.696 1.575 1.351l88.139 186.929-67.057-19.77c-3.977-1.171-8.144 1.101-9.316 5.073-1.171 3.973 1.101 8.144 5.074 9.316l151.598 44.696c6.471 1.908 12.563 5.276 17.618 9.742l29.481 26.04c.914.808.879 1.747.689 2.393s-.671 1.454-1.876 1.636l-38.893 5.882c-6.669 1.008-13.615.533-20.085-1.375l-10.656-3.142c-3.976-1.173-8.145 1.1-9.316 5.073s1.101 8.144 5.074 9.316c8.72 2.641 18.907 5.941 28.089 5.643 3.063 0 48.031-6.565 48.031-6.565 6.725-1.017 12.099-5.702 14.022-12.227 1.924-6.524-.049-13.375-5.147-17.878l-29.48-26.04c-6.688-5.908-14.747-10.364-23.307-12.888l-65.278-19.246-93.832-199.003c-2.131-4.523-6.105-7.929-10.902-9.344l-30.975-9.132c-3.319-.978-6.938-.304-9.679 1.806-2.742 2.109-4.324 5.433-4.23 8.892l4.457 163.985-39.516-11.65-25.243-58.194c-1.876-4.325-5.545-7.57-10.067-8.903l-25.929-7.645c-3.327-.979-6.952-.3-9.695 1.819-2.744 2.119-4.32 5.454-4.212 8.924l1.32 42.233-25.018-7.376c-5.848-1.723-11.962.587-15.205 5.756-3.242 5.168-2.667 11.677 1.434 16.196zm41.209-64.137 20.42 6.021c.246.073.446.249.548.484l20.255 46.696-39.929-11.772z"/></g></svg>