<svg height="512pt" viewBox="-120 0 512 512" width="512pt" xmlns="http://www.w3.org/2000/svg"><path d="m247.96875 135.976562c4.421875 0 8-3.578124 8-8v-17.480468c9.289062-3.3125 16-12.113282 16-22.519532 0-10.511718-6.839844-19.375-16.273438-22.609374-3.375-36.597657-34.222656-65.367188-71.6875-65.367188-37.464843 0-68.3125 28.769531-71.6875 65.367188-6.90625 2.367187-12.351562 7.746093-14.800781 14.609374h-33.519531v-48.007812c0-4.425781-3.574219-8-8-8h-40v-15.96875c0-4.425781-3.574219-8-8-8s-8 3.574219-8 8v495.96875c0 4.421875 3.574219 8 8 8s8-3.578125 8-8v-15.96875h39.839844c.054687 0 .105468.03125.160156.03125 4.425781 0 8-3.574219 8-8v-48.007812h33.519531c2.449219 6.863281 7.886719 12.242187 14.800781 14.609374 3.375 36.597657 34.222657 65.367188 71.6875 65.367188 37.464844 0 68.3125-28.769531 71.6875-65.367188 9.433594-3.234374 16.273438-12.097656 16.273438-22.609374 0-10.414063-6.710938-19.207032-16-22.519532v-17.480468c0-4.421876-3.578125-8-8-8h-.007812zm-199.96875 288.007813c0 .015625-.007812.023437-.007812.039063 0 .015624.007812.023437.007812.039062v47.9375h-32v-432.03125h32zm136.007812-407.984375c28.152344 0 51.457032 20.886719 55.375 47.976562h-110.75c3.917969-27.089843 27.222657-47.976562 55.375-47.976562zm-86.488281 400.023438h-33.519531v-320.046876h33.519531c2.417969 6.777344 7.746094 12.113282 14.519531 14.519532v17.480468c0 4.421876 3.578126 8 8 8h.007813v71.617188c0 .160156-.023437.300781-.023437.460938 0 .042968.023437.082031.023437.121093v63.390625c0 .160156-.023437.304688-.023437.464844 0 .039062.023437.082031.023437.121094v63.472656c0 .160156-.023437.304688-.023437.464844 0 .039062.023437.078125.023437.117187v39.832031h-.007813c-4.421874 0-8 3.578126-8 8v17.480469c-6.773437 2.390625-12.101562 7.726563-14.519531 14.503907zm86.488281 79.976562c-28.152343 0-51.457031-20.886719-55.375-47.976562h110.75c-3.917968 27.089843-27.230468 47.976562-55.375 47.976562zm63.960938-79.976562c4.414062 0 8 3.585937 8 8 0 4.359374-3.503906 7.878906-7.847656 7.96875-.03125 0-.058594-.015626-.089844-.015626-.078125 0-.152344.046876-.230469.046876h-127.585937c-.085938 0-.160156-.046876-.230469-.046876-.03125 0-.054687.015626-.089844.015626-4.34375-.089844-7.847656-3.609376-7.847656-7.96875 0-4.414063 3.585937-8 8-8zm-16.089844-111.984376c0 22.074219-17.949218 40.023438-40.023437 40.023438-.167969 0-.304688.089844-.472657.097656h-15.253906c-.039062 0-.082031-.023437-.121094-.023437-15.367187 0-29.632812 6.390625-39.960937 16.917969v-25.214844c.136719-21.910156 17.96875-39.71875 39.914063-39.742188.03125 0 .054687.015625.085937.015625h15.839844c.226562 0 .417969-.113281.632812-.128906 15.449219-.183594 29.390625-6.648437 39.433594-16.953125v24.617188c0 .144531-.074219.246093-.074219.390624zm.082032 39.039063v32.945313h-87.847657c7.414063-9.792969 19.132813-15.863282 31.847657-15.878907.03125 0 .0625.015625.09375.015625h15.839843c.226563 0 .417969-.113281.632813-.128906 15.449218-.191406 29.394531-6.648438 39.433594-16.953125zm-.082032-103.085937c0 22.070312-17.949218 40.023437-40.023437 40.023437-.167969 0-.304688.089844-.472657.097656h-15.253906c-.039062 0-.082031-.023437-.121094-.023437-15.640624 0-29.792968 6.46875-39.960937 16.847656v-25.152344c.136719-21.914062 17.96875-39.722656 39.914063-39.746094.03125 0 .054687.015626.085937.015626h15.839844c.226562 0 .417969-.109376.632812-.125 15.449219-.1875 29.390625-6.648438 39.433594-16.953126v24.617188c0 .148438-.074219.253906-.074219.398438zm0-64.046876c0 22.070313-17.949218 40.023438-40.023437 40.023438-.167969 0-.304688.085938-.472657.09375h-15.253906c-.039062 0-.082031-.023438-.121094-.023438-15.640624 0-29.792968 6.472657-39.960937 16.847657v-25.070313c.136719-21.960937 18.007813-39.792968 40-39.792968h15.839844c.203125 0 .378906-.101563.570312-.121094 15.199219-.160156 29.285157-6.519532 39.496094-16.980469v24.621094c0 .152343-.074219.265625-.074219.402343zm-95.824218-7.042968v-32.925782h87.824218c-7.429687 9.855469-19.191406 15.984376-31.976562 15.984376-.125 0-.222656.0625-.351563.070312h-15.496093c-15.664063 0-29.824219 6.472656-40 16.871094zm-8.007813-48.925782v-8h111.921875v8zm111.921875 272.046876v8h-111.921875v-8zm-119.921875-296.046876c-4.414063 0-8-3.585937-8-8 0-4.359374 3.503906-7.878906 7.847656-7.96875.035157 0 .058594.015626.089844.015626.078125 0 .152344-.046876.230469-.046876h127.578125c.085937 0 .160156.046876.230469.046876.03125 0 .054687-.015626.089843-.015626 4.34375.089844 7.847657 3.609376 7.847657 7.96875 0 4.414063-3.585938 8-8 8zm0 0"/></svg>