<?xml version="1.0" encoding="iso-8859-1"?>
<!-- Generator: Adobe Illustrator 19.0.0, SVG Export Plug-In . SVG Version: 6.00 Build 0)  -->
<svg version="1.1" id="Capa_1" xmlns="http://www.w3.org/2000/svg" xmlns:xlink="http://www.w3.org/1999/xlink" x="0px" y="0px"
	 viewBox="0 0 512 512" style="enable-background:new 0 0 512 512;" xml:space="preserve">
<g>
	<g>
		<path d="M420.716,297.467c-1.249-9.935-6.814-14.182-11.265-15.995c-6.799-2.772-19.437-4.097-51.071,14.588
			c2.877-11.921,1.744-24.753-3.796-36.274c10.905-13.613,23.343-32.327,21.606-46.221c-1.257-10.055-6.873-14.341-11.365-16.166
			c-25.623-10.418-83.822,36.339-105.472,53.646c0.71-7.491-0.284-15.173-3.11-22.427c10.633-13.011,23.608-31.805,21.876-45.664
			c-1.275-10.202-7.43-14.149-10.986-15.595c-14.487-5.89-37.978,7.069-54.385,17.329c-24.73,15.463-24.09,16.119-194.655,152.984
			C6.595,346.9,0,360.649,0,375.392c0,16.181,0,90.44,0,106.878C0,498.663,13.337,512,29.73,512H45.8c4.143,0,7.5-3.357,7.5-7.5
			c0-4.143-3.357-7.5-7.5-7.5H29.73c-8.121,0-14.729-6.607-14.729-14.729v-15.909l209.291-167.94
			c6.434,36.15,46.878,37.856,70.027,20.886c14.526-10.662,35.649-31.529,49.185-46.56c4.113,14.813-0.775,31.201-13.283,41.237
			c-0.135,0.108-31.247,25.071-228.135,183.015H80.802c-4.143,0-7.5,3.357-7.5,7.5s3.357,7.5,7.5,7.5c34.695,0,124.242,0,158.935,0
			c13.874,0,27.475-4.782,38.296-13.466l52.622-42.227c3.23-2.593,3.748-7.313,1.155-10.545c-2.593-3.23-7.313-3.747-10.545-1.155
			l-52.621,42.227c-8.169,6.555-18.436,10.165-28.908,10.165H126.115l144.038-115.58c1.319,7.159,3.735,12.569,6.439,16.408
			c11.281,16.056,37.696,18.112,56.731,7.888c11.49-6.178,33.133-27.11,42.176-36.269c4.228,15.312-0.861,32.335-13.706,42.642
			l-13.228,10.615c-3.23,2.593-3.747,7.313-1.155,10.545c2.592,3.229,7.312,3.746,10.545,1.155l13.227-10.615
			c19.881-15.953,26.176-43.668,15.816-66.464C396.07,347.347,423.224,317.417,420.716,297.467z M220.806,197.342
			c30.11-18.81,39.17-16.701,40.679-16.085c0.411,0.167,1.373,0.558,1.748,3.559c2.397,19.155-56.869,76.662-73.057,87.372
			c-13.844,8.94-31.739,6.638-37.536-1.234c-4.228-5.737-4.303-14.226-4.658-18.274
			C179.583,227.373,197.139,212.126,220.806,197.342z M226.211,277.64c-12.562,10.062-199.256,159.592-211.21,169.166v-71.414
			c0-10.171,4.549-19.653,12.481-26.019l106.567-85.512c2.785,14.584,10.004,22.222,20.62,26.337
			c9.895,3.835,22.179,4.108,33.847-0.365c16.169-6.202,44.232-34.921,55.823-47.571
			C247.182,265.563,227.851,275.629,226.211,277.64z M285.559,307.129c-15.235,11.226-36.826,9.193-43.142-1.497
			c-3.014-5.098-4.059-12.557-4.113-18.454c32.264-25.962,52.332-43.164,77.362-58.801c32.094-20.05,41.875-17.745,43.512-17.081
			c0.551,0.224,1.697,0.691,2.127,4.129C363.893,236.128,302.761,294.486,285.559,307.129z M328.907,390.906
			c-12.437,7.997-33.589,8.893-40.618-2.595c-3.201-5.275-4.071-13.095-4.156-18.111c40.472-32.333,52.695-43.183,76.603-58.032
			c31.782-19.74,41.442-17.464,43.056-16.805c0.527,0.215,1.626,0.663,2.042,3.975C408.427,319.991,344.715,380.666,328.907,390.906
			z"/>
	</g>
</g>
<g>
	<g>
		<path d="M504.5,40.452c4.143,0,7.5-3.357,7.5-7.5V20.155C512,9.042,502.958,0,491.845,0h-69.616
			c-11.114,0-20.155,9.042-20.155,20.155v47.642c0,10.055,6.753,19.002,16.422,21.759l15.75,4.491v62.085
			c0,4.555,1.411,8.786,3.815,12.283c-1.027,17.601-6.457,54.804-33.161,77.093c-7.277,6.072-7.187,17.324,0.157,23.375
			c12.903,9.505,17.023,17.165,27.743,17.165c7.262,0,13.959-4.003,17.29-10.636c8.018-15.974,21.465-50.716,22.606-105.398
			c3.135-3.768,5.024-8.609,5.024-13.882v-49.688c3.483,0.252,14.746,7.381,26.041-1.142c5.236-3.951,8.24-9.981,8.24-16.541V67.954
			c0-4.142-3.357-7.5-7.5-7.5s-7.5,3.357-7.5,7.5v20.807c0,1.812-0.829,3.477-2.275,4.567c-3.813,2.881-6.491-0.14-22.447-4.036
			c-9.724-2.773-39.722-11.327-49.668-14.163c-3.259-0.929-5.534-3.944-5.534-7.332V20.155c0-2.794,2.36-5.154,5.154-5.154h69.616
			c2.794,0,5.154,2.36,5.154,5.154v12.797C496.999,37.095,500.356,40.452,504.5,40.452z M436.682,268.682
			c-1.239,2.465-4.467,3.139-6.62,1.364l-15.469-12.742c-0.141-0.116-0.091-0.275-0.083-0.28
			c23.219-19.379,34.56-49.391,37.835-79.454c1.672,0.279,3.442,0.362,5.094,0.251C455.312,224.853,443.734,254.635,436.682,268.682
			z M449.244,98.325l13.474,3.842v53.965c0,2.028-0.905,3.846-2.328,5.081c-4.469,3.803-11.146,0.601-11.146-5.081V98.325z"/>
	</g>
</g>
<g>
</g>
<g>
</g>
<g>
</g>
<g>
</g>
<g>
</g>
<g>
</g>
<g>
</g>
<g>
</g>
<g>
</g>
<g>
</g>
<g>
</g>
<g>
</g>
<g>
</g>
<g>
</g>
<g>
</g>
</svg>
