<svg id="Layer_1" height="512" viewBox="0 0 512 512" width="512" xmlns="http://www.w3.org/2000/svg" data-name="Layer 1"><path d="m337.37 149.379c18.818-9.987 26.568-40.86 16.587-66.068-9.869-24.923-33.218-35.041-62.457-27.071-10.835 2.953-16.742 6.616-22.455 10.158a91.542 91.542 0 0 1 -13.145 7.086c-1.122-.63-2.4-1.368-3.773-2.162-9.823-5.673-24.667-14.245-37.57-15.956-41.987-5.57-55 24.516-57.987 33.868-7.612 23.815.563 50.8 18.225 60.148 10.371 5.491 16.378 9.09 18.412 12.377 1.646 2.658 1.392 6.611.661 15.3-.128 1.52-.264 3.149-.4 4.9a155.909 155.909 0 0 0 2.232 41.723c3.211 15.91 9.026 28.3 17.282 36.836a13.139 13.139 0 0 0 5.289 3.071 13.462 13.462 0 0 0 4.386.734 13.107 13.107 0 0 0 13.075-15.323c-.322-3.455-4.5-52.959 16.356-78.345a5.456 5.456 0 0 1 8.315.038c20.482 25.555 16.341 74.865 16.023 78.308a13.165 13.165 0 0 0 17.464 14.587 13.128 13.128 0 0 0 5.286-3.07c8.257-8.532 14.071-20.925 17.282-36.836a155.957 155.957 0 0 0 2.233-41.723c-.132-1.743-.269-3.365-.4-4.878-.731-8.693-.984-12.648.661-15.306 2.036-3.282 8.048-6.889 18.418-12.396zm-28.617 6.08c-3.8 6.141-3.25 12.7-2.416 22.626.125 1.486.259 3.078.39 4.789 1.791 23.428-1.464 53.794-15.927 69.04a7.379 7.379 0 0 1 -.817.328 1.334 1.334 0 0 1 -1.63-.529 1.287 1.287 0 0 1 -.082-.785c.03-.163.054-.328.072-.493.241-2.314 5.645-57.025-18.575-87.246a17.453 17.453 0 0 0 -26.952-.151c-24.709 30.076-19.245 85.074-19 87.4.017.165.041.328.072.49a1.308 1.308 0 0 1 -.082.784 1.337 1.337 0 0 1 -1.63.53 7.379 7.379 0 0 1 -.819-.328c-14.463-15.247-17.717-45.612-15.925-69.04.131-1.719.265-3.318.391-4.81.835-9.924 1.386-16.48-2.415-22.621-3.537-5.714-9.954-9.759-23-16.666-12.553-6.646-18.236-27.661-12.41-45.889 6.157-19.26 22.554-28.6 44.979-25.626 10.543 1.4 24.145 9.254 33.147 14.452 2.806 1.62 5.23 3.019 7.076 3.938 8.9 4.429 22.308 10.009 35.789 7.38a6 6 0 1 0 -2.3-11.778c-4.811.939-10.2.456-16.507-1.527 1.88-1.081 3.574-2.132 5.184-3.13 5.439-3.373 10.137-6.285 19.287-8.78 31.619-8.62 43.737 8.776 48.147 19.912 7.6 19.191 2.226 44-11.056 51.051-13.044 6.925-19.461 10.976-22.991 16.679z"/><path d="m491.141 301.014a38.927 38.927 0 0 0 -51.91-14.2l-2.525 1.362c-9.747-11.908-26.708-16.537-39.618-10l-.134.07-5.806 3.128a43.356 43.356 0 0 0 -49.719-4.548l-30.872 16.787h-41.076a59.419 59.419 0 0 1 -25.718-5.892l-5.646-2.721a96.706 96.706 0 0 0 -100.649 9.829c-.131.1-.259.2-.381.313l-13.631 12.133a47.415 47.415 0 0 1 -18.02 10.011l-7.784-25.529a6 6 0 0 0 -5.739-4.25h-65.913a6 6 0 0 0 -5.956 6.726l21.971 180.159a6 6 0 0 0 5.956 5.273h98.87a6 6 0 0 0 5.739-7.75l-13.024-42.715 40.544-25.637a24.511 24.511 0 0 1 17.862-2.312c.124.031.249.059.374.081l82.286 15.153a106.369 106.369 0 0 0 65.714-9.278 5.8 5.8 0 0 0 .734-.431l142.33-97.721a6 6 0 0 0 1.741-8.041zm-88.567-12.159c7.2-3.611 16.916-1.157 23.272 5.184l-54.2 29.239-3.311 1.746a46.635 46.635 0 0 0 -7.522-13.668zm-55.344-1.518.143-.08a31.335 31.335 0 0 1 32.075.427l-27.714 14.933a46.487 46.487 0 0 0 -17.9-8zm-293.947 180.328-20.507-168.165h54.694l51.269 168.162zm287.353-71.026a94.3 94.3 0 0 1 -57.857 8.042l-82.089-15.117a36.449 36.449 0 0 0 -26.581 3.6c-.093.053-.186.107-.277.165l-37.9 23.963-26.986-88.511a59.414 59.414 0 0 0 22.5-12.548l13.442-11.966a84.744 84.744 0 0 1 88.015-8.469l5.644 2.73a71.475 71.475 0 0 0 30.944 7.09h54.742a34.761 34.761 0 0 1 34.125 28.4l-39.848-1.8a237.389 237.389 0 0 0 -43.153 1.993 6 6 0 0 0 1.644 11.887 225.2 225.2 0 0 1 40.966-1.892l46.692 2.113c.091 0 .182.006.272.006a6 6 0 0 0 6-6c0-1.02-.045-2.03-.109-3.035l6.481-3.418 67.638-36.488a26.945 26.945 0 0 1 32.532 5.314z"/><path d="m73.044 442.143a19.183 19.183 0 1 0 19.183-19.183 19.2 19.2 0 0 0 -19.183 19.183zm19.183-7.183a7.183 7.183 0 1 1 -7.183 7.183 7.19 7.19 0 0 1 7.183-7.183z"/><path d="m454.559 106.39a6 6 0 0 0 -6-6h-34.941a6 6 0 0 0 0 12h34.941a6 6 0 0 0 6-6z"/><path d="m400.536 70.51a5.977 5.977 0 0 0 3.593-1.2l34.939-26.176a6 6 0 1 0 -7.195-9.6l-34.939 26.174a6 6 0 0 0 3.6 10.8z"/><path d="m396.934 153.073 34.939 26.175a6 6 0 0 0 7.195-9.6l-34.939-26.175a6 6 0 1 0 -7.195 9.6z"/><path d="m104.382 106.39a6 6 0 0 0 -6-6h-34.941a6 6 0 0 0 0 12h34.941a6 6 0 0 0 6-6z"/><path d="m76.534 180.446a5.977 5.977 0 0 0 3.593-1.2l34.939-26.175a6 6 0 1 0 -7.2-9.6l-34.934 26.173a6 6 0 0 0 3.6 10.8z"/><path d="m115.066 59.708-34.939-26.175a6 6 0 1 0 -7.195 9.6l34.939 26.176a6 6 0 1 0 7.2-9.6z"/></svg>