<?xml version="1.0"?>
<svg xmlns="http://www.w3.org/2000/svg" viewBox="0 0 512 512" width="512" height="512"><g id="Out_line" data-name="Out line"><path d="M480,472V432a7.99977,7.99977,0,0,0-8-8H360a7.99977,7.99977,0,0,0-8,8v40H200V328a7.99977,7.99977,0,0,0-8-8H112a7.99977,7.99977,0,0,0-8,8v80h16V336h64V472H160V432a7.99977,7.99977,0,0,0-8-8H40a7.99977,7.99977,0,0,0-8,8v40H16v16H496V472ZM368,440h96v32H368ZM48,440h96v32H48Z"/><path d="M400,320H224a7.99977,7.99977,0,0,0-8,8v80a7.99977,7.99977,0,0,0,8,8H400a7.99977,7.99977,0,0,0,8-8V328A7.99977,7.99977,0,0,0,400,320Zm-8,80H232V336H392Z"/><path d="M69.42773,312c.86365,0,1.72065-.03552,2.57227-.09448V408H88V306.99487a36.87278,36.87278,0,0,0,11.93748-11.10278c.17544.25623.33962.51746.522.77051A36.53905,36.53905,0,0,0,130.41992,312h2.43213a37.00811,37.00811,0,0,0,29.49365-14.749c.31171.4143.62354.82873.9541,1.23193A36.80027,36.80027,0,0,0,191.86035,312h3.93311a36.94053,36.94053,0,0,0,28.97912-14.09863c.64722.82373,1.32221,1.62817,2.04236,2.398A37.06054,37.06054,0,0,0,253.78418,312h4.439a37.061,37.061,0,0,0,26.97022-11.70166c.72-.76953,1.39477-1.574,2.04175-2.39746A36.94075,36.94075,0,0,0,316.21436,312h3.92529a36.80027,36.80027,0,0,0,28.56055-13.51709c.33044-.40308.64221-.81738.95385-1.23157A37.00843,37.00843,0,0,0,379.148,312h2.42236a36.53964,36.53964,0,0,0,29.96-15.33691c.1825-.25318.34668-.51441.52222-.77076A36.86967,36.86967,0,0,0,424,306.99976V408h16V311.90576c.85156.05884,1.70862.09424,2.57227.09424a36.93129,36.93129,0,0,0,33.46679-52.54883L439.24951,180.6167A8,8,0,0,0,432,176H336V160h8a7.99977,7.99977,0,0,0,8-8V24a7.99977,7.99977,0,0,0-8-8H168a7.99977,7.99977,0,0,0-8,8V152a7.99977,7.99977,0,0,0,8,8h8v16H80a8,8,0,0,0-7.24951,4.6167l-36.78955,78.835A36.93107,36.93107,0,0,0,69.42773,312Zm126.36573-16h-3.93311a20.93081,20.93081,0,0,1-20.52441-25.03613h-.00006L187.12836,192h35.18029l-5.3739,80.6123h-.00018l-.0003.00818-.256,3.84046A20.98509,20.98509,0,0,1,195.79346,296ZM288,160v16H224V160ZM273.50879,289.36768A20.72454,20.72454,0,0,1,258.22314,296h-4.439a20.93036,20.93036,0,0,1-20.88483-22.319L238.34448,192h35.31177l5.45178,81.6748h-.00012A20.72248,20.72248,0,0,1,273.50879,289.36768Zm62.81787-1.02881A20.85779,20.85779,0,0,1,320.13965,296h-3.92529a20.9847,20.9847,0,0,1-20.88428-19.53711L289.69214,192h35.17908l15.79284,78.96436A20.85525,20.85525,0,0,1,336.32666,288.33887ZM426.90527,192,461.54,266.21729A20.93156,20.93156,0,0,1,442.5625,296a20.90494,20.90494,0,0,1-19.85742-14.312l-6.09851-18.2959-.00061-.002h0L392.80957,192Zm-25.47656,76.45483A20.931,20.931,0,0,1,381.57031,296H379.148a20.98779,20.98779,0,0,1-20.5249-16.82617l-2.26953-11.34717v-.00049h0L341.18823,192h34.75562ZM320,176H304V160h16ZM176,32H336V144H176Zm16,128h16v16H192Zm-21.18866,32L153.377,279.17334A20.98814,20.98814,0,0,1,132.85205,296h-2.43213a20.93141,20.93141,0,0,1-19.85986-27.54224L136.04639,192ZM50.46,266.21777,85.09473,192h34.08593L95.38391,263.39014h-.00012l-.00153.00512L89.28467,281.688A20.90435,20.90435,0,0,1,69.42773,296,20.93133,20.93133,0,0,1,50.46,266.21777Z"/><path d="M296,64H280V48a7.99977,7.99977,0,0,0-8-8H240a7.99977,7.99977,0,0,0-8,8V64H216a7.99977,7.99977,0,0,0-8,8v32a7.99977,7.99977,0,0,0,8,8h16v16a7.99977,7.99977,0,0,0,8,8h32a7.99977,7.99977,0,0,0,8-8V112h16a7.99977,7.99977,0,0,0,8-8V72A7.99977,7.99977,0,0,0,296,64Zm-8,32H272a7.99977,7.99977,0,0,0-8,8v16H248V104a7.99977,7.99977,0,0,0-8-8H224V80h16a7.99977,7.99977,0,0,0,8-8V56h16V72a7.99977,7.99977,0,0,0,8,8h16Z"/><circle cx="168" cy="408" r="8"/></g></svg>
