<svg height="512pt" viewBox="0 0 512 512" width="512pt" xmlns="http://www.w3.org/2000/svg"><path d="m135 0v512h377v-512zm347 30v90h-317v-90zm0 120v272h-317v-272zm-317 332v-30h317v30zm0 0"/><path d="m422 60h30v30h-30zm0 0"/><path d="m195 60h30v30h-30zm0 0"/><path d="m255 60h30v30h-30zm0 0"/><path d="m362 60h30v30h-30zm0 0"/><path d="m452 392v-212h-257v212zm-227-182h197v152h-197zm0 0"/><path d="m255 240h137v30h-137zm0 0"/><path d="m67.5 149.542969 30-45v-104.542969h-90v104.542969l30 45v91.457031h-37.5v218.5c0 28.949219 23.550781 52.5 52.5 52.5s52.5-23.550781 52.5-52.5v-218.5h-37.5zm-30-119.542969h30v65.457031l-15 22.5-15-22.5zm37.5 429.5c0 12.40625-10.09375 22.5-22.5 22.5s-22.5-10.09375-22.5-22.5v-188.5h45zm0 0"/></svg>