<svg id="Capa_1" enable-background="new 0 0 450.824 450.824" height="512" viewBox="0 0 450.824 450.824" width="512" xmlns="http://www.w3.org/2000/svg"><path d="m132.629 290.017c11.004 11.004 11.004 28.844 0 39.847-11.004 11.004-28.844 11.004-39.847 0-11.004-11.004-11.004-28.844 0-39.847 11.003-11.003 28.844-11.003 39.847 0"/><path d="m358.042 290.017c11.004 11.004 11.004 28.844 0 39.847-11.004 11.004-28.844 11.004-39.847 0-11.004-11.004-11.004-28.844 0-39.847 11.003-11.003 28.843-11.003 39.847 0"/><path d="m419.995 227.183-34.701-138.829c-4.705-18.835-21.573-32.001-40.999-32.001h-34.354v28.177h34.354c6.48 0 12.093 4.389 13.675 10.662l32.551 130.22h-330.219l32.551-130.206c1.582-6.287 7.195-10.676 13.676-10.676h34.354v-28.177h-34.354c-19.426 0-36.294 13.166-40.999 32.015l-34.701 138.815c-17.729 5.026-30.829 21.178-30.829 40.494v112.706c0 7.787 6.301 14.088 14.088 14.088h14.088v28.176c0 15.533 12.644 28.176 28.176 28.176h28.178c15.533 0 28.176-12.644 28.176-28.176v-28.176h225.412v28.176c0 15.533 12.644 28.176 28.176 28.176h28.176c15.533 0 28.176-12.644 28.176-28.176v-28.176h14.088c7.787 0 14.088-6.301 14.088-14.088v-112.706c.001-19.317-13.1-35.469-30.827-40.494zm-335.466 195.464h-28.177v-28.177h28.176v28.177zm309.941 0h-28.176v-28.177h28.176zm28.176-56.353h-394.47v-98.618c0-7.773 6.315-14.088 14.088-14.088h366.294c7.773 0 14.088 6.315 14.088 14.088z"/><path id="path-1_93_" d="m253.588 84.529c15.562 0 28.176-12.616 28.176-28.176 0-15.562-28.176-56.353-28.176-56.353s-28.176 40.791-28.176 56.353c-.001 15.56 12.614 28.176 28.176 28.176z" transform="translate(8)"/><path id="path-1_92_" d="m197.235 140.882c15.562 0 28.176-12.616 28.176-28.176 0-15.562-28.176-56.353-28.176-56.353s-28.176 40.791-28.176 56.353c-.001 15.56 12.614 28.176 28.176 28.176z" transform="translate(6 2)"/></svg>