<svg id="_x33_0" enable-background="new 0 0 64 64" height="512" viewBox="0 0 64 64" width="512" xmlns="http://www.w3.org/2000/svg"><path d="m62.957 19.503c-.135-.8-.569-1.493-1.208-1.941l-21.999-15.999c-.396-.29-.861-.476-1.363-.538-.25-.027-.509-.029-.792.002-.457.057-.914.237-1.344.534l-21.987 15.99c-.652.458-1.085 1.151-1.221 1.95-.136.798.047 1.595.513 2.24.929 1.298 2.859 1.639 4.191.696l1.253-.91v17.473c0 .565.17 1.104.458 1.571l-2.065 2.064 1.745 1.745c-.272.52-.497 1.062-.672 1.619h-2.466v6h2.466c.176.558.4 1.1.672 1.619l-1.745 1.745 4.243 4.242 1.745-1.745c.52.272 1.061.497 1.619.673v2.467h6v-2.466c.558-.176 1.099-.4 1.619-.673l1.745 1.745 4.243-4.242-1.745-1.745c.272-.52.497-1.062.672-1.619h2.466v-6h-2.466c-.176-.558-.4-1.1-.672-1.619l1.745-1.745-.636-.636h16.029c1.654 0 3-1.346 3-3v-17.474l1.264.92c.512.363 1.112.554 1.737.554.965 0 1.878-.47 2.442-1.257.467-.647.649-1.443.514-2.24zm-24.957 28.497v2h-2.029l-.177.778c-.199.876-.545 1.708-1.027 2.474l-.425.676 1.437 1.437-1.415 1.414-1.437-1.437-.676.426c-.765.481-1.597.827-2.474 1.027l-.777.177v2.028h-2v-2.028l-.778-.177c-.876-.2-1.709-.546-2.474-1.027l-.676-.426-1.437 1.437-1.415-1.414 1.437-1.437-.425-.676c-.482-.766-.828-1.598-1.027-2.474l-.176-.778h-2.029v-2h2.029l.177-.778c.199-.876.545-1.708 1.027-2.474l.425-.676-1.437-1.437 1.415-1.414 1.437 1.437.676-.426c.765-.481 1.597-.827 2.474-1.027l.777-.177v-2.028h2v2.028l.778.177c.876.2 1.709.546 2.474 1.027l.676.426 1.437-1.437 1.415 1.414-1.437 1.437.425.676c.482.766.828 1.598 1.027 2.474l.176.778zm17-9c0 .552-.449 1-1 1h-18.03l-1.607-1.606-1.745 1.745c-.52-.272-1.061-.497-1.619-.673v-2.466h-6v2.466c-.558.176-1.099.4-1.619.673l-1.745-1.745-.633.633c.001-.01-.002-.018-.002-.027v-18.929l10.593-7.71-1.774 10.639h5.854l-2.784 9.705 14.445-15.89-7.937.157 2.216-6.646 13.387 9.745zm-22.819-18 1.719-10.319 4.1-2.984 1.915 1.394-3.312 9.936 6.126-.12-5.555 6.11 1.153-4.017zm28.639-.425-.002.003c-.312.434-.978.534-1.389.243l-21.429-15.598-21.418 15.59c-.44.312-1.086.201-1.402-.238-.152-.21-.21-.472-.165-.738.046-.273.185-.498.413-.658l21.98-15.985c.146-.102.297-.164.419-.18.111-.012.251-.01.329-.002.15.019.289.074.416.167l22.014 16.01c.215.15.353.375.399.649.045.266-.013.527-.165.737z"/><path d="m17 35.5v-7.914l-2.586-2.586h-3.414v6h-4v-6h-3.414l-2.586 2.586v7.914l3.975 2.981-.975 19.519c0 2.757 2.243 5 5 5s5-2.243 4.999-5.05l-.973-19.469zm-5 22.5c0 1.654-1.346 3-3 3s-3-1.346-3.001-2.95l1.027-20.531-4.026-3.019v-6.086l1.414-1.414h.586v6h8v-6h.586l1.414 1.414v6.086l-4.025 3.019z"/><path d="m8 57h2v2h-2z"/><path d="m28 44c-2.757 0-5 2.243-5 5s2.243 5 5 5 5-2.243 5-5-2.243-5-5-5zm0 8c-1.654 0-3-1.346-3-3s1.346-3 3-3 3 1.346 3 3-1.346 3-3 3z"/></svg>