<?xml version="1.0" encoding="iso-8859-1"?>
<!-- Generator: Adobe Illustrator 19.0.0, SVG Export Plug-In . SVG Version: 6.00 Build 0)  -->
<svg version="1.1" id="Layer_1" xmlns="http://www.w3.org/2000/svg" xmlns:xlink="http://www.w3.org/1999/xlink" x="0px" y="0px"
	 viewBox="0 0 512.002 512.002" style="enable-background:new 0 0 512.002 512.002;" xml:space="preserve">
<g>
	<g>
		<g>
			<path d="M417.055,222.42l22.535-22.535c7.113-7.113,7.113-18.634,0-25.747l-4.776-4.776c0.535-0.336,1.045-0.729,1.511-1.195
				l17.067-17.067c3.332-3.332,3.332-8.735,0-12.068c-3.332-3.333-8.735-3.333-12.068,0l-17.067,17.067
				c-0.466,0.466-0.86,0.975-1.195,1.511l-13.848-13.848c0.535-0.336,1.045-0.729,1.511-1.195l17.067-17.067
				c3.332-3.333,3.332-8.736,0-12.068c-3.333-3.332-8.736-3.332-12.068,0l-17.067,17.067c-0.466,0.466-0.86,0.975-1.195,1.511
				l-13.848-13.848c0.535-0.336,1.045-0.729,1.511-1.195l17.067-17.067c3.333-3.332,3.333-8.735,0-12.068
				c-3.332-3.332-8.735-3.332-12.068,0l-17.067,17.067c-0.466,0.466-0.86,0.975-1.195,1.511l-13.848-13.848
				c0.535-0.336,1.045-0.729,1.511-1.195l17.067-17.067c3.332-3.332,3.332-8.735,0-12.068c-3.333-3.332-8.735-3.332-12.068,0
				l-17.067,17.067c-0.466,0.466-0.86,0.975-1.195,1.511l-13.848-13.848c0.535-0.336,1.045-0.729,1.511-1.195l17.067-17.067
				c3.333-3.332,3.333-8.735,0-12.068c-3.332-3.332-8.735-3.332-12.068,0l-17.067,17.067c-0.466,0.466-0.859,0.975-1.195,1.511
				l-0.146-0.146c-7.104-7.104-18.634-7.104-25.738,0L272.241,77.6c-7.104,7.104-7.104,18.634,0,25.738l11.266,11.266
				l-83.618,83.625v-61.696h15.936c10.055,0,18.202-8.147,18.202-18.202V86.468c0-10.055-8.147-18.202-18.202-18.202h-15.933V18.202
				C199.891,8.147,191.744,0,181.689,0H81.559C71.505,0,63.358,8.147,63.358,18.202v50.065h-15.93
				c-10.055,0-18.202,8.147-18.202,18.202v31.863c0,10.055,8.147,18.202,18.202,18.202h15.927v238.933H47.428
				c-10.055,0-18.202,8.147-18.202,18.202v31.863c0,10.055,8.147,18.202,18.202,18.202h15.932v50.065
				c0,10.055,8.147,18.202,18.202,18.202h100.13c10.055,0,18.202-8.147,18.202-18.202v-50.065h15.932
				c10.055,0,18.202-8.147,18.202-18.202v-31.863c0-10.055-8.147-18.202-18.202-18.202h-3.568l167.732-164.38l11.326,11.326
				C398.418,229.516,409.943,229.516,417.055,222.42z M80.424,18.202c0-0.629,0.506-1.135,1.135-1.135h100.13
				c0.629,0,1.135,0.506,1.135,1.135v50.065h-102.4V18.202z M46.293,118.332V86.468c0-0.629,0.506-1.135,1.135-1.135h24.463h119.467
				h24.467c0.629,0,1.135,0.506,1.135,1.135v31.863c0,0.629-0.506,1.135-1.135,1.135h-24.469H71.888H47.428
				C46.799,119.467,46.293,118.961,46.293,118.332z M80.422,136.533h102.4v238.933h-102.4V136.533z M182.826,493.798
				c0,0.629-0.506,1.135-1.135,1.135H81.561c-0.629,0-1.135-0.506-1.135-1.135v-50.065h102.4V493.798z M216.959,393.668v31.863
				c0,0.629-0.506,1.135-1.135,1.135h-24.465H71.893H47.428c-0.629,0-1.135-0.506-1.135-1.135v-31.863
				c0-0.629,0.506-1.135,1.135-1.135h24.461h119.388c0.156,0.003,0.311,0.006,0.468,0h24.08
				C216.453,392.533,216.959,393.039,216.959,393.668z M367.918,199.021l-57.094,55.952v-7.507c0-4.713-3.82-8.533-8.533-8.533
				h-17.067v-25.6c0-4.713-3.82-8.533-8.533-8.533h-25.6c-4.713,0-8.533,3.821-8.533,8.533c0,4.713,3.82,8.533,8.533,8.533h17.067
				v25.6c0,4.713,3.82,8.533,8.533,8.533h17.067v15.699l-93.867,91.99V222.363l95.683-95.691l18.846,18.846L367.918,199.021z
				 M326.951,133.913l-25.341-25.344c-0.009-0.009-0.018-0.016-0.027-0.024l-17.274-17.274c-0.439-0.439-0.439-1.163,0-1.602
				l22.536-22.537c0.439-0.439,1.163-0.439,1.602,0l119.074,119.074c0.448,0.448,0.448,1.163,0,1.611l-22.528,22.528
				c-0.441,0.44-1.171,0.44-1.611,0L326.951,133.913z"/>
			<path d="M352.053,302.452c-3.379-5.05-10.804-5.051-14.184-0.001l-25.062,37.444c-15.878,25.489-15.892,48.4,1.056,65.358
				c17.175,17.175,45.013,17.175,62.186,0.002c17.004-17.014,16.989-43.305,0.884-65.609L352.053,302.452z M363.979,393.189
				c-10.507,10.507-27.538,10.507-38.046-0.002c-10.684-10.691-10.676-24.948,1.21-44.034l17.817-26.613l17.964,26.848
				C374.602,365.571,374.612,382.55,363.979,393.189z"/>
			<path d="M470.8,433.513l-24.88-37.194c-3.379-5.05-10.804-5.051-14.184-0.001l-25.062,37.444
				c-15.878,25.489-15.892,48.4,1.056,65.358c17.175,17.175,45.013,17.175,62.186,0.002
				C486.919,482.107,486.905,455.816,470.8,433.513z M457.846,487.055c-10.507,10.507-27.538,10.507-38.047-0.002
				c-10.684-10.691-10.676-24.948,1.21-44.034l17.817-26.613l17.964,26.848C468.469,459.438,468.478,476.416,457.846,487.055z"/>
		</g>
	</g>
</g>
<g>
</g>
<g>
</g>
<g>
</g>
<g>
</g>
<g>
</g>
<g>
</g>
<g>
</g>
<g>
</g>
<g>
</g>
<g>
</g>
<g>
</g>
<g>
</g>
<g>
</g>
<g>
</g>
<g>
</g>
</svg>
