<svg id="outline" enable-background="new 0 0 512 512" height="512" viewBox="0 0 512 512" width="512" xmlns="http://www.w3.org/2000/svg"><path d="m64 416c-17.6445313 0-32 14.3554688-32 32s14.3554688 32 32 32 32-14.3554688 32-32-14.3554687-32-32-32zm0 48c-8.8222656 0-16-7.1777344-16-16s7.1777344-16 16-16 16 7.1777344 16 16-7.1777344 16-16 16z"/><path d="m504.9677734 149.6533203-72-72c-9.0307617-9.0288086-23.5068359-9.3168945-32.918457-.9187012l-10.3920898-10.3918457c-2.5957031-2.5947266-6.6240234-3.0888672-9.7734375-1.203125l-12.5595703 7.5361328 7.5361328-12.5595703c1.8886719-3.1484375 1.3925781-7.1777344-1.203125-9.7734375l-48-48c-3.125-3.1230469-8.1894531-3.1230469-11.3144531 0l-114.3427735 114.3427735-2.3427734-2.3427734c-3.125-3.1230469-8.1894531-3.1230469-11.3144531 0l-32 32-19.1884766 19.1884765c-9.8779297 9.8789063-13.9091797 24.4335938-10.5205078 37.9863281l22.4042969 89.6201172c2.3701172 9.4775391-1.1806641 19.3466797-9.0458984 25.1416016l-113.1796876 83.3945312c-15.5371094 11.4492188-24.8125 29.8066407-24.8125 49.1054688v.2246094c0 33.633789 27.3632813 60.9960937 60.9970703 60.9960937 19.4599609 0 37.9082031-9.3994141 49.3476563-25.1445313l82.5761719-113.6582031c5.4804688-7.5449219 14.9345703-11.2490234 24.078125-9.4365234l84.6865234 16.7685547c13.1181641 2.5947266 26.5966797-1.4990234 36.0537109-10.9541016l19.9179688-19.9179688 32-32c3.1240234-3.125 3.1240234-8.1894531 0-11.3144531l-2.3427735-2.3427734 28.6855469-28.6855469v60.6855469c0 8.5341797 3.3271484 16.5673828 9.3789063 22.6318359 6.0537109 6.0410157 14.086914 9.3681641 22.6210937 9.3681641 17.6445313 0 32-14.3554688 32-32v-41.3583984c2.5371094.8935547 5.2333984 1.3583984 8 1.3583984 13.2333984 0 24-10.7666016 24-24v-105.3701172c0-6.4121094-2.4970703-12.4414062-7.0322266-16.9765625zm-178.5429687 208.6074219c-5.6728516 5.6738281-13.7607422 8.1308594-21.6318359 6.5732422l-84.6865234-16.7685547c-15.2421875-3.0166016-30.9960938 3.1552734-40.1308594 15.7275391l-82.5751954 113.6582031c-8.4394531 11.6142578-22.0478515 18.5488281-36.4042968 18.5488281-24.8105469 0-44.9960938-20.1855469-44.9960938-44.9960937v-.2246094c0-14.2363281 6.8427734-27.7783203 18.3037109-36.2246094l113.1787109-83.3945313c13.109375-9.6591797 19.0273438-26.1074219 15.0771484-41.9033203l-22.4042969-89.6201172c-2.0322266-8.1318359.3857422-16.8642578 6.3134766-22.7910156l13.5312501-13.5322265 180.6865234 180.6865234zm25.5751953-25.5751953-180.6855469-180.6855469 20.6855469-20.6865234 180.6865234 180.6865234zm24-40-164.6855469-164.6855469 108.6855469-108.6865234 37.9267578 37.9267578-20.7871094 34.6435547c-1.8886719 3.1484375-1.3925781 7.1777344 1.203125 9.7734375 2.5966797 2.5947266 6.6269531 3.0908203 9.7734375 1.203125l34.6435547-20.7871094 5.9257813 5.9265137-29.6533203 29.6535645c-4.5351563 4.5351562-7.0322266 10.564453-7.0322266 16.9765624v105.3701172c0 6.4023438 2.4902344 12.4277344 7.0332031 16.9873047 4.5390625 4.5224609 10.5644532 7.0126953 16.9667969 7.0126953 13.2333984 0 24-10.7666016 24-24v-8c0-2.1396484.8339844-4.1552734 2.3261719-5.6533203 1.5185547-1.5126953 3.5341797-2.3466797 5.6738281-2.3466797 4.4111328 0 8 3.5888672 8 8v20.6855469zm120-20.6855469c0 4.4111328-3.5888672 8-8 8-2.1396484 0-4.1552734-.8339844-5.6533203-2.3261719-1.5126953-1.5185547-2.3466797-3.5341797-2.3466797-5.6738281 0-4.4179688-3.5820313-8-8-8s-8 3.5820313-8 8v64c0 8.8222656-7.1777344 16-16 16-4.2666016 0-8.2861328-1.6669922-11.3076172-4.6816406-3.0253906-3.0322266-4.6923828-7.0517578-4.6923828-11.3183594v-104c0-13.2333984-10.7666016-24-24-24-6.4023438 0-12.4277344 2.4902344-16.9873047 7.0332031-4.5224609 4.5390625-7.0126953 10.5644532-7.0126953 16.9667969v8c0 4.4111328-3.5888672 8-8 8-2.1396484 0-4.1552734-.8339844-5.6533203-2.3261719-1.5126953-1.5185547-2.3466797-3.5341797-2.3466797-5.6738281v-105.3701172c0-2.1386719.8330078-4.1494141 2.3466797-5.6621094l40-40c3.1171875-3.1191406 8.1894531-3.1191406 11.3066406 0l72 72c1.5136719 1.5126954 2.3466797 3.5234375 2.3466797 5.6621094z"/><path d="m448 384c-17.6445313 0-32 14.3554688-32 32s14.3554688 32 32 32 32-14.3554688 32-32-14.3554687-32-32-32zm0 48c-8.8222656 0-16-7.1777344-16-16s7.1777344-16 16-16 16 7.1777344 16 16-7.1777344 16-16 16z"/></svg>