<?xml version="1.0"?>
<svg xmlns="http://www.w3.org/2000/svg" viewBox="0 0 64 64" width="512" height="512"><g id="Outline"><g><path d="M54,44a1,1,0,0,0-1,1V59H50V48a1,1,0,0,0-1-1H39a1,1,0,0,0-1,1V59H16a1,1,0,0,0,0,2H54a1,1,0,0,0,1-1V45A1,1,0,0,0,54,44ZM40,59V49h8v4H46a1,1,0,0,0,0,2h2v4Z"/><path d="M61.61,22.21,54,16.35V8a1,1,0,0,0-1-1H47a1,1,0,0,0-1,1v2.2l-10.39-8a1,1,0,0,0-1.22,0l-26,20A1,1,0,0,0,9,24h6v1.64a1,1,0,0,0,2,0V24H53v8H50V27a1,1,0,0,0-1-1H37a1,1,0,0,0-1,1v5H34.33L31,28.72a1,1,0,0,0-1.41,0l-1.91,1.9c-.38-.18-.77-.35-1.16-.49V27.44a1,1,0,0,0-1-1h-6a1,1,0,0,0-1,1v1.42a1,1,0,0,0,2,0v-.42h4v2.42a1,1,0,0,0,.72,1,9.06,9.06,0,0,1,2.14.89,1,1,0,0,0,1.2-.17l1.71-1.71,2.83,2.83-1.71,1.71a1,1,0,0,0-.17,1.19,9.31,9.31,0,0,1,.89,2.15,1,1,0,0,0,1,.72h2.42v4H33.14a1,1,0,0,0-1,.73,9.06,9.06,0,0,1-.89,2.14,1,1,0,0,0,.17,1.2l1.71,1.71-2.83,2.83-1.71-1.71a1,1,0,0,0-1.2-.17,10,10,0,0,1-2.14.89,1,1,0,0,0-.72,1v2.42h-5a1,1,0,0,0,0,2h6a1,1,0,0,0,.7-.29,1,1,0,0,0,.3-.71V52.75c.39-.14.78-.3,1.16-.48l1.91,1.9a1,1,0,0,0,1.41,0l4.24-4.24a1,1,0,0,0,0-1.42l-1.9-1.9a12,12,0,0,0,.49-1.17h2.69a1,1,0,0,0,1-1V42H54a1,1,0,0,0,1-1V24h6a1,1,0,0,0,.61-1.79ZM48,9h4v5.82l-4-3.08ZM18.44,22,35,9.26,51.56,22ZM53,34v6H50V34Zm-5-6v4H38V28Zm-4,6v6H42V34ZM33.87,37.44c-.14-.39-.31-.78-.49-1.16l1.9-1.91a.89.89,0,0,0,.23-.37H36v3.44ZM38,40V34h2v6Zm8,0V34h2v6Zm8.84-18L35.61,7.21a1,1,0,0,0-1.22,0L15.16,22H11.94L35,4.26,58.06,22Z"/><path d="M32,15v4a1,1,0,0,0,1,1h4a1,1,0,0,0,1-1V15a1,1,0,0,0-1-1H33A1,1,0,0,0,32,15Zm2,1h2v2H34Z"/><path d="M19,50.7a1,1,0,0,0-1.41,0L9.12,59.12a3.08,3.08,0,0,1-4.24,0,3,3,0,0,1,0-4.24L15.49,44.27h0l4.24,4.24a5,5,0,0,0,7.07,0l2.83-2.82a5,5,0,0,0,0-7.07l-.71-.71a1,1,0,0,0-1.41,0L24,41.44,22.56,40l3.53-3.54a1,1,0,0,0,.29-.7,1,1,0,0,0-.29-.71l-.71-.71a5,5,0,0,0-7.07,0L15.49,37.2a5,5,0,0,0-1.12,5.36l-1.49,1.49a1,1,0,0,0-.9-.61H9.56v-4H12a1,1,0,0,0,1-.72,10.28,10.28,0,0,1,.89-2.15,1,1,0,0,0-.17-1.19L12,33.67l2.83-2.83,1.71,1.71a1,1,0,0,0,1.42,0,1,1,0,0,0,0-1.41l-2.42-2.42a1,1,0,0,0-1.42,0L9.83,33a1,1,0,0,0,0,1.41l1.9,1.91c-.18.38-.34.77-.48,1.16H8.56a1,1,0,0,0-1,1v6a1,1,0,0,0,1,1h2.69c0,.06.05.12.07.17L3.46,53.46a5,5,0,0,0,7.08,7.08L19,52.11A1,1,0,0,0,19,50.7ZM16.9,38.62l2.83-2.83a3,3,0,0,1,4.24,0l-3.53,3.53a1,1,0,0,0-.3.71,1,1,0,0,0,.3.71l2.82,2.82a1,1,0,0,0,1.42,0L28.21,40a3,3,0,0,1,0,4.24L25.38,47.1a3.08,3.08,0,0,1-4.24,0L16.9,42.86A3,3,0,0,1,16.9,38.62Z"/><path d="M15.49,47.1l-9.2,9.19a1,1,0,0,0,0,1.42,1,1,0,0,0,1.42,0l9.19-9.2a1,1,0,1,0-1.41-1.41Z"/></g></g></svg>
