<?xml version="1.0" encoding="iso-8859-1"?>
<!-- Generator: Adobe Illustrator 18.1.1, SVG Export Plug-In . SVG Version: 6.00 Build 0)  -->
<svg version="1.1" id="Capa_1" xmlns="http://www.w3.org/2000/svg" xmlns:xlink="http://www.w3.org/1999/xlink" x="0px" y="0px"
	 viewBox="0 0 496.708 496.708" style="enable-background:new 0 0 496.708 496.708;" xml:space="preserve">
<g>
	<path style="fill:#010002;" d="M281.91,33.544c-118.441,0-214.806,96.364-214.806,214.814c0,0.797,0.049,1.577,0.057,2.365
		c21.029,10.031,50.121,18.037,85.277,22.996c11.982,1.691,24.865,10.9,29.978,21.411l4.381,8.974
		c3.097,6.381,3.016,12.811-0.26,17.639c-2.934,4.357-8.055,6.771-14.201,6.771c-0.561,0-1.146-0.024-1.723-0.065
		c-22.809-1.618-59.696-6.161-94.519-18.671c26.491,88.601,108.712,153.386,205.807,153.386
		c118.441,0,214.806-96.364,214.806-214.806C496.716,129.908,400.352,33.544,281.91,33.544z M281.91,442.842
		c-71.857,0-137.568-40.553-171.098-102.249c22.037,4.698,42.594,7.007,58.323,8.12c1.081,0.081,2.162,0.122,3.211,0.122
		c10.153,0,19.281-3.503,25.995-9.787c4.731,4.885,10.12,9.689,16.176,14.396l1.78,1.382l5.503,4.268h6.966h36.359
		c-2.504,11.104-0.74,21.516,5.137,29.791c6.08,8.551,15.704,13.453,26.394,13.453c7.503,0,15.005-2.39,22.305-7.113
		c13.973-9.047,28.06-21.175,41.968-36.132h52.389c1.894,0,5.609,0.317,9.21,0.626l0.837,0.073
		c5.292,0.455,11.144,0.951,17.062,1.146C405.123,410.474,347.223,442.842,281.91,442.842z M461.218,338.691
		c-3.91,1.357-9.12,2.008-15.924,2.008c-6.722,0-13.949-0.626-20.33-1.171c-4.625-0.398-8.746-0.764-11.656-0.764h-61.411
		c-11.811,13.461-26.971,28.369-43.992,39.391c-3.942,2.552-7.738,3.845-11.258,3.845c-4.089,0-7.584-1.74-9.836-4.91
		c-2.943-4.146-3.251-10.185-0.87-17.005l7.454-21.329h-64.638l-1.78-1.382c-20.671-16.07-31.823-32.62-33.156-49.202
		c-1.325-16.607,8.015-26.832,8.413-27.263l4.04-4.333l26.93,20.362h180.105c15.656,0,58.079,30.393,58.079,49.023
		C471.387,328.741,470.396,335.504,461.218,338.691z M472.2,288.627c-18.159-18.265-44.52-31.994-58.892-31.994H240.016
		l-21.492-16.249l-14.615-11.047l-12.502,13.396l-4.137,4.43c-1.406,1.528-5.804,6.69-9.275,14.883
		c-7.047-4.341-14.883-7.348-22.719-8.454c-26.328-3.715-49.373-9.258-67.557-16.192c5.706-102.16,90.625-183.535,194.192-183.535
		c107.24,0,194.484,87.244,194.484,194.492C476.395,262.16,474.948,275.629,472.2,288.627z"/>
	<path style="fill:#010002;" d="M413.309,290.074H228.798l-19.98-15.111c-1.284,2.999-2.365,7.234-1.886,12.485
		c1.089,12.063,10.193,25.239,26.353,38.204h64.695l9.543-27.288h42.309c7.982,0,14.103,3.154,16.777,8.649
		c2.634,5.397,1.39,11.998-3.39,18.11c-0.13,0.171-0.293,0.358-0.423,0.528h50.511c3.195,0,7.706,0.374,12.786,0.813
		c6.113,0.528,13.046,1.122,19.208,1.122c10.12,0,12.689-1.65,12.965-1.65c0.008,0,0.008,0,0.016,0
		C458.162,317.166,424.209,290.074,413.309,290.074z"/>
	<path style="fill:#010002;" d="M349.824,311.476h-33.002l-4.95,14.176l-2.292,6.56l-2.292,6.56l-8.966,25.654
		c-0.707,2.04-0.878,3.479-0.862,4.341c0.683-0.187,1.788-0.618,3.316-1.609c12.315-7.974,23.622-18.232,33.311-28.385
		c2.105-2.203,4.129-4.389,6.072-6.56c1.992-2.235,3.894-4.414,5.698-6.56c2.52-2.999,4.918-5.918,7.031-8.616
		c2.048-2.609,2.016-4.097,1.926-4.284C354.645,312.411,353.157,311.476,349.824,311.476z"/>
	<path style="fill:#010002;" d="M52.554,285.115c3.178,1.748,6.43,3.39,9.746,4.95c3.219,1.512,6.495,2.943,9.811,4.284
		c35.546,14.371,75.645,19.322,99.437,21.012c2.268,0.154,3.723-0.366,4.129-0.975c0.447-0.658,0.406-2.317-0.675-4.544
		l-4.381-8.974c-3.211-6.6-12.38-13.087-20.021-14.168c-23.199-3.276-55.624-9.6-82.757-21.175
		c-3.113-1.325-6.137-2.723-9.088-4.194c-3.089-1.544-6.08-3.154-8.941-4.861c-14.209-8.462-25.369-18.964-30.263-32.059
		c-11.136-29.759,23.223-51.633,45.959-66.102l3.17-2.032l2.56-1.642l3.577,5.495l0,0l6.283-10.079l14.42-23.134
		c-0.61,0.301-1.244,0.618-1.87,0.935c-4.495,2.252-9.421,4.771-14.631,7.56c-36.001,19.265-84.285,50.698-78.555,83.984
		C5.717,249.919,26.494,270.801,52.554,285.115z"/>
</g>
<g>
</g>
<g>
</g>
<g>
</g>
<g>
</g>
<g>
</g>
<g>
</g>
<g>
</g>
<g>
</g>
<g>
</g>
<g>
</g>
<g>
</g>
<g>
</g>
<g>
</g>
<g>
</g>
<g>
</g>
</svg>
