<svg height="496pt" viewBox="0 -8 496 496" width="496pt" xmlns="http://www.w3.org/2000/svg"><path d="m144.007812 300.832031c-28.960937-16.800781-67.085937-16.785156-96-.015625-14.617187 8.40625-26.785156 20.566406-35.167968 35.167969-8.398438 14.480469-12.839844 31.078125-12.839844 48.015625s4.441406 33.535156 12.824219 47.984375c8.40625 14.625 20.574219 26.792969 35.167969 35.175781 14.480468 8.398438 31.078124 12.839844 48.007812 12.839844s33.527344-4.441406 47.992188-12.824219c14.617187-8.40625 26.785156-20.566406 35.167968-35.167969 8.398438-14.472656 12.839844-31.070312 12.839844-48.007812s-4.441406-33.535156-12.824219-47.984375c-8.40625-14.625-20.574219-26.792969-35.167969-35.183594zm-1.335937 148.03125-7.742187-13.421875-13.859376 8 7.730469 13.398438c-7.839843 3.480468-16.226562 5.632812-24.800781 6.464844v-15.304688h-16v15.296875c-8.566406-.824219-16.953125-2.976563-24.800781-6.464844l7.730469-13.398437-13.859376-8-7.742187 13.421875c-7.015625-5.03125-13.144531-11.167969-18.191406-18.191407l13.421875-7.742187-8-13.859375-13.421875 7.746094c-3.527344-7.824219-5.753907-16.183594-6.617188-24.808594h15.480469v-16h-15.480469c.855469-8.617188 3.089844-16.976562 6.617188-24.816406l13.421875 7.746094 8-13.859376-13.421875-7.742187c5.039062-7.015625 11.167969-13.144531 18.191406-18.191406l7.742187 13.421875 13.859376-8-7.746094-13.421875c7.832031-3.527344 16.191406-5.753907 24.816406-6.617188v15.480469h16v-15.480469c8.617188.855469 16.976562 3.089844 24.816406 6.617188l-7.746094 13.421875 13.859376 8 7.742187-13.421875c7.015625 5.03125 13.144531 11.167969 18.191406 18.191406l-13.421875 7.742187 8 13.859376 13.421875-7.746094c3.527344 7.824218 5.753907 16.191406 6.617188 24.816406h-15.480469v16h15.480469c-.855469 8.617188-3.089844 16.976562-6.617188 24.816406l-13.421875-7.746094-8 13.859376 13.421875 7.742187c-5.039062 7.015625-11.167969 13.152344-18.191406 18.191406zm0 0"/><path d="m96 344c-22.054688 0-40 17.945312-40 40s17.945312 40 40 40 40-17.945312 40-40-17.945312-40-40-40zm0 64c-13.230469 0-24-10.769531-24-24s10.769531-24 24-24 24 10.769531 24 24-10.769531 24-24 24zm0 0"/><path d="m88 376h16v16h-16zm0 0"/><path d="m495.71875 239.28125c-.183594-1.855469-.472656-3.714844-.839844-5.570312l-15.199218-76.078126c-4.128907-20.65625-19.382813-36.738281-38.695313-42.855468 9.222656-8.753906 15.015625-21.089844 15.015625-34.777344v-32c0-12.769531-4.96875-24.824219-14.054688-34.007812-9.121093-9.023438-21.175781-13.992188-33.945312-13.992188-26.472656 0-48 21.527344-48 48h-24v16h24v16c0 20.710938 13.207031 38.34375 31.625 45.0625l-72.449219 72.449219-73.167969-11.695313-27.847656-62.695312 39.199219-63.304688c16.976563-27.441406 46.375-43.816406 78.640625-43.816406v-16c-37.839844 0-72.328125 19.207031-92.238281 51.390625l-69.5625 112.320313-118.199219-111.976563c-13.742188-13.09375-29.886719-19.734375-48-19.734375h-8v290.769531l13.863281-14.921875c21.472657-23.121094 50.632813-35.847656 82.136719-35.847656 7.433594 0 14.871094.726562 22.105469 2.167969 41.519531 8.359375 75.34375 40.183593 86.167969 81.121093 2.46875 9.199219 3.726562 18.863282 3.726562 28.710938v24h174.246094l-5.101563 25.585938c-.136719.628906-.519531 1.15625-1.039062 1.414062l-22.234375 11.128906c-6.085938 3.039063-9.871094 9.144532-9.871094 15.949219 0 9.882813 8.039062 17.921875 17.921875 17.921875h118.078125c8.824219 0 16-7.175781 16-16v-219.199219c0-1.863281-.089844-3.640625-.28125-5.519531zm-100.351562 184.71875 3.519531-17.625c5.371093-2.597656 9.113281-8.09375 9.113281-14.613281l-2.398438-79.921875c0-9.550782-5.480468-17.847656-13.601562-21.703125v-18.320313c8.984375-.296875 17.871094-1.097656 26.566406-2.390625 8.875 43.367188 13.433594 87.839844 13.433594 132.335938v22.238281zm38.9375-157.441406c15.351562-3.207032 30.4375-7.871094 44.941406-14.101563l.753906-.320312v171.863281h-32v-22.238281c0-45.570313-4.664062-91.105469-13.695312-135.203125zm29.695312-105.78125 14.871094 74.453125-5.949219 2.539062c-15.882813 6.824219-32.507813 11.75-49.496094 14.6875-10.761719 1.984375-21.898437 2.949219-33.136719 3.261719-.882812-4.078125-1.992187-8.109375-3.570312-12-2.414062-6.167969-5.757812-11.917969-9.902344-17.230469l62.191406-62.191406c5.71875-5.710937 8.992188-13.601563 8.992188-21.65625 0-2.511719-.398438-4.945313-.984375-7.320313 8.511719 5.863282 14.847656 14.777344 16.984375 25.457032zm-88 109.78125v15.847656l-72-13.09375v-17.3125h70.023438c.816406 2.953125 1.382812 5.945312 1.703124 8.96875.210938 1.863281.273438 3.726562.273438 5.589844zm45.585938-141.902344c2.261718.640625 4.375 1.894531 6.117187 3.640625 2.777344 2.773437 4.296875 6.445313 4.296875 10.34375 0 3.839844-1.566406 7.605469-4.296875 10.34375l-62.136719 62.136719c-8.023437-6.648438-17.277344-11.367188-27.367187-14.007813l68.824219-68.824219c3.746093-3.746093 9.167968-5.335937 14.5625-3.632812zm-13.585938-112.65625c8.527344 0 16.59375 3.328125 22.632812 9.304688 6.039063 6.109374 9.367188 14.175781 9.367188 22.695312h-64c0-17.648438 14.351562-32 32-32zm-32 64v-16h64v16c0 17.648438-14.351562 32-32 32s-32-14.351562-32-32zm-168.046875 59.601562 19.199219 43.207032-39.457032-6.3125-1.632812-1.542969zm-162.976563-76.273437 118.960938 112.671875h-25.265625l-29.40625-22.0625-78.242187-78.234375c-4.28125-4.261719-9.398438-7.429687-15.023438-9.414063v-17.695312c10.679688 1.621094 20.390625 6.558594 28.976562 14.734375zm-12.976562 100.671875c0 1.34375.136719 2.679688.328125 4h-16.328125v-83.953125c1.3125.875 2.566406 1.832031 3.703125 2.960937l48.984375 48.992188h-8.6875c-15.441406 0-28 12.558594-28 28zm28-12h24.6875l13.65625 13.65625 13.734375 10.34375h-52.078125c-3.175781 0-6.28125-1.273438-8.535156-3.535156-.3125-.304688-.640625-.664063-1.082032-1.289063-1.535156-2.03125-2.382812-4.582031-2.382812-7.175781 0-6.617188 5.382812-12 12-12zm-44 132.097656v-100.097656h24.40625c5.257812 5.144531 12.195312 8 19.59375 8h67.808594c-.871094 22.542969-5.457032 44.496094-13.625 65.433594-6.023438-.847656-12.09375-1.433594-18.183594-1.433594-29.144531 0-57.433594 10.070312-80 28.097656zm114.105469-23.496094c8.253906-22 12.855469-45.007812 13.703125-68.601562h39.574218l145.441407 23.257812c11.992187 1.910157 22.808593 7.542969 31.289062 16.316407 2.566407 2.640625 4.832031 5.449219 6.773438 8.425781h-78.886719v46.679688l94.785156 17.222656c3.949219.609375 6.816406 3.945312 6.824219 8.175781l.949219 31.921875h-173c-13.320313-40.382812-46.480469-72-87.453125-83.398438zm91.628906 99.398438h169.304687l.960938 32h-168v-8c0-8.144531-.777344-16.183594-2.265625-24zm138.265625 102.078125c0-.6875.398438-1.324219 1.015625-1.636719l22.242187-11.128906c3.894532-1.953125 6.839844-5.25 8.496094-9.3125h30.351563l-12.242188 6.128906c-6.078125 3.039063-9.863281 9.144532-9.863281 15.949219v1.921875h-38.078125c-1.113281 0-1.921875-.808594-1.921875-1.921875zm56 1.921875v-1.921875c0-.6875.398438-1.324219 1.015625-1.636719l21.113281-10.5625c4.175782-2.085937 7.144532-5.671875 8.679688-9.871094h33.191406v24h-64zm0 0"/></svg>