<svg id="Outline" height="512" viewBox="0 0 64 64" width="512" xmlns="http://www.w3.org/2000/svg"><path d="m19.34 16.78a3.52 3.52 0 0 1 1.18-.62 1 1 0 0 0 .69-.7 6 6 0 0 1 11.14-1.17 1 1 0 0 0 .63.51 1 1 0 0 0 .81-.13 4 4 0 0 1 5.87 1.73 1 1 0 0 0 .92.6 1.14 1.14 0 0 0 .4-.08 1 1 0 0 0 .51-1.32 6 6 0 0 0 -5.49-3.6 5.92 5.92 0 0 0 -2.39.5 8 8 0 0 0 -14.18 1.93 5.19 5.19 0 0 0 -1.34.79 1 1 0 1 0 1.25 1.56z"/><path d="m39.48 54a1 1 0 0 0 -1.23.69l-1.25 4.58a1 1 0 0 1 -1.87.15l-6.5-13.84a1 1 0 0 0 -.9-.58h-7.82a1 1 0 0 0 -.76.34l-6.4 7.32a1 1 0 0 1 -1.75-.59 1 1 0 0 1 .25-.73l7-8a1 1 0 0 1 .75-.34h10a1 1 0 0 1 .91.58l4.72 10.12a1 1 0 0 0 1.87-.15l5.73-20.28a1 1 0 0 0 -1.92-.54l-2.31 8.27h-24.36l-9.09-20h3.45a1 1 0 0 0 0-2h-5a1 1 0 0 0 -.84.46 1 1 0 0 0 -.07.95l10 22a1 1 0 0 0 .91.59h2.89l-1.48 1.69a8.88 8.88 0 0 0 -3.41-.69 9.07 9.07 0 1 0 7.88 4.7l1.48-1.7h6.73l6.19 13.27a3 3 0 0 0 2.72 1.73h.24a3 3 0 0 0 2.65-2.17l1.28-4.55a1 1 0 0 0 -.69-1.28zm-4.17-3.62-3.47-7.38h5.56zm-21.75 4.17a3 3 0 1 1 -4.12-4.1 3 3 0 0 0 4.12 4.1zm4.44-1.55a7 7 0 1 1 -7-7 6.79 6.79 0 0 1 2 .31l-1.52 1.69a3.88 3.88 0 0 0 -.48 0 5 5 0 1 0 5 5 4.77 4.77 0 0 0 -.1-.9l1.55-1.77a6.93 6.93 0 0 1 .55 2.67z"/><path d="m59 10h-10a3 3 0 0 0 -2.89 2.18l-1.92 6.82h-32.19a1 1 0 0 0 0 2h31.62l-2.18 7.73a1 1 0 1 0 1.92.54l4.64-16.54a1 1 0 0 1 1-.73h10a1 1 0 0 1 0 2h-8.49a1 1 0 0 0 -1 .73l-10.17 36a1 1 0 0 0 .73 1.27.84.84 0 0 0 .27 0 1 1 0 0 0 1-.73l9.93-35.27h7.73a3 3 0 0 0 0-6z"/></svg>