<?xml version="1.0"?>
<svg xmlns="http://www.w3.org/2000/svg" id="Layer_1" data-name="Layer 1" viewBox="0 0 512 512" width="512" height="512"><title>Call Center</title><path d="M438.2,116.515a2.866,2.866,0,0,1-1.778-1.707A18.7,18.7,0,0,0,419.118,103H307.454L294.525,79.959A7.87,7.87,0,0,0,287.538,76H273.175A8.131,8.131,0,0,0,265,83.977V133.7a8.081,8.081,0,0,0,4.933,7.352l18.958,8.048a85.7,85.7,0,0,0,33.964,6.9h20.77l-14.939,27.229A7.936,7.936,0,0,0,335.7,195h24.192a7.99,7.99,0,0,0,6.035-2.741L397.475,156H436.91a19.582,19.582,0,0,0,5.061-38.513ZM281,92h1.839l6.3,11H281Zm155.91,48H393.831a7.988,7.988,0,0,0-6.035,2.741L356.243,179h-7.017l14.939-27.085A8.045,8.045,0,0,0,357.155,140h-34.3a69.993,69.993,0,0,1-27.7-5.606L281,128.425V119H419.118a2.771,2.771,0,0,1,2.463,1.794,18.843,18.843,0,0,0,12.493,11.114l3.775,1.039A3.582,3.582,0,0,1,436.91,140Z"/><path d="M360.861,3.946A133.282,133.282,0,0,0,240.908,79.37a186.663,186.663,0,0,0-36.926-3.7C101.437,75.674,18,159.1,18,261.646V362.2a7.853,7.853,0,0,0,8.021,7.8H67v19.872a37.2,37.2,0,0,0,36.979,37.063L138.65,427h.063a8.158,8.158,0,0,0,5.778-2.117A7.683,7.683,0,0,0,147,419.408V280.667c0-4.419-3.87-7.667-8.288-7.667H104.271A37.03,37.03,0,0,0,67,309.933V325H63V261.646c0-77.586,63.263-140.707,140.849-140.707a142.228,142.228,0,0,1,24.557,2.141,134.273,134.273,0,0,0-.547,13.984C227.859,205,279,261.2,345,269.2V325h-4V309.934A36.624,36.624,0,0,0,304.207,273H269.271c-4.417,0-8.271,3.249-8.271,7.667V418.911A8.313,8.313,0,0,0,269.271,427h34.936C324.755,427,341,410.193,341,389.645V370h17v28.957A60.223,60.223,0,0,1,297.726,459H255V433.586c0-4.418-4.066-7.586-8.484-7.586H192.49A33.188,33.188,0,0,0,159,459.149V474.49A33.492,33.492,0,0,0,192.49,508h54.026c4.418,0,8.484-3.528,8.484-7.946V475h42.727A76.24,76.24,0,0,0,374,398.957V370h7.964A7.866,7.866,0,0,0,390,362.2V266.969c59-13.311,104-66.5,104-129.9C494,63.663,434.263,3.946,360.861,3.946ZM83,309.933A21.013,21.013,0,0,1,104.271,289H131V411.346l-26.752-.207A21.451,21.451,0,0,1,83,389.873Zm242,79.712C325,401.371,315.933,411,304.207,411H277V289h27.207A20.609,20.609,0,0,1,325,309.934ZM239,492H192.49A17.475,17.475,0,0,1,175,474.49V459.15A17.172,17.172,0,0,1,192.49,442H239ZM203.849,104.939C117.441,104.939,47,175.237,47,261.646V332.93A8.309,8.309,0,0,0,55.286,341H67v13H34V261.646c0-93.723,76.259-169.972,169.982-169.972a170.788,170.788,0,0,1,30.745,2.795,132.221,132.221,0,0,0-3.7,12.827A158.2,158.2,0,0,0,203.849,104.939ZM373.964,354H341V341h11.7a8.323,8.323,0,0,0,8.3-8.07V270.18s-.042,0,.012,0c4.42,0,8.713-.32,13.023-.743Zm-13.1-99.818A117.118,117.118,0,1,1,477.979,137.064,117.25,117.25,0,0,1,360.861,254.182Z"/></svg>
