<?xml version="1.0" encoding="iso-8859-1"?>
<!-- Generator: Adobe Illustrator 19.0.0, SVG Export Plug-In . SVG Version: 6.00 Build 0)  -->
<svg version="1.1" id="Capa_1" xmlns="http://www.w3.org/2000/svg" xmlns:xlink="http://www.w3.org/1999/xlink" x="0px" y="0px"
	 viewBox="0 0 512 512" style="enable-background:new 0 0 512 512;" xml:space="preserve">
<g>
	<g>
		<path d="M274.548,338.648l-48.002,48.001c-18.06-12.33-35.595-26.967-52.259-43.629c-17.004-17.005-31.883-34.893-44.348-53.304
			l47.838-47.84L74.285,138.385l-53.064,53.063l-0.412,0.428C0.718,213.62-0.945,249.762,16.127,293.645
			c15.631,40.179,45.566,83.634,84.293,122.36c39.191,39.191,83.102,69.301,123.645,84.785c19.603,7.487,37.599,11.21,53.429,11.21
			c20.092,0,36.691-6.004,48.616-17.929l51.931-51.93L274.548,338.648z M304.832,472.792c-12.247,12.246-37.772,12.207-70.031-0.115
			c-36.674-14.005-76.841-41.689-113.103-77.951c-35.842-35.842-63.374-75.615-77.526-111.992
			c-12.428-31.948-12.946-57.524-1.437-70.243l31.55-31.549l60.935,60.935l-43.631,43.632l6.324,10.145
			c14.88,23.871,33.417,46.967,55.095,68.645c21.309,21.309,44.024,39.605,67.512,54.38l10.162,6.392l43.865-43.866l60.935,60.936
			L304.832,472.792z"/>
	</g>
</g>
<g>
	<g>
		<path d="M414.748,380.423c-8.215,7.869-17.144,15.094-26.538,21.475l16.908,24.893c10.777-7.32,21.021-15.61,30.445-24.635
			L414.748,380.423z"/>
	</g>
</g>
<g>
	<g>
		<path d="M450.411,334.965c-5.74,9.952-12.378,19.49-19.73,28.35l23.157,19.217c8.436-10.165,16.053-21.111,22.641-32.533
			L450.411,334.965z"/>
	</g>
</g>
<g>
	<g>
		<path d="M439.18,68.392C395.077,24.289,336.438,0,274.067,0C194.822,0,121.645,39.683,78.318,106.152l25.209,16.433
			c37.752-57.917,101.505-92.493,170.539-92.493c112.162,0,203.412,91.251,203.412,203.412c0,28.08-5.611,55.266-16.677,80.803
			l27.611,11.965c12.712-29.336,19.158-60.548,19.158-92.768C507.571,171.133,483.283,112.495,439.18,68.392z"/>
	</g>
</g>
<g>
	<g>
		<path d="M238.565,219.014c1.27-1.409,3.14-2.997,5.61-4.764c2.468-1.763,5.151-3.527,8.045-5.293
			c2.891-1.763,5.822-3.493,8.786-5.187c2.964-1.694,5.505-3.176,7.622-4.446c3.103-1.833,6.14-3.844,9.104-6.034
			c2.964-2.186,5.643-4.727,8.045-7.621c2.398-2.892,4.34-6.173,5.822-9.845c1.482-3.669,2.223-7.834,2.223-12.492
			c0-11.291-4.059-20.252-12.174-26.888c-8.118-6.633-19.795-9.951-35.039-9.951c-6.212,0-12.174,0.566-17.89,1.694
			c-5.716,1.131-10.976,2.647-15.773,4.552c-4.801,1.905-9.104,4.059-12.915,6.457c-3.811,2.402-6.848,4.869-9.104,7.41
			l21.595,24.983c4.092-4.658,8.326-8.432,12.703-11.327c4.373-2.892,9.527-4.34,15.455-4.34c5.22,0,9.243,1.201,12.068,3.599
			c2.822,2.402,4.234,5.578,4.234,9.527c0,1.979-0.566,3.706-1.694,5.188c-1.129,1.481-2.998,3.142-5.608,4.975
			c-2.613,1.836-6.14,3.953-10.586,6.352c-4.446,2.401-9.987,5.435-16.62,9.103c-6.213,3.529-11.363,7.129-15.455,10.798
			c-4.095,3.671-7.34,7.658-9.739,11.962c-2.401,4.307-4.095,9.071-5.081,14.291c-0.989,5.223-1.482,11.152-1.482,17.784h105.435
			v-30.487H238.565z"/>
	</g>
</g>
<g>
	<g>
		<path d="M401.161,216.897V128.61h-23.077l-69.02,88.498v30.276h58.222v29.005h33.874v-29.005h18.631v-30.487H401.161z
			 M371.309,216.896h-28.794l28.794-37.474V216.896z"/>
	</g>
</g>
<g>
</g>
<g>
</g>
<g>
</g>
<g>
</g>
<g>
</g>
<g>
</g>
<g>
</g>
<g>
</g>
<g>
</g>
<g>
</g>
<g>
</g>
<g>
</g>
<g>
</g>
<g>
</g>
<g>
</g>
</svg>
