<?xml version="1.0" encoding="iso-8859-1"?>
<!-- Generator: Adobe Illustrator 19.0.0, SVG Export Plug-In . SVG Version: 6.00 Build 0)  -->
<svg version="1.1" id="Capa_1" xmlns="http://www.w3.org/2000/svg" xmlns:xlink="http://www.w3.org/1999/xlink" x="0px" y="0px"
	 viewBox="0 0 496 496" style="enable-background:new 0 0 496 496;" xml:space="preserve">
<g>
	<g>
		<g>
			<path d="M392,48h-96v64h96V48z M376,96h-64V64h64V96z"/>
			<rect x="336" y="128" width="16" height="16"/>
			<rect x="368" y="128" width="16" height="16"/>
			<rect x="304" y="128" width="16" height="16"/>
			<path d="M492.272,455.984L422.952,352H432c13.232,0,24-10.768,24-24V216.064c0-23.328-14.384-43.68-35.376-51.984
				c2.088-3.568,3.376-7.656,3.376-12.08V40c0-22.056-17.944-40-40-40h-80c-22.056,0-40,17.944-40,40v112
				c0,4.424,1.288,8.52,3.384,12.08c-21,8.312-35.384,28.656-35.384,51.984v70.488l-9.08,24.216l-44.296-20.144l20.144,44.296
				L153.208,352l45.552,17.08L191.984,384H128V192c8.824,0,16-7.176,16-16v-16h32c0,8.824,7.176,16,16,16h16c8.824,0,16-7.176,16-16
				v-48c0-8.824-7.176-16-16-16h-16c-8.824,0-16,7.176-16,16h-32V96c0-8.824-7.176-16-16-16V0H16v80C7.176,80,0,87.176,0,96v80
				c0,8.824,7.176,16,16,16v304h112v-48h248v48h64v-37.576l14.64,21.96c2.728,4.088,6.792,7.184,12.144,8.984
				c2.336,0.776,4.728,1.16,7.088,1.16c4.568,0,9.056-1.432,12.912-4.208c5.856-4.232,9.216-10.8,9.216-18.024
				C496,463.904,494.712,459.648,492.272,455.984z M192,112h16l0.016,48H192V112z M144,128h32v16h-32V128z M440,328
				c0,4.416-3.584,8-8,8h-72c-8.824,0-16-7.176-16-16c0-8.824,7.176-16,16-16h48v-32h32V328z M344,208c17.648,0,32-14.352,32-32h16
				v112h-11.72l-10.92-16.384c-2.728-4.088-6.792-7.184-12.144-8.984c-6.136-2.032-12.544-1.224-18.024,1.952l-29.352-17.608
				c-4.272-2.56-9.008-4.024-13.84-4.464V176h16C312,193.648,326.352,208,344,208z M328,176h32c0,8.824-7.176,16-16,16
				C335.176,192,328,184.824,328,176z M361.056,288H360c-4.488,0-8.76,0.944-12.64,2.624l-2.32-3.48
				c-0.68-1.024-1.04-2.216-1.04-3.44c0-2.016,0.936-3.848,2.576-5.032c1.632-1.192,3.68-1.504,6.264-0.624
				c1.304,0.44,2.448,1.304,3.2,2.448L361.056,288z M301.608,260.696l27.472,16.48c-0.64,2.088-1.08,4.256-1.08,6.528
				c0,4.392,1.288,8.648,3.728,12.312l3.032,4.544c-2.592,3.36-4.52,7.216-5.624,11.44h-37.48l9.72-21.376l-33.464,15.216
				l8.872-34.472c1.256-5.68,5.48-10.352,10.984-12.184C292.424,257.64,297.456,258.208,301.608,260.696z M281.24,334.92l3.144-6.92
				h44.752c3.576,13.768,15.992,24,30.864,24h9.056l21.336,32H288.016l-6.784-14.92l45.56-17.08L281.24,334.92z M440,216.064V256
				h-32v-79.136C426.592,180.656,440,197.008,440,216.064z M280,40c0-13.232,10.768-24,24-24h80c13.232,0,24,10.768,24,24v112
				c0,4.416-3.584,8-8,8H288c-4.416,0-8-3.584-8-8V40z M248,216.064c0-19.048,13.416-35.32,32-39.128v68.168
				c-1.856,0.816-3.632,1.768-5.288,2.896H248V216.064z M248,264h14.288c-0.424,1.184-0.792,2.392-1.072,3.632l-8.264,32.12
				l-4.952-13.2V264z M32,16h80v64H32V16z M112,480H32V192h80V480z M16,176V96h112l0.016,80H16z M128,432v-32h56.704l-6.08,13.376
				l44.296-20.144L237.456,432H128z M231.888,371.576l-21.032,9.56l9.56-21.032L198.792,352l21.632-8.112l-9.568-21.032l21.032,9.56
				L239.544,312h0.912l7.656,20.424l21.032-9.56l-9.56,21.032L281.208,352l-21.632,8.112l9.56,21.032l-21.032-9.56L240,393.208
				L231.888,371.576z M424,480h-32v-48H242.544l14.536-38.768l44.296,20.144L295.296,400h105.76L424,434.424V480z M477.424,473.328
				c-1.64,1.184-3.688,1.488-6.264,0.624c-1.304-0.44-2.448-1.304-3.2-2.448L388.28,352h15.432l75.24,112.848
				c0.68,1.032,1.04,2.216,1.04,3.448C480,470.312,479.064,472.152,477.424,473.328z"/>
		</g>
	</g>
</g>
<g>
</g>
<g>
</g>
<g>
</g>
<g>
</g>
<g>
</g>
<g>
</g>
<g>
</g>
<g>
</g>
<g>
</g>
<g>
</g>
<g>
</g>
<g>
</g>
<g>
</g>
<g>
</g>
<g>
</g>
</svg>
