<svg id="Layer_2" height="512" viewBox="0 0 128 128" width="512" xmlns="http://www.w3.org/2000/svg" data-name="Layer 2"><path d="m94.58 65.07h-92.83a1.75 1.75 0 0 0 -1.6 2.46c4.98 11.15 17.31 18.22 29.33 18.31a16.914 16.914 0 0 1 -4.02 20.08l-3.52 3.14a1.8 1.8 0 0 0 -.59 1.3v10.07a1.758 1.758 0 0 0 1.75 1.75h51.45a1.758 1.758 0 0 0 1.75-1.75v-10.07a1.815 1.815 0 0 0 -.22-.84l-5.32-9.72a13.421 13.421 0 0 1 9.1-19.58l15.06-3.05a1.756 1.756 0 0 0 1.41-1.72v-8.63a1.752 1.752 0 0 0 -1.75-1.75zm-65.79 17.24c-9.57-.31-19.2-5.43-24.16-13.74h24.16zm10.78 36.37h-14.72v-6.57h14.72zm15.01 0h-11.51v-11.55a5.755 5.755 0 1 1 11.51 0zm18.22 0h-14.72v-6.57h14.72zm20.03-44.66-13.67 2.77a16.921 16.921 0 0 0 -11.47 24.69l3.91 7.13h-13.52v-1.48a9.255 9.255 0 1 0 -18.51 0v1.48h-11.87l.09-.08a20.389 20.389 0 0 0 4.5-24.85v-15.11h60.54z"/><path d="m126.25 24.96h-66.13l-4.55-4.7v-3.59h1.51a4.05 4.05 0 0 0 4.04-4.05v-2.75a4.05 4.05 0 0 0 -4.04-4.05h-16.51a4.05 4.05 0 0 0 -4.04 4.05v2.75a4.05 4.05 0 0 0 4.04 4.05h1.51v3.59l-5.06 5.23a1.733 1.733 0 0 0 -.49 1.22v10.35a1.709 1.709 0 0 0 .49 1.21l5.06 5.23v3.6h-1.51a4.042 4.042 0 0 0 -4.04 4.04v2.75a4.044 4.044 0 0 0 4.04 4.05h16.51a4.044 4.044 0 0 0 4.04-4.05v-2.75a4.042 4.042 0 0 0 -4.04-4.04h-1.51v-3.6l4.55-4.69h66.13a1.752 1.752 0 0 0 1.75-1.75v-10.35a1.746 1.746 0 0 0 -1.75-1.75zm-85.68-11.79a.546.546 0 0 1 -.54-.55v-2.75a.546.546 0 0 1 .54-.55h16.51a.546.546 0 0 1 .54.55v2.75a.546.546 0 0 1 -.54.55zm11.5 3.5v2.55h-6.49v-2.55zm5.01 33.93a.538.538 0 0 1 .54.54v2.75a.54.54 0 0 1 -.54.55h-16.51a.54.54 0 0 1 -.54-.55v-2.75a.538.538 0 0 1 .54-.54zm-11.5-3.5v-2.55h6.49v2.55zm12.04-10.75-4.54 4.7h-8.51l-4.54-4.7v-8.93l4.54-4.7h8.51l4.54 4.7zm66.88-1.04h-63.38v-6.85h63.38z"/><path d="m28.979 48.446a1.75 1.75 0 1 0 2.475-2.475l-4.36-4.36a1.75 1.75 0 0 0 -2.475 2.475z"/><path d="m18.919 52.264 5.341 3.083a1.75 1.75 0 0 0 1.75-3.031l-5.341-3.083a1.75 1.75 0 1 0 -1.75 3.031z"/><path d="m70.558 41.611-4.36 4.36a1.75 1.75 0 1 0 2.475 2.475l4.36-4.36a1.75 1.75 0 0 0 -2.475-2.475z"/><path d="m71 54.707a1.749 1.749 0 0 0 2.391.641l5.34-3.083a1.75 1.75 0 0 0 -1.75-3.031l-5.34 3.083a1.75 1.75 0 0 0 -.641 2.39z"/></svg>