<svg id="icons" enable-background="new 0 0 64 64" height="512" viewBox="0 0 64 64" width="512" xmlns="http://www.w3.org/2000/svg"><path d="m63.954 29.976c-.016-.065-.023-.131-.052-.19-.004-.01-.003-.021-.008-.03l-5.001-10.002c-.022-.044-.061-.073-.088-.113-.042-.06-.079-.12-.133-.17-.048-.043-.103-.071-.156-.105-.055-.034-.105-.071-.167-.094-.068-.026-.139-.032-.211-.042-.048-.007-.09-.028-.14-.028h-11.994c-.553 0-1 .448-1 1v1.528c-1.062-.947-2.455-1.528-3.986-1.528-.001 0-.001 0-.001 0-.283 0-.563.027-.843.067l.802-2.994c.036-.133.043-.268.024-.396-.054-.386-.331-.721-.731-.829l-18.287-4.9c-.019-.006-.037-.01-.057-.015l-.019-.005c-.03-.008-.06 0-.09-.005-.083-.014-.165-.035-.255-.025l-11.483.99-4.66-1.249c-.133-.036-.267-.043-.396-.025-.386.054-.722.332-.829.732l-4.143 15.461c-.012.043-.002.086-.008.129-.006.044-.026.083-.026.129v4.856c-.002.028-.016.051-.016.079s.014.05.016.078v3.845c-.002.025-.016.049-.016.076s.014.051.016.077v3.782c0 .012.006.021.006.031-.004.039-.022.071-.022.11 0 .553.447 1 1 1h4.991v3.992c0 .553.447 1 1 1h1.016c0 3.859 3.141 7 7 7 3.84 0 6.966-3.109 6.997-6.942.031 3.833 3.157 6.942 6.997 6.942 3.859 0 7-3.141 7-7h9.003c0 3.859 3.141 7 7 7s7-3.141 7-7c0-.693-.104-1.363-.294-1.996h4.29c.553 0 1-.447 1-1v-12.994c0-.011-.006-.02-.006-.03-.002-.067-.024-.131-.04-.197zm-11.95 9.217c-1.957 0-3.728.811-4.999 2.109v-1.106-.001-.001-5.923c.001-.024.014-.046.014-.07s-.013-.046-.014-.07l-.001-7.644c.005-.095.015-.188.015-.284s-.01-.189-.015-.285v-4.717h10.377l4.619 9.238v8.756h-9.957c-.014 0-.026-.002-.039-.002zm-29.708 5h-.584c-.343-1.148-.973-2.174-1.808-2.992h4.199c-.834.819-1.464 1.844-1.807 2.992zm-16.43-31.162 2.897.777-3.625 13.53-2.898-.777zm35.151 19.177c.342 0 .674-.035.999-.09v1.084h-2v-1.087c.328.054.661.093 1.001.093zm3.987.993h-.988v-1.805c.354-.206.685-.447.988-.718zm-6.988 0h-1.308l.61-2.279c.223.174.454.334.697.476v1.803zm-22.009 3.26 10.204 2.734h-10.204zm-2 2.734h-6.991v-8.594l6.991 4.892zm-8.991-9.82v1.827h-3v-2.63zm0 3.826v2h-3v-2zm28.076 5.768-16.431-4.402 5.693-21.247 16.431 4.402zm-18.252-5.333-7.847-5.492 3.779-14.107 9.54-.823zm-12.824 3.565h3v2h-3zm33.086 1.994 1.07-3.994h8.833v3.994zm5.916-16.994c2.157 0 3.909 1.72 3.986 3.859v.285c-.077 2.141-1.829 3.862-3.987 3.862-1.219 0-2.351-.551-3.108-1.487l1.667-6.222c.459-.18.938-.297 1.442-.297zm-33.027 21.992v-2.992h2.118c-.835.818-1.465 1.844-1.808 2.992zm7.016 7c-2.757 0-5-2.243-5-5 0-2.73 2.202-4.949 4.923-4.992h.154c2.721.043 4.923 2.262 4.923 4.992 0 2.757-2.243 5-5 5zm13.994 0c-2.757 0-5-2.243-5-5 0-2.73 2.202-4.949 4.923-4.992h.154c2.721.043 4.923 2.262 4.923 4.992 0 2.757-2.243 5-5 5zm6.705-7c-.343-1.148-.973-2.174-1.808-2.992h5.11c.011 0 .019-.006.029-.006h5.967v2.998zm16.298 7c-2.757 0-5-2.243-5-5 0-2.755 2.24-4.996 4.993-4.999.003 0 .005.001.007.001h.02c2.748.011 4.98 2.248 4.98 4.998 0 2.757-2.243 5-5 5zm4.892-9.998h5.104v1.002h-4.257c-.252-.36-.535-.695-.847-1.002z"/><path d="m58.815 29.596-2.922-5.84c-.17-.339-.516-.553-.895-.553h-4.994c-.553 0-1 .448-1 1v6.001c0 .552.447 1 1 1h7.997.02c.553 0 1-.448 1-1 0-.229-.076-.44-.206-.608zm-7.81-.392v-4.001h3.376l2.003 4.001z"/><path d="m15.007 43.193c-1.654 0-3 1.346-3 3s1.346 3 3 3 3-1.346 3-3-1.346-3-3-3zm0 4c-.552 0-1-.448-1-1s.448-1 1-1 1 .448 1 1-.448 1-1 1z"/><path d="m29.001 43.193c-1.654 0-3 1.346-3 3s1.346 3 3 3 3-1.346 3-3-1.346-3-3-3zm0 4c-.552 0-1-.448-1-1s.448-1 1-1 1 .448 1 1-.448 1-1 1z"/><path d="m52.001 43.193c-1.654 0-3 1.346-3 3s1.346 3 3 3 3-1.346 3-3-1.346-3-3-3zm0 4c-.552 0-1-.448-1-1s.448-1 1-1 1 .448 1 1-.448 1-1 1z"/><path d="m51 32.201h-1c-.553 0-1 .448-1 1 0 .553.447 1 1 1h1c.553 0 1-.447 1-1 0-.552-.447-1-1-1z"/><path d="m43.016 36.201h-5c-.553 0-1 .447-1 1s.447 1 1 1h5c.553 0 1-.447 1-1s-.448-1-1-1z"/></svg>