<svg height="512pt" viewBox="0 -7 512 512" width="512pt" xmlns="http://www.w3.org/2000/svg"><path d="m511.082031 303.683594c-.53125-1.03125-1.269531-1.941406-2.171875-2.671875-3.136718-4.660157-8.363281-7.472657-13.976562-7.527344h-206.023438l36.226563-23.25c12.410156-8 21.910156-19.789063 27.097656-33.613281l.996094-2.667969c3.664062-9.664063 10.15625-17.996094 18.628906-23.917969 2.902344 2.589844 6.589844 4.132813 10.46875 4.378906.34375.019532.683594.03125 1.015625.03125 5 .03125 9.738281-2.207031 12.894531-6.082031 13.011719-15.890625 32.886719-22.1875 53.929688-28.855469 14.214843-3.921874 27.9375-9.453124 40.902343-16.484374 9.964844-5.914063 17.101563-15.625 19.769532-26.898438 2.671875-11.277344.648437-23.15625-5.605469-32.910156l-13.148437-20.496094c-6.269532-9.75-16.226563-16.539062-27.589844-18.804688-11.367188-2.269531-23.167969.175782-32.695313 6.773438-1.875 1.296875-3.617187 2.761719-5.402343 4.175781-.117188.070313-.253907.074219-.371094.152344-.238282.160156-.367188.40625-.582032.585937-9.183593 7.800782-17.761718 16.292969-25.660156 25.402344-14.828125 16.351563-28.835937 31.796875-48.703125 37.003906-5.179687 1.347657-9.390625 5.121094-11.296875 10.125-1.390625 3.632813-1.523437 7.625-.375 11.339844-8.910156 5.246094-19.199218 7.675782-29.515625 6.972656l-2.828125-.203124c-14.726562-1.035157-29.398437 2.691406-41.84375 10.628906l-177.152344 113.691406c-1.242187.820312-2.371093 1.804688-3.351562 2.921875h-16.214844c-.292968-.050781-.589844-.085937-.890625-.101563-16.003906.164063-31.011719-7.773437-39.878906-21.097656-1.375-1.882812-2.617187-3.859375-3.722656-5.917968-11.84375-24.191407-8.300781-53.097657 9.039062-73.714844 10.386719-11.816406 25.660157-18.152344 41.359375-17.164063 12.238282.746094 23.324219 7.46875 29.640625 17.972657 7.675781 12.816406 10.558594 32.699218 1.242188 45.855468-7.070313 9.722656-19.082031 14.546875-30.914063 12.40625-6.410156-.976562-11.714844-5.492187-13.695312-11.667968-2.5625-7.902344-.691406-16.570313 4.898437-22.714844.558594-.636719 1.367188-.996094 2.210938-.992188.847656.003906 1.648437.371094 2.203125 1.011719 3.332031 4.699219 5.015625 10.367187 4.777344 16.121094-.046876 2.292969.871093 4.503906 2.53125 6.085937 1.660156 1.582032 3.910156 2.398438 6.199218 2.242188 4.710938-.109375 8.4375-4.019532 8.328125-8.726563.167969-9.960937-3.15625-19.664062-9.402343-27.421875-7.28125-7.789062-19.386719-8.5-27.53125-1.621094-10.945313 10.28125-15.109376 25.882813-10.746094 40.253907 3.472656 12.550781 13.894531 21.960937 26.734375 24.136719 18.46875 3.546874 37.316406-3.945313 48.304687-19.207032 14.203125-20.058594 9.699219-47.507812-.519531-64.570312-9.109375-15.257813-25.152344-25.050782-42.886719-26.171875-21.171875-1.488281-41.808594 7.0625-55.71875 23.09375-21.757812 26.023437-26.109375 62.4375-11.097656 92.855469 1.464844 2.738281 3.121094 5.375 4.953125 7.882812 2.945313 4.054688 6.292969 7.796875 9.996094 11.171875h-6.851563c-5.726562.042969-11.042968 2.964844-14.148437 7.777344-1.507813 1.496093-2.402344 3.507812-2.507813 5.628906-.039062.179687-.066406.363281-.101562.546875l-.007813.046875v.015625c-.191406 1.003906-.2929685 2.027344-.300781 3.050781v170.667969c.0078125 9.421875 7.644531 17.058594 17.066406 17.066406h477.867188c9.421875-.011718 17.054687-7.644531 17.066406-17.066406v-170.667969c-.015625-.773437-.082031-1.546875-.199219-2.3125.195313-1.554687-.054687-3.132812-.71875-4.554687zm-494.015625 12.347656c24.617188-.0625 49.136719 3.023438 72.96875 9.183594l34.375 53.558594c.210938.332031.488282.601562.71875.914062-56.578125-16.175781-81.878906-17.765625-108.0625-17.917969zm80.226563-11.113281 21.542969-13.820313 41.480468 64.632813-21.542968 13.824219-36.023438-56.132813c-.054688-.09375-.117188-.175781-.171875-.269531l-5.285156-8.230469zm50.699219 79 47.316406-30.359375c27.972656 5.242187 56.378906 7.863281 84.839844 7.832031 26.878906.0625 53.710937-2.175781 80.207031-6.6875 5.539062-1.007813 11.167969-1.933594 16.84375-2.777344 40.164062-7.058593 79.582031-17.855469 117.734375-32.25v46.605469c-53.828125-17.253906-127.820313 11.792969-131.316406 13.203125-1.015626.4375-103.003907 42.476563-207.445313 9.558594-4.023437-1.269531-7.789063-2.417969-11.5625-3.570313 1.179687-.390625 2.316406-.910156 3.382813-1.550781zm321.128906-73.367188c-30.78125 10.714844-62.382813 18.910157-94.492188 24.496094-5.800781.871094-11.605468 1.820313-17.292968 2.855469-46.511719 7.816406-93.949219 8.46875-140.660157 1.941406l45.640625-29.292969zm-61.679688-192.621093 12.125 18.160156c2.617188 3.921875 7.914063 4.980468 11.835938 2.363281s4.980468-7.914063 2.363281-11.835937l-14.464844-21.667969c3.242188-3.488281 6.515625-6.773438 9.835938-9.921875l16.042969 24c1.660156 2.609375 4.605468 4.113281 7.691406 3.929687 3.089844-.179687 5.835937-2.015625 7.183594-4.800781 1.347656-2.785156 1.082031-6.078125-.691407-8.613281l-16.941406-25.351563c4.074219-2.617187 8.808594-4.019531 13.652344-4.039062 1.714843 0 3.425781.171875 5.109375.511718 6.820312 1.339844 12.796875 5.414063 16.53125 11.277344l13.152344 20.5c3.753906 5.859375 4.96875 12.992188 3.363281 19.765625-1.605469 6.773438-5.894531 12.601563-11.878907 16.148438-11.847656 6.355469-24.375 11.351562-37.34375 14.890625-22.492187 7.125-45.753906 14.496094-61.933593 34.015625l-2.136719-3.308594-.027344-.070313-.054687-.054687-22.664063-35.003906c-.09375-.289063-.203125-.574219-.328125-.847657-.207031-.242187-.425781-.46875-.65625-.683593l-1.800781-2.777344c22.203125-5.816406 37.660156-20.933594 52.035156-36.585937zm-133.003906 73.304687c9.328125-5.980469 20.34375-8.777344 31.394531-7.96875l2.832031.203125c13.738282.898438 27.433594-2.339844 39.320313-9.292969l14.078125 21.9375c-11.285156 7.894531-19.9375 19-24.824219 31.875l-.996093 2.671875c-3.886719 10.371094-11.011719 19.210938-20.320313 25.207032l-141.238281 90.644531-41.484375-64.632813zm-257.371094 247.78125c22.363282 2.21875 44.292969 7.609375 65.136719 16.003906 10.535156 4.886719 20.53125 10.851563 29.832031 17.804688 4.117188 2.824219 8.277344 5.664062 12.476563 8.398437h-107.445313zm280.882813 42.203125c4.511719-2.933594 9.308593-6.304688 14.488281-10.332031 30.730469-23.90625 53.972656-23.796875 54.179688-23.808594.4375-.007813.910156-.003906 1.355468-.058594 35.925782-2.246093 71.246094 10.082031 97.972656 34.199219zm192.148437 0c-31.082031-35.257812-76.71875-54.164062-123.625-51.207031-4.894531.035156-31.21875 1.503906-64.515625 27.398437-28.730469 22.34375-43.636719 23.769532-51.972656 23.808594h-.375c-.433594 0-.863281 0-1.261719-.003906h-.882812l-.019532.003906h-84.171874c-15.035157-5.082031-29.097657-12.679688-41.589844-22.472656-10.332032-7.714844-21.472656-14.289063-33.222656-19.601563-22.824219-9.222656-46.878907-15.042969-71.394532-17.277343v-43.03125c30.003906.179687 57.082032 2.246093 133.964844 26.480468 29.53125 9.144532 60.285156 13.71875 91.199219 13.566406 43.707031.011719 87.046875-7.992187 127.871093-23.609374.792969-.316407 77.171876-30.222657 124.832032-10.765626v96.710938zm0 0"/><path d="m175.40625 89.40625c-4.378906 1.542969-6.722656 6.296875-5.277344 10.707031 1.445313 4.410157 6.152344 6.855469 10.589844 5.507813 11.234375-3.175782 21.027344-10.125 27.734375-19.675782 6.144531-10.324218 2.957031-23.664062-7.195313-30.09375-15.886718-10.621093-36.179687-5.625-48.761718 1.886719-12.824219 7.992188-19.859375 22.6875-18.042969 37.6875 2.84375 28.597657 26.976563 50.339844 55.714844 50.1875 21.257812-.78125 41.328125-10.007812 55.757812-25.636719 14.296875-15.375 20.011719-36.855468 15.25-57.304687-5.574219-24.4375-22.449219-44.765625-45.441406-54.746094-37.492187-15.527343-80.589844-7.8554685-110.421875 19.65625-2.632812 2.597657-5.078125 5.371094-7.332031 8.304688-16.652344 19.9375-21.75 47.097656-13.457031 71.71875 1.074218 2.890625 3.625 4.972656 6.671874 5.453125 3.042969.480468 6.109376-.71875 8.023438-3.136719 1.910156-2.417969 2.367188-5.679687 1.195312-8.53125-5.949218-19.054687-1.769531-39.824219 11.089844-55.089844 1.78125-2.324219 3.71875-4.519531 5.800782-6.578125 24.820312-22.777344 60.609374-29.066406 91.703124-16.113281 17.945313 7.769531 31.125 23.613281 35.488282 42.675781 3.519531 15.03125-.660156 30.832032-11.15625 42.15625-12.777344 13.863282-35.929688 24.570313-55.402344 18.214844-14.414062-4.832031-24.730469-17.566406-26.472656-32.667969-1.128906-8.488281 2.679687-16.875 9.816406-21.609375 9.007812-6.136718 20.59375-7.039062 30.445312-2.367187 1.28125.652343 2.230469 1.816406 2.613282 3.207031.382812 1.390625.164062 2.875-.605469 4.097656-4.589844 5.960938-11.042969 10.21875-18.328125 12.089844zm0 0"/></svg>