<svg height="512" viewBox="0 0 60 60" width="512" xmlns="http://www.w3.org/2000/svg"><g id="Page-1" fill="none" fill-rule="evenodd"><g id="057---Leaky-Pipe" fill="rgb(0,0,0)" fill-rule="nonzero" transform="translate(0 -1)"><path id="Shape" d="m58 55.184v-21.184c-.0187384-17.1130596-13.8869404-30.98126165-31-31h-14.184c-.4174114-1.19812955-1.5472421-2.00094546-2.816-2.00094546-1.26875793 0-2.39858863.80281591-2.816 2.00094546h-5.184c-1.1045695 0-2 .8954305-2 2v22c0 1.1045695.8954305 2 2 2h5.184c.41741137 1.1981296 1.54724207 2.0009455 2.816 2.0009455 1.2687579 0 2.3985886-.8028159 2.816-2.0009455h14.184c2.7600532.0033061 4.9966939 2.2399468 5 5v21.184c-1.3765475.4848523-2.2026937 1.8918441-1.9553873 3.330178s1.49595 2.4885874 2.9553873 2.485822h24c1.4594373.0027654 2.7080809-1.0474881 2.9553873-2.485822s-.5788398-2.8453257-1.9553873-3.330178zm-56-50.184h5v22h-5zm8 24c-.55228475 0-1-.4477153-1-1v-24c0-.55228475.44771525-1 1-1 .5522847 0 1 .44771525 1 1v24c0 .5522847-.4477153 1-1 1zm3-24h14c16.0084908.01873565 28.9812644 12.9915092 29 29v21h-22v-7.586l2.293 2.293c.3904999.3903819 1.0235001.3903819 1.414 0l1.387-1.387 3.306 2.48c.4418278.3313708 1.0686292.2418278 1.4-.2s.2418278-1.0686292-.2-1.4l-4-3c-.3981261-.2984997-.9551508-.2588644-1.307.093l-1.293 1.293-3-3v-10.586c-.0014713-1.0386024-.235533-2.0636899-.685-3h3.685c.488818-.000225.9058339-.3538004.986-.836l.681-4.083.626.626c.2027643.2083814.4883102.3148189.778.29.2895429-.0211914.5555841-.1671673.729-.4l2.7-3.597h3.5c.3077899-.000085.5983932-.1419035.7878443-.3844791.1894511-.2425755.2566409-.5588797.1821557-.8575209l-1-4c-.0796449-.3539356-.3447323-.636976-.6926975-.7396106-.3479653-.1026346-.7242251-.0087636-.9832013.2452935-.2589763.2540571-.3600447.6284478-.2641012.9783171l.689 2.758h-2.719c-.3147573 0-.6111456.1481942-.8.4l-2.308 3.078-1.185-1.185c-.2649419-.2645894-.6554989-.3589997-1.0120441-.2446441-.3565453.1143557-.6193323.4183146-.6809559.7876441l-.861 5.164h-4.264c-1.304325-1.2820166-3.0601123-2.0002769-4.889-2h-.25l-1.579-2.1 1.729-3.453c.1595566-.320571.1355273-.7019883-.063-1l-2-3c-.1982824-.297245-.5400812-.4661282-.8966441-.4430331s-.6737195.2346599-.832.555c-.1582805.32034-.1336383.7007881.0646441.9980331l1.678 2.517-1.741 3.481c-.1697419.3373806-.1349279.7416101.09 1.045l1.05 1.4h-11.25zm44 54h-24c-.5522847 0-1-.4477153-1-1s.4477153-1 1-1h24c.5522847 0 1 .4477153 1 1s-.4477153 1-1 1z"/><path id="Shape" d="m20.293 32.293c-.293.298-7.293 7.366-7.293 13.707 0 4.418278 3.581722 8 8 8s8-3.581722 8-8c0-6.341-7-13.409-7.293-13.707-.3904999-.3903819-1.0235001-.3903819-1.414 0zm.707 19.707c-3.3123376-.0033074-5.9966926-2.6876624-6-6 0-4.423 4.276-9.62 6-11.536 1.724 1.916 6 7.113 6 11.536-.0033074 3.3123376-2.6876624 5.9966926-6 6z"/></g></g></svg>