<?xml version="1.0"?>
<svg xmlns="http://www.w3.org/2000/svg" viewBox="0 0 64 64" width="512" height="512"><g id="Check_list" data-name="Check list"><rect x="25" y="20" width="4" height="2"/><rect x="35" y="20" width="4" height="2"/><path d="M28.481,36.14A.978.978,0,0,0,28,36H22a1,1,0,0,0-1,1v6a1,1,0,0,0,1,1h6a1,1,0,0,0,1-1V38.25l4.6-3.45-1.2-1.6ZM27,42H23V38h3l-1.6,1.2,1.2,1.6L27,39.75Z"/><path d="M32.4,45.2l-3.919,2.94A.978.978,0,0,0,28,48H22a1,1,0,0,0-1,1v6a1,1,0,0,0,1,1h6a1,1,0,0,0,1-1V50.25l4.6-3.45ZM27,54H23V50h3l-1.6,1.2,1.2,1.6L27,51.75Z"/><path d="M62.385,32.457a1,1,0,0,0-.293-.72l-2.828-2.829a1,1,0,0,0-1.4-.018L51,35.4V5a3,3,0,0,0-3-3H16a3,3,0,0,0-3,3V23H8a1,1,0,0,0-.371.071l-5,2A1,1,0,0,0,2,26V40a1,1,0,0,0,.446.833l3.01,2A1,1,0,0,0,6.01,43H13V59a3,3,0,0,0,3,3H48a3,3,0,0,0,3-3V43.668l11.073-10.5A1,1,0,0,0,62.385,32.457ZM39.471,49.512l1.017,1.017-2.543,1.526Zm2.648-.18-1.413-1.413,14.2-13.467,1.414,1.414ZM6.312,41,4,39.464V26.677L8.192,25H20a2,2,0,0,1,0,4H11a1,1,0,0,0-1,1,3,3,0,0,1-3,3v2a5.008,5.008,0,0,0,4.9-4H13V41ZM32.858,16a3.981,3.981,0,0,0-7.716,0h-.009l.64-5.124A1,1,0,0,1,26.766,10H37.234a1,1,0,0,1,.993.876L38.867,16Zm-2.136,0H27.278a1.983,1.983,0,0,1,3.444,0ZM24,18H40a1,1,0,0,1,1,1v4a1,1,0,0,1-1,1H24a1,1,0,0,1-1-1V19A1,1,0,0,1,24,18Zm12,8h2v1a1,1,0,0,1-2,0ZM26,26h2v1a1,1,0,0,1-2,0ZM49,59a1,1,0,0,1-1,1H16a1,1,0,0,1-1-1V31h5a4,4,0,0,0,4-4,3.913,3.913,0,0,0-.147-1.015c.05,0,.1.015.147.015v1a3,3,0,0,0,6,0V26h4v1a3,3,0,0,0,6,0V26a3,3,0,0,0,3-3V19a2.993,2.993,0,0,0-2.1-2.846L40.633,14H43V12H40.383l-.172-1.372A3,3,0,0,0,37.234,8H26.766a3,3,0,0,0-2.977,2.628L23.617,12H21v2h2.367L23.1,16.154A2.993,2.993,0,0,0,21,19v4c0,.05.012.1.015.147A3.913,3.913,0,0,0,20,23H15V5a1,1,0,0,1,1-1H48a1,1,0,0,1,1,1V37.3L38.584,47.174a1.017,1.017,0,0,0-.169.211l-4.243,7.071a1,1,0,0,0,1.372,1.372l7.071-4.243a1,1,0,0,0,.174-.131L49,45.565Zm8.774-24.51L56.36,33.076l2.178-2.065,1.413,1.414Z"/></g></svg>
