<svg id="Outline" height="512" viewBox="0 0 64 64" width="512" xmlns="http://www.w3.org/2000/svg"><path d="m37 49v-3h1a1 1 0 0 0 0-2h-1v-2h1a1 1 0 0 0 0-2h-1v-2h2a1 1 0 0 0 1-1v-2a1 1 0 0 0 -2 0v1h-12v-4h13a1 1 0 0 0 .85-.47l5-8s0-.05 0-.07a1.07 1.07 0 0 0 .07-.19 1.25 1.25 0 0 0 0-.19.24.24 0 0 0 .08-.08v-1h3a1 1 0 0 0 1-1h9a4 4 0 0 0 0-8h-3a1 1 0 0 0 0 2h3a2 2 0 0 1 0 4h-9v-4h2a1 1 0 0 0 0-2h-2a1 1 0 0 0 -1-1h-3v-5a3 3 0 0 0 -3-3h-1v-1a1 1 0 0 0 -2 0v1h-2v-1a1 1 0 0 0 -2 0v1h-2v-1a1 1 0 0 0 -2 0v1h-2v-1a1 1 0 0 0 -2 0v1h-2v-1a1 1 0 0 0 -2 0v1h-1a3 3 0 0 0 -3 3 1 1 0 0 0 2 0 1 1 0 0 1 1-1h1v1a1 1 0 0 0 2 0v-1h2v1a1 1 0 0 0 2 0v-1h2v1a1 1 0 0 0 2 0v-1h2v1a1 1 0 0 0 2 0v-1h2v1a1 1 0 0 0 2 0v-1h1a1 1 0 0 1 1 1v3h-23a1 1 0 0 0 -1 1v1h-3a1 1 0 0 0 -1 1h-9a4 4 0 0 0 0 8h9a1 1 0 0 0 1 1h3v1a.24.24 0 0 0 0 .08 1.25 1.25 0 0 0 0 .19 1.07 1.07 0 0 0 .07.19s0 .05 0 .07l4.93 7.76v5.71a1 1 0 0 0 1 1h2v2h-1a1 1 0 0 0 0 2h1v2h-1a1 1 0 0 0 0 2h1v3a1 1 0 0 0 1 1h1v7a1 1 0 0 0 .11.45l2 4a1 1 0 0 0 1.78 0l2-4a1 1 0 0 0 .11-.45v-7h1a1 1 0 0 0 1-1zm10-35v6h-2v-6zm-26-2h3v5a1 1 0 0 0 1 1h14a1 1 0 0 0 1-1v-2a1 1 0 0 0 -2 0v1h-12v-4h2v2a1 1 0 0 0 2 0v-2h4v2a1 1 0 0 0 2 0v-2h7v10h-3a1 1 0 0 0 0 2h2.2l-3.75 6h-12.9l-3.75-6h14.2a1 1 0 0 0 0-2h-15zm-15 7a2 2 0 0 1 0-4h9v4zm11 1v-6h2v6zm12 18h6v2h-6zm0 4h6v2h-6zm4 14.76-1 2-1-2v-6.76h2zm-4-8.76v-2h6v2z"/><path d="m26 54.68a1 1 0 0 0 -1-.68h-22a1 1 0 0 0 0 2h21.28l1.77 5.32a1 1 0 0 0 .95.68 1.25 1.25 0 0 0 .32 0 1 1 0 0 0 .68-1.32z"/><path d="m61 54h-22a1 1 0 0 0 -1 .68l-2 6a1 1 0 0 0 .68 1.32 1.25 1.25 0 0 0 .32 0 1 1 0 0 0 1-.68l1.72-5.32h21.28a1 1 0 0 0 0-2z"/><path d="m43.75 44a1 1 0 0 0 -.68.6l-2 5a1 1 0 0 0 .14 1 1 1 0 0 0 .79.4h.14l7-1a1 1 0 0 0 .82-.73 1 1 0 0 0 -.34-1l-5-4a1 1 0 0 0 -.87-.27zm-.18 4.74.86-2.15 2.14 1.72z"/><path d="m17.68 45.05a1 1 0 0 0 -.65.71l-1 4a1 1 0 0 0 .18.86 1 1 0 0 0 .79.38h6a1 1 0 0 0 .94-.67 1 1 0 0 0 -.32-1.11l-5-4a1 1 0 0 0 -.94-.17zm.6 4 .31-1.25 1.56 1.2z"/><path d="m51 40a1 1 0 0 0 -1 1v4a1 1 0 0 0 1 1h6a1 1 0 0 0 .86-1.51l-3-5a1 1 0 0 0 -1.72 1l2.09 3.51h-3.23v-3a1 1 0 0 0 -1-1z"/><path d="m14.55 36.17a1 1 0 0 0 -1.38.28l-2 3a1 1 0 0 0 -.14.79l1 4a1 1 0 0 0 .51.65 1.07 1.07 0 0 0 .46.11.94.94 0 0 0 .37-.07l5-2a1 1 0 0 0 .6-1.17l-1-4a1 1 0 1 0 -1.94.48l.79 3.16-3.13 1.25-.61-2.46 1.75-2.64a1 1 0 0 0 -.28-1.38z"/></svg>