<svg id="Capa_1" enable-background="new 0 0 512 512" height="512" viewBox="0 0 512 512" width="512" xmlns="http://www.w3.org/2000/svg"><g><path d="m248.598 219.47c-1.333-2.347-3.823-3.797-6.522-3.797h-98.653c-3.71 0-6.863 2.713-7.416 6.382l-16.721 110.888c-.326 2.16.306 4.354 1.731 6.01s3.5 2.608 5.685 2.608h20.421l-5.26 80.717c-.219 3.368 1.838 6.468 5.027 7.574.807.28 1.636.415 2.456.415 2.418 0 4.752-1.173 6.181-3.25l78.516-114.131c1.579-2.295 1.755-5.276.459-7.742-1.296-2.465-3.853-4.009-6.638-4.009h-23.577l44.23-74.118c1.382-2.318 1.413-5.2.081-7.547zm-63.962 85.321c-1.383 2.317-1.414 5.199-.082 7.546 1.333 2.347 3.823 3.797 6.522 3.797h22.524l-54.998 79.945 4.009-61.531c.135-2.069-.593-4.103-2.011-5.616s-3.399-2.372-5.473-2.372h-19.71l14.459-95.888h78.99z"/><path d="m31.814 119.777c4.131.175 7.631-3.049 7.799-7.188.714-17.505 1.59-35.268 2.604-52.793 1.146-19.812 16.17-35.966 35.722-38.411 67.84-8.473 136.635-8.493 204.474-.06 19.819 2.469 35.031 18.647 36.17 38.469 6.805 118.034 7.08 237.666.817 355.57-.22 4.136 2.955 7.667 7.092 7.887.135.007.27.011.404.011 3.959 0 7.271-3.102 7.482-7.102 3.226-60.726 4.713-121.907 4.487-183.094 12.139 2.664 21.254 13.493 21.254 26.416v139.63c0 23.187 18.863 42.05 42.05 42.05 11.231 0 21.79-4.374 29.733-12.317 7.942-7.942 12.316-18.502 12.316-29.733v-247.726h7.277c20.606 0 37.371-16.765 37.371-37.372v-51.98c0-4.142-3.357-7.5-7.5-7.5h-16.518v-37.631c0-4.142-3.357-7.5-7.5-7.5s-7.5 3.358-7.5 7.5v37.632h-26.253v-37.632c0-4.142-3.357-7.5-7.5-7.5s-7.5 3.358-7.5 7.5v37.632h-16.515c-4.143 0-7.5 3.358-7.5 7.5v51.98c0 20.607 16.765 37.372 37.372 37.372h7.268v247.728c0 7.225-2.813 14.018-7.924 19.127-5.109 5.109-11.901 7.923-19.126 7.923-14.915 0-27.05-12.135-27.05-27.05v-139.63c0-21.246-15.846-38.851-36.342-41.651-.444-53.088-2.179-106.153-5.221-158.9-1.554-27.052-22.283-49.128-49.293-52.492-69.069-8.587-139.113-8.566-208.185.059-26.734 3.344-47.273 25.393-48.836 52.429-1.019 17.61-1.898 35.458-2.616 53.047-.169 4.139 3.049 7.631 7.187 7.8zm367.766-5.763v-44.48h74.288v44.48c0 12.336-10.035 22.372-22.371 22.372h-29.545c-12.336 0-22.372-10.036-22.372-22.372z"/><path d="m129.322 156.936v-87.274c0-12.348-10.045-22.393-22.393-22.393h-19.512c-12.348 0-22.393 10.046-22.393 22.393v87.274c0 12.348 10.045 22.393 22.393 22.393h19.513c12.347 0 22.392-10.046 22.392-22.393zm-15 0c0 4.077-3.316 7.393-7.393 7.393h-19.512c-4.077 0-7.393-3.316-7.393-7.393v-87.274c0-4.077 3.316-7.393 7.393-7.393h19.513c4.077 0 7.393 3.317 7.393 7.393v87.274z"/><path d="m190.16 181.033c12.348 0 22.393-10.045 22.393-22.393v-87.274c0-12.348-10.045-22.393-22.393-22.393h-19.513c-12.348 0-22.393 10.046-22.393 22.393v87.274c0 12.348 10.045 22.393 22.393 22.393zm-26.906-22.393v-87.274c0-4.077 3.316-7.393 7.393-7.393h19.513c4.077 0 7.393 3.317 7.393 7.393v87.274c0 4.077-3.316 7.393-7.393 7.393h-19.513c-4.077 0-7.393-3.316-7.393-7.393z"/><path d="m273.391 181.033c12.348 0 22.393-10.045 22.393-22.393v-87.274c0-12.348-10.045-22.393-22.393-22.393h-19.513c-12.348 0-22.393 10.046-22.393 22.393v87.274c0 12.348 10.045 22.393 22.393 22.393zm-26.907-22.393v-87.274c0-4.077 3.316-7.393 7.393-7.393h19.513c4.076 0 7.393 3.317 7.393 7.393v87.274c0 4.077-3.316 7.393-7.393 7.393h-19.513c-4.076 0-7.393-3.316-7.393-7.393z"/><path d="m487.208 462.399h-165.361c3.355-4.323 6.09-9.138 8.073-14.294 1.487-3.866-.442-8.206-4.309-9.692-3.867-1.487-8.206.443-9.691 4.309-3.099 8.059-8.699 14.978-15.875 19.677h-239.273c-10.898-7.115-17.797-18.964-18.555-32.088-5.507-95.425-6.752-192.264-3.701-287.828.132-4.14-3.117-7.603-7.257-7.735-4.138-.144-7.604 3.117-7.735 7.257-3.065 96.01-1.814 193.301 3.719 289.172.667 11.552 4.832 22.38 11.694 31.223h-14.145c-13.67-.001-24.792 11.121-24.792 24.791s11.122 24.792 24.792 24.792h462.416c13.67 0 24.792-11.122 24.792-24.792s-11.122-24.792-24.792-24.792zm0 34.584h-462.416c-5.399 0-9.792-4.393-9.792-9.792s4.393-9.792 9.792-9.792h462.416c5.399 0 9.792 4.393 9.792 9.792s-4.393 9.792-9.792 9.792z"/></g></svg>