<svg id="Capa_1" enable-background="new 0 0 480 480" height="512" viewBox="0 0 480 480" width="512" xmlns="http://www.w3.org/2000/svg"><path d="m458.078 224c-9.46-.001-17.864 6.04-20.878 15.008l-4.2 12.68-44.031 44.031-67.6-5.64-4.015-12.517-15.235 4.876 10.266 32.015c.597 1.843 1.84 3.407 3.5 4.406l40 24c1.242.748 2.665 1.143 4.115 1.141h16c4.417.003 7.997 3.583 8 8 .004 2.157-.884 4.22-2.453 5.7-1.46 1.488-3.462 2.319-5.547 2.3h-98.148l-54.227-170.43c-1.344-4.209-5.845-6.531-10.054-5.188-1.474.471-2.779 1.358-3.759 2.556l-141.601 173.062h-52.211v-84.461l154.9-140.812c19.826-18.054 49.61-19.686 71.29-3.907 1.343.992 2.64 2.055 3.9 3.172l10.61-11.984c-1.6-1.414-3.257-2.758-5.039-4.086-27.813-20.282-66.053-18.212-91.515 4.953l-157.529 143.203c-1.667 1.518-2.617 3.668-2.617 5.922v96c0 4.418 3.582 8 8 8h432c3.573.002 6.715-2.365 7.7-5.8l32-112c.202-.716.303-1.456.3-2.2v-10.078c-.015-12.101-9.821-21.907-21.922-21.922zm-245.226-15.523 23.721 74.558-79.305-6.62zm-67.874 82.96 96.84 8.084 19.241 60.479h-172.177zm319.022-36.554-30.031 105.117h-35.425c4.529-12.339-1.802-26.014-14.142-30.543-2.69-.987-5.537-1.481-8.402-1.457h-13.781l-35.519-21.312-.038-.119 64.679 5.4c2.347.218 4.668-.631 6.32-2.313l48-48c.883-.88 1.547-1.956 1.938-3.14l4.781-14.43c.827-2.444 3.12-4.088 5.7-4.086 3.268.004 5.917 2.654 5.92 5.922z"/><path d="m472 152v-16h-61.875l-46.773-26.727c-6.047-3.453-12.889-5.27-19.852-5.273h-47.25c-13.099-.044-24.888 7.938-29.711 20.117l-9.969 24.914c-1.422 3.401-.258 7.333 2.787 9.411l-1.912 3.5c-11.53 21.251-13.544 46.384-5.547 69.2l12.563 35.523c1.125 3.195 4.143 5.333 7.531 5.335.469.001.938-.041 1.4-.125l45.515-7.992c4.352-.765 7.259-4.913 6.493-9.265-.06-.339-.141-.673-.243-1.001l-12.242-39.211c-2.257-7.249-2.721-14.938-1.352-22.406h29.257c11.513 10.26 26.384 15.951 41.805 16h57.375c4.418 0 8-3.582 8-8h24v-16h-24v-32zm-174.352 67.18 9.524 30.508-29.891 5.257-10.3-29.125c-5.205-14.94-5.16-31.209.127-46.12 4.147 7.655 12.187 12.388 20.892 12.3h7.354c-1.235 9.119-.451 18.397 2.294 27.18zm84.977-27.18c-12.359-.035-24.205-4.942-32.969-13.656-1.5-1.501-3.534-2.344-5.656-2.344h-56c-4.418.004-8.003-3.575-8.006-7.994 0-.472.041-.942.123-1.406.6-3.7 4.438-6.6 8.742-6.6h47.141c4.418-.008 7.993-3.596 7.985-8.015-.007-3.661-2.497-6.85-6.047-7.743l-32-8c-2.725-.686-5.609.112-7.594 2.1l-5.656 5.658h-16.868l5.578-13.945c2.41-6.088 8.304-10.078 14.852-10.055h47.25c4.176.001 8.28 1.092 11.906 3.164l48.625 27.781c1.208.693 2.576 1.057 3.969 1.055h24v40z"/></svg>