<svg id="Layer_1_1_" enable-background="new 0 0 64 64" height="512" viewBox="0 0 64 64" width="512" xmlns="http://www.w3.org/2000/svg"><path d="m26.75 31h-1.5c0 1.241-1.009 2.25-2.25 2.25s-2.25-1.009-2.25-2.25h-1.5c0 2.068 1.682 3.75 3.75 3.75s3.75-1.682 3.75-3.75z"/><path d="m61 34h-22c-.552 0-1 .448-1 1v7.084c-.33-.047-.663-.084-1-.084h-8v-4.617c.863-.501 1.675-1.102 2.407-1.82 1.833-1.8 3.002-4.082 3.416-6.563h.677c1.93 0 3.5-1.57 3.5-3.5s-1.57-3.5-3.5-3.5h-.5v-2h1c.552 0 1-.448 1-1v-2.072c0-5.751-3.606-11.002-8.975-13.067-3.24-1.246-6.811-1.247-10.051 0-5.368 2.065-8.974 7.316-8.974 13.067 0 .065.006.13.019.193l.972 4.93c-1.687.25-2.991 1.694-2.991 3.449 0 1.93 1.57 3.5 3.5 3.5h.675c.594 3.625 2.768 6.674 5.825 8.419v4.581h-8c-3.86 0-7 3.14-7 7v12c0 .552.448 1 1 1h36 22c.552 0 1-.448 1-1v-26c0-.552-.448-1-1-1zm-23 10.111v15.889h-10.18l-1.455-7.274 1.015-.761 2.226.954c.126.054.26.081.394.081.14 0 .279-.029.41-.088.255-.114.451-.331.539-.596l2.772-8.316h3.279c.339 0 .672.044 1 .111zm-15 5.977 2.259.968-2.259 1.694-2.259-1.694zm-.6 4.712c.178.133.389.2.6.2s.422-.067.6-.2l.991-.744 1.189 5.944h-5.56l1.189-5.944zm9.212-10.8-2.217 6.653-4.109-1.761c1.635-1.031 3.714-2.758 3.714-4.892zm.388-16h-4c-.551 0-1-.449-1-1v-2h.568c-.199.284-.318.628-.318 1 0 .965.785 1.75 1.75 1.75s1.75-.785 1.75-1.75c0-.372-.119-.716-.318-1h2.568v2c0 .551-.449 1-1 1zm-7-4h-4c0-.552-.448-1-1-1h-7v-.807l3.549-8.874c2.87 1.211 11.474 4.78 16.451 6.208v3.473h-7c-.552 0-1 .448-1 1zm-12 3v-2h2.568c-.199.284-.318.628-.318 1 0 .965.785 1.75 1.75 1.75s1.75-.785 1.75-1.75c0-.372-.119-.716-.318-1h.568v2c0 .551-.449 1-1 1h-4c-.551 0-1-.449-1-1zm4.25-1c0 .275-.5.275-.5 0 0-.138.112-.25.25-.25s.25.112.25.25zm12 0c0 .275-.5.275-.5 0 0-.138.112-.25.25-.25s.25.112.25.25zm6.25-2c.827 0 1.5.673 1.5 1.5s-.673 1.5-1.5 1.5h-.5v-3zm-16.808-18.271c2.778-1.069 5.838-1.067 8.615 0 4.602 1.769 7.693 6.27 7.693 11.199v1.05c-5.007-1.082-18.469-6.839-18.606-6.897-.248-.106-.528-.108-.777-.005s-.446.302-.546.552l-3.414 8.536-.657-3.331c.04-4.892 3.121-9.346 7.692-11.104zm-8.192 21.271c-.827 0-1.5-.673-1.5-1.5s.673-1.5 1.5-1.5h.5v3zm2.93 2.942c.185.036.375.058.57.058h4c1.654 0 3-1.346 3-3v-1h4v1c0 1.654 1.346 3 3 3h4c.193 0 .38-.022.563-.057-.481 1.571-1.349 3.007-2.557 4.193-1.93 1.896-4.481 2.931-7.194 2.862-4.476-.082-8.163-3.004-9.382-7.056zm9.346 9.056c.076.001.151.002.226.002 1.385 0 2.729-.246 3.998-.694v5.694c0 1.415-2.304 3.047-3.999 3.893-1.525-.769-4.001-2.435-4.001-3.893v-5.678c1.182.41 2.448.652 3.776.676zm-2.062 9.894-4.109 1.761-2.217-6.653h2.612c0 2.134 2.079 3.861 3.714 4.892zm-16.714.108c0-2.757 2.243-5 5-5h3.279l2.772 8.316c.088.265.284.481.539.596s.546.118.804.007l2.226-.954 1.015.761-1.455 7.274h-14.18zm56 11h-20v-24h20z"/><path d="m43 44h14c.552 0 1-.448 1-1v-4c0-.552-.448-1-1-1h-14c-.552 0-1 .448-1 1v4c0 .552.448 1 1 1zm1-4h12v2h-12z"/><path d="m42 46h4v2h-4z"/><path d="m48 46h4v2h-4z"/><path d="m54 46h4v2h-4z"/><path d="m42 50h4v2h-4z"/><path d="m48 50h4v2h-4z"/><path d="m54 50h4v2h-4z"/><path d="m42 54h4v2h-4z"/><path d="m48 54h4v2h-4z"/><path d="m54 54h4v2h-4z"/><path d="m50 2c-6.617 0-12 5.383-12 12 0 3.556 1.534 6.846 4.234 9.134l-1.183 3.55c-.122.366-.023.769.255 1.037.19.182.44.279.694.279.118 0 .237-.021.351-.063l5.628-2.111c.676.115 1.355.174 2.021.174 6.617 0 12-5.383 12-12s-5.383-12-12-12zm0 22c-.631 0-1.278-.063-1.921-.189-.182-.035-.37-.02-.542.045l-3.925 1.472.741-2.223c.136-.408-.004-.857-.348-1.116-2.546-1.913-4.005-4.825-4.005-7.989 0-5.514 4.486-10 10-10s10 4.486 10 10-4.486 10-10 10z"/><path d="m42.722 12.5h15.556v2h-15.556z" transform="matrix(.707 -.707 .707 .707 5.245 39.663)"/><circle cx="54" cy="17" r="2"/><circle cx="47" cy="10" r="2"/></svg>