<?xml version="1.0" encoding="iso-8859-1"?>
<!-- Generator: Adobe Illustrator 19.0.0, SVG Export Plug-In . SVG Version: 6.00 Build 0)  -->
<svg version="1.1" id="Layer_1" xmlns="http://www.w3.org/2000/svg" xmlns:xlink="http://www.w3.org/1999/xlink" x="0px" y="0px"
	 viewBox="0 0 512.001 512.001" style="enable-background:new 0 0 512.001 512.001;" xml:space="preserve">
<g>
	<g>
		<path d="M409.755,209.678c-9.883,0-19.441,1.414-28.486,4.043l-25.554-67.518h21.144c4.486,0,8.12-3.635,8.12-8.12
			c0-2.276-0.939-4.331-2.447-5.804h25.112c0.78,2.773,1.313,6.676,0.019,10.663c-1.983,6.114-7.801,11.292-17.289,15.389
			c-4.117,1.778-6.014,6.557-4.237,10.673c1.325,3.068,4.316,4.904,7.46,4.904c1.074,0,2.165-0.214,3.214-0.667
			c13.963-6.028,22.812-14.537,26.3-25.288c4.73-14.581-2.729-27.401-3.049-27.94c-1.463-2.464-4.116-3.974-6.981-3.974H364.72
			c-4.486,0-8.12,3.635-8.12,8.12c0,2.276,0.939,4.331,2.447,5.804h-15.086c-2.668,0-5.165,1.31-6.681,3.505
			c-1.516,2.195-1.858,4.994-0.914,7.49l6.728,17.774l-155.19,19.081l-5.397-17.7c-0.17-0.556-0.396-1.079-0.667-1.569
			l-4.732-15.515l36.706-7.807c3.515-0.747,6.12-3.718,6.405-7.3c0.052-0.648,0.038-1.192,0.029-1.551l-0.004-9.64
			c0-8.621-4.218-18.897-24.312-18.897h-55.316c-13.405,0-24.309,10.906-24.309,24.31v4.031c0,13.405,10.905,24.31,24.309,24.31
			c0.522,0,1.044-0.051,1.556-0.151l7.111-1.388c0.045-0.009,0.09-0.018,0.134-0.027l11.746-2.499l5.621,18.429
			c0.162,0.533,0.389,1.025,0.644,1.496l5.838,19.146l-23.063,36.154c-14.311-7.633-30.637-11.968-47.957-11.968
			C45.867,209.678,0,255.543,0,311.921c0,56.379,45.867,102.247,102.246,102.247c41.601,0,77.474-24.976,93.424-60.72
			c6.989,9.944,18.54,16.461,31.589,16.461c2.008,0,3.982-0.156,5.908-0.453l9.784,25.556c1.202,3.142,4.218,5.216,7.583,5.216
			h15.992c4.486,0,8.12-3.635,8.12-8.12s-3.635-8.12-8.12-8.12H256.12l-7.795-20.361c10.543-6.897,17.527-18.802,17.527-32.314
			c0-9.871-3.729-18.883-9.846-25.715l95.304-125.153l14.775,39.038c-34.594,16.408-58.576,51.672-58.576,92.435
			c0,56.379,45.866,102.247,102.246,102.247c56.379,0,102.246-45.868,102.246-102.247C512,255.543,466.133,209.678,409.755,209.678z
			 M146.103,133.019l-6.14,1.197c-4.146-0.333-7.418-3.813-7.418-8.044v-4.031c0-4.45,3.62-8.07,8.069-8.07h55.316
			c6.629,0,7.873,1.239,7.873,1.239l0.002,0.003c0,0,0.196,0.355,0.196,1.416v3.976L146.103,133.019z M102.246,397.928
			c-47.423,0-86.006-38.583-86.006-86.007c0-47.422,38.582-86.004,86.006-86.004c14.108,0,27.422,3.436,39.182,9.483l-7.231,11.336
			c-9.649-4.749-20.491-7.427-31.951-7.427c-40.039,0-72.613,32.573-72.613,72.611c0,40.038,32.574,72.613,72.613,72.613
			c25.407,0,49.3-13.559,62.357-35.389c2.302-3.849,1.048-8.835-2.801-11.136c-3.848-2.301-8.832-1.049-11.136,2.801
			c-10.14,16.953-28.693,27.485-48.419,27.485c-31.085,0-56.373-25.288-56.373-56.373c0-31.084,25.288-56.371,56.373-56.371
			c8.247,0,16.078,1.795,23.145,4.99l-19.662,30.823c-1.136-0.192-2.294-0.315-3.483-0.315c-11.511,0-20.875,9.364-20.875,20.874
			c0,11.511,9.364,20.875,20.875,20.875c7.476,0,14.026-3.963,17.715-9.884l65.628,10.265
			C176.101,370.354,142.334,397.928,102.246,397.928z M158.619,311.921c0,0.199-0.017,0.398-0.019,0.598l-36.122-5.651
			c-0.615-2.459-1.65-4.75-3.052-6.779l19.646-30.797C151.03,279.638,158.619,294.905,158.619,311.921z M106.881,311.922
			c0,2.555-2.08,4.635-4.635,4.635s-4.635-2.08-4.635-4.635s2.08-4.634,4.635-4.634S106.881,309.366,106.881,311.922z
			 M188.078,317.129l-13.295-2.08c0.044-1.044,0.076-2.087,0.076-3.129c0-22.764-10.539-43.105-26.985-56.428l7.232-11.338
			c20.152,15.754,33.144,40.264,33.144,67.766C188.25,313.671,188.182,315.404,188.078,317.129z M163.882,230.399l15.614-24.476
			l28.112,92.193c-1.298,0.771-2.548,1.616-3.742,2.529C200.712,272.034,185.709,246.942,163.882,230.399z M242.275,347.826
			l-7.433-19.415c-1.601-4.188-6.298-6.287-10.487-4.679c-4.188,1.602-6.284,6.298-4.679,10.487l7.444,19.444
			c-12.262-0.076-22.218-10.068-22.218-22.347c0-12.326,10.029-22.354,22.355-22.354s22.353,10.029,22.353,22.354
			C249.612,337.858,246.769,343.735,242.275,347.826z M272.247,257.468l-3.173-2.286l9.486-12.676l3.282,2.362L272.247,257.468z
			 M249.228,254.598l-5.634-4.216l21.28-28.438l5.634,4.217L249.228,254.598z M291.685,231.943l-3.392-2.443l0.083-0.112
			c1.289-1.724,1.843-3.89,1.536-6.022c-0.307-2.132-1.449-4.055-3.173-5.345l-2.815-2.107l4.018-5.369
			c2.686-3.59,1.954-8.68-1.636-11.367c-3.591-2.686-8.679-1.953-11.367,1.636l-4.019,5.37l-2.818-2.109
			c-3.588-2.685-8.68-1.954-11.366,1.637l-31.011,41.438c-2.686,3.589-1.954,8.679,1.636,11.366l18.636,13.947
			c1.413,1.058,3.122,1.619,4.866,1.619c0.384,0,0.772-0.027,1.156-0.082c2.132-0.307,4.055-1.449,5.345-3.173l1.976-2.64
			l3.063,2.205l-19.526,25.641c-4.779-2.124-10.061-3.315-15.62-3.315c-1.436,0-2.851,0.086-4.245,0.238l-30.302-99.375
			l141.426-17.388L291.685,231.943z M409.755,397.928c-47.423,0-86.006-38.583-86.006-86.007c0-33.828,19.64-63.145,48.11-77.18
			l4.755,12.566c-13.37,6.831-24.099,17.442-31.141,30.843c-9.021,17.17-10.816,36.827-5.055,55.346
			c5.762,18.519,18.391,33.688,35.562,42.708c10.569,5.553,22.077,8.368,33.684,8.367c7.25,0,14.541-1.099,21.661-3.314
			c18.52-5.763,33.689-18.393,42.709-35.564c18.622-35.446,4.937-79.433-30.509-98.055c-10.278-5.399-21.81-8.285-33.344-8.343
			c-0.014,0-0.027,0-0.042,0c-4.465,0-8.096,3.609-8.119,8.079c-0.023,4.486,3.594,8.138,8.079,8.161
			c9.072,0.045,17.776,2.227,25.873,6.48c27.517,14.457,38.142,48.607,23.685,76.125c-7.003,13.331-18.779,23.136-33.157,27.609
			c-14.379,4.475-29.637,3.08-42.968-3.923c-13.33-7.003-23.134-18.778-27.607-33.156c-4.474-14.378-3.08-29.638,3.924-42.969
			c5.183-9.861,12.936-17.768,22.562-23.079l12.951,34.218c-3.984,3.803-6.482,9.151-6.482,15.081
			c0,11.511,9.364,20.875,20.875,20.875c11.51,0,20.873-9.364,20.873-20.875c0-11.241-8.939-20.412-20.079-20.834l-23.505-62.104
			c7.24-1.985,14.849-3.066,22.709-3.066c47.423,0,86.006,38.581,86.006,86.004C495.76,359.345,457.179,397.928,409.755,397.928z
			 M405.122,311.921c0-2.555,2.079-4.634,4.635-4.634c2.554,0,4.633,2.079,4.633,4.634s-2.079,4.635-4.633,4.635
			C407.202,316.556,405.122,314.476,405.122,311.921z"/>
	</g>
</g>
<g>
</g>
<g>
</g>
<g>
</g>
<g>
</g>
<g>
</g>
<g>
</g>
<g>
</g>
<g>
</g>
<g>
</g>
<g>
</g>
<g>
</g>
<g>
</g>
<g>
</g>
<g>
</g>
<g>
</g>
</svg>
