<?xml version="1.0"?>
<svg xmlns="http://www.w3.org/2000/svg" viewBox="0 0 512 512" width="512" height="512"><g id="Farm_Products_Conveyor" data-name="Farm Products Conveyor"><g id="Outline"><path d="M456,400H56a56,56,0,0,0,0,112H456a56,56,0,0,0,0-112Zm0,96H56a40,40,0,0,1,0-80H456a40,40,0,0,1,0,80Z"/><path d="M425.376,448H406.624c-7.546-21.276-37.7-21.288-45.248,0H342.624c-7.546-21.276-37.7-21.288-45.248,0H278.624c-7.546-21.276-37.7-21.288-45.248,0H214.624c-7.546-21.276-37.7-21.288-45.248,0H150.624c-7.546-21.276-37.7-21.288-45.248,0H86.624C77.631,422.644,40,429.192,40,456s37.627,33.368,46.624,8h18.752c7.546,21.276,37.7,21.288,45.248,0h18.752c7.546,21.276,37.7,21.288,45.248,0h18.752c7.546,21.276,37.7,21.288,45.248,0h18.752c7.546,21.276,37.7,21.288,45.248,0h18.752c7.546,21.276,37.7,21.288,45.248,0h18.752C434.369,489.356,472,482.808,472,456S434.372,422.636,425.376,448ZM64,464a8,8,0,1,1,8-8A8.009,8.009,0,0,1,64,464Zm64,0a8,8,0,1,1,8-8A8.009,8.009,0,0,1,128,464Zm64,0a8,8,0,1,1,8-8A8.009,8.009,0,0,1,192,464Zm64,0a8,8,0,1,1,8-8A8.009,8.009,0,0,1,256,464Zm64,0a8,8,0,1,1,8-8A8.009,8.009,0,0,1,320,464Zm64,0a8,8,0,1,1,8-8A8.009,8.009,0,0,1,384,464Zm64,0a8,8,0,1,1,8-8A8.009,8.009,0,0,1,448,464Z"/><path d="M232,384a8,8,0,0,0,8-8V256a16.019,16.019,0,0,0-16-16H144a8,8,0,0,0,0,16h80V376A8,8,0,0,0,232,384Z"/><path d="M64,240a16.019,16.019,0,0,0-16,16V376a8,8,0,0,0,16,0V256H80a8,8,0,0,0,0-16Z"/><path d="M152,384a40,40,0,0,0,8.876-78.995c3.542-6.228,11.239-9,14.166-9a8,8,0,1,0,0-16c-6.491,0-15.864,3.418-22.79,10.235a36.715,36.715,0,0,0-14.137-12.928c-16.552-8.078-36.641,1.082-37.488,1.476a8,8,0,0,0-4.42,9.059c2.8,12.121,11.462,26.553,24.333,31.5C100.089,345.376,118.607,384,152,384Zm0-64a24,24,0,1,1-24,24A24.028,24.028,0,0,1,152,320Zm-37.766-28.968c13.822-3.285,21.831.613,27.758,13.544C128.169,307.858,120.161,303.962,114.234,291.032Z"/><path d="M424,208a8,8,0,0,0,0-16H344a8,8,0,0,0,0,16Z"/><path d="M280,240a8,8,0,0,0-8,8V352a16.019,16.019,0,0,0,16,16H448a16.019,16.019,0,0,0,16-16V248a8,8,0,0,0-16,0V352H288V248A8,8,0,0,0,280,240Z"/><path d="M320.206,239.842c2.86,12.342,11.6,26.6,24.334,31.5C324.089,297.376,342.607,336,376,336a40,40,0,0,0,8.876-78.995c3.542-6.228,11.239-9,14.166-9a8,8,0,0,0,0-16c-6.491,0-15.864,3.418-22.79,10.235a36.715,36.715,0,0,0-14.137-12.928c-16.551-8.077-36.64,1.082-37.488,1.476A8,8,0,0,0,320.206,239.842ZM376,272a24,24,0,1,1-24,24A24.028,24.028,0,0,1,376,272Zm-10.008-15.424c-13.825,3.282-21.829-.614-27.758-13.544C343.392,241.807,360.065,243.646,365.992,256.576Z"/><circle cx="368" cy="40" r="8"/><circle cx="168" cy="40" r="8"/><path d="M147.216,51.993C142.828,44.41,142.084,49.481,8,48A8,8,0,0,0,8,64H136.011a39.984,39.984,0,0,0,63.968,0H336V83.719C318.776,96.354,312,96.835,312,104v8H272a32.036,32.036,0,0,0-32,32v56a8,8,0,0,0,4.422,7.155c33.227,16.292,34.5,18.915,39.784,15.65,6.816-4.212,2.543-9.35,3.794-62.805h24v8a8,8,0,0,0,8,8h96a8,8,0,0,0,8-8v-8h24c1.279,54.645-2.89,58.674,3.794,62.805,5.324,3.289,6.749.547,39.784-15.65A8,8,0,0,0,496,200V144a32.036,32.036,0,0,0-32-32H424c-.523-5.158,1.718-11.137-3.562-14.656L400,83.719V64h-.022A39.788,39.788,0,0,0,408,40c0-38.173-48.871-54.734-71.988-24H232a8,8,0,0,0,0,16c110.643-1.48,111.013,3.271,115.216-3.993C359.514,6.756,392,15.607,392,40c0,24.357-32.47,33.272-44.784,11.993C342.93,44.584,343.876,49.5,207.2,48c8.51-41.753-45.756-65.8-71.184-32H8A8,8,0,0,0,8,32c134.236-1.482,134.84,3.569,139.216-3.993a24,24,0,1,1,0,23.986ZM312,144H280a8,8,0,0,0-8,8v51.056l-16-8V144a16.019,16.019,0,0,1,16-16h40Zm112-16h40a16.019,16.019,0,0,1,16,16v51.056l-16,8V152a8,8,0,0,0-8-8H424ZM352,88V76.633a39.79,39.79,0,0,0,32,.017c.651,8.042-1.949,14.333,3.563,18.006L408,108.281V160H392V128a8,8,0,0,0-16,0v32H360V128a8,8,0,0,0-16,0v32H328V108.281C345.224,95.646,352,95.165,352,88Z"/><circle cx="112" cy="248" r="8"/><circle cx="312" cy="200" r="8"/></g></g></svg>
