<svg height="511pt" viewBox="0 0 511.99823 511" width="511pt" xmlns="http://www.w3.org/2000/svg"><path d="m8.535156 512.488281h409.597656c4.714844 0 8.535157-3.820312 8.535157-8.53125v-76.800781h59.730469c4.714843 0 8.535156-3.820312 8.535156-8.53125v-85.335938c0-4.710937-3.820313-8.53125-8.535156-8.53125h-59.730469v-76.800781c0-4.714843-3.820313-8.535156-8.535157-8.535156h-15.660156c1.203125-5.578125-.070312-11.40625-3.488281-15.976563l-38.558594-51.398437 17.804688-13.355469c7.910156-5.921875 12.328125-15.414062 11.769531-25.28125l-.855469-15.367187c-.234375-4.167969 1.632813-8.175781 4.972657-10.679688l17.800781-13.351562 7.492187 9.984375c1.355469 1.808594 3.375 3.007812 5.617188 3.328125.398437.054687.800781.085937 1.207031.082031 1.847656.003906 3.644531-.597656 5.121094-1.707031l70.40625-52.816407c11.304687-8.480468 13.597656-24.523437 5.117187-35.832031l-4.742187-6.328125c-8.492188-11.292968-24.527344-13.578125-35.839844-5.109375l-70.398437 52.8125c-3.769532 2.828125-4.535157 8.179688-1.707032 11.949219l7.488282 9.984375-17.800782 13.355469c-7.910156 5.921875-12.332031 15.410156-11.769531 25.277344l.851563 15.367187c.238281 4.167969-1.628907 8.179687-4.96875 10.679687l-17.800782 13.355469-38.5625-51.398437c-4.035156-5.464844-10.589844-8.476563-17.367187-7.980469-6.464844.46875-12.242188 4.21875-15.308594 9.933594l-70.117187 130.472656h-200.300782c-4.714844 0-8.535156 3.820313-8.535156 8.535156v85.332031c0 4.714844 3.820312 8.535157 8.535156 8.535157h59.730469v68.265625h-59.730469c-4.714844 0-8.535156 3.820312-8.535156 8.535156v85.332031c0 4.710938 3.820312 8.53125 8.535156 8.53125zm468.003906-493.226562c3.765626-2.828125 9.113282-2.066407 11.945313 1.703125l4.742187 6.328125c2.824219 3.769531 2.058594 9.113281-1.707031 11.941406l-63.582031 47.699219-14.980469-19.976563zm-322.9375 407.894531h119.464844v68.265625h-119.464844zm68.265626-85.332031h119.464843v68.265625h-119.464843zm187.734374 153.597656h-119.46875v-68.265625h119.46875zm68.265626-85.332031h-119.46875v-68.265625h119.46875zm-68.265626-85.332032h-119.46875v-49.691406l87.34375-18.578125h32.125zm-115.609374-207.722656c.289062-.597656.890624-.980468 1.554687-1l.167969-.007812c.90625.015625 1.746094.464844 2.261718 1.207031l38.554688 51.398437-35.203125 26.410157c-3.769531 2.828125-4.535156 8.175781-1.707031 11.949219 2.828125 3.769531 8.175781 4.53125 11.949218 1.707031l35.203126-26.410157 38.558593 51.398438c.613281.75.792969 1.761719.46875 2.671875-.203125.632813-.738281 1.097656-1.394531 1.214844l-169.292969 36c-1.050781.164062-2.105469-.285157-2.710937-1.160157-.679688-.820312-.816406-1.960937-.351563-2.921874zm-95.238282 165.621094c4.546875 6.253906 12.351563 9.234375 19.910156 7.609375l54.402344-11.570313v46.0625h-119.464844v-68.269531h46.058594l-2.644531 4.921875c-3.65625 6.808594-2.972656 15.125 1.738281 21.246094zm-181.6875 7.96875h17.066406c4.714844 0 8.535157-3.820312 8.535157-8.535156 0-4.710938-3.820313-8.53125-8.535157-8.53125h-17.066406v-17.070313h119.46875v68.269531h-119.46875zm68.265625 51.199219h119.46875v68.265625h-119.46875zm-68.265625 85.332031h119.46875v68.265625h-119.46875zm0 0"/><path d="m110.933594 282.089844c0-4.710938-3.820313-8.53125-8.535156-8.53125h-34.132813c-4.710937 0-8.53125 3.820312-8.53125 8.53125 0 4.714844 3.820313 8.535156 8.53125 8.535156h34.132813c4.714843 0 8.535156-3.820312 8.535156-8.535156zm0 0"/></svg>