<svg height="512" viewBox="0 0 60 61" width="512" xmlns="http://www.w3.org/2000/svg"><g id="Page-1" fill="none" fill-rule="evenodd"><g id="044---Ace-of-Spades" fill="rgb(0,0,0)" fill-rule="nonzero" transform="translate(-1)"><path id="Shape" d="m58.585 13.039-4.936-.983.337-3.566c.142982-1.64315358-1.0592227-3.09693071-2.7-3.265l-6.3-.6-.043-.812c-.0882422-1.65347983-1.4994439-2.92280043-3.153-2.836l-37.947 2c-.79476188.04059884-1.54082902.39531082-2.07401832.98607632-.53318931.5907655-.80980787 1.36917345-.76898168 2.16392368l2.736 51.928c.08238997 1.5925576 1.39631482 2.8423457 2.991 2.845h.163l33.177-1.746 9 1.791c.7805542.157359 1.5916403-.0025843 2.2540226-.4444853.6623823-.4419009 1.1215292-1.1293793 1.2759774-1.9105147l8.343-42.022c.1584551-.7805437-.0010564-1.5920495-.4431589-2.2545463-.4421025-.6624967-1.1302543-1.1212261-1.9118411-1.2744537zm-13.162 43.531c-.1767104.1981386-.4257926.316732-.691.329l-37.948 2c-.55143224.0289269-1.02193992-.3945748-1.051-.946l-2.733-51.932c-.02777405-.55104054.39599874-1.02045728.947-1.049l37.947-2c.5496553-.02394243 1.0171693.39686461 1.051.946l2.732 51.928c.0159816.2656488-.0755542.5265619-.254.724zm-.331-49.925 6 .57c.2656628.0233076.5110106.15176419.6815154.35682055.1705047.20505637.2520399.46972342.2264846.73517945l-4.38 46.3zm13.887 9.531-8.34 42.024c-.1104447.5384751-.6348011.8868549-1.174.78l-1.612-.32c.1916672-.0964158.3726627-.2127222.54-.347.6153221-.504618 1.0019731-1.2353993 1.073-2.028l3.994-42.228 4.74.943c.2604002.0503558.4897061.2030914.6365223.4239737s.198864.4914379.1444777.7510263z"/><path id="Shape" d="m27.9 22.65c-1.49-1.169-2.9-2.273-3.209-3.065-.1577598-.4000226-.5535852-.6544041-.9829943-.631732s-.7962466.3173209-.9110057.731732c-.227.821-1.51 2.066-2.869 3.384-2.818 2.735-6.677 6.48-6.416 11.441-.0655108 1.8243393.8058003 3.5556457 2.31 4.59 1.822 1.127 4.239.774 5.78.355-.1946478 1.5360637-.9713858 2.9388453-2.17 3.919-.4145682.2958932-.5405033.8561041-.2924537 1.3009534.2480496.4448494.7908207.6321872 1.2604537.4350466 1.4870646-.5862091 3.0408183-.9865711 4.626-1.192 1.5985181.037347 3.1862625.2724689 4.727.7.4828685.1329932.989648-.111745 1.1857214-.5726185.1960733-.4608736.0209577-.9957163-.4097214-1.2513815-1.2952491-.8491116-2.2149033-2.1632612-2.569-3.671 1.575.253 4.016.352 5.711-.958 1.3874205-1.1884966 2.0715844-3.0033789 1.814-4.812-.264-4.959-4.495-8.279-7.585-10.703zm4.546 13.932c-1.5 1.161-4.436.6-5.442.284-.3128865-.098915-.6543919-.0380276-.9138145.1629252-.2594227.2009527-.4037456.5163954-.3861855.8440748.1236091 1.4700898.5779309 2.8932212 1.329 4.163-.7011969-.1010589-1.4099605-.139877-2.118-.116-.7062256.050512-1.4066119.1632833-2.093.337.6135559-1.3411061.9160918-2.8035341.885-4.278-.0167384-.3281174-.1935807-.6270808-.4730791-.7997708-.2794984-.1726901-.6259919-.1970735-.9269209-.0652292-.967.417-3.83 1.284-5.442.287-.9259698-.7100637-1.436218-1.8356112-1.36-3-.213-4.052 3.127-7.3 5.812-9.9.9074432-.832717 1.7555138-1.7279026 2.538-2.679.878222.8644558 1.8158442 1.6664135 2.806 2.4 2.943 2.308 6.605 5.182 6.819 9.235.197476 1.1486886-.1898158 2.3203121-1.033 3.125z"/><path id="Shape" d="m37.99 5.868c-.1577598-.40002255-.5535852-.65440406-.9829943-.63173199s-.7962466.3173209-.9110057.73173199l-2.523 9.144c-.0830459.3009548-.020769.6234262.1683682.871816.1891373.2483898.4834293.3941924.7956318.394184h.051l1-.052c.4805089-.0246914.8753154-.3880692.9396905-.864886.0643752-.4768168-.2199331-.931882-.6766905-1.083114l.3-1.086 2.555-.134.411 1.047c-.4388884.1980457-.6743249.6807415-.560196 1.1485232.114129.4677817.5454137.7878115 1.026196.7614768l1-.051c.3213338-.0165663.6150667-.1867398.7892715-.4572625.1742048-.2705228.2075979-.6083437.0897285-.9077375zm-1.279 5.39.515-1.866.708 1.8z"/><path id="Shape" d="m39.74 19.109c-.2709092.0424124-.5465236-.0393205-.750515-.2225637s-.3147069-.4485462-.301485-.7224363c-.0143594-.5522847-.4737153-.9883594-1.026-.974s-.9883594.4737153-.974 1.026v.054c-.0034727.1918375-.0424643.3813705-.115.559-.1.227-.275.462-.83.49-.5522847.0140833-.9885833.4732153-.9745 1.0255s.4732153.9885833 1.0255.9745h.053c.3386218-.01556.672848-.0830123.991-.2l.06 1.151c.0282078.5314846.467768.947748 1 .947h.053c.2649899-.0139509.5135697-.132652.6910011-.3299648.1774315-.1973127.2691644-.4570567.2549989-.7220352l-.06-1.153c.3289617.0824478.6682479.1161406 1.007.1.5522847-.0276142.9776142-.4977153.95-1.05-.0276143-.5522847-.4977153-.9776142-1.05-.95z"/><path id="Shape" d="m14.09 45.493-1 .053c-.4805089.0246914-.8753154.3880692-.9396905.864886-.0643752.4768168.2199331.931882.6766905 1.083114l-.3 1.086-2.555.134-.412-1.048c.4388884-.1980457.6743249-.6807415.560196-1.1485232-.114129-.4677817-.54541373-.7878115-1.026196-.7614768l-1 .053c-.32089438.0169835-.61407722.1871422-.78800632.4573464s-.20741183.6075305-.08999368.9066536l3.473 8.827c.1501646.3830257.5195902.6349969.931.635h.053c.4300365-.0229817.7970607-.3186961.911-.734l2.523-9.145c.0856877-.3100106.0170321-.642314-.1844951-.8929846-.2015272-.2506705-.5113245-.3891074-.8325049-.3720154zm-2.636 6.986-.708-1.8 1.223-.064z"/><path id="Shape" d="m8.939 42.761c.27130261-.0436201.54777637.0378273.75210109.2215641.20432471.1837369.31456811.4500409.29989891.7244359.0282078.5314846.467768.947748 1 .947h.053c.5318787-.0276947.9487205-.4674012.948-1 0-.017 0-.035 0-.052.0034107-.1922667.0427538-.3821992.116-.56.1-.227.274-.462.831-.491.5522847-.0292711.9762711-.5007153.947-1.053s-.5007153-.9762711-1.053-.947c-.3388083.017757-.6729532.0868789-.991.205l-.06-1.151c-.0292711-.5522847-.5007153-.9762711-1.053-.947s-.97627109.5007153-.947 1.053l.061 1.156c-.32882612-.0835558-.6679831-.1192566-1.007-.106-.35726559.0178633-.67786266.2249686-.8410254.5433013s-.14410285.6995305.05 1c.19410285.3004694.53375981.474562.8910254.4566987z"/></g></g></svg>