<svg height="512pt" viewBox="0 0 512 512" width="512pt" xmlns="http://www.w3.org/2000/svg"><path d="m485.984375 332.273438-29.535156-63.015626c-4.925781-10.484374-15.589844-17.257812-27.160157-17.257812h-32.289062c-5.523438 0-10 4.476562-10 10s4.476562 10 10 10h32.289062c3.859376 0 7.414063 2.261719 9.054688 5.753906l25.425781 54.246094h-67.625l22.925781-22.929688c3.90625-3.90625 3.90625-10.234374 0-14.140624-3.902343-3.90625-10.234374-3.90625-14.140624 0l-37.074219 37.070312h-51.714844l22.929687-22.929688c3.90625-3.90625 3.90625-10.234374 0-14.140624s-10.234374-3.90625-14.140624 0l-37.074219 37.070312h-47.625l25.417969-54.234375c1.648437-3.503906 5.203124-5.765625 9.0625-5.765625h32.289062c5.523438 0 10-4.476562 10-10s-4.476562-10-10-10h-32.289062c-11.570313 0-22.234376 6.773438-27.164063 17.265625l-29.53125 63.007813c-14.664063 1.957031-26.015625 14.535156-26.015625 29.726562v80c0 13.035156 8.359375 24.152344 20 28.28125v1.71875c0 7.28125 1.964844 14.113281 5.382812 20h-57.382812v-10c0-16.542969-13.457031-30-30-30h-30v-272h50c16.542969 0 30-13.457031 30-30v-120c0-16.542969-13.457031-30-30-30h-120c-16.542969 0-30 13.457031-30 30v120c0 16.542969 13.457031 30 30 30h50v272h-30c-16.542969 0-30 13.457031-30 30v10h-10c-5.523438 0-10 4.476562-10 10s4.476562 10 10 10h492c5.523438 0 10-4.476562 10-10s-4.476562-10-10-10h-15.382812c3.417968-5.886719 5.382812-12.71875 5.382812-20v-1.71875c11.640625-4.128906 20-15.246094 20-28.28125v-80c0-15.191406-11.351562-27.769531-26.015625-29.726562zm-465.984375-182.273438v-120c0-5.515625 4.484375-10 10-10h120c5.515625 0 10 4.484375 10 10v120c0 5.515625-4.484375 10-10 10h-120c-5.515625 0-10-4.484375-10-10zm212 321.988281h40c0 11.03125-8.972656 20.011719-20 20.011719s-20-8.980469-20-20.011719zm180 .011719c0 7.28125 1.964844 14.113281 5.382812 20h-130.765624c3.417968-5.886719 5.382812-12.71875 5.382812-20zm-372 10c0-5.515625 4.484375-10 10-10h80c5.515625 0 10 4.484375 10 10v10h-100zm392-10.011719h40c0 11.03125-8.972656 20.011719-20 20.011719s-20-8.980469-20-20.011719zm60-29.988281c0 5.515625-4.484375 10-10 10h-260c-5.515625 0-10-4.484375-10-10v-80c0-5.515625 4.484375-10 10-10h260c5.515625 0 10 4.484375 10 10zm0 0"/><path d="m362 262c0 5.523438-4.476562 10-10 10s-10-4.476562-10-10 4.476562-10 10-10 10 4.476562 10 10zm0 0"/><path d="m442 372c-16.542969 0-30 13.457031-30 30s13.457031 30 30 30 30-13.457031 30-30-13.457031-30-30-30zm0 40c-5.515625 0-10-4.484375-10-10s4.484375-10 10-10 10 4.484375 10 10-4.484375 10-10 10zm0 0"/><path d="m262 372c-16.542969 0-30 13.457031-30 30s13.457031 30 30 30 30-13.457031 30-30-13.457031-30-30-30zm0 40c-5.515625 0-10-4.484375-10-10s4.484375-10 10-10 10 4.484375 10 10-4.484375 10-10 10zm0 0"/><path d="m90 100c16.542969 0 30-13.457031 30-30s-13.457031-30-30-30h-20c-5.523438 0-10 4.476562-10 10v80c0 5.523438 4.476562 10 10 10s10-4.476562 10-10v-30zm-10-40h10c5.515625 0 10 4.484375 10 10s-4.484375 10-10 10h-10zm0 0"/><path d="m382 392h-60c-5.523438 0-10 4.476562-10 10s4.476562 10 10 10h60c5.523438 0 10-4.476562 10-10s-4.476562-10-10-10zm0 0"/></svg>