<?xml version="1.0" encoding="iso-8859-1"?>
<!-- Generator: Adobe Illustrator 19.0.0, SVG Export Plug-In . SVG Version: 6.00 Build 0)  -->
<svg version="1.1" id="Capa_1" xmlns="http://www.w3.org/2000/svg" xmlns:xlink="http://www.w3.org/1999/xlink" x="0px" y="0px"
	 viewBox="0 0 512.002 512.002" style="enable-background:new 0 0 512.002 512.002;" xml:space="preserve">
<g>
	<g>
		<path d="M299.998,372.003c-2.799,0-5.555,0.184-8.268,0.505L262.312,262.72c-1.171-4.372-5.133-7.412-9.659-7.412h-25.492
			c-5.523,0-10,4.477-10,10s4.477,10,10,10h17.819l8.392,31.317c-6.487-2.194-13.962-3.362-22.297-3.362
			c-22.701,0-48.271,8.742-60.798,20.787c-7.004,6.733-11.682,14.514-13.683,22.258H80.998v-34.749c0-5.523-4.477-10-10-10
			c-30.189,0-54.75,24.56-54.75,54.749c0,5.523,4.477,10,10,10h44.75h25.935l-4.702,9.333C85.241,373.293,77.771,372,70,372
			c-38.598,0-70,31.402-70,70.001C0,480.599,31.402,512,70,512c35.202,0,64.406-26.123,69.274-59.999h15.333
			c4.21,12.761,16.238,21.999,30.391,21.999c17.645,0,31.999-14.355,31.999-31.999c0-17.645-14.354-32-31.999-32
			c-14.153,0-26.182,9.239-30.391,22h-15.333c-2.808-19.537-13.712-36.484-29.193-47.339l9.246-18.354h38.653
			c2.912,6.26,9.8,14.559,26.039,16.892c8.03,1.154,19.06,1.691,34.712,1.691c27.172,0,42.631-2.965,51.692-9.914
			c0.358-0.275,0.704-0.555,1.039-0.838l0.948,3.538c-24.918,10.729-42.411,35.518-42.411,64.324c0,38.598,31.402,69.999,70,69.999
			c38.598,0,70-31.402,70-69.999C369.998,403.404,338.596,372.003,299.998,372.003z M60.998,346.309H37.715
			c3.351-11.135,12.149-19.932,23.283-23.283V346.309z M184.999,430.003c6.616,0,11.999,5.383,11.999,12
			s-5.383,11.999-11.999,11.999c-6.617,0-12-5.383-12-11.999C172.999,435.386,178.383,430.003,184.999,430.003z M70,492.003
			c-27.57,0-50-22.43-50-49.999c0-27.57,22.43-50.001,50-50.001c4.535,0,8.926,0.618,13.106,1.755l-22.038,43.747
			c-1.562,3.1-1.404,6.788,0.416,9.744c1.821,2.956,5.043,4.755,8.515,4.755h48.995C114.348,474.796,94.146,492.003,70,492.003z
			 M118.994,432.003h-32.76l14.721-29.223C110.046,409.97,116.596,420.236,118.994,432.003z M258.252,359.108
			c-5.005,3.839-18.302,5.785-39.521,5.785c-14.676,0-24.802-0.473-31.867-1.488c-4.314-0.62-9.726-2.197-11.012-6.189
			c-1.317-4.091,1.105-11.844,8.285-18.746c7.773-7.474,27.456-15.205,46.937-15.205c20.009,0,30.154,7.277,30.154,21.629
			C261.228,353.993,260.817,357.141,258.252,359.108z M299.998,492.003c-27.57,0-50-22.43-50-49.999
			c0-19.546,11.28-36.497,27.666-44.715l12.675,47.304c1.197,4.468,5.237,7.414,9.653,7.414c0.856,0,1.728-0.111,2.595-0.343
			c5.335-1.429,8.5-6.913,7.071-12.248l-12.678-47.313c1-0.06,2.004-0.099,3.018-0.099c27.57,0,50,22.43,50,50.001
			C349.998,469.572,327.568,492.003,299.998,492.003z"/>
	</g>
</g>
<g>
	<g>
		<path d="M482.001,0.001h-120c-16.542,0-30,13.458-30,30v120c0,16.542,13.458,29.999,30,29.999h50v257.564h-12
			c-4.826,0-8.963,3.447-9.836,8.193l-10.001,54.438c-0.536,2.92,0.252,5.927,2.152,8.207c1.9,2.28,4.715,3.6,7.684,3.6h64.002
			c2.968,0,5.784-1.319,7.684-3.6c1.9-2.281,2.688-5.288,2.152-8.207l-10.001-54.438c-0.872-4.746-5.009-8.193-9.835-8.193h-12
			V179.999h50c16.542,0,30-13.457,30-29.999v-120C512.001,13.459,498.543,0.001,482.001,0.001z M435.672,457.565l6.326,34.438
			h-39.993l6.327-34.438H435.672z M492.001,150.001c0,5.514-4.486,9.999-10,9.999h-120c-5.514,0-10-4.486-10-9.999v-120
			c0-5.514,4.486-10,10-10h120c5.514,0,10,4.486,10,10V150.001z"/>
	</g>
</g>
<g>
	<g>
		<path d="M422.002,42.883h-22.369c-5.523,0-10,4.477-10,10v44.736v29.5c0,5.523,4.477,10,10,10s10-4.477,10-10v-19.5h12.369
			c17.847,0,32.367-14.52,32.367-32.369C454.369,57.402,439.849,42.883,422.002,42.883z M422.002,87.618h-12.369V62.883h12.369
			c6.819,0,12.367,5.548,12.367,12.367C434.369,82.071,428.822,87.618,422.002,87.618z"/>
	</g>
</g>
<g>
</g>
<g>
</g>
<g>
</g>
<g>
</g>
<g>
</g>
<g>
</g>
<g>
</g>
<g>
</g>
<g>
</g>
<g>
</g>
<g>
</g>
<g>
</g>
<g>
</g>
<g>
</g>
<g>
</g>
</svg>
