<svg height="512pt" viewBox="0 0 512.00196 512" width="512pt" xmlns="http://www.w3.org/2000/svg"><path d="m300.410156 301.605469c8.441406 0 16.3125-4.542969 20.546875-11.851563 2.078125-3.582031.855469-8.167968-2.726562-10.246094-3.582031-2.074218-8.171875-.855468-10.246094 2.730469-1.5625 2.695313-4.464844 4.371094-7.574219 4.371094s-6.011718-1.675781-7.570312-4.375c-2.074219-3.582031-6.664063-4.804687-10.246094-2.730469-3.585938 2.074219-4.808594 6.664063-2.734375 10.246094 4.234375 7.3125 12.109375 11.855469 20.550781 11.855469zm0 0"/><path d="m229.410156 279.507812c-3.582031-2.074218-8.167968-.855468-10.246094 2.730469-1.5625 2.695313-4.464843 4.371094-7.570312 4.371094-3.109375 0-6.011719-1.675781-7.574219-4.375-2.074219-3.582031-6.664062-4.804687-10.246093-2.730469-3.585938 2.078125-4.804688 6.664063-2.730469 10.246094 4.234375 7.3125 12.109375 11.855469 20.550781 11.855469 8.4375 0 16.3125-4.539063 20.546875-11.847657 2.074219-3.585937.851563-8.171874-2.730469-10.25zm0 0"/><path d="m475.816406 381.511719c.078125-.460938.167969-1.015625.269532-1.65625.3125-1.972657.742187-4.792969 1.25-8.195313.957031-6.398437 2.253906-15.289062 3.65625-25.035156 1.796874-12.511719 5.273437-37.007812 5.566406-40.15625 3.957031-42.429688 2.753906-85.253906-3.773438-134.765625-.195312-1.464844-2-12.679687-3.648437-22.636719-.867188-5.222656-1.730469-10.371094-2.398438-14.207031-.339843-1.960937-.628906-3.585937-.847656-4.722656-.007813-.039063-.015625-.078125-.019531-.121094 22.164062-8.046875 36.636718-29.128906 36.117187-52.816406-.632812-28.84375-23.691406-52.394531-52.496093-53.617188-22.839844-.980469-43.976563 12.394531-52.902344 33.332031h-80.527344c-.59375-3.320312-1.464844-6.652343-2.621094-9.972656-9.554687-27.351562-36.421875-46.214844-66.855468-46.93749975-.117188-.00390625-.234376-.00390625-.355469 0-30.695313.73046875-57.800781 19.77343775-67.445313 47.38671875-1.109375 3.171875-1.953125 6.351563-2.546875 9.527344h-80.824219c-2.257812-5.300781-5.328124-10.195313-9.132812-14.558594-2.722656-3.121094-7.460938-3.445313-10.582031-.722656-3.121094 2.722656-3.445313 7.457031-.722657 10.582031 2.90625 3.328125 5.21875 7.078125 6.878907 11.148438 2.117187 5.191406 7.105469 8.546874 12.703125 8.546874h80.78125c.171875 2.582032.527344 5.140626 1.039062 7.667969-3.21875 1.101563-6.386718 2.402344-9.492187 3.902344-3.007813 1.453125-6.035157 2.96875-9 4.496094-6.367188 3.285156-9.816407 9.984375-8.785157 17.070312 1.035157 7.101563 6.269532 12.554688 13.328126 13.886719 5.539062 1.046875 10.90625 2.214844 16.136718 3.472656-8.058594 5.28125-15.566406 11.15625-22.421875 17.570313-18.039062 16.886719-30.292969 34.082031-36.421875 51.113281-7.539062 20.941406-5.753906 41.167969 5.28125 60.179688.074219 2.304687.203125 4.609374.398438 6.914062.527344 6.175781 1.3125 12.195312 2.074218 18.019531.03125.261719.066407.523438.101563.785157.273437 2.113281.546875 4.21875.804687 6.328124.820313 6.671876 1.472657 13.1875 1.585938 19.898438.789062 46.308594 33.964844 89.367188 78.269531 107.753906v7.285156c0 2.828126-1.683593 5.375-4.285156 6.484376l-34.957031 14.894531h-74.4375c-5.597656 0-10.585938 3.355469-12.703125 8.546875-6.34375 15.546875-21.878907 25.511718-38.707031 24.796875-20.929688-.886719-37.683594-18.003907-38.140626-38.964844-.382812-17.496094 10.480469-33.035156 27.03125-38.664063 5.578126-1.898437 9.324219-7.121093 9.324219-12.996093v-.609375c0-.683594-.09375-1.347656-.265625-1.980469-1.023437-5.546875-10.292968-70.074219-10.722656-74.6875-3.847656-41.285156-2.667969-83.042969 3.710938-131.414063.386718-2.929687 6-37.222656 6.921874-41.582031.230469-.71875.355469-1.488281.355469-2.28125v-.609375c0-5.875-3.746093-11.097656-9.324219-12.996094-16.550781-5.628906-27.414062-21.167968-27.03125-38.667968.460938-20.960938 17.214844-38.074219 38.140626-38.960938 2.171874-.09375 4.351562-.011718 6.484374.238282 4.117188.480468 7.835938-2.457032 8.324219-6.566407.484375-4.113281-2.457031-7.839843-6.570312-8.324219-2.921875-.347656-5.90625-.457031-8.875-.332031-28.804688 1.222657-51.867188 24.777344-52.496094 53.621094-.519531 23.6875 13.949219 44.765625 36.117187 52.816406-.007812.039063-.015624.078125-.023437.121094-.214844 1.132813-.507813 2.761719-.847656 4.71875-.667969 3.839844-1.53125 8.984375-2.394531 14.207031-1.648438 9.957032-3.457032 21.171875-3.648438 22.640625-6.535156 49.507813-7.734375 92.332031-3.777344 134.761719.292969 3.148438 3.769532 27.644531 5.570313 40.160156 1.398437 9.742188 2.695312 18.632813 3.652343 25.03125.507813 3.402344.9375 6.222656 1.25 8.195313.101563.640625.191407 1.199219.269532 1.65625-22.195313 8.035156-36.6875 29.128906-36.1718752 52.832031.6328122 28.84375 23.6914062 52.398438 52.5000002 53.621094 22.832031.972656 43.976562-12.394532 52.898437-33.332032h43.230469c-8.140625 7.113282-13.03125 17.484376-13.03125 28.691407v20.53125c0 4.140625 3.355469 7.496093 7.496094 7.496093h226.433593c4.140626 0 7.5-3.355468 7.5-7.496093v-20.53125c0-11.207031-4.894531-21.578125-13.035156-28.691407h42.585938c8.621094 20.226563 28.640625 33.382813 50.570312 33.382813.769532 0 1.550782-.015625 2.328125-.050781 28.808594-1.222656 51.867188-24.777344 52.5-53.621094.515625-23.613281-14.003906-44.796875-36.171875-52.832031zm-424.828125-2.113281c-.242187-.734376-.597656-1.417969-1.042969-2.035157.46875.644531.820313 1.339844 1.042969 2.035157zm151.949219-327.0625c7.582031-21.699219 29.054688-36.683594 53.46875-37.335938 24.152344.644531 45.386719 15.453125 52.875 36.890625 5.585938 15.992187 2.328125 32.453125-8.625 45.675781-8.234375-3.703125-15.984375-6.6875-22.664062-9.007812-16.773438-5.824219-33.351563-9.257813-48.769532-12.097656-9.476562-1.746094-19.007812-1.871094-28.300781-.445313-1.417969-7.636719-.789063-15.644531 2.015625-23.679687zm-27.726562 51.867187c-.273438-.050781-1.109376-.207031-1.269532-1.316406-.15625-1.074219.550782-1.441407.816406-1.578125 2.851563-1.46875 5.761719-2.921875 8.65625-4.320313 9.453126-4.570312 19.957032-6.925781 30.476563-6.925781 4.226563 0 8.453125.378906 12.617187 1.148438 7.9375 1.460937 16.191407 3.097656 24.570313 5.132812-15.507813 3.457031-30.242187 8.636719-43.960937 15.453125-10.066407-2.90625-20.679688-5.476563-31.90625-7.59375zm-31.378907 91.96875c5.316407-14.773437 16.269531-29.996094 32.5625-45.242187 9.691407-9.078126 20.835938-16.988282 33.125-23.515626 15.953125-8.503906 33.53125-14.539062 52.242188-17.941406 6.253906-1.132812 14.335937-2.429687 22.292969-2.632812 10.699218 4.316406 20.789062 9.3125 30.15625 14.925781-18.230469 5.519531-35.570313 11.957031-51.710938 19.214844-71.78125 32.234375-105.570312 73.320312-118.859375 93.792969-4.746094-12.375-4.667969-25.105469.191406-38.601563zm187.628907-63.742187c20.832031 15.195312 39.195312 36.042968 43.292968 63.519531 1.898438 12.71875.21875 25.820312-4.738281 37.972656-6.339844-11.421875-17.53125-28.6875-35.304687-47.222656-11.863282-12.371094-27.773438-26.320313-48.320313-39.460938 14.28125-5.578125 29.363281-10.535156 45.070313-14.808593zm-144.804688 239.800781c-20.011719-19.605469-31.265625-44.203125-31.691406-69.265625-.089844-5.128906-.464844-10.15625-.972656-15.089844 27.808593-8.558594 53.042968-18.601562 75.082031-29.902344 3.683593-1.886718 5.140625-6.410156 3.25-10.09375s-6.410157-5.136718-10.09375-3.25c-10.675781 5.472656-21.632813 10.394532-32.765625 14.867188-12.066406 4.851562-24.601563 10.035156-37.234375 13.179687-1.175781-4.921875-1.445313-10.636719-1.882813-15.765625-.089844-1.054687-.164062-2.105468-.226562-3.160156 0-.035156-.003906-.074219-.003906-.113281.015624-.03125.03125-.058594.046874-.089844.0625-.140625 6.589844-14.503906 24.363282-33.765625 16.421875-17.800781 46.078125-43.546875 94.117187-65.117188.21875-.101562.445313-.195312.664063-.292968 23.558594 13.78125 41.292968 28.9375 54.054687 42.164062 25.464844 26.386719 36.722657 50.363282 39.011719 55.621094-4.601562-3.199219-9.132812-6.578125-13.550781-10.117188l-2.335938-1.867187c-12.144531-9.710937-24.699219-19.75-35.699219-30.9375-9.25-9.410156-24.617187-9.789063-34.253906-.839844-1.078125 1-2.195312 1.992188-3.324218 2.949219-6.457032 5.488281-13.644532 10.875-21.363282 16.015625-3.445312 2.292969-4.378906 6.949219-2.085937 10.394531 2.296875 3.449219 6.953125 4.378906 10.398437 2.085938 8.203125-5.464844 15.859375-11.207032 22.761719-17.070313 1.292969-1.097656 2.578125-2.238281 3.816406-3.386719 3.746094-3.480468 9.738281-3.316406 13.359375.367188 11.625 11.824219 24.539063 22.148438 37.027344 32.132812l2.328125 1.863282c6.96875 5.582031 14.207031 10.796875 21.566406 15.554687-.210937 1.667969-.425781 3.324219-.640625 4.964844-1.203125 9.234375-2.449218 18.78125-2.617187 28.699219-.425781 25.0625-11.679688 49.660156-31.691407 69.269531-19.238281 18.847656-44.613281 30.78125-69.707031 32.800781-25.09375-2.023437-50.472656-13.957031-69.707031-32.804687zm175.386719 124.125h-211.4375v-13.03125c0-9.289063 5.523437-17.644531 14.070312-21.285157l55.152344-23.5c8.144531-3.472656 13.40625-11.429687 13.40625-20.28125v-2.132812c7.332031 2 14.882813 3.332031 22.570313 3.90625.183593.015625.371093.019531.558593.019531.183594 0 .371094-.003906.554688-.019531 7.664062-.570312 15.1875-1.898438 22.496093-3.886719v2.113281c0 8.851563 5.261719 16.8125 13.40625 20.28125l55.15625 23.5c8.542969 3.640626 14.066407 11.996094 14.066407 21.285157zm134.953125-62.335938c-.460938 20.957031-17.214844 38.074219-38.144532 38.964844-16.804687.699219-32.359374-9.253906-38.707031-24.800781-2.117187-5.191406-7.105469-8.546875-12.699219-8.546875h-73.789062l-34.957031-14.894531c-2.605469-1.109376-4.285157-3.652344-4.285157-6.484376v-7.253906c44.339844-18.371094 77.550782-61.449218 78.339844-107.785156.15625-9.070312 1.292969-17.785156 2.496094-27.015625.414062-3.179687.832031-6.421875 1.214844-9.710937.007812-.039063.019531-.078126.023437-.121094.4375-3.84375.84375-7.730469 1.074219-11.589844.039062-.636719.066406-1.273438.09375-1.910156.011719-.300782.03125-.597656.042969-.890625 10.625-17.816407 14.851562-38.375 11.890625-58.246094-3.785156-25.375-17.914063-48.207031-41.996094-67.855469-10.558594-8.617187-21.996094-15.742187-33.121094-21.589844 7.339844-9.789062 11.558594-20.855468 12.394532-32.375h80.578124c5.597657 0 10.582032-3.355468 12.703126-8.546874 6.34375-15.546876 21.90625-25.511719 38.707031-24.800782 20.929687.886719 37.679687 18.003906 38.140625 38.960938.382812 17.5-10.480469 33.039062-27.027344 38.667968-5.582031 1.898438-9.328125 7.121094-9.328125 12.996094v.609375c0 .796875.121094 1.5625.351563 2.28125.925781 4.355469 6.539062 38.652344 6.925781 41.585938 6.378906 48.367187 7.558593 90.125 3.710937 131.410156-.429687 4.625-9.726562 69.316406-10.730468 74.710937-.171876.632813-.261719 1.292969-.261719 1.960938 0 6.152344 3.945312 11.6875 9.8125 13.769531 16.253906 5.765625 26.921875 21.238281 26.546875 38.5zm-34.230469-57.496093c-.828125.851562-1.441406 1.878906-1.789063 3 .308594-1.058594.925782-2.113282 1.789063-3zm0 0"/></svg>