<?xml version="1.0" encoding="iso-8859-1"?>
<!-- Generator: Adobe Illustrator 19.0.0, SVG Export Plug-In . SVG Version: 6.00 Build 0)  -->
<svg version="1.1" id="Capa_1" xmlns="http://www.w3.org/2000/svg" xmlns:xlink="http://www.w3.org/1999/xlink" x="0px" y="0px"
	 viewBox="0 0 512 512" style="enable-background:new 0 0 512 512;" xml:space="preserve">
<g>
	<g>
		<path d="M502.154,290.462h-15.37c10.113-17.857,15.564-38.265,15.564-59.077c0-65.15-52.051-118.154-116.031-118.154
			c-38.831,0-74.655,19.628-96.117,51.946c-11.332-8.166-24.824-12.562-39.026-12.562h-24.712v-19.692
			c0-18.318-12.571-33.755-29.538-38.138V83.692c0-5.437-4.408-9.846-9.846-9.846c-5.438,0-9.846,4.409-9.846,9.846v11.093
			c-16.968,4.384-29.538,19.82-29.538,38.138v19.692H128v-19.692c0-18.318-12.571-33.755-29.538-38.138V83.692
			c0-5.437-4.408-9.846-9.846-9.846c-5.438,0-9.846,4.409-9.846,9.846v11.093c-16.968,4.384-29.538,19.82-29.538,38.138v19.692
			H9.846c-5.438,0-9.846,4.409-9.846,9.846v196.923c0,5.437,4.408,9.846,9.846,9.846h154.257v19.692
			c0,27.146,21.738,49.231,48.459,49.231c26.721,0,48.458-22.085,48.458-49.231v-19.692h241.134c5.437,0,9.846-4.409,9.846-9.846
			v-59.077C512,294.871,507.591,290.462,502.154,290.462z M167.385,132.923c0-10.858,8.834-19.692,19.692-19.692
			s19.692,8.834,19.692,19.692v19.692h-39.385V132.923z M68.923,132.923c0-10.858,8.834-19.692,19.692-19.692
			s19.692,8.834,19.692,19.692v19.692H68.923V132.923z M164.103,349.538H19.692v-39.385h144.411V349.538z M261.02,290.462v-49.231
			c0-5.437-4.408-9.846-9.846-9.846s-9.846,4.409-9.846,9.846v147.692c0,16.287-12.904,29.538-28.767,29.538
			c-15.862,0-28.767-13.251-28.767-29.538V241.231c0-5.437-4.408-9.846-9.846-9.846c-5.438,0-9.846,4.409-9.846,9.846v49.231H19.692
			v-19.692h38.42c5.438,0,9.846-4.409,9.846-9.846c0-5.437-4.408-9.846-9.846-9.846h-38.42v-78.769h231.481
			c10.808,0,21.04,3.632,29.426,10.322c-5.362,12.017-8.67,24.777-9.842,38.043c-0.479,5.416,3.524,10.196,8.941,10.674
			c0.295,0.026,0.588,0.039,0.878,0.039c5.046,0,9.344-3.859,9.796-8.981c1.169-13.224,4.874-25.841,11.006-37.514
			c16.838-32.055,49.381-51.968,84.938-51.968c53.121,0,96.339,44.169,96.339,98.462c0,21.312-6.812,42.112-19.263,59.077H261.02z
			 M492.308,349.538H261.021v-39.385h231.287V349.538z"/>
	</g>
</g>
<g>
	<g>
		<path d="M94.031,253.962c-1.831-1.832-4.362-2.885-6.961-2.885c-2.59,0-5.13,1.053-6.961,2.885
			c-1.831,1.832-2.885,4.372-2.885,6.961s1.054,5.13,2.885,6.96c1.831,1.831,4.372,2.886,6.961,2.886s5.13-1.054,6.961-2.886
			c1.831-1.83,2.885-4.371,2.885-6.96S95.862,255.793,94.031,253.962z"/>
	</g>
</g>
<g>
</g>
<g>
</g>
<g>
</g>
<g>
</g>
<g>
</g>
<g>
</g>
<g>
</g>
<g>
</g>
<g>
</g>
<g>
</g>
<g>
</g>
<g>
</g>
<g>
</g>
<g>
</g>
<g>
</g>
</svg>
