<?xml version="1.0"?>
<svg xmlns="http://www.w3.org/2000/svg" viewBox="0 0 64 64" width="512" height="512"><g id="Bakery-store-shop-restaurant"><rect x="10" y="47" width="2" height="4"/><path d="M62,15V7a1,1,0,0,0-1-1V4a2.006,2.006,0,0,0-2-2H5A2.006,2.006,0,0,0,3,4V6A1,1,0,0,0,2,7v8a1,1,0,0,0,1,1V60H2v2H62V60H61V16A1,1,0,0,0,62,15ZM5,4H59V6H5ZM19,60H9V40H19Zm0-22H9V37H19Zm0-3H9V34H19ZM59,60H21V33a1,1,0,0,0-1-1H8a1,1,0,0,0-1,1V60H5V24.97A4.924,4.924,0,0,0,8,26a4.994,4.994,0,0,0,4-2.03,4.956,4.956,0,0,0,8,0,4.956,4.956,0,0,0,8,0,4.956,4.956,0,0,0,8,0,4.956,4.956,0,0,0,8,0,4.956,4.956,0,0,0,8,0A4.994,4.994,0,0,0,56,26a4.924,4.924,0,0,0,3-1.03ZM5,21V16h6v5a3,3,0,0,1-6,0Zm8,0V16h6v5a3,3,0,0,1-6,0Zm8,0V16h6v5a3,3,0,0,1-6,0Zm8,0V16h6v5a3,3,0,0,1-6,0Zm8,0V16h6v5a3,3,0,0,1-6,0Zm8,0V16h6v5a3,3,0,0,1-6,0Zm14,0a3,3,0,0,1-6,0V16h6Zm1-7H4V8H60Z"/><path d="M56,28H24a1,1,0,0,0-1,1V57a1,1,0,0,0,1,1H56a1,1,0,0,0,1-1V29A1,1,0,0,0,56,28ZM55,56H25V30H55Z"/><path d="M45,39H35a9.014,9.014,0,0,0-9,9v6a1,1,0,0,0,1,1H53a1,1,0,0,0,1-1V48A9.014,9.014,0,0,0,45,39Zm3.09,2.73a6.987,6.987,0,0,1,1.81,1.28l-.57,3.2a.976.976,0,0,1-.4.64,1.015,1.015,0,0,1-.76.16,1,1,0,0,1-.81-1.16ZM40.22,41h2.03l-.92,5.21a.976.976,0,0,1-.4.64,1.015,1.015,0,0,1-.76.16,1,1,0,0,1-.81-1.16Zm-8.11.63a6.942,6.942,0,0,1,2.13-.59l-.91,5.17a.976.976,0,0,1-.4.64,1.015,1.015,0,0,1-.76.16,1,1,0,0,1-.81-1.16ZM52,53H28V48a6.964,6.964,0,0,1,1.77-4.64l-.38,2.15a2.977,2.977,0,0,0,2.96,3.52,2.971,2.971,0,0,0,1.72-.54,2.934,2.934,0,0,0,1.23-1.94L36.28,41h1.91l-.8,4.51a2.977,2.977,0,0,0,2.96,3.52,2.971,2.971,0,0,0,1.72-.54,2.934,2.934,0,0,0,1.23-1.94L44.28,41H45a6.445,6.445,0,0,1,1.17.11l-.78,4.4a2.977,2.977,0,0,0,2.96,3.52,2.971,2.971,0,0,0,1.72-.54,2.934,2.934,0,0,0,1.23-1.94l.2-1.12A6.841,6.841,0,0,1,52,48Z"/><path d="M33,36.5a.5.5,0,0,1,.5-.5A2.5,2.5,0,0,0,36,33.5V32H34v1.5a.5.5,0,0,1-.5.5A2.5,2.5,0,0,0,31,36.5V37h2Z"/><path d="M40,36.5a.5.5,0,0,1,.5-.5A2.5,2.5,0,0,0,43,33.5V32H41v1.5a.5.5,0,0,1-.5.5A2.5,2.5,0,0,0,38,36.5V37h2Z"/><path d="M47,36.5a.5.5,0,0,1,.5-.5A2.5,2.5,0,0,0,50,33.5V32H48v1.5a.5.5,0,0,1-.5.5A2.5,2.5,0,0,0,45,36.5V37h2Z"/></g></svg>
