<?xml version="1.0"?>
<svg xmlns="http://www.w3.org/2000/svg" viewBox="0 0 512 512" width="512" height="512"><g id="Outline"><path d="M480,448h-8V316.65A40.052,40.052,0,0,0,496,280V264h-.012a7.963,7.963,0,0,0-.4-2.53l-24-72A8,8,0,0,0,464,184H336V144.569a65.574,65.574,0,0,0,44.038-40.709A65.437,65.437,0,0,0,340.7,19.941a65.807,65.807,0,0,0-67.393,13.838,23.311,23.311,0,0,0-35.46,10.984,23.046,23.046,0,0,0,.8,17.766l36.176,77.146-101.38,9.282,64.183-63.623L226.368,73.971l-80,79.3A8,8,0,0,0,152,166.954q.364,0,.732-.033L192,163.326V184H64a8,8,0,0,0-7.59,5.47l-24,72a7.992,7.992,0,0,0-.4,2.53H32v16a39.986,39.986,0,0,0,72,23.972,39.958,39.958,0,0,0,64,0,39.958,39.958,0,0,0,64,0,39.958,39.958,0,0,0,64,0,39.958,39.958,0,0,0,64,0,39.958,39.958,0,0,0,64,0A39.964,39.964,0,0,0,456,320V448H440V344a8,8,0,0,0-8-8H368a8,8,0,0,0-8,8V448H72V336H56V448H48a24,24,0,0,0,0,48H480a24,24,0,0,0,0-48Zm-3.1-192H430.417l-12.444-56h40.261Zm-75.317-56,12.444,56H367.161l-6.223-56ZM183.16,200H224v56H176.938ZM240,200h48v56H240Zm64,0h40.839l6.223,56H304ZM252.891,50.223a7.214,7.214,0,0,1,3.764-4.1,7.3,7.3,0,0,1,9.539,3.193,8,8,0,0,0,13.31,1.27,49.775,49.775,0,0,1,83.84,10.036,49,49,0,0,1,1.661,37.765,49.645,49.645,0,0,1-46.694,32.61c-.356,0-.716,0-1.074-.012l-.171,0a8,8,0,0,0-7.4,11.046,7.205,7.205,0,0,1-3.642,9.285,7.325,7.325,0,0,1-9.713-3.5L253.14,55.736A7.144,7.144,0,0,1,252.891,50.223ZM208,161.861l74.073-6.782A23.311,23.311,0,0,0,320,160.567V184H208ZM160.84,256H113.973l12.444-56h40.645ZM69.766,200h40.261L97.583,256H51.1ZM72,304a24.028,24.028,0,0,1-24-24v-8H96v8A24.028,24.028,0,0,1,72,304Zm64,0a24.028,24.028,0,0,1-24-24v-8h48v8A24.028,24.028,0,0,1,136,304Zm64,0a24.028,24.028,0,0,1-24-24v-8h48v8A24.028,24.028,0,0,1,200,304Zm64,0a24.028,24.028,0,0,1-24-24v-8h48v8A24.028,24.028,0,0,1,264,304Zm64,0a24.028,24.028,0,0,1-24-24v-8h48v8A24.028,24.028,0,0,1,328,304Zm64,0a24.028,24.028,0,0,1-24-24v-8h48v8A24.028,24.028,0,0,1,392,304Zm40-24v-8h48v8a24,24,0,0,1-48,0Zm-56,72h48v96H376ZM480,480H48a8,8,0,0,1,0-16H480a8,8,0,0,1,0,16ZM336,432a8,8,0,0,0,8-8V344a8,8,0,0,0-8-8H96a8,8,0,0,0-8,8v80a8,8,0,0,0,8,8ZM104,352H328v64H104ZM333.575,79.368l15.033,5.477-4.92,13.509-15.034-5.476Zm6.4-12.938L324.94,60.953l4.921-13.51L344.9,52.92ZM303.019,83.641l-15.034-5.477,4.922-13.51,15.033,5.477Zm-76.676,278.7,11.314,11.314-32,32-11.314-11.314Zm-28.686,11.314-24,24-11.314-11.314,24-24Zm68.686-11.314,11.314,11.314-24,24-11.314-11.314Z"/></g></svg>
