<svg height="512pt" viewBox="-10 0 511 512" width="512pt" xmlns="http://www.w3.org/2000/svg"><path d="m491.5 154.664062-25.074219-58.992187c-8.121093-19.113281-26.789062-31.460937-47.554687-31.460937h-37.070313c-3.105469-11.746094 1.449219-20.828126 2.507813-27.125 1.308594-7.785157-5.035156-14.859376-12.824219-13.855469-21.011719 2.703125-38.5 17.8125-48.550781 28.605469-12.210938-30.351563-41.957032-51.835938-76.625-51.835938-34.667969 0-64.414063 21.484375-76.621094 51.835938-10.050781-10.792969-27.539062-25.902344-48.550781-28.605469-7.816407-1-14.128907 6.085937-12.828125 13.855469 1.074218 6.378906 5.59375 15.460937 2.511718 27.125h-37.070312c-20.769531 0-39.433594 12.347656-47.558594 31.460937l-25.074218 58.988281c-1.0429692 2.457032-.40625 1.855469-.597657 30.292969 0 26.035156 21.179688 47.21875 47.214844 47.21875 16.644531 0 31.304687-8.660156 39.714844-21.707031 8.410156 13.046875 23.070312 21.707031 39.714843 21.707031 16.644532 0 31.304688-8.660156 39.714844-21.707031 8.410156 13.046875 23.070313 21.707031 39.714844 21.707031s31.304688-8.660156 39.714844-21.707031c8.410156 13.046875 23.070312 21.707031 39.714844 21.707031 16.648437 0 31.304687-8.660156 39.714843-21.707031 8.410157 13.046875 23.070313 21.707031 39.714844 21.707031 16.648437 0 31.308594-8.660156 39.714844-21.707031 8.410156 13.046875 23.070312 21.707031 39.714843 21.707031 26.035157 0 47.214844-21.183594 47.214844-47.21875-.175781-26.132813.519532-27.664063-.597656-30.289063zm-107.191406-26.652343c-1.273438-7.582031-6.140625-15.4375-1.75-29.707031 1.660156-5.40625 2.78125-10.414063 2.332031-19.09375h33.980469c14.738281 0 27.984375 8.761718 33.75 22.328124l20.640625 48.558594h-179.550781c12.980468-9.136718 23.222656-21.914062 29.222656-36.835937 10.050781 10.792969 27.539062 25.902343 48.550781 28.605469 7.828125 1.003906 14.128906-6.109376 12.824219-13.855469zm-85.246094-87.605469c5.394531 6.738281 9.523438 14.523438 12.035156 23.003906l-83.929687 83.925782c-8.476563-2.507813-16.265625-6.640626-23-12.03125zm14.796875 42.140625c0 37.195313-30.21875 67.46875-67.398437 67.550781h-.300782c-.179687 0-.355468-.003906-.535156-.003906l68.230469-68.230469c0 .230469.003906.457031.003906.683594zm54.542969-43.46875c-3.277344 10.789063-3.71875 20.613281-.183594 32.121094 2.386719 7.753906 2.390625 14.925781 0 22.695312-3.492188 11.367188-3.09375 21.476563.1875 32.125-19.476562-5.039062-35.480469-23.617187-40.621094-30.15625 1.394532-8.5625 1.46875-17.609375 0-26.628906 5.148438-6.546875 21.148438-25.121094 40.617188-30.15625zm-122.09375-24.078125c.261718 0 .519531.003906.78125.003906l-11.421875 11.421875c-2.929688 2.929688-2.929688 7.675781 0 10.605469 2.929687 2.929688 7.679687 2.929688 10.605469 0l19.25-19.25c8.453124 2.515625 16.214843 6.640625 22.933593 12.019531l-94.894531 94.894531c-5.382812-6.71875-9.507812-14.480468-12.019531-22.933593l43.519531-43.519531c2.925781-2.925782 2.925781-7.675782 0-10.605469-2.929688-2.925781-7.679688-2.925781-10.609375 0l-35.6875 35.6875c-.003906-.257813-.003906-.515625-.003906-.777344 0-37.246094 30.300781-67.546875 67.546875-67.546875zm-122.09375 24.078125c19.472656 5.035156 35.476562 23.613281 40.621094 30.15625-1.402344 8.597656-1.464844 17.648437 0 26.628906-5.148438 6.550781-21.152344 25.117188-40.621094 30.15625 1.621094-5.308593 2.601562-8.964843 2.601562-16.367187 0-14.613282-4.167968-15.339844-4.167968-27.109375 0-13.160157 8.472656-20.875 1.566406-43.464844zm-84.21875 62.460937c5.765625-13.566406 19.015625-22.328124 33.753906-22.328124h33.980469c-.890625 17.1875 4.082031 17.835937 4.082031 30.441406 0 9.277344-2.199219 10.609375-3.503906 18.359375-1.308594 7.804687 5.0625 14.863281 12.828125 13.855469 21.007812-2.703126 38.496093-17.816407 48.546875-28.605469 6.003906 14.921875 16.246094 27.699219 29.222656 36.832031h-179.546875zm7.738281 115.632813c-17.761719 0-32.210937-14.453125-32.210937-32.21875v-19.855469h64.425781v19.855469c0 17.765625-14.449219 32.21875-32.214844 32.21875zm79.433594 0c-17.765625 0-32.21875-14.453125-32.21875-32.21875v-19.855469h64.433593v19.820313.039062c-.003906 17.761719-14.453124 32.214844-32.214843 32.214844zm79.425781 0c-17.761719 0-32.210938-14.453125-32.210938-32.21875v-19.855469h64.425782v19.855469c0 17.765625-14.449219 32.21875-32.214844 32.21875zm79.429688 0c-17.761719 0-32.214844-14.453125-32.214844-32.21875v-19.855469h64.429687v19.855469c0 17.765625-14.449219 32.21875-32.214843 32.21875zm79.429687 0c-17.761719 0-32.214844-14.453125-32.214844-32.21875v-19.855469h64.429688v19.78125.074219c0 17.765625-14.449219 32.21875-32.214844 32.21875zm79.429687 0c-17.761718 0-32.214843-14.453125-32.214843-32.21875v-19.855469h64.429687v19.855469c0 17.765625-14.449218 32.21875-32.214844 32.21875zm0 0"/><path d="m463.125 458.222656v-205.589844c0-9.914062-15-9.929687-15 0v205.578126h-17.230469v-164.253907c0-11.363281-9.246093-20.609375-20.609375-20.609375h-69.613281c-11.363281 0-20.609375 9.246094-20.609375 20.609375v164.253907h-275.566406v-205.199219c0-9.917969-15-9.929688-15 0v205.210937c-14.414063.480469-25.992188 12.351563-25.992188 26.882813 0 14.828125 12.0625 26.894531 26.894532 26.894531h431.824218c14.828125 0 26.894532-12.066406 26.894532-26.894531 0-14.527344-11.578126-26.402344-25.992188-26.882813zm-128.0625-164.265625c0-3.09375 2.515625-5.609375 5.609375-5.609375h69.613281c3.09375 0 5.609375 2.515625 5.609375 5.609375v164.253907h-80.832031zm127.160156 203.042969h-431.824218c-6.558594 0-11.894532-5.335938-11.894532-11.894531 0-6.5625 5.335938-11.898438 11.894532-11.898438h431.824218c6.558594 0 11.894532 5.335938 11.894532 11.898438 0 6.558593-5.335938 11.894531-11.894532 11.894531zm0 0"/><path d="m282.238281 425.945312c10.664063 0 19.34375-8.679687 19.34375-19.34375v-113.914062c0-10.664062-8.679687-19.339844-19.34375-19.339844h-196.535156c-10.667969 0-19.34375 8.675782-19.34375 19.339844v113.914062c0 10.664063 8.675781 19.339844 19.34375 19.339844h196.535156zm-200.878906-19.34375v-113.914062c0-2.394531 1.949219-4.339844 4.34375-4.339844h196.535156c2.394531 0 4.34375 1.945313 4.34375 4.339844v113.914062c0 2.394532-1.949219 4.339844-4.34375 4.339844h-196.535156c-2.394531.003906-4.34375-1.945312-4.34375-4.339844zm0 0"/></svg>