<svg height="512" viewBox="0 0 60 60" width="512" xmlns="http://www.w3.org/2000/svg"><g id="Page-1" fill="none" fill-rule="evenodd"><g id="012---Underwear-Stall" fill="rgb(0,0,0)" fill-rule="nonzero"><path id="Shape" d="m57 50h-1v-16.428c.5735017-.249037 1.0962234-.601586 1.542-1.04.933889-.9382433 1.4581232-2.208199 1.458-3.532-.0023641-.8428047-.2452072-1.6674306-.7-2.377l-4.987-7.835c-1.0990276-1.7298528-3.0035613-2.780682-5.053-2.788h-7.86c1.8983157-2.0852632 4.0132332-3.9625081 6.309-5.6.336849-.2457054.6182704-.55949364.826-.921.016-.025.034-.047.048-.073.2777996-.48826064.4129277-1.04471093.39-1.606-.244-5.338-2.059-7.3-2.266-7.507-.3032698-.30157869-.7638403-.37894172-1.149-.193-.039.022-4.024 1.9-14.558 1.9s-14.519-1.878-14.553-1.895c-.3850479-.19216538-.8498553-.11644286-1.154.188-.207.207-2.022 2.169-2.266 7.507-.0224051.55908046.1119895 1.11328532.388 1.6.0184578.03219043.0388276.06324607.061.093.2062252.35532184.484112.6638579.816.906 2.2957143 1.6375532 4.4103277 3.5151609 6.308 5.601h-7.86c-2.04891719.0055156-3.95386105 1.0544786-5.054 2.783l-4.986 7.84c-.45520139.7093829-.69808042 1.5341307-.7 2.377-.00987436 1.9887085 1.1718638 3.7900714 3 4.573v16.427h-1c-1.45943726-.0027654-2.70808095 1.0474881-2.95538732 2.485822-.24730638 1.4383339.57883984 2.8453257 1.95538732 3.330178v1.184c0 1.6568542 1.34314575 3 3 3h50c1.6568542 0 3-1.3431458 3-3v-1.184c1.3765475-.4848523 2.2026937-1.8918441 1.9553873-3.330178s-1.49595-2.4885874-2.9553873-2.485822zm-3 0h-2v-16h2zm-12.654 0c.9038339-2.0210947 2.6963096-3.5068168 4.85-4.02.4672564-.0933936.8037122-.5035015.804-.98.0262139-1.8733578-.3488542-3.7306269-1.1-5.447-.1363348-.2730212-.3898741-.4688464-.6884863-.5317634-.2986121-.062917-.6096096.0139615-.8445137.2087634-.134.082-1.4.77-6.362.77s-6.228-.688-6.362-.77c-.2349041-.1948019-.5459016-.2716804-.8445137-.2087634-.2986122.062917-.5521515.2587422-.6884863.5317634-.007.015-.05.108-.105.235-.055-.127-.1-.22-.105-.235-.1363348-.2730212-.3898741-.4688464-.6884863-.5317634-.2986121-.062917-.6096096.0139615-.8445137.2087634-.134.082-1.4.77-6.362.77s-6.228-.688-6.362-.77c-.2349041-.1948019-.5459016-.2716804-.8445137-.2087634-.2986122.062917-.5521515.2587422-.6884863.5317634-.7545802 1.7156153-1.1330642 3.5729148-1.11 5.447-.000097.4752686.3343337.8849463.8.98 2.148946.5236092 3.9379853 2.0058718 4.852 4.02h-8.652v-16.1c1.2034999-.2520679 2.2717013-.9392774 3-1.93.9360662 1.2725895 2.4202258 2.0258005 4 2.03h3c1.5799521-.0044337 3.0641457-.758033 4-2.031.9358543 1.272967 2.4200479 2.0265663 4 2.031h4c1.5799521-.0044337 3.0641457-.758033 4-2.031.9358543 1.272967 2.4200479 2.0265663 4 2.031h3c1.5799521-.0044337 3.0641457-.758033 4-2.031.7282987.9907226 1.7965001 1.6779321 3 1.93v16.101zm-26.324-5.748c.0584736-.9871076.2374694-1.9633569.533-2.907 1.7780805.4568561 3.6094127.6731181 5.445.643v1.012c0 .5522847.4477153 1 1 1s1-.4477153 1-1v-1.012c1.8366597.0305565 3.6690857-.1860518 5.448-.644.2960228.9437406.474044 1.9205058.53 2.908-2.7443981.8588592-4.8954192 3.005399-5.76 5.748h-2.436c-.8656312-2.7419628-3.0162379-4.888089-5.76-5.748zm14.978 1.777c2.0687684.5570455 3.7771242 2.0153173 4.652 3.971h-9.306c.8655379-1.9634259 2.5788183-3.425273 4.654-3.971zm1.023-1.777c.0584736-.9871076.2374694-1.9633569.533-2.907 1.7777569.4567672 3.6087468.6730285 5.444.643v1.012c0 .5522847.4477153 1 1 1s1-.4477153 1-1v-1.012c1.8366597.0305565 3.6690857-.1860518 5.448-.644.2960228.9437406.474044 1.9205058.53 2.908-2.7443981.8588592-4.8954192 3.005399-5.76 5.748h-2.436c-.8656312-2.7419628-3.0162379-4.888089-5.76-5.748zm14.977-15.252c0 1.6568542-1.3431458 3-3 3h-3c-1.6568542 0-3-1.3431458-3-3zm-11 0c0 1.6568542-1.3431458 3-3 3h-4c-1.6568542 0-3-1.3431458-3-3zm-21 0h9c0 1.6568542-1.3431458 3-3 3h-3c-1.6568542 0-3-1.3431458-3-3zm42.128 2.118c-.5648207.5637895-1.3299525.8809165-2.128.882h-3c-1.6568542 0-3-1.3431458-3-3h9c-.0001949.7933272-.3135769 1.5545005-.872 2.118zm-20.754-11.818c-.1293248-2.036904.3898345-4.0624305 1.483-5.786 1.546-2.574 4.723-3.335 7.077-3.53-3.3525773 2.6065811-6.24579 5.7553158-8.56 9.316zm-20.013-17.08c1.683.592 6.119 1.78 14.639 1.78s12.954-1.188 14.637-1.78c.8853169 1.76218694 1.3436629 3.70793083 1.338 5.68v.035c-2.6-.089-8.242.25-10.83 4.556-1.6164579 2.521954-2.1639993 5.5830771-1.522 8.509h-7.246c.6442499-2.9275621.0973721-5.9911567-1.52-8.515-2.587-4.306-8.231-4.643-10.829-4.554 0-.013 0-.025 0-.037-.0054903-1.96955088.4510707-3.91293173 1.333-5.674zm.7 7.763c2.354.2 5.531.957 7.078 3.531 1.0945042 1.7231301 1.6150671 3.7486695 1.487 5.786-2.3147226-3.5611993-5.2086247-6.7102866-8.562-9.317zm-7.685 9.869c.73231611-1.1504176 2.0002789-1.8484756 3.364-1.852h9.535c.8466359 1.0854686 1.6120461 2.2319128 2.29 3.43.2146894.3665369.5026926.6848383.846.935.040297.0371048.0838002.0705688.13.1.4865125.3413172 1.0647443.5277874 1.659.535h7.6c.5934956-.0071505 1.1711449-.1924999 1.658-.532.0459599-.0297719.0894352-.0632144.13-.1.3433341-.2505382.6313286-.5691705.846-.936.6783888-1.1986845 1.444126-2.3457862 2.291-3.432h9.535c1.3654064.0039314 2.6344861.7040743 3.366 1.857l4.546 7.143h-8.495l-1.748-4.372c-.1329028-.3318997-.4327764-.567685-.7866615-.6185376-.353885-.0508527-.7080178.0909529-.929.372s-.2752413.6586379-.1423385.9905376l1.452 3.628h-8.523v-1c0-.5522847-.4477153-1-1-1s-1 .4477153-1 1v1h-10v-1c0-.5522847-.4477153-1-1-1s-1 .4477153-1 1v1h-8.523l1.452-3.628c.1329028-.3318997.0786437-.7094905-.1423385-.9905376s-.575115-.4228527-.929-.372c-.3538851.0508526-.6537587.2866379-.7866615.6185376l-1.748 4.372h-8.5zm-5.37600603 9.148h9.00000603c0 1.6568542-1.3431458 3-3 3h-3c-.796138.0015971-1.56012802-.3139606-2.12308373-.8769163s-.87851334-1.3269457-.8769223-2.1230837zm3.00000603 5h2v16h-2zm50 23c0 .5522847-.4477153 1-1 1h-50c-.55228475 0-1-.4477153-1-1v-1h52zm1-3h-54c-.55228475 0-1-.4477153-1-1s.44771525-1 1-1h54c.5522847 0 1 .4477153 1 1s-.4477153 1-1 1z"/><path id="Shape" d="m29 8h2c.5522847 0 1-.44771525 1-1s-.4477153-1-1-1h-2c-.5522847 0-1 .44771525-1 1s.4477153 1 1 1z"/></g></g></svg>