<svg height="512" viewBox="0 0 60 60" width="512" xmlns="http://www.w3.org/2000/svg"><g id="Page-1" fill="none" fill-rule="evenodd"><g id="002---Fish-Stall" fill="rgb(0,0,0)" fill-rule="nonzero" transform="translate(0 -1)"><path id="Shape" d="m57 51v-17.026c.1902741-.1351437.371341-.2828034.542-.442.933889-.9382433 1.4581232-2.208199 1.458-3.532-.0023641-.8428047-.2452072-1.6674306-.7-2.377l-4.987-7.835c-1.0990276-1.7298528-3.0035613-2.780682-5.053-2.788h-1.16c-.2055357-.3930815-.4617186-.7575202-.762-1.084-.3424085-.3600212-.7351512-.6685567-1.166-.916.4322283-.2483808.8262997-.5579121 1.17-.919 2.2-2.358 1.5-6.387 1.472-6.558-.0785053-.43475781-.432995-.76648211-.872-.816-.172-.02-4.244-.451-6.454 1.912-.8463148.98143778-1.3700264 2.1995909-1.5 3.489-1.5787009-1.7363952-3.4492878-3.18291021-5.527-4.274.2644462-1.44131121.2505291-2.9199218-.041-4.356-.1375668-.79107271-.5886484-1.49311567-1.251-1.947-.648682-.45569131-1.4538562-.63021183-2.233-.484-3.2174705.67892253-6.0276535 2.62119128-7.8 5.391l-.048.081c-.35.09266667-.6903333.19666667-1.021.312-.0531957.01369965-.1050669.03210556-.155.055-3.6399504 1.40666057-6.6929334 4.0100013-8.657 7.382-.260058.4537104-.260058 1.0112896 0 1.465.2508232.4358222.523504.8586945.817 1.267h-1.332c-2.04882082.0058883-3.95359766 1.0547592-5.054 2.783l-4.986 7.84c-.45479282.7095694-.69763595 1.5341953-.7 2.377.00075979 1.3285244.5287412 2.6024414 1.468 3.542.16737919.15615.34511728.3008128.532.433v17.025c-1.45943726-.0027654-2.70808095 1.0474881-2.95538732 2.485822-.24730638 1.4383339.57883984 2.8453257 1.95538732 3.330178v1.184c0 1.6568542 1.34314575 3 3 3h50c1.6568542 0 3-1.3431458 3-3v-1.184c1.3765475-.4848523 2.2026937-1.8918441 1.9553873-3.330178s-1.49595-2.4885874-2.9553873-2.485822zm-2 0h-2.008c.0077481-.1543929-.0029948-.3091583-.032-.461-.1695248-1.01297-.2571417-2.0379541-.262-3.065-.0162787-.9511097.057045-1.9016392.219-2.839.1402057-.7661827-.1306362-1.5498795-.714-2.066-.0639489-.0513575-.1307198-.0990987-.2-.143v-7.426h2c.3358566.0005544.6709038-.0329503 1-.1zm-51.118-18.872c-.56378947-.5648207-.88091649-1.3299525-.882-2.128h9c0 1.6568542-1.3431458 3-3 3h-3c-.79332719-.0001949-1.55450049-.3135769-2.118-.872zm42.118-2.128c0 1.6568542-1.3431458 3-3 3h-3c-1.6568542 0-3-1.3431458-3-3zm-11 0c0 1.6568542-1.3431458 3-3 3h-4c-1.6568542 0-3-1.3431458-3-3zm-25.775 20.989c-.07917363.0260801-.16628709.0051729-.225-.054.19604789-1.1345745.29640101-2.2836178.3-3.435-.00394268-1.1483834-.10429514-2.2944084-.3-3.426.05350925-.0667445.14354386-.0920667.224-.063 1.6241963.3754405 2.7745014 1.821976 2.7745014 3.489s-1.1503051 3.1135595-2.7745014 3.489zm4.258-1.289c.4225848.4630087.8755908.8973066 1.356 1.3h-2.154c.3212248-.3969116.5894738-.8339087.798-1.3zm.756-2.2c.862-1.107 3-3.5 5.355-3.5 2.4 0 4.6 2.535 5.356 3.5-.752.964-2.96 3.5-5.356 3.5-2.358 0-4.494-2.393-5.355-3.5zm12.4 1.088c.4875409-.6430358.4875409-1.5319642 0-2.175-1.009-1.327-3.712-4.413-7.045-4.413-2.584 0-4.788 1.855-6.111 3.3-.6634213-1.491768-1.9297212-2.6311834-3.483-3.134v-7.266c1.2034999-.2520679 2.2717013-.9392774 3-1.93.9360662 1.2725895 2.4202258 2.0258005 4 2.03h3c1.5799521-.0044337 3.0641457-.758033 4-2.031.9358543 1.272967 2.4200479 2.0265663 4 2.031h4c1.5799521-.0044337 3.0641457-.758033 4-2.031.9358543 1.272967 2.4200479 2.0265663 4 2.031h3c1.5799521-.0044337 3.0641457-.758033 4-2.031.7282987.9907226 1.7965001 1.6779321 3 1.93v7.267c-1.552499.5019119-2.8186673 1.6397548-3.483 3.13-1.323-1.441-3.527-3.296-6.111-3.296-3.333 0-6.036 3.086-7.043 4.412-.4875409.6430358-.4875409 1.5319642 0 2.175.6722474.8858029 1.4398604 1.6949991 2.289 2.413h-11.3c.8479361-.7176434 1.6142255-1.5265231 2.285-2.412zm-12.639-18.588h9c0 1.6568542-1.3431458 3-3 3h-3c-1.6568542 0-3-1.3431458-3-3zm36.863 14.053c.0560372.0466151.0903993.114254.095.187-.1912688 1.0757603-.2776739 2.1675455-.258 3.26.0029754 1.1464383.1033363 2.2905519.3 3.42-.0496594.0733854-.1438194.1021334-.226.069-1.5769608-.4481379-2.6928204-1.851611-2.774-3.489.0919687-1.6537723 1.2541979-3.0530752 2.863-3.447zm-15.813 3.447c.752-.964 2.96-3.5 5.356-3.5 2.358 0 4.493 2.393 5.355 3.5-.862 1.107-3 3.5-5.355 3.5-2.396 0-4.606-2.535-5.356-3.5zm11.467 2.2c.2091495.4661994.4780739.9032016.8 1.3h-2.156c.4804092-.4026934.9334152-.8369913 1.356-1.3zm9.611-17.586c-.5641671.5652564-1.3293795.8838551-2.128.886h-3c-1.6568542 0-3-1.3431458-3-3h9c-.0001949.7933272-.3135769 1.5545005-.872 2.118zm-15.228-16.114h.632c1.2316701.016605 2.4173008.4706537 3.345 1.281.849523 1.1701615 1.2243294 2.618651 1.049 4.054-1.4442003.0832358-2.865785-.387407-3.975-1.316-.8442304-1.1593782-1.2195941-2.5947602-1.051-4.019zm1.05-6.017c1.1086041-.92846815 2.5292646-1.399757 3.973-1.318.1734071 1.4330867-.1989451 2.8789412-1.043 4.05-.9304108.8135477-2.1201718 1.2691028-3.356 1.285h-.624c-.1711003-1.4237865.2045239-2.8594502 1.051-4.017zm-3.17 5.017c-1.27 1.717-5.752 7-12.78 7-1.0161396-.0010711-2.0286732-.1208837-3.017-.357 2.6893002-4.0203984 2.6893002-9.2656016 0-13.286.9883268-.23611634 2.0008604-.35592889 3.017-.357 7 0 11.505 5.287 12.78 7zm-8.48-11.987c.2535115-.04752252.5154317.01064182.725.161.222282.15299871.3728068.38979548.417.656.2124094 1.04957765.2593098 2.12592455.139 3.19-1.7841392-.67183691-3.6745608-1.01733591-5.581-1.02-.352 0-.685.029-1.023.051 1.4083096-1.55022998 3.2719818-2.61388508 5.323-3.038zm-9.308 5.987c2.6773702 3.5542044 2.6773702 8.4517956 0 12.006-2.8406311-1.2539943-5.2290688-3.3478906-6.844-6 1.61399-2.6543381 4.0025253-4.750414 6.844-6.006zm-12.615 11.852c.73212477-1.1501191 1.9996344-1.8481351 3.363-1.852h2.979c1.7112216 1.8283739 3.8242118 3.2337246 6.172 4.105.055309.0256444.1128924.0460665.172.061 1.5867022.5550346 3.2560247.8370307 4.937.834 4.9945347-.118814 9.7079565-2.3361261 12.984-6.108.1315941 1.2907088.6574163 2.5095969 1.506 3.491 1.593 1.7 4.156 1.953 5.526 1.953.3092153.0023248.6183309-.0120293.926-.043.439005-.0495179.7934947-.3812422.872-.816.1789827-1.1529924.1681733-2.3274971-.032-3.477h.478c1.3654064.0039314 2.6344861.7040743 3.366 1.857l4.546 7.143h-8.495l-.921-2.3c-.2051738-.5127964-.7872036-.7621738-1.3-.557s-.7621738.7872036-.557 1.3l.624 1.557h-8.523v-3c0-.5522847-.4477153-1-1-1s-1 .4477153-1 1v3h-10v-1c0-.5522847-.4477153-1-1-1s-1 .4477153-1 1v1h-8.523l1.452-3.628c.1329028-.3318997.0786437-.7094905-.1423385-.9905376s-.575115-.4228527-.929-.372c-.3538851.0508526-.6537587.2866379-.7866615.6185376l-1.748 4.372h-8.5zm-3.377 14.048c.3290962.0670497.6641434.1005544 1 .1h2v7.347c-.11263696.0633642-.21939381.1366549-.319.219-.53587065.472482-.78034586 1.1941027-.642 1.895.1687332 1.0043139.25601737 2.0206226.261 3.039-.00453378 1.0184398-.09215782 2.0348118-.262 3.039-.02784528.1519831-.03791297.3066899-.03.461h-2.008zm51 23.1c0 .5522847-.4477153 1-1 1h-50c-.55228475 0-1-.4477153-1-1v-1h52zm1-3h-54c-.55228475 0-1-.4477153-1-1s.44771525-1 1-1h54c.5522847 0 1 .4477153 1 1s-.4477153 1-1 1z"/><circle id="Oval" cx="19" cy="14" r="1"/></g></g></svg>