<?xml version="1.0"?>
<svg xmlns="http://www.w3.org/2000/svg" viewBox="0 0 64 64" width="512" height="512"><g id="baseball-sport-shop-store"><rect x="10" y="47" width="2" height="4"/><path d="M62,15V7a1,1,0,0,0-1-1V4a2.006,2.006,0,0,0-2-2H5A2.006,2.006,0,0,0,3,4V6A1,1,0,0,0,2,7v8a1,1,0,0,0,1,1V60H2v2H62V60H61V16A1,1,0,0,0,62,15ZM5,4H59V6H5ZM19,60H9V40H19Zm0-22H9V37H19Zm0-3H9V34H19ZM59,60H21V33a1,1,0,0,0-1-1H8a1,1,0,0,0-1,1V60H5V24.97A4.924,4.924,0,0,0,8,26a4.994,4.994,0,0,0,4-2.03,4.956,4.956,0,0,0,8,0,4.956,4.956,0,0,0,8,0,4.956,4.956,0,0,0,8,0,4.956,4.956,0,0,0,8,0,4.956,4.956,0,0,0,8,0A4.994,4.994,0,0,0,56,26a4.924,4.924,0,0,0,3-1.03ZM5,21V16h6v5a3,3,0,0,1-6,0Zm8,0V16h6v5a3,3,0,0,1-6,0Zm8,0V16h6v5a3,3,0,0,1-6,0Zm8,0V16h6v5a3,3,0,0,1-6,0Zm8,0V16h6v5a3,3,0,0,1-6,0Zm8,0V16h6v5a3,3,0,0,1-6,0Zm14,0a3,3,0,0,1-6,0V16h6Zm1-7H4V8H60Z"/><path d="M56,28H24a1,1,0,0,0-1,1V57a1,1,0,0,0,1,1H56a1,1,0,0,0,1-1V29A1,1,0,0,0,56,28ZM55,56H25V30H55Z"/><path d="M42,47a6.013,6.013,0,1,0,2.042-4.5A5.981,5.981,0,0,0,42,47Zm9.3-2.242a3.914,3.914,0,0,1,0,4.483,4.992,4.992,0,0,0-6.589,0,3.914,3.914,0,0,1,0-4.483,4.992,4.992,0,0,0,6.589,0ZM46.27,50.574a2.892,2.892,0,0,1,3.46,0A4.14,4.14,0,0,1,46.27,50.574Zm3.471-7.156a2.9,2.9,0,0,1-3.482,0,3.835,3.835,0,0,1,3.482,0Z"/><path d="M44.14,34.86a3.945,3.945,0,0,0-2.83-1.17,4.023,4.023,0,0,0-2.88,1.22l-8.46,9.87-2.8,2.81a3,3,0,1,0,4.24,4.24l2.81-2.8,9.92-8.52a4,4,0,0,0,0-5.65ZM30,50.41a1,1,0,0,1-1.41,0,.976.976,0,0,1-.3-.7,1,1,0,0,1,.3-.71l2.12-2.12,1.41,1.41ZM42.78,39.05l-9.19,7.88-1.52-1.52,7.83-9.14a2.061,2.061,0,0,1,2.83,0,1.98,1.98,0,0,1,.58,1.42A1.938,1.938,0,0,1,42.78,39.05Z"/></g></svg>
