<?xml version="1.0"?>
<svg xmlns="http://www.w3.org/2000/svg" viewBox="0 0 512 512" width="512" height="512"><g id="outline"><path d="M288,336A40.068,40.068,0,0,0,327.2,304H352a7.988,7.988,0,0,0,6.062-2.8l.012.01,41.641-48.581,3.378,9.291a39.9,39.9,0,1,0,15.032-5.481L403.422,216h15.995a.566.566,0,0,1,.469.251l4.583,6.874a.482.482,0,0,1,.028.577.488.488,0,0,1-.5.3,8,8,0,0,0,0,16,16.562,16.562,0,0,0,13.781-25.75l-4.582-6.873A16.528,16.528,0,0,0,419.417,200H392a8,8,0,0,0-7.519,10.734L392.214,232H328v-2.235l.03-.009,17.48-5.826A16,16,0,0,0,344,192H313.889a17.889,17.889,0,0,0-8,33.89l5.345,2.671c.253.126.51.239.766.356v8.958l-11.5,20.134A40,40,0,1,0,288,336Zm136-64a24.024,24.024,0,1,1-15.248,5.479l7.729,21.255a8,8,0,1,0,15.038-5.468l-7.731-21.261C423.859,272.005,423.929,272,424,272Zm-117.837,8.339A24.02,24.02,0,0,1,310.624,288h-8.839Zm47.151,1.835L333.786,248h48.82ZM313.889,208H344a8.021,8.021,0,0,0-2.529.41l-18.5,6.167a5.95,5.95,0,0,1-4.58-.327l-5.345-2.671a1.889,1.889,0,0,1,.844-3.579ZM320,256.125,338.215,288H327.2a40.012,40.012,0,0,0-12.819-22.034ZM288,272a23.952,23.952,0,0,1,4.278.39l-11.224,19.641A8,8,0,0,0,288,304h22.624A24,24,0,1,1,288,272Z"/><path d="M494.956,76.058c0-.009,0-.018-.01-.027l-32-56A8,8,0,0,0,456,16H56a8,8,0,0,0-6.946,4.031l-32,56c0,.009,0,.018-.01.027A7.956,7.956,0,0,0,16,80V488a8,8,0,0,0,8,8H488a8,8,0,0,0,8-8V80A7.956,7.956,0,0,0,494.956,76.058ZM448,424H416v-8a16,16,0,0,1,32,0Zm16-8a32,32,0,0,0-64,0v32H383.2a40.04,40.04,0,0,0-46.887-31.26L316,368H480v80H464ZM32,448V368H216.151a17.721,17.721,0,0,0,9.737,18.207l5.347,2.674c.253.126.509.239.765.355v8.639l-11.5,20.134A39.98,39.98,0,0,0,168.805,448Zm448-96H232V168H480ZM320.346,459.966a23.812,23.812,0,0,1,7.568-21.773l2.512,6.029A24.034,24.034,0,0,0,320.346,459.966ZM304.824,448h-15.43l28.669-33.448,3.482,8.357A39.853,39.853,0,0,0,304.824,448ZM247.2,448a40.012,40.012,0,0,0-12.819-22.034L240,416.125,258.215,448ZM128,312a16,16,0,1,1,16-16A16.019,16.019,0,0,1,128,312Zm-24,32a23.855,23.855,0,0,1,9.793-19.338,31.9,31.9,0,0,0,28.414,0A23.855,23.855,0,0,1,152,344v8H104Zm50.449-30.012a32,32,0,1,0-52.9,0A39.751,39.751,0,0,0,88,344v8H72V304a56,56,0,0,1,112,0v48H168v-8A39.751,39.751,0,0,0,154.449,313.988ZM128,232a72.081,72.081,0,0,0-72,72v48H32V216H216V352H200V304A72.081,72.081,0,0,0,128,232ZM242.972,374.9a5.961,5.961,0,0,1-4.58-.326l-5.348-2.674a1.889,1.889,0,0,1,.845-3.578H264a8,8,0,0,0-2.53.411Zm-16.809,65.443A24.02,24.02,0,0,1,230.624,448h-8.839ZM253.786,408h48.82l-29.292,34.174ZM248,392v-1.916l.031-.009,17.48-5.827A16.023,16.023,0,0,0,280,368.318c0-.107-.014-.211-.016-.318h18.683l10,24ZM216,200H32V168H216ZM184,456a23.971,23.971,0,0,1,28.278-23.61l-11.224,19.641a7.985,7.985,0,0,0,6.174,11.918A5.381,5.381,0,0,0,208,464h22.624A24,24,0,0,1,184,456Zm63.195,8h57.623a40.225,40.225,0,0,0,7.214,16H239.978A39.835,39.835,0,0,0,247.2,464Zm98.843-23.907-3.356-8.055c.437-.024.877-.038,1.318-.038a24.028,24.028,0,0,1,24,24,23.77,23.77,0,0,1-.346,3.966A24.04,24.04,0,0,0,346.038,440.093ZM383.182,464H400v16H375.968A40.225,40.225,0,0,0,383.182,464ZM32,152V125.916A43.928,43.928,0,0,0,95.019,118.6,39.957,39.957,0,0,0,160,119.972a39.958,39.958,0,0,0,64,0,39.958,39.958,0,0,0,64,0,39.958,39.958,0,0,0,64,0,39.957,39.957,0,0,0,64.981-1.373A43.928,43.928,0,0,0,480,125.916V152Zm0-64H88v4a28,28,0,0,1-56,0ZM222.775,32l-5.714,40H170.606l11.429-40Zm107.19,0,11.429,40H294.939l-5.714-40ZM408,92v4a24,24,0,0,1-48,0V88h48Zm-64,4a24,24,0,0,1-48,0V88h48Zm-64,0a24,24,0,0,1-48,0V88h48Zm-64,0a24,24,0,0,1-48,0V88h48Zm-64,0a24,24,0,0,1-48,0V88h48Zm328-4a28,28,0,0,1-56,0V88h56Zm-5.785-20h-52.94L404.133,32h47.224Zm-87.49-40,17.143,40H358.034L346.605,32ZM273.062,32l5.714,40H233.224l5.714-40ZM165.4,32,153.966,72H108.132l17.143-40ZM60.643,32h47.224L90.725,72H37.785ZM32,464H168.805a39.835,39.835,0,0,0,7.217,16H32Zm304,16V464a8,8,0,0,1,16,0v16Zm80,0V440h32v40Zm64,0H464V464h16Z"/></g></svg>
