<?xml version="1.0"?>
<svg xmlns="http://www.w3.org/2000/svg" viewBox="0 0 64 64" width="512" height="512"><g id="Dumbbell-sport-toos-shop-store"><rect x="10" y="47" width="2" height="4"/><path d="M62,15V7a1,1,0,0,0-1-1V4a2.006,2.006,0,0,0-2-2H5A2.006,2.006,0,0,0,3,4V6A1,1,0,0,0,2,7v8a1,1,0,0,0,1,1V60H2v2H62V60H61V16A1,1,0,0,0,62,15ZM5,4H59V6H5ZM19,60H9V40H19Zm0-22H9V37H19Zm0-3H9V34H19ZM59,60H21V33a1,1,0,0,0-1-1H8a1,1,0,0,0-1,1V60H5V24.97A4.924,4.924,0,0,0,8,26a4.994,4.994,0,0,0,4-2.03,4.956,4.956,0,0,0,8,0,4.956,4.956,0,0,0,8,0,4.956,4.956,0,0,0,8,0,4.956,4.956,0,0,0,8,0,4.956,4.956,0,0,0,8,0A4.994,4.994,0,0,0,56,26a4.924,4.924,0,0,0,3-1.03ZM5,21V16h6v5a3,3,0,0,1-6,0Zm8,0V16h6v5a3,3,0,0,1-6,0Zm8,0V16h6v5a3,3,0,0,1-6,0Zm8,0V16h6v5a3,3,0,0,1-6,0Zm8,0V16h6v5a3,3,0,0,1-6,0Zm8,0V16h6v5a3,3,0,0,1-6,0Zm14,0a3,3,0,0,1-6,0V16h6Zm1-7H4V8H60Z"/><path d="M56,28H24a1,1,0,0,0-1,1V57a1,1,0,0,0,1,1H56a1,1,0,0,0,1-1V29A1,1,0,0,0,56,28ZM55,56H25V30H55Z"/><path d="M53,38H51V36a1,1,0,0,0-1-1H45a1,1,0,0,0-1,1v4H36V36a1,1,0,0,0-1-1H30a1,1,0,0,0-1,1v2H27a1,1,0,0,0-1,1v8a1,1,0,0,0,1,1h2v2a1,1,0,0,0,1,1h5a1,1,0,0,0,1-1V46h8v4a1,1,0,0,0,1,1h5a1,1,0,0,0,1-1V48h2a1,1,0,0,0,1-1V39A1,1,0,0,0,53,38ZM29,46H28V40h1Zm5,3H31V37h3Zm10-5H36V42h8Zm5,5H46V37h3Zm3-3H51V40h1Z"/></g></svg>
