<svg height="512pt" viewBox="0 0 512 512.00003" width="512pt" xmlns="http://www.w3.org/2000/svg"><path d="m486.398438 443.734375h-8.53125v-259.835937c15.632812-7.316407 25.613281-23.023438 25.597656-40.28125v-26.503907c-.015625-3.210937-.636719-6.390625-1.832032-9.371093-.042968-.101563-.09375-.191407-.136718-.292969-.96875-2.429688-2.304688-4.699219-3.960938-6.722657l-71.144531-85.371093c-8.09375-9.742188-20.109375-15.371094-32.773437-15.355469h-275.234376c-12.664062-.015625-24.679687 5.613281-32.773437 15.355469l-71.132813 85.363281c-1.660156 2.027344-3 4.292969-3.96875 6.726562-.046874.101563-.097656.195313-.140624.300782-1.195313 2.980468-1.816407 6.15625-1.832032 9.367187v26.503907c-.015625 17.261718 9.964844 32.96875 25.597656 40.285156v259.832031h-8.53125c-14.132812.015625-25.585937 11.46875-25.601562 25.597656v25.601563c.0117188 9.421875 7.644531 17.054687 17.066406 17.066406h477.867188c9.421875-.011719 17.054687-7.644531 17.066406-17.066406v-25.601563c-.015625-14.128906-11.46875-25.582031-25.601562-25.597656zm-460.796876-300.117187v-24.152344h59.730469c4.714844 0 8.535157-3.820313 8.535157-8.53125 0-4.714844-3.820313-8.535156-8.535157-8.535156h-50.039062l63.433593-76.117188c4.851563-5.84375 12.058594-9.222656 19.65625-9.214844h11.292969l-34.507812 55.210938c-1.699219 2.585937-1.867188 5.890625-.433594 8.632812 1.429687 2.742188 4.234375 4.496094 7.328125 4.582032 3.09375.085937 5.988281-1.507813 7.570312-4.167969l40.160157-64.257813h25.625l-21.277344 56.738282c-1.070313 2.855468-.535156 6.0625 1.402344 8.417968 1.9375 2.355469 4.984375 3.496094 7.992187 2.996094 3.007813-.5 5.519532-2.566406 6.589844-5.421875l23.523438-62.730469h27.085937l-7.339844 58.675782c-.582031 4.675781 2.734375 8.941406 7.410157 9.523437.355468.046875.710937.070313 1.070312.066406 4.300781-.003906 7.925781-3.207031 8.457031-7.472656l7.601563-60.792969h36.132812l7.601563 60.792969c.53125 4.265625 4.15625 7.46875 8.457031 7.472656.355469 0 .710938-.019531 1.066406-.066406 4.675782-.582031 7.992188-4.847656 7.410156-9.523437l-7.335937-58.675782h27.085937l23.523438 62.730469c1.65625 4.414063 6.574219 6.648437 10.988281 4.996094 4.414063-1.65625 6.648438-6.574219 4.996094-10.988281l-21.277344-56.738282h25.625l40.160157 64.257813c1.582031 2.660156 4.476562 4.253906 7.570312 4.167969 3.09375-.085938 5.898438-1.839844 7.328125-4.582032 1.433594-2.742187 1.265625-6.046875-.433594-8.632812l-34.507812-55.210938h11.292969c7.597656-.007812 14.804687 3.371094 19.65625 9.214844l63.4375 76.117188h-357.246094c-4.710938 0-8.53125 3.820312-8.53125 8.535156 0 4.710937 3.820312 8.53125 8.53125 8.53125h366.933594v24.152344c.292968 13.539062-9.640626 25.140624-23.066407 26.933593-7.214843.746094-14.40625-1.632812-19.757812-6.535156-5.328125-4.859375-8.371094-11.738281-8.375-18.949219 0-4.710937-3.820313-8.53125-8.53125-8.53125-4.714844 0-8.535157 3.820313-8.535157 8.53125 0 14.140625-11.460937 25.601563-25.597656 25.601563-14.140625 0-25.601562-11.460938-25.601562-25.601563 0-4.710937-3.820313-8.53125-8.535156-8.53125-4.710938 0-8.53125 3.820313-8.53125 8.53125 0 14.140625-11.460938 25.601563-25.601563 25.601563-14.136719 0-25.597656-11.460938-25.597656-25.601563 0-4.710937-3.820313-8.53125-8.535157-8.53125-4.710937 0-8.53125 3.820313-8.53125 8.53125 0 14.140625-11.464843 25.601563-25.601562 25.601563s-25.601562-11.460938-25.601562-25.601563c0-4.710937-3.820313-8.53125-8.53125-8.53125-4.714844 0-8.535157 3.820313-8.535157 8.53125 0 14.140625-11.460937 25.601563-25.597656 25.601563-14.140625 0-25.601563-11.460938-25.601563-25.601563 0-4.710937-3.820312-8.53125-8.53125-8.53125-4.714843 0-8.535156 3.820313-8.535156 8.53125 0 14.140625-11.460937 25.601563-25.601562 25.601563-14.136719 0-25.597656-11.460938-25.597656-25.601563 0-4.710937-3.820313-8.53125-8.535157-8.53125-4.710937 0-8.53125 3.820313-8.53125 8.53125-.007812 7.210938-3.046875 14.085938-8.375 18.945313-5.351562 4.898437-12.542969 7.273437-19.757812 6.53125-13.425781-1.792969-23.359375-13.386719-23.066407-26.925781zm145.066407 61.183593h-85.335938c-9.417969.011719-17.054687 7.644531-17.066406 17.066407v221.867187h-17.066406v-256.238281c13.421875.175781 26.117187-6.085938 34.144531-16.84375 8.050781 10.753906 20.699219 17.082031 34.128906 17.082031 13.433594-.003906 26.082032-6.335937 34.128906-17.09375 8.046876 10.757813 20.695313 17.09375 34.132813 17.09375 13.433594 0 26.082031-6.335937 34.132813-17.09375 8.046874 10.757813 20.699218 17.09375 34.132812 17.09375s26.085938-6.335937 34.132812-17.09375c8.050782 10.757813 20.699219 17.09375 34.132813 17.09375 13.4375 0 26.085937-6.335937 34.132813-17.09375 8.050781 10.757813 20.695312 17.089844 34.128906 17.09375 13.429687 0 26.078125-6.328125 34.128906-17.082031 8.027344 10.757812 20.722656 17.019531 34.144531 16.84375v256.238281h-273.066406v-221.867187c-.011719-9.421876-7.648437-17.054688-17.066406-17.066407zm-85.335938 93.867188v-76.800781h85.335938v76.800781zm85.335938 17.066406v128h-85.335938v-128zm324.265625 179.199219h-477.867188v-25.601563c.003906-4.710937 3.824219-8.527343 8.535156-8.53125h460.796876c4.710937.003907 8.53125 3.820313 8.535156 8.53125zm0 0"/><path d="m243.199219 341.332031c12.082031 0 22.972656-7.277343 27.59375-18.4375 4.621093-11.160156 2.066406-24.003906-6.472657-32.546875-8.542968-8.542968-21.390624-11.097656-32.550781-6.472656-11.160156 4.621094-18.4375 15.511719-18.4375 27.589844.019531 16.488281 13.382813 29.847656 29.867188 29.867187zm0-42.664062c7.070312 0 12.800781 5.730469 12.800781 12.796875 0 7.070312-5.730469 12.800781-12.800781 12.800781-7.070313 0-12.800781-5.730469-12.800781-12.800781.007812-7.0625 5.734374-12.789063 12.800781-12.796875zm0 0"/><path d="m285.867188 281.601562c16.496093 0 29.867187-13.375 29.867187-29.867187 0-16.496094-13.371094-29.867187-29.867187-29.867187-16.496094 0-29.867188 13.371093-29.867188 29.867187.019531 16.484375 13.378906 29.847656 29.867188 29.867187zm0-42.667968c7.070312 0 12.800781 5.730468 12.800781 12.800781 0 7.066406-5.730469 12.800781-12.800781 12.800781-7.070313 0-12.800782-5.734375-12.800782-12.800781.007813-7.066406 5.734375-12.792969 12.800782-12.800781zm0 0"/><path d="m362.667969 281.601562c16.492187 0 29.867187-13.375 29.867187-29.867187 0-16.496094-13.375-29.867187-29.867187-29.867187-16.496094 0-29.867188 13.371093-29.867188 29.867187.019531 16.484375 13.378907 29.847656 29.867188 29.867187zm0-42.667968c7.066406 0 12.796875 5.730468 12.796875 12.800781 0 7.066406-5.730469 12.800781-12.796875 12.800781-7.070313 0-12.800781-5.734375-12.800781-12.800781.007812-7.066406 5.734374-12.792969 12.800781-12.800781zm0 0"/><path d="m375.464844 311.464844c0 16.496094 13.375 29.867187 29.867187 29.867187 16.496094 0 29.867188-13.371093 29.867188-29.867187 0-16.492188-13.371094-29.863282-29.867188-29.863282-16.484375.019532-29.84375 13.378907-29.867187 29.863282zm29.867187-12.796875c7.070313 0 12.800781 5.730469 12.800781 12.796875 0 7.070312-5.730468 12.800781-12.800781 12.800781-7.066406 0-12.796875-5.730469-12.796875-12.800781.007813-7.0625 5.730469-12.789063 12.796875-12.796875zm0 0"/><path d="m110.933594 349.867188h17.066406c4.710938 0 8.535156-3.820313 8.535156-8.535157 0-4.710937-3.824218-8.53125-8.535156-8.53125h-17.066406c-4.714844 0-8.535156 3.820313-8.535156 8.53125 0 4.714844 3.820312 8.535157 8.535156 8.535157zm0 0"/><path d="m264.535156 375.464844v8.535156c.015625 14.132812 11.464844 25.585938 25.597656 25.601562h68.265626c14.132812-.015624 25.585937-11.46875 25.601562-25.601562v-8.535156c0-32.988282-26.742188-59.730469-59.734375-59.730469-32.988281 0-59.730469 26.742187-59.730469 59.730469zm59.730469-42.664063c23.554687.027344 42.640625 19.113281 42.667969 42.664063v8.535156c-.003906 4.710938-3.824219 8.527344-8.535156 8.535156h-68.265626c-4.710937-.007812-8.527343-3.824218-8.53125-8.535156v-8.535156c.027344-23.550782 19.113282-42.636719 42.664063-42.664063zm0 0"/></svg>