<svg height="512pt" viewBox="0 0 512 512" width="512pt" xmlns="http://www.w3.org/2000/svg"><path d="m89.425781 73.847656h14.84375v58.15625c0 1.285156.640625 2.300782 1.921875 3.042969 1.277344.746094 2.828125 1.117187 4.644532 1.117187 1.75 0 3.28125-.371093 4.59375-1.117187 1.3125-.742187 1.972656-1.757813 1.972656-3.042969v-58.15625h14.746094c1.277343 0 2.285156-.574218 3.027343-1.722656.742188-1.148438 1.109375-2.511719 1.109375-4.085938 0-1.507812-.351562-2.835937-1.058594-3.984374-.707031-1.148438-1.734374-1.722657-3.082031-1.722657h-42.71875c-1.351562 0-2.375.574219-3.082031 1.722657-.707031 1.148437-1.0625 2.476562-1.0625 3.984374 0 1.644532.371094 3.019532 1.113281 4.132813.738281 1.117187 1.75 1.675781 3.03125 1.675781zm0 0"/><path d="m134.929688 130.332031c0 1.65625 1.003906 3.042969 3.003906 4.15625 2 1.117188 4.101562 1.675781 6.300781 1.675781 2.808594 0 4.476563-.875 5.007813-2.617187l3.765624-13.441406h21.636719l3.839844 13.433593c.46875 1.75 1.953125 2.625 4.441406 2.625 1.886719 0 3.738281-.539062 5.558594-1.617187 1.816406-1.074219 2.726563-2.355469 2.726563-3.835937 0-.136719-.066407-.472657-.203126-1.011719l-19.496093-63.527344c-.402344-1.414063-1.410157-2.511719-3.027344-3.285156-1.617187-.773438-3.433594-1.160157-5.453125-1.160157-2.023438 0-3.824219.347657-5.402344 1.046876-1.585937.695312-2.578125 1.683593-2.980468 2.957031l-19.515626 63.523437c-.136718.574219-.203124.933594-.203124 1.078125zm29.636718-51.535156 8.789063 31.003906h-17.464844zm0 0"/><path d="m197.089844 73.847656h14.847656v58.15625c0 1.285156.640625 2.300782 1.917969 3.042969 1.28125.746094 2.828125 1.117187 4.648437 1.117187 1.75 0 3.28125-.371093 4.59375-1.117187 1.3125-.742187 1.96875-1.757813 1.96875-3.042969v-58.15625h14.746094c1.28125 0 2.289062-.574218 3.03125-1.722656s1.109375-2.511719 1.109375-4.085938c0-1.507812-.351563-2.835937-1.058594-3.984374-.707031-1.148438-1.734375-1.722657-3.082031-1.722657h-42.722656c-1.347656 0-2.375.574219-3.082032 1.722657-.707031 1.148437-1.058593 2.476562-1.058593 3.984374 0 1.644532.367187 3.019532 1.109375 4.132813.742187 1.117187 1.753906 1.675781 3.03125 1.675781zm0 0"/><path d="m254.457031 73.847656h14.847657v58.15625c0 1.285156.640624 2.300782 1.921874 3.042969 1.277344.746094 2.824219 1.117187 4.644532 1.117187 1.75 0 3.28125-.371093 4.597656-1.117187 1.3125-.742187 1.96875-1.757813 1.96875-3.042969v-58.15625h14.746094c1.277344 0 2.289062-.574218 3.027344-1.722656.742187-1.148438 1.113281-2.511719 1.113281-4.085938 0-1.507812-.355469-2.835937-1.0625-3.984374-.707031-1.148438-1.734375-1.722657-3.078125-1.722657h-42.726563c-1.347656 0-2.371093.574219-3.078125 1.722657-.707031 1.148437-1.0625 2.476562-1.0625 3.984374 0 1.644532.371094 3.019532 1.113282 4.132813.738281 1.117187 1.75 1.675781 3.027343 1.675781zm0 0"/><path d="m318.140625 131.214844c4.273437 3.703125 10.011719 5.554687 17.21875 5.554687 7.203125 0 12.960937-1.851562 17.273437-5.554687 4.304688-3.703125 6.460938-9.5625 6.460938-17.574219v-28.179687c0-8.011719-2.15625-13.871094-6.460938-17.574219-4.3125-3.703125-10.070312-5.554688-17.273437-5.554688-7.207031 0-12.945313 1.851563-17.21875 5.554688-4.277344 3.703125-6.414063 9.5625-6.414063 17.574219v28.179687c0 8.011719 2.136719 13.871094 6.414063 17.574219zm6.714844-45.753906c0-7.742188 3.5-11.613282 10.503906-11.613282 7.070313 0 10.605469 3.871094 10.605469 11.613282v28.179687c0 7.742187-3.535156 11.613281-10.605469 11.613281-7.003906 0-10.503906-3.871094-10.503906-11.613281zm0 0"/><path d="m379.949219 131.214844c4.273437 3.703125 10.015625 5.554687 17.222656 5.554687 7.203125 0 12.960937-1.851562 17.269531-5.554687s6.464844-9.5625 6.464844-17.574219v-28.179687c0-8.011719-2.15625-13.871094-6.464844-17.574219s-10.066406-5.554688-17.269531-5.554688c-7.207031 0-12.945313 1.851563-17.222656 5.554688-4.277344 3.703125-6.414063 9.5625-6.414063 17.574219v28.179687c0 8.011719 2.136719 13.871094 6.414063 17.574219zm6.714843-45.753906c0-7.742188 3.503907-11.613282 10.507813-11.613282 7.066406 0 10.601563 3.871094 10.601563 11.613282v28.179687c0 7.742187-3.535157 11.613281-10.601563 11.613281-7.003906 0-10.507813-3.871094-10.507813-11.613281zm0 0"/><path d="m502 190c5.523438 0 10-4.476562 10-10v-170c0-5.523438-4.476562-10-10-10h-492c-5.523438 0-10 4.476562-10 10v170c0 5.523438 4.476562 10 10 10h16v262h-16c-5.523438 0-10 4.476562-10 10v40c0 5.523438 4.476562 10 10 10h492c5.523438 0 10-4.476562 10-10v-40c0-5.523438-4.476562-10-10-10h-16v-262zm-10-170v28.734375c-14.035156-3.625-25.109375-14.699219-28.734375-28.734375zm-472 0h28.734375c-3.625 14.035156-14.699219 25.109375-28.734375 28.734375zm0 49.152344c25.085938-4.230469 44.921875-24.066406 49.152344-49.152344h373.699218c4.226563 25.085938 24.0625 44.921875 49.148438 49.152344v51.699218c-25.082031 4.226563-44.921875 24.0625-49.148438 49.148438h-373.699218c-4.230469-25.085938-24.066406-44.921875-49.152344-49.152344zm216 140.847656c-5.523438 0-10 4.476562-10 10v202c0 5.523438 4.476562 10 10 10h230v20h-260v-132c0-38.597656-31.402344-70-70-70s-70 31.402344-70 70v132h-20v-262h420v20zm230 20v182h-220v-182zm-280 90v132h-100v-132c0-27.570312 22.429688-50 50-50s50 22.429688 50 50zm-166-150v-28.734375c14.035156 3.625 25.109375 14.699219 28.734375 28.734375zm472 302v20h-472v-20zm-28.734375-302c3.625-14.035156 14.699219-25.109375 28.734375-28.734375v28.734375zm0 0"/><path d="m350 392c2.539062 0 4.949219-.949219 6.808594-2.679688l55.652344-51.761718c4.027343-3.757813 4.257812-10.097656.507812-14.140625-1.890625-2.019531-4.558594-3.179688-7.328125-3.179688-2.53125 0-4.949219.949219-6.800781 2.671875l-55.648438 51.769532c-1.960937 1.820312-3.089844 4.289062-3.179687 6.960937-.101563 2.667969.847656 5.21875 2.667969 7.167969 1.878906 2.03125 4.550781 3.191406 7.320312 3.191406zm0 0"/><path d="m434.9375 312.988281c2.53125 0 4.953125-.949219 6.800781-2.679687 1.960938-1.820313 3.089844-4.289063 3.191407-6.960938.089843-2.667968-.851563-5.207031-2.671876-7.167968-1.890624-2.03125-4.558593-3.191407-7.328124-3.191407-2.53125 0-4.949219.949219-6.8125 2.683594-4.027344 3.75-4.257813 10.089844-.507813 14.128906 1.890625 2.027344 4.5625 3.1875 7.328125 3.1875zm0 0"/><path d="m429.4375 354.453125-23 20c-4.167969 3.625-4.609375 9.941406-.984375 14.109375 1.980469 2.273438 4.757813 3.4375 7.550781 3.4375 2.328125 0 4.664063-.808594 6.558594-2.453125l23-20c4.167969-3.625 4.609375-9.941406.984375-14.109375s-9.941406-4.605469-14.109375-.984375zm0 0"/><path d="m166 396c0 5.523438-4.476562 10-10 10s-10-4.476562-10-10 4.476562-10 10-10 10 4.476562 10 10zm0 0"/></svg>