<svg id="Capa_1" enable-background="new 0 0 512 512" height="512" viewBox="0 0 512 512" width="512" xmlns="http://www.w3.org/2000/svg"><g><g><path d="m387.321 286.886c-4.143 0-7.5 3.358-7.5 7.5s3.357 7.5 7.5 7.5h20.203c4.143 0 7.5-3.358 7.5-7.5s-3.357-7.5-7.5-7.5z"/><path d="m387.321 418.055h20.203c4.143 0 7.5-3.358 7.5-7.5s-3.357-7.5-7.5-7.5h-20.203c-4.143 0-7.5 3.358-7.5 7.5s3.358 7.5 7.5 7.5z"/><path d="m504.5 222.236h-8.662v-135.944c0-4.142-3.357-7.5-7.5-7.5h-145.464c-4.143 0-7.5 3.358-7.5 7.5v135.943h-131.097l-6.352-25.407h62.116c11.934 0 21.642-9.708 21.642-21.642v-52.686c0-4.142-3.357-7.5-7.5-7.5s-7.5 3.358-7.5 7.5v24.984h-207.236v-115.74c0-3.663 2.979-6.643 6.642-6.643h193.952c3.662 0 6.642 2.98 6.642 6.643v55.533c0 4.142 3.357 7.5 7.5 7.5s7.5-3.358 7.5-7.5v-55.533c0-11.934-9.708-21.643-21.642-21.643h-193.952c-11.934 0-21.642 9.709-21.642 21.643v143.443c0 11.934 9.708 21.642 21.642 21.642h62.116l-6.352 25.407h-114.353c-4.143 0-7.5 3.358-7.5 7.5v32.325c0 4.142 3.357 7.5 7.5 7.5h8.662v224.837c0 4.142 3.357 7.5 7.5 7.5h32.325c4.143 0 7.5-3.358 7.5-7.5v-224.837h143.136c4.143 0 7.5-3.358 7.5-7.5s-3.357-7.5-7.5-7.5h-191.623v-17.325h482v17.325h-255.214c-4.143 0-7.5 3.358-7.5 7.5s3.357 7.5 7.5 7.5h57.222v224.837c0 4.142 3.357 7.5 7.5 7.5h181.83c4.143 0 7.5-3.358 7.5-7.5v-165.477c0-4.142-3.357-7.5-7.5-7.5s-7.5 3.358-7.5 7.5v41.809h-166.83v-101.169h166.83v24.153c0 4.142 3.357 7.5 7.5 7.5s7.5-3.358 7.5-7.5v-24.153h8.662c4.143 0 7.5-3.358 7.5-7.5v-32.325c0-4.142-3.357-7.5-7.5-7.5zm-456.013 264.662h-17.325v-217.337h17.325zm10.96-311.711v-12.703h207.235v12.703c0 3.663-2.979 6.642-6.642 6.642h-193.951c-3.662 0-6.642-2.979-6.642-6.642zm84.22 21.642h38.797l6.352 25.407h-51.5zm206.707-103.037h33.488v128.443h-33.488zm48.488 0h33.487v128.443h-33.487zm48.488 128.444v-128.444h33.488v128.443h-33.488zm33.488 163.493v101.169h-166.83v-101.169z"/></g></g></svg>