<svg height="512" viewBox="0 0 192 192" width="512" xmlns="http://www.w3.org/2000/svg"><g id="_03-cup" data-name="03-cup"><g id="Glyph"><path d="m64 40a8.009 8.009 0 0 1 8-8h16a24.027 24.027 0 0 0 24-24v-8h-16v8a8.009 8.009 0 0 1 -8 8h-16a24.027 24.027 0 0 0 -24 24v8h16z"/><path d="m96 40a24.027 24.027 0 0 0 -24 24v8h16v-8a8.009 8.009 0 0 1 8-8h16a24.027 24.027 0 0 0 24-24v-8h-16v8a8.009 8.009 0 0 1 -8 8z"/><path d="m156 80h-124a8 8 0 0 0 -8 8v24a63.97 63.97 0 0 0 21.741 48h84.521a64.6 64.6 0 0 0 11.655-13.585l.073-.114a63.921 63.921 0 0 0 4.337-8.008c.036-.081.073-.161.109-.241.3-.679.6-1.362.877-2.052h8.687a28 28 0 0 0 0-56zm-36 56a8 8 0 1 1 8-8 8 8 0 0 1 -8 8zm36-16h-4.518a64.2 64.2 0 0 0 .518-8v-16h4a12 12 0 0 1 0 24z"/><path d="m32 192h112a24.027 24.027 0 0 0 24-24h-160a24.027 24.027 0 0 0 24 24z"/></g></g></svg>