<?xml version="1.0"?>
<svg xmlns="http://www.w3.org/2000/svg" id="_20-shoe" data-name="20-shoe" viewBox="0 0 96 96" width="512" height="512"><g id="Glyph"><path d="M67.08,25.305C64.9,18.123,59.291,16,56,16a4,4,0,0,0-3.123,1.5c-2.823,3.528-6.031,7.283-8.964,10.5,6.955-2.18,13.6-4,16.087-4A19.718,19.718,0,0,1,67.08,25.305Z"/><path d="M24.522,38.994C3.1,47.369,0,52.123,0,56c0,3.409,2.967,4.8,6.814,5.538l-.736,3.678,7.844,1.568.858-4.29c2.5.215,5.43.407,8.741.576l-.481,3.365,7.92,1.13.594-4.155c.877.03,1.759.06,2.675.088,1.674.051,3.378.1,5.092.137a57.521,57.521,0,0,0-7.649-15.916A50.511,50.511,0,0,0,24.522,38.994Z"/><path d="M39.984,33.46c-2.472.815-4.954,1.663-7.318,2.5,6.9,7.606,13.177,19.162,14.879,27.834-2.518-.04-5.043-.087-7.545-.145V68h8V63.805l-.085,0c2.558.04,5.1.073,7.6.1C53.639,54.8,46.6,41.03,39.984,33.46Z"/><path d="M96,48c0-13-4.308-17.965-5.172-18.828a4,4,0,0,0-6.406,1.039c-.028.058-3,5.712-8.313,5.788a16.362,16.362,0,0,1-2.812-2.06C70.271,31.433,66.128,28,60,28c-1.579,0-6.182,1.176-11.791,2.861,7.712,9.858,13.778,24.174,15.377,33.1q2.271.012,4.414.019V68h8V64h4v4h8V62.427C93.16,60.059,96,55.087,96,48ZM62,40a4,4,0,1,1,4-4A4,4,0,0,1,62,40Z"/></g></svg>
