<svg id="Layer_1" enable-background="new 0 0 512.029 512.029" height="512" viewBox="0 0 512.029 512.029" width="512" xmlns="http://www.w3.org/2000/svg"><g><path d="m412.113 100.768c-25.741-25.741-59.965-39.917-96.367-39.917-36.403 0-70.627 14.176-96.367 39.916-74.45 74.451-123.732 146.487-146.477 214.109-17.187 51.096-12.619 81.459-11.528 87.027 4.493 22.951 7.39 26.787 15.103 34.5 9.502 9.502 22.169 14.735 35.665 14.735s26.163-5.233 35.665-14.735c91.678-91.678 143.4-97.523 184.961-102.22 27.183-3.072 43.59-4.927 79.346-40.683 25.74-25.74 39.916-59.964 39.916-96.367s-14.177-70.625-39.917-96.365zm-32.435 136.365c-11.736 11.736-27.34 18.2-43.938 18.2s-32.202-6.463-43.938-18.2c-24.228-24.228-24.228-63.65 0-87.877 11.736-11.737 27.341-18.201 43.938-18.201 16.599 0 32.203 6.464 43.938 18.201 11.736 11.736 18.2 27.34 18.2 43.938s-6.464 32.202-18.2 43.939z"/><path d="m454.539 58.342c-37.073-37.073-86.364-57.49-138.793-57.49-52.43 0-101.721 20.417-138.793 57.49-81.056 81.055-135.198 160.93-160.92 237.407-20.87 62.045-16.423 102.968-13.542 117.683 5.464 27.908 11.845 45.685 31.56 65.399 20.858 20.859 48.592 32.347 78.091 32.347s57.232-11.488 78.091-32.347c76.84-76.839 113.662-81.001 149.273-85.026 31.681-3.581 64.439-7.283 115.033-57.877 37.073-37.073 57.49-86.364 57.49-138.793s-20.417-101.72-57.49-138.793zm-21.213 256.373c-43.175 43.175-67.012 45.869-97.189 49.28-38.839 4.389-82.859 9.365-167.117 93.623-31.363 31.362-82.393 31.362-113.756 0-13.387-13.387-18.184-23.657-23.331-49.95-1.89-9.651-6.569-45.556 12.535-102.355 24.233-72.049 75.945-148.005 153.698-225.758 31.406-31.407 73.164-48.703 117.58-48.703 44.415 0 86.173 17.296 117.58 48.703s48.703 73.164 48.703 117.58-17.296 86.173-48.703 117.58z"/><path d="m335.74 161.055c-8.584 0-16.655 3.343-22.726 9.414-12.53 12.531-12.53 32.92 0 45.451 6.07 6.07 14.142 9.413 22.726 9.413 8.585 0 16.655-3.343 22.726-9.413 6.07-6.07 9.413-14.141 9.413-22.725s-3.343-16.655-9.413-22.725c-6.071-6.072-14.141-9.415-22.726-9.415z"/></g></svg>