<?xml version="1.0" encoding="utf-8"?>
<!-- Generator: Adobe Illustrator 24.0.0, SVG Export Plug-In . SVG Version: 6.00 Build 0)  -->
<svg version="1.1" id="Capa_1" xmlns="http://www.w3.org/2000/svg" xmlns:xlink="http://www.w3.org/1999/xlink" x="0px" y="0px"
	 viewBox="0 0 512 512" style="enable-background:new 0 0 512 512;" xml:space="preserve">
<style type="text/css">
	.st0{fill:none;}
</style>
<g>
	<path class="st0" d="M275.5,310.8l-20.3-4.3c-19.8-4.4-27.8-10.2-27.8-20.6c0-12.8,12.3-21,29.3-21c17,0,29.4,8.9,31.1,22.2h32.9
		c-0.9-24.4-18.6-42.6-45.2-48.5v-31.8h-39.3v31.7c-27.3,6.1-44.4,24.6-44.4,50.3s15.1,41.7,45.8,48.1l21.9,4.7
		c20.7,4.6,29.1,10.8,29.1,21.6c0,12.7-13,21.6-31.3,21.6c-19.9,0-33.6-8.8-35.3-22.4h-34.1c1.3,26,19.5,43.9,48.5,49.3v31.4h39.3
		v-31.5c30.2-5.8,48.3-24.6,48.3-52.8C324,332.3,309.4,317.9,275.5,310.8z"/>
	<path d="M358.9,141.7H153.1c-23.5,21.6-133.5,129-133.5,252.1c0,78.8,59.3,118.2,98.5,118.2h275.8c39.3,0,98.5-39.4,98.5-118.2
		C492.4,270.7,382.4,163.3,358.9,141.7z M275.7,411.5v31.5h-39.3v-31.4c-29-5.4-47.2-23.3-48.5-49.3h34.1
		c1.7,13.6,15.4,22.4,35.3,22.4c18.3,0,31.3-8.9,31.3-21.6c0-10.8-8.4-16.9-29.1-21.6l-21.9-4.7c-30.7-6.4-45.8-22.4-45.8-48.1
		s17.1-44.3,44.4-50.3v-31.7h39.3v31.8c26.6,5.9,44.4,24.1,45.2,48.5h-32.9c-1.7-13.3-14.1-22.2-31.1-22.2c-17,0-29.3,8.2-29.3,21
		c0,10.4,8,16.2,27.8,20.6l20.3,4.3c33.9,7.1,48.5,21.6,48.5,47.9C324,386.9,305.9,405.8,275.7,411.5z"/>
	<path d="M372.8,46.5c4-10.1-1-21.6-11.1-25.6c-2.3-0.9-4.7-1.4-7.1-1.4H300c-21.9-24.3-59.4-26.3-83.7-4.3c-1.5,1.4-3,2.8-4.3,4.3
		h-54.4c-10.9,0-19.7,8.9-19.6,19.8c0,2.4,0.5,4.9,1.4,7.1l16.7,47.2h200.2L372.8,46.5z"/>
</g>
</svg>
