<svg height="512" viewBox="0 0 56 57" width="512" xmlns="http://www.w3.org/2000/svg"><g id="Page-1"><g id="044---Ace-of-Spades" transform="translate(-1)"><path id="Shape" d="m34.711 9.258 1.223-.064-.708-1.802z"/><path id="Shape" d="m9.454 50.479.515-1.866-1.223.064z"/><path id="Shape" d="m56.2 13-4.738-.944-3.996 42.228c-.0710269.7926007-.4576779 1.523382-1.073 2.028-.1673373.1342778-.3483328.2505842-.54.347l1.612.32c.5391989.1068549 1.0635553-.2415249 1.174-.78l8.34-42.023c.0547298-.2594473.0030952-.5300058-.1433361-.7510626-.1464314-.2210569-.3754193-.3741339-.6356639-.4249374z"/><path id="Shape" d="m49.09 5.215-6-.57 2.523 47.961 4.387-46.299c.0255396-.26577415-.0562651-.53072501-.2271933-.7358389-.1709283-.20511389-.416784-.33335554-.6828067-.3561611z"/><path id="Shape" d="m39.9.975-37.947 2c-.26513826.01218066-.51455776.12926695-.69331179.32546498-.17875403.19619802-.27217708.45541109-.25968821.72053502l2.733 51.929c.02906008.5514252.49956776.9749269 1.051.946l37.948-2c.5510141-.0290671.9743552-.4989488.946-1.05l-2.732-51.925c-.0338178-.54711142-.4982524-.96714502-1.046-.946zm-33.065 37.788c.3390169-.0132566.67817388.0224442 1.007.106l-.061-1.156c-.01893508-.3572656.15416711-.6974944.45410065-.8925254.29993354-.1950311.68113139-.2152345 1-.053.31886862.1622345.52696427.4822598.54589935.8395254l.06 1.151c.3180468-.1181211.6521917-.187243.991-.205.5522847-.0292711 1.0237289.3947153 1.053.947.029271.5522847-.3947153 1.0237289-.947 1.053-.557.029-.733.264-.831.491-.0732462.1778008-.11258932.3677333-.116.56v.052c.00072054.5325988-.41612129.9723053-.948 1h-.054c-.53223205.000748-.9717922-.4155154-1-.947.0146692-.274395-.0955742-.540699-.29989891-.7244359-.20432472-.1837368-.48079848-.2651842-.75210109-.2215641-.55228473.0276142-1.0223857-.3977153-1.04999994-.95-.02761423-.5522847.39771522-1.0223857.94999994-1.05zm6.272 6-2.523 9.137c-.1139393.4153039-.4809635.7110183-.911.734h-.053c-.411161.0001583-.78051509-.2513674-.931-.634l-3.468-8.83c-.116241-.2989431-.08202999-.6355024.09198659-.9049411.17401659-.2694386.46671706-.4390528.78701341-.4560589l1-.053c.48078227-.0263347.91206704.2936951 1.02619597.7614768s-.12130757.9504775-.56019597 1.1485232l.412 1.048 2.555-.134.3-1.086c-.4567574-.151232-.7410657-.6062972-.6766905-1.083114.0643751-.4768168.4591816-.8401946.9396905-.864886l1-.053c.3211804-.017092.6309777.1213449.8325049.3720154.2015272.2506706.2701828.582974.1844951.8929846zm18.561-8.592c-1.7 1.31-4.136 1.211-5.711.958.3540967 1.5077388 1.2737509 2.8218884 2.569 3.671.4306791.2556652.6057947.7905079.4097214 1.2513815-.1960734.4608735-.7028529.7056117-1.1857214.5726185-1.5407375-.4275311-3.1284819-.662653-4.727-.7-1.5839042.2037394-3.1366285.6020805-4.623 1.186-.4661481.183149-.9958911-.0067907-1.2394622-.4444102-.2435711-.4376194-.1258393-.987932.2754622-1.2875898 1.1986142-.9801547 1.9753522-2.3829363 2.17-3.919-1.541.419-3.958.772-5.78-.355-1.5050469-1.0353572-2.3761214-2.768452-2.309-4.594-.261-4.961 3.6-8.706 6.416-11.441 1.359-1.318 2.642-2.563 2.869-3.384.1147591-.4144111.4815966-.7090599.9110057-.731732s.8252345.2317094.9829943.631732c.312.792 1.719 1.9 3.209 3.065 3.089 2.424 7.32 5.744 7.581 10.7.258055 1.8106644-.4277998 3.6275383-1.818 4.816zm6.177-17.059c-.3387521.0161406-.6780383-.0175522-1.007-.1l.06 1.153c.0141655.2649785-.0775674.5247225-.2549989.7220352-.1774314.1973128-.4260112.3160139-.6910011.3299648h-.052c-.532232.000748-.9717922-.4155154-1-.947l-.06-1.151c-.318152.1169877-.6523782.18444-.991.2h-.049c-.5522847.0140833-1.0114167-.4222153-1.0255-.9745-.0140832-.5522847.4222153-1.0114167.9745-1.0255.555-.028.732-.263.83-.49.0725357-.1776295.1115273-.3671625.115-.559 0-.018 0-.037 0-.054-.0143594-.5522847.4217153-1.0116406.974-1.026s1.0116406.4217153 1.026.974c-.0132219.2738901.0974936.5391931.301485.7224363s.4796058.2649761.750515.2225637c.5522847-.0276142 1.0223857.3977153 1.05.95.0276142.5522847-.3977153 1.0223858-.95 1.05zm1.524-5.5c-.1739835.2707287-.4676256.4411826-.789.458l-1 .051c-.4807823.0263347-.912067-.2936951-1.026196-.7614768-.1141289-.4677817.1213076-.9504775.560196-1.1485232l-.411-1.047-2.555.134-.3 1.086c.4567574.151232.7410657.6062972.6766905 1.083114-.0643751.4768168-.4591816.8401946-.9396905.864886l-1 .052h-.051c-.3122025.0000084-.6064945-.1457942-.7956318-.394184-.1891372-.2483898-.2514141-.5708612-.1683682-.871816l2.53-9.15c.1147591-.41441109.4815966-.70905992.9110057-.73173199s.8252345.23170944.9829943.63173199l3.469 8.83c.1163539.299857.0813739.6373771-.094.907z"/></g></g></svg>
