<?xml version="1.0" encoding="utf-8"?>
<!-- Generator: Adobe Illustrator 24.0.0, SVG Export Plug-In . SVG Version: 6.00 Build 0)  -->
<svg version="1.1" id="_20-shoe" xmlns="http://www.w3.org/2000/svg" xmlns:xlink="http://www.w3.org/1999/xlink" x="0px" y="0px"
	 viewBox="0 0 512 512" style="enable-background:new 0 0 512 512;" xml:space="preserve">
<style type="text/css">
	.st0{fill:#010101;}
</style>
<g>
	<g>
		<path class="st0" d="M100.4,1.3H28.7C12.7,1.3,0,14.2,0,29.9l0,0v172.4h57.6v-57.6h43.1c39.6,0,72-32,72-71.8s-32.2-71.8-72-71.8
			C100.4,1.3,100.4,1.3,100.4,1.3L100.4,1.3z M100.4,87.5H57.3V58.6h43.1c7.9-0.3,14.5,6.1,14.7,13.9S109,87,101.2,87.2
			C100.9,87.5,100.7,87.5,100.4,87.5z"/>
	</g>
	<g>
		<path class="st0" d="M509.5,319l-19.5-31.4c0-0.5-0.5-1.5-0.5-2l-27.1-99.7c-1.8-6.6-7.9-11.2-14.5-11.2H177.3
			c-6.6,0-12.7,4.6-14.5,11.2l-27.1,99.9l-24.6,32c-2,2.8-3,6.1-3,9.6v113.1c-0.3,8.1,6.3,14.7,14.5,15c0.3,0,0.5,0,0.8,0h5.1v41.3
			c-0.3,8.1,6.3,15,14.5,15c0.3,0,0.5,0,0.5,0h73c8.1,0.3,15-6.3,15-14.5c0-0.3,0-0.5,0-0.5v-41.1H389V497c-0.3,8.1,6.3,15,14.5,15
			c0.3,0,0.5,0,0.5,0h73c8.1,0.3,15-6.3,15-14.5c0-0.3,0-0.5,0-0.5v-41.3h5.1c8.1,0.3,14.7-6.3,15-14.5c0-0.3,0-0.5,0-0.8V327.1
			C511.7,324.3,511,321.5,509.5,319z M227.7,389c0.3,8.1-6.3,15-14.5,15c-0.3,0-0.5,0-0.5,0h-46.7c-8.1,0.3-15-6.3-15-14.5
			c0-0.3,0-0.5,0-0.5v-32c-0.3-8.1,6.3-14.7,14.5-15c0.3,0,0.5,0,0.8,0H213c8.1-0.3,14.7,6.3,15,14.5c0,0.3,0,0.5,0,0.8L227.7,389
			L227.7,389z M356.5,385.5h-92.8v-29.9h92.8V385.5z M169.9,274.6l19-70h247.8l19,70H169.9z M468.9,389c0.3,8.1-6.3,15-14.5,15
			c-0.3,0-0.5,0-0.5,0h-46.4c-8.1,0.3-15-6.3-15-14.5c0-0.3,0-0.5,0-0.5v-32c-0.3-8.1,6.3-15,14.5-15c0.3,0,0.5,0,0.5,0h46.9
			c8.1-0.3,15,6.3,15,14.5c0,0.3,0,0.5,0,0.5L468.9,389z"/>
	</g>
</g>
</svg>
