<?xml version="1.0" encoding="utf-8"?>
<!-- Generator: Adobe Illustrator 24.0.0, SVG Export Plug-In . SVG Version: 6.00 Build 0)  -->
<svg version="1.1" id="_20-shoe" xmlns="http://www.w3.org/2000/svg" xmlns:xlink="http://www.w3.org/1999/xlink" x="0px" y="0px"
	 viewBox="0 0 512 512" style="enable-background:new 0 0 512 512;" xml:space="preserve">
<g>
	<g>
		<path class="st0" d="M100.4,1.3H28.7C12.7,1.3,0,14.2,0,29.9l0,0v172.4h57.6v-57.6h43.1c39.6,0,72-32,72-71.8s-32.2-71.8-72-71.8
			C100.4,1.3,100.4,1.3,100.4,1.3L100.4,1.3z M100.4,87.5H57.3V58.6h43.1c7.9-0.3,14.5,6.1,14.7,13.9S109,87,101.2,87.2
			C100.9,87.5,100.7,87.5,100.4,87.5z"/>
	</g>
</g>
<g>
	<g>
		<path class="st0" d="M427.2,341.7c-3.8,0.3-7.6,0.5-11.2,1.3l-43.9-43.7h55.3v-64l-79.2,39.6l-61.4-61.2h-94.2v42.6h76.7L312,299
			h-76.7l-85.8,42.1l-42.6-42.4H0v42.6h85.3C38.1,341.4,0,379.8,0,426.7S38.3,512,85.3,512c47.2,0,85.3-38.3,85.3-85.3l42.6,42.6h64
			l74.6-130.2l21.6,21.6c-20.3,16-32,40.1-32,66c0,47.2,38.3,85.3,85.3,85.3c47.2,0,85.3-38.3,85.3-85.3
			C512.8,379.8,474.4,341.4,427.2,341.7C427.2,341.4,427.2,341.4,427.2,341.7L427.2,341.7z M85.5,469.9c-23.6,0-42.6-19-42.6-42.6
			c0-23.6,19-42.6,42.6-42.6s42.6,19,42.6,42.6C128.2,450.8,109.1,469.9,85.5,469.9z M427.2,469.9c-23.6,0-42.6-19-42.6-42.6
			c0-23.6,19-42.6,42.6-42.6c23.6,0,42.6,19,42.6,42.6C469.6,450.8,450.6,469.9,427.2,469.9L427.2,469.9z"/>
	</g>
</g>
</svg>
