<svg height="456pt" viewBox="0 -37 456.55843 456" width="456pt" xmlns="http://www.w3.org/2000/svg"><path d="m81.300781 135.671875h1.34375c.992188-2.3125 1.992188-4.511719 3.035157-6.550781 3.714843-7.4375 8.277343-14.417969 13.597656-20.800782l-14.398438-14.402343h-36.710937v-15.984375h20.6875l-26.34375-26.34375 11.3125-11.3125 26.34375 26.347656v-20.691406h16v36.691406l14.207031 14.207031c8.226562-7.339843 17.550781-13.351562 27.632812-17.816406-12.398437-29.808594-41.558593-49.191406-73.839843-49.082031h-32v32c-.128907 32.28125 19.292969 61.429687 49.132812 73.738281zm0 0"/><path d="m99.964844 136.335938c-.191406.382812-.375.800781-.574219 1.214843 20.253906 4.746094 40.289063 18.402344 59.128906 40.746094 22.082031 26.621094 38.082031 57.746094 46.878907 91.199219 2.824218 11.902344 3.488281 24.21875 1.96875 36.359375l148.046874-30.214844c15.078126-3.101563 30.769532-.195313 43.738282 8.101563l7.695312-17.160157c11.351563-25.289062 17.253906-52.683593 17.320313-80.40625-.015625-17.304687-4.050781-34.367187-11.792969-49.839843-7.527344-15.15625-19.148438-27.90625-33.542969-36.800782-32.773437-20.207031-74.703125-17.671875-104.800781 6.335938l-9.863281 7.902344v-11.269532c-.09375-34.117187 13.464843-66.855468 37.65625-90.914062l-11.3125-11.3125c-27.203125 27.054687-42.449219 63.863281-42.34375 102.226562v11.269532l-9.882813-7.917969c-16.152344-12.871094-36.1875-19.890625-56.839844-19.921875-34.554687-.140625-66.175781 19.417968-81.480468 50.402344zm0 0"/><path d="m251.566406 61.367188c-3.902344-28.53125-26.335937-50.964844-54.863281-54.863282 3.902344 28.527344 26.335937 50.960938 54.863281 54.863282zm0 0"/><path d="m91.367188 238.6875c-30.082032 7.066406-48.753907 37.160156-41.730469 67.246094 2.578125 11.078125 8.53125 21.078125 17.042969 28.617187l88.335937-18.023437c8.953125-19.425782 6.042969-42.253906-7.496094-58.8125-13.539062-16.558594-35.335937-23.945313-56.152343-19.027344zm0 0"/><path d="m30.941406 341.863281 17.226563-3.511719c-18.609375-23.046874-21.199219-55.136718-6.535157-80.875 14.664063-25.734374 43.59375-39.863281 72.90625-35.605468 29.3125 4.257812 53.027344 26.035156 59.761719 54.878906 2.730469 11.902344 2.414063 24.300781-.917969 36.050781l17.136719-3.496093c2.328125-11.972657 2.097657-24.300782-.671875-36.175782-8.175781-31.027344-23.039062-59.886718-43.554687-84.554687-17.101563-20.238281-44-42.847657-74.941407-35.566407-30.945312 7.28125-45.050781 39.421876-51.402343 65.152344-7.445313 31.199219-7.960938 63.652344-1.511719 95.070313 2.40625 10.222656 6.640625 19.921875 12.503906 28.632812zm0 0"/><path d="m456.558594 325.765625-3.296875-15.664063-18.398438 3.882813 10.65625-15.527344-13.199219-9.042969-21.953124 32c-.414063.632813-.734376 1.324219-.945313 2.050782-4.671875-19.425782-22.078125-33.09375-42.054687-33.035156-2.9375 0-5.867188.296874-8.746094.882812l-.796875.167969c1.121093 9.691406.445312 19.503906-1.992188 28.949219l-.800781 3.058593-15.472656-4.058593.800781-3.046876c1.832031-7.074218 2.425781-14.417968 1.757813-21.695312l-46.007813 9.382812c1.53125 12.105469.214844 24.402344-3.839844 35.914063l-15.070312-5.378906c3.097656-8.753907 4.210937-18.09375 3.253906-27.335938l-39.046875 8c.75 10.722657-.699219 21.484375-4.253906 31.625l-15.074219-5.375c2.613281-7.386719 3.816406-15.199219 3.550781-23.03125l-39.125 8c.132813 9.296875-1.378906 18.542969-4.472656 27.3125l-15.082031-5.464843c2.109375-6 3.289062-12.285157 3.496093-18.640626l-39.109374 8c-.308594 7.824219-1.808594 15.558594-4.441407 22.9375l-15.0625-5.394531c1.625-4.589843 2.699219-9.359375 3.199219-14.207031l-107.167969 21.863281c-4.914062.90625-8.3125 5.425781-7.816406 10.398438.496094 4.96875 4.722656 8.730469 9.71875 8.640625h353.066406c11.546875.035156 22.625-4.554688 30.765625-12.742188l4.488282-4.496094c8.1875-8.140624 12.777343-19.214843 12.746093-30.761718 0-1.183594-.242187-2.308594-.335937-3.46875.183594.328125.390625.644531.621094.941406l29.953124 32 11.679688-10.941406-20.246094-21.601563zm0 0"/></svg>