<svg height="512" viewBox="0 0 56 38" width="512" xmlns="http://www.w3.org/2000/svg"><g id="Page-1" fill="none" fill-rule="evenodd"><g id="041---Weight-Training" fill="rgb(0,0,0)" fill-rule="nonzero"><path id="Shape" d="m32.517 1.678c.8231597.00605418 1.4863282.67682476 1.483 1.5l.0000125 2.112-.4730125-.477c-.5722794-.56717384-1.3452769-.88557261-2.151-.886h-.01c-.1226635.0038672-.2449337.01589377-.366.036v-.785c-.0000257-.40078777.160341-.78491772.4453331-1.06671612.2849921-.28179839.6709049-.43782614 1.0716669-.43328388zm-6.517-.178c0-.82842712.6715729-1.5 1.5-1.5s1.5.67157288 1.5 1.5v3.7c-1.0680159 1.64157528-1.0680159 3.75842472 0 5.4v.605c-.2259891.6338058-.8271136 1.056196-1.5 1.054-.3959195.0040002-.7770426-.1502749-1.0586991-.4285515-.2816565-.2782767-.4405212-.6575095-.4413009-1.0534485zm-5 .824c0-.82842712.6715729-1.5 1.5-1.5s1.5.67157288 1.5 1.5v8.451c-.0005508.8200766-.664924 1.4848972-1.485 1.486h-.03c-.820076-.0011028-1.4844492-.6659234-1.485-1.486zm-5 1.676c0-.82842712.6715729-1.5 1.5-1.5s1.5.67157288 1.5 1.5v8.441c0 .8284271-.6715729 1.5-1.5 1.5s-1.5-.6715729-1.5-1.5zm-13.96 21c-1.1045695 0-2-.8954305-2-2v-15c0-1.1045695.8954305-2 2-2s2 .8954305 2 2v15c0 1.1045695-.8954305 2-2 2zm8 4c0 1.1045695-.8954305 2-2 2s-2-.8954305-2-2v-27c0-1.1045695.8954305-2 2-2s2 .8954305 2 2zm2-16h2.017c.2748402 1.6894875 1.7313129 2.9323329 3.443 2.938 1.4169635-.0013033 2.6933397-.8568267 3.233-2.167.5292727.3171495 1.1339909.4863739 1.751.49h.03c.93625.0000291 1.8327835-.3782748 2.486-1.049.011.012.019.026.031.038.6565015.6508777 1.5445415 1.0145101 2.469 1.011 1.308304-.0029539 2.5120182-.7154577 3.144-1.861.1.1.211.212.307.31l1.188 1.2c-1.7938366.8654751-3.3379484 2.1731695-4.487 3.8-.07.1-.125.2-.191.3h-15.421zm20.387 14.738c-.2811454.4614065-.4289464.9916899-.427 1.532v6.73c0 1.1045695-.8954305 2-2 2h-8c-1.1045695 0-2-.8954305-2-2v-6.63c-.0277126-.901063-.3046296-1.776813-.8-2.53l-1.17-2.018c-.732998-1.2717533-1.0901589-2.7253632-1.03-4.192v-.63h9.4c-.132.31-.265.621-.377.947-.1781118.5230137.1014864 1.0913881.6245 1.2695.5230137.1781118 1.0913882-.1014864 1.2695-.6245.2472347-.7318637.5706767-1.4357271.965-2.1.1200203-.2159191.2536221-.4240039.4-.623 1.1945315-1.7018071 2.9085267-2.9705495 4.885-3.616.3481021-.0872646.6227517-.3543699.7196756-.6999071.096924-.3455371.0012588-.7165166-.2506756-.9720929 0 0-.751-.762-2.257-2.277-.423-.433-.911-.92-1.462-1.473l-.079-.08c-.0296867-.04445748-.0631434-.08627837-.1-.125-.7457473-1.03753304-.7311677-2.43920372.036-3.461.153086-.16662899.3744689-.25333727.6-.235.2743168-.00048352.5377372.10732839.733.3l7.293 7.343c.5075609.5045675.5984602 1.2931916.219 1.9zm8.028-9.738.881-1.5c.64407-1.0697251.6771268-2.3995963.087-3.5h2.577v5zm9.545 11c0 1.1045695-.8954305 2-2 2s-2-.8954305-2-2v-27c0-1.1045695.8954305-2 2-2s2 .8954305 2 2zm6-6c0 1.1045695-.8954305 2-2 2s-2-.8954305-2-2v-15c0-1.1045695.8954305-2 2-2s2 .8954305 2 2z"/></g></g></svg>