<?xml version="1.0" encoding="iso-8859-1"?>
<!-- Generator: Adobe Illustrator 19.0.0, SVG Export Plug-In . SVG Version: 6.00 Build 0)  -->
<svg version="1.1" id="Capa_1" xmlns="http://www.w3.org/2000/svg" xmlns:xlink="http://www.w3.org/1999/xlink" x="0px" y="0px"
	 viewBox="0 0 512 512" style="enable-background:new 0 0 512 512;" xml:space="preserve">
<g>
	<g>
		<path d="M330.978,76.797c0.014-0.581,0.087-1.147,0.087-1.731C331.065,33.608,297.458,0,256,0s-75.066,33.608-75.066,75.066
			c0,0.584,0.074,1.15,0.088,1.731c-33.799,7.31-59.136,37.347-59.136,73.334c0,18.106,6.412,34.713,17.086,47.679v50.431
			c0,17.256,13.989,31.245,31.245,31.245s31.245-13.989,31.245-31.245v-23.044h113.587c41.457,0,75.066-33.608,75.066-75.066
			C390.114,114.145,364.777,84.107,330.978,76.797z"/>
	</g>
</g>
<g>
	<g>
		<path d="M315.049,255.198H231.07c-2.839,25.002-20.798,45.476-44.48,52.055L256,512l88.482-261.005
			C335.138,253.726,325.263,255.198,315.049,255.198z"/>
	</g>
</g>
<g>
</g>
<g>
</g>
<g>
</g>
<g>
</g>
<g>
</g>
<g>
</g>
<g>
</g>
<g>
</g>
<g>
</g>
<g>
</g>
<g>
</g>
<g>
</g>
<g>
</g>
<g>
</g>
<g>
</g>
</svg>
