<svg xmlns="http://www.w3.org/2000/svg" viewBox="0 0 8844.62 10349.04"><defs><style>.cls-1{fill:#ec7d30;}.cls-2{fill:#d3302e;}.cls-3{fill:#e84335;}.cls-4{fill:#2e9a37;}.cls-5{fill:#134d9d;}.cls-6{fill:#efd00c;}.cls-7{fill:#858d92;}.cls-8{fill:#5c8cc9;}.cls-9{fill:#fff;}.cls-10{fill:#010101;}.cls-11{fill:#11999e;}</style></defs><g id="Capa_2" data-name="Capa 2"><g id="Capa_1-2" data-name="Capa 1"><path class="cls-1" d="M813.78,325.83C806.47,187,707.8,61.24,575.46,19.42c-139.94-44.23-299,13.46-381.21,134.34-84.53,124.35-71.1,290.92,2.11,417.07C236.46,639.91,294.64,699,364.25,738.4A581.59,581.59,0,0,0,420.54,766c18.81,8.11,39,18.78,60.11,16.81,20.19-1.88,40.79-12.94,59.07-21.17a495.28,495.28,0,0,0,50.57-26C711.73,663.26,796,533.94,811.49,393.28A425.71,425.71,0,0,0,813.78,325.83ZM305.51,187.1C378.06,104.18,508.71,89,600,149.43c89.54,59.25,124.19,178.81,81.69,277.1A229.3,229.3,0,0,1,583.27,535.2a224.58,224.58,0,0,1-68.11,24.56,203.45,203.45,0,0,1-42.22,3.6c-11.8-.3-34.52-7.5-45,.28-9,6.72-3.47,18.14-1.28,26.71,3.26,12.7,4.06,26.41-.25,38.95-7.31,21.24-30.78,37.28-53.3,37-40-.53-61-50.65-73.74-81.53C248.76,462.19,212.9,298.72,305.51,187.1Z"/><path class="cls-2" d="M742.27,215.7c-58.62.07-106.42-47.63-106.56-106.33S683.62,2.5,742.37,2.68,848.75,50.61,848.7,109.24A106.64,106.64,0,0,1,742.27,215.7Z"/><path class="cls-1" d="M1605.29,326.79C1598,187.94,1499.31,62.2,1367,20.38c-139.94-44.23-299,13.46-381.21,134.34-84.53,124.35-71.1,290.92,2.11,417.07,40.1,69.08,98.28,128.14,167.89,167.57a579.45,579.45,0,0,0,56.3,27.59c18.8,8.11,39,18.79,60.1,16.82,20.19-1.89,40.79-12.95,59.07-21.18a495.28,495.28,0,0,0,50.57-26c121.44-72.35,205.66-201.67,221.2-342.33A424.65,424.65,0,0,0,1605.29,326.79ZM1097,188.06c72.55-82.92,203.2-98.11,294.52-37.67,89.54,59.25,124.19,178.81,81.69,277.1a229.25,229.25,0,0,1-98.45,108.67,224.58,224.58,0,0,1-68.11,24.56,203.45,203.45,0,0,1-42.22,3.6c-11.8-.3-34.52-7.49-45,.29-9,6.71-3.47,18.13-1.28,26.7,3.26,12.7,4.06,26.41-.25,39-7.31,21.23-30.78,37.27-53.3,37-40-.53-61-50.64-73.74-81.53C1040.27,463.15,1004.41,299.68,1097,188.06Z"/><path class="cls-1" d="M2402.83,352c-7.32-138.85-106-264.6-238.32-306.42C2024.57,1.32,1865.47,59,1783.3,179.88c-84.53,124.35-71.11,290.92,2.11,417.07,40.09,69.08,98.28,128.15,167.88,167.57a577.16,577.16,0,0,0,56.3,27.59c18.81,8.11,39,18.79,60.1,16.82,20.19-1.89,40.8-12.95,59.08-21.18a495.34,495.34,0,0,0,50.57-26c121.43-72.35,205.66-201.67,221.2-342.33A426.94,426.94,0,0,0,2402.83,352ZM1894.55,213.22c72.55-82.92,203.21-98.1,294.53-37.67,89.53,59.26,124.18,178.81,81.68,277.1a229.27,229.27,0,0,1-98.45,108.68,225,225,0,0,1-68.1,24.56,204.13,204.13,0,0,1-42.22,3.59c-11.81-.3-34.53-7.49-45,.29-9,6.71-3.47,18.13-1.27,26.71,3.25,12.69,4.06,26.4-.26,38.95-7.3,21.23-30.77,37.27-53.29,37-40-.53-61-50.64-73.75-81.53C1837.8,488.31,1801.94,324.84,1894.55,213.22Z"/><path class="cls-2" d="M2331.32,241.83c-58.62.07-106.43-47.63-106.57-106.33s47.92-106.87,106.67-106.7,106.38,47.93,106.32,106.56A106.64,106.64,0,0,1,2331.32,241.83Z"/><path class="cls-1" d="M3154,321.23c-7.32-138.85-106-264.59-238.32-306.41-139.94-44.23-299,13.46-381.21,134.34-84.53,124.35-71.11,290.92,2.11,417.07,40.09,69.08,98.28,128.14,167.88,167.57a581.76,581.76,0,0,0,56.3,27.59c18.81,8.11,39,18.78,60.1,16.81,20.19-1.88,40.8-12.94,59.08-21.17a496.32,496.32,0,0,0,50.57-26c121.44-72.36,205.66-201.67,221.2-342.34A426.9,426.9,0,0,0,3154,321.23ZM2645.69,182.5c72.54-82.92,203.2-98.11,294.52-37.67,89.53,59.25,124.18,178.81,81.68,277.1a229.33,229.33,0,0,1-98.44,108.67,224.58,224.58,0,0,1-68.11,24.56,203.45,203.45,0,0,1-42.22,3.6c-11.8-.3-34.53-7.5-45,.28-9,6.72-3.47,18.14-1.27,26.71,3.25,12.7,4.06,26.41-.26,39-7.3,21.24-30.77,37.28-53.29,37-40-.53-61-50.65-73.75-81.53C2588.94,457.59,2553.07,294.12,2645.69,182.5Z"/><path class="cls-1" d="M2990.7,385.7a344.18,344.18,0,0,0-226.59-226.56c-16.59-5-33.53,4.75-38.43,20.71a30.75,30.75,0,0,0,19.16,38.82,10.58,10.58,0,0,0,1.18.45,282.46,282.46,0,0,1,184.71,184.71c.12.38.27.77.43,1.15a30.77,30.77,0,0,0,38.61,19.26C2986.93,419.06,2995.73,400.63,2990.7,385.7Z"/><path class="cls-1" d="M2726.3,284.84a30.81,30.81,0,0,0-10.88-2.47L2695.91,339a31.21,31.21,0,1,0,30.39-54.19Z"/><path class="cls-1" d="M2783.47,445.67a31.3,31.3,0,1,0-49.7,36.47c.47.44,1,.76,1.5,1.17l50.62-17.43A31.27,31.27,0,0,0,2783.47,445.67Z"/><path class="cls-1" d="M2838.86,365.65a10.43,10.43,0,1,0,10.43,10.43A10.44,10.44,0,0,0,2838.86,365.65Z"/><path class="cls-1" d="M2913.9,411.66c-28.56-90.65-89-141.34-175.08-173.94a41.75,41.75,0,0,1-6.94-3.17l-9.52,27.66A52,52,0,1,1,2689,359l-50,141a10.42,10.42,0,0,0,13.25,13.25l61.46-22.51a51.45,51.45,0,0,1-10.53-31.17,52.16,52.16,0,0,1,98.92-23.12c3.47,7,4.69,14.57,4.8,22.21l110.87-38.17A51.9,51.9,0,0,1,2913.9,411.66Zm-130.25-28.21a10.43,10.43,0,1,1,0-14.75A10.42,10.42,0,0,1,2783.65,383.45Zm6.11-83.45a10.43,10.43,0,0,1,14.75-14.75l20.86,20.86a10.43,10.43,0,0,1-14.75,14.75Zm49.1,107.37a31.3,31.3,0,1,1,31.3-31.29A31.33,31.33,0,0,1,2838.86,407.37Z"/><path class="cls-3" d="M400.81,8137H299.66a9.45,9.45,0,0,1-9.45-9.45v-91.71H198.5a9.44,9.44,0,0,1-9.44-9.44V7925.25a9.45,9.45,0,0,1,9.44-9.45h91.71v-91.7a9.45,9.45,0,0,1,9.45-9.45H400.81a9.45,9.45,0,0,1,9.44,9.45v91.7H502a9.45,9.45,0,0,1,9.44,9.45V8026.4a9.44,9.44,0,0,1-9.44,9.44H410.25v91.71A9.45,9.45,0,0,1,400.81,8137Z"/><path class="cls-4" d="M465.28,4341.21c-6.2,0-10.85,1.55-15.49,1.55l-44.91-44.91,37.17-37.17,48-17,35.63-57.31c1.54-3.09,1.54-7.74,0-9.29l-18.59-18.58a9.53,9.53,0,0,0-10.84-1.55L437.4,4191l-18.59,49.56-37.16,37.17-41.82-44.92c0-4.64,1.55-9.29,1.55-15.48,0-40.27-38.72-69.69-77.44-60.4l23.23,23.23c12.39,12.39,12.39,31,0,43.36s-31,12.39-43.36,0L219,4201.83c-12.39,44.91,29.43,88.28,75.89,74.34l44.91,44.91-18.58,18.58a29.5,29.5,0,0,0-29.43,7.75l-63.5,63.5c-12.39,12.38-13.93,31-3.09,43.36,12.39,13.94,32.52,13.94,44.91,1.55l65-65c7.75-7.74,10.85-20.13,7.75-29.42l18.58-18.59,44.91,44.91c-1.54,4.65-1.54,10.85-1.54,15.49,0,40.27,38.71,69.69,77.43,60.4l-23.23-23.23c-12.39-12.39-12.39-31,0-43.36s31-12.39,43.36,0l23.23,23.23C536.52,4379.93,505.54,4341.21,465.28,4341.21Z"/><path class="cls-4" d="M724.83,4289.74c-7.31-138.85-106-264.59-238.32-306.41-139.94-44.23-299,13.46-381.21,134.34-84.53,124.35-71.1,290.92,2.11,417.07,40.1,69.08,98.28,128.14,167.89,167.57a579.45,579.45,0,0,0,56.3,27.59c18.8,8.11,39,18.78,60.1,16.82,20.19-1.89,40.79-12.95,59.08-21.18a496.16,496.16,0,0,0,50.56-26c121.44-72.36,205.67-201.67,221.2-342.34A424.53,424.53,0,0,0,724.83,4289.74ZM216.56,4151c72.55-82.92,203.2-98.11,294.52-37.67,89.54,59.25,124.19,178.81,81.69,277.1a229.3,229.3,0,0,1-98.45,108.67,224.58,224.58,0,0,1-68.11,24.56,203.45,203.45,0,0,1-42.22,3.6c-11.8-.3-34.52-7.5-45,.28-9,6.72-3.47,18.14-1.28,26.71,3.26,12.7,4.06,26.41-.25,38.95-7.31,21.24-30.78,37.28-53.3,37-40-.53-61-50.65-73.74-81.53C159.81,4426.1,124,4262.63,216.56,4151Z"/><path class="cls-1" d="M2239.57,415.55A344.18,344.18,0,0,0,2013,189c-16.59-5.05-33.54,4.75-38.43,20.71a30.75,30.75,0,0,0,19.16,38.82,10.58,10.58,0,0,0,1.18.45A282.46,282.46,0,0,1,2179.6,433.68c.12.38.27.77.43,1.15a30.77,30.77,0,0,0,38.61,19.26C2235.79,448.91,2244.6,430.48,2239.57,415.55Z"/><path class="cls-1" d="M1975.17,314.69a30.86,30.86,0,0,0-10.88-2.47l-19.51,56.66a31.21,31.21,0,1,0,30.39-54.19Z"/><path class="cls-1" d="M2032.34,475.52a31.3,31.3,0,1,0-49.7,36.47c.46.44,1,.76,1.5,1.17l50.62-17.43A31.27,31.27,0,0,0,2032.34,475.52Z"/><path class="cls-1" d="M2087.73,395.5a10.43,10.43,0,1,0,10.43,10.43A10.44,10.44,0,0,0,2087.73,395.5Z"/><path class="cls-1" d="M2162.77,441.51c-28.56-90.65-89-141.34-175.08-173.94a41.38,41.38,0,0,1-6.94-3.17l-9.52,27.66a52,52,0,1,1-33.32,96.78l-50,141a10.42,10.42,0,0,0,13.25,13.25l61.46-22.51a51.45,51.45,0,0,1-10.53-31.17A52.16,52.16,0,0,1,2051,466.26c3.47,7,4.69,14.57,4.8,22.21l110.87-38.17A51.9,51.9,0,0,1,2162.77,441.51ZM2032.52,413.3a10.43,10.43,0,1,1,0-14.75A10.43,10.43,0,0,1,2032.52,413.3Zm6.11-83.45a10.43,10.43,0,0,1,14.75-14.75L2074.24,336a10.43,10.43,0,0,1-14.75,14.75Zm49.1,107.37a31.3,31.3,0,1,1,31.3-31.29A31.32,31.32,0,0,1,2087.73,437.22Z"/><path class="cls-5" d="M714.37,6954.62c-7.31-138.85-106-264.6-238.31-306.42C336.11,6604,177,6661.66,94.85,6782.54,10.32,6906.9,23.74,7073.47,97,7199.62c40.09,69.08,98.28,128.14,167.88,167.56a579.53,579.53,0,0,0,56.3,27.6c18.8,8.1,39,18.78,60.1,16.81,20.19-1.88,40.79-12.94,59.08-21.17a497.36,497.36,0,0,0,50.57-26c121.43-72.36,205.66-201.68,221.2-342.34A425.71,425.71,0,0,0,714.37,6954.62ZM206.1,6815.89c72.55-82.92,203.21-98.11,294.52-37.68,89.54,59.26,124.19,178.82,81.69,277.11A229.3,229.3,0,0,1,483.86,7164a224.79,224.79,0,0,1-68.1,24.56,203.45,203.45,0,0,1-42.22,3.6c-11.81-.3-34.53-7.5-45,.28-9,6.71-3.47,18.14-1.27,26.71,3.25,12.7,4.06,26.4-.26,38.95-7.3,21.24-30.78,37.28-53.29,37-40-.53-61-50.65-73.75-81.53C149.35,7091,113.49,6927.51,206.1,6815.89Z"/><path class="cls-1" d="M4013.36,352c-7.31-138.85-106-264.6-238.31-306.42C3635.1,1.32,3476,59,3393.83,179.88,3309.31,304.23,3322.73,470.8,3396,597,3436,666,3494.22,725.1,3563.83,764.52a577.16,577.16,0,0,0,56.3,27.59c18.8,8.11,39,18.79,60.1,16.82,20.19-1.89,40.79-12.95,59.08-21.18a494.15,494.15,0,0,0,50.56-26c121.44-72.35,205.67-201.67,221.2-342.33A424.57,424.57,0,0,0,4013.36,352ZM3505.09,213.22c72.55-82.92,203.2-98.1,294.52-37.67,89.54,59.26,124.19,178.81,81.69,277.1a229.27,229.27,0,0,1-98.45,108.68,225.11,225.11,0,0,1-68.11,24.56,204.07,204.07,0,0,1-42.22,3.59c-11.8-.3-34.52-7.49-45,.29-9,6.71-3.47,18.13-1.27,26.71,3.25,12.69,4.06,26.4-.26,38.95-7.31,21.23-30.78,37.27-53.29,37-40-.53-61-50.64-73.75-81.53C3448.34,488.31,3412.48,324.84,3505.09,213.22Z"/><path class="cls-5" d="M355.46,6819.71a10,10,0,0,0-16.42,2.71l-90.23,195.92a49.31,49.31,0,0,0-12.58-1.8,50,50,0,1,0,50,50,49.43,49.43,0,0,0-5.72-22.73L362,6864.92A40,40,0,0,0,355.46,6819.71ZM236.23,7096.54a30,30,0,1,1,30-30A30,30,0,0,1,236.23,7096.54Z"/><path class="cls-5" d="M356.23,7016.54a49.38,49.38,0,0,0-12.58,1.8l-14.87-32.28-21.56,47.35,4.73,10.4a49.43,49.43,0,0,0-5.72,22.73,50,50,0,1,0,50-50Zm0,80a30,30,0,1,1,30-30A30,30,0,0,1,356.23,7096.54Z"/><path class="cls-5" d="M497.56,6816.54H436.23a10,10,0,0,0,0,20h31.34v20H436.23a10,10,0,0,0,0,20h31.34v20H436.23a10,10,0,0,0,0,20h31.34v20H436.23a10,10,0,0,0,0,20h31.34v20H436.23a10,10,0,0,0,0,20h31.34v20H436.23a10,10,0,0,0,0,20h31.34v20H436.23a10,10,0,0,0,0,20h31.34v20H436.23a10,10,0,0,0,0,20h61.33a30,30,0,0,0,30-30v-240A30,30,0,0,0,497.56,6816.54Z"/><path class="cls-5" d="M253.42,6822.42a10,10,0,0,0-16.41-2.71,40,40,0,0,0-6.53,45.21l33.3,73.12,21.44-46.57Z"/><path class="cls-1" d="M3603.9,419.76a29.1,29.1,0,0,1-14.66-25.24A80.87,80.87,0,0,1,3670,313.74h33.29l1.56-25.85H3516.26l13.55,223.54a9.68,9.68,0,0,0,9.67,9.1H3599a48.18,48.18,0,0,1-9.72-29.08,29.13,29.13,0,0,1,19.21-27.35,38.64,38.64,0,0,1,0-42.25C3605.3,421.14,3603.54,420.44,3603.9,419.76Z"/><path class="cls-1" d="M3610.56,268.51h96.94a9.7,9.7,0,0,0,0-19.39h-79l26.13-40.07h33.52a9.69,9.69,0,1,0,0-19.38h-38.77a9.69,9.69,0,0,0-8.12,4.39l-35.9,55.06h-91.69a9.7,9.7,0,0,0,0,19.39h96.93Z"/><path class="cls-1" d="M3608.63,394.52a9.69,9.69,0,0,0,9.69,9.69h206.79a9.69,9.69,0,0,0,9.7-9.69,61.46,61.46,0,0,0-61.4-61.39H3670A61.46,61.46,0,0,0,3608.63,394.52Z"/><path class="cls-1" d="M3640.94,423.6a19.39,19.39,0,1,0,0,38.77H3802.5a19.39,19.39,0,0,0,0-38.77Z"/><path class="cls-1" d="M3825.11,481.76H3618.32a9.69,9.69,0,0,0-9.69,9.69,29.11,29.11,0,0,0,29.08,29.08h168a29.11,29.11,0,0,0,29.08-29.08A9.69,9.69,0,0,0,3825.11,481.76Z"/><path class="cls-3" d="M694.89,7971c-7.32-138.85-106-264.6-238.32-306.42-139.94-44.22-299,13.46-381.21,134.34C-9.17,7923.25,4.25,8089.82,77.47,8216c40.09,69.07,98.28,128.14,167.88,167.56a579.53,579.53,0,0,0,56.3,27.6c18.81,8.1,39,18.78,60.1,16.81,20.2-1.89,40.8-13,59.08-21.17a496.32,496.32,0,0,0,50.57-26c121.44-72.36,205.66-201.68,221.2-342.34A425.75,425.75,0,0,0,694.89,7971ZM186.62,7832.24c72.54-82.92,203.2-98.1,294.52-37.67,89.53,59.26,124.18,178.81,81.68,277.1a229.3,229.3,0,0,1-98.44,108.68,225.11,225.11,0,0,1-68.11,24.56,204.14,204.14,0,0,1-42.22,3.6c-11.8-.3-34.53-7.5-45,.28-9,6.71-3.47,18.14-1.27,26.71,3.25,12.69,4.06,26.4-.26,39-7.3,21.24-30.77,37.27-53.29,37-40-.52-61-50.64-73.75-81.53C129.87,8107.33,94,7943.87,186.62,7832.24Z"/><path class="cls-3" d="M1471.89,7979.27c-7.31-138.85-106-264.6-238.31-306.42-139.95-44.22-299,13.46-381.22,134.34-84.52,124.36-71.1,290.92,2.12,417.08,40.09,69.08,98.27,128.14,167.88,167.56a579.53,579.53,0,0,0,56.3,27.6c18.8,8.1,39,18.78,60.1,16.81,20.19-1.89,40.79-12.95,59.08-21.17a496.16,496.16,0,0,0,50.56-26c121.44-72.36,205.67-201.68,221.2-342.34A424.53,424.53,0,0,0,1471.89,7979.27ZM963.62,7840.53c72.55-82.91,203.2-98.1,294.52-37.67,89.54,59.26,124.19,178.82,81.69,277.1a229.27,229.27,0,0,1-98.45,108.68,224.85,224.85,0,0,1-68.11,24.56,204.08,204.08,0,0,1-42.22,3.6c-11.8-.3-34.52-7.5-45,.28-9,6.71-3.47,18.14-1.27,26.71,3.25,12.69,4.06,26.4-.26,38.95-7.31,21.24-30.78,37.27-53.29,37-40-.53-61-50.65-73.75-81.54C906.87,8115.62,871,7952.16,963.62,7840.53Z"/><path class="cls-4" d="M1598.32,4333.51c-7.31-138.85-106-264.6-238.31-306.42-140-44.22-299,13.46-381.21,134.34-84.53,124.35-71.11,290.92,2.11,417.08,40.09,69.08,98.28,128.14,167.88,167.56a579.53,579.53,0,0,0,56.3,27.6c18.8,8.1,39,18.78,60.1,16.81,20.19-1.89,40.79-12.95,59.08-21.17a497.36,497.36,0,0,0,50.57-26c121.43-72.36,205.66-201.68,221.2-342.34A425.75,425.75,0,0,0,1598.32,4333.51Zm-508.27-138.74c72.55-82.92,203.21-98.1,294.52-37.67,89.54,59.26,124.19,178.81,81.69,277.1a229.27,229.27,0,0,1-98.45,108.68,225,225,0,0,1-68.1,24.56,204.14,204.14,0,0,1-42.22,3.6c-11.81-.3-34.53-7.5-45,.28-9,6.71-3.47,18.14-1.27,26.71,3.25,12.69,4.06,26.4-.26,38.95-7.3,21.24-30.78,37.27-53.29,37-40-.53-61-50.65-73.75-81.54C1033.3,4469.86,997.44,4306.4,1090.05,4194.77Z"/><path class="cls-6" d="M713.22,9891.83c-7.31-138.85-106-264.59-238.32-306.41-139.94-44.23-299,13.46-381.21,134.34-84.53,124.35-71.1,290.92,2.11,417.07,40.1,69.08,98.28,128.14,167.89,167.57A577,577,0,0,0,320,10332c18.81,8.11,39,18.79,60.11,16.82,20.19-1.89,40.79-12.95,59.07-21.18a493.27,493.27,0,0,0,50.57-26c121.44-72.35,205.66-201.67,221.2-342.33A425.84,425.84,0,0,0,713.22,9891.83ZM205,9753.1c72.55-82.92,203.2-98.11,294.52-37.67,89.54,59.26,124.19,178.81,81.69,277.1a229.32,229.32,0,0,1-98.45,108.68,224.82,224.82,0,0,1-68.11,24.55,203.45,203.45,0,0,1-42.22,3.6c-11.8-.3-34.52-7.49-45,.29-9,6.71-3.47,18.13-1.28,26.7,3.26,12.7,4.06,26.41-.25,39-7.31,21.23-30.78,37.27-53.3,37-40-.53-61-50.64-73.74-81.53C148.2,10028.19,112.34,9864.72,205,9753.1Z"/><path class="cls-4" d="M1320,4175.43H1160.66a24.22,24.22,0,0,0-24.14,24.15v309.17a24.25,24.25,0,0,0,24.14,24.14H1320a24.25,24.25,0,0,0,24.14-24.14V4199.58A24.22,24.22,0,0,0,1320,4175.43Zm-105.18,17.4h51a2.92,2.92,0,0,1,0,5.84h-51a2.92,2.92,0,1,1,0-5.84Zm-61.52,295.38v-274.5h174l0,249.77-39.27-68a58.28,58.28,0,0,0-52.24-90.51l21.79,37.74a26.27,26.27,0,1,1-45.49,26.28l-21.79-37.76a58.29,58.29,0,0,0,52.23,90.51l38.38,66.49Zm87,32.64a12.09,12.09,0,1,1,12.08-12.1A12.09,12.09,0,0,1,1240.33,4520.85Z"/><path class="cls-1" d="M612.05,444.49,495.47,327.91,359.28,191.71q-2.88-2.93-5.74-5.87l-7.08,11.4c-5.74,14.57-8.19,29.48-7.09,43.11,1.26,15.53,7.16,29,17.07,38.89L462.76,385.57l14-14,98.29,109.92a26.14,26.14,0,1,0,37-37Z"/><path class="cls-1" d="M413.49,360.94l-83.27,83.27a26.14,26.14,0,0,0,37,37l83.27-83.27Z"/><path class="cls-1" d="M607.15,241.21l-47.23,47.24-12.33-12.32,47.24-47.24-12.32-12.32L535.27,263.8,523,251.48l47.24-47.24-12.33-12.32-61.61,61.62a43.41,43.41,0,0,0-12.67,28.18,24.88,24.88,0,0,1-1.79,7.86l40,40a24.88,24.88,0,0,1,7.86-1.79,43.41,43.41,0,0,0,28.18-12.67l61.62-61.61Z"/><path class="cls-3" d="M1021.31,7962.9h38.38v-48h48v-38.38h-48v-48.62h-38.38v48.62h-48v38.38h48Z"/><path class="cls-3" d="M1204.91,7962.9a19.19,19.19,0,0,0,19.19-19.19v-38.39h-38.38v38.39A19.19,19.19,0,0,0,1204.91,7962.9Z"/><path class="cls-3" d="M1243.29,7943.71a38.22,38.22,0,0,1-67.17,25.12,38.13,38.13,0,0,1-28.78,13.26h-126a48,48,0,0,0-48,48v67.17h19.19v-67.17a28.83,28.83,0,0,1,28.79-28.79h9.6v38.38h-19.19v115.79h57.57v-19.19H1050.1v-58.21h9.59a28.78,28.78,0,0,0,24.86-14.48l2.76-4.71h98.41v96.59h57.57v-19.19H1224.1V8059c1.21-1.93,19.19-17.66,19.19-46.48v-11.25a19.21,19.21,0,0,1,19.19-19.19h19.2a19.21,19.21,0,0,0,19.19-19.19v-57.58h-57.58Z"/><path class="cls-1" d="M1406.4,444.49,1289.82,327.91l-136.2-136.2-5.74-5.87-7.08,11.4c-5.73,14.57-8.18,29.48-7.08,43.11,1.25,15.53,7.15,29,17.06,38.89l106.33,106.33,14-14,98.3,109.92a26.14,26.14,0,0,0,37-37Z"/><path class="cls-1" d="M1207.84,360.94l-83.27,83.27a26.14,26.14,0,0,0,37,37l83.28-83.27Z"/><path class="cls-1" d="M1401.5,241.21l-47.24,47.24-12.32-12.32,47.24-47.24-12.32-12.32-47.24,47.23-12.32-12.32,47.23-47.24-12.32-12.32-61.61,61.62a43.47,43.47,0,0,0-12.68,28.18,25.15,25.15,0,0,1-1.78,7.86l40,40a24.88,24.88,0,0,1,7.87-1.79,43.44,43.44,0,0,0,28.18-12.67l61.61-61.61Z"/><path class="cls-1" d="M5380.44,242.11c0-12.78-6.35-25.39-17-32.48A11.2,11.2,0,1,0,5351,228.27a16.84,16.84,0,0,1,7,13.84,15.5,15.5,0,0,1-7,13.09,38.14,38.14,0,0,0,0,63.46A11.2,11.2,0,1,0,5363.46,300a15.74,15.74,0,0,1,0-26.18A38.07,38.07,0,0,0,5380.44,242.11Z"/><path class="cls-1" d="M5436.47,242.11c0-12.78-6.35-25.39-17-32.48a11.2,11.2,0,0,0-12.43,18.64,16.82,16.82,0,0,1,7,13.84,15.49,15.49,0,0,1-7,13.09,38.14,38.14,0,0,0,0,63.46A11.2,11.2,0,1,0,5419.48,300a15.74,15.74,0,0,1,0-26.18A38.05,38.05,0,0,0,5436.47,242.11Z"/><path class="cls-1" d="M5492.49,242.11c0-12.78-6.35-25.39-17-32.48a11.2,11.2,0,1,0-12.43,18.64,16.84,16.84,0,0,1,7,13.84,15.5,15.5,0,0,1-7,13.09,38.14,38.14,0,0,0,0,63.46A11.2,11.2,0,1,0,5475.51,300a15.74,15.74,0,0,1,0-26.18A38.07,38.07,0,0,0,5492.49,242.11Z"/><path class="cls-1" d="M5542.06,448.46,5511.67,494A11.2,11.2,0,1,1,5493,481.6l26.08-39.12c-11.4-2.54-23.48-4.67-36.1-6.3L5444.44,494a11.2,11.2,0,1,1-18.64-12.43l32-48c-12.86-1-26-1.6-39.13-1.74L5377.21,494a11.2,11.2,0,1,1-18.64-12.43l32.92-49.38c-14.41.53-28.65,1.61-42.43,3.2L5310,494a11.2,11.2,0,1,1-18.64-12.43l27.82-41.72c-55.35,10.23-97.68,30.1-97.68,59.14,0,44.14,96.57,68,191.23,68s191.23-23.84,191.23-68C5603.94,476.68,5578.59,459.75,5542.06,448.46Z"/><path class="cls-1" d="M5542.05,358.82l-30.38,45.57A11.2,11.2,0,1,1,5493,392l26.08-39.13c-11.41-2.53-23.47-4.66-36.09-6.29l-38.58,57.85A11.2,11.2,0,1,1,5425.8,392l32-48c-12.87-1-26-1.6-39.14-1.74l-41.44,62.15A11.2,11.2,0,1,1,5358.57,392l32.92-49.38c-14.42.53-28.64,1.61-42.43,3.2L5310,404.39A11.21,11.21,0,0,1,5291.34,392l27.82-41.72c-55.35,10.23-97.68,30.1-97.68,59.14,0,13,8,23.41,19.9,31.79,42.29-22.71,110.34-31.79,171.33-31.79s128.84,9.06,171.14,31.7c13.13-9.32,20.09-20,20.09-31.7C5603.94,387,5578.59,370.11,5542.05,358.82Z"/><path class="cls-1" d="M4670,248c0-.45.07-.89.07-1.34,0-32.14-25.37-58.2-56.67-58.2s-56.66,26.06-56.66,58.2c0,.45.06.89.07,1.34-25.52,5.67-44.64,28.95-44.64,56.85a58.91,58.91,0,0,0,12.9,37v39.1c0,13.38,10.55,24.22,23.58,24.22s23.59-10.84,23.59-24.22V363H4658c31.29,0,56.66-26.05,56.66-58.2C4714.66,276.91,4695.53,253.62,4670,248Z"/><path class="cls-1" d="M4658,386.26h-63.39A47.25,47.25,0,0,1,4561,426.62l52.39,158.74L4680.21,383A77,77,0,0,1,4658,386.26Z"/><g id="Page-1"><g id="_041---Weight-Training" data-name="041---Weight-Training"><path id="Shape" class="cls-6" d="M1273.46,9768.53a10,10,0,0,1,9.9,10v14.1l-3.16-3.18a20.39,20.39,0,0,0-14.36-5.92h-.07a20,20,0,0,0-2.44.24v-5.24a10,10,0,0,1,10.13-10Zm-43.52-1.19a10,10,0,0,1,20,0V9792a33,33,0,0,0,0,36.06v4a10.62,10.62,0,0,1-10,7,9.94,9.94,0,0,1-10-9.9Zm-33.38,5.5a10,10,0,1,1,20,0v56.43a9.93,9.93,0,0,1-9.92,9.92h-.2a9.93,9.93,0,0,1-9.91-9.92ZM1163.17,9784a10,10,0,1,1,20,0v56.36a10,10,0,1,1-20,0ZM1070,9924.25a13.36,13.36,0,0,1-13.35-13.36V9810.74a13.36,13.36,0,1,1,26.71,0v100.15A13.36,13.36,0,0,1,1070,9924.25Zm53.42,26.71a13.36,13.36,0,0,1-26.71,0V9770.68a13.36,13.36,0,1,1,26.71,0Zm13.35-106.84h13.47a23.31,23.31,0,0,0,44.58,5.15,22.93,22.93,0,0,0,11.69,3.27h.2a23.16,23.16,0,0,0,16.6-7c.07.08.12.17.2.25a23.27,23.27,0,0,0,16.49,6.75,24,24,0,0,0,21-12.42c.67.66,1.41,1.41,2,2.07l7.93,8a78.51,78.51,0,0,0-30,25.37c-.46.67-.83,1.34-1.27,2h-103Zm136.13,98.41a19.43,19.43,0,0,0-2.85,10.23v44.94a13.36,13.36,0,0,1-13.36,13.35h-53.41a13.36,13.36,0,0,1-13.36-13.35v-44.27a32.51,32.51,0,0,0-5.34-16.9l-7.81-13.47a51.77,51.77,0,0,1-6.88-28v-4.21h62.77c-.89,2.07-1.77,4.15-2.52,6.33a6.68,6.68,0,0,0,12.64,4.3,74.11,74.11,0,0,1,6.45-14,38.66,38.66,0,0,1,2.67-4.16,64.18,64.18,0,0,1,32.62-24.14,6.69,6.69,0,0,0,3.13-11.17s-5-5.09-15.07-15.2c-2.83-2.89-6.09-6.14-9.76-9.84l-.53-.53a6,6,0,0,0-.67-.84,19.51,19.51,0,0,1,.24-23.1,4.86,4.86,0,0,1,4-1.57,6.89,6.89,0,0,1,4.89,2l48.7,49a10.24,10.24,0,0,1,1.46,12.69Zm53.6-65,5.88-10a23.62,23.62,0,0,0,.58-23.37h17.21v33.39Zm63.73,73.45a13.35,13.35,0,0,1-26.7,0V9770.68a13.35,13.35,0,1,1,26.7,0Zm40.07-40.07a13.36,13.36,0,1,1-26.71,0V9810.74a13.36,13.36,0,1,1,26.71,0Z"/></g></g><path class="cls-6" d="M324.58,9845.14l-52.23,52.23a79.9,79.9,0,0,1,12.37,6.27c5.95,3.62,9.57,5.79,18.48,5.79s12.54-2.17,18.49-5.71c7.23-4.34,17.19-10.36,35-10.36s27.8,5.94,35,10.36c5.95,3.62,9.57,5.71,18.48,5.71s12.54-2.17,18.49-5.71c1.92-1.2,4.09-2.41,6.5-3.69l-102.93-103.1c-25-25-47.89-32.3-88.06-32.14V9805c29.24-.16,46.36,6.27,64.28,24.1Z"/><path class="cls-6" d="M498.78,9943.9c-7.23-4.42-17.19-10.37-35-10.37s-27.8,6-35,10.37c-5.94,3.53-9.56,5.7-18.48,5.7s-12.53-2.09-18.48-5.7c-7.23-4.42-17.19-10.37-35-10.37s-27.8,6-35,10.37c-5.94,3.53-9.56,5.7-18.48,5.7s-12.61-2.17-18.56-5.78c-7.23-4.34-17.19-10.29-35-10.29s-27.8,5.95-35,10.29c-6,3.61-9.64,5.78-18.56,5.78v32.14c17.84,0,27.81-5.94,35-10.28,6-3.62,9.56-5.79,18.56-5.79s12.61,2.17,18.56,5.79c7.23,4.34,17.2,10.28,35,10.28s27.81-5.94,35.2-10.36c5.94-3.54,9.56-5.71,18.48-5.71s12.53,2.09,18.48,5.71c7.23,4.42,17.2,10.36,35,10.36s27.81-6,35-10.36c5.94-3.54,9.56-5.71,18.48-5.71s12.53,2.17,18.48,5.71c7.23,4.42,17.2,10.36,35,10.36V9949.6C508.51,9949.6,504.89,9947.43,498.78,9943.9Z"/><path class="cls-6" d="M463.75,10005.85c-17.84,0-27.8,6-35,10.37-5.94,3.53-9.56,5.7-18.48,5.7s-12.53-2.09-18.48-5.7c-7.23-4.42-17.19-10.37-35-10.37s-27.8,6-35,10.37c-5.94,3.53-9.56,5.7-18.48,5.7s-12.61-2.17-18.56-5.78c-7.23-4.34-17.19-10.29-35-10.29s-27.8,5.95-35,10.29c-6,3.61-9.64,5.78-18.56,5.78v32.14c17.84,0,27.81-5.94,35-10.28,6-3.62,9.56-5.79,18.56-5.79s12.61,2.17,18.56,5.79c7.23,4.34,17.2,10.28,35,10.28s27.81-5.94,35.2-10.36c5.94-3.54,9.56-5.71,18.48-5.71s12.53,2.09,18.48,5.71c7.23,4.42,17.2,10.36,35,10.36s27.81-6,35-10.36c5.94-3.54,9.56-5.71,18.48-5.71s12.53,2.17,18.48,5.71c7.23,4.42,17.2,10.36,35,10.36v-32.14c-8.91,0-12.53-2.17-18.64-5.7C491.55,10011.8,481.59,10005.85,463.75,10005.85Z"/><circle class="cls-6" cx="429.04" cy="9804.97" r="40.18"/><path class="cls-1" d="M7600.63,428.78c-7.31-138.85-106-264.6-238.31-306.42-139.95-44.22-299,13.46-381.22,134.34-84.52,124.35-71.1,290.92,2.12,417.08,40.09,69.07,98.27,128.14,167.88,167.56a577.16,577.16,0,0,0,56.3,27.59c18.8,8.11,39,18.79,60.1,16.82,20.19-1.89,40.79-13,59.08-21.17a496.16,496.16,0,0,0,50.56-26c121.44-72.36,205.67-201.68,221.2-342.34A424.57,424.57,0,0,0,7600.63,428.78ZM7092.36,290c72.55-82.92,203.2-98.1,294.52-37.67,89.54,59.26,124.19,178.81,81.69,277.1a229.27,229.27,0,0,1-98.45,108.68A225.11,225.11,0,0,1,7302,662.71a204,204,0,0,1-42.21,3.59c-11.81-.29-34.53-7.49-45,.29-9,6.71-3.47,18.14-1.27,26.71,3.25,12.69,4.06,26.4-.26,39-7.31,21.23-30.78,37.27-53.29,37-40-.53-61-50.64-73.75-81.53C7035.61,565.13,6999.75,401.66,7092.36,290Z"/><path class="cls-1" d="M4959.8,375c-7.32-138.85-106-264.6-238.32-306.42-139.94-44.22-299,13.46-381.21,134.34-84.53,124.35-71.11,290.92,2.11,417.08,40.1,69.07,98.28,128.14,167.89,167.56a577,577,0,0,0,56.29,27.59c18.81,8.11,39,18.79,60.11,16.82,20.19-1.89,40.79-13,59.07-21.17a496.32,496.32,0,0,0,50.57-26c121.44-72.36,205.66-201.68,221.2-342.34A425.75,425.75,0,0,0,4959.8,375ZM4451.53,236.26c72.54-82.92,203.2-98.1,294.52-37.67,89.53,59.26,124.19,178.81,81.69,277.1a229.37,229.37,0,0,1-98.45,108.68,225.11,225.11,0,0,1-68.11,24.56,204.14,204.14,0,0,1-42.22,3.6c-11.8-.3-34.53-7.5-45,.28-9,6.71-3.47,18.14-1.28,26.71,3.25,12.69,4.06,26.4-.25,39-7.31,21.24-30.78,37.27-53.3,37-40-.52-61-50.64-73.75-81.53C4394.78,511.35,4358.92,347.89,4451.53,236.26Z"/><path class="cls-1" d="M5762.2,394.38c-7.31-138.85-106-264.59-238.31-306.41-140-44.23-299.05,13.46-381.22,134.34-84.52,124.35-71.1,290.92,2.12,417.07,40.09,69.08,98.28,128.14,167.88,167.57a579.45,579.45,0,0,0,56.3,27.59c18.8,8.11,39,18.79,60.1,16.82,20.19-1.89,40.79-13,59.08-21.18a496.16,496.16,0,0,0,50.56-26c121.44-72.35,205.67-201.67,221.21-342.33A425.83,425.83,0,0,0,5762.2,394.38ZM5253.93,255.65c72.55-82.92,203.21-98.11,294.52-37.67,89.54,59.25,124.19,178.81,81.69,277.1a229.25,229.25,0,0,1-98.45,108.67,224.58,224.58,0,0,1-68.11,24.56,203.35,203.35,0,0,1-42.21,3.6c-11.81-.3-34.53-7.49-45,.29-9,6.71-3.47,18.13-1.27,26.7,3.25,12.7,4.06,26.41-.26,39-7.31,21.23-30.78,37.27-53.29,37-40-.53-61-50.64-73.75-81.53C5197.18,530.74,5161.32,367.27,5253.93,255.65Z"/><path class="cls-1" d="M7365.05,553.42a22.31,22.31,0,1,0,22.3,22.31A22.33,22.33,0,0,0,7365.05,553.42Z"/><path class="cls-1" d="M7164.29,534.3a31.87,31.87,0,1,0,31.87,31.87A31.9,31.9,0,0,0,7164.29,534.3Z"/><path class="cls-1" d="M7367.7,288.92a193.15,193.15,0,0,0-19.58-6.39c18.41,16.27,28.4,38,28.4,62.49a28.53,28.53,0,0,1-1.65,9.56H7409a9.56,9.56,0,0,0,9.56-9.56C7418.58,328.5,7409.75,305.36,7367.7,288.92Z"/><path class="cls-1" d="M7137.26,354.58a28.52,28.52,0,0,1-1.64-9.56c0-24.47,10-46.22,28.39-62.49a193.15,193.15,0,0,0-19.58,6.39c-42.05,16.44-50.88,39.58-50.88,56.1a9.56,9.56,0,0,0,9.56,9.56Z"/><path class="cls-1" d="M7164.29,354.58h34.15a28.52,28.52,0,0,1-1.64-9.56c0-23.94,4.18-44.78,12.1-60.26a75.71,75.71,0,0,1,4.16-7.13,103.38,103.38,0,0,0-27.1,12.18c-20.43,13.31-31.22,32.4-31.22,55.21A9.55,9.55,0,0,0,7164.29,354.58Z"/><path class="cls-1" d="M7315.34,345a28.53,28.53,0,0,1-1.65,9.56h34.15a9.56,9.56,0,0,0,9.56-9.56c0-22.81-10.8-41.9-31.22-55.21a103.8,103.8,0,0,0-27.11-12.19,75,75,0,0,1,4.16,7.14C7311.15,300.24,7315.34,321.08,7315.34,345Z"/><path class="cls-1" d="M7221.65,410a9.56,9.56,0,0,0-9.56-9.56h-38.24a9.56,9.56,0,0,0-9.56,9.56v28.68h57.36Z"/><path class="cls-1" d="M7403.28,400.47h-102a9.56,9.56,0,0,0,0,19.12h3.19v19.12h95.6V419.59h3.18a9.56,9.56,0,1,0,0-19.12Z"/><path class="cls-1" d="M7403.28,457.83H7265.63V354.58h21a9.56,9.56,0,0,0,9.56-9.56c0-20.93-3.46-38.76-10-51.55-7.17-14-17.88-21.74-30.14-21.74s-23,7.72-30.15,21.74c-6.54,12.79-10,30.62-10,51.55a9.56,9.56,0,0,0,9.56,9.56h21V457.83H7134.34a35.09,35.09,0,0,0-35.05,35.05,9.56,9.56,0,1,0,19.12,0A16,16,0,0,1,7134.34,477h29.95v38.23a51.06,51.06,0,0,1,50.58,44.62h111.94a41.42,41.42,0,0,1,76.47,0h0a9.56,9.56,0,0,0,9.56-9.56V467.39A9.56,9.56,0,0,0,7403.28,457.83ZM7221.65,512a9.56,9.56,0,1,1-19.12,0V486.51a9.56,9.56,0,1,1,19.12,0Zm38.24,0a9.56,9.56,0,0,1-19.12,0V486.51a9.56,9.56,0,0,1,19.12,0Zm38.24,0a9.56,9.56,0,0,1-19.12,0V486.51a9.56,9.56,0,0,1,19.12,0Zm38.24,0a9.56,9.56,0,1,1-19.12,0V486.51a9.56,9.56,0,1,1,19.12,0Zm38.23,0a9.56,9.56,0,1,1-19.11,0V486.51a9.56,9.56,0,1,1,19.11,0Z"/><g id="_03-cup" data-name=" 03-cup"><g id="Glyph"><path class="cls-1" d="M6215,347.83a13.81,13.81,0,0,1,13.79-13.78h27.57a41.39,41.39,0,0,0,41.35-41.35V278.91h-27.57V292.7a13.79,13.79,0,0,1-13.78,13.78h-27.57a41.4,41.4,0,0,0-41.35,41.35v13.79H6215Z"/><path class="cls-1" d="M6270.09,347.83a41.4,41.4,0,0,0-41.35,41.36V403h27.57V389.19a13.8,13.8,0,0,1,13.78-13.79h27.57A41.38,41.38,0,0,0,6339,334.05V320.27h-27.56v13.78a13.8,13.8,0,0,1-13.79,13.78Z"/><path class="cls-1" d="M6373.48,416.76H6159.82A13.78,13.78,0,0,0,6146,430.54v41.35a110.25,110.25,0,0,0,37.46,82.71h145.64a111.23,111.23,0,0,0,20.08-23.41l.13-.19a111.32,111.32,0,0,0,7.47-13.8c.06-.14.12-.28.19-.42.51-1.17,1-2.34,1.51-3.53h15a48.25,48.25,0,0,0,0-96.49Zm-62,96.49a13.79,13.79,0,1,1,13.78-13.79A13.78,13.78,0,0,1,6311.45,513.25Zm62-27.57h-7.79a109.59,109.59,0,0,0,.89-13.79V444.33h6.9a20.68,20.68,0,0,1,0,41.35Z"/><path class="cls-1" d="M6159.82,609.74h193a41.4,41.4,0,0,0,41.35-41.35H6118.46A41.41,41.41,0,0,0,6159.82,609.74Z"/></g></g><path class="cls-7" d="M283,8782.78H200.29a8.86,8.86,0,0,0-8.86,8.86v20.69H291.9v-20.69A8.86,8.86,0,0,0,283,8782.78Z"/><path class="cls-7" d="M489.57,8867.28a8.88,8.88,0,0,0-8.89,0L393,8918.62V8875a8.86,8.86,0,0,0-13.34-7.65l-87.72,51.3v-88.56H191.43V9076.5a8.87,8.87,0,0,0,8.86,8.87H485.16a8.87,8.87,0,0,0,8.86-8.87V8875A8.88,8.88,0,0,0,489.57,8867.28ZM327.36,9023a8.87,8.87,0,0,1-8.87,8.86H283a8.86,8.86,0,0,1-8.86-8.86v-35.46a8.87,8.87,0,0,1,8.86-8.87h35.46a8.87,8.87,0,0,1,8.87,8.87Zm101.06,0a8.86,8.86,0,0,1-8.86,8.86H384.1a8.87,8.87,0,0,1-8.87-8.86v-35.46a8.87,8.87,0,0,1,8.87-8.87h35.46a8.87,8.87,0,0,1,8.86,8.87Z"/><path class="cls-8" d="M763.58,1724.57c-7.31-138.85-106-264.59-238.31-306.41-139.95-44.23-299,13.46-381.22,134.34-84.52,124.35-71.1,290.92,2.12,417.07,40.09,69.08,98.28,128.14,167.88,167.57a579.45,579.45,0,0,0,56.3,27.59c18.8,8.11,39,18.79,60.1,16.82,20.19-1.89,40.79-13,59.08-21.18a495.34,495.34,0,0,0,50.57-26C661.53,2062,745.76,1932.69,761.3,1792A425.83,425.83,0,0,0,763.58,1724.57ZM255.31,1585.84c72.55-82.92,203.21-98.11,294.52-37.67,89.54,59.25,124.19,178.81,81.69,277.1A229.32,229.32,0,0,1,533.07,1934,224.82,224.82,0,0,1,465,1958.5a203.3,203.3,0,0,1-42.21,3.6c-11.81-.3-34.53-7.49-45,.29-9,6.71-3.47,18.13-1.27,26.7,3.25,12.7,4.06,26.41-.26,39-7.31,21.23-30.78,37.27-53.29,37-40-.53-61-50.64-73.75-81.53C198.56,1860.93,162.7,1697.46,255.31,1585.84Z"/><path class="cls-2" d="M692.07,1614.44c-58.61.08-106.42-47.63-106.56-106.32s47.91-106.88,106.67-106.7S798.56,1449.35,798.5,1508A106.64,106.64,0,0,1,692.07,1614.44Z"/><path class="cls-8" d="M517.72,1643H487.35a75.94,75.94,0,0,0-151.87,0H305.1a30.34,30.34,0,0,0-30.22,30.38l-.15,182.24A30.46,30.46,0,0,0,305.1,1886H517.72a30.46,30.46,0,0,0,30.37-30.37V1673.38A30.46,30.46,0,0,0,517.72,1643Zm-106.31-45.56A45.5,45.5,0,0,1,457,1643H365.85A45.5,45.5,0,0,1,411.41,1597.44Zm0,151.87a76,76,0,0,1-75.93-75.93h30.37a45.56,45.56,0,0,0,91.12,0h30.38A76,76,0,0,1,411.41,1749.31Z"/><path class="cls-8" d="M1513.69,1720.24c-7.32-138.85-106-264.6-238.32-306.42-139.94-44.22-299,13.46-381.21,134.34-84.53,124.35-71.11,290.92,2.11,417.08,40.09,69.07,98.28,128.14,167.89,167.56a577,577,0,0,0,56.29,27.59c18.81,8.11,39,18.79,60.11,16.82,20.19-1.89,40.79-12.95,59.07-21.17a496.32,496.32,0,0,0,50.57-26c121.44-72.36,205.66-201.68,221.2-342.34A425.75,425.75,0,0,0,1513.69,1720.24ZM1005.42,1581.5c72.54-82.92,203.2-98.1,294.52-37.67,89.53,59.26,124.19,178.81,81.68,277.1a229.3,229.3,0,0,1-98.44,108.68,225.11,225.11,0,0,1-68.11,24.56,204.13,204.13,0,0,1-42.22,3.59c-11.8-.29-34.53-7.49-45,.29-9,6.71-3.46,18.14-1.27,26.71,3.25,12.69,4.06,26.4-.26,39-7.3,21.23-30.77,37.27-53.29,37-40-.53-61-50.64-73.75-81.53C948.67,1856.59,912.8,1693.12,1005.42,1581.5Z"/><path class="cls-8" d="M2110,1614.08H1858.15v31.49H2110Zm15.74,157.41V1740l-15.74-78.7H1858.15l-15.74,78.7v31.48h15.74v94.45h157.41v-94.45h63v94.45H2110v-94.45Zm-141.67,63h-94.44v-63h94.44Z"/><path class="cls-8" d="M1268.05,1632.82h-30.38a75.94,75.94,0,1,0-151.87,0h-30.37a30.33,30.33,0,0,0-30.22,30.37l-.15,182.24a30.47,30.47,0,0,0,30.37,30.38h212.62a30.47,30.47,0,0,0,30.37-30.38V1663.19A30.46,30.46,0,0,0,1268.05,1632.82Zm-106.31-45.57a45.5,45.5,0,0,1,45.56,45.57h-91.12A45.5,45.5,0,0,1,1161.74,1587.25Zm0,151.87a76,76,0,0,1-75.94-75.93h30.38a45.56,45.56,0,0,0,91.12,0h30.37A76,76,0,0,1,1161.74,1739.12Z"/><path class="cls-8" d="M2332.73,1724.57c-7.31-138.85-106-264.59-238.32-306.41-139.94-44.23-299,13.46-381.21,134.34-84.53,124.35-71.1,290.92,2.11,417.07,40.1,69.08,98.28,128.14,167.89,167.57a579.45,579.45,0,0,0,56.3,27.59c18.8,8.11,39,18.79,60.1,16.82,20.19-1.89,40.79-13,59.07-21.18a493.27,493.27,0,0,0,50.57-26c121.44-72.35,205.67-201.67,221.2-342.33A424.65,424.65,0,0,0,2332.73,1724.57Zm-508.27-138.73c72.55-82.92,203.2-98.11,294.52-37.67,89.54,59.25,124.19,178.81,81.69,277.1A229.32,229.32,0,0,1,2102.22,1934a224.82,224.82,0,0,1-68.11,24.55,203.45,203.45,0,0,1-42.22,3.6c-11.8-.3-34.52-7.49-45,.29-9,6.71-3.47,18.13-1.28,26.7,3.26,12.7,4.06,26.41-.25,39-7.31,21.23-30.78,37.27-53.3,37-40-.53-61-50.64-73.74-81.53C1767.71,1860.93,1731.85,1697.46,1824.46,1585.84Z"/><path class="cls-8" d="M2907.16,1916.19a25.32,25.32,0,1,0,7.42-17.89A24.38,24.38,0,0,0,2907.16,1916.19Z"/><path class="cls-8" d="M2979.31,1692.24a12.15,12.15,0,0,0-8.9-3.76H2733c-.14-.92-.43-2.6-.9-5s-.82-4.38-1.08-5.83a35.18,35.18,0,0,0-1.49-5.23,15.88,15.88,0,0,0-2.56-4.85,12.66,12.66,0,0,0-4-3.06,12,12,0,0,0-5.63-1.29h-50.6a12.65,12.65,0,0,0,0,25.3h40.32l35,162.68q-.39.79-4.05,7.51t-5.83,11.76c-1.45,3.36-2.17,6-2.17,7.81a12.81,12.81,0,0,0,12.65,12.65h202.4a12.65,12.65,0,0,0,0-25.3H2763.26q4.75-9.49,4.75-12.65a21.44,21.44,0,0,0-.5-4.35q-.5-2.37-1.18-5.24c-.46-1.9-.76-3.32-.89-4.25L2971.8,1815a12.26,12.26,0,0,0,8.1-4.25,12.47,12.47,0,0,0,3.16-8.4v-101.2A12.18,12.18,0,0,0,2979.31,1692.24Z"/><path class="cls-8" d="M2730.06,1916.19a25.3,25.3,0,1,0,7.41-17.89A24.37,24.37,0,0,0,2730.06,1916.19Z"/><path class="cls-8" d="M3167.09,1766.47c-7.32-138.85-106-264.6-238.32-306.42-139.94-44.22-299,13.46-381.21,134.34-84.53,124.35-71.11,290.92,2.11,417.08,40.09,69.07,98.28,128.14,167.88,167.56a577.16,577.16,0,0,0,56.3,27.59c18.81,8.11,39,18.79,60.1,16.82,20.19-1.89,40.8-13,59.08-21.17a496.32,496.32,0,0,0,50.57-26c121.44-72.36,205.66-201.68,221.2-342.34A426.94,426.94,0,0,0,3167.09,1766.47Zm-508.27-138.74c72.54-82.92,203.2-98.1,294.52-37.67,89.53,59.26,124.18,178.81,81.68,277.1a229.3,229.3,0,0,1-98.44,108.68,225.11,225.11,0,0,1-68.11,24.56,204.14,204.14,0,0,1-42.22,3.6c-11.8-.3-34.53-7.5-45,.28-9,6.71-3.47,18.14-1.27,26.71,3.25,12.69,4.06,26.4-.26,39-7.3,21.24-30.77,37.27-53.29,37-40-.52-61-50.64-73.75-81.53C2602.07,1902.82,2566.2,1739.36,2658.82,1627.73Z"/><path class="cls-8" d="M3591.41,1752.33h1q1.13-2.65,2.31-5a81.85,81.85,0,0,1,10.37-15.86l-11-11h-28V1708.3h15.77l-20.09-20.09,8.63-8.62,20.09,20.09V1683.9h12.2v28l10.83,10.83a81.11,81.11,0,0,1,21.07-13.59,60.74,60.74,0,0,0-56.3-37.42H3554v24.4A60.57,60.57,0,0,0,3591.41,1752.33Z"/><path class="cls-8" d="M3605.64,1752.83c-.14.29-.28.61-.43.93,15.44,3.62,30.72,14,45.08,31.07a181,181,0,0,1,35.75,69.54,78.17,78.17,0,0,1,1.5,27.73l112.89-23a45,45,0,0,1,33.35,6.17l5.87-13.08a150.5,150.5,0,0,0,13.21-61.31,85.13,85.13,0,0,0-9-38,69.39,69.39,0,0,0-105.49-23.23l-7.53,6V1727a97.4,97.4,0,0,1,28.72-69.32l-8.63-8.63a109.53,109.53,0,0,0-32.29,78v8.6l-7.53-6a69.74,69.74,0,0,0-43.34-15.19A69,69,0,0,0,3605.64,1752.83Z"/><path class="cls-8" d="M3721.25,1695.67a48.92,48.92,0,0,0-41.84-41.84A48.93,48.93,0,0,0,3721.25,1695.67Z"/><path class="cls-8" d="M3599.09,1830.88a42.7,42.7,0,0,0-31.82,51.28,41.79,41.79,0,0,0,13,21.82l67.36-13.75a42.64,42.64,0,0,0-48.53-59.35Z"/><path class="cls-8" d="M3553,1909.55l13.14-2.67a54.93,54.93,0,1,1,95.48-19.49l13.07-2.66a66.14,66.14,0,0,0-.52-27.59,167.58,167.58,0,0,0-33.21-64.47c-13-15.44-33.55-32.68-57.14-27.12s-34.36,30.06-39.2,49.68a167.25,167.25,0,0,0-1.15,72.49A66.13,66.13,0,0,0,3553,1909.55Z"/><path class="cls-8" d="M3877.56,1897.28l-2.52-12-14,3,8.13-11.85-10.06-6.89-16.74,24.4a6,6,0,0,0-.73,1.56,33,33,0,0,0-38.73-24.51l-.61.13a60.56,60.56,0,0,1-1.52,22.07l-.61,2.33-11.8-3.09.61-2.33a48.25,48.25,0,0,0,1.34-16.54l-35.08,7.16a59.81,59.81,0,0,1-2.93,27.38l-11.49-4.1a47.81,47.81,0,0,0,2.48-20.85l-29.77,6.11a60.23,60.23,0,0,1-3.25,24.11l-11.49-4.1a47.9,47.9,0,0,0,2.71-17.56l-29.84,6.1a60.05,60.05,0,0,1-3.41,20.83l-11.5-4.17a47.58,47.58,0,0,0,2.67-14.21l-29.82,6.1a59.1,59.1,0,0,1-3.39,17.49l-11.49-4.12a46.69,46.69,0,0,0,2.44-10.83l-81.72,16.67a7.32,7.32,0,0,0,1.45,14.52h269.23a32.92,32.92,0,0,0,23.46-9.72L3833,1927a33,33,0,0,0,9.72-23.45c0-.91-.18-1.76-.26-2.65a5.63,5.63,0,0,0,.48.72l22.84,24.4,8.9-8.34-15.43-16.47Z"/><path class="cls-8" d="M4042.37,1798c-7.32-138.85-106-264.6-238.32-306.42-139.94-44.22-299,13.46-381.21,134.34-84.53,124.36-71.11,290.92,2.11,417.08,40.1,69.08,98.28,128.14,167.89,167.56a579.37,579.37,0,0,0,56.29,27.6c18.81,8.1,39,18.78,60.11,16.81,20.19-1.89,40.79-13,59.07-21.17a496.32,496.32,0,0,0,50.57-26c121.44-72.36,205.66-201.68,221.2-342.34A425.71,425.71,0,0,0,4042.37,1798ZM3534.1,1659.21c72.54-82.91,203.2-98.1,294.52-37.67,89.53,59.26,124.19,178.82,81.69,277.1a229.37,229.37,0,0,1-98.45,108.68,224.85,224.85,0,0,1-68.11,24.56,203.45,203.45,0,0,1-42.22,3.6c-11.8-.3-34.53-7.5-45,.28-9,6.71-3.47,18.14-1.28,26.71,3.25,12.69,4.06,26.4-.25,39-7.31,21.24-30.78,37.27-53.3,37-40-.53-61-50.65-73.75-81.54C3477.35,1934.3,3441.49,1770.84,3534.1,1659.21Z"/><path class="cls-8" d="M4468,1717.46c0-21.59,17.55-39.79,39.14-39.79s39.14,18.2,39.14,39.79v11l58.7,28.15H4516.9a9.79,9.79,0,0,0,0,19.57H4605l-58.7,28.16v11a39.14,39.14,0,0,1-78.28,0v-1a48.93,48.93,0,0,1,0-95.88Z"/><path class="cls-8" d="M4586.64,1854.44H4605a39.15,39.15,0,0,1,23.15,70.71c-9.45,6.95-21.41,9-33.2,6.1C4587.39,1905.82,4582.9,1878.49,4586.64,1854.44Z"/><path class="cls-8" d="M4673.46,2011.65h-39.14c-3.65,0-7.83-3.65-9.51-6.89a471.14,471.14,0,0,1-23-52.73,57.08,57.08,0,0,0,37.93-11.12,58.71,58.71,0,0,0-34.74-106h-12.91a67.53,67.53,0,0,1,12-19.57h99.61a67.71,67.71,0,0,1,13.41,22.51c19.38,53.5-17.41,134.77-34.58,167.73a9.79,9.79,0,0,1-9.06,6.11Z"/><path class="cls-8" d="M4624.53,1746.81a9.78,9.78,0,0,1,9.79-9.78h39.14a9.78,9.78,0,0,1,9.78,9.78v48.92h-58.71Z"/><path class="cls-8" d="M4952.08,1814.11c-7.32-138.85-106-264.6-238.32-306.42-139.94-44.22-299,13.46-381.21,134.34-84.53,124.35-71.11,290.92,2.11,417.08,40.1,69.08,98.28,128.14,167.89,167.56a579.37,579.37,0,0,0,56.29,27.6c18.81,8.1,39,18.78,60.11,16.81,20.19-1.89,40.79-12.95,59.07-21.17a496.32,496.32,0,0,0,50.57-26c121.44-72.36,205.66-201.68,221.2-342.34A425.75,425.75,0,0,0,4952.08,1814.11Zm-508.27-138.74c72.54-82.92,203.2-98.1,294.52-37.67,89.53,59.26,124.19,178.81,81.69,277.1a229.37,229.37,0,0,1-98.45,108.68,225.11,225.11,0,0,1-68.11,24.56,204.14,204.14,0,0,1-42.22,3.6c-11.8-.3-34.53-7.5-45,.28-9,6.71-3.47,18.14-1.28,26.71,3.26,12.69,4.06,26.4-.25,38.95-7.31,21.24-30.78,37.27-53.3,37-40-.53-61-50.65-73.75-81.54C4387.06,1950.46,4351.2,1787,4443.81,1675.37Z"/><path class="cls-8" d="M6697.78,1812.91a65.92,65.92,0,0,0-7.69.73l-29.91-29.76h37.6v-43.56l-54,27-41.67-41.52h-64v29h52.12l29,29h-52.12l-58.07,29-29-29h-72.59v29h58.07a58.08,58.08,0,1,0,58.08,58.08l29,29h43.56l50.66-88.56,14.67,14.67a57.42,57.42,0,0,0-21.78,44.86,58.08,58.08,0,1,0,58.07-58.08ZM6465.49,1900a29,29,0,1,1,29-29A29.11,29.11,0,0,1,6465.49,1900Zm232.29,0a29,29,0,1,1,29-29A29.11,29.11,0,0,1,6697.78,1900Z"/><path class="cls-8" d="M6920.29,1818c-7.31-138.85-106-264.59-238.31-306.41-139.95-44.23-299,13.46-381.22,134.34-84.52,124.35-71.1,290.92,2.12,417.07,40.09,69.08,98.28,128.14,167.88,167.57a579.45,579.45,0,0,0,56.3,27.59c18.8,8.11,39,18.79,60.1,16.82,20.19-1.89,40.79-12.95,59.08-21.18a497.36,497.36,0,0,0,50.57-26c121.43-72.36,205.66-201.67,221.2-342.33A425.83,425.83,0,0,0,6920.29,1818ZM6412,1679.27c72.55-82.92,203.21-98.11,294.52-37.67,89.54,59.25,124.19,178.81,81.69,277.1a229.25,229.25,0,0,1-98.45,108.67,224.58,224.58,0,0,1-68.11,24.56,203.3,203.3,0,0,1-42.21,3.6c-11.81-.3-34.53-7.49-45,.29-9,6.71-3.47,18.13-1.27,26.7,3.25,12.7,4.06,26.41-.26,39-7.31,21.23-30.78,37.27-53.29,37-40-.53-61-50.65-73.75-81.53C6355.27,1954.36,6319.41,1790.89,6412,1679.27Z"/><path class="cls-8" d="M8623.42,1703a85.73,85.73,0,0,0-121.06,0l-70.58,70.59,80.13,80.13c16.49-13.73,37.4-22.33,60.49-22.33a94.49,94.49,0,0,1,37.31,7.66l13.71-15A85.7,85.7,0,0,0,8623.42,1703Z"/><path class="cls-8" d="M8498.57,1867.25,8418.33,1787l-69.09,69.15a85.72,85.72,0,0,0,0,121.07c33.39,33.36,88.32,34,121.71.63l14-14.07a94.52,94.52,0,0,1-7.66-37.31C8477.29,1904,8485.47,1883.55,8498.57,1867.25Z"/><path class="cls-8" d="M8496.31,1926.47c0,38.77,29.1,70.4,66.58,75.13V1851.34C8525.41,1856.07,8496.31,1887.7,8496.31,1926.47Z"/><path class="cls-8" d="M8581.91,1851.34V2001.6c37.49-4.73,66.58-36.36,66.58-75.13S8619.4,1856.07,8581.91,1851.34Z"/><path class="cls-8" d="M8844.16,1829.86c-7.31-138.85-106-264.6-238.31-306.42-140-44.22-299.05,13.46-381.22,134.34-84.52,124.35-71.1,290.92,2.12,417.07,40.09,69.08,98.28,128.15,167.88,167.57a577.16,577.16,0,0,0,56.3,27.59c18.8,8.11,39,18.79,60.1,16.82,20.19-1.89,40.79-12.95,59.08-21.18a494.15,494.15,0,0,0,50.56-26c121.44-72.35,205.67-201.67,221.21-342.33A425.75,425.75,0,0,0,8844.16,1829.86Zm-508.27-138.74c72.55-82.92,203.21-98.1,294.52-37.67,89.54,59.26,124.19,178.81,81.69,277.1a229.27,229.27,0,0,1-98.45,108.68,225.11,225.11,0,0,1-68.11,24.56,204,204,0,0,1-42.21,3.59c-11.81-.3-34.53-7.49-45,.29-9,6.71-3.47,18.13-1.27,26.71,3.25,12.69,4.06,26.4-.26,38.95-7.31,21.23-30.78,37.27-53.29,37-40-.53-61-50.64-73.75-81.53C8279.14,1966.21,8243.28,1802.74,8335.89,1691.12Z"/><path class="cls-1" d="M6619.9,433.16c-7.31-138.85-106-264.6-238.31-306.42-139.95-44.22-299.05,13.46-381.22,134.34-84.52,124.35-71.1,290.92,2.12,417.08,40.09,69.08,98.27,128.14,167.88,167.56a579.53,579.53,0,0,0,56.3,27.6c18.8,8.1,39,18.78,60.1,16.81,20.19-1.89,40.79-13,59.08-21.17a496.16,496.16,0,0,0,50.56-26c121.44-72.36,205.67-201.68,221.2-342.34A424.57,424.57,0,0,0,6619.9,433.16ZM6111.63,294.42c72.55-82.92,203.2-98.1,294.52-37.67,89.54,59.26,124.19,178.81,81.69,277.1a229.27,229.27,0,0,1-98.45,108.68,225.11,225.11,0,0,1-68.11,24.56,204.08,204.08,0,0,1-42.22,3.6c-11.8-.3-34.52-7.5-45,.28-9,6.71-3.47,18.14-1.28,26.71,3.26,12.69,4.07,26.4-.25,39-7.31,21.24-30.78,37.27-53.3,37-40-.52-61-50.64-73.74-81.53C6054.88,569.51,6019,406.05,6111.63,294.42Z"/><path class="cls-3" d="M1887.9,7858.24a67,67,0,0,0,38-12.23c7.82-5.49,8.81-8.54,14.27-12.24,17.22-11.62,44.08-6.1,61.85,12.24,24,24.73,27.7,69,19,97.88-8,26.72-21.55,23.54-28.54,48.95-9.52,34.65,13,50.46,9.52,97.89-2.36,32.5-16,67.94-38.06,79.53-11,5.79-26.1,6.67-28.54,0-2.17-5.92,12.21-12.52,19-30.59,11.7-31.05-8-70.43-9.52-73.42-18.9-36.76-52.09-40.25-57.33-41-5.25.74-38.43,4.23-57.34,41-1.54,3-21.22,42.37-9.51,73.42,6.81,18.07,21.19,24.67,19,30.59-2.45,6.67-17.54,5.79-28.55,0-22-11.59-35.7-47-38-79.53-3.45-47.43,19-63.24,9.51-97.89-7-25.41-20.53-22.23-28.54-48.94-8.67-28.93-4.93-73.16,19-97.89,17.77-18.34,44.63-23.86,61.84-12.24,5.47,3.7,6.45,6.75,14.27,12.24a67,67,0,0,0,38.06,12.23Z"/><path class="cls-9" d="M1869.69,7995.34v-35.93h-35.93v-35.92h35.93v-35.92h35.92v35.92h35.92v35.92h-35.92v35.93Z"/><path class="cls-9" d="M1985.91,7870.75a6,6,0,0,0-1.33,8.36h0c14.47,19.94,14.51,45.93.1,64.68a6,6,0,1,0,9.45,7.36l0-.06c17.66-23,17.7-54.75.09-79a6,6,0,0,0-8.36-1.33Z"/><path class="cls-2" d="M2006.37,7841.86c-20-20.67-49.9-26.27-69.5-13a42.46,42.46,0,0,0-6.76,5.79,50.17,50.17,0,0,1-7.6,6.51,61.16,61.16,0,0,1-34.67,11.15h-.39a61.18,61.18,0,0,1-34.67-11.15,50.17,50.17,0,0,1-7.6-6.51,42.46,42.46,0,0,0-6.76-5.79c-19.6-13.24-49.48-7.64-69.49,13-25.59,26.41-29.64,73.18-20.47,103.77,4.41,14.71,10.58,21.42,16,27.34,5,5.47,9.38,10.2,12.48,21.47,4.48,16.32,1.23,27.83-2.88,42.41-4,14.24-8.57,30.38-6.84,54.32a150.91,150.91,0,0,0,12.17,49.64c7.51,16.69,17.56,28.7,29.07,34.76,9.89,5.2,22,6.83,29.45,4a12.23,12.23,0,0,0,7.51-7.2c2.26-6.17-2.25-11.17-6.61-16-4.11-4.57-9.23-10.25-12.44-18.76-10.89-28.87,8.41-66.95,9.23-68.56,10.89-21.16,29.35-34.53,52-37.69,22.67,3.15,41.13,16.53,52,37.69.82,1.6,20.12,39.69,9.24,68.56-3.21,8.51-8.33,14.19-12.45,18.76-4.35,4.83-8.86,9.83-6.6,16a12.21,12.21,0,0,0,7.51,7.2,24.28,24.28,0,0,0,8.66,1.4,46.23,46.23,0,0,0,20.78-5.36c11.52-6.06,21.57-18.08,29.08-34.76a150.65,150.65,0,0,0,12.16-49.64c1.74-23.95-2.81-40.08-6.83-54.32-4.12-14.58-7.36-26.1-2.88-42.41,3.1-11.27,7.44-16,12.48-21.47,5.44-5.92,11.61-12.63,16-27.34,9.17-30.59,5.12-77.36-20.46-103.77Zm9,100.33c-3.62,12.08-8.36,17.22-13.37,22.68-5.58,6.06-11.34,12.33-15.21,26.4-5.37,19.53-1.35,33.76,2.9,48.83,3.93,13.94,8,28.36,6.41,50.21-2.5,34.48-16.83,65.18-34.87,74.67-8.19,4.31-16.5,4.51-19.4,3.48.86-1.16,2.34-2.81,3.52-4.11,4.53-5,10.75-11.93,14.75-22.55,12.52-33.22-7.47-73.75-9.79-78.27-12.76-24.83-34.55-40.5-61.35-44.12l-.47-.06a5.84,5.84,0,0,0-1.67,0l-.47.06c-26.8,3.62-48.58,19.29-61.35,44.12-2.32,4.51-22.32,45.05-9.8,78.27,4,10.62,10.22,17.51,14.76,22.54,1.17,1.31,2.66,3,3.52,4.12-2.9,1-11.21.82-19.4-3.49-18-9.48-32.37-40.18-34.88-74.66-1.58-21.86,2.48-36.27,6.42-50.21,4.25-15.07,8.26-29.3,2.9-48.83-3.87-14.07-9.63-20.34-15.21-26.4-5-5.46-9.75-10.6-13.37-22.68-4.23-14.11-5.16-31.55-2.55-47.85,2-12.77,7.2-30.8,20.14-44.15,15.78-16.29,39.58-21.31,54.19-11.44a31.08,31.08,0,0,1,5,4.32,62.14,62.14,0,0,0,9.21,7.85,72.9,72.9,0,0,0,41.39,13.32h.71a72.9,72.9,0,0,0,41.39-13.32,62.14,62.14,0,0,0,9.21-7.85,31,31,0,0,1,5-4.32c14.61-9.87,38.42-4.85,54.19,11.44,12.94,13.35,18.1,31.38,20.14,44.15C2020.52,7910.65,2019.59,7928.08,2015.36,7942.19Z"/><path class="cls-9" d="M1941.53,7917.5H1911.6v-29.93a6,6,0,0,0-6-6h-35.92a6,6,0,0,0-6,6v29.93h-29.94a6,6,0,0,0-6,6v35.92a6,6,0,0,0,6,6h29.94v29.94a6,6,0,0,0,6,6h35.92a6,6,0,0,0,6-6V7965.4h29.93a6,6,0,0,0,6-6v-35.92A6,6,0,0,0,1941.53,7917.5Zm-6,35.93h-29.93a6,6,0,0,0-6,6v29.94h-23.95v-29.94a6,6,0,0,0-6-6h-29.94v-24h29.94a6,6,0,0,0,6-6v-29.93h23.95v29.93a6,6,0,0,0,6,6h29.93Z"/><path class="cls-7" d="M683.37,8923.77c-7.32-138.85-106-264.6-238.32-306.42-139.94-44.22-299,13.46-381.21,134.34C-20.69,8876-7.26,9042.61,66,9168.77c40.1,69.08,98.28,128.14,167.89,167.56a579.37,579.37,0,0,0,56.29,27.6c18.81,8.1,39,18.78,60.11,16.81,20.19-1.89,40.79-12.95,59.07-21.17a496.32,496.32,0,0,0,50.57-26c121.44-72.36,205.66-201.68,221.2-342.34A425.71,425.71,0,0,0,683.37,8923.77ZM175.1,8785c72.55-82.92,203.2-98.1,294.52-37.67,89.53,59.26,124.19,178.82,81.69,277.1a229.32,229.32,0,0,1-98.45,108.68,224.85,224.85,0,0,1-68.11,24.56,204.14,204.14,0,0,1-42.22,3.6c-11.8-.3-34.52-7.5-45,.28-9,6.71-3.47,18.14-1.28,26.71,3.26,12.69,4.06,26.4-.25,38.95-7.31,21.24-30.78,37.27-53.3,37-40-.53-61-50.65-73.74-81.54C118.35,9060.12,82.49,8896.66,175.1,8785Z"/><path class="cls-4" d="M2380.41,4302.12c-7.31-138.85-106-264.6-238.31-306.42-139.95-44.22-299,13.46-381.21,134.34-84.53,124.35-71.11,290.92,2.11,417.08,40.09,69.07,98.28,128.14,167.88,167.56a579.53,579.53,0,0,0,56.3,27.6c18.8,8.1,39,18.78,60.1,16.81,20.19-1.89,40.79-12.95,59.08-21.17a497.36,497.36,0,0,0,50.57-26c121.43-72.36,205.66-201.68,221.2-342.34A425.75,425.75,0,0,0,2380.41,4302.12Zm-508.27-138.74c72.55-82.92,203.21-98.1,294.52-37.67,89.54,59.26,124.19,178.81,81.69,277.1a229.27,229.27,0,0,1-98.45,108.68,225,225,0,0,1-68.1,24.56,204.14,204.14,0,0,1-42.22,3.6c-11.81-.3-34.53-7.5-45,.28-9,6.71-3.47,18.14-1.27,26.71,3.25,12.69,4.06,26.4-.26,38.95-7.3,21.24-30.78,37.27-53.29,37-40-.52-61-50.64-73.75-81.53C1815.39,4438.47,1779.53,4275,1872.14,4163.38Z"/><path class="cls-3" d="M2226.3,7971c-7.32-138.85-106-264.6-238.32-306.42-139.94-44.22-299,13.46-381.21,134.34-84.53,124.35-71.11,290.92,2.11,417.08,40.09,69.07,98.28,128.14,167.89,167.56a579.37,579.37,0,0,0,56.29,27.6c18.81,8.1,39,18.78,60.11,16.81,20.19-1.89,40.79-13,59.07-21.17a496.32,496.32,0,0,0,50.57-26c121.44-72.36,205.66-201.68,221.2-342.34A425.75,425.75,0,0,0,2226.3,7971ZM1718,7832.24c72.54-82.92,203.2-98.1,294.52-37.67,89.53,59.26,124.19,178.81,81.69,277.1a229.37,229.37,0,0,1-98.45,108.68,225.11,225.11,0,0,1-68.11,24.56,204.14,204.14,0,0,1-42.22,3.6c-11.8-.3-34.53-7.5-45,.28-9,6.71-3.46,18.14-1.27,26.71,3.25,12.69,4.06,26.4-.26,39-7.3,21.24-30.77,37.27-53.29,37-40-.52-61-50.64-73.75-81.53C1661.28,8107.33,1625.41,7943.87,1718,7832.24Z"/><path class="cls-6" d="M1585.56,9865.54c-7.32-138.85-106-264.59-238.32-306.41-139.94-44.23-299,13.46-381.21,134.34-84.53,124.35-71.11,290.92,2.11,417.07,40.1,69.08,98.28,128.14,167.89,167.57a579.28,579.28,0,0,0,56.29,27.59c18.81,8.11,39,18.79,60.11,16.82,20.19-1.89,40.79-13,59.07-21.18a496.32,496.32,0,0,0,50.57-26c121.44-72.35,205.66-201.67,221.2-342.33A425.84,425.84,0,0,0,1585.56,9865.54Zm-508.27-138.73c72.54-82.92,203.2-98.11,294.52-37.67,89.53,59.25,124.19,178.81,81.69,277.1a229.3,229.3,0,0,1-98.45,108.67,224.58,224.58,0,0,1-68.11,24.56,203.45,203.45,0,0,1-42.22,3.6c-11.8-.3-34.52-7.49-45,.29-9,6.71-3.47,18.13-1.28,26.7,3.26,12.7,4.06,26.41-.25,39-7.31,21.23-30.78,37.27-53.3,37-40-.53-61-50.64-73.74-81.53C1020.54,10001.9,984.68,9838.43,1077.29,9726.81Z"/><path class="cls-8" d="M5660.94,1769.88l-20.74-62.78h17.44a12.68,12.68,0,0,0,0-25.36h-35a12.68,12.68,0,0,0-12,16.66L5623,1736l-9,11.51H5505.77l-13.84-23h3.19a12.69,12.69,0,0,0,0-25.37h-39.64a12.69,12.69,0,0,0,0,25.37h6.84l66.8,111h-14c-9.81-61.17-86.53-89.8-133.25-43.08a78.22,78.22,0,0,0,0,111.1c45.56,45.56,122.81,19.91,133.18-42.65h36.37a12.69,12.69,0,0,0,10-4.87l71.17-91,4.22,12.8a78.87,78.87,0,1,0,115.15,70c0-48.06-43-85.41-91-77.94Zm-66.72,3-41.35,52.9L5521,1772.9Zm-156.77,128.42a53.32,53.32,0,1,1,51.84-65.79h-52.1a12.69,12.69,0,0,0,0,25.37h52a53.41,53.41,0,0,1-51.74,40.42Zm235.64,0a53.49,53.49,0,0,1-28.15-99l16.3,49.34a12.68,12.68,0,1,0,24.09-8l-16.27-49.25a53.5,53.5,0,1,1,4,106.85Z"/><path class="cls-10" d="M372.81,5417.77H259.9a45.16,45.16,0,0,0-45.16,45.17v271h90.33v-90.33h67.74a112.91,112.91,0,1,0,0-225.82Zm0,135.5H305.07V5508.1h67.74a22.59,22.59,0,1,1,0,45.17Z"/><path class="cls-4" d="M2176.89,4349.42l-14.38-23.23c0-.37-.37-1.11-.37-1.48L2142.22,4251a11.06,11.06,0,0,0-10.69-8.12H1931.64A11.06,11.06,0,0,0,1921,4251L1901,4324.71,1883,4348.32a11.35,11.35,0,0,0-2.21,7V4439a10.86,10.86,0,0,0,11.06,11.06h3.69v30.61a10.88,10.88,0,0,0,11.07,11.07h53.84a10.87,10.87,0,0,0,11.06-11.07V4450.1H2088v30.61a10.87,10.87,0,0,0,11.06,11.07h53.85a10.87,10.87,0,0,0,11.06-11.07V4450.1h3.69a10.86,10.86,0,0,0,11.06-11.06v-83.72A11.13,11.13,0,0,0,2176.89,4349.42Zm-208,51.63a10.87,10.87,0,0,1-11.06,11.07h-34.3a10.87,10.87,0,0,1-11.06-11.07v-23.6a10.86,10.86,0,0,1,11.06-11.06h34.3a10.86,10.86,0,0,1,11.06,11.06v23.6Zm95.15-2.58h-68.6v-22.13H2064Zm-137.93-81.87,14-51.63h182.92l14,51.63ZM2147,4401.05a10.88,10.88,0,0,1-11.07,11.07h-34.29a10.88,10.88,0,0,1-11.07-11.07v-23.6a10.87,10.87,0,0,1,11.07-11.06h34.66a10.87,10.87,0,0,1,11.07,11.06Z"/><path class="cls-4" d="M2120.46,4174.25h25.45l-2.58-6.27a36.56,36.56,0,0,0-48.31-19.55,38.75,38.75,0,0,0-15.49,12.17h-99.21a36.69,36.69,0,0,0-51.63-8.11,35.73,35.73,0,0,0-12.17,15.49l-2.58,6.27h25.45v15.85h-25.82l2.58,6.27a36.58,36.58,0,0,0,48.32,19.55,38.71,38.71,0,0,0,15.48-12.17h99.21a36.69,36.69,0,0,0,51.63,8.11,35.73,35.73,0,0,0,12.17-15.49l2.58-6.27h-25.08Z"/><path class="cls-8" d="M5899.25,1786.45c-7.32-138.85-106-264.59-238.32-306.42-139.94-44.22-299,13.46-381.21,134.35-84.53,124.35-71.11,290.92,2.11,417.07,40.1,69.08,98.28,128.14,167.89,167.57a581.59,581.59,0,0,0,56.29,27.59c18.81,8.11,39,18.78,60.11,16.81,20.19-1.88,40.79-12.94,59.07-21.17a496.32,496.32,0,0,0,50.57-26c121.44-72.36,205.66-201.68,221.2-342.34A425.71,425.71,0,0,0,5899.25,1786.45ZM5391,1647.72c72.54-82.92,203.2-98.11,294.52-37.67,89.53,59.25,124.19,178.81,81.69,277.1a229.4,229.4,0,0,1-98.45,108.67,224.85,224.85,0,0,1-68.11,24.56,203.45,203.45,0,0,1-42.22,3.6c-11.8-.3-34.52-7.5-45,.28-9,6.72-3.47,18.14-1.28,26.71,3.26,12.7,4.06,26.41-.25,39-7.31,21.24-30.78,37.28-53.3,37-40-.53-61-50.65-73.75-81.53C5334.23,1922.81,5298.37,1759.34,5391,1647.72Z"/><path class="cls-8" d="M7440.89,1885.23a40,40,0,1,0,40,40A40.07,40.07,0,0,0,7440.89,1885.23Zm0,64a24,24,0,1,1,24-24A24,24,0,0,1,7440.89,1949.27Z"/><path class="cls-8" d="M7681,1885.23a40,40,0,1,0,40,40A40.07,40.07,0,0,0,7681,1885.23Zm0,64a24,24,0,1,1,24-24A24,24,0,0,1,7681,1949.27Z"/><path class="cls-8" d="M7705.06,1837.2h-13.53a21.9,21.9,0,0,1-13.68-4.8l-63.07-50.47a40.33,40.33,0,0,0-25-8.77H7474a40,40,0,0,0-33.3,17.82l-13.62,20.46a21.94,21.94,0,0,1-18.24,9.75,40.07,40.07,0,0,0-40,40v32a40.08,40.08,0,0,0,40,40,7.24,7.24,0,0,0,1.07-.21,31.37,31.37,0,0,1-1.07-7.8,32,32,0,1,1,64,0,31.37,31.37,0,0,1-1.07,7.8,7.78,7.78,0,0,0,1.07.21H7649a7.24,7.24,0,0,0,1.07-.21,31.37,31.37,0,0,1-1.07-7.8,32,32,0,0,1,64,0,31.37,31.37,0,0,1-1.07,7.8,7.78,7.78,0,0,0,1.07.21c22.82,0,40-17.21,40-40C7753.09,1866.06,7736.26,1837.2,7705.06,1837.2Zm-184.12,16h-64a8,8,0,0,1-7.15-11.58l16-32a8,8,0,0,1,14.33,7.16l-10.24,20.43h51.09a8,8,0,1,1,0,16Zm64,32h-16a8,8,0,0,1,0-16h16a8,8,0,1,1,0,16Zm48-32H7553a8,8,0,0,1-8-8v-32a8,8,0,0,1,16,0v24h72a8,8,0,1,1,0,16Z"/><path class="cls-8" d="M7899.62,1829.86c-7.31-138.85-106-264.6-238.31-306.42-140-44.22-299.05,13.46-381.22,134.34-84.52,124.35-71.1,290.92,2.12,417.07,40.09,69.08,98.27,128.15,167.88,167.57a577.16,577.16,0,0,0,56.3,27.59c18.8,8.11,39,18.79,60.1,16.82,20.19-1.89,40.79-12.95,59.08-21.18a494.15,494.15,0,0,0,50.56-26c121.44-72.35,205.67-201.67,221.2-342.33A424.57,424.57,0,0,0,7899.62,1829.86Zm-508.27-138.74c72.55-82.92,203.2-98.1,294.52-37.67,89.54,59.26,124.19,178.81,81.69,277.1a229.27,229.27,0,0,1-98.45,108.68,225.11,225.11,0,0,1-68.11,24.56,204,204,0,0,1-42.21,3.59c-11.81-.3-34.53-7.49-45,.29-9,6.71-3.47,18.13-1.27,26.71,3.25,12.69,4.06,26.4-.26,38.95-7.31,21.23-30.78,37.27-53.29,37-40-.53-61-50.64-73.75-81.53C7334.6,1966.21,7298.74,1802.74,7391.35,1691.12Z"/><path class="cls-10" d="M688.89,5539c-7.32-138.85-106-264.6-238.32-306.42-139.94-44.22-299,13.46-381.21,134.35C-15.17,5491.28-1.75,5657.85,71.47,5784c40.09,69.08,98.28,128.14,167.88,167.56a579.53,579.53,0,0,0,56.3,27.6c18.81,8.1,39,18.78,60.1,16.81,20.2-1.88,40.8-12.94,59.08-21.17a496.32,496.32,0,0,0,50.57-26c121.44-72.36,205.66-201.68,221.2-342.34A425.71,425.71,0,0,0,688.89,5539ZM180.62,5400.27c72.54-82.92,203.2-98.11,294.52-37.67,89.53,59.25,124.18,178.81,81.68,277.1a229.33,229.33,0,0,1-98.44,108.67,224.85,224.85,0,0,1-68.11,24.56,203.45,203.45,0,0,1-42.22,3.6c-11.8-.3-34.53-7.5-45,.28-9,6.71-3.47,18.14-1.27,26.71,3.25,12.7,4.06,26.4-.26,38.95-7.3,21.24-30.77,37.28-53.29,37-40-.53-61-50.65-73.75-81.53C123.87,5675.36,88,5511.89,180.62,5400.27Z"/><path class="cls-11" d="M261.66,3007.88a46.48,46.48,0,1,0-46.47-46.47A46.51,46.51,0,0,0,261.66,3007.88Z"/><path class="cls-11" d="M447.55,2914.93H323.62v108.44H199.7V2884h-31v232.37h31v-46.48H478.53v46.48h31V2976.9A62,62,0,0,0,447.55,2914.93Z"/><path class="cls-11" d="M677.77,2992.64c-7.31-138.85-106-264.59-238.32-306.41-139.94-44.23-299,13.46-381.21,134.34-84.53,124.35-71.1,290.92,2.11,417.07,40.1,69.08,98.28,128.14,167.89,167.57a581.59,581.59,0,0,0,56.29,27.59c18.81,8.11,39,18.78,60.11,16.82,20.19-1.89,40.79-12.95,59.07-21.18a496.32,496.32,0,0,0,50.57-26c121.44-72.36,205.66-201.67,221.2-342.34A425.71,425.71,0,0,0,677.77,2992.64ZM169.5,2853.91C242.05,2771,372.7,2755.8,464,2816.24c89.54,59.25,124.19,178.81,81.69,277.1A229.35,229.35,0,0,1,447.26,3202a224.58,224.58,0,0,1-68.11,24.56,203.45,203.45,0,0,1-42.22,3.6c-11.8-.3-34.52-7.5-45,.28-9,6.72-3.47,18.14-1.28,26.71,3.26,12.7,4.06,26.41-.25,39-7.31,21.24-30.78,37.28-53.3,37-40-.53-61-50.65-73.74-81.53C112.75,3129,76.89,2965.53,169.5,2853.91Z"/></g></g></svg>