<?xml version="1.0" encoding="utf-8"?>
<!-- Generator: Adobe Illustrator 24.0.0, SVG Export Plug-In . SVG Version: 6.00 Build 0)  -->
<svg version="1.1" id="Capa_1" xmlns="http://www.w3.org/2000/svg" xmlns:xlink="http://www.w3.org/1999/xlink" x="0px" y="0px"
	 viewBox="0 0 512 512" style="enable-background:new 0 0 512 512;" xml:space="preserve">
<path d="M217.3,138.2L217.3,138.2C216.7,138.8,216.2,139.9,217.3,138.2z"/>
<path d="M255.9,512c113.4,0,205.3-92,205.3-205.4c0-78.8-45.1-150.7-116.1-184.9l37.3-44.3c5.3-6.3,5.8-15.3,1.2-22.2L351.9,8.2
	c-3.3-5-8.8-8-14.8-8.2H185.4c-6.2,0-11.9,3.1-15.4,8.2L138.6,55c-4.6,6.8-4.1,15.9,1.2,22.2l34.8,41.2
	c-104.1,45.1-151.9,166-106.8,270C100.3,463.3,174.2,511.9,255.9,512z M219.7,21.1L256.6,58l-36.9,36.9L182.7,58L219.7,21.1z
	 M255.9,160.4c80.8,0,146.2,65.5,146.2,146.2s-65.5,146.2-146.2,146.2s-146.2-65.5-146.2-146.2v0
	C109.7,225.9,175.1,160.5,255.9,160.4z"/>
</svg>
