<svg id="Layer_1" enable-background="new 0 0 512.008 512.008" height="512" viewBox="0 0 512.008 512.008" width="512" xmlns="http://www.w3.org/2000/svg"><g><path d="m209.415 406.824c8.004-.006 16.378-.19 25.007-.633 35.639-1.827 68.431-7.609 97.466-17.187 36.994-12.204 67.991-30.63 92.129-54.768 73.187-73.187 86.457-202.186 87.854-272.566v.001c.559-28.026-.766-46.108-.822-46.864-.623-8.321-7.537-14.767-15.881-14.805-.372-.001-9.212-.034-24.025.605-64.977 2.812-224.352 17.599-300.753 94.002-33.36 33.36-54.34 81.532-62.355 143.177-6.303 48.469-3.213 94.447.491 124.501.064.514.129 1.026.194 1.536.493 3.86 5.046 5.732 8.066 3.279 8.271-6.719 15.648-14.673 21.996-23.744 14.369-20.528 31.64-43.696 49.556-64.362 1.136-1.311 1.513-3.106.995-4.762-5.11-16.319-13.329-44.675-13.329-58.232 0-10.217 9.576-18.198 20.244-15.454 7.018 1.805 11.704 8.315 11.757 15.561.034 4.755 2.331 15.001 5.406 26.403.966 3.581 5.352 4.89 8.142 2.445 9.414-8.249 18.624-14.929 27.296-19.266 5.731-2.865 11.361-6.258 16.822-9.99 1.969-1.346 2.719-3.889 1.782-6.082-5.075-11.88-11.195-28.641-11.441-40.863-.177-8.761 6.847-16.543 15.607-16.749 9.013-.212 16.385 7.031 16.385 15.995 0 3.648 1.65 9.746 3.99 16.417 1.225 3.492 5.682 4.509 8.287 1.881 18.367-18.522 30.496-35.309 30.71-35.606 5.145-7.181 15.137-8.839 22.319-3.701 7.184 5.139 8.848 15.122 3.714 22.309-.918 1.286-12.982 18.024-31.736 37.251-2.914 2.987-1.105 8.005 3.042 8.467 5.219.581 10.451.962 15.281.982 8.511.035 15.846 6.505 16.363 15 .565 9.29-6.801 17.001-15.969 17.001-20.334 0-45.136-5.097-55.266-7.39-1.373-.311-2.808-.024-3.966.778-6.934 4.803-14.168 9.202-21.613 12.924-11.079 5.539-25.394 17.871-41.837 35.769-2.48 2.699-1.324 7.062 2.17 8.17 10.111 3.208 19.617 5.691 24.347 5.748 7.6.092 14.346 5.248 15.835 12.701 2.054 10.281-5.754 19.3-15.67 19.3-13.146 0-35.962-7.482-50.277-12.7-2.034-.741-4.31-.091-5.64 1.617-8.728 11.211-17.795 23.513-27.087 36.789-8.216 11.739-17.822 22.042-28.644 30.738-3.354 2.695-1.953 8.089 2.289 8.81 13.545 2.299 38.572 5.59 70.769 5.567z"/><path d="m16.016 512.006c-5.87 0-11.521-3.241-14.323-8.848-3.948-7.896-.754-17.497 7.134-21.456.655-.333 42.871-22.018 56.321-55.642 3.398-8.479 7.926-16.577 13.462-24.079 5.249-7.11 15.265-8.62 22.375-3.373s8.62 15.265 3.373 22.375c-3.923 5.314-7.119 11.024-9.503 16.971-18.048 45.119-69.514 71.268-71.696 72.359-2.297 1.148-4.739 1.693-7.143 1.693z"/></g></svg>