<svg height="512pt" viewBox="-1 0 512 512" width="512pt" xmlns="http://www.w3.org/2000/svg"><path d="m426 442c-19.300781 0-35 15.699219-35 35s15.699219 35 35 35 35-15.699219 35-35-15.699219-35-35-35zm0 0"/><path d="m111 412c-27.570312 0-50 22.429688-50 50s22.429688 50 50 50 50-22.429688 50-50-22.429688-50-50-50zm0 0"/><path d="m430.167969 26.960938c-9.472657-3.703126-19.757813-7.046876-30.726563-10.023438 28.894532 25.53125 44.558594 59.65625 44.558594 98.0625 0 5.257812-.914062 10.304688-2.578125 15h53.578125c8.285156 0 15-6.714844 15-15 0-25.925781-13.851562-62.246094-79.832031-88.039062zm0 0"/><path d="m68.578125 130c-1.664063-4.695312-2.578125-9.742188-2.578125-15 0-38.410156 15.664062-72.535156 44.558594-98.0625-10.96875 2.976562-21.253906 6.320312-30.726563 10.023438-65.980469 25.792968-79.832031 62.113281-79.832031 88.039062 0 8.285156 6.714844 15 15 15zm0 0"/><path d="m111 130h53.578125c-1.664063-4.695312-2.578125-9.742188-2.578125-15 0-37.574219 6.570312-70.273438 18.996094-94.566406 2.019531-3.941406 4.195312-7.671875 6.519531-11.191406-15.875 4.699218-30.253906 11.125-42.527344 19.121093-32.046875 20.878907-48.988281 50.835938-48.988281 86.636719 0 8.285156 6.714844 15 15 15zm0 0"/><path d="m348 115c0 5.257812-.914062 10.304688-2.578125 15h53.578125c8.285156 0 15-6.714844 15-15 0-35.800781-16.9375-65.757812-48.988281-86.636719-12.273438-7.996093-26.652344-14.421875-42.527344-19.125 2.324219 3.523438 4.5 7.253907 6.519531 11.195313 12.425782 24.292968 18.996094 56.992187 18.996094 94.566406zm0 0"/><path d="m201 217c0-8.285156-6.714844-15-15-15h-60c-8.285156 0-15 6.714844-15 15v45h90zm0 0"/><path d="m486 202h-160c-8.285156 0-15 6.714844-15 15s6.714844 15 15 15h5v30h150v-30h5c8.285156 0 15-6.714844 15-15s-6.714844-15-15-15zm0 0"/><path d="m486 292h-216v-162h33c8.285156 0 15-6.714844 15-15 0-32.84375-5.429688-60.820312-15.703125-80.898438-11.253906-21.992187-28.050781-34.101562-47.296875-34.101562s-36.042969 12.109375-47.296875 34.101562c-10.273437 20.078126-15.703125 48.054688-15.703125 80.898438 0 8.285156 6.714844 15 15 15h33v162h-176c-30.328125 0-55 24.671875-55 55 0 8.285156 6.714844 15 15 15s15-6.714844 15-15c0-13.785156 11.214844-25 25-25h47v60c40.722656 0 74.414062 30.59375 79.351562 70h175.65625c9.816407-23.46875 33.007813-40 59.992188-40s50.175781 16.53125 59.992188 40h.007812c8.285156 0 15-6.714844 15-15v-130c0-8.285156-6.714844-15-15-15zm-285 85c0 8.285156-6.714844 15-15 15s-15-6.714844-15-15v-40c0-8.285156 6.714844-15 15-15s15 6.714844 15 15zm60 0c0 8.285156-6.714844 15-15 15s-15-6.714844-15-15v-40c0-8.285156 6.714844-15 15-15s15 6.714844 15 15zm60 0c0 8.285156-6.714844 15-15 15s-15-6.714844-15-15v-40c0-8.285156 6.714844-15 15-15s15 6.714844 15 15zm60 0c0 8.285156-6.714844 15-15 15s-15-6.714844-15-15v-40c0-8.285156 6.714844-15 15-15s15 6.714844 15 15zm60 0c0 8.285156-6.714844 15-15 15s-15-6.714844-15-15v-40c0-8.285156 6.714844-15 15-15s15 6.714844 15 15zm0 0"/></svg>