<?xml version="1.0" encoding="iso-8859-1"?>
<!-- Generator: Adobe Illustrator 18.1.1, SVG Export Plug-In . SVG Version: 6.00 Build 0)  -->
<svg version="1.1" id="Capa_1" xmlns="http://www.w3.org/2000/svg" xmlns:xlink="http://www.w3.org/1999/xlink" x="0px" y="0px"
	 viewBox="0 0 491.096 491.096" style="enable-background:new 0 0 512 512;" xml:space="preserve">
<g>
	<g>
		<path style="fill:#010002;" d="M247.881,136.495H87.106v4.308c0,141.096,21.744,212.611,68.15,222.886
			c3.91,0.87,7.974,1.349,12.242,1.349c4.259,0,8.324-0.48,12.242-1.349c46.398-10.275,68.15-81.79,68.15-222.886v-4.308H247.881z
			 M215.562,312.479c-1.073,2.926-2.219,5.609-3.422,8.064c-11.12,23.857-26.011,35.88-44.642,35.88
			c-18.655,0-33.555-12.055-44.683-35.961c-1.179-2.406-2.292-5.032-3.349-7.885c-13.713-35.026-20.769-87.886-21.02-164.433
			h138.096C236.29,224.617,229.25,277.445,215.562,312.479z"/>
		<path style="fill:#010002;" d="M167.733,341.904c22.565,0,44.415-21.362,53.356-109.833h-106.72
			C121.685,317.974,145.168,341.904,167.733,341.904z"/>
		<path style="fill:#010002;" d="M167.497,374.939c-4.154,0-8.234-0.423-12.242-1.26v83.676h-30.279
			c-4.17,0-7.551,2.569-7.551,5.747v6.861c0,3.17,3.381,5.747,7.551,5.747h83.098c4.17,0,7.56-2.569,7.56-5.747v-6.861
			c0-3.17-3.381-5.747-7.56-5.747h-28.344v-83.676C175.732,374.516,171.651,374.939,167.497,374.939z"/>
		<path style="fill:#010002;" d="M265.804,165.392v5.308v22.801c0,1.439-0.106,3.357,0,5.121v272.836h0.398
			c-0.236,0.854-0.398,1.748-0.398,2.707c0,9.356,38.196,16.932,73.344,16.932s64.842-7.584,64.842-16.932
			c0-0.975-0.13-1.837-0.252-2.707h0.252v-65.029h-56.9V203.214h48.373h8.527v-9.714V170.7v-5.308
			c0-3.455-1.195-27.206-37.871-51.592c-0.333,0-10.494-73.157-10.494-73.157h-48.771l-7.007,73.157
			C267.91,130.057,265.804,161.937,265.804,165.392z"/>
		<path style="fill:#010002;" d="M317.283,32.514h27.093c5.991,0,10.844-8.194,10.844-14.566v-2.886
			C355.219,8.698,350.366,0,344.383,0h-27.093c-5.991,0-10.844,8.698-10.844,15.062v2.886
			C306.447,24.321,311.3,32.514,317.283,32.514z"/>
	</g>
</g>
<g>
</g>
<g>
</g>
<g>
</g>
<g>
</g>
<g>
</g>
<g>
</g>
<g>
</g>
<g>
</g>
<g>
</g>
<g>
</g>
<g>
</g>
<g>
</g>
<g>
</g>
<g>
</g>
<g>
</g>
</svg>
