<?xml version="1.0" encoding="utf-8"?>
<!-- Generator: Adobe Illustrator 24.1.0, SVG Export Plug-In . SVG Version: 6.00 Build 0)  -->
<svg version="1.1" id="Filled" xmlns="http://www.w3.org/2000/svg" xmlns:xlink="http://www.w3.org/1999/xlink" x="0px" y="0px"
	 viewBox="0 0 512 512" style="enable-background:new 0 0 512 512;" xml:space="preserve">
<path d="M328,144h-40v-40c0-4.4-3.6-8-8-8h-48c-4.4,0-8,3.6-8,8v40h-40c-4.4,0-8,3.6-8,8v48c0,4.4,3.6,8,8,8h40v40c0,4.4,3.6,8,8,8
	h48c4.4,0,8-3.6,8-8v-40h40c4.4,0,8-3.6,8-8v-48C336,147.6,332.4,144,328,144z M328,200h-48v48h-48v-48h-48v-48h48v-48h48v48h48V200
	z"/>
<path d="M414.6,42.9C387.9,15.3,348,7.8,321.8,25.5c-3.3,2.3-6.3,4.8-9,7.7c-3.1,3.2-6.5,6.1-10.1,8.7
	c-13.6,9.6-29.7,14.8-46.3,14.9h-0.5c-16.6-0.2-32.8-5.3-46.3-14.9c-3.7-2.5-7.1-5.5-10.1-8.7c-2.7-2.9-5.8-5.5-9-7.7
	C164,7.8,124.1,15.3,97.4,42.9C63.2,78.2,57.8,140.7,70,181.6c5.9,19.7,14.1,28.6,21.4,36.5c6.7,7.3,12.5,13.6,16.7,28.7
	c6,21.8,1.7,37.2-3.8,56.7c-5.4,19-11.5,40.6-9.1,72.6c1.7,23.2,7.5,46.8,16.3,66.3c10,22.3,23.5,38.3,38.8,46.5
	c13.2,7,29.4,9.1,39.3,5.3c6.3-2.4,8.9-6.6,10-9.6c3-8.3-3-14.9-8.8-21.4c-5.5-6.1-12.3-13.7-16.6-25.1
	c-14.5-38.6,11.2-89.5,12.3-91.6c14.5-28.3,39.2-46.1,69.5-50.4c30.3,4.2,55,22.1,69.5,50.4c1.1,2.1,26.9,53,12.3,91.6
	c-4.3,11.4-11.1,19-16.6,25.1c-5.8,6.5-11.8,13.1-8.8,21.4c1.1,3,3.8,7.2,10,9.6c3.7,1.3,7.6,2,11.6,1.9c9.7-0.2,19.2-2.6,27.8-7.2
	c15.4-8.1,28.8-24.2,38.8-46.5c8.8-19.6,14.6-43.1,16.3-66.3c2.3-32-3.8-53.6-9.1-72.6c-5.5-19.5-9.8-34.9-3.8-56.7
	c4.1-15.1,9.9-21.4,16.7-28.7c7.3-7.9,15.5-16.9,21.4-36.5C454.2,140.7,448.8,78.2,414.6,42.9z M434.3,179.3
	c-10.7,35.7-28.8,31.4-38.1,65.4c-12.7,46.3,17.3,67.4,12.7,130.8c-3.2,43.4-21.4,90.8-50.9,106.3c-14.7,7.7-34.9,8.9-38.1,0
	c-2.9-7.9,16.3-16.7,25.4-40.9c15.6-41.5-10.7-94.1-12.7-98.1C307.3,293.7,263,289,256,288c-7,1-51.3,5.7-76.6,54.8
	c-2,4-28.4,56.6-12.7,98.1c9.1,24.1,28.3,33,25.4,40.9c-3.3,8.9-23.4,7.7-38.1,0c-29.4-15.5-47.7-62.8-50.9-106.3
	c-4.6-63.4,25.4-84.5,12.7-130.8c-9.3-34-27.4-29.7-38.1-65.4c-11.6-38.6-6.6-97.8,25.4-130.8c23.8-24.5,59.6-31.9,82.6-16.3
	c7.3,4.9,8.6,9,19.1,16.3c14.9,10.5,32.6,16.2,50.9,16.4h0.7c18.2-0.2,36-5.9,50.8-16.4c10.5-7.3,11.8-11.4,19.1-16.3
	c23-15.5,58.9-8.2,82.6,16.3C440.9,81.5,445.9,140.6,434.3,179.3z"/>
<path d="M430,113c-2.7-17.1-9.6-41.1-26.9-59c-21.1-21.8-52.9-28.5-72.4-15.3c-2.4,1.7-4.6,3.6-6.6,5.8c-3.8,3.9-7.9,7.4-12.3,10.5
	c-16.2,11.4-35.5,17.6-55.3,17.8h-0.9c-19.8-0.2-39.1-6.4-55.3-17.8c-4.4-3.1-8.6-6.6-12.3-10.5c-2-2.2-4.2-4.1-6.6-5.8
	c-19.5-13.2-51.3-6.5-72.4,15.3C91.6,71.9,84.7,96,81.9,113c-3.5,21.8-2.3,45.1,3.4,63.9c4.8,16.1,11.2,23,17.9,30.3
	c7.4,8.1,15.2,16.5,20.3,35.3c7.2,26.1,1.8,45.1-3.9,65.3c-5.3,18.6-10.7,37.9-8.6,67.1c3.3,46.1,22.5,87.1,46.6,99.8
	c10.9,5.8,22,6,25.9,4.7c-1.1-1.5-3.1-3.8-4.7-5.5c-6.1-6.7-14.4-15.9-19.7-30.1c-16.7-44.4,10-98.5,13.1-104.6
	c17.1-33.2,46.2-54.1,82-59l0.6-0.1c0.7-0.1,1.5-0.1,2.2,0l0.6,0.1c35.8,4.8,64.9,25.8,82,59c3.1,6,29.8,60.2,13.1,104.6
	c-5.3,14.2-13.6,23.4-19.7,30.1c-1.6,1.7-3.6,4-4.7,5.5c3.9,1.4,15,1.1,25.9-4.7c24.1-12.7,43.3-53.7,46.6-99.8
	c2.1-29.2-3.3-48.5-8.6-67.1c-5.7-20.1-11.1-39.2-3.9-65.3c5.2-18.8,12.9-27.2,20.3-35.3c6.7-7.3,13-14.2,17.9-30.3
	C432.3,158.1,433.5,134.8,430,113z M336,200c0,4.4-3.6,8-8,8h-40v40c0,4.4-3.6,8-8,8h-48c-4.4,0-8-3.6-8-8v-40h-40c-4.4,0-8-3.6-8-8
	v-48c0-4.4,3.6-8,8-8h40v-40c0-4.4,3.6-8,8-8h48c4.4,0,8,3.6,8,8v40h40c4.4,0,8,3.6,8,8V200z M398.3,188.9
	C398.3,188.9,398.3,188.9,398.3,188.9c-2.8,3.6-7.8,4.2-11.3,1.5c-3.5-2.7-4.1-7.8-1.4-11.2c9.6-12.5,14.4-27.4,14.4-42.5
	c0-15.2-4.8-30.6-14.5-43.9c-2.6-3.6-1.8-8.6,1.8-11.2c3.6-2.6,8.6-1.8,11.2,1.8C422,115.7,422,158.1,398.3,188.9z"/>
<path d="M328,144h-40v-40c0-4.4-3.6-8-8-8h-48c-4.4,0-8,3.6-8,8v40h-40c-4.4,0-8,3.6-8,8v48c0,4.4,3.6,8,8,8h40v40c0,4.4,3.6,8,8,8
	h48c4.4,0,8-3.6,8-8v-40h40c4.4,0,8-3.6,8-8v-48C336,147.6,332.4,144,328,144z M328,200h-48v48h-48v-48h-48v-48h48v-48h48v48h48V200
	z"/>
</svg>
