<?xml version="1.0" encoding="utf-8"?>
<!-- Generator: Adobe Illustrator 24.0.0, SVG Export Plug-In . SVG Version: 6.00 Build 0)  -->
<svg version="1.1" id="Capa_1" xmlns="http://www.w3.org/2000/svg" xmlns:xlink="http://www.w3.org/1999/xlink" x="0px" y="0px"
	 viewBox="0 0 512 512" style="enable-background:new 0 0 512 512;" xml:space="preserve">
<g>
	<g>
		<g>
			<path d="M25.1,230.4c8.3,0,16.7,0,25.1,0c6.5,0,13.4-2.8,18-7.4c4.4-4.4,7.7-11.6,7.4-18c-0.3-6.6-2.4-13.4-7.4-18
				c-5-4.6-11.1-7.4-18-7.4c-8.3,0-16.7,0-25.1,0c-6.5,0-13.4,2.8-18,7.4c-4.4,4.4-7.7,11.6-7.4,18c0.3,6.6,2.4,13.4,7.4,18
				C12.1,227.5,18.2,230.3,25.1,230.4L25.1,230.4z"/>
		</g>
	</g>
	<g>
		<g>
			<path d="M291.8,194.4c-20.9,0-41.8-0.1-62.7,0c-3,0-5.9,0-8.9,0l0,50.8l0,0c20.9,0,41.8,0.1,62.7,0c3,0,5.9,0,8.9,0"/>
		</g>
	</g>
	<g>
		<g>
			<path d="M462.1,231c8.3,0,16.6,0,24.9,0c6.5,0,13.4-2.8,18-7.4c4.4-4.4,7.7-11.6,7.4-18c-0.3-6.6-2.4-13.4-7.4-18
				c-5-4.6-11.1-7.4-18-7.4c-8.3,0-16.6,0-24.9,0c-6.5,0-13.4,2.8-18,7.4c-4.4,4.4-7.7,11.6-7.4,18c0.3,6.6,2.4,13.4,7.4,18
				C449.1,228.1,455.2,231,462.1,231L462.1,231z"/>
		</g>
	</g>
	<g>
		<path d="M186.7,162.7H84.2C51.5,162.7,25,189.2,25,222v16.8c0,61,49.5,110.5,110.5,110.5h0c61,0,110.5-49.5,110.5-110.5V222
			C246,189.2,219.4,162.7,186.7,162.7z M144.9,226.4l-56.3,56.3c-5.2,5.2-13.6,5.2-18.8,0c-5.2-5.2-5.2-13.6,0-18.8l56.3-56.3
			c5.2-5.2,13.6-5.2,18.8,0C150.1,212.8,150.1,221.2,144.9,226.4z"/>
		<path d="M427.7,162.7H325.2c-32.7,0-59.2,26.5-59.2,59.2v16.8c0,61,49.5,110.5,110.5,110.5h0c61,0,110.5-49.5,110.5-110.5V222
			C487,189.2,460.4,162.7,427.7,162.7z M385.4,226.4l-56.3,56.3c-5.2,5.2-13.6,5.2-18.8,0c-5.2-5.2-5.2-13.6,0-18.8l56.3-56.3
			c5.2-5.2,13.6-5.2,18.8,0C390.6,212.8,390.6,221.2,385.4,226.4z"/>
	</g>
</g>
</svg>
