<svg xmlns="http://www.w3.org/2000/svg" viewBox="0 0 432.15 496"><defs><style>.cls-1{fill:#f7a943;}.cls-2{fill:#fff;}</style></defs><g id="Capa_2" data-name="Capa 2"><g id="Capa_1-2" data-name="Capa 1"><path class="cls-1" d="M431.85,204.68C427.19,116.21,364.33,36.09,280,9.44,190.84-18.74,89.47,18,37.11,95-16.75,174.27-8.2,280.4,38.46,360.79c25.54,44,62.62,81.64,107,106.76a367.36,367.36,0,0,0,35.87,17.58c12,5.17,24.86,12,38.29,10.72,12.87-1.2,26-8.25,37.64-13.49a313.91,313.91,0,0,0,32.22-16.58c77.38-46.1,131.05-128.5,141-218.12A271.87,271.87,0,0,0,431.85,204.68ZM108,116.28c46.22-52.83,129.48-62.51,187.66-24,57,37.76,79.13,113.93,52,176.56A146.1,146.1,0,0,1,285,338.08a143.25,143.25,0,0,1-43.4,15.65,129.81,129.81,0,0,1-26.9,2.3c-7.52-.2-22-4.78-28.65.18-5.75,4.27-2.21,11.55-.82,17,2.08,8.09,2.59,16.83-.16,24.82-4.65,13.53-19.61,23.75-34,23.56-25.48-.33-38.86-32.27-47-52C71.84,291.56,49,187.4,108,116.28Z"/><path class="cls-2" d="M295.66,92.28c-58.18-38.51-141.44-28.83-187.66,24-59,71.12-36.16,175.28-3.9,253.37,8.13,19.68,21.51,51.62,47,52,14.35.19,29.31-10,34-23.56,2.75-8,2.24-16.73.16-24.82-1.39-5.46-4.93-12.74.82-17,6.65-5,21.13-.38,28.65-.18a129.81,129.81,0,0,0,26.9-2.3A143.25,143.25,0,0,0,285,338.08a146.1,146.1,0,0,0,62.73-69.24C374.79,206.21,352.71,130,295.66,92.28Z"/></g></g></svg>