<svg height="512pt" viewBox="0 -16 512 512" width="512pt" xmlns="http://www.w3.org/2000/svg"><path d="m212.800781 46c0-17.105469-8.496093-33.984375-22.734375-43.476562-6.941406-4.585938-16.214844-2.753907-20.800781 4.160156-4.597656 6.898437-2.722656 16.214844 4.160156 20.800781 5.964844 3.96875 9.375 11.355469 9.375 18.519531 0 7.164063-3.410156 13.550782-9.375 17.519532-14.238281 9.492187-22.734375 25.371093-22.734375 42.480468s8.496094 32.988282 22.734375 42.480469c7.015625 4.648437 16.28125 2.632813 20.800781-4.160156 4.601563-6.898438 2.742188-16.203125-4.160156-20.800781-5.960937-3.972657-9.375-10.359376-9.375-17.523438s3.414063-13.546875 9.375-17.519531c14.238282-9.492188 22.734375-25.371094 22.734375-42.480469zm0 0"/><path d="m287.800781 46c0-17.105469-8.496093-33.984375-22.734375-43.476562-6.941406-4.585938-16.214844-2.753907-20.800781 4.160156-4.597656 6.898437-2.722656 16.214844 4.160156 20.800781 5.964844 3.96875 9.375 11.355469 9.375 18.519531 0 7.164063-3.410156 13.550782-9.375 17.519532-14.238281 9.492187-22.734375 25.371093-22.734375 42.480468s8.496094 32.988282 22.734375 42.480469c7.015625 4.648437 16.28125 2.632813 20.800781-4.160156 4.601563-6.898438 2.742188-16.203125-4.160156-20.800781-5.960937-3.972657-9.375-10.359376-9.375-17.523438s3.414063-13.546875 9.375-17.519531c14.238282-9.492188 22.734375-25.371094 22.734375-42.480469zm0 0"/><path d="m362.800781 46c0-17.105469-8.496093-33.984375-22.734375-43.476562-6.941406-4.585938-16.214844-2.753907-20.800781 4.160156-4.597656 6.898437-2.722656 16.214844 4.160156 20.800781 5.964844 3.96875 9.375 11.355469 9.375 18.519531 0 7.164063-3.410156 13.550782-9.375 17.519532-14.238281 9.492187-22.734375 25.371093-22.734375 42.480468s8.496094 32.988282 22.734375 42.480469c7.015625 4.648437 16.28125 2.632813 20.800781-4.160156 4.601563-6.898438 2.742188-16.203125-4.160156-20.800781-5.960937-3.972657-9.375-10.359376-9.375-17.523438s3.414063-13.546875 9.375-17.519531c14.238282-9.492188 22.734375-25.371094 22.734375-42.480469zm0 0"/><path d="m429.15625 322.242188-40.675781 61.011718c-4.519531 6.792969-13.785157 8.808594-20.800781 4.160156-6.898438-4.601562-8.757813-13.902343-4.160157-20.800781l34.921875-52.378906c-15.273437-3.390625-31.433594-6.246094-48.328125-8.429687l-51.632812 77.449218c-4.519531 6.792969-13.785157 8.808594-20.800781 4.160156-6.898438-4.601562-8.757813-13.902343-4.160157-20.800781l42.820313-64.230469c-17.222656-1.367187-34.769532-2.152343-52.390625-2.328124l-55.46875 83.195312c-4.519531 6.792969-13.785157 8.8125-20.800781 4.160156-6.898438-4.597656-8.757813-13.898437-4.160157-20.800781l44.074219-66.101563c-19.296875.703126-38.351562 2.152344-56.804688 4.28125l-52.308593 78.460938c-4.519531 6.792969-13.785157 8.8125-20.800781 4.160156-6.898438-4.597656-8.757813-13.898437-4.160157-20.800781l37.238281-55.855469c-74.09375 13.703125-130.757812 40.296875-130.757812 79.179688 0 59.089844 129.277344 91 256 91s256-31.910156 256-91c0-29.917969-33.9375-52.578125-82.84375-67.691406zm0 0"/><path d="m429.148438 202.238281-40.667969 61.015625c-4.519531 6.792969-13.785157 8.808594-20.800781 4.160156-6.898438-4.601562-8.761719-13.902343-4.160157-20.800781l34.914063-52.382812c-15.269532-3.390625-31.421875-6.242188-48.3125-8.425781l-51.640625 77.445312c-4.519531 6.792969-13.785157 8.8125-20.800781 4.160156-6.898438-4.597656-8.757813-13.914062-4.160157-20.800781l42.828125-64.226563c-17.230468-1.367187-34.78125-2.152343-52.398437-2.332031l-55.46875 83.199219c-4.519531 6.792969-13.785157 8.808594-20.800781 4.160156-6.898438-4.597656-8.757813-13.898437-4.160157-20.800781l44.070313-66.105469c-19.296875.707032-38.34375 2.152344-56.796875 4.285156l-52.308594 78.460938c-4.523437 6.792969-13.789063 8.808594-20.800781 4.160156-6.902344-4.597656-8.761719-13.898437-4.160156-20.800781l37.238281-55.855469c-74.097657 13.703125-130.761719 40.296875-130.761719 79.179688 0 17.371094 10.746094 31.332031 26.644531 42.554687 56.605469-30.402343 147.707031-42.554687 229.355469-42.554687 81.53125 0 172.476562 12.125 229.097656 42.429687 17.585938-12.480469 26.902344-26.800781 26.902344-42.429687 0-29.917969-33.941406-52.578125-82.851562-67.695313zm0 0"/></svg>