<svg id="Capa_1" enable-background="new 0 0 512 512" height="512" viewBox="0 0 512 512" width="512" xmlns="http://www.w3.org/2000/svg"><g><path d="m421.167 61c0-33.091-26.909-61-60-61s-60 27.909-60 61v16.842l-90 43.158h135c8.284 0 15 6.714 15 15 0 8.284-6.716 15-15 15h-135l90 43.158v16.842c0 33.091 26.909 60 60 60s60-26.909 60-60v-1.509c34.189-6.973 60-37.266 60-73.491s-25.811-66.519-60-73.491z"/><path d="m239.261 271h-28.094c-33.091 0-60 26.909-60 60 0 19.028 9.17 37.119 24.521 48.398 14.485 10.655 32.814 13.735 50.896 9.346 11.527-38.978 18.404-80.879 12.677-117.744z"/><path d="m106.167 512h60c5.596 0 11.997-5.596 14.575-10.562 9.527-18.329 23.297-47.935 35.325-80.832-22.656 1.19-41.884-5.085-58.147-17.038-23.013-16.904-36.753-44.033-36.753-72.568 0-49.629 40.371-90 90-90h19.792c-4.667-11.272-10.677-21.403-18.437-30h-152.71c-8.831 9.785-15.756 21.257-20.559 34.512-29.707 82.016 26.704 206.605 53.013 257.128 2.299 5.654 7.793 9.36 13.901 9.36z"/><path d="m181.167 106c0-8.291-6.709-15-15-15h-60c-8.291 0-15 6.709-15 15v75h90z"/></g></svg>