<?xml version="1.0" encoding="iso-8859-1"?>
<!-- Generator: Adobe Illustrator 19.0.0, SVG Export Plug-In . SVG Version: 6.00 Build 0)  -->
<svg version="1.1" id="Capa_1" xmlns="http://www.w3.org/2000/svg" xmlns:xlink="http://www.w3.org/1999/xlink" x="0px" y="0px"
	 viewBox="0 0 426.667 426.667" style="enable-background:new 0 0 426.667 426.667;" xml:space="preserve">
<g>
	<g>
		<g>
			<path d="M170.667,128.002l-69.333,69.333c6.613,2.56,11.947,5.653,16.427,8.32c7.893,4.8,12.693,7.68,24.533,7.68
				c11.84,0,16.64-2.88,24.533-7.573c9.6-5.76,22.827-13.76,46.507-13.76s36.907,7.893,46.507,13.76
				c7.893,4.8,12.693,7.573,24.533,7.573c11.84,0,16.64-2.88,24.533-7.573c2.56-1.6,5.44-3.2,8.64-4.907L180.907,64.002
				C147.733,30.828,117.333,21.122,64,21.335v53.333c38.827-0.213,61.547,8.32,85.333,32L170.667,128.002z"/>
			<path d="M401.92,259.095c-9.6-5.867-22.827-13.76-46.507-13.76s-36.907,8-46.507,13.76c-7.893,4.693-12.693,7.573-24.533,7.573
				c-11.84,0-16.64-2.773-24.533-7.573c-9.6-5.867-22.827-13.76-46.507-13.76s-36.907,8-46.507,13.76
				c-7.893,4.693-12.693,7.573-24.533,7.573c-11.947,0-16.747-2.88-24.64-7.68c-9.6-5.76-22.827-13.653-46.507-13.653
				s-36.907,7.893-46.507,13.653c-8,4.8-12.8,7.68-24.64,7.68v42.667c23.68,0,36.907-7.893,46.507-13.653
				c8-4.8,12.693-7.68,24.64-7.68s16.747,2.88,24.64,7.68c9.6,5.76,22.827,13.653,46.507,13.653s36.907-7.893,46.72-13.76
				c7.893-4.693,12.693-7.573,24.533-7.573c11.84,0,16.64,2.773,24.533,7.573c9.6,5.867,22.827,13.76,46.507,13.76
				c23.68,0,36.907-8,46.507-13.76c7.893-4.693,12.693-7.573,24.533-7.573c11.84,0,16.64,2.88,24.533,7.573
				c9.6,5.867,22.827,13.76,46.507,13.76v-42.667C414.827,266.668,410.027,263.788,401.92,259.095z"/>
			<path d="M355.413,341.335c-23.68,0-36.907,8-46.507,13.76c-7.893,4.693-12.693,7.573-24.533,7.573
				c-11.84,0-16.64-2.773-24.533-7.573c-9.6-5.867-22.827-13.76-46.507-13.76s-36.907,8-46.507,13.76
				c-7.893,4.693-12.693,7.573-24.533,7.573c-11.947,0-16.747-2.88-24.64-7.68c-9.6-5.76-22.827-13.653-46.507-13.653
				s-36.907,7.893-46.507,13.653c-8,4.8-12.8,7.68-24.64,7.68v42.667c23.68,0,36.907-7.893,46.507-13.653
				c8-4.8,12.693-7.68,24.64-7.68s16.747,2.88,24.64,7.68c9.6,5.76,22.827,13.653,46.507,13.653s36.907-7.893,46.72-13.76
				c7.893-4.693,12.693-7.573,24.533-7.573c11.84,0,16.64,2.773,24.533,7.573c9.6,5.867,22.827,13.76,46.507,13.76
				c23.68,0,36.907-8,46.507-13.76c7.893-4.693,12.693-7.573,24.533-7.573c11.84,0,16.64,2.88,24.533,7.573
				c9.6,5.867,22.827,13.76,46.507,13.76v-42.667c-11.84,0-16.64-2.88-24.747-7.573C392.32,349.228,379.093,341.335,355.413,341.335
				z"/>
		</g>
	</g>
</g>
<g>
	<g>
		<circle cx="309.333" cy="74.668" r="53.333"/>
	</g>
</g>
<g>
</g>
<g>
</g>
<g>
</g>
<g>
</g>
<g>
</g>
<g>
</g>
<g>
</g>
<g>
</g>
<g>
</g>
<g>
</g>
<g>
</g>
<g>
</g>
<g>
</g>
<g>
</g>
<g>
</g>
</svg>
