<?xml version="1.0" encoding="utf-8"?>
<!-- Generator: Adobe Illustrator 24.0.0, SVG Export Plug-In . SVG Version: 6.00 Build 0)  -->
<svg version="1.1" id="Capa_1" xmlns="http://www.w3.org/2000/svg" xmlns:xlink="http://www.w3.org/1999/xlink" x="0px" y="0px"
	 viewBox="0 0 512 512" style="enable-background:new 0 0 512 512;" xml:space="preserve">
<path d="M256,53c-41,0-81.1,12.4-114.9,35.7v-4.6l14.4-70.8C157.1,5.6,163.9,0,171.8,0h168.4c7.9,0,14.7,5.6,16.3,13.3l14.4,70.8
	v4.6C337.1,65.4,297,53,256,53z M171.8,512h168.4c7.9,0,14.7-5.6,16.3-13.3l14.4-70.8v-4.6c-69.2,47.7-160.6,47.7-229.7,0v4.6
	l14.4,70.8C157.1,506.4,163.9,512,171.8,512z M436.2,256c0,99.5-80.7,180.2-180.2,180.2S75.8,355.5,75.8,256S156.5,75.8,256,75.8
	C355.5,75.8,436.2,156.5,436.2,256z M381.2,238.9H273.1V130.8c0-9.4-7.6-17.1-17.1-17.1c-9.4,0-17.1,7.6-17.1,17.1V256
	c0,9.4,7.6,17.1,17.1,17.1h125.2c9.4,0,17.1-7.6,17.1-17.1C398.2,246.6,390.6,238.9,381.2,238.9z"/>
</svg>
