<?xml version="1.0" encoding="iso-8859-1"?>
<!-- Generator: Adobe Illustrator 19.0.0, SVG Export Plug-In . SVG Version: 6.00 Build 0)  -->
<svg version="1.1" id="Capa_1" xmlns="http://www.w3.org/2000/svg" xmlns:xlink="http://www.w3.org/1999/xlink" x="0px" y="0px"
	 viewBox="0 0 322.964 322.964" style="enable-background:new 0 0 322.964 322.964;" xml:space="preserve">
<g>
	<g>
		<g>
			<path d="M173.209,161.482c0-44.138-7.872-85.509-22.164-116.491C137.857,16.398,120.353,0,103.026,0
				C85.699,0,68.198,16.4,55.008,44.991c-14.293,30.982-22.164,72.353-22.164,116.491s7.871,85.509,22.164,116.491
				c13.19,28.593,30.692,44.991,48.019,44.991c0.34,0,0.679-0.017,1.018-0.03c0.527-0.106,1.063-0.16,1.6-0.161h0.651
				c16.242-1.915,32.391-18,44.752-44.8C165.338,246.991,173.209,205.62,173.209,161.482z M134.63,221.411L134.63,221.411
				c-9.191,23.755-22.259,28.741-31.6,28.741s-22.411-4.986-31.6-28.741c-5.975-15.445-9.266-36.728-9.266-59.929
				c0-23.201,3.291-44.484,9.266-59.929c9.192-23.755,22.259-28.741,31.6-28.741s22.412,4.986,31.6,28.741
				c5.976,15.445,9.267,36.728,9.267,59.929S140.605,205.966,134.63,221.411z"/>
			<path d="M182.747,295.036c0.708-4.238,1.509-9.039,3.958-13.491c2.232-4.061,5.755-7.065,8.861-9.714
				c2.648-2.259,5.387-4.595,6.229-6.746c0.635-1.62,0.3-4.875-0.033-8.023c-0.464-4.453-0.989-9.5,0.45-14.59
				c1.346-4.763,4.348-8.612,7-12.007c2.068-2.651,4.206-5.391,4.627-7.523c0.357-1.807-0.511-4.981-1.35-8.05
				c-1.191-4.352-2.54-9.285-1.878-14.556c0.633-5.042,3.106-9.363,5.289-13.175c1.645-2.873,3.345-5.843,3.473-7.946
				c0.115-1.89-1.161-4.942-2.4-7.892c-1.742-4.164-3.717-8.884-3.717-14.185c0-5.301,1.975-10.021,3.717-14.185
				c1.235-2.951,2.512-6,2.4-7.9c-0.128-2.105-1.829-5.078-3.476-7.954c-2.181-3.813-4.655-8.136-5.289-13.179
				c-0.662-5.269,0.688-10.2,1.879-14.551c0.84-3.068,1.708-6.24,1.352-8.042c-0.422-2.133-2.561-4.875-4.629-7.527
				c-2.649-3.4-5.651-7.245-7-12.01c-1.439-5.086-0.913-10.133-0.448-14.585c0.328-3.146,0.668-6.4,0.034-8.016
				c-0.841-2.15-3.58-4.485-6.228-6.744c-3.106-2.649-6.627-5.652-8.86-9.713c-2.448-4.451-3.25-9.253-3.958-13.49
				c-0.5-3-1.07-6.4-2.048-7.572c-2.928-3.508-8.878-6.744-13.659-9.342c-1.326-0.721-2.594-1.413-3.793-2.1l-23.719-0.1
				c29.59,27.814,49.68,88.858,49.68,161.354c0,72.354-20.012,133.3-49.506,161.189l11.5-0.034c0.528-0.727,1.077-1.52,1.619-2.3
				c2.532-3.667,5.15-7.458,8.871-9.719c3.143-1.739,6.504-3.052,9.994-3.905c3.791-1.1,7.372-2.142,9.009-4.1
				C181.677,301.431,182.245,298.034,182.747,295.036z"/>
			<path d="M103.026,88.812c-12.225,0-24.869,27.182-24.869,72.67c0,45.488,12.644,72.67,24.869,72.67
				c12.225,0,24.87-27.182,24.87-72.67C127.896,115.994,115.251,88.812,103.026,88.812z"/>
			<path d="M217.495,295.036c0.708-4.238,1.509-9.039,3.958-13.491c2.232-4.061,5.755-7.065,8.861-9.714
				c2.648-2.259,5.387-4.595,6.23-6.746c0.633-1.619,0.294-4.874-0.034-8.023c-0.464-4.453-0.989-9.5,0.45-14.59
				c1.346-4.763,4.347-8.612,7-12.008c2.068-2.65,4.206-5.391,4.628-7.523c0.356-1.806-0.512-4.98-1.352-8.05
				c-1.19-4.351-2.54-9.284-1.878-14.554c0.633-5.043,3.107-9.364,5.289-13.175c1.646-2.873,3.346-5.844,3.474-7.947
				c0.115-1.89-1.161-4.942-2.4-7.892c-1.742-4.164-3.716-8.884-3.716-14.185c0-5.301,1.974-10.021,3.716-14.185
				c1.235-2.951,2.512-6,2.4-7.9c-0.128-2.105-1.83-5.078-3.476-7.954c-2.181-3.813-4.655-8.136-5.289-13.178
				c-0.662-5.27,0.688-10.2,1.879-14.552c0.84-3.068,1.708-6.24,1.352-8.042c-0.422-2.133-2.561-4.875-4.629-7.528
				c-2.649-3.395-5.651-7.244-7-12.008c-1.439-5.088-0.911-10.133-0.447-14.585c0.328-3.146,0.668-6.4,0.035-8.017
				c-0.842-2.15-3.581-4.485-6.229-6.743c-3.106-2.65-6.628-5.653-8.861-9.715c-2.447-4.45-3.249-9.252-3.957-13.489
				c-0.5-3-1.07-6.4-2.048-7.572c-2.927-3.508-8.877-6.743-13.657-9.341c-1.229-0.668-2.407-1.311-3.528-1.949l-6.215-0.027
				c0.322,0.349,0.634,0.705,0.937,1.067c3.76,4.506,4.707,10.179,5.544,15.185c0.546,3.267,1.061,6.353,2.2,8.418
				c0.822,1.5,3.059,3.4,5.222,5.248c3.76,3.206,8.439,7.2,10.745,13.084c2.053,5.241,1.483,10.7,0.98,15.511
				c-0.345,3.312-0.671,6.441-0.069,8.571c0.494,1.75,2.387,4.177,4.218,6.523c3.069,3.936,6.548,8.4,7.707,14.263
				c1.088,5.5-0.349,10.742-1.614,15.369c-0.837,3.057-1.7,6.218-1.437,8.334c0.234,1.867,1.794,4.592,3.3,7.226
				c2.439,4.263,5.2,9.094,5.559,14.931c0.341,5.607-1.756,10.62-3.606,15.042c-1.218,2.911-2.478,5.921-2.478,8.01
				s1.26,5.1,2.478,8.009c1.85,4.422,3.947,9.434,3.606,15.04c-0.355,5.835-3.119,10.663-5.557,14.923
				c-1.507,2.632-3.066,5.354-3.3,7.22c-0.267,2.12,0.6,5.282,1.436,8.34c1.265,4.629,2.7,9.875,1.613,15.374
				c-1.158,5.868-4.638,10.328-7.707,14.262c-1.83,2.346-3.722,4.772-4.216,6.519c-0.6,2.134-0.276,5.264,0.068,8.578
				c0.5,4.816,1.072,10.274-0.982,15.517c-2.306,5.887-6.985,9.877-10.745,13.084c-2.163,1.845-4.4,3.753-5.224,5.25
				c-1.136,2.066-1.651,5.152-2.2,8.418c-0.837,5-1.784,10.677-5.543,15.182c-4.767,5.715-11.456,7.658-16.831,9.22
				c-0.571,0.166-1.135,0.33-1.681,0.494l11.759-0.035c0.563-0.79,1.14-1.646,1.611-2.346c2.437-3.617,4.955-7.358,8.6-9.573
				c3.143-1.739,6.504-3.052,9.994-3.905c3.791-1.1,7.372-2.142,9.009-4.1C216.424,301.431,216.993,298.034,217.495,295.036z"/>
			<path d="M268.135,45.219c-11.2-24.331-25.579-39.771-40.345-43.723c3.711,4.494,4.655,10.132,5.487,15.112
				c0.546,3.267,1.061,6.353,2.2,8.418c0.822,1.5,3.059,3.4,5.222,5.249c3.76,3.206,8.439,7.2,10.745,13.082
				c2.053,5.242,1.483,10.7,0.98,15.513c-0.345,3.312-0.671,6.441-0.07,8.571c0.494,1.748,2.388,4.175,4.218,6.521
				c3.069,3.936,6.549,8.4,7.709,14.264c1.086,5.5-0.349,10.742-1.615,15.37c-0.837,3.056-1.7,6.217-1.437,8.333
				c0.235,1.867,1.794,4.592,3.3,7.226c2.439,4.263,5.2,9.094,5.559,14.931c0.341,5.607-1.756,10.62-3.606,15.042
				c-1.218,2.911-2.477,5.921-2.477,8.01s1.259,5.1,2.477,8.009c1.85,4.422,3.947,9.434,3.606,15.04
				c-0.355,5.835-3.119,10.663-5.558,14.924c-1.507,2.632-3.066,5.354-3.3,7.22c-0.266,2.118,0.6,5.28,1.437,8.339
				c1.265,4.628,2.7,9.874,1.613,15.374c-1.159,5.868-4.638,10.327-7.707,14.261c-1.83,2.346-3.722,4.772-4.216,6.52
				c-0.6,2.134-0.277,5.264,0.068,8.58c0.5,4.814,1.071,10.272-0.982,15.515c-2.306,5.887-6.985,9.877-10.745,13.084
				c-2.163,1.845-4.4,3.753-5.224,5.25c-1.136,2.066-1.651,5.152-2.2,8.418c-0.836,5-1.784,10.677-5.543,15.182
				c-4.767,5.715-11.456,7.658-16.831,9.22c-0.45,0.133-0.893,0.263-1.329,0.389l9.976-0.029c17.405,0,34.977-16.3,48.242-44.754
				c14.4-30.9,22.331-72.16,22.331-116.21C290.122,117.311,282.313,76.03,268.135,45.219z"/>
		</g>
	</g>
</g>
<g>
</g>
<g>
</g>
<g>
</g>
<g>
</g>
<g>
</g>
<g>
</g>
<g>
</g>
<g>
</g>
<g>
</g>
<g>
</g>
<g>
</g>
<g>
</g>
<g>
</g>
<g>
</g>
<g>
</g>
</svg>
