<svg id="Capa_1" enable-background="new 0 0 512 512" height="512" viewBox="0 0 512 512" width="512" xmlns="http://www.w3.org/2000/svg"><path d="m497 80c-8.284 0-15 6.716-15 15v5h-30v-15c0-8.284-6.716-15-15-15h-157v-35c0-19.299-15.701-35-35-35h-25v45c0 35.841-29.159 65-65 65s-65-29.159-65-65v-45h-25c-19.299 0-35 15.701-35 35h-15c-8.284 0-15 6.716-15 15s6.716 15 15 15h15v40h-15c-8.284 0-15 6.716-15 15s6.716 15 15 15h15c0 19.299 15.701 35 35 35h180c19.299 0 35-15.701 35-35v-35h142v30h-45c-8.284 0-15 6.716-15 15v26.332c-34.861 6.236-62.411 33.803-68.648 68.668h167.295c-6.237-34.865-33.787-62.432-68.648-68.668v-11.332h45c8.284 0 15-6.716 15-15v-15h30v5c0 8.284 6.716 15 15 15s15-6.716 15-15v-40c.001-8.284-6.715-15-14.999-15z"/><path d="m155 80c19.299 0 35-15.701 35-35v-45h-70v45c0 19.299 15.701 35 35 35z"/><path d="m110 200c0 16.569 13.431 30 30 30v165c0 13.785-11.215 25-25 25s-25-11.215-25-25v-60c0-24.813-20.187-45-45-45s-45 20.187-45 45v30c0 8.284 6.716 15 15 15s15-6.716 15-15v-30c0-8.271 6.729-15 15-15s15 6.729 15 15v60c0 30.327 24.673 55 55 55s55-24.673 55-55v-165c16.569 0 30-13.431 30-30z"/><path d="m339.532 443.759c.49 14.833 9.594 27.478 22.468 33.108v20.133c0 8.284 6.716 15 15 15s15-6.716 15-15v-20.133c12.874-5.63 21.978-18.275 22.468-33.108-11.787 4.054-24.404 6.241-37.468 6.241s-25.681-2.187-37.468-6.241z"/><path d="m377 420c41.749 0 76.539-30.264 83.648-70h-167.296c7.109 39.736 41.899 70 83.648 70z"/><path d="m292 270h170v50h-170z"/></svg>