<?xml version="1.0" encoding="iso-8859-1"?>
<!-- Generator: Adobe Illustrator 19.0.0, SVG Export Plug-In . SVG Version: 6.00 Build 0)  -->
<svg version="1.1" id="Layer_1" xmlns="http://www.w3.org/2000/svg" xmlns:xlink="http://www.w3.org/1999/xlink" x="0px" y="0px"
	 viewBox="0 0 512.001 512.001" style="enable-background:new 0 0 512.001 512.001;" xml:space="preserve">
<g>
	<g>
		<path d="M466.996,316.014H301.982v-75.035c0-24.816-21.158-44.975-45.975-44.975c-24.817,0-45.975,20.158-45.975,44.975v75.035
			H179.97v-75.035c0-24.816-20.158-44.975-44.975-44.975H93.538c-17.154,0-32.566,9.522-40.242,24.846l-45.37,90.769
			C2.739,321.992,0,333.494,0,345.038v0.879h44.989c8.277,0,14.986,6.81,14.986,15.072c0,8.263-6.71,14.972-14.986,14.972H0v15.03
			c0,24.816,20.188,44.975,44.989,44.975h45.022c0,0-0.004,0.02-0.004,0.029c0,33.079,26.911,59.976,59.99,59.976
			s59.976-26.997,59.976-60.076c0-0.009-0.004-0.02-0.004-0.02l122.077-0.009c0,0-0.004,0.02-0.004,0.029
			c0,33.079,26.897,60.076,59.976,60.076c33.079,0,59.976-26.997,59.976-60.076c0-0.009-0.004-0.02-0.004-0.02l15.005-0.009
			c24.816,0,44.975-20.058,44.975-44.875v-30.003C511.971,336.172,491.813,316.014,466.996,316.014z M54.243,286.012l25.862-51.742
			c2.563-5.127,7.706-8.321,13.434-8.321h41.459c8.292,0,15.03,6.739,15.03,15.03v45.033H54.243z M149.998,466.027
			c-16.554,0-30.018-13.478-30.018-30.032s13.463-30.032,30.018-30.032c16.554,0,30.032,13.478,30.032,30.032
			S166.552,466.027,149.998,466.027z M392.019,466.027c-16.554,0-30.032-13.478-30.032-30.032s13.478-30.032,30.032-30.032
			s30.032,13.478,30.032,30.032S408.573,466.027,392.019,466.027z"/>
	</g>
</g>
<g>
	<g>
		<path d="M487.945,201.131c-3.545-1.846-5.948-6.681-5.948-11.983V58.385c0-11.623-5.056-21.788-12.868-29.245
			c-16.283-15.543-44.539-19.32-63.925,0.004L267.292,167.056c33.052,4.598,59.051,30.593,63.652,63.623L452.054,109.57v79.577
			c0,16.642,8.409,31.409,21.916,38.499c4.98,2.637,8.087,7.735,8.087,13.331c0,8.292-6.739,15.03-15.03,15.03
			c-8.292,0-15.03-6.739-15.03-15.03c0-8.263-6.71-14.972-14.972-14.972s-14.972,6.71-14.972,14.972
			c0,24.816,20.158,44.975,44.975,44.975s44.975-20.158,44.975-44.975C512,224.248,502.8,208.983,487.945,201.131z"/>
	</g>
</g>
<g>
</g>
<g>
</g>
<g>
</g>
<g>
</g>
<g>
</g>
<g>
</g>
<g>
</g>
<g>
</g>
<g>
</g>
<g>
</g>
<g>
</g>
<g>
</g>
<g>
</g>
<g>
</g>
<g>
</g>
</svg>
