<?xml version="1.0" encoding="UTF-8" standalone="no"?>
<!DOCTYPE svg PUBLIC "-//W3C//DTD SVG 1.1//EN" "http://www.w3.org/Graphics/SVG/1.1/DTD/svg11.dtd">
<svg version="1.1" xmlns="http://www.w3.org/2000/svg" xmlns:xlink="http://www.w3.org/1999/xlink"
     preserveAspectRatio="xMidYMid meet" viewBox="0 0 640 640" width="256" height="256">
    <defs>
        <path
            d="M185.84 4.05C162.93 4.05 144.43 23.12 144.43 46.74C144.43 101.31 144.43 537.94 144.43 592.52C144.43 616.13 162.93 634.9 185.84 635.2C213.13 635.2 431.42 635.2 458.7 635.2C481.61 635.2 499.82 616.13 500.12 592.52C500.12 537.94 500.12 101.31 500.12 46.74C499.82 23.12 481.32 4.05 458.7 4.05C404.13 4.05 213.13 4.05 185.84 4.05ZM365.6 34.93C368.24 34.93 370.59 37.35 370.59 40.08C370.59 42.8 368.24 45.22 365.6 45.22C356.87 45.22 287.08 45.22 278.36 45.22C275.72 45.22 273.37 43.1 273.37 40.08C273.37 37.05 275.72 34.93 278.36 34.93C278.36 34.93 278.36 34.93 278.36 34.93C295.81 34.93 356.87 34.93 365.6 34.93ZM173.21 71.86L471.33 71.86L471.33 512.6C430.98 440.68 408.56 400.72 404.07 392.73C434.62 345.51 422.28 281.64 376.46 250.16C358.25 237.74 336.52 231.69 314.49 233.2C318.22 239.86 348.06 293.14 351.79 299.8C364.42 321.9 357.37 350.35 336.22 363.37C314.78 376.38 287.17 369.12 274.54 347.32C274.25 347.02 274.25 346.72 273.96 346.11C270.23 339.45 240.38 286.18 236.65 279.52C206.11 326.74 218.44 390.61 264.26 422.09C282.47 434.5 304.21 440.56 325.94 439.05C330.33 446.88 352.26 486.03 391.74 556.5L173.21 556.19L173.21 556.19L173.21 71.86ZM301.27 592.52C301.27 580.71 310.67 571.03 321.83 571.03C333.29 571.03 342.69 580.71 342.69 592.22C342.69 604.02 333.58 613.71 322.12 613.71C322.12 613.71 322.12 613.71 322.12 613.71C308.22 607.25 301.27 600.19 301.27 592.52Z"
            id="aVP1Xwx4P"></path>
    </defs>
    <g>
        <g>
            <g>
                <use xlink:href="#aVP1Xwx4P" opacity="1" fill-opacity="1"></use>
                <g>
                    <use xlink:href="#aVP1Xwx4P" opacity="1" fill-opacity="0" stroke="#000000" stroke-width="1"
                         stroke-opacity="1"></use>
                </g>
            </g>
        </g>
    </g>
</svg>
