<?xml version="1.0" encoding="UTF-8" standalone="no"?>
<!DOCTYPE svg PUBLIC "-//W3C//DTD SVG 1.1//EN" "http://www.w3.org/Graphics/SVG/1.1/DTD/svg11.dtd">
<svg version="1.1" xmlns="http://www.w3.org/2000/svg" xmlns:xlink="http://www.w3.org/1999/xlink"
     preserveAspectRatio="xMidYMid meet" viewBox="0 0 640 640" width="256" height="256">
    <defs>
        <path
            d="M85.58 36.26C87.22 36.26 92.15 35.79 95.44 35.79C97.08 35.79 102.02 35.43 106.93 35.33C130.11 34.86 149.56 33.31 169.35 32.54C184.09 31.96 197.28 30.68 210.42 29.75C216.99 29.28 226.36 28.5 236.7 27.42C243.05 26.75 245.97 26.04 253.12 25.56C257.92 25.24 262.98 25.56 264.62 25.09C264.84 25.06 265.94 24.91 267.91 24.63"
            id="a6NJz0sckn"></path>
        <path
            d="M515.16 399.84C511.6 396.1 493.84 377.42 461.86 343.81L528.94 343.81L528.94 262.34L432.45 312.89L358.02 234.97L243.77 234.97L243.77 289.39L336.89 289.39L388.65 343.81L295.54 343.81L191.7 398.23L139.93 343.81L10.36 343.81L10.36 398.23C72.67 398.23 107.28 398.23 114.2 398.23C56.92 398.23 10.36 447.17 10.36 507.39C10.36 567.6 56.92 616.55 114.2 616.55C171.48 616.55 218.04 567.6 218.04 507.39C221.49 511.02 238.75 529.16 269.81 561.81L347.61 561.81L437.97 395.65C453.77 412.27 462.55 421.5 464.31 423.34C439.81 443.63 425.41 474.86 425.41 507.71C425.41 567.93 471.97 616.87 529.25 616.87C586.53 616.87 633.08 567.93 633.08 507.71C632.78 447.17 586.22 398.23 528.94 398.55C528.94 398.23 528.94 398.23 528.94 398.55C528.94 398.55 528.94 398.55 528.94 398.55C522.81 398.98 518.22 399.41 515.16 399.84ZM62.44 507.71C62.44 477.76 85.72 453.29 114.2 453.29C142.69 453.29 165.97 477.76 165.97 507.71C165.97 537.66 142.69 561.81 114.2 562.13C85.72 562.13 62.44 537.66 62.44 507.71ZM477.17 507.71C477.17 477.76 500.45 453.29 528.94 453.29C557.43 453.29 580.71 477.76 580.71 507.71C580.71 537.66 557.43 561.81 528.94 562.13C528.94 562.13 528.94 562.13 528.94 562.13C494.43 545.81 477.17 527.67 477.17 507.71Z"
            id="a5brao5Lb"></path>
        <path
            d="M516.55 96.12C513.98 89.62 512.56 86.01 512.27 85.29C499.43 53.36 463.76 38.43 432.65 51.61C432.37 51.61 432.08 51.9 431.8 51.9C421.52 56.29 412.68 63.61 406.11 72.69C389.62 72.69 257.67 72.69 241.18 72.69C221.49 44.58 183.25 38.14 155.85 58.34C155.57 58.64 155.28 58.64 155 58.93C145.86 65.66 139.02 74.74 134.74 85.29C134.45 86.01 133.02 89.62 130.45 96.12L172.69 96.12L172.69 123.06L129.88 123.06C132.45 129.56 133.88 133.18 134.16 133.9C147.01 165.82 182.68 180.76 213.78 167.58C214.07 167.58 214.35 167.28 214.64 167.28C224.91 162.89 233.76 155.57 240.32 146.49C256.81 146.49 388.76 146.49 405.26 146.49C424.95 174.61 463.19 181.05 490.58 160.84C490.87 160.55 491.15 160.55 491.44 160.26C500.57 153.52 507.42 144.44 511.7 133.9C511.98 133.18 513.41 129.56 515.98 123.06L474.32 123.06L474.32 96.12L516.55 96.12Z"
            id="e20cM9dfx"></path>
    </defs>
    <g>
        <g>
            <g>
                <use xlink:href="#a6NJz0sckn" opacity="1" fill-opacity="1"></use>
                <g>
                    <use xlink:href="#a6NJz0sckn" opacity="1" fill-opacity="0" stroke-width="1.5"
                         stroke-opacity="0"></use>
                </g>
            </g>
            <g>
                <use xlink:href="#a5brao5Lb" opacity="1" fill-opacity="1"></use>
                <g>
                    <use xlink:href="#a5brao5Lb" opacity="1" fill-opacity="0" stroke-width="1"
                         stroke-opacity="1"></use>
                </g>
            </g>
            <g>
                <use xlink:href="#e20cM9dfx" opacity="1" fill-opacity="1"></use>
                <g>
                    <use xlink:href="#e20cM9dfx" opacity="1" fill-opacity="0" stroke-width="1"
                         stroke-opacity="1"></use>
                </g>
            </g>
        </g>
    </g>
</svg>
