<svg height="512pt" viewBox="0 0 512.00051 512" width="512pt" xmlns="http://www.w3.org/2000/svg"><path d="m406 391c-8.269531 0-15 6.730469-15 15s6.730469 15 15 15 15-6.730469 15-15-6.726562-15-15-15zm0 0"/><path d="m427.5625 148.078125 42.78125-16.34375c3.785156-1.445313 6.824219-4.363281 8.425781-8.085937l32.011719-74.4375c2.425781-5.640626 1.167969-12.191407-3.175781-16.53125l-28.285157-28.285157c-4.339843-4.3437498-10.890624-5.601562-16.53125-3.171875l-74.4375 32.011719c-3.722656 1.597656-6.640624 4.640625-8.085937 8.425781l-16.34375 42.777344-111.457031 111.460938 63.636718 63.640624zm0 0"/><path d="m305.496094 291.355469-84.851563-84.851563c-2.816406-2.8125-6.628906-4.394531-10.609375-4.394531-3.976562 0-7.792968 1.582031-10.605468 4.394531l-28.28125 28.285156c-5.859376 5.855469-5.859376 15.351563 0 21.210938 5.847656 5.847656 5.847656 15.367188 0 21.214844-5.847657 5.847656-15.363282 5.847656-21.214844 0-2.8125-2.8125-6.628906-4.394532-10.605469-4.394532s-7.792969 1.582032-10.605469 4.394532l-106.753906 106.753906c-14.167969 14.164062-21.96875 32.996094-21.96875 53.03125s7.800781 38.867188 21.96875 53.035156c14.621094 14.621094 33.824219 21.933594 53.03125 21.929688 19.203125 0 38.414062-7.3125 53.03125-21.929688l106.753906-106.753906c5.859375-5.859375 5.859375-15.355469 0-21.214844-2.832031-2.832031-4.394531-6.601562-4.394531-10.605468 0-4.007813 1.5625-7.773438 4.394531-10.609376 5.851563-5.847656 15.367188-5.847656 21.214844 0 5.855469 5.859376 15.355469 5.859376 21.214844 0l28.28125-28.28125c5.859375-5.859374 5.859375-15.355468 0-21.214843zm-139.890625 76.25-80 80c-2.925781 2.929687-6.765625 4.394531-10.605469 4.394531-3.835938 0-7.675781-1.464844-10.605469-4.394531-5.859375-5.855469-5.859375-15.355469 0-21.210938l80-80c5.859375-5.859375 15.355469-5.859375 21.214844 0 5.855469 5.855469 5.855469 15.355469-.003906 21.210938zm0 0"/><path d="m407 302c-12.078125 0-23.886719 2.0625-35.21875 6.144531l-30.929688-30.929687-5.339843 5.339844c2.863281 5.984374 4.378906 12.578124 4.378906 19.40625 0 12.023437-4.683594 23.324218-13.183594 31.824218l-28.28125 28.277344 9.71875 9.71875c-4.082031 11.335938-6.144531 23.140625-6.144531 35.21875 0 57.898438 47.101562 105 105 105s105-47.101562 105-105-47.101562-105-105-105zm-1 149c-24.8125 0-45-20.1875-45-45s20.1875-45 45-45 45 20.1875 45 45-20.1875 45-45 45zm0 0"/><path d="m140.136719 203.769531 9.800781 9.804688 28.28125-28.28125c8.496094-8.5 19.796875-13.183594 31.816406-13.183594 6.832032 0 13.425782 1.515625 19.410156 4.378906l5.339844-5.335937-31.015625-31.015625c13.476563-37.84375 4.195313-80.664063-24.59375-109.449219-31.351562-31.351562-79.347656-39.570312-119.429687-20.449219-4.394532 2.097657-7.5 6.199219-8.324219 11s.730469 9.703125 4.175781 13.144531l40.121094 40.125-3.535156 17.675782-17.675782 3.535156-40.125-40.121094c-3.441406-3.441406-8.34375-5-13.144531-4.175781s-8.902343 3.929687-11 8.324219c-19.121093 40.085937-10.902343 88.078125 20.449219 119.433594 28.785156 28.785156 71.605469 38.066406 109.449219 24.589843zm0 0"/></svg>