<?xml version="1.0" encoding="UTF-8" standalone="no"?>
<!DOCTYPE svg PUBLIC "-//W3C//DTD SVG 1.1//EN" "http://www.w3.org/Graphics/SVG/1.1/DTD/svg11.dtd">
<svg version="1.1" xmlns="http://www.w3.org/2000/svg" xmlns:xlink="http://www.w3.org/1999/xlink"
     preserveAspectRatio="xMidYMid meet" viewBox="0 0 640 640" width="256" height="256">
    <defs>
        <path
            d="M85.58 36.26C87.22 36.26 92.15 35.79 95.44 35.79C97.08 35.79 102.02 35.43 106.93 35.33C130.11 34.86 149.56 33.31 169.35 32.54C184.09 31.96 197.28 30.68 210.42 29.75C216.99 29.28 226.36 28.5 236.7 27.42C243.05 26.75 245.97 26.04 253.12 25.56C257.92 25.24 262.98 25.56 264.62 25.09C264.84 25.06 265.94 24.91 267.91 24.63"
            id="a6NJz0sckn"></path>
        <path
            d="M640 0C640 0 640 0 640 0C640 384 640 597.33 640 640C640 640 640 640 640 640C256 640 42.67 640 0 640C0 640 0 640 0 640C0 256 0 42.67 0 0C0 0 0 0 0 0C384 0 597.33 0 640 0Z"
            id="e85pcV83iU"></path>
        <path
            d="M183.48 78.96C186.96 78.96 197.41 77.97 204.37 77.97C207.85 77.97 218.32 77.19 228.74 76.98C277.84 76 319.07 72.72 361.01 71.07C392.23 69.84 420.19 67.13 448.04 65.16C461.96 64.17 481.83 62.52 503.73 60.23C517.19 58.82 523.39 57.3 538.54 56.28C548.7 55.61 559.43 56.28 562.91 55.3C563.37 55.23 565.69 54.9 569.87 54.31"
            id="fqHvv6BKV"></path>
        <path
            d="M554.26 330.9C554.26 330.33 553.67 329.19 553.67 328.33C550.27 316.06 523.05 217.86 519.65 205.59C517.31 197.6 509.97 192.17 501.47 192.17C467.27 192.17 193.71 192.17 159.52 192.17C151.01 192.17 143.68 197.6 141.33 205.59C139.05 213.77 127.61 254.69 107.02 328.33C88.54 351.97 78.28 365.1 76.23 367.72C73.59 371.15 72.41 375.15 72.41 379.43C72.41 393.36 72.41 504.8 72.41 518.73C72.12 528.72 80.33 537 90.6 537C90.89 537 91.18 537 91.18 537C91.61 537 93.76 537 97.64 537C97.64 567.48 97.64 584.42 97.64 587.81C97.34 597.8 105.55 606.08 115.82 606.36C116.11 606.36 116.11 606.36 116.41 606.36C125.61 606.36 199.28 606.36 208.49 606.36C218.76 606.65 227.26 598.66 227.26 588.66C227.26 588.38 227.26 588.09 227.26 588.09C227.26 584.71 227.26 567.77 227.26 537.28L426.39 537.28C426.39 567.77 426.39 584.71 426.39 588.09C426.1 598.08 434.31 606.36 444.58 606.65C444.87 606.65 445.16 606.65 445.16 606.65C454.37 606.65 528.04 606.65 537.25 606.65C547.51 606.93 556.02 598.94 556.02 588.95C556.02 588.66 556.02 588.38 556.02 588.38C556.02 584.99 556.02 568.05 556.02 537.57C559.89 537.57 562.04 537.57 562.47 537.57C572.73 537.85 581.24 529.86 581.24 519.87C581.24 519.59 581.24 519.3 581.24 519.3C581.24 505.37 581.24 393.93 581.24 380C581.83 375.72 580.65 372.29 578.89 369.44C578.89 369.44 556.72 334.75 554.26 330.9ZM204.97 473.91C204.68 473.91 204.39 473.91 204.39 473.91C198.52 473.91 151.6 473.91 145.73 473.91C135.47 474.2 126.96 466.21 126.96 456.21C126.96 455.93 126.96 455.64 126.96 455.64C126.96 451.7 126.96 420.19 126.96 416.25C126.67 406.26 134.88 397.98 145.15 397.98C145.44 397.98 145.73 397.98 145.73 397.98C151.6 397.98 198.52 397.98 204.39 397.98C214.65 397.7 223.16 405.69 223.16 415.68C223.16 415.97 223.16 416.25 223.16 416.25C223.16 418.86 223.16 431.89 223.16 455.36C217.88 467.54 211.82 473.72 204.97 473.91ZM268.61 451.08L268.61 414.25L385.92 414.25L385.92 451.08L268.61 451.08ZM174.18 228.71L487.1 228.71L511.15 314.63L150.13 314.63L174.18 228.71ZM509.39 473.91C509.09 473.91 509.09 473.91 508.8 473.91C502.94 473.91 456.01 473.91 450.15 473.91C439.88 474.2 431.38 466.21 431.08 456.21C431.08 455.93 431.08 455.93 431.08 455.64C431.08 451.7 431.08 420.19 431.08 416.25C430.79 406.26 439 397.98 449.27 397.98C449.56 397.98 449.85 397.98 449.85 397.98C455.78 397.98 503.17 397.98 509.09 397.98C519.36 397.7 527.86 405.69 528.16 415.68C528.16 415.97 528.16 416.25 528.16 416.25C528.12 418.86 527.92 431.89 527.57 455.36C522.29 467.54 516.23 473.72 509.39 473.91Z"
            id="gViuaF5FJ"></path>
        <path
            d="M525.81 77.71C523.17 71.37 521.71 67.85 521.41 67.14C508.22 36.03 471.56 21.47 439.59 34.32C439.3 34.32 439 34.6 438.71 34.6C428.15 38.88 419.06 46.02 412.32 54.87C395.36 54.87 259.76 54.87 242.8 54.87C222.57 27.47 183.27 21.19 155.12 40.88C154.82 41.17 154.53 41.17 154.24 41.45C144.85 48.02 137.81 56.87 133.41 67.14C133.12 67.85 131.66 71.37 129.02 77.71L172.42 77.71L172.42 103.97L128.43 103.97C131.07 110.3 132.54 113.82 132.83 114.53C146.03 145.64 182.68 160.2 214.65 147.36C214.94 147.36 215.24 147.07 215.53 147.07C226.09 142.79 235.18 135.65 241.93 126.8C258.88 126.8 394.48 126.8 411.44 126.8C431.67 154.21 470.97 160.49 499.12 140.79C499.42 140.5 499.71 140.5 500 140.22C509.39 133.65 516.43 124.8 520.83 114.53C521.12 113.82 522.59 110.3 525.22 103.97L482.41 103.97L482.41 77.71L525.81 77.71Z"
            id="ekajqLhBQ"></path>
    </defs>
    <g>
        <g>
            <g>
                <use xlink:href="#a6NJz0sckn" opacity="1" fill-opacity="1"></use>
                <g>
                    <use xlink:href="#a6NJz0sckn" opacity="1" fill-opacity="0" stroke-width="1.5"
                         stroke-opacity="0"></use>
                </g>
            </g>
            <g>
                <use xlink:href="#e85pcV83iU" opacity="1" fill-opacity="0"></use>
                <g>
                    <use xlink:href="#e85pcV83iU" opacity="1" fill-opacity="0" stroke-width="1"
                         stroke-opacity="0"></use>
                </g>
            </g>
            <g>
                <use xlink:href="#fqHvv6BKV" opacity="1" fill-opacity="1"></use>
                <g>
                    <use xlink:href="#fqHvv6BKV" opacity="1" fill-opacity="0" stroke="#000000" stroke-width="1.5"
                         stroke-opacity="0"></use>
                </g>
            </g>
            <g>
                <use xlink:href="#gViuaF5FJ" opacity="1" fill-opacity="1"></use>
                <g>
                    <use xlink:href="#gViuaF5FJ" opacity="1" fill-opacity="0" stroke="#000000" stroke-width="1"
                         stroke-opacity="1"></use>
                </g>
            </g>
            <g>
                <use xlink:href="#ekajqLhBQ" opacity="1" fill-opacity="1"></use>
                <g>
                    <use xlink:href="#ekajqLhBQ" opacity="1" fill-opacity="0" stroke="#000000" stroke-width="1"
                         stroke-opacity="1"></use>
                </g>
            </g>
        </g>
    </g>
</svg>
