<?xml version="1.0" encoding="UTF-8" standalone="no"?>
<!DOCTYPE svg PUBLIC "-//W3C//DTD SVG 1.1//EN" "http://www.w3.org/Graphics/SVG/1.1/DTD/svg11.dtd">
<svg version="1.1" xmlns="http://www.w3.org/2000/svg" xmlns:xlink="http://www.w3.org/1999/xlink"
     preserveAspectRatio="xMidYMid meet" viewBox="0 0 640 640" width="256" height="256">
    <defs>
        <path
            d="M85.58 36.26C87.22 36.26 92.15 35.79 95.44 35.79C97.08 35.79 102.02 35.43 106.93 35.33C130.11 34.86 149.56 33.31 169.35 32.54C184.09 31.96 197.28 30.68 210.42 29.75C216.99 29.28 226.36 28.5 236.7 27.42C243.05 26.75 245.97 26.04 253.12 25.56C257.92 25.24 262.98 25.56 264.62 25.09C264.84 25.06 265.94 24.91 267.91 24.63"
            id="a6NJz0sckn"></path>
        <path
            d="M678.81 0C678.81 0 678.81 0 678.81 0C678.81 401.46 678.81 624.5 678.81 669.1C678.81 669.1 678.81 669.1 678.81 669.1C267.04 669.1 38.29 669.1 -7.46 669.1C-7.46 669.1 -7.46 669.1 -7.46 669.1C-7.46 267.64 -7.46 44.61 -7.46 0C-7.46 0 -7.46 0 -7.46 0C404.3 0 633.05 0 678.81 0Z"
            id="a6zE4O2dse"></path>
        <path
            d="M196.75 82.55C200.48 82.55 211.68 81.52 219.14 81.52C222.88 81.52 234.1 80.7 245.27 80.49C297.93 79.45 342.13 76.03 387.11 74.3C420.59 73.02 450.57 70.18 480.43 68.12C495.36 67.09 516.66 65.36 540.15 62.97C554.58 61.49 561.23 59.9 577.47 58.84C588.37 58.13 599.87 58.84 603.6 57.81C604.1 57.75 606.59 57.4 611.07 56.78"
            id="a1HEhCVnHW"></path>
        <path
            d="M586.46 248.85C586.46 248.09 585.78 246.56 585.78 245.41C581.79 228.95 549.89 97.3 545.91 80.84C543.16 70.12 534.56 62.85 524.6 62.85C484.52 62.85 163.9 62.85 123.83 62.85C113.86 62.85 105.27 70.12 102.52 80.84C99.84 91.81 86.43 146.67 62.3 245.41C40.65 277.1 28.62 294.7 26.21 298.22C23.12 302.82 21.74 308.18 21.74 313.92C21.74 332.59 21.74 482.01 21.74 500.68C21.4 514.08 31.02 525.18 43.05 525.18C43.4 525.18 43.74 525.18 43.74 525.18C44.25 525.18 46.77 525.18 51.3 525.18C51.3 566.05 51.3 588.76 51.3 593.3C50.96 606.7 60.58 617.8 72.61 618.18C72.96 618.18 72.96 618.18 73.3 618.18C84.09 618.18 170.43 618.18 181.23 618.18C193.26 618.56 203.22 607.85 203.22 594.45C203.22 594.07 203.22 593.68 203.22 593.68C203.22 589.14 203.22 566.44 203.22 525.56L436.61 525.56C436.61 566.44 436.61 589.14 436.61 593.68C436.26 607.08 445.89 618.18 457.92 618.56C458.26 618.56 458.6 618.56 458.6 618.56C469.4 618.56 555.74 618.56 566.53 618.56C578.56 618.94 588.53 608.23 588.53 594.83C588.53 594.45 588.53 594.07 588.53 594.07C588.53 589.53 588.53 566.82 588.53 525.94C593.06 525.94 595.58 525.94 596.09 525.94C608.12 526.33 618.09 515.61 618.09 502.21C618.09 501.83 618.09 501.45 618.09 501.45C618.09 482.77 618.09 333.36 618.09 314.68C618.77 308.94 617.4 304.35 615.34 300.52C615.34 300.52 589.35 254.02 586.46 248.85ZM177.1 440.6C176.76 440.6 176.42 440.6 176.42 440.6C169.54 440.6 114.55 440.6 107.67 440.6C95.64 440.98 85.68 430.26 85.68 416.87C85.68 416.49 85.68 416.1 85.68 416.1C85.68 410.82 85.68 368.57 85.68 363.29C85.33 349.89 94.96 338.79 106.99 338.79C107.33 338.79 107.67 338.79 107.67 338.79C114.55 338.79 169.54 338.79 176.42 338.79C188.45 338.41 198.41 349.13 198.41 362.52C198.41 362.9 198.41 363.29 198.41 363.29C198.41 366.78 198.41 384.26 198.41 415.72C192.23 432.05 185.12 440.34 177.1 440.6ZM251.69 409.98L251.69 360.61L389.17 360.61L389.17 409.98L251.69 409.98ZM141.01 111.84L507.75 111.84L535.94 227.04L112.83 227.04L141.01 111.84ZM533.88 440.6C533.53 440.6 533.53 440.6 533.19 440.6C526.31 440.6 471.32 440.6 464.45 440.6C452.42 440.98 442.45 430.26 442.1 416.87C442.1 416.49 442.1 416.49 442.1 416.1C442.1 410.82 442.1 368.57 442.1 363.29C441.76 349.89 451.38 338.79 463.41 338.79C463.76 338.79 464.1 338.79 464.1 338.79C471.05 338.79 526.59 338.79 533.53 338.79C545.56 338.41 555.53 349.13 555.87 362.52C555.87 362.9 555.87 363.29 555.87 363.29C555.83 366.78 555.6 384.26 555.19 415.72C549 432.05 541.9 440.34 533.88 440.6Z"
            id="b6jzT099Fq"></path>
    </defs>
    <g>
        <g>
            <g>
                <use xlink:href="#a6NJz0sckn" opacity="1" fill-opacity="1"></use>
                <g>
                    <use xlink:href="#a6NJz0sckn" opacity="1" fill-opacity="0" stroke="#000000" stroke-width="1.5"
                         stroke-opacity="0"></use>
                </g>
            </g>
            <g>
                <use xlink:href="#a6zE4O2dse" opacity="1" fill-opacity="0"></use>
                <g>
                    <use xlink:href="#a6zE4O2dse" opacity="1" fill-opacity="0" stroke="#000000" stroke-width="1"
                         stroke-opacity="0"></use>
                </g>
            </g>
            <g>
                <use xlink:href="#a1HEhCVnHW" opacity="1" fill-opacity="1"></use>
                <g>
                    <use xlink:href="#a1HEhCVnHW" opacity="1" fill-opacity="0" stroke="#000000" stroke-width="1.5"
                         stroke-opacity="0"></use>
                </g>
            </g>
            <g>
                <use xlink:href="#b6jzT099Fq" opacity="1" fill-opacity="1"></use>
                <g>
                    <use xlink:href="#b6jzT099Fq" opacity="1" fill-opacity="0" stroke="#000000" stroke-width="1"
                         stroke-opacity="1"></use>
                </g>
            </g>
        </g>
    </g>
</svg>
