<?xml version="1.0" encoding="utf-8"?>
<!-- Generator: Adobe Illustrator 24.0.0, SVG Export Plug-In . SVG Version: 6.00 Build 0)  -->
<svg version="1.1" id="Capa_1" xmlns="http://www.w3.org/2000/svg" xmlns:xlink="http://www.w3.org/1999/xlink" x="0px" y="0px"
	 viewBox="0 0 512 512" style="enable-background:new 0 0 512 512;" xml:space="preserve">
<path d="M426,122.9h-48.6C378.1,55.8,324.4,0.8,257.3,0S135.2,53,134.4,120.1c0,1,0,1.8,0,2.8H85.8c-26.9,0-48.4,21.8-48.4,48.6
	l-0.3,291.8c0,26.9,21.8,48.6,48.6,48.6h340.5c26.9,0,48.6-21.8,48.6-48.6V171.5C474.4,144.9,452.9,123.1,426,122.9z M255.5,49.9
	C255.5,49.9,255.7,49.9,255.5,49.9c40.4,0,73.2,32.5,73.2,72.7v0.3H182.8C182.8,82.7,215.3,50.2,255.5,49.9z M255.7,293.1
	c-67.1,0-121.6-54.5-121.6-121.6h48.6c0,40.2,32.8,73,73,73s73-32.8,73-73h48.6C377.3,238.6,322.8,293.1,255.7,293.1z"/>
</svg>
