<?xml version="1.0" encoding="utf-8"?>
<!-- Generator: Adobe Illustrator 24.0.0, SVG Export Plug-In . SVG Version: 6.00 Build 0)  -->
<svg version="1.1" id="Capa_1" xmlns="http://www.w3.org/2000/svg" xmlns:xlink="http://www.w3.org/1999/xlink" x="0px" y="0px"
	 viewBox="0 0 512 512" style="enable-background:new 0 0 512 512;" xml:space="preserve">
<path d="M217.3,138.2L217.3,138.2C216.7,138.8,216.2,139.9,217.3,138.2z"/>
<path d="M507.7,124.2l-0.6-0.6L422.2,41l-2.3-1.8l-2.9-1.2L330.2,1.8c-5-2.2-10.8-1.3-15.1,2.2L315,4.1
	c-16.4,13.5-37.5,21.1-59.2,21.1s-42.8-7.6-59.7-21.7l-0.2-0.1c-4.2-3.5-10-4.4-15.1-2.2L94.8,35.7l-2.9,1.2l-2.3,2.3L4.6,123.6
	c-6.5,6.2-6,16.7,1.1,22.2l0.1,0.1l90.8,71.5l0.7,0.6c5.2,4.3,12.9,3.8,17.5-1.1v0l0.6-1.8v283c0,7.8,6.3,14.1,14.1,14.1h3.5h248.4
	h1.2c7.8,0,14.1-6.3,14.1-14.1v0V216.1l0.6,0.6l1.4,1.4c4.6,4.6,11.8,5,16.9,1.1l1.6-1.3l89-71.5l0.4-0.3
	C513.3,140.7,513.9,130.4,507.7,124.2z M364.1,181.8c0,11.9-9.7,21.6-21.6,21.6h-36c-11.9,0-21.6-9.7-21.6-21.6v-57.6h79.1V181.8z"
	/>
</svg>
