<svg id="Capa_1" enable-background="new 0 0 512 512" height="512" viewBox="0 0 512 512" width="512" xmlns="http://www.w3.org/2000/svg"><g><path d="m75 211h60v-75h75v-60h-75v-76h-60v76h-75v60h75z"/><path d="m362 211c16.569 0 30-13.431 30-30v-60h-60v60c0 16.569 13.431 30 30 30z"/><path d="m422 181c0 33.091-26.909 60-60 60-18.007 0-33.995-8.134-45-20.729-11.005 12.595-26.993 20.729-45 20.729-3.08 0-200.08 0-197 0-41.353 0-75 33.647-75 75v105h30v-105c0-24.814 20.186-45 45-45h15v60h-30v181c3.907 0 94.537 0 90 0v-30h-30v-91h15c15.952 0 30.835-8.672 38.848-22.632l4.321-7.368h153.831v151c3.907 0 94.537 0 90 0v-30h-30v-120.766c1.893-3.018 30-27.605 30-72.656v-17.578c0-16.538 13.462-30 30-30h30c16.538 0 30-13.462 30-30v-90h-90z"/></g></svg>