<svg id="Capa_1" enable-background="new 0 0 512 512" height="512" viewBox="0 0 512 512" width="512" xmlns="http://www.w3.org/2000/svg"><g><path d="m194.949 17.695c21.93 4.518 42.771 13.599 61.051 26.72 18.28-13.122 39.12-22.202 61.051-26.72-18.088-11.439-39.21-17.695-61.051-17.695s-42.963 6.256-61.051 17.695z"/><path d="m256 275.032c12.83 0 25.172-2.127 36.694-6.046v-94.61c0-38.207-16.683-74.251-45.79-99.022l-.563-.473c-23.359-19.657-53.059-30.482-83.625-30.482h-20.953v116.397c.001 62.99 51.247 114.236 114.237 114.236z"/><path d="m349.283 44.398c-24.883 0-49.191 7.176-69.973 20.448 27.76 29.522 43.384 68.511 43.384 109.53v79.108c28.775-20.764 47.542-54.574 47.542-92.689v-116.397z"/><path d="m338.303 385.026c-27.825 0-52.406 13.822-67.303 34.959v-115.73c-4.932.512-9.935.777-15 .777s-10.068-.266-15-.777v115.73c-14.897-21.138-39.478-34.959-67.303-34.959h-76.415v44.671c0 45.455 36.848 82.303 82.303 82.303h152.829c45.455 0 82.303-36.848 82.303-82.303v-44.671z"/></g></svg>