<?xml version="1.0" encoding="utf-8"?>
<!-- Generator: Adobe Illustrator 24.0.0, SVG Export Plug-In . SVG Version: 6.00 Build 0)  -->
<svg version="1.1" id="Capa_1" xmlns="http://www.w3.org/2000/svg" xmlns:xlink="http://www.w3.org/1999/xlink" x="0px" y="0px"
	 viewBox="0 0 432.1 496" style="enable-background:new 0 0 432.1 496;" xml:space="preserve">
<style type="text/css">
	.st0{fill:#5C8CC9;}
	.st1{fill:#FFFFFF;}
</style>
<g>
	<g>
		<g>
			<g>
				<g>
					<g>
						<g>
							<g>
								<g>
									<g>
										<g>
											<g>
												<g>
													<g>
														<g>
															<path class="st0" d="M427.9,205.5C423.3,118.7,361.6,40,278.8,13.8c-87.5-27.6-187,8.4-238.4,84.1
																c-52.8,77.8-44.5,182,1.3,260.8c25,43.2,61.5,80.1,105,104.8c11.4,6.4,23.2,12.2,35.3,17.3
																c11.8,5.1,24.4,11.8,37.6,10.5c12.7-1.2,25.5-8.1,36.9-13.3c10.8-4.8,21.4-10.2,31.6-16.3
																c75.9-45.3,128.7-126.2,138.4-214.1C428,233.7,428.5,219.5,427.9,205.5z"/>
															<path class="st1" d="M216.2,495.3c-11.2,0-21.8-4.7-31.3-9c-1.5-0.7-3-1.4-4.5-2c-12-5.1-24-11-35.6-17.5
																C101,442.1,64.2,405.4,38.3,360.6C14.5,319.7,1.3,273.8,0.1,228c-1.3-49,11.5-94.8,37-132.3S100.8,29,144.8,13.4
																C189-2.3,237-3.5,280,10c84.7,26.8,147.1,107.1,151.8,195.2l0,0c0.6,14.3,0.1,28.6-1.5,42.7
																c-4.8,43.6-20.4,86.8-45,124.7c-24.5,37.8-57.4,69.7-95.3,92.3c-9.9,5.9-20.7,11.5-32,16.5c-1.6,0.8-3.4,1.6-5.1,2.4
																c-10.1,4.8-21.6,10.1-33.1,11.2C218.6,495.3,217.4,495.3,216.2,495.3z M218.6,8.5c-68,0-135.7,33.9-175,91.5
																C-4.7,171.1-4.2,271.9,45,356.7C70.2,400.2,106,436,148.5,460c11.3,6.3,23.1,12.1,34.8,17.1c1.6,0.7,3.1,1.4,4.7,2.1
																c10.1,4.5,20.5,9.2,31,8.2c10.1-0.9,20.5-5.8,30.5-10.5c1.8-0.8,3.5-1.6,5.2-2.4c11.1-5,21.6-10.4,31.2-16.1
																c74.7-44.6,127-125.5,136.5-211.1c1.5-13.7,2-27.7,1.5-41.5c-4.5-84.9-64.7-162.3-146.3-188.1
																C258.4,11.4,238.5,8.5,218.6,8.5z"/>
														</g>
														<path class="st1" d="M110,118.7c45.4-51.9,127.1-61.4,184.2-23.6c56,37,77.7,111.9,51.1,173.3
															c-12.6,28.8-34.2,52.6-61.6,68c-13.3,7.4-27.7,12.6-42.6,15.3c-8.7,1.7-17.6,2.5-26.4,2.3c-7.4-0.2-21.6-4.7-28.2,0.2
															c-5.6,4.2-2.2,11.4-0.8,16.7c2.1,8,2.6,16.5-0.2,24.4c-4.6,13.3-19.2,23.3-33.3,23.2c-25-0.3-38.2-31.7-46.2-51
															C74.5,290.7,52.1,188.5,110,118.7z"/>
													</g>
												</g>
											</g>
										</g>
									</g>
								</g>
							</g>
						</g>
					</g>
				</g>
			</g>
		</g>
	</g>
</g>
<g id="Glyph">
	<path class="st0" d="M263.7,164.9c-5.6-18.3-19.9-23.7-28.3-23.7c-3.1,0-6,1.4-8,3.8c-7.2,9-15.4,18.6-22.9,26.8
		c17.7-5.6,34.7-10.2,41.1-10.2C251.8,161.6,258,162.7,263.7,164.9z"/>
	<path class="st0" d="M155.1,199.8c-54.7,21.4-62.6,33.5-62.6,43.4c0,8.7,7.6,12.3,17.4,14.1l-1.9,9.4l20,4l2.2-10.9
		c6.4,0.5,13.9,1,22.3,1.5l-1.2,8.6l20.2,2.9l1.5-10.6c2.2,0.1,4.5,0.2,6.8,0.2c4.3,0.1,8.6,0.3,13,0.3c-4.4-14.5-11-28.2-19.5-40.6
		C168.1,214,162,206.5,155.1,199.8z"/>
	<path class="st0" d="M194.6,185.7c-6.3,2.1-12.6,4.2-18.7,6.4c17.6,19.4,33.6,48.9,38,71c-6.4-0.1-12.9-0.2-19.3-0.4v11.1H215
		v-10.7h-0.2c6.5,0.1,13,0.2,19.4,0.3C229.4,240.2,211.5,205,194.6,185.7z"/>
	<path class="st0" d="M337.5,222.8c0-33.2-11-45.8-13.2-48.1c-4-4-10.5-4-14.4,0c-0.8,0.8-1.4,1.7-1.9,2.7
		c-0.1,0.1-7.7,14.6-21.2,14.8c-2.6-1.5-5-3.3-7.2-5.3c-7.7-6.4-18.3-15.2-33.9-15.2c-4,0-15.8,3-30.1,7.3
		c19.7,25.2,35.2,61.7,39.2,84.5c3.9,0,7.6,0,11.3,0v10.3h20.4v-10.2h10.2v10.2h20.4v-14.2C330.3,253.6,337.5,240.9,337.5,222.8z
		 M250.8,202.4c-5.6,0-10.2-4.6-10.2-10.2s4.6-10.2,10.2-10.2c5.6,0,10.2,4.6,10.2,10.2S256.4,202.4,250.8,202.4z"/>
</g>
</svg>
