<?xml version="1.0" encoding="utf-8"?>
<!-- Generator: Adobe Illustrator 24.0.0, SVG Export Plug-In . SVG Version: 6.00 Build 0)  -->
<svg version="1.1" id="Capa_1" xmlns="http://www.w3.org/2000/svg" xmlns:xlink="http://www.w3.org/1999/xlink" x="0px" y="0px"
	 viewBox="0 0 432.1 496" style="enable-background:new 0 0 432.1 496;" xml:space="preserve">
<style type="text/css">
	.st0{fill:#5C8CC9;}
	.st1{fill:#FFFFFF;}
	.st2{fill:#D32F2F;}
</style>
<g>
	<g>
		<g>
			<path class="st0" d="M398.9,225.8c-4.3-80.9-61.8-154.3-139-178.7C178.3,21.3,85.6,55,37.6,125.5C-11.6,198-3.9,295.1,38.8,368.6
				c23.3,40.3,57.3,74.7,97.9,97.7c10.6,6,21.6,11.4,32.9,16.1c11,4.8,22.7,11,35.1,9.8c11.8-1.1,23.8-7.5,34.4-12.4
				c10.1-4.5,20-9.5,29.5-15.2c70.8-42.2,119.9-117.6,129-199.6C399,252.1,399.5,238.9,398.9,225.8z"/>
			<path class="st1" d="M201.5,496c-10.5,0-20.4-4.4-29.2-8.4c-1.4-0.6-2.8-1.3-4.2-1.9c-11.2-4.7-22.4-10.2-33.2-16.3
				c-40.8-23.1-75.1-57.3-99.2-99C13.5,332.3,1.2,289.5,0.1,246.7c-1.2-45.7,10.7-88.3,34.5-123.4c23.7-34.8,59.4-62,100.3-76.6
				C176.2,32,221,30.9,261,43.6c79,25,137.2,99.8,141.5,182l0,0c0.7,13.3,0.2,26.7-1.4,39.9c-4.5,40.6-19,80.8-41.9,116.2
				c-22.8,35.2-53.6,65-88.8,86c-9.2,5.5-19.3,10.7-29.9,15.4c-1.5,0.7-3.1,1.5-4.8,2.2c-9.4,4.4-20.1,9.5-30.8,10.4
				C203.8,495.9,202.6,496,201.5,496z M203.6,42.2c-63.3,0-126.4,31.5-163,85.3c-45,66.3-44.5,160.2,1.3,239.2
				c23.5,40.6,56.9,73.9,96.5,96.3c10.6,6,21.6,11.4,32.6,16c1.5,0.6,2.9,1.3,4.3,1.9c9.4,4.2,19.1,8.5,28.9,7.6
				c9.4-0.9,19.1-5.4,28.4-9.8c1.6-0.8,3.3-1.5,4.9-2.3c10.4-4.6,20.2-9.7,29.1-15c69.6-41.5,118.4-117,127.2-196.8
				c1.5-12.8,2-25.8,1.4-38.7C391,146.8,334.9,74.7,258.8,50.6C240.8,44.9,222.2,42.2,203.6,42.2z"/>
		</g>
		<g>
			<path class="st1" d="M103.9,147.4c42.3-48.3,118.5-57.2,171.7-22c52.2,34.5,72.4,104.3,47.6,161.6
				c-11.7,26.8-31.9,49.1-57.4,63.4c-12.4,6.9-25.8,11.7-39.7,14.3c-8.1,1.6-16.4,2.3-24.6,2.1c-6.9-0.2-20.1-4.4-26.3,0.2
				c-5.2,3.9-2,10.6-0.7,15.6c1.9,7.4,2.4,15.4-0.2,22.7c-4.3,12.4-17.9,21.7-31,21.6c-23.3-0.3-35.6-29.6-43-47.5
				C70.8,307.8,49.9,212.5,103.9,147.4z"/>
		</g>
	</g>
</g>
<g>
	<g>
		<path class="st2" d="M355.5,149.3c-40,0-72.6-32.5-72.6-72.5S315.4,3.9,355.6,4c40.1,0.1,72.5,32.7,72.5,72.6
			C428,116.8,395.5,149.3,355.5,149.3z"/>
		<path class="st1" d="M355.5,153.3c-42.3,0-76.6-34.3-76.6-76.5c0-20.5,8-39.8,22.6-54.4C315.9,7.9,335.1,0,355.4,0
			c0.1,0,0.1,0,0.2,0c42.2,0.1,76.5,34.5,76.5,76.6C432,118.9,397.6,153.3,355.5,153.3z M355.4,8c-18.2,0-35.3,7.1-48.3,20
			c-13.1,13-20.3,30.3-20.3,48.7c0,37.8,30.8,68.5,68.6,68.5c37.7,0,68.5-30.8,68.6-68.7c0-37.7-30.8-68.5-68.5-68.6
			C355.5,8,355.4,8,355.4,8z"/>
	</g>
</g>
<g>
	<path class="st1" d="M318.2,78.3h10.4l-16.3,22.4c-1.6,2.2-1.8,5.1-0.7,7.5c1.2,2.5,3.7,4,6.5,4h24.6c4,0,7.2-3.2,7.2-7.2
		s-3.2-7.2-7.2-7.2h-10.4l16.3-22.4c1.6-2.2,1.8-5.1,0.7-7.5c-1.2-2.5-3.7-4-6.5-4h-24.6c-4,0-7.2,3.2-7.2,7.2
		C311.2,75.1,314.3,78.3,318.2,78.3z"/>
	<path class="st1" d="M392.7,75h-10.4l16.3-22.4c1.6-2.2,1.8-5.1,0.7-7.5c-1.3-2.3-3.8-4-6.5-4H368c-4,0-7.2,3.4-7.2,7.3
		c0,4,3.2,7.2,7.2,7.2h10.4L362,78c-1.6,2.2-1.8,5.1-0.7,7.5c1.2,2.5,3.7,4,6.5,4h24.6c4,0,7.2-3.2,7.2-7.2
		C399.7,78.3,396.6,75,392.7,75z"/>
</g>
<g>
	<g>
		<g id="Glyph">
			<path class="st0" d="M247.2,190.4c-5.2-17.1-18.5-22.1-26.4-22.1c-2.9,0-5.6,1.3-7.4,3.6c-6.7,8.4-14.3,17.3-21.3,25
				c16.5-5.2,32.4-9.5,38.3-9.5C236.1,187.3,241.8,188.4,247.2,190.4z"/>
			<path class="st0" d="M145.9,223c-51,19.9-58.3,31.2-58.3,40.5c0,8.1,7.1,11.4,16.2,13.2l-1.8,8.7l18.7,3.7l2-10.2
				c5.9,0.5,12.9,1,20.8,1.4l-1.1,8l18.8,2.7l1.4-9.9c2.1,0.1,4.2,0.1,6.4,0.2c4,0.1,8,0.2,12.1,0.3c-4.1-13.5-10.2-26.3-18.2-37.9
				C158.1,236.2,152.4,229.3,145.9,223z"/>
			<path class="st0" d="M182.7,209.8c-5.9,1.9-11.8,4-17.4,5.9c16.4,18.1,31.3,45.6,35.4,66.2c-6-0.1-12-0.2-17.9-0.3V292h19v-10
				h-0.2c6.1,0.1,12.1,0.2,18.1,0.2C215.2,260.6,198.5,227.9,182.7,209.8z"/>
			<path class="st0" d="M316,244.4c0-30.9-10.2-42.7-12.3-44.8c-3.7-3.7-9.7-3.7-13.5,0c-0.7,0.7-1.3,1.6-1.8,2.5
				c-0.1,0.1-7.1,13.6-19.8,13.8c-2.4-1.4-4.6-3-6.7-4.9c-7.2-6-17.1-14.1-31.6-14.1c-3.8,0-14.7,2.8-28.1,6.8
				c18.3,23.5,32.8,57.5,36.6,78.7c3.6,0,7.1,0,10.5,0v9.6h19v-9.5h9.5v9.5h19v-13.3C309.2,273.1,316,261.3,316,244.4z M235.1,225.4
				c-5.3,0-9.5-4.3-9.5-9.5c0-5.3,4.3-9.5,9.5-9.5c5.3,0,9.5,4.3,9.5,9.5C244.6,221.1,240.4,225.4,235.1,225.4z"/>
		</g>
	</g>
</g>
</svg>
