<?xml version="1.0" encoding="utf-8"?>
<!-- Generator: Adobe Illustrator 24.0.0, SVG Export Plug-In . SVG Version: 6.00 Build 0)  -->
<svg version="1.1" id="Capa_1" xmlns="http://www.w3.org/2000/svg" xmlns:xlink="http://www.w3.org/1999/xlink" x="0px" y="0px"
	 viewBox="0 0 432.1 496" style="enable-background:new 0 0 432.1 496;" xml:space="preserve">
<style type="text/css">
	.st0{fill:#5C8CC9;}
	.st1{fill:#FFFFFF;}
</style>
<g>
	<g>
		<g>
			<g>
				<g>
					<g>
						<g>
							<g>
								<g>
									<g>
										<g>
											<g>
												<g>
													<g>
														<g>
															<path class="st0" d="M427.9,205.5C423.3,118.7,361.6,40,278.8,13.8c-87.5-27.6-187,8.4-238.4,84.1
																c-52.8,77.8-44.5,182,1.3,260.8c25,43.2,61.5,80.1,105,104.8c11.4,6.4,23.2,12.2,35.3,17.3
																c11.8,5.1,24.4,11.8,37.6,10.5c12.7-1.2,25.5-8.1,36.9-13.3c10.8-4.8,21.4-10.2,31.6-16.3
																c75.9-45.3,128.7-126.2,138.4-214.1C428,233.7,428.5,219.5,427.9,205.5z"/>
															<path class="st1" d="M216.2,495.3c-11.2,0-21.8-4.7-31.3-9c-1.5-0.7-3-1.4-4.5-2c-12-5.1-24-11-35.6-17.5
																C101,442.1,64.2,405.4,38.3,360.6C14.5,319.7,1.3,273.8,0.1,228c-1.3-49,11.5-94.8,37-132.3S100.8,29,144.8,13.4
																C189-2.3,237-3.5,280,10c84.7,26.8,147.1,107.1,151.8,195.2l0,0c0.6,14.3,0.1,28.6-1.5,42.7
																c-4.8,43.6-20.4,86.8-45,124.7c-24.5,37.8-57.4,69.7-95.3,92.3c-9.9,5.9-20.7,11.5-32,16.5c-1.6,0.8-3.4,1.6-5.1,2.4
																c-10.1,4.8-21.6,10.1-33.1,11.2C218.6,495.3,217.4,495.3,216.2,495.3z M218.6,8.5c-68,0-135.7,33.9-175,91.5
																C-4.7,171.1-4.2,271.9,45,356.7C70.2,400.2,106,436,148.5,460c11.3,6.3,23.1,12.1,34.8,17.1c1.6,0.7,3.1,1.4,4.7,2.1
																c10.1,4.5,20.5,9.2,31,8.2c10.1-0.9,20.5-5.8,30.5-10.5c1.8-0.8,3.5-1.6,5.2-2.4c11.1-5,21.6-10.4,31.2-16.1
																c74.7-44.6,127-125.5,136.5-211.1c1.5-13.7,2-27.7,1.5-41.5c-4.5-84.9-64.7-162.3-146.3-188.1
																C258.4,11.4,238.5,8.5,218.6,8.5z"/>
														</g>
														<path class="st1" d="M110,118.7c45.4-51.9,127.1-61.4,184.2-23.6c56,37,77.7,111.9,51.1,173.3
															c-12.6,28.8-34.2,52.6-61.6,68c-13.3,7.4-27.7,12.6-42.6,15.3c-8.7,1.7-17.6,2.5-26.4,2.3c-7.4-0.2-21.6-4.7-28.2,0.2
															c-5.6,4.2-2.2,11.4-0.8,16.7c2.1,8,2.6,16.5-0.2,24.4c-4.6,13.3-19.2,23.3-33.3,23.2c-25-0.3-38.2-31.7-46.2-51
															C74.5,290.7,52.1,188.5,110,118.7z"/>
													</g>
												</g>
											</g>
										</g>
									</g>
								</g>
							</g>
						</g>
					</g>
				</g>
			</g>
		</g>
	</g>
</g>
<g>
	<path class="st0" d="M282.9,145.2c-11.4-11.4-26.5-17.6-42.5-17.6c-16.1,0-31.2,6.3-42.5,17.6c-32.9,32.9-54.6,64.7-64.6,94.5
		c-7.6,22.6-5.6,36-5.1,38.4c2,10.1,3.3,11.8,6.7,15.2c4.2,4.2,9.8,6.5,15.7,6.5s11.5-2.3,15.7-6.5c40.5-40.5,63.3-43,81.6-45.1
		c12-1.4,19.2-2.2,35-18c11.4-11.4,17.6-26.5,17.6-42.5S294.2,156.5,282.9,145.2L282.9,145.2z M268.5,205.4c-5.2,5.2-12.1,8-19.4,8
		c-7.3,0-14.2-2.9-19.4-8c-10.7-10.7-10.7-28.1,0-38.8c5.2-5.2,12.1-8,19.4-8c7.3,0,14.2,2.9,19.4,8c5.2,5.2,8,12.1,8,19.4
		C276.6,193.3,273.7,200.2,268.5,205.4z"/>
	<path class="st0" d="M301.6,126.5c-16.4-16.4-38.1-25.4-61.3-25.4c-23.1,0-44.9,9-61.3,25.4c-35.8,35.8-59.7,71-71,104.8
		c-9.2,27.4-7.2,45.4-6,51.9c2.4,12.3,5.2,20.2,13.9,28.9c9.2,9.2,21.4,14.3,34.5,14.3c13,0,25.3-5.1,34.5-14.3
		c33.9-33.9,50.2-35.8,65.9-37.5c14-1.6,28.4-3.2,50.8-25.5c16.4-16.4,25.4-38.1,25.4-61.3S317.9,142.8,301.6,126.5L301.6,126.5z
		 M292.2,239.6c-19.1,19.1-29.6,20.2-42.9,21.8c-17.1,1.9-36.6,4.1-73.8,41.3c-13.8,13.8-36.4,13.8-50.2,0c-5.9-5.9-8-10.4-10.3-22
		c-0.8-4.3-2.9-20.1,5.5-45.2c10.7-31.8,33.5-65.3,67.8-99.6c13.9-13.9,32.3-21.5,51.9-21.5c19.6,0,38,7.6,51.9,21.5
		c13.9,13.9,21.5,32.3,21.5,51.9S306.1,225.7,292.2,239.6L292.2,239.6z"/>
	<path class="st0" d="M249.1,171.8c-3.8,0-7.4,1.5-10,4.2c-5.5,5.5-5.5,14.5,0,20.1c2.7,2.7,6.2,4.2,10,4.2c3.8,0,7.4-1.5,10-4.2
		c2.7-2.7,4.2-6.2,4.2-10s-1.5-7.4-4.2-10C256.5,173.3,252.9,171.8,249.1,171.8z"/>
</g>
</svg>
