<?xml version="1.0" encoding="utf-8"?>
<!-- Generator: Adobe Illustrator 24.0.0, SVG Export Plug-In . SVG Version: 6.00 Build 0)  -->
<svg version="1.1" id="Capa_1" xmlns="http://www.w3.org/2000/svg" xmlns:xlink="http://www.w3.org/1999/xlink" x="0px" y="0px"
	 viewBox="0 0 432.1 496" style="enable-background:new 0 0 432.1 496;" xml:space="preserve">
<style type="text/css">
	.st0{fill:#2E9A37;}
	.st1{fill:#FFFFFF;}
	.st2{fill:none;}
</style>
<g>
	<g>
		<g>
			<path class="st0" d="M427.9,205.5C423.3,118.7,361.6,40,278.8,13.8c-87.5-27.6-187,8.4-238.4,84.1c-52.8,77.8-44.5,182,1.3,260.8
				c25,43.2,61.5,80.1,105,104.8c11.4,6.4,23.2,12.2,35.3,17.3c11.8,5.1,24.4,11.8,37.6,10.5c12.7-1.2,25.5-8.1,36.9-13.3
				c10.8-4.8,21.4-10.2,31.6-16.3c75.9-45.3,128.7-126.2,138.4-214.1C428,233.7,428.5,219.5,427.9,205.5z"/>
			<path class="st1" d="M216.2,495.3c-11.2,0-21.8-4.7-31.3-9c-1.5-0.7-3-1.4-4.5-2c-12-5.1-24-11-35.6-17.5
				C101,442.1,64.2,405.4,38.3,360.6C14.5,319.7,1.3,273.8,0.1,228c-1.3-49,11.5-94.8,37-132.3S100.8,29,144.8,13.4
				C189-2.3,237-3.5,280,10c84.7,26.8,147.1,107.1,151.8,195.2l0,0c0.6,14.3,0.1,28.6-1.5,42.7c-4.8,43.6-20.4,86.8-45,124.7
				c-24.5,37.8-57.4,69.7-95.3,92.3c-9.9,5.9-20.7,11.5-32,16.5c-1.6,0.8-3.4,1.6-5.1,2.4c-10.1,4.8-21.6,10.1-33.1,11.2
				C218.6,495.3,217.4,495.3,216.2,495.3z M218.6,8.5c-68,0-135.7,33.9-175,91.5C-4.7,171.1-4.2,271.9,45,356.7
				C70.2,400.2,106,436,148.5,460c11.3,6.3,23.1,12.1,34.8,17.1c1.6,0.7,3.1,1.4,4.7,2.1c10.1,4.5,20.5,9.2,31,8.2
				c10.1-0.9,20.5-5.8,30.5-10.5c1.8-0.8,3.5-1.6,5.2-2.4c11.1-5,21.6-10.4,31.2-16.1c74.7-44.6,127-125.5,136.5-211.1
				c1.5-13.7,2-27.7,1.5-41.5c-4.5-84.9-64.7-162.3-146.3-188.1C258.4,11.4,238.5,8.5,218.6,8.5z"/>
		</g>
		<path class="st1" d="M110,118.7c45.4-51.9,127.1-61.4,184.2-23.6c56,37,77.7,111.9,51.1,173.3c-12.6,28.8-34.2,52.6-61.6,68
			c-13.3,7.4-27.7,12.6-42.6,15.3c-8.7,1.7-17.6,2.5-26.4,2.3c-7.4-0.2-21.6-4.7-28.2,0.2c-5.6,4.2-2.2,11.4-0.8,16.7
			c2.1,8,2.6,16.5-0.2,24.4c-4.6,13.3-19.2,23.3-33.3,23.2c-25-0.3-38.2-31.7-46.2-51C74.5,290.7,52.1,188.5,110,118.7z"/>
	</g>
</g>
<path d="M198.3,163.2L198.3,163.2C198.1,163.4,197.8,163.9,198.3,163.2z"/>
<g>
	<path class="st2" d="M223,234.2l-9.1-1.9c-8.8-2-12.4-4.5-12.4-9.2c0-5.7,5.5-9.4,13.1-9.4c7.6,0,13.1,4,13.9,9.9h14.7
		c-0.4-10.9-8.3-19-20.1-21.6v-14.2h-17.5V202c-12.2,2.7-19.8,11-19.8,22.4s6.7,18.6,20.4,21.4l9.8,2.1c9.2,2.1,13,4.8,13,9.6
		c0,5.6-5.8,9.6-14,9.6c-8.9,0-15-3.9-15.7-10H184c0.6,11.6,8.7,19.5,21.6,21.9v14h17.5v-14c13.4-2.6,21.5-11,21.5-23.5
		C244.6,243.8,238.1,237.3,223,234.2z"/>
	<path class="st0" d="M260.2,158.9h-91.7c-10.5,9.6-59.5,57.5-59.5,112.3c0,35.1,26.4,52.6,43.9,52.6h122.9
		c17.5,0,43.9-17.6,43.9-52.6C319.7,216.3,270.7,168.5,260.2,158.9z M223.1,279v14h-17.5v-14c-12.9-2.4-21-10.4-21.6-21.9h15.2
		c0.7,6.1,6.9,10,15.7,10c8.2,0,14-4,14-9.6c0-4.8-3.7-7.5-13-9.6l-9.8-2.1c-13.7-2.9-20.4-10-20.4-21.4s7.6-19.7,19.8-22.4v-14.1
		H223V202c11.9,2.6,19.8,10.7,20.1,21.6h-14.7c-0.7-5.9-6.3-9.9-13.9-9.9c-7.6,0-13.1,3.7-13.1,9.4c0,4.6,3.6,7.2,12.4,9.2l9.1,1.9
		c15.1,3.2,21.6,9.6,21.6,21.3C244.6,268.1,236.6,276.5,223.1,279z"/>
	<path class="st0" d="M266.4,116.4c1.8-4.5-0.4-9.6-5-11.4c-1-0.4-2.1-0.6-3.2-0.6H234c-9.8-10.8-26.5-11.7-37.3-1.9
		c-0.7,0.6-1.3,1.3-1.9,1.9h-24.3c-4.9,0-8.8,4-8.8,8.8c0,1.1,0.2,2.2,0.6,3.2l7.4,21H259L266.4,116.4z"/>
</g>
</svg>
