<?xml version="1.0" encoding="utf-8"?>
<!-- Generator: Adobe Illustrator 24.0.0, SVG Export Plug-In . SVG Version: 6.00 Build 0)  -->
<svg version="1.1" id="Capa_1" xmlns="http://www.w3.org/2000/svg" xmlns:xlink="http://www.w3.org/1999/xlink" x="0px" y="0px"
	 viewBox="0 0 432.1 496" style="enable-background:new 0 0 432.1 496;" xml:space="preserve">
<style type="text/css">
	.st0{fill:#2E9A37;}
	.st1{fill:#FFFFFF;}
	.st2{fill:none;}
	.st3{fill:#4CAF50;}
</style>
<g>
	<g>
		<g>
			<path class="st0" d="M398.9,225.8c-4.3-80.9-61.8-154.3-139-178.7C178.3,21.3,85.6,55,37.6,125.5C-11.6,198-3.9,295.1,38.8,368.6
				c23.3,40.3,57.3,74.7,97.9,97.7c10.6,6,21.6,11.4,32.9,16.1c11,4.8,22.7,11,35.1,9.8c11.8-1.1,23.8-7.5,34.4-12.4
				c10.1-4.5,20-9.5,29.5-15.2c70.8-42.2,119.9-117.6,129-199.6C399,252.1,399.5,238.9,398.9,225.8z"/>
			<path class="st1" d="M201.5,496c-10.5,0-20.4-4.4-29.2-8.4c-1.4-0.6-2.8-1.3-4.2-1.9c-11.2-4.7-22.4-10.2-33.2-16.3
				c-40.8-23.1-75.1-57.3-99.2-99C13.5,332.3,1.2,289.5,0.1,246.7c-1.2-45.7,10.7-88.3,34.5-123.4c23.7-34.8,59.4-62,100.3-76.6
				C176.2,32,221,30.9,261,43.6c79,25,137.2,99.8,141.5,182l0,0c0.7,13.3,0.2,26.7-1.4,39.9c-4.5,40.6-19,80.8-41.9,116.2
				c-22.8,35.2-53.6,65-88.8,86c-9.2,5.5-19.3,10.7-29.9,15.4c-1.5,0.7-3.1,1.5-4.8,2.2c-9.4,4.4-20.1,9.5-30.8,10.4
				C203.8,495.9,202.6,496,201.5,496z M203.6,42.2c-63.3,0-126.4,31.5-163,85.3c-45,66.3-44.5,160.2,1.3,239.2
				c23.5,40.6,56.9,73.9,96.5,96.3c10.6,6,21.6,11.4,32.6,16c1.5,0.6,2.9,1.3,4.3,1.9c9.4,4.2,19.1,8.5,28.9,7.6
				c9.4-0.9,19.1-5.4,28.4-9.8c1.6-0.8,3.3-1.5,4.9-2.3c10.4-4.6,20.2-9.7,29.1-15c69.6-41.5,118.4-117,127.2-196.8
				c1.5-12.8,2-25.8,1.4-38.7C391,146.8,334.9,74.7,258.8,50.6C240.8,44.9,222.2,42.2,203.6,42.2z"/>
		</g>
		<g>
			<path class="st1" d="M103.9,147.4c42.3-48.3,118.5-57.2,171.7-22c52.2,34.5,72.4,104.3,47.6,161.6
				c-11.7,26.8-31.9,49.1-57.4,63.4c-12.4,6.9-25.8,11.7-39.7,14.3c-8.1,1.6-16.4,2.3-24.6,2.1c-6.9-0.2-20.1-4.4-26.3,0.2
				c-5.2,3.9-2,10.6-0.7,15.6c1.9,7.4,2.4,15.4-0.2,22.7c-4.3,12.4-17.9,21.7-31,21.6c-23.3-0.3-35.6-29.6-43-47.5
				C70.8,307.8,49.9,212.5,103.9,147.4z"/>
		</g>
	</g>
</g>
<g>
	<g>
		<g>
			<g>
				<path class="st1" d="M104.3,147.4c42.3-48.3,118.5-57.2,171.7-22c52.2,34.5,72.4,104.3,47.6,161.6
					c-11.7,26.8-31.9,49.1-57.4,63.4c-12.4,6.9-25.8,11.7-39.7,14.3c-8.1,1.6-16.4,2.3-24.6,2.1c-6.9-0.2-20.1-4.4-26.3,0.2
					c-5.2,3.9-2,10.6-0.7,15.6c1.9,7.4,2.4,15.4-0.2,22.7c-4.3,12.4-17.9,21.7-31,21.6c-23.3-0.3-35.6-29.6-43-47.5
					C71.2,307.8,50.3,212.5,104.3,147.4z"/>
			</g>
		</g>
	</g>
	<g>
		<path d="M186.7,188.9L186.7,188.9C186.5,189.1,186.3,189.6,186.7,188.9z"/>
		<g>
			<path class="st2" d="M209.8,255.1l-8.4-1.8c-8.2-1.8-11.6-4.2-11.6-8.6c0-5.3,5.1-8.7,12.2-8.7c7.1,0,12.2,3.7,12.9,9.2h13.7
				c-0.4-10.1-7.7-17.7-18.8-20.1v-13.2h-16.3V225c-11.3,2.5-18.4,10.2-18.4,20.9s6.3,17.3,19,20l9.1,1.9c8.6,1.9,12.1,4.5,12.1,9
				c0,5.3-5.4,9-13,9c-8.3,0-14-3.6-14.7-9.3h-14.2c0.5,10.8,8.1,18.2,20.1,20.5V310h16.3v-13.1c12.5-2.4,20.1-10.2,20.1-21.9
				C229.9,264,223.9,258,209.8,255.1z"/>
			<path class="st0" d="M244.4,184.9H159c-9.8,9-55.4,53.6-55.4,104.7c0,32.7,24.6,49.1,40.9,49.1H259c16.3,0,40.9-16.4,40.9-49.1
				C299.9,238.4,254.2,193.8,244.4,184.9z M209.9,296.9V310h-16.3v-13.1c-12-2.2-19.6-9.7-20.1-20.5h14.2c0.7,5.7,6.4,9.3,14.7,9.3
				c7.6,0,13-3.7,13-9c0-4.5-3.5-7-12.1-9l-9.1-1.9c-12.8-2.7-19-9.3-19-20s7.1-18.4,18.4-20.9v-13.2h16.3v13.2
				c11.1,2.5,18.4,10,18.8,20.1h-13.7c-0.7-5.5-5.8-9.2-12.9-9.2c-7.1,0-12.2,3.4-12.2,8.7c0,4.3,3.3,6.7,11.6,8.6l8.4,1.8
				c14.1,3,20.1,9,20.1,19.9C229.9,286.7,222.4,294.5,209.9,296.9z"/>
			<path class="st0" d="M250.2,145.3c1.7-4.2-0.4-9-4.6-10.6c-0.9-0.4-1.9-0.6-3-0.6H220c-9.1-10.1-24.7-10.9-34.8-1.8
				c-0.6,0.6-1.2,1.2-1.8,1.8h-22.6c-4.5,0-8.2,3.7-8.2,8.2c0,1,0.2,2,0.6,3l6.9,19.6h83.1L250.2,145.3z"/>
		</g>
	</g>
</g>
<g>
	<g>
		<g>
			<path d="M186.7,188.9L186.7,188.9C186.5,189.1,186.2,189.6,186.7,188.9z"/>
		</g>
	</g>
</g>
<g>
	<g>
		<path class="st3" d="M355.5,149.3c-40,0-72.6-32.5-72.6-72.5S315.4,3.9,355.6,4c40.1,0.1,72.5,32.7,72.5,72.6
			C428,116.8,395.5,149.3,355.5,149.3z"/>
		<path class="st1" d="M355.5,153.3c-42.3,0-76.6-34.3-76.6-76.5c0-20.5,8-39.8,22.6-54.4C315.9,7.9,335.1,0,355.4,0
			c0.1,0,0.1,0,0.2,0c42.2,0.1,76.5,34.5,76.5,76.6C432,118.9,397.6,153.3,355.5,153.3z M355.4,8c-18.2,0-35.3,7.1-48.3,20
			c-13.1,13-20.3,30.3-20.3,48.7c0,37.8,30.8,68.5,68.6,68.5c37.7,0,68.5-30.8,68.6-68.7c0-37.7-30.8-68.5-68.5-68.6
			C355.5,8,355.4,8,355.4,8z"/>
	</g>
	<path class="st1" d="M399.3,41.3c-3.9-3.7-10.1-3.5-13.8,0.4l0,0L339.1,91l-14-14l0,0c-3.8-3.8-10-3.8-13.8,0l0,0
		c-3.8,3.8-3.8,10,0,13.8l0,0l21,21l0,0c3.9,3.9,10.2,3.8,14-0.2l0,0L399.7,55l0,0C403.4,51.1,403.3,44.9,399.3,41.3L399.3,41.3z"/>
</g>
</svg>
