<?xml version="1.0" encoding="utf-8"?>
<!-- Generator: Adobe Illustrator 24.0.0, SVG Export Plug-In . SVG Version: 6.00 Build 0)  -->
<svg version="1.1" id="Capa_1" xmlns="http://www.w3.org/2000/svg" xmlns:xlink="http://www.w3.org/1999/xlink" x="0px" y="0px"
	 viewBox="0 0 432.1 496" style="enable-background:new 0 0 432.1 496;" xml:space="preserve">
<style type="text/css">
	.st0{fill:#EC7D30;}
	.st1{fill:#FFFFFF;}
</style>
<g>
	<g>
		<path class="st0" d="M427.9,205.4c-4.6-86.8-66.3-165.5-149.1-191.7c-87.5-27.7-187,8.4-238.4,84c-52.9,77.7-44.5,182,1.3,260.8
			c25.1,43.2,61.5,80.1,105,104.8c11.4,6.4,23.2,12.2,35.3,17.3c11.8,5.1,24.4,11.8,37.6,10.5c12.7-1.2,25.6-8.1,37-13.3
			c10.8-4.8,21.4-10.2,31.6-16.3c75.9-45.3,128.6-126.2,138.4-214.1C428,233.6,428.5,219.5,427.9,205.4z"/>
		<path class="st1" d="M216.2,495.3c-11.2,0-21.9-4.7-31.3-9c-1.5-0.7-3-1.4-4.6-2c-12-5.1-24-11-35.6-17.5
			c-43.8-24.8-80.5-61.5-106.5-106.2c-23.7-41-36.9-86.8-38.1-132.7c-1.3-49.1,11.5-94.7,37-132.3C62.6,58.1,100.7,29,144.7,13.4
			C189-2.3,237-3.5,279.9,10c84.7,26.9,147.2,107.1,151.9,195.3l0,0c0.6,14.3,0.1,28.6-1.5,42.8c-4.8,43.7-20.4,86.7-45,124.7
			c-24.5,37.8-57.5,69.8-95.3,92.3c-9.9,5.9-20.7,11.5-32.1,16.5c-1.6,0.8-3.4,1.6-5.1,2.4c-10.1,4.8-21.6,10.1-33.1,11.2
			C218.7,495.2,217.4,495.3,216.2,495.3z M218.6,8.5c-68,0-135.7,33.9-175,91.5C-4.8,171.2-4.2,271.9,45,356.6
			C70.3,400.2,106,436,148.5,460.1c11.3,6.4,23.1,12.1,34.9,17.1c1.6,0.7,3.1,1.4,4.7,2.1c10.1,4.5,20.5,9.2,31.1,8.2
			c10.1-0.9,20.5-5.8,30.5-10.5c1.8-0.8,3.5-1.6,5.2-2.4c11.1-5,21.6-10.4,31.3-16.1c74.7-44.6,127-125.5,136.5-211.2
			c1.5-13.7,2-27.7,1.5-41.5c-4.5-84.9-64.7-162.3-146.3-188.2C258.4,11.4,238.5,8.5,218.6,8.5z"/>
	</g>
	<path class="st1" d="M109.9,118.6C155.3,66.7,237.1,57.2,294.2,95c56,37.1,77.6,111.8,51.1,173.4c-12.6,28.8-34.2,52.7-61.6,68
		c-13.3,7.4-27.7,12.6-42.7,15.3c-8.7,1.7-17.6,2.5-26.4,2.3c-7.4-0.2-21.6-4.7-28.2,0.2c-5.6,4.2-2.2,11.4-0.8,16.7
		c2.1,8,2.6,16.5-0.2,24.4c-4.6,13.3-19.3,23.3-33.3,23.2c-25.1-0.3-38.2-31.7-46.2-51C74.5,290.7,52.1,188.4,109.9,118.6z"/>
	<path class="st0" d="M171.8,247.8c-5.7-3.2-9.2-9.3-9.2-15.8c0-27.9,22.6-50.5,50.5-50.6h20.8l1-16.2H116.9l8.5,139.8
		c0.2,3.2,2.8,5.7,6.1,5.7h37.3c-4-5.2-6.1-11.6-6.1-18.2c0-7.7,4.8-14.5,12-17.1c-5.2-8-5.2-18.4,0-26.4
		C172.7,248.7,171.6,248.2,171.8,247.8z"/>
	<path class="st0" d="M176,153.2h60.7c3.4-0.1,6-2.9,5.9-6.3c-0.1-3.2-2.7-5.8-5.9-5.9h-49.5l16.4-25.1h21c3.3,0,6.1-2.7,6.1-6.1
		c0-3.3-2.7-6.1-6.1-6.1h-24.3c-2,0-4,1-5.1,2.7l-22.5,34.5h-57.4c-3.4,0.1-6,2.9-5.9,6.3c0.1,3.2,2.7,5.8,5.9,5.9L176,153.2
		L176,153.2z"/>
	<path class="st0" d="M174.7,232c0,3.3,2.7,6.1,6.1,6.1h129.3c3.3,0,6.1-2.7,6.1-6.1l0,0c0-21.2-17.2-38.4-38.4-38.4h-64.7
		C192,193.6,174.8,210.8,174.7,232z"/>
	<path class="st0" d="M195,250.2c-6.7-0.2-12.3,5.2-12.4,11.9c-0.2,6.7,5.2,12.3,11.9,12.4c0.2,0,0.4,0,0.6,0h101
		c6.7-0.2,12-5.7,11.9-12.4c-0.1-6.5-5.4-11.7-11.9-11.9H195z"/>
	<path class="st0" d="M310.1,286.6H180.8c-3.3,0-6.1,2.7-6.1,6.1c0,10,8.2,18.2,18.2,18.2H298c10,0,18.2-8.2,18.2-18.2
		C316.2,289.3,313.5,286.6,310.1,286.6z"/>
</g>
</svg>
