<?xml version="1.0" encoding="utf-8"?>
<!-- Generator: Adobe Illustrator 24.0.0, SVG Export Plug-In . SVG Version: 6.00 Build 0)  -->
<svg version="1.1" id="Capa_1" xmlns="http://www.w3.org/2000/svg" xmlns:xlink="http://www.w3.org/1999/xlink" x="0px" y="0px"
	 viewBox="0 0 432.1 496" style="enable-background:new 0 0 432.1 496;" xml:space="preserve">
<style type="text/css">
	.st0{fill:#2E9A37;}
	.st1{fill:#FFFFFF;}
</style>
<g>
	<g>
		<g>
			<g>
				<path class="st0" d="M427.9,205.5C423.3,118.7,361.6,40,278.8,13.8c-87.5-27.6-187,8.4-238.4,84.1
					c-52.8,77.8-44.5,182,1.3,260.8c25,43.2,61.5,80.1,105,104.8c11.4,6.4,23.2,12.2,35.3,17.3c11.8,5.1,24.4,11.8,37.6,10.5
					c12.7-1.2,25.5-8.1,36.9-13.3c10.8-4.8,21.4-10.2,31.6-16.3c75.9-45.3,128.7-126.2,138.4-214.1
					C428,233.7,428.5,219.5,427.9,205.5z"/>
				<path class="st1" d="M216.2,495.3c-11.2,0-21.8-4.7-31.3-9c-1.5-0.7-3-1.4-4.5-2c-12-5.1-24-11-35.6-17.5
					C101,442.1,64.2,405.4,38.3,360.6C14.5,319.7,1.3,273.8,0.1,228c-1.3-49,11.5-94.8,37-132.3S100.8,29,144.8,13.4
					C189-2.3,237-3.5,280,10c84.7,26.8,147.1,107.1,151.8,195.2l0,0c0.6,14.3,0.1,28.6-1.5,42.7c-4.8,43.6-20.4,86.8-45,124.7
					c-24.5,37.8-57.4,69.7-95.3,92.3c-9.9,5.9-20.7,11.5-32,16.5c-1.6,0.8-3.4,1.6-5.1,2.4c-10.1,4.8-21.6,10.1-33.1,11.2
					C218.6,495.3,217.4,495.3,216.2,495.3z M218.6,8.5c-68,0-135.7,33.9-175,91.5C-4.7,171.1-4.2,271.9,45,356.7
					C70.2,400.2,106,436,148.5,460c11.3,6.3,23.1,12.1,34.8,17.1c1.6,0.7,3.1,1.4,4.7,2.1c10.1,4.5,20.5,9.2,31,8.2
					c10.1-0.9,20.5-5.8,30.5-10.5c1.8-0.8,3.5-1.6,5.2-2.4c11.1-5,21.6-10.4,31.2-16.1c74.7-44.6,127-125.5,136.5-211.1
					c1.5-13.7,2-27.7,1.5-41.5c-4.5-84.9-64.7-162.3-146.3-188.1C258.4,11.4,238.5,8.5,218.6,8.5z"/>
			</g>
			<path class="st1" d="M110,118.7c45.4-51.9,127.1-61.4,184.2-23.6c56,37,77.7,111.9,51.1,173.3c-12.6,28.8-34.2,52.6-61.6,68
				c-13.3,7.4-27.7,12.6-42.6,15.3c-8.7,1.7-17.6,2.5-26.4,2.3c-7.4-0.2-21.6-4.7-28.2,0.2c-5.6,4.2-2.2,11.4-0.8,16.7
				c2.1,8,2.6,16.5-0.2,24.4c-4.6,13.3-19.2,23.3-33.3,23.2c-25-0.3-38.2-31.7-46.2-51C74.5,290.7,52.1,188.5,110,118.7z"/>
		</g>
	</g>
</g>
<path class="st0" d="M219.8,337.2c19-2.7,35.6-22.5,46.1-51.7c-15.1-3.4-30.6-5.2-46.1-5.4V337.2z"/>
<path class="st0" d="M250.1,332.6c1.1-0.3,2.2-0.7,3.3-1c0.9-0.3,1.9-0.6,2.8-0.9c1.1-0.4,2.2-0.8,3.3-1.2c0.9-0.4,1.8-0.7,2.8-1.1
	c1.1-0.4,2.1-0.9,3.2-1.3c0.9-0.4,1.8-0.8,2.7-1.2c1-0.5,2-1,3.1-1.5c0.9-0.5,1.8-0.9,2.7-1.4c1-0.5,2-1.1,3-1.6
	c0.9-0.5,1.7-1,2.6-1.5c1-0.6,1.9-1.2,2.9-1.8c0.9-0.5,1.7-1.1,2.5-1.7c0.9-0.6,1.9-1.3,2.8-1.9c0.8-0.6,1.6-1.2,2.4-1.8
	c0.9-0.7,1.8-1.4,2.7-2.1c0.8-0.6,1.6-1.3,2.4-1.9c0.9-0.7,1.7-1.5,2.6-2.3c0.8-0.7,1.5-1.3,2.2-2c0.8-0.8,1.7-1.6,2.5-2.4
	c0.7-0.7,1.4-1.4,2.1-2.1c0.1-0.1,0.3-0.3,0.4-0.4c-9.7-5-19.9-8.9-30.4-11.7c-5.5,17.4-15.2,33.3-28.3,46c0.4-0.1,0.7-0.2,1.1-0.3
	C248.2,333.2,249.2,332.9,250.1,332.6z"/>
<path class="st0" d="M339.4,217.9h-53.1c-0.2,20.8-3.2,41.4-8.9,61.3c11.7,3.1,23,7.6,33.6,13.4
	C328.4,271.6,338.4,245.3,339.4,217.9z"/>
<path class="st0" d="M219.8,209.1h57.6c-0.2-20-3.2-39.9-8.7-59.1c-16,3.7-32.4,5.6-48.8,5.8V209.1z"/>
<path class="st0" d="M219.8,89.7v57.1c15.5-0.2,30.9-2,46.1-5.4C255.4,112.2,238.8,92.4,219.8,89.7z"/>
<path class="st0" d="M219.8,271.2c16.4,0.2,32.8,2.2,48.8,5.8c5.6-19.2,8.5-39.1,8.7-59.1h-57.6V271.2z"/>
<path class="st0" d="M310.9,134.3c-10.6,5.8-21.9,10.3-33.6,13.4c5.7,19.9,8.7,40.6,8.9,61.3h53.1
	C338.4,181.7,328.4,155.4,310.9,134.3z"/>
<path class="st0" d="M304.9,127.6c-0.1-0.1-0.3-0.3-0.4-0.4c-0.7-0.7-1.4-1.4-2.1-2.1c-0.8-0.8-1.6-1.6-2.5-2.4
	c-0.7-0.7-1.5-1.3-2.2-2c-0.9-0.8-1.7-1.5-2.6-2.3c-0.8-0.6-1.6-1.3-2.3-1.9c-0.9-0.7-1.8-1.4-2.7-2.1c-0.8-0.6-1.6-1.2-2.4-1.8
	c-0.9-0.7-1.9-1.3-2.8-2c-0.8-0.6-1.7-1.1-2.5-1.6c-1-0.6-1.9-1.2-2.9-1.8c-0.9-0.5-1.7-1-2.6-1.5c-1-0.6-2-1.1-3-1.7
	c-0.9-0.4-1.8-0.9-2.7-1.4c-1-0.5-2-1-3.1-1.5c-0.9-0.4-1.8-0.8-2.7-1.2c-1-0.5-2.1-0.9-3.2-1.3c-0.9-0.4-1.8-0.7-2.7-1.1
	c-1.1-0.4-2.2-0.8-3.3-1.2c-0.9-0.3-1.8-0.6-2.8-1c-1.1-0.4-2.2-0.7-3.4-1c-0.9-0.3-1.8-0.5-2.8-0.8c-0.4-0.1-0.7-0.2-1.1-0.3
	c13.1,12.7,22.9,28.5,28.3,46C285.1,136.5,295.2,132.6,304.9,127.6z"/>
<path class="st0" d="M91.4,209.1h53.1c0.2-20.8,3.2-41.4,8.9-61.3c-11.7-3.1-23-7.6-33.6-13.4C102.3,155.4,92.3,181.7,91.4,209.1z"
	/>
<path class="st0" d="M210.9,337.2v-57.1c-15.5,0.2-30.9,2-46.1,5.4C175.3,314.8,192,334.5,210.9,337.2z"/>
<path class="st0" d="M210.9,217.9h-57.6c0.2,20,3.2,39.9,8.7,59.1c16-3.7,32.4-5.6,48.8-5.8V217.9z"/>
<path class="st0" d="M210.9,89.7c-19,2.7-35.6,22.5-46.1,51.7c15.1,3.4,30.6,5.2,46.1,5.4V89.7z"/>
<path class="st0" d="M210.9,155.7c-16.4-0.2-32.8-2.2-48.8-5.8c-5.6,19.2-8.5,39.1-8.7,59.1h57.6V155.7z"/>
<path class="st0" d="M184.5,93.3c-0.4,0.1-0.7,0.2-1.1,0.3c-0.9,0.3-1.9,0.5-2.8,0.8c-1.1,0.3-2.2,0.7-3.3,1c-0.9,0.3-1.9,0.6-2.8,1
	c-1.1,0.4-2.2,0.8-3.2,1.2c-0.9,0.4-1.8,0.7-2.8,1.1c-1.1,0.4-2.1,0.9-3.2,1.3c-0.9,0.4-1.8,0.8-2.7,1.2c-1,0.5-2,1-3.1,1.5
	c-0.9,0.5-1.8,0.9-2.7,1.4c-1,0.5-2,1.1-3,1.6c-0.9,0.5-1.8,1-2.6,1.5c-1,0.6-1.9,1.2-2.9,1.8c-0.9,0.5-1.7,1.1-2.5,1.7
	c-0.9,0.6-1.9,1.3-2.8,1.9c-0.8,0.6-1.6,1.2-2.5,1.8c-0.9,0.7-1.8,1.4-2.7,2.1c-0.8,0.6-1.6,1.3-2.4,1.9c-0.9,0.7-1.7,1.5-2.6,2.2
	c-0.8,0.7-1.5,1.3-2.3,2c-0.8,0.8-1.7,1.6-2.5,2.4c-0.7,0.7-1.4,1.4-2.1,2.1c-0.1,0.1-0.3,0.3-0.4,0.4c9.7,5,19.9,8.9,30.4,11.7
	C161.7,121.8,171.4,106,184.5,93.3z"/>
<path class="st0" d="M128.3,301.9c0.8,0.8,1.6,1.6,2.5,2.4c0.7,0.7,1.5,1.3,2.2,2c0.9,0.8,1.7,1.5,2.6,2.3c0.8,0.6,1.5,1.3,2.3,1.9
	c0.9,0.7,1.8,1.4,2.7,2.1c0.8,0.6,1.6,1.2,2.4,1.8c0.9,0.7,1.9,1.3,2.8,2c0.8,0.6,1.7,1.1,2.5,1.6c1,0.6,1.9,1.2,2.9,1.8
	c0.9,0.5,1.7,1,2.6,1.5c1,0.6,2,1.1,3,1.7c0.9,0.4,1.8,0.9,2.7,1.4c1,0.5,2,1,3.1,1.5c0.9,0.4,1.8,0.8,2.7,1.2
	c1,0.5,2.1,0.9,3.2,1.3c0.9,0.4,1.8,0.7,2.7,1.1c1.1,0.4,2.2,0.8,3.3,1.2c0.9,0.3,1.8,0.6,2.8,0.9c1.1,0.4,2.2,0.7,3.4,1
	c0.9,0.3,1.8,0.5,2.8,0.8c0.4,0.1,0.7,0.2,1.1,0.3c-13.1-12.7-22.9-28.6-28.3-46c-10.5,2.8-20.7,6.7-30.4,11.7
	c0.1,0.1,0.3,0.3,0.4,0.4C126.9,300.5,127.6,301.2,128.3,301.9z"/>
<path class="st0" d="M119.8,292.6c10.6-5.8,21.9-10.3,33.6-13.4c-5.7-19.9-8.7-40.6-8.9-61.3H91.4
	C92.3,245.3,102.3,271.5,119.8,292.6z"/>
</svg>
