<?xml version="1.0" encoding="utf-8"?>
<!-- Generator: Adobe Illustrator 24.0.0, SVG Export Plug-In . SVG Version: 6.00 Build 0)  -->
<svg version="1.1" id="Capa_1" xmlns="http://www.w3.org/2000/svg" xmlns:xlink="http://www.w3.org/1999/xlink" x="0px" y="0px"
	 viewBox="0 0 432.1 496" style="enable-background:new 0 0 432.1 496;" xml:space="preserve">
<style type="text/css">
	.st0{fill:#2E9A37;}
	.st1{fill:#FFFFFF;}
	.st2{fill:#D32F2F;}
</style>
<g>
	<g>
		<g>
			<path class="st0" d="M398.9,225.8c-4.3-80.9-61.8-154.3-139-178.7C178.3,21.3,85.6,55,37.6,125.5C-11.6,198-3.9,295.1,38.8,368.6
				c23.3,40.3,57.3,74.7,97.9,97.7c10.6,6,21.6,11.4,32.9,16.1c11,4.8,22.7,11,35.1,9.8c11.8-1.1,23.8-7.5,34.4-12.4
				c10.1-4.5,20-9.5,29.5-15.2c70.8-42.2,119.9-117.6,129-199.6C399,252.1,399.5,238.9,398.9,225.8z"/>
			<path class="st1" d="M201.5,496c-10.5,0-20.4-4.4-29.2-8.4c-1.4-0.6-2.8-1.3-4.2-1.9c-11.2-4.7-22.4-10.2-33.2-16.3
				c-40.8-23.1-75.1-57.3-99.2-99C13.5,332.3,1.2,289.5,0.1,246.7c-1.2-45.7,10.7-88.3,34.5-123.4c23.7-34.8,59.4-62,100.3-76.6
				C176.2,32,221,30.9,261,43.6c79,25,137.2,99.8,141.5,182l0,0c0.7,13.3,0.2,26.7-1.4,39.9c-4.5,40.6-19,80.8-41.9,116.2
				c-22.8,35.2-53.6,65-88.8,86c-9.2,5.5-19.3,10.7-29.9,15.4c-1.5,0.7-3.1,1.5-4.8,2.2c-9.4,4.4-20.1,9.5-30.8,10.4
				C203.8,495.9,202.6,496,201.5,496z M203.6,42.2c-63.3,0-126.4,31.5-163,85.3c-45,66.3-44.5,160.2,1.3,239.2
				c23.5,40.6,56.9,73.9,96.5,96.3c10.6,6,21.6,11.4,32.6,16c1.5,0.6,2.9,1.3,4.3,1.9c9.4,4.2,19.1,8.5,28.9,7.6
				c9.4-0.9,19.1-5.4,28.4-9.8c1.6-0.8,3.3-1.5,4.9-2.3c10.4-4.6,20.2-9.7,29.1-15c69.6-41.5,118.4-117,127.2-196.8
				c1.5-12.8,2-25.8,1.4-38.7C391,146.8,334.9,74.7,258.8,50.6C240.8,44.9,222.2,42.2,203.6,42.2z"/>
		</g>
		<g>
			<path class="st1" d="M103.9,147.4c42.3-48.3,118.5-57.2,171.7-22c52.2,34.5,72.4,104.3,47.6,161.6
				c-11.7,26.8-31.9,49.1-57.4,63.4c-12.4,6.9-25.8,11.7-39.7,14.3c-8.1,1.6-16.4,2.3-24.6,2.1c-6.9-0.2-20.1-4.4-26.3,0.2
				c-5.2,3.9-2,10.6-0.7,15.6c1.9,7.4,2.4,15.4-0.2,22.7c-4.3,12.4-17.9,21.7-31,21.6c-23.3-0.3-35.6-29.6-43-47.5
				C70.8,307.8,49.9,212.5,103.9,147.4z"/>
		</g>
	</g>
</g>
<g>
	<g>
		<path class="st2" d="M355.5,149.3c-40,0-72.6-32.5-72.6-72.5S315.4,3.9,355.6,4c40.1,0.1,72.5,32.7,72.5,72.6
			C428,116.8,395.5,149.3,355.5,149.3z"/>
		<path class="st1" d="M355.5,153.3c-42.3,0-76.6-34.3-76.6-76.5c0-20.5,8-39.8,22.6-54.4C315.9,7.9,335.1,0,355.4,0
			c0.1,0,0.1,0,0.2,0c42.2,0.1,76.5,34.5,76.5,76.6C432,118.9,397.6,153.3,355.5,153.3z M355.4,8c-18.2,0-35.3,7.1-48.3,20
			c-13.1,13-20.3,30.3-20.3,48.7c0,37.8,30.8,68.5,68.6,68.5c37.7,0,68.5-30.8,68.6-68.7c0-37.7-30.8-68.5-68.5-68.6
			C355.5,8,355.4,8,355.4,8z"/>
	</g>
</g>
<g>
	<path class="st1" d="M318.2,78.3h10.4l-16.3,22.4c-1.6,2.2-1.8,5.1-0.7,7.5c1.2,2.5,3.7,4,6.5,4h24.6c4,0,7.2-3.2,7.2-7.2
		s-3.2-7.2-7.2-7.2h-10.4l16.3-22.4c1.6-2.2,1.8-5.1,0.7-7.5c-1.2-2.5-3.7-4-6.5-4h-24.6c-4,0-7.2,3.2-7.2,7.2
		C311.2,75.1,314.3,78.3,318.2,78.3z"/>
	<path class="st1" d="M392.7,75h-10.4l16.3-22.4c1.6-2.2,1.8-5.1,0.7-7.5c-1.3-2.3-3.8-4-6.5-4H368c-4,0-7.2,3.4-7.2,7.3
		c0,4,3.2,7.2,7.2,7.2h10.4L362,78c-1.6,2.2-1.8,5.1-0.7,7.5c1.2,2.5,3.7,4,6.5,4h24.6c4,0,7.2-3.2,7.2-7.2
		C399.7,78.3,396.6,75,392.7,75z"/>
</g>
<g>
	<g>
		<path class="st0" d="M206.2,350.8c17.7-2.5,33.2-21,42.9-48.2c-14.1-3.2-28.5-4.9-42.9-5.1V350.8z"/>
		<path class="st0" d="M234.5,346.5c1-0.3,2.1-0.6,3.1-0.9c0.9-0.3,1.7-0.6,2.6-0.9c1-0.4,2-0.7,3-1.1c0.9-0.3,1.7-0.7,2.6-1
			c1-0.4,2-0.8,2.9-1.2c0.8-0.4,1.7-0.8,2.5-1.2c1-0.4,1.9-0.9,2.8-1.4c0.8-0.4,1.7-0.9,2.5-1.3c0.9-0.5,1.8-1,2.8-1.5
			c0.8-0.5,1.6-0.9,2.4-1.4c0.9-0.6,1.8-1.1,2.7-1.7c0.8-0.5,1.6-1,2.4-1.5c0.9-0.6,1.7-1.2,2.6-1.8c0.8-0.6,1.5-1.1,2.3-1.7
			c0.8-0.6,1.7-1.3,2.5-2c0.7-0.6,1.5-1.2,2.2-1.8c0.8-0.7,1.6-1.4,2.4-2.1c0.7-0.6,1.4-1.2,2.1-1.9c0.8-0.7,1.6-1.5,2.3-2.3
			c0.7-0.7,1.3-1.3,2-2c0.1-0.1,0.2-0.3,0.4-0.4c-9-4.7-18.5-8.3-28.3-10.9c-5.1,16.3-14.2,31-26.4,42.9c0.3-0.1,0.7-0.2,1-0.2
			C232.7,347,233.6,346.7,234.5,346.5z"/>
		<path class="st0" d="M317.7,239.6h-49.5c-0.2,19.3-3,38.6-8.3,57.2c10.9,2.9,21.4,7.1,31.4,12.5
			C307.5,289.6,316.8,265.1,317.7,239.6z"/>
		<path class="st0" d="M206.2,231.3h53.7c-0.2-18.7-2.9-37.2-8.1-55.1c-14.9,3.4-30.2,5.2-45.5,5.4V231.3z"/>
		<path class="st0" d="M206.2,120.1v53.3c14.4-0.2,28.8-1.9,42.9-5.1C239.4,141.1,223.9,122.6,206.2,120.1z"/>
		<path class="st0" d="M206.2,289.3c15.3,0.2,30.6,2,45.5,5.4c5.2-17.9,7.9-36.5,8.1-55.1h-53.7V289.3z"/>
		<path class="st0" d="M291.2,161.7c-9.9,5.4-20.5,9.6-31.4,12.5c5.3,18.6,8.2,37.8,8.3,57.2h49.5
			C316.8,205.8,307.5,181.3,291.2,161.7z"/>
		<path class="st0" d="M285.6,155.4c-0.1-0.1-0.2-0.3-0.4-0.4c-0.7-0.7-1.3-1.3-2-2c-0.8-0.8-1.5-1.5-2.3-2.3
			c-0.7-0.6-1.4-1.2-2.1-1.9c-0.8-0.7-1.6-1.4-2.4-2.1c-0.7-0.6-1.4-1.2-2.2-1.8c-0.8-0.7-1.7-1.3-2.5-2c-0.7-0.6-1.5-1.1-2.3-1.7
			c-0.9-0.6-1.7-1.2-2.6-1.8c-0.8-0.5-1.6-1-2.3-1.5c-0.9-0.6-1.8-1.1-2.7-1.7c-0.8-0.5-1.6-1-2.4-1.4c-0.9-0.5-1.8-1-2.8-1.5
			c-0.8-0.4-1.7-0.9-2.5-1.3c-1-0.5-1.9-0.9-2.9-1.4c-0.8-0.4-1.7-0.8-2.5-1.1c-1-0.4-2-0.8-3-1.2c-0.9-0.3-1.7-0.7-2.6-1
			c-1-0.4-2-0.7-3-1.1c-0.9-0.3-1.7-0.6-2.6-0.9c-1-0.3-2.1-0.6-3.1-0.9c-0.9-0.3-1.7-0.5-2.6-0.7c-0.3-0.1-0.7-0.2-1-0.2
			c12.2,11.9,21.3,26.6,26.4,42.9C267.1,163.7,276.6,160.1,285.6,155.4z"/>
		<path class="st0" d="M86.5,231.3H136c0.2-19.3,3-38.6,8.3-57.2c-10.9-2.9-21.4-7.1-31.4-12.5C96.7,181.3,87.4,205.8,86.5,231.3z"
			/>
		<path class="st0" d="M198,350.8v-53.3c-14.4,0.2-28.8,1.9-42.9,5.1C164.8,329.9,180.3,348.3,198,350.8z"/>
		<path class="st0" d="M198,239.6h-53.7c0.2,18.7,2.9,37.2,8.1,55.1c14.9-3.4,30.2-5.2,45.5-5.4V239.6z"/>
		<path class="st0" d="M198,120.1c-17.7,2.5-33.2,21-42.9,48.2c14.1,3.2,28.5,4.9,42.9,5.1V120.1z"/>
		<path class="st0" d="M198,181.6c-15.3-0.2-30.6-2-45.5-5.4c-5.2,17.9-7.9,36.5-8.1,55.1H198V181.6z"/>
		<path class="st0" d="M173.3,123.4c-0.3,0.1-0.7,0.2-1,0.2c-0.9,0.2-1.7,0.5-2.6,0.7c-1,0.3-2.1,0.6-3.1,0.9
			c-0.9,0.3-1.7,0.6-2.6,0.9c-1,0.4-2,0.7-3,1.1c-0.9,0.3-1.7,0.7-2.6,1c-1,0.4-2,0.8-2.9,1.2c-0.9,0.4-1.7,0.8-2.5,1.2
			c-1,0.4-1.9,0.9-2.8,1.4c-0.8,0.4-1.7,0.9-2.5,1.3c-0.9,0.5-1.8,1-2.8,1.5c-0.8,0.5-1.6,0.9-2.4,1.4c-0.9,0.5-1.8,1.1-2.7,1.7
			c-0.8,0.5-1.6,1-2.4,1.5c-0.9,0.6-1.7,1.2-2.6,1.8c-0.8,0.6-1.5,1.1-2.3,1.7c-0.8,0.6-1.7,1.3-2.5,2c-0.7,0.6-1.5,1.2-2.2,1.8
			c-0.8,0.7-1.6,1.4-2.4,2.1c-0.7,0.6-1.4,1.2-2.1,1.9c-0.8,0.7-1.5,1.5-2.3,2.2c-0.7,0.7-1.3,1.3-2,2c-0.1,0.1-0.2,0.3-0.4,0.4
			c9,4.7,18.5,8.3,28.3,10.9C152,150,161.1,135.3,173.3,123.4z"/>
		<path class="st0" d="M121,317.9c0.8,0.8,1.5,1.5,2.3,2.3c0.7,0.6,1.4,1.2,2.1,1.9c0.8,0.7,1.6,1.4,2.4,2.1
			c0.7,0.6,1.4,1.2,2.2,1.8c0.8,0.7,1.7,1.3,2.5,2c0.7,0.6,1.5,1.1,2.3,1.7c0.9,0.6,1.7,1.2,2.6,1.8c0.8,0.5,1.6,1,2.3,1.5
			c0.9,0.6,1.8,1.1,2.7,1.7c0.8,0.5,1.6,1,2.4,1.4c0.9,0.5,1.8,1,2.8,1.5c0.8,0.4,1.7,0.9,2.5,1.3c1,0.5,1.9,0.9,2.9,1.4
			c0.8,0.4,1.7,0.8,2.5,1.1c1,0.4,2,0.8,3,1.2c0.9,0.3,1.7,0.7,2.6,1c1,0.4,2,0.7,3,1.1c0.9,0.3,1.7,0.6,2.6,0.9
			c1,0.3,2.1,0.6,3.1,0.9c0.9,0.3,1.7,0.5,2.6,0.7c0.3,0.1,0.7,0.2,1,0.2c-12.2-11.9-21.3-26.6-26.4-42.9
			c-9.8,2.6-19.3,6.2-28.3,10.9c0.1,0.1,0.2,0.3,0.4,0.4C119.6,316.6,120.3,317.2,121,317.9z"/>
		<path class="st0" d="M113,309.2c9.9-5.4,20.5-9.6,31.4-12.5c-5.3-18.6-8.2-37.8-8.3-57.2H86.5C87.4,265.1,96.7,289.6,113,309.2z"
			/>
	</g>
</g>
</svg>
