<?xml version="1.0" encoding="utf-8"?>
<!-- Generator: Adobe Illustrator 24.0.0, SVG Export Plug-In . SVG Version: 6.00 Build 0)  -->
<svg version="1.1" id="Capa_1" xmlns="http://www.w3.org/2000/svg" xmlns:xlink="http://www.w3.org/1999/xlink" x="0px" y="0px"
	 viewBox="0 0 432.1 496" style="enable-background:new 0 0 432.1 496;" xml:space="preserve">
<style type="text/css">
	.st0{fill:#010101;}
	.st1{fill:#FFFFFF;}
	.st2{fill:#929292;}
	.st3{fill:#D32F2F;}
	.st4{fill:#4CAF50;}
</style>
<g>
	<g>
		<g>
			<g>
				<g>
					<g>
						<g>
							<g>
								<g>
									<g>
										<path class="st0" d="M427.9,205.5C423.3,118.7,361.6,40,278.8,13.8c-87.5-27.6-187,8.4-238.4,84.1
											c-52.8,77.8-44.5,182,1.3,260.8c25,43.2,61.5,80.1,105,104.8c11.4,6.4,23.2,12.2,35.3,17.3c11.8,5.1,24.4,11.8,37.6,10.5
											c12.7-1.2,25.5-8.1,36.9-13.3c10.8-4.8,21.4-10.2,31.6-16.3c75.9-45.3,128.7-126.2,138.4-214.1
											C428,233.7,428.5,219.5,427.9,205.5z"/>
										<path class="st1" d="M216.2,495.3c-11.2,0-21.8-4.7-31.3-9c-1.5-0.7-3-1.4-4.5-2c-12-5.1-24-11-35.6-17.5
											C101,442.1,64.2,405.4,38.3,360.6C14.5,319.7,1.3,273.8,0.1,228c-1.3-49,11.5-94.8,37-132.3
											C62.6,58.2,100.8,29,144.8,13.4C189-2.3,237-3.5,280,10c84.7,26.8,147.1,107.1,151.8,195.2l0,0
											c0.6,14.3,0.1,28.6-1.5,42.7c-4.8,43.6-20.4,86.8-45,124.7c-24.5,37.8-57.4,69.7-95.3,92.3c-9.9,5.9-20.7,11.5-32,16.5
											c-1.6,0.8-3.4,1.6-5.1,2.4c-10.1,4.8-21.6,10.1-33.1,11.2C218.6,495.3,217.4,495.3,216.2,495.3z M218.6,8.5
											C150.6,8.5,82.9,42.4,43.6,100c-48.3,71.1-47.8,171.9,1.4,256.7c25.2,43.5,61,79.3,103.5,103.3
											c11.3,6.3,23.1,12.1,34.8,17.1c1.6,0.7,3.1,1.4,4.7,2.1c10.1,4.5,20.5,9.2,31,8.2c10.1-0.9,20.5-5.8,30.5-10.5
											c1.8-0.8,3.5-1.6,5.2-2.4c11.1-5,21.6-10.4,31.2-16.1c74.7-44.6,127-125.5,136.5-211.1c1.5-13.7,2-27.7,1.5-41.5
											c-4.5-84.9-64.7-162.3-146.3-188.1C258.4,11.4,238.5,8.5,218.6,8.5z"/>
									</g>
									<path class="st1" d="M110,118.7c45.4-51.9,127.1-61.4,184.2-23.6c56,37,77.7,111.9,51.1,173.3
										c-12.6,28.8-34.2,52.6-61.6,68c-13.3,7.4-27.7,12.6-42.6,15.3c-8.7,1.7-17.6,2.5-26.4,2.3c-7.4-0.2-21.6-4.7-28.2,0.2
										c-5.6,4.2-2.2,11.4-0.8,16.7c2.1,8,2.6,16.5-0.2,24.4c-4.6,13.3-19.2,23.3-33.3,23.2c-25-0.3-38.2-31.7-46.2-51
										C74.5,290.7,52.1,188.5,110,118.7z"/>
								</g>
							</g>
						</g>
					</g>
				</g>
			</g>
		</g>
	</g>
	<g>
		<path class="st0" d="M230.2,129.6h-70.6c-15.6,0-28.2,12.6-28.2,28.2c0,0,0,0,0,0v169.5h56.5v-56.5h42.4c39,0,70.7-31.5,70.7-70.5
			c0-39-31.5-70.7-70.5-70.7C230.3,129.6,230.3,129.6,230.2,129.6L230.2,129.6z M230.2,214.3h-42.4v-28.3h42.4
			c7.8-0.2,14.3,6,14.4,13.8c0.2,7.8-6,14.3-13.8,14.4C230.6,214.4,230.4,214.4,230.2,214.3z"/>
	</g>
</g>
</svg>
