<?xml version="1.0" encoding="utf-8"?>
<!-- Generator: Adobe Illustrator 24.0.0, SVG Export Plug-In . SVG Version: 6.00 Build 0)  -->
<svg version="1.1" id="Capa_1" xmlns="http://www.w3.org/2000/svg" xmlns:xlink="http://www.w3.org/1999/xlink" x="0px" y="0px"
	 viewBox="0 0 432.1 496" style="enable-background:new 0 0 432.1 496;" xml:space="preserve">
<style type="text/css">
	.st0{fill:#010101;}
	.st1{fill:#FFFFFF;}
	.st2{fill:#4CAF50;}
</style>
<g>
	<g>
		<g>
			<g>
				<g>
					<g>
						<g>
							<g>
								<g>
									<g>
										<g>
											<g>
												<g>
													<path class="st0" d="M398.9,225.8c-4.3-80.9-61.8-154.3-139-178.7C178.3,21.3,85.6,55,37.6,125.5
														C-11.6,198-3.9,295.1,38.8,368.6c23.3,40.3,57.3,74.7,97.9,97.7c10.6,6,21.6,11.4,32.9,16.1c11,4.8,22.7,11,35.1,9.8
														c11.8-1.1,23.8-7.5,34.4-12.4c10.1-4.5,20-9.5,29.5-15.2c70.8-42.2,119.9-117.6,129-199.6
														C399,252.1,399.5,238.9,398.9,225.8z"/>
													<path class="st1" d="M201.5,496c-10.5,0-20.4-4.4-29.2-8.4c-1.4-0.6-2.8-1.3-4.2-1.9c-11.2-4.7-22.4-10.2-33.2-16.3
														c-40.8-23.1-75.1-57.3-99.2-99C13.5,332.3,1.2,289.5,0.1,246.7c-1.2-45.7,10.7-88.3,34.5-123.4
														c23.7-34.8,59.4-62,100.3-76.6C176.2,32,221,30.9,261,43.6c79,25,137.2,99.8,141.5,182l0,0c0.7,13.3,0.2,26.7-1.4,39.9
														c-4.5,40.6-19,80.8-41.9,116.2c-22.8,35.2-53.6,65-88.8,86c-9.2,5.5-19.3,10.7-29.9,15.4c-1.5,0.7-3.1,1.5-4.8,2.2
														c-9.4,4.4-20.1,9.5-30.8,10.4C203.8,495.9,202.6,496,201.5,496z M203.6,42.2c-63.3,0-126.4,31.5-163,85.3
														c-45,66.3-44.5,160.2,1.3,239.2c23.5,40.6,56.9,73.9,96.5,96.3c10.6,6,21.6,11.4,32.6,16c1.5,0.6,2.9,1.3,4.3,1.9
														c9.4,4.2,19.1,8.5,28.9,7.6c9.4-0.9,19.1-5.4,28.4-9.8c1.6-0.8,3.3-1.5,4.9-2.3c10.4-4.6,20.2-9.7,29.1-15
														c69.6-41.5,118.4-117,127.2-196.8c1.5-12.8,2-25.8,1.4-38.7C391,146.8,334.9,74.7,258.8,50.6
														C240.8,44.9,222.2,42.2,203.6,42.2z"/>
												</g>
												<g>
													<path class="st1" d="M103.9,147.4c42.3-48.3,118.5-57.2,171.7-22c52.2,34.5,72.4,104.3,47.6,161.6
														c-11.7,26.8-31.9,49.1-57.4,63.4c-12.4,6.9-25.8,11.7-39.7,14.3c-8.1,1.6-16.4,2.3-24.6,2.1
														c-6.9-0.2-20.1-4.4-26.3,0.2c-5.2,3.9-2,10.6-0.7,15.6c1.9,7.4,2.4,15.4-0.2,22.7c-4.3,12.4-17.9,21.7-31,21.6
														c-23.3-0.3-35.6-29.6-43-47.5C70.8,307.8,49.9,212.5,103.9,147.4z"/>
												</g>
											</g>
										</g>
									</g>
								</g>
							</g>
						</g>
					</g>
				</g>
			</g>
		</g>
	</g>
</g>
<g>
	<g>
		<path class="st2" d="M355.5,149.3c-40,0-72.6-32.5-72.6-72.5S315.4,3.9,355.6,4c40.1,0.1,72.5,32.7,72.5,72.6
			C428,116.8,395.5,149.3,355.5,149.3z"/>
		<path class="st1" d="M355.5,153.3c-42.3,0-76.6-34.3-76.6-76.5c0-20.5,8-39.8,22.6-54.4C315.9,7.9,335.1,0,355.4,0
			c0.1,0,0.1,0,0.2,0c42.2,0.1,76.5,34.5,76.5,76.6C432,118.9,397.6,153.3,355.5,153.3z M355.4,8c-18.2,0-35.3,7.1-48.3,20
			c-13.1,13-20.3,30.3-20.3,48.7c0,37.8,30.8,68.5,68.6,68.5c37.7,0,68.5-30.8,68.6-68.7c0-37.7-30.8-68.5-68.5-68.6
			C355.5,8,355.4,8,355.4,8z"/>
	</g>
	<path class="st1" d="M399.3,41.3c-3.9-3.7-10.1-3.5-13.8,0.4l0,0L339.1,91l-14-14l0,0c-3.8-3.8-10-3.8-13.8,0l0,0
		c-3.8,3.8-3.8,10,0,13.8l0,0l21,21l0,0c3.9,3.9,10.2,3.8,14-0.2l0,0L399.7,55l0,0C403.4,51.1,403.3,44.9,399.3,41.3L399.3,41.3z"/>
</g>
<g>
	<g>
		<g>
			<path class="st0" d="M153.1,144.9h-26.4c-5.8,0-10.5,4.7-10.5,10.5l0,0v63.4h21.1v-21.1h15.9c14.6,0,26.4-11.8,26.4-26.4
				c0-14.6-11.8-26.4-26.4-26.4C153.1,144.9,153.1,144.9,153.1,144.9L153.1,144.9z M153.1,176.6h-15.9V166h15.9
				c2.9-0.1,5.3,2.2,5.4,5.2c0.1,2.9-2.2,5.3-5.2,5.4C153.3,176.6,153.2,176.6,153.1,176.6z"/>
		</g>
		<g>
			<path class="st0" d="M272.9,259c-1.4,0.1-2.8,0.2-4.1,0.4l-16.2-16.1h20.3v-23.5l-29.1,14.5l-22.5-22.5h-34.6v15.6h28.2
				l15.6,15.6h-28.2L171,258.8l-15.6-15.5h-39.2v15.6h31.4c-17.4,0-31.4,14.1-31.4,31.4s14.1,31.4,31.4,31.4
				c17.4,0,31.4-14.1,31.4-31.4l15.6,15.6H218l27.4-47.9l7.9,7.9c-7.4,5.9-11.7,14.8-11.7,24.3c0,17.4,14.1,31.4,31.4,31.4
				c17.4,0,31.4-14.1,31.4-31.4C304.4,272.9,290.3,258.9,272.9,259C272.9,258.9,272.9,258.9,272.9,259L272.9,259z M147.5,306
				c-8.6,0-15.6-7-15.6-15.6s7-15.6,15.6-15.6c8.6,0,15.6,7,15.6,15.6S156.2,306,147.5,306z M272.9,306c-8.6,0-15.6-7-15.6-15.6
				s7-15.6,15.6-15.6s15.6,7,15.6,15.6C288.6,299,281.6,306,272.9,306L272.9,306z"/>
		</g>
	</g>
</g>
</svg>
