<?xml version="1.0" encoding="utf-8"?>
<!-- Generator: Adobe Illustrator 24.0.0, SVG Export Plug-In . SVG Version: 6.00 Build 0)  -->
<svg version="1.1" id="Capa_1" xmlns="http://www.w3.org/2000/svg" xmlns:xlink="http://www.w3.org/1999/xlink" x="0px" y="0px"
	 viewBox="0 0 432.1 496" style="enable-background:new 0 0 432.1 496;" xml:space="preserve">
<style type="text/css">
	.st0{fill:#858D92;}
	.st1{fill:#FFFFFF;}
	.st2{fill:#929292;}
	.st3{fill:#D32F2F;}
	.st4{fill:#4CAF50;}
</style>
<g>
	<g>
		<g>
			<g>
				<g>
					<g>
						<g>
							<g>
								<g>
									<g>
										<g>
											<g>
												<g>
													<g>
														<g>
															<path class="st0" d="M427.9,205.5C423.3,118.7,361.6,40,278.8,13.8c-87.5-27.6-187,8.4-238.4,84.1
																c-52.8,77.8-44.5,182,1.3,260.8c25,43.2,61.5,80.1,105,104.8c11.4,6.4,23.2,12.2,35.3,17.3
																c11.8,5.1,24.4,11.8,37.6,10.5c12.7-1.2,25.5-8.1,36.9-13.3c10.8-4.8,21.4-10.2,31.6-16.3
																c75.9-45.3,128.7-126.2,138.4-214.1C428,233.7,428.5,219.5,427.9,205.5z"/>
															<path class="st1" d="M216.2,495.3c-11.2,0-21.8-4.7-31.3-9c-1.5-0.7-3-1.4-4.5-2c-12-5.1-24-11-35.6-17.5
																C101,442.1,64.2,405.4,38.3,360.6C14.5,319.7,1.3,273.8,0.1,228c-1.3-49,11.5-94.8,37-132.3S100.8,29,144.8,13.4
																C189-2.3,237-3.5,280,10c84.7,26.8,147.1,107.1,151.8,195.2l0,0c0.6,14.3,0.1,28.6-1.5,42.7
																c-4.8,43.6-20.4,86.8-45,124.7c-24.5,37.8-57.4,69.7-95.3,92.3c-9.9,5.9-20.7,11.5-32,16.5c-1.6,0.8-3.4,1.6-5.1,2.4
																c-10.1,4.8-21.6,10.1-33.1,11.2C218.6,495.3,217.4,495.3,216.2,495.3z M218.6,8.5c-68,0-135.7,33.9-175,91.5
																C-4.7,171.1-4.2,271.9,45,356.7C70.2,400.2,106,436,148.5,460c11.3,6.3,23.1,12.1,34.8,17.1c1.6,0.7,3.1,1.4,4.7,2.1
																c10.1,4.5,20.5,9.2,31,8.2c10.1-0.9,20.5-5.8,30.5-10.5c1.8-0.8,3.5-1.6,5.2-2.4c11.1-5,21.6-10.4,31.2-16.1
																c74.7-44.6,127-125.5,136.5-211.1c1.5-13.7,2-27.7,1.5-41.5c-4.5-84.9-64.7-162.3-146.3-188.1
																C258.4,11.4,238.5,8.5,218.6,8.5z"/>
														</g>
														<path class="st1" d="M110,118.7c45.4-51.9,127.1-61.4,184.2-23.6c56,37,77.7,111.9,51.1,173.3
															c-12.6,28.8-34.2,52.6-61.6,68c-13.3,7.4-27.7,12.6-42.6,15.3c-8.7,1.7-17.6,2.5-26.4,2.3c-7.4-0.2-21.6-4.7-28.2,0.2
															c-5.6,4.2-2.2,11.4-0.8,16.7c2.1,8,2.6,16.5-0.2,24.4c-4.6,13.3-19.2,23.3-33.3,23.2c-25-0.3-38.2-31.7-46.2-51
															C74.5,290.7,52.1,188.5,110,118.7z"/>
													</g>
												</g>
											</g>
										</g>
									</g>
								</g>
							</g>
						</g>
					</g>
				</g>
			</g>
		</g>
	</g>
	<g>
		<path class="st0" d="M177.5,117.3h-51.7c-3.1,0-5.5,2.5-5.5,5.5l0,0v12.9h62.8v-12.9C183.1,119.7,180.6,117.3,177.5,117.3
			L177.5,117.3z"/>
		<path class="st0" d="M306.7,170.1c-1.7-1-3.8-1-5.6,0l-54.8,32.1v-27.3c0-3.1-2.5-5.5-5.5-5.5c-1,0-2,0.3-2.8,0.8l-54.9,32.1
			v-55.4h-62.9V301c0,3.1,2.5,5.5,5.5,5.5h178.2c3.1,0,5.5-2.5,5.5-5.5V175C309.5,172.9,308.4,171.1,306.7,170.1z M205.2,267.5
			c0,3.1-2.5,5.5-5.5,5.5h-22.2c-3.1,0-5.5-2.5-5.5-5.5l0,0v-22.2c0-3.1,2.5-5.5,5.5-5.5h22.2c3.1,0,5.5,2.5,5.5,5.5l0,0V267.5z
			 M268.4,267.5c0,3.1-2.5,5.5-5.5,5.5l0,0h-22.2c-3.1,0-5.5-2.5-5.5-5.5v-22.2c0-3.1,2.5-5.5,5.5-5.5l0,0h22.2
			c3.1,0,5.5,2.5,5.5,5.5V267.5z"/>
	</g>
</g>
</svg>
