<?xml version="1.0" encoding="utf-8"?>
<!-- Generator: Adobe Illustrator 24.0.0, SVG Export Plug-In . SVG Version: 6.00 Build 0)  -->
<svg version="1.1" id="Capa_1" xmlns="http://www.w3.org/2000/svg" xmlns:xlink="http://www.w3.org/1999/xlink" x="0px" y="0px"
	 viewBox="0 0 432.1 496" style="enable-background:new 0 0 432.1 496;" xml:space="preserve">
<style type="text/css">
	.st0{fill:#5C8CC9;}
	.st1{fill:#FFFFFF;}
	.st2{fill:#929292;}
	.st3{fill:#D32F2F;}
	.st4{fill:#4CAF50;}
</style>
<g>
	<g>
		<g>
			<g>
				<path class="st0" d="M427.9,205.5C423.3,118.7,361.6,40,278.8,13.8c-87.5-27.6-187,8.4-238.4,84.1
					c-52.8,77.8-44.5,182,1.3,260.8c25,43.2,61.5,80.1,105,104.8c11.4,6.4,23.2,12.2,35.3,17.3c11.8,5.1,24.4,11.8,37.6,10.5
					c12.7-1.2,25.5-8.1,36.9-13.3c10.8-4.8,21.4-10.2,31.6-16.3c75.9-45.3,128.7-126.2,138.4-214.1
					C428,233.7,428.5,219.5,427.9,205.5z"/>
				<path class="st1" d="M216.2,495.3c-11.2,0-21.8-4.7-31.3-9c-1.5-0.7-3-1.4-4.5-2c-12-5.1-24-11-35.6-17.5
					C101,442.1,64.2,405.4,38.3,360.6C14.5,319.7,1.3,273.8,0.1,228c-1.3-49,11.5-94.8,37-132.3C62.6,58.2,100.8,29,144.8,13.4
					C189-2.3,237-3.5,280,10c84.7,26.8,147.1,107.1,151.8,195.2l0,0c0.6,14.3,0.1,28.6-1.5,42.7c-4.8,43.6-20.4,86.8-45,124.7
					c-24.5,37.8-57.4,69.7-95.3,92.3c-9.9,5.9-20.7,11.5-32,16.5c-1.6,0.8-3.4,1.6-5.1,2.4c-10.1,4.8-21.6,10.1-33.1,11.2
					C218.6,495.3,217.4,495.3,216.2,495.3z M218.6,8.5C150.6,8.5,82.9,42.4,43.6,100c-48.3,71.1-47.8,171.9,1.4,256.7
					c25.2,43.5,61,79.3,103.5,103.3c11.3,6.3,23.1,12.1,34.8,17.1c1.6,0.7,3.1,1.4,4.7,2.1c10.1,4.5,20.5,9.2,31,8.2
					c10.1-0.9,20.5-5.8,30.5-10.5c1.8-0.8,3.5-1.6,5.2-2.4c11.1-5,21.6-10.4,31.2-16.1c74.7-44.6,127-125.5,136.5-211.1
					c1.5-13.7,2-27.7,1.5-41.5c-4.5-84.9-64.7-162.3-146.3-188.1C258.4,11.4,238.5,8.5,218.6,8.5z"/>
			</g>
			<path class="st1" d="M110,118.7c45.4-51.9,127.1-61.4,184.2-23.6c56,37,77.7,111.9,51.1,173.3c-12.6,28.8-34.2,52.6-61.6,68
				c-13.3,7.4-27.7,12.6-42.6,15.3c-8.7,1.7-17.6,2.5-26.4,2.3c-7.4-0.2-21.6-4.7-28.2,0.2c-5.6,4.2-2.2,11.4-0.8,16.7
				c2.1,8,2.6,16.5-0.2,24.4c-4.6,13.3-19.2,23.3-33.3,23.2c-25-0.3-38.2-31.7-46.2-51C74.5,290.7,52.1,188.5,110,118.7z"/>
		</g>
	</g>
	<g>
		<path class="st0" d="M145.8,176.9h0.6c0.5-1.1,1-2.1,1.4-3.1c1.8-3.5,3.9-6.9,6.5-9.9l-6.9-6.9H130v-7.6h9.9l-12.6-12.6l5.4-5.4
			l12.6,12.6v-9.9h7.6v17.5l6.8,6.8c3.9-3.5,8.4-6.4,13.2-8.5c-5.9-14.2-19.8-23.5-35.2-23.4h-15.2v15.3
			C122.4,157.1,131.6,171,145.8,176.9z"/>
		<path class="st0" d="M154.7,177.2c-0.1,0.2-0.2,0.4-0.3,0.6c9.7,2.3,19.2,8.8,28.2,19.4c10.5,12.7,18.2,27.5,22.4,43.5
			c1.3,5.7,1.7,11.6,0.9,17.3l70.6-14.4c7.2-1.5,14.7-0.1,20.9,3.9l3.7-8.2c5.4-12.1,8.2-25.1,8.3-38.3c0-8.3-1.9-16.4-5.6-23.8
			c-10.7-21.5-36.7-30.2-58.2-19.5c-2.8,1.4-5.4,3-7.8,5l-4.7,3.8V161c0-16.3,6.4-31.9,18-43.4l-5.4-5.4
			c-13,12.9-20.3,30.5-20.2,48.8v5.4l-4.7-3.8c-7.7-6.1-17.3-9.5-27.1-9.5C177.1,153.1,162.1,162.4,154.7,177.2z"/>
		<path class="st0" d="M227.1,141.4c-1.9-13.6-12.6-24.3-26.2-26.2C202.7,128.9,213.4,139.6,227.1,141.4z"/>
		<path class="st0" d="M150.7,226c-14.3,3.4-23.3,17.7-19.9,32.1c1.2,5.3,4.1,10.1,8.1,13.6l42.1-8.6c6.2-13.4,0.3-29.2-13.1-35.4
			C162.5,225.2,156.5,224.6,150.7,226L150.7,226z"/>
		<path class="st0" d="M121.8,275.2l8.2-1.7c-11.9-14.7-9.7-36.4,5-48.3c14.7-11.9,36.4-9.7,48.3,5c7.1,8.7,9.4,20.3,6.3,31.1
			l8.2-1.7c1.1-5.7,1-11.6-0.3-17.3c-3.9-14.8-11-28.6-20.8-40.3c-8.1-9.7-21-20.4-35.7-17c-14.8,3.5-21.5,18.8-24.5,31.1
			c-3.6,14.9-3.8,30.4-0.7,45.3C117,266.4,119,271.1,121.8,275.2z"/>
		<path class="st0" d="M324.8,267.5l-1.6-7.5l-8.8,1.9l5.1-7.4l-6.3-4.3l-10.5,15.3c-0.2,0.3-0.4,0.6-0.5,1
			c-2.6-10.8-13.3-17.6-24.2-15.3l-0.4,0.1c0.5,4.6,0.2,9.3-1,13.8l-0.4,1.5l-7.4-1.9l0.4-1.5c0.9-3.4,1.2-6.9,0.8-10.3l-21.9,4.5
			c0.7,5.8,0.1,11.6-1.8,17.1l-7.2-2.6c1.5-4.2,2-8.6,1.6-13l-18.6,3.8c0.4,5.1-0.3,10.2-2,15.1L213,275c1.2-3.5,1.8-7.2,1.7-11
			l-18.7,3.8c0.1,4.4-0.7,8.8-2.1,13l-7.2-2.6c1-2.9,1.6-5.9,1.7-8.9l-18.7,3.8c-0.1,3.7-0.9,7.4-2.1,10.9l-7.2-2.6
			c0.8-2.2,1.3-4.5,1.5-6.8l-51.1,10.4c-2.5,0.5-4.1,2.8-3.7,5.3c0.4,2.2,2.3,3.8,4.6,3.8h168.4c5.5,0,10.8-2.2,14.7-6.1l2.1-2.1
			c3.9-3.9,6.1-9.2,6.1-14.7c0-0.6-0.1-1.1-0.2-1.7c0.1,0.2,0.2,0.3,0.3,0.5l14.3,15.3l5.6-5.2l-9.7-10.3L324.8,267.5z"/>
	</g>
</g>
</svg>
