<?xml version="1.0" encoding="utf-8"?>
<!-- Generator: Adobe Illustrator 24.0.0, SVG Export Plug-In . SVG Version: 6.00 Build 0)  -->
<svg version="1.1" id="Capa_1" xmlns="http://www.w3.org/2000/svg" xmlns:xlink="http://www.w3.org/1999/xlink" x="0px" y="0px"
	 viewBox="0 0 432.1 496" style="enable-background:new 0 0 432.1 496;" xml:space="preserve">
<style type="text/css">
	.st0{fill:#EFD00C;}
	.st1{fill:#FFFFFF;}
	.st2{fill:#D32F2F;}
	.st3{fill:#4CAF50;}
	.st4{fill:#929292;}
</style>
<g>
	<g>
		<g>
			<g>
				<g>
					<g>
						<g>
							<g>
								<g>
									<g>
										<g>
											<g>
												<g>
													<g>
														<g>
															<g>
																<g>
																	<path class="st0" d="M427.9,205.5C423.3,118.7,361.6,40,278.8,13.8c-87.5-27.6-187,8.4-238.4,84.1
																		c-52.8,77.8-44.5,182,1.3,260.8c25,43.2,61.5,80.1,105,104.8c11.4,6.4,23.2,12.2,35.3,17.3
																		c11.8,5.1,24.4,11.8,37.6,10.5c12.7-1.2,25.5-8.1,36.9-13.3c10.8-4.8,21.4-10.2,31.6-16.3
																		c75.9-45.3,128.7-126.2,138.4-214.1C428,233.7,428.5,219.5,427.9,205.5z"/>
																	<path class="st1" d="M216.2,495.3c-11.2,0-21.8-4.7-31.3-9c-1.5-0.7-3-1.4-4.5-2c-12-5.1-24-11-35.6-17.5
																		C101,442.1,64.2,405.4,38.3,360.6C14.5,319.7,1.3,273.8,0.1,228c-1.3-49,11.5-94.8,37-132.3S100.8,29,144.8,13.4
																		C189-2.3,237-3.5,280,10c84.7,26.8,147.1,107.1,151.8,195.2l0,0c0.6,14.3,0.1,28.6-1.5,42.7
																		c-4.8,43.6-20.4,86.8-45,124.7c-24.5,37.8-57.4,69.7-95.3,92.3c-9.9,5.9-20.7,11.5-32,16.5
																		c-1.6,0.8-3.4,1.6-5.1,2.4c-10.1,4.8-21.6,10.1-33.1,11.2C218.6,495.3,217.4,495.3,216.2,495.3z M218.6,8.5
																		c-68,0-135.7,33.9-175,91.5C-4.7,171.1-4.2,271.9,45,356.7C70.2,400.2,106,436,148.5,460
																		c11.3,6.3,23.1,12.1,34.8,17.1c1.6,0.7,3.1,1.4,4.7,2.1c10.1,4.5,20.5,9.2,31,8.2c10.1-0.9,20.5-5.8,30.5-10.5
																		c1.8-0.8,3.5-1.6,5.2-2.4c11.1-5,21.6-10.4,31.2-16.1c74.7-44.6,127-125.5,136.5-211.1c1.5-13.7,2-27.7,1.5-41.5
																		c-4.5-84.9-64.7-162.3-146.3-188.1C258.4,11.4,238.5,8.5,218.6,8.5z"/>
																</g>
																<path class="st1" d="M110,118.7c45.4-51.9,127.1-61.4,184.2-23.6c56,37,77.7,111.9,51.1,173.3
																	c-12.6,28.8-34.2,52.6-61.6,68c-13.3,7.4-27.7,12.6-42.6,15.3c-8.7,1.7-17.6,2.5-26.4,2.3
																	c-7.4-0.2-21.6-4.7-28.2,0.2c-5.6,4.2-2.2,11.4-0.8,16.7c2.1,8,2.6,16.5-0.2,24.4c-4.6,13.3-19.2,23.3-33.3,23.2
																	c-25-0.3-38.2-31.7-46.2-51C74.5,290.7,52.1,188.5,110,118.7z"/>
															</g>
														</g>
													</g>
												</g>
											</g>
										</g>
									</g>
								</g>
							</g>
						</g>
					</g>
				</g>
			</g>
		</g>
	</g>
	<g>
		<g id="Page-1">
			<g id="_041---Weight-Training">
				<path id="Shape" class="st0" d="M232.7,144.8c3.4,0,6.2,2.8,6.2,6.3v8.8l-2-2c-2.4-2.4-5.6-3.7-9-3.7h0c-0.5,0-1,0.1-1.5,0.2
					V151C226.4,147.6,229.2,144.8,232.7,144.8C232.6,144.8,232.7,144.8,232.7,144.8L232.7,144.8z M205.5,144c0-3.5,2.8-6.3,6.3-6.3
					s6.3,2.8,6.3,6.3v15.4c-4.5,6.9-4.5,15.7,0,22.6v2.5c-1,2.6-3.5,4.4-6.3,4.4c-3.4,0-6.2-2.7-6.3-6.2c0,0,0,0,0,0V144z
					 M184.6,147.5c0-3.5,2.8-6.3,6.3-6.3c3.5,0,6.3,2.8,6.3,6.3v35.3c0,3.4-2.8,6.2-6.2,6.2h-0.1c-3.4,0-6.2-2.8-6.2-6.2
					L184.6,147.5z M163.7,154.5c0-3.5,2.8-6.3,6.3-6.3s6.3,2.8,6.3,6.3v35.3c0,3.5-2.8,6.3-6.3,6.3s-6.3-2.8-6.3-6.3V154.5z
					 M105.4,242.2c-4.6,0-8.4-3.7-8.4-8.4v-62.7c-0.1-4.6,3.5-8.5,8.1-8.6c4.6-0.1,8.5,3.5,8.6,8.1c0,0.2,0,0.3,0,0.5v62.7
					C113.8,238.5,110,242.2,105.4,242.2z M138.8,258.9c-0.1,4.6-4,8.3-8.6,8.1c-4.4-0.1-8-3.7-8.1-8.1V146.1
					c-0.1-4.6,3.5-8.5,8.1-8.6c4.6-0.1,8.5,3.5,8.6,8.1c0,0.2,0,0.3,0,0.5V258.9z M147.2,192.1h8.4c1.3,8,8.8,13.4,16.7,12.1
					c5-0.8,9.2-4.2,11.2-8.9c2.2,1.3,4.7,2,7.3,2h0.1c3.9,0,7.7-1.6,10.4-4.4c0,0.1,0.1,0.1,0.1,0.2c2.7,2.7,6.5,4.2,10.3,4.2
					c5.5,0,10.5-3,13.1-7.8c0.4,0.4,0.9,0.9,1.3,1.3l5,5c-7.5,3.6-14,9.1-18.8,15.9c-0.3,0.4-0.5,0.8-0.8,1.3h-64.4L147.2,192.1z
					 M232.3,253.6c-1.2,1.9-1.8,4.1-1.8,6.4v28.1c0,4.6-3.7,8.4-8.4,8.4h-33.4c-4.6,0-8.4-3.7-8.4-8.4v-27.7
					c-0.1-3.8-1.3-7.4-3.3-10.6l-4.9-8.4c-3.1-5.3-4.6-11.4-4.3-17.5v-2.6h39.3c-0.6,1.3-1.1,2.6-1.6,4c-0.7,2.2,0.6,4.5,2.8,5.2
					c2.1,0.6,4.3-0.5,5.1-2.5c1-3.1,2.4-6,4-8.8c0.5-0.9,1.1-1.8,1.7-2.6c5-7.1,12.2-12.4,20.4-15.1c2.2-0.6,3.6-2.8,3-5.1
					c-0.2-0.7-0.6-1.4-1.1-1.9c0,0-3.1-3.2-9.4-9.5c-1.8-1.8-3.8-3.8-6.1-6.2l-0.3-0.3c-0.1-0.2-0.3-0.4-0.4-0.5
					c-3.1-4.3-3.1-10.2,0.2-14.5c0.6-0.7,1.6-1.1,2.5-1c1.1,0,2.2,0.4,3.1,1.3l30.5,30.7c2.1,2.1,2.5,5.4,0.9,7.9L232.3,253.6z
					 M265.9,213l3.7-6.3c2.7-4.5,2.8-10,0.4-14.6h10.8V213L265.9,213z M305.8,258.9c0,4.6-3.8,8.3-8.4,8.3c-4.6,0-8.3-3.7-8.3-8.3
					V146.1c0-4.6,3.7-8.4,8.3-8.4c4.6,0,8.4,3.7,8.4,8.3c0,0,0,0,0,0V258.9z M330.8,233.9c0.1,4.6-3.5,8.5-8.1,8.6
					c-4.6,0.1-8.5-3.5-8.6-8.1c0-0.2,0-0.3,0-0.5v-62.7c-0.1-4.6,3.5-8.5,8.1-8.6c4.6-0.1,8.5,3.5,8.6,8.1c0,0.2,0,0.3,0,0.5V233.9z
					"/>
			</g>
		</g>
	</g>
</g>
</svg>
