<svg id="Capa_1" data-name="Capa 1" xmlns="http://www.w3.org/2000/svg" viewBox="0 0 432.1 496"><defs><style>.cls-1{fill:#ec7d30;}.cls-2{fill:#fff;}.cls-3{fill:#d32f2f;}</style></defs><title>pagami_licoreria_inactivo</title><path class="cls-1" d="M398.9,225.8c-4.3-80.9-61.8-154.3-139-178.7C178.3,21.3,85.6,55,37.6,125.5-11.6,198-3.9,295.1,38.8,368.6c23.3,40.3,57.3,74.7,97.9,97.7a303.39,303.39,0,0,0,32.9,16.1c11,4.8,22.7,11,35.1,9.8,11.8-1.1,23.8-7.5,34.4-12.4a273.89,273.89,0,0,0,29.5-15.2C339.4,422.4,388.5,347,397.6,265A256.06,256.06,0,0,0,398.9,225.8Z"/><path class="cls-2" d="M201.5,496c-10.5,0-20.4-4.4-29.2-8.4-1.4-.6-2.8-1.3-4.2-1.9a318.46,318.46,0,0,1-33.2-16.3,267,267,0,0,1-99.2-99C13.5,332.3,1.2,289.5.1,246.7-1.1,201,10.8,158.4,34.6,123.3,58.3,88.5,94,61.3,134.9,46.7,176.2,32,221,30.9,261,43.6c79,25,137.2,99.8,141.5,182h0a231.23,231.23,0,0,1-1.4,39.9c-4.5,40.6-19,80.8-41.9,116.2a274.08,274.08,0,0,1-88.8,86,279,279,0,0,1-29.9,15.4c-1.5.7-3.1,1.5-4.8,2.2-9.4,4.4-20.1,9.5-30.8,10.4A19.53,19.53,0,0,1,201.5,496Zm2.1-453.8c-63.3,0-126.4,31.5-163,85.3-45,66.3-44.5,160.2,1.3,239.2,23.5,40.6,56.9,73.9,96.5,96.3A307,307,0,0,0,171,479c1.5.6,2.9,1.3,4.3,1.9,9.4,4.2,19.1,8.5,28.9,7.6,9.4-.9,19.1-5.4,28.4-9.8,1.6-.8,3.3-1.5,4.9-2.3a272.94,272.94,0,0,0,29.1-15c69.6-41.5,118.4-117,127.2-196.8a238.18,238.18,0,0,0,1.4-38.7C391,146.8,334.9,74.7,258.8,50.6A182.58,182.58,0,0,0,203.6,42.2Z"/><path class="cls-2" d="M103.9,147.4c42.3-48.3,118.5-57.2,171.7-22C327.8,159.9,348,229.7,323.2,287a134.43,134.43,0,0,1-57.4,63.4,131.19,131.19,0,0,1-39.7,14.3,113.1,113.1,0,0,1-24.6,2.1c-6.9-.2-20.1-4.4-26.3.2-5.2,3.9-2,10.6-.7,15.6,1.9,7.4,2.4,15.4-.2,22.7-4.3,12.4-17.9,21.7-31,21.6-23.3-.3-35.6-29.6-43-47.5C70.8,307.8,49.9,212.5,103.9,147.4Z"/><path class="cls-3" d="M355.5,149.3a72.64,72.64,0,0,1-72.6-72.5c0-40,32.5-72.9,72.7-72.8a72.65,72.65,0,0,1-.1,145.3Z"/><path class="cls-2" d="M355.5,153.3a76.58,76.58,0,0,1-54-130.9A75.48,75.48,0,0,1,355.4,0h.2a76.78,76.78,0,0,1,76.5,76.6C432,118.9,397.6,153.3,355.5,153.3ZM355.4,8a68.6,68.6,0,1,0,0,137.2c37.7,0,68.5-30.8,68.6-68.7A68.82,68.82,0,0,0,355.5,7.9.1.1,0,0,1,355.4,8Z"/><path class="cls-2" d="M318.2,78.3h10.4l-16.3,22.4a7.49,7.49,0,0,0-.7,7.5,7.1,7.1,0,0,0,6.5,4h24.6a7.2,7.2,0,0,0,0-14.4H332.3l16.3-22.4a7.49,7.49,0,0,0,.7-7.5,7.1,7.1,0,0,0-6.5-4H318.2a7.17,7.17,0,0,0-7.2,7.2A7.37,7.37,0,0,0,318.2,78.3Z"/><path class="cls-2" d="M392.7,75H382.3l16.3-22.4a7.49,7.49,0,0,0,.7-7.5,7.72,7.72,0,0,0-6.5-4H368a7.32,7.32,0,0,0-7.2,7.3,7.17,7.17,0,0,0,7.2,7.2h10.4L362,78a7.49,7.49,0,0,0-.7,7.5,7.1,7.1,0,0,0,6.5,4h24.6a7.17,7.17,0,0,0,7.2-7.2A7,7,0,0,0,392.7,75Z"/><path class="cls-1" d="M193.4,188.4H123.24v1.88c0,61.57,9.49,92.78,29.74,97.26a24.51,24.51,0,0,0,10.69,0c20.24-4.48,29.74-35.69,29.74-97.26V188.4Zm-14.1,76.8c-.47,1.27-1,2.44-1.49,3.51-4.86,10.41-11.35,15.66-19.48,15.66s-14.65-5.26-19.5-15.69a36,36,0,0,1-1.46-3.44c-6-15.29-9.07-38.35-9.18-71.76h60.26C188.34,226.86,185.27,249.91,179.3,265.2Z"/><path class="cls-1" d="M158.43,278c9.84,0,19.38-9.33,23.28-47.93H135.14C138.33,267.59,148.58,278,158.43,278Z"/><path class="cls-1" d="M158.32,292.45a25.74,25.74,0,0,1-5.34-.55v36.51H139.77c-1.82,0-3.3,1.13-3.3,2.51v3c0,1.38,1.48,2.5,3.3,2.5H176c1.82,0,3.3-1.12,3.3-2.5v-3c0-1.38-1.48-2.51-3.3-2.51H163.66V291.9A25.6,25.6,0,0,1,158.32,292.45Z"/><path class="cls-1" d="M201.22,201v12.27c0,.63,0,1.46,0,2.23V334.57h.18a4.1,4.1,0,0,0-.18,1.18c0,4.08,16.67,7.39,32,7.39s28.29-3.31,28.29-7.39a7.28,7.28,0,0,0-.11-1.18h.11V306.19H236.69V217.52h24.83V201c0-1.51-.52-11.87-16.52-22.51-.15,0-4.58-31.93-4.58-31.93H219.14l-3.06,31.93A27,27,0,0,0,201.22,201Z"/><path class="cls-1" d="M223.69,143h11.82c2.61,0,4.73-3.58,4.73-6.36v-1.26c0-2.78-2.12-6.57-4.73-6.57H223.69c-2.61,0-4.73,3.79-4.73,6.57v1.26C219,139.45,221.08,143,223.69,143Z"/></svg>