<svg id="Capa_1" data-name="Capa 1" xmlns="http://www.w3.org/2000/svg" viewBox="0 0 432.1 496"><defs><style>.cls-1{fill:#ec7d30;}.cls-2{fill:#fff;}</style></defs><title>pagami_licoreria_icono</title><path class="cls-1" d="M427.9,205.5C423.3,118.7,361.6,40,278.8,13.8c-87.5-27.6-187,8.4-238.4,84.1-52.8,77.8-44.5,182,1.3,260.8,25,43.2,61.5,80.1,105,104.8A349.42,349.42,0,0,0,182,480.8c11.8,5.1,24.4,11.8,37.6,10.5,12.7-1.2,25.5-8.1,36.9-13.3a294.88,294.88,0,0,0,31.6-16.3C364,416.4,416.8,335.5,426.5,247.6A281.75,281.75,0,0,0,427.9,205.5Z"/><path class="cls-2" d="M216.2,495.3c-11.2,0-21.8-4.7-31.3-9-1.5-.7-3-1.4-4.5-2a366.34,366.34,0,0,1-35.6-17.5C101,442.1,64.2,405.4,38.3,360.6,14.5,319.7,1.3,273.8.1,228c-1.3-49,11.5-94.8,37-132.3S100.8,29,144.8,13.4C189-2.3,237-3.5,280,10c84.7,26.8,147.1,107.1,151.8,195.2h0a276.3,276.3,0,0,1-1.5,42.7c-4.8,43.6-20.4,86.8-45,124.7A293.65,293.65,0,0,1,290,464.9a299.92,299.92,0,0,1-32,16.5c-1.6.8-3.4,1.6-5.1,2.4-10.1,4.8-21.6,10.1-33.1,11.2A14.61,14.61,0,0,1,216.2,495.3ZM218.6,8.5c-68,0-135.7,33.9-175,91.5C-4.7,171.1-4.2,271.9,45,356.7,70.2,400.2,106,436,148.5,460a373.36,373.36,0,0,0,34.8,17.1c1.6.7,3.1,1.4,4.7,2.1,10.1,4.5,20.5,9.2,31,8.2,10.1-.9,20.5-5.8,30.5-10.5,1.8-.8,3.5-1.6,5.2-2.4a313.77,313.77,0,0,0,31.2-16.1c74.7-44.6,127-125.5,136.5-211.1a287.46,287.46,0,0,0,1.5-41.5c-4.5-84.9-64.7-162.3-146.3-188.1A188.87,188.87,0,0,0,218.6,8.5Z"/><path class="cls-2" d="M110,118.7c45.4-51.9,127.1-61.4,184.2-23.6,56,37,77.7,111.9,51.1,173.3a144.3,144.3,0,0,1-61.6,68,138.51,138.51,0,0,1-42.6,15.3,123.46,123.46,0,0,1-26.4,2.3c-7.4-.2-21.6-4.7-28.2.2-5.6,4.2-2.2,11.4-.8,16.7,2.1,8,2.6,16.5-.2,24.4-4.6,13.3-19.2,23.3-33.3,23.2-25-.3-38.2-31.7-46.2-51C74.5,290.7,52.1,188.5,110,118.7Z"/><path class="cls-1" d="M206,162.64H130.77v2c0,66.05,10.18,99.53,31.9,104.34a26.37,26.37,0,0,0,11.46,0C195.85,264.19,206,230.71,206,164.66v-2ZM190.9,245a39.59,39.59,0,0,1-1.6,3.77c-5.2,11.17-12.18,16.8-20.9,16.8s-15.71-5.64-20.91-16.84a35.6,35.6,0,0,1-1.57-3.69c-6.42-16.39-9.72-41.14-9.84-77h64.64C200.61,203.9,197.31,228.63,190.9,245Z"/><path class="cls-1" d="M168.51,258.8c10.57,0,20.79-10,25-51.41h-50C147,247.6,158,258.8,168.51,258.8Z"/><path class="cls-1" d="M168.4,274.27a28.14,28.14,0,0,1-5.73-.59v39.17H148.5c-1.95,0-3.54,1.2-3.54,2.69v3.21c0,1.48,1.59,2.69,3.54,2.69h38.9c1.95,0,3.54-1.2,3.54-2.69v-3.21c0-1.49-1.59-2.69-3.54-2.69H174.13V273.68A28,28,0,0,1,168.4,274.27Z"/><path class="cls-1" d="M214.42,176.17v13.16c0,.67,0,1.57,0,2.4V319.45h.19a4.75,4.75,0,0,0-.19,1.27c0,4.38,17.88,7.92,34.34,7.92s30.35-3.55,30.35-7.92a8.42,8.42,0,0,0-.12-1.27h.12V289H252.47V193.88h26.64V176.17c0-1.62-.56-12.73-17.73-24.15-.15,0-4.91-34.25-4.91-34.25H233.64L230.36,152A29,29,0,0,0,214.42,176.17Z"/><path class="cls-1" d="M238.52,114H251.2c2.81,0,5.08-3.84,5.08-6.82V105.8c0-3-2.27-7-5.07-7H238.52c-2.8,0-5.07,4.07-5.07,7v1.35C233.45,110.13,235.72,114,238.52,114Z"/></svg>