<?xml version="1.0" encoding="utf-8"?>
<!-- Generator: Adobe Illustrator 24.0.0, SVG Export Plug-In . SVG Version: 6.00 Build 0)  -->
<svg version="1.1" id="Capa_1" xmlns="http://www.w3.org/2000/svg" xmlns:xlink="http://www.w3.org/1999/xlink" x="0px" y="0px"
	 viewBox="0 0 432.1 496" style="enable-background:new 0 0 432.1 496;" xml:space="preserve">
<style type="text/css">
	.st0{fill:#5C8CC9;}
	.st1{fill:#FFFFFF;}
</style>
<g>
	<g>
		<g>
			<g>
				<g>
					<g>
						<g>
							<g>
								<g>
									<g>
										<g>
											<g>
												<g>
													<g>
														<g>
															<path class="st0" d="M427.9,205.5C423.3,118.7,361.6,40,278.8,13.8c-87.5-27.6-187,8.4-238.4,84.1
																c-52.8,77.8-44.5,182,1.3,260.8c25,43.2,61.5,80.1,105,104.8c11.4,6.4,23.2,12.2,35.3,17.3
																c11.8,5.1,24.4,11.8,37.6,10.5c12.7-1.2,25.5-8.1,36.9-13.3c10.8-4.8,21.4-10.2,31.6-16.3
																c75.9-45.3,128.7-126.2,138.4-214.1C428,233.7,428.5,219.5,427.9,205.5z"/>
															<path class="st1" d="M216.2,495.3c-11.2,0-21.8-4.7-31.3-9c-1.5-0.7-3-1.4-4.5-2c-12-5.1-24-11-35.6-17.5
																C101,442.1,64.2,405.4,38.3,360.6C14.5,319.7,1.3,273.8,0.1,228c-1.3-49,11.5-94.8,37-132.3S100.8,29,144.8,13.4
																C189-2.3,237-3.5,280,10c84.7,26.8,147.1,107.1,151.8,195.2l0,0c0.6,14.3,0.1,28.6-1.5,42.7
																c-4.8,43.6-20.4,86.8-45,124.7c-24.5,37.8-57.4,69.7-95.3,92.3c-9.9,5.9-20.7,11.5-32,16.5c-1.6,0.8-3.4,1.6-5.1,2.4
																c-10.1,4.8-21.6,10.1-33.1,11.2C218.6,495.3,217.4,495.3,216.2,495.3z M218.6,8.5c-68,0-135.7,33.9-175,91.5
																C-4.7,171.1-4.2,271.9,45,356.7C70.2,400.2,106,436,148.5,460c11.3,6.3,23.1,12.1,34.8,17.1c1.6,0.7,3.1,1.4,4.7,2.1
																c10.1,4.5,20.5,9.2,31,8.2c10.1-0.9,20.5-5.8,30.5-10.5c1.8-0.8,3.5-1.6,5.2-2.4c11.1-5,21.6-10.4,31.2-16.1
																c74.7-44.6,127-125.5,136.5-211.1c1.5-13.7,2-27.7,1.5-41.5c-4.5-84.9-64.7-162.3-146.3-188.1
																C258.4,11.4,238.5,8.5,218.6,8.5z"/>
														</g>
														<path class="st1" d="M110,118.7c45.4-51.9,127.1-61.4,184.2-23.6c56,37,77.7,111.9,51.1,173.3
															c-12.6,28.8-34.2,52.6-61.6,68c-13.3,7.4-27.7,12.6-42.6,15.3c-8.7,1.7-17.6,2.5-26.4,2.3c-7.4-0.2-21.6-4.7-28.2,0.2
															c-5.6,4.2-2.2,11.4-0.8,16.7c2.1,8,2.6,16.5-0.2,24.4c-4.6,13.3-19.2,23.3-33.3,23.2c-25-0.3-38.2-31.7-46.2-51
															C74.5,290.7,52.1,188.5,110,118.7z"/>
													</g>
												</g>
											</g>
										</g>
									</g>
								</g>
							</g>
						</g>
					</g>
				</g>
			</g>
		</g>
	</g>
</g>
<g>
	<path class="st0" d="M186.9,286.2c3.4,0,6.9-0.1,10.5-0.3c15-0.8,28.7-3.2,40.9-7.2c15.5-5.1,28.6-12.9,38.7-23
		c30.7-30.7,36.3-84.9,36.9-114.5v0c0.2-11.8-0.3-19.4-0.3-19.7c-0.3-3.5-3.2-6.2-6.7-6.2c-0.2,0-3.9,0-10.1,0.3
		c-27.3,1.2-94.2,7.4-126.3,39.5c-14,14-22.8,34.2-26.2,60.1c-2.6,20.4-1.3,39.7,0.2,52.3c0,0.2,0.1,0.4,0.1,0.6
		c0.2,1.6,2.1,2.4,3.4,1.4c3.5-2.8,6.6-6.2,9.2-10c6-8.6,13.3-18.4,20.8-27c0.5-0.6,0.6-1.3,0.4-2c-2.1-6.9-5.6-18.8-5.6-24.5
		c0-4.3,4-7.6,8.5-6.5c2.9,0.8,4.9,3.5,4.9,6.5c0,2,1,6.3,2.3,11.1c0.4,1.5,2.2,2.1,3.4,1c4-3.5,7.8-6.3,11.5-8.1
		c2.4-1.2,4.8-2.6,7.1-4.2c0.8-0.6,1.1-1.6,0.7-2.6c-2.1-5-4.7-12-4.8-17.2c-0.1-3.7,2.9-6.9,6.6-7c3.8-0.1,6.9,3,6.9,6.7
		c0,1.5,0.7,4.1,1.7,6.9c0.5,1.5,2.4,1.9,3.5,0.8c7.7-7.8,12.8-14.8,12.9-15c2.2-3,6.4-3.7,9.4-1.6c3,2.2,3.7,6.4,1.6,9.4
		c-0.4,0.5-5.5,7.6-13.3,15.6c-1.2,1.3-0.5,3.4,1.3,3.6c2.2,0.2,4.4,0.4,6.4,0.4c3.6,0,6.7,2.7,6.9,6.3c0.2,3.9-2.9,7.1-6.7,7.1
		c-8.5,0-19-2.1-23.2-3.1c-0.6-0.1-1.2,0-1.7,0.3c-2.9,2-6,3.9-9.1,5.4c-4.7,2.3-10.7,7.5-17.6,15c-1,1.1-0.6,3,0.9,3.4
		C197,242,201,243,203,243c3.2,0,6,2.2,6.7,5.3c0.9,4.3-2.4,8.1-6.6,8.1c-5.5,0-15.1-3.1-21.1-5.3c-0.9-0.3-1.8,0-2.4,0.7
		c-3.7,4.7-7.5,9.9-11.4,15.5c-3.5,4.9-7.5,9.3-12,12.9c-1.4,1.1-0.8,3.4,1,3.7C162.8,284.9,173.4,286.2,186.9,286.2L186.9,286.2z"
		/>
	<path class="st0" d="M105.6,330.4c-2.5,0-4.8-1.4-6-3.7c-1.7-3.3-0.3-7.4,3-9c0.3-0.1,18-9.2,23.7-23.4c1.4-3.6,3.3-7,5.7-10.1
		c2.2-3,6.4-3.6,9.4-1.4s3.6,6.4,1.4,9.4c-1.6,2.2-3,4.6-4,7.1c-7.6,19-29.2,29.9-30.1,30.4C107.7,330.2,106.7,330.4,105.6,330.4
		L105.6,330.4z"/>
</g>
</svg>
