<?xml version="1.0" encoding="utf-8"?>
<!-- Generator: Adobe Illustrator 24.0.0, SVG Export Plug-In . SVG Version: 6.00 Build 0)  -->
<svg version="1.1" id="Capa_1" xmlns="http://www.w3.org/2000/svg" xmlns:xlink="http://www.w3.org/1999/xlink" x="0px" y="0px"
	 viewBox="0 0 432.1 496" style="enable-background:new 0 0 432.1 496;" xml:space="preserve">
<style type="text/css">
	.st0{fill:#EC7D30;}
	.st1{fill:#FFFFFF;}
	.st2{fill:#929292;}
	.st3{fill:#D32F2F;}
	.st4{fill:#4CAF50;}
</style>
<g>
	<g>
		<g>
			<path class="st0" d="M427.9,205.5C423.3,118.7,361.6,40,278.8,13.8c-87.5-27.6-187,8.4-238.4,84.1c-52.8,77.8-44.5,182,1.3,260.8
				c25,43.2,61.5,80.1,105,104.8c11.4,6.4,23.2,12.2,35.3,17.3c11.8,5.1,24.4,11.8,37.6,10.5c12.7-1.2,25.5-8.1,36.9-13.3
				c10.8-4.8,21.4-10.2,31.6-16.3c75.9-45.3,128.7-126.2,138.4-214.1C428,233.7,428.5,219.5,427.9,205.5z"/>
			<path class="st1" d="M216.2,495.3c-11.2,0-21.8-4.7-31.3-9c-1.5-0.7-3-1.4-4.5-2c-12-5.1-24-11-35.6-17.5
				C101,442.1,64.2,405.4,38.3,360.6C14.5,319.7,1.3,273.8,0.1,228c-1.3-49,11.5-94.8,37-132.3C62.6,58.2,100.8,29,144.8,13.4
				C189-2.3,237-3.5,280,10c84.7,26.8,147.1,107.1,151.8,195.2l0,0c0.6,14.3,0.1,28.6-1.5,42.7c-4.8,43.6-20.4,86.8-45,124.7
				c-24.5,37.8-57.4,69.7-95.3,92.3c-9.9,5.9-20.7,11.5-32,16.5c-1.6,0.8-3.4,1.6-5.1,2.4c-10.1,4.8-21.6,10.1-33.1,11.2
				C218.6,495.3,217.4,495.3,216.2,495.3z M218.6,8.5C150.6,8.5,82.9,42.4,43.6,100c-48.3,71.1-47.8,171.9,1.4,256.7
				c25.2,43.5,61,79.3,103.5,103.3c11.3,6.3,23.1,12.1,34.8,17.1c1.6,0.7,3.1,1.4,4.7,2.1c10.1,4.5,20.5,9.2,31,8.2
				c10.1-0.9,20.5-5.8,30.5-10.5c1.8-0.8,3.5-1.6,5.2-2.4c11.1-5,21.6-10.4,31.2-16.1c74.7-44.6,127-125.5,136.5-211.1
				c1.5-13.7,2-27.7,1.5-41.5c-4.5-84.9-64.7-162.3-146.3-188.1C258.4,11.4,238.5,8.5,218.6,8.5z"/>
		</g>
		<path class="st1" d="M110,118.7c45.4-51.9,127.1-61.4,184.2-23.6c56,37,77.7,111.9,51.1,173.3c-12.6,28.8-34.2,52.6-61.6,68
			c-13.3,7.4-27.7,12.6-42.6,15.3c-8.7,1.7-17.6,2.5-26.4,2.3c-7.4-0.2-21.6-4.7-28.2,0.2c-5.6,4.2-2.2,11.4-0.8,16.7
			c2.1,8,2.6,16.5-0.2,24.4c-4.6,13.3-19.2,23.3-33.3,23.2c-25-0.3-38.2-31.7-46.2-51C74.5,290.7,52.1,188.5,110,118.7z"/>
	</g>
	<g>
		<path class="st0" d="M280.5,283.4c-7.7,0-14,6.2-14,13.9c0,7.7,6.2,14,13.9,14c7.7,0,14-6.2,14-13.9c0,0,0,0,0,0
			C294.5,289.6,288.2,283.4,280.5,283.4z"/>
		<path class="st0" d="M155,271.4c-11,0-19.9,8.9-19.9,19.9c0,11,8.9,19.9,19.9,19.9c11,0,19.9-8.9,19.9-19.9
			C174.9,280.3,166,271.4,155,271.4z"/>
		<path class="st0" d="M282.2,118c-4-1.5-8.1-2.9-12.2-4c11.5,10.2,17.8,23.8,17.8,39.1c0,2-0.3,4.1-1,6H308c3.3,0,6-2.7,6-6
			c0,0,0,0,0,0C314,142.7,308.5,128.2,282.2,118z"/>
		<path class="st0" d="M138.1,159c-0.7-1.9-1-3.9-1-6c0-15.3,6.3-28.9,17.8-39.1c-4.1,1.1-8.2,2.4-12.2,4
			c-26.3,10.3-31.8,24.8-31.8,35.1c0,3.3,2.7,6,6,6l0,0L138.1,159z"/>
		<path class="st0" d="M155,159h21.4c-0.7-1.9-1-3.9-1-6c0-15,2.6-28,7.6-37.7c0.8-1.5,1.7-3,2.6-4.5c-6,1.7-11.7,4.3-16.9,7.6
			c-12.8,8.3-19.5,20.3-19.5,34.5C149,156.3,151.7,159,155,159C155,159,155,159,155,159z"/>
		<path class="st0" d="M249.5,153c0,2-0.3,4.1-1,6h21.4c3.3,0,6-2.7,6-6c0,0,0,0,0,0c0-14.3-6.8-26.2-19.5-34.5
			c-5.3-3.3-11-5.9-17-7.6c0.9,1.4,1.8,2.9,2.6,4.5C246.8,125,249.5,138.1,249.5,153z"/>
		<path class="st0" d="M190.9,193.7c0-3.3-2.7-6-6-6l0,0H161c-3.3,0-6,2.7-6,6c0,0,0,0,0,0v17.9h35.9L190.9,193.7z"/>
		<path class="st0" d="M304.5,187.7h-63.8c-3.3,0-6,2.7-6,6c0,3.3,2.7,6,6,6h2v12h59.8v-12h2c3.3,0,6-2.7,6-6
			C310.4,190.4,307.7,187.7,304.5,187.7C304.4,187.7,304.4,187.7,304.5,187.7L304.5,187.7z"/>
		<path class="st0" d="M304.5,223.6h-86.1V159h13.1c3.3,0,6-2.7,6-6c0,0,0,0,0,0c0-13.1-2.2-24.2-6.3-32.2
			c-4.5-8.8-11.2-13.6-18.8-13.6s-14.4,4.8-18.9,13.6c-4.1,8-6.3,19.1-6.3,32.2c0,3.3,2.7,6,6,6l0,0h13.1v64.6h-70.1
			c-12.1,0-21.9,9.8-21.9,21.9c0,3.3,2.7,6,6,6s6-2.7,6-6c0-5.5,4.5-9.9,10-9.9H155v23.9c16.1,0,29.6,12,31.6,27.9h70
			c5.5-13.2,20.7-19.5,33.9-14c6.3,2.6,11.3,7.6,14,14l0,0c3.3,0,6-2.7,6-6v0v-51.8C310.4,226.3,307.8,223.6,304.5,223.6
			L304.5,223.6z M190.9,257.5c0,3.3-2.7,6-6,6s-6-2.7-6-6l0,0v-15.9c0-3.3,2.7-6,6-6s6,2.7,6,6V257.5z M214.8,257.5c0,3.3-2.7,6-6,6
			s-6-2.7-6-6l0,0v-15.9c0-3.3,2.7-6,6-6s6,2.7,6,6V257.5z M238.7,257.5c0,3.3-2.7,6-6,6c-3.3,0-6-2.7-6-6l0,0v-15.9
			c0-3.3,2.7-6,6-6c3.3,0,6,2.7,6,6V257.5z M262.6,257.5c0,3.3-2.7,6-6,6c-3.3,0-6-2.7-6-6l0,0v-15.9c0-3.3,2.7-6,6-6
			c3.3,0,6,2.7,6,6V257.5z M286.5,257.5c0.1,3.3-2.5,6.1-5.8,6.2c-3.3,0.1-6.1-2.5-6.2-5.8c0-0.1,0-0.3,0-0.4v-15.9
			c-0.1-3.3,2.5-6.1,5.8-6.2c3.3-0.1,6.1,2.5,6.2,5.8c0,0.1,0,0.3,0,0.4V257.5z"/>
	</g>
</g>
</svg>
