<?xml version="1.0" encoding="utf-8"?>
<!-- Generator: Adobe Illustrator 24.0.0, SVG Export Plug-In . SVG Version: 6.00 Build 0)  -->
<svg version="1.1" id="Capa_1" xmlns="http://www.w3.org/2000/svg" xmlns:xlink="http://www.w3.org/1999/xlink" x="0px" y="0px"
	 viewBox="0 0 432.1 496" style="enable-background:new 0 0 432.1 496;" xml:space="preserve">
<style type="text/css">
	.st0{fill:#E84335;}
	.st1{fill:#FFFFFF;}
	.st2{fill:#929292;}
	.st3{fill:#D32F2F;}
	.st4{fill:#4CAF50;}
</style>
<g>
	<g>
		<g>
			<g>
				<g>
					<g>
						<g>
							<g>
								<g>
									<g>
										<g>
											<g>
												<g>
													<g>
														<g>
															<g>
																<g>
																	<path class="st0" d="M398.9,225.8c-4.3-80.9-61.8-154.3-139-178.7C178.3,21.3,85.6,55,37.6,125.5
																		C-11.6,198-3.9,295.1,38.8,368.6c23.3,40.3,57.3,74.7,97.9,97.7c10.6,6,21.6,11.4,32.9,16.1
																		c11,4.8,22.7,11,35.1,9.8c11.8-1.1,23.8-7.5,34.4-12.4c10.1-4.5,20-9.5,29.5-15.2c70.8-42.2,119.9-117.6,129-199.6
																		C399,252.1,399.5,238.9,398.9,225.8z"/>
																	<path class="st1" d="M201.5,496c-10.5,0-20.4-4.4-29.2-8.4c-1.4-0.6-2.8-1.3-4.2-1.9
																		c-11.2-4.7-22.4-10.2-33.2-16.3c-40.8-23.1-75.1-57.3-99.2-99C13.5,332.3,1.2,289.5,0.1,246.7
																		c-1.2-45.7,10.7-88.3,34.5-123.4C58.3,88.5,94,61.3,134.9,46.7C176.2,32,221,30.9,261,43.6
																		c79,25,137.2,99.8,141.5,182l0,0c0.7,13.3,0.2,26.7-1.4,39.9c-4.5,40.6-19,80.8-41.9,116.2
																		c-22.8,35.2-53.6,65-88.8,86c-9.2,5.5-19.3,10.7-29.9,15.4c-1.5,0.7-3.1,1.5-4.8,2.2c-9.4,4.4-20.1,9.5-30.8,10.4
																		C203.8,495.9,202.6,496,201.5,496z M203.6,42.2c-63.3,0-126.4,31.5-163,85.3c-45,66.3-44.5,160.2,1.3,239.2
																		c23.5,40.6,56.9,73.9,96.5,96.3C149,469,160,474.4,171,479c1.5,0.6,2.9,1.3,4.3,1.9c9.4,4.2,19.1,8.5,28.9,7.6
																		c9.4-0.9,19.1-5.4,28.4-9.8c1.6-0.8,3.3-1.5,4.9-2.3c10.4-4.6,20.2-9.7,29.1-15c69.6-41.5,118.4-117,127.2-196.8
																		c1.5-12.8,2-25.8,1.4-38.7C391,146.8,334.9,74.7,258.8,50.6C240.8,44.9,222.2,42.2,203.6,42.2z"/>
																</g>
																<g>
																	<path class="st1" d="M103.9,147.4c42.3-48.3,118.5-57.2,171.7-22c52.2,34.5,72.4,104.3,47.6,161.6
																		c-11.7,26.8-31.9,49.1-57.4,63.4c-12.4,6.9-25.8,11.7-39.7,14.3c-8.1,1.6-16.4,2.3-24.6,2.1
																		c-6.9-0.2-20.1-4.4-26.3,0.2c-5.2,3.9-2,10.6-0.7,15.6c1.9,7.4,2.4,15.4-0.2,22.7c-4.3,12.4-17.9,21.7-31,21.6
																		c-23.3-0.3-35.6-29.6-43-47.5C70.8,307.8,49.9,212.5,103.9,147.4z"/>
																</g>
															</g>
														</g>
													</g>
												</g>
											</g>
										</g>
									</g>
								</g>
							</g>
						</g>
					</g>
				</g>
			</g>
		</g>
	</g>
	<g>
		<g>
			<path class="st0" d="M202.9,162.5c7.9-0.1,15.7-2.6,22.2-7.1c4.6-3.2,5.1-5,8.3-7.1c10-6.8,25.7-3.6,36.1,7.1
				c14,14.4,16.1,40.2,11.1,57.1c-4.7,15.6-12.6,13.7-16.6,28.5c-5.6,20.2,7.6,29.4,5.6,57.1c-1.4,18.9-9.3,39.6-22.2,46.4
				c-6.4,3.4-15.2,3.9-16.6,0c-1.3-3.5,7.1-7.3,11.1-17.8c6.8-18.1-4.7-41.1-5.6-42.8c-11-21.4-30.4-23.5-33.4-23.9
				c-3.1,0.4-22.4,2.5-33.4,23.9c-0.9,1.7-12.4,24.7-5.5,42.8c4,10.5,12.4,14.4,11.1,17.8c-1.4,3.9-10.2,3.4-16.6,0
				c-12.8-6.8-20.8-27.4-22.2-46.4c-2-27.7,11.1-36.9,5.5-57.1c-4.1-14.8-12-13-16.6-28.5c-5.1-16.9-2.9-42.7,11.1-57.1
				c10.4-10.7,26-13.9,36.1-7.1c3.2,2.2,3.8,3.9,8.3,7.1c6.5,4.6,14.2,7.1,22.2,7.1H202.9z"/>
			<path class="st1" d="M192.3,242.5v-20.9h-20.9v-20.9h20.9v-20.9h20.9v20.9h20.9v20.9h-20.9v20.9H192.3z"/>
			<path class="st1" d="M260.1,169.8c-1.6,1.1-1.9,3.3-0.8,4.9l0,0c8.4,11.6,8.5,26.8,0.1,37.7c-1.3,1.4-1.1,3.7,0.3,4.9
				c1.4,1.3,3.7,1.1,4.9-0.3c0.1-0.1,0.2-0.2,0.3-0.3v0c10.3-13.4,10.3-31.9,0.1-46.1C263.8,169.1,261.6,168.7,260.1,169.8
				L260.1,169.8z"/>
			<path class="st0" d="M272,153c-11.7-12.1-29.1-15.3-40.5-7.6c-1.4,1-2.7,2.1-3.9,3.4c-1.3,1.4-2.8,2.7-4.4,3.8
				c-5.9,4.2-13,6.4-20.2,6.5h-0.2c-7.2-0.1-14.3-2.3-20.2-6.5c-1.6-1.1-3.1-2.4-4.4-3.8c-1.2-1.3-2.5-2.4-3.9-3.4
				c-11.4-7.7-28.8-4.5-40.5,7.6c-14.9,15.4-17.3,42.7-11.9,60.5c2.6,8.6,6.2,12.5,9.3,15.9c2.9,3.2,5.5,5.9,7.3,12.5
				c2.6,9.5,0.7,16.2-1.7,24.7c-2.3,8.3-5,17.7-4,31.7c0.7,10,3.1,19.8,7.1,28.9c4.4,9.7,10.2,16.7,16.9,20.3c5.8,3,12.8,4,17.2,2.3
				c2-0.7,3.6-2.2,4.4-4.2c1.3-3.6-1.3-6.5-3.9-9.3c-2.4-2.7-5.4-6-7.3-10.9c-6.3-16.8,4.9-39,5.4-40c6.3-12.3,17.1-20.1,30.3-22
				c13.2,1.8,24,9.6,30.3,22c0.5,0.9,11.7,23.1,5.4,40c-1.9,5-4.9,8.3-7.3,10.9c-2.5,2.8-5.2,5.7-3.8,9.3c0.8,2,2.4,3.5,4.4,4.2
				c1.6,0.6,3.3,0.9,5,0.8c4.2-0.1,8.4-1.1,12.1-3.1c6.7-3.5,12.6-10.5,17-20.3c4-9.2,6.4-19,7.1-28.9c1-14-1.6-23.4-4-31.7
				c-2.4-8.5-4.3-15.2-1.7-24.7c1.8-6.6,4.3-9.3,7.3-12.5c3.2-3.5,6.8-7.4,9.3-15.9C289.2,195.7,286.9,168.4,272,153L272,153z
				 M277.3,211.5c-2.1,7-4.9,10-7.8,13.2c-3.3,3.5-6.6,7.2-8.9,15.4c-3.1,11.4-0.8,19.7,1.7,28.5c2.3,8.1,4.7,16.5,3.7,29.3
				c-1.5,20.1-9.8,38-20.3,43.5c-4.8,2.5-9.6,2.6-11.3,2c0.5-0.7,1.4-1.6,2.1-2.4c2.6-2.9,6.3-7,8.6-13.1c7.3-19.4-4.4-43-5.7-45.6
				c-7.4-14.5-20.1-23.6-35.8-25.7l-0.3,0c-0.3,0-0.7,0-1,0l-0.3,0c-15.6,2.1-28.3,11.2-35.8,25.7c-1.4,2.6-13,26.3-5.7,45.6
				c2.3,6.2,6,10.2,8.6,13.1c0.7,0.8,1.6,1.7,2.1,2.4c-1.7,0.6-6.5,0.5-11.3-2c-10.5-5.5-18.9-23.4-20.3-43.5
				c-0.9-12.7,1.4-21.1,3.7-29.3c2.5-8.8,4.8-17.1,1.7-28.5c-2.3-8.2-5.6-11.9-8.9-15.4c-2.9-3.2-5.7-6.2-7.8-13.2
				c-2.5-8.2-3-18.4-1.5-27.9c1.2-7.4,4.2-18,11.7-25.7c9.2-9.5,23.1-12.4,31.6-6.7c1.1,0.7,2,1.6,2.9,2.5c1.6,1.7,3.4,3.2,5.4,4.6
				c7.1,5,15.5,7.7,24.1,7.8h0.4c8.6-0.1,17.1-2.8,24.1-7.8c1.9-1.3,3.7-2.9,5.4-4.6c0.9-0.9,1.9-1.8,2.9-2.5
				c8.5-5.8,22.4-2.8,31.6,6.7c7.5,7.8,10.6,18.3,11.7,25.7C280.3,193.1,279.7,203.3,277.3,211.5L277.3,211.5z"/>
			<path class="st1" d="M234.2,197.1h-17.4v-17.4c0-1.9-1.6-3.5-3.5-3.5h-20.9c-1.9,0-3.5,1.6-3.5,3.5v17.4h-17.5
				c-1.9,0-3.5,1.6-3.5,3.5v20.9c0,1.9,1.6,3.5,3.5,3.5l0,0h17.5v17.5c0,1.9,1.6,3.5,3.5,3.5h20.9c1.9,0,3.5-1.6,3.5-3.5V225h17.4
				c1.9,0,3.5-1.6,3.5-3.5v-20.9C237.7,198.6,236.1,197.1,234.2,197.1z M230.7,218h-17.4c-1.9,0-3.5,1.6-3.5,3.5V239h-14v-17.5
				c0-1.9-1.6-3.5-3.5-3.5h-17.5v-14h17.5c1.9,0,3.5-1.6,3.5-3.5v-17.4h14v17.4c0,1.9,1.6,3.5,3.5,3.5h17.4V218z"/>
		</g>
	</g>
</g>
<g>
	<g>
		<path class="st4" d="M355.5,149.3c-40,0-72.6-32.5-72.6-72.5S315.4,3.9,355.6,4c40.1,0.1,72.5,32.7,72.5,72.6
			C428,116.8,395.5,149.3,355.5,149.3z"/>
		<path class="st1" d="M355.5,153.3c-42.3,0-76.6-34.3-76.6-76.5c0-20.5,8-39.8,22.6-54.4C315.9,7.9,335.1,0,355.4,0
			c0.1,0,0.1,0,0.2,0c42.2,0.1,76.5,34.5,76.5,76.6C432,118.9,397.6,153.3,355.5,153.3z M355.4,8c-18.2,0-35.3,7.1-48.3,20
			c-13.1,13-20.3,30.3-20.3,48.7c0,37.8,30.8,68.5,68.6,68.5c37.7,0,68.5-30.8,68.6-68.7c0-37.7-30.8-68.5-68.5-68.6
			C355.5,8,355.4,8,355.4,8z"/>
	</g>
	<path class="st1" d="M399.3,41.3c-3.9-3.7-10.1-3.5-13.8,0.4l0,0L339.1,91l-14-14l0,0c-3.8-3.8-10-3.8-13.8,0l0,0
		c-3.8,3.8-3.8,10,0,13.8v0l21,21v0c3.9,3.9,10.2,3.8,14-0.2l0,0L399.7,55l0,0C403.4,51.1,403.3,44.9,399.3,41.3L399.3,41.3z"/>
</g>
</svg>
