<?xml version="1.0" encoding="utf-8"?>
<!-- Generator: Adobe Illustrator 24.0.0, SVG Export Plug-In . SVG Version: 6.00 Build 0)  -->
<svg version="1.1" id="Capa_1" xmlns="http://www.w3.org/2000/svg" xmlns:xlink="http://www.w3.org/1999/xlink" x="0px" y="0px"
	 viewBox="0 0 432.1 496" style="enable-background:new 0 0 432.1 496;" xml:space="preserve">
<style type="text/css">
	.st0{fill:#E84335;}
	.st1{fill:#FFFFFF;}
	.st2{fill:#929292;}
	.st3{fill:#D32F2F;}
	.st4{fill:#4CAF50;}
</style>
<g>
	<g>
		<g>
			<g>
				<g>
					<g>
						<g>
							<g>
								<g>
									<g>
										<g>
											<g>
												<g>
													<g>
														<path class="st0" d="M427.9,205.5C423.3,118.7,361.6,40,278.8,13.8c-87.5-27.6-187,8.4-238.4,84.1
															c-52.8,77.8-44.5,182,1.3,260.8c25,43.2,61.5,80.1,105,104.8c11.4,6.4,23.2,12.2,35.3,17.3
															c11.8,5.1,24.4,11.8,37.6,10.5c12.7-1.2,25.5-8.1,36.9-13.3c10.8-4.8,21.4-10.2,31.6-16.3
															c75.9-45.3,128.7-126.2,138.4-214.1C428,233.7,428.5,219.5,427.9,205.5z"/>
														<path class="st1" d="M216.2,495.3c-11.2,0-21.8-4.7-31.3-9c-1.5-0.7-3-1.4-4.5-2c-12-5.1-24-11-35.6-17.5
															C101,442.1,64.2,405.4,38.3,360.6C14.5,319.7,1.3,273.8,0.1,228c-1.3-49,11.5-94.8,37-132.3
															C62.6,58.2,100.8,29,144.8,13.4C189-2.3,237-3.5,280,10c84.7,26.8,147.1,107.1,151.8,195.2l0,0
															c0.6,14.3,0.1,28.6-1.5,42.7c-4.8,43.6-20.4,86.8-45,124.7c-24.5,37.8-57.4,69.7-95.3,92.3
															c-9.9,5.9-20.7,11.5-32,16.5c-1.6,0.8-3.4,1.6-5.1,2.4c-10.1,4.8-21.6,10.1-33.1,11.2
															C218.6,495.3,217.4,495.3,216.2,495.3z M218.6,8.5C150.6,8.5,82.9,42.4,43.6,100c-48.3,71.1-47.8,171.9,1.4,256.7
															c25.2,43.5,61,79.3,103.5,103.3c11.3,6.3,23.1,12.1,34.8,17.1c1.6,0.7,3.1,1.4,4.7,2.1c10.1,4.5,20.5,9.2,31,8.2
															c10.1-0.9,20.5-5.8,30.5-10.5c1.8-0.8,3.5-1.6,5.2-2.4c11.1-5,21.6-10.4,31.2-16.1c74.7-44.6,127-125.5,136.5-211.1
															c1.5-13.7,2-27.7,1.5-41.5c-4.5-84.9-64.7-162.3-146.3-188.1C258.4,11.4,238.5,8.5,218.6,8.5z"/>
													</g>
													<path class="st1" d="M110,118.7c45.4-51.9,127.1-61.4,184.2-23.6c56,37,77.7,111.9,51.1,173.3
														c-12.6,28.8-34.2,52.6-61.6,68c-13.3,7.4-27.7,12.6-42.6,15.3c-8.7,1.7-17.6,2.5-26.4,2.3c-7.4-0.2-21.6-4.7-28.2,0.2
														c-5.6,4.2-2.2,11.4-0.8,16.7c2.1,8,2.6,16.5-0.2,24.4c-4.6,13.3-19.2,23.3-33.3,23.2c-25-0.3-38.2-31.7-46.2-51
														C74.5,290.7,52.1,188.5,110,118.7z"/>
												</g>
											</g>
										</g>
									</g>
								</g>
							</g>
						</g>
					</g>
				</g>
			</g>
		</g>
	</g>
	<g>
		<path class="st0" d="M216.3,134.9c8.5-0.1,16.8-2.7,23.8-7.6c4.9-3.4,5.5-5.3,8.9-7.7c10.8-7.3,27.6-3.8,38.7,7.7
			c15,15.5,17.3,43.2,11.9,61.2c-5,16.7-13.5,14.7-17.8,30.6c-6,21.7,8.1,31.6,6,61.2c-1.5,20.3-10,42.5-23.8,49.7
			c-6.9,3.6-16.3,4.2-17.8,0c-1.4-3.7,7.6-7.8,11.9-19.1c7.3-19.4-5-44-6-45.9c-11.8-23-32.6-25.2-35.9-25.6
			c-3.3,0.5-24,2.6-35.9,25.6c-1,1.9-13.3,26.5-5.9,45.9c4.3,11.3,13.3,15.4,11.9,19.1c-1.5,4.2-11,3.6-17.9,0
			c-13.8-7.2-22.3-29.4-23.8-49.7c-2.2-29.7,11.9-39.6,5.9-61.2c-4.4-15.9-12.8-13.9-17.8-30.6c-5.4-18.1-3.1-45.8,11.9-61.2
			c11.1-11.5,27.9-14.9,38.7-7.7c3.4,2.3,4,4.2,8.9,7.7c7,4.9,15.3,7.6,23.8,7.6H216.3z"/>
		<path class="st1" d="M204.9,220.6v-22.5h-22.5v-22.5h22.5v-22.5h22.5v22.5h22.5v22.5h-22.5v22.5H204.9z"/>
		<path class="st1" d="M277.6,142.7c-1.7,1.2-2,3.6-0.8,5.2l0,0c9,12.5,9.1,28.7,0.1,40.5c-1.4,1.6-1.2,3.9,0.3,5.3
			c1.6,1.4,3.9,1.2,5.3-0.3c0.1-0.1,0.2-0.2,0.3-0.4v0c11-14.4,11.1-34.2,0.1-49.4C281.5,141.9,279.2,141.5,277.6,142.7L277.6,142.7
			z"/>
		<path class="st0" d="M290.4,124.7c-12.5-12.9-31.2-16.4-43.5-8.1c-1.5,1.1-2.9,2.3-4.2,3.6c-1.4,1.5-3,2.9-4.8,4.1
			c-6.4,4.5-13.9,6.9-21.7,7H216c-7.8-0.1-15.3-2.5-21.7-7c-1.7-1.2-3.3-2.6-4.8-4.1c-1.3-1.4-2.7-2.6-4.2-3.6
			c-12.3-8.3-30.9-4.8-43.5,8.1c-16,16.5-18.5,45.8-12.8,64.9c2.8,9.2,6.6,13.4,10,17.1c3.1,3.4,5.9,6.4,7.8,13.4
			c2.8,10.2,0.8,17.4-1.8,26.5c-2.5,8.9-5.4,19-4.3,34c0.8,10.7,3.3,21.2,7.6,31c4.7,10.4,11,17.9,18.2,21.7
			c6.2,3.3,13.8,4.3,18.4,2.5c2.2-0.7,3.9-2.4,4.7-4.5c1.4-3.9-1.4-7-4.1-10c-2.6-2.9-5.8-6.4-7.8-11.7c-6.8-18.1,5.3-41.9,5.8-42.9
			c6.8-13.2,18.4-21.6,32.5-23.6c14.2,2,25.7,10.3,32.5,23.6c0.5,1,12.6,24.8,5.8,42.9c-2,5.3-5.2,8.9-7.8,11.7
			c-2.7,3-5.5,6.1-4.1,10c0.8,2.1,2.5,3.8,4.7,4.5c1.7,0.6,3.6,0.9,5.4,0.9c4.5-0.1,9-1.2,13-3.4c7.2-3.8,13.5-11.3,18.2-21.7
			c4.3-9.8,6.9-20.3,7.6-31c1.1-15-1.8-25.1-4.3-34c-2.6-9.1-4.6-16.3-1.8-26.5c1.9-7,4.7-10,7.8-13.4c3.4-3.7,7.3-7.9,10-17.1
			C308.8,170.5,306.3,141.2,290.4,124.7L290.4,124.7z M296,187.4c-2.3,7.6-5.2,10.8-8.4,14.2c-3.5,3.8-7.1,7.7-9.5,16.5
			c-3.4,12.2-0.8,21.1,1.8,30.5c2.5,8.7,5,17.7,4,31.4c-1.6,21.6-10.5,40.8-21.8,46.7c-5.1,2.7-10.3,2.8-12.1,2.2
			c0.5-0.7,1.5-1.8,2.2-2.6c2.8-3.1,6.7-7.5,9.2-14.1c7.8-20.8-4.7-46.1-6.1-49c-8-15.5-21.6-25.3-38.4-27.6l-0.3,0
			c-0.3-0.1-0.7-0.1-1,0l-0.3,0c-16.8,2.3-30.4,12.1-38.4,27.6c-1.5,2.8-14,28.2-6.1,49c2.5,6.6,6.4,11,9.2,14.1
			c0.7,0.8,1.7,1.9,2.2,2.6c-1.8,0.6-7,0.5-12.1-2.2c-11.3-5.9-20.2-25.1-21.8-46.7c-1-13.7,1.6-22.7,4-31.4
			c2.7-9.4,5.2-18.3,1.8-30.5c-2.4-8.8-6-12.7-9.5-16.5c-3.1-3.4-6.1-6.6-8.4-14.2c-2.6-8.8-3.2-19.7-1.6-29.9
			c1.3-8,4.5-19.3,12.6-27.6c9.9-10.2,24.8-13.3,33.9-7.2c1.1,0.8,2.2,1.7,3.1,2.7c1.8,1.8,3.7,3.5,5.8,4.9
			c7.6,5.3,16.6,8.3,25.9,8.3h0.4c9.3-0.1,18.3-3,25.9-8.3c2.1-1.4,4-3.1,5.8-4.9c0.9-1,2-1.9,3.1-2.7c9.1-6.2,24-3,33.9,7.2
			c8.1,8.3,11.3,19.6,12.6,27.6C299.2,167.7,298.6,178.6,296,187.4L296,187.4z"/>
		<path class="st1" d="M249.8,172h-18.7v-18.7c0-2.1-1.7-3.8-3.8-3.8h-22.5c-2.1,0-3.8,1.7-3.8,3.8V172h-18.7
			c-2.1,0-3.8,1.7-3.8,3.8v22.5c0,2.1,1.7,3.8,3.8,3.8l0,0h18.7v18.7c0,2.1,1.7,3.8,3.8,3.8h22.5c2.1,0,3.8-1.7,3.8-3.8v-18.7h18.7
			c2.1,0,3.8-1.7,3.8-3.8v-22.5C253.5,173.6,251.9,172,249.8,172z M246,194.4h-18.7c-2.1,0-3.8,1.7-3.8,3.8v18.7h-15v-18.7
			c0-2.1-1.7-3.8-3.8-3.8h-18.7v-15h18.7c2.1,0,3.8-1.7,3.8-3.8V157h15v18.7c0,2.1,1.7,3.8,3.8,3.8H246V194.4z"/>
	</g>
</g>
</svg>
