<?xml version="1.0" encoding="utf-8"?>
<!-- Generator: Adobe Illustrator 24.0.0, SVG Export Plug-In . SVG Version: 6.00 Build 0)  -->
<svg version="1.1" id="Capa_1" xmlns="http://www.w3.org/2000/svg" xmlns:xlink="http://www.w3.org/1999/xlink" x="0px" y="0px"
	 viewBox="0 0 432.1 496" style="enable-background:new 0 0 432.1 496;" xml:space="preserve">
<style type="text/css">
	.st0{fill:#EC7D30;}
	.st1{fill:#FFFFFF;}
	.st2{fill:#929292;}
	.st3{fill:#D32F2F;}
	.st4{fill:#4CAF50;}
</style>
<g>
	<g>
		<path class="st0" d="M427.9,205.5C423.3,118.7,361.6,40,278.8,13.8c-87.5-27.6-187,8.4-238.4,84.1c-52.8,77.8-44.5,182,1.3,260.8
			c25,43.2,61.5,80.1,105,104.8c11.4,6.4,23.2,12.2,35.3,17.3c11.8,5.1,24.4,11.8,37.6,10.5c12.7-1.2,25.5-8.1,36.9-13.3
			c10.8-4.8,21.4-10.2,31.6-16.3c75.9-45.3,128.7-126.2,138.4-214.1C428,233.7,428.5,219.5,427.9,205.5z"/>
		<path class="st1" d="M216.2,495.3c-11.2,0-21.8-4.7-31.3-9c-1.5-0.7-3-1.4-4.5-2c-12-5.1-24-11-35.6-17.5
			C101,442.1,64.2,405.4,38.3,360.6C14.5,319.7,1.3,273.8,0.1,228c-1.3-49,11.5-94.8,37-132.3C62.6,58.2,100.8,29,144.8,13.4
			C189-2.3,237-3.5,280,10c84.7,26.8,147.1,107.1,151.8,195.2l0,0c0.6,14.3,0.1,28.6-1.5,42.7c-4.8,43.6-20.4,86.8-45,124.7
			c-24.5,37.8-57.4,69.7-95.3,92.3c-9.9,5.9-20.7,11.5-32,16.5c-1.6,0.8-3.4,1.6-5.1,2.4c-10.1,4.8-21.6,10.1-33.1,11.2
			C218.6,495.3,217.4,495.3,216.2,495.3z M218.6,8.5C150.6,8.5,82.9,42.4,43.6,100c-48.3,71.1-47.8,171.9,1.4,256.7
			c25.2,43.5,61,79.3,103.5,103.3c11.3,6.3,23.1,12.1,34.8,17.1c1.6,0.7,3.1,1.4,4.7,2.1c10.1,4.5,20.5,9.2,31,8.2
			c10.1-0.9,20.5-5.8,30.5-10.5c1.8-0.8,3.5-1.6,5.2-2.4c11.1-5,21.6-10.4,31.2-16.1c74.7-44.6,127-125.5,136.5-211.1
			c1.5-13.7,2-27.7,1.5-41.5c-4.5-84.9-64.7-162.3-146.3-188.1C258.4,11.4,238.5,8.5,218.6,8.5z"/>
	</g>
	<path class="st1" d="M110,118.7c45.4-51.9,127.1-61.4,184.2-23.6c56,37,77.7,111.9,51.1,173.3c-12.6,28.8-34.2,52.6-61.6,68
		c-13.3,7.4-27.7,12.6-42.6,15.3c-8.7,1.7-17.6,2.5-26.4,2.3c-7.4-0.2-21.6-4.7-28.2,0.2c-5.6,4.2-2.2,11.4-0.8,16.7
		c2.1,8,2.6,16.5-0.2,24.4c-4.6,13.3-19.2,23.3-33.3,23.2c-25-0.3-38.2-31.7-46.2-51C74.5,290.7,52.1,188.5,110,118.7z"/>
	<g>
		<path class="st0" d="M189.1,110.2c0-8-4-15.9-10.6-20.3c-3.2-2.2-7.6-1.3-9.7,1.9c-2.2,3.2-1.3,7.6,1.9,9.7l0,0
			c2.8,2,4.4,5.2,4.4,8.7c0,3.3-1.6,6.4-4.4,8.2c-11,7.3-13.9,22.1-6.6,33.1c1.7,2.6,4,4.9,6.6,6.6c3.2,2.2,7.6,1.3,9.7-1.9
			c2.2-3.2,1.3-7.6-1.9-9.7c-4.5-3-5.7-9.1-2.7-13.7c0.7-1.1,1.6-2,2.7-2.7C185.1,125.6,189.1,118.2,189.1,110.2z"/>
		<path class="st0" d="M224.2,110.2c0-8-4-15.9-10.6-20.3c-3.2-2.1-7.6-1.3-9.7,1.9c-2.1,3.2-1.3,7.6,1.9,9.7l0,0
			c2.8,2,4.4,5.2,4.4,8.7c0,3.3-1.6,6.4-4.4,8.2c-11,7.3-13.9,22.1-6.6,33.1c1.7,2.6,4,4.9,6.6,6.6c3.2,2.2,7.6,1.3,9.7-1.9
			c2.2-3.2,1.3-7.6-1.9-9.7c-4.5-3-5.7-9.1-2.7-13.7c0.7-1.1,1.6-2,2.7-2.7C220.2,125.6,224.2,118.2,224.2,110.2z"/>
		<path class="st0" d="M259.2,110.2c0-8-4-15.9-10.6-20.3c-3.2-2.1-7.6-1.3-9.7,1.9c-2.1,3.2-1.3,7.6,1.9,9.7c2.8,2,4.4,5.2,4.4,8.7
			c0,3.3-1.6,6.4-4.4,8.2c-11,7.3-13.9,22.1-6.6,33.1c1.7,2.6,4,4.9,6.6,6.6c3.2,2.2,7.6,1.3,9.7-1.9c2.2-3.2,1.3-7.6-1.9-9.7l0,0
			c-4.5-3-5.7-9.1-2.7-13.7c0.7-1.1,1.6-2,2.7-2.7C255.3,125.6,259.2,118.2,259.2,110.2z"/>
		<path class="st0" d="M290.3,239.4l-19,28.5c-2.1,3.2-6.5,4.1-9.7,2c-3.2-2.1-4.1-6.5-2-9.7l0,0l16.3-24.5
			c-7.1-1.6-14.7-2.9-22.6-3.9l-24.1,36.2c-2.1,3.2-6.5,4.1-9.7,1.9c-3.2-2.1-4.1-6.5-1.9-9.7l20-30c-8.1-0.6-16.3-1-24.5-1.1
			l-26,38.9c-2.1,3.2-6.5,4.1-9.7,1.9s-4.1-6.5-1.9-9.7l20.6-30.9c-9,0.3-17.9,1-26.6,2L145,267.9c-2.1,3.2-6.5,4.1-9.7,1.9
			s-4.1-6.5-1.9-9.7l17.4-26.1c-34.6,6.4-61.1,18.8-61.1,37c0,27.6,60.5,42.6,119.7,42.6S329,298.7,329,271
			C329,257.1,313.1,246.5,290.3,239.4z"/>
		<path class="st0" d="M290.3,183.3l-19,28.5c-2.1,3.2-6.5,4.1-9.7,2c-3.2-2.1-4.1-6.5-2-9.7l0,0l16.3-24.5
			c-7.1-1.6-14.7-2.9-22.6-3.9l-24.2,36.2c-2,3.3-6.3,4.4-9.6,2.3c-3.3-2-4.4-6.3-2.3-9.6c0.1-0.2,0.2-0.3,0.3-0.5l20-30
			c-8.1-0.6-16.3-1-24.5-1.1l-25.9,38.9c-2.1,3.2-6.5,4.1-9.7,2c-3.2-2.1-4.1-6.5-2-9.7l20.6-30.9c-9,0.3-17.9,1-26.6,2L145,211.8
			c-2.3,3.1-6.7,3.8-9.8,1.5c-2.9-2.1-3.8-6.2-1.9-9.3l17.4-26.1c-34.6,6.4-61.1,18.8-61.1,37c0,8.1,5,14.7,12.5,19.9
			c26.5-14.2,69.1-19.9,107.3-19.9s80.7,5.7,107.1,19.8c8.2-5.8,12.6-12.5,12.6-19.8C329,200.9,313.1,190.3,290.3,183.3z"/>
	</g>
</g>
</svg>
