<?xml version="1.0" encoding="utf-8"?>
<!-- Generator: Adobe Illustrator 24.0.0, SVG Export Plug-In . SVG Version: 6.00 Build 0)  -->
<svg version="1.1" id="Capa_1" xmlns="http://www.w3.org/2000/svg" xmlns:xlink="http://www.w3.org/1999/xlink" x="0px" y="0px"
	 viewBox="0 0 432.1 496" style="enable-background:new 0 0 432.1 496;" xml:space="preserve">
<style type="text/css">
	.st0{fill:#134D9D;}
	.st1{fill:#FFFFFF;}
	.st2{fill:#929292;}
	.st3{fill:#D32F2F;}
	.st4{fill:#4CAF50;}
</style>
<g>
	<g>
		<g>
			<g>
				<g>
					<g>
						<g>
							<g>
								<g>
									<g>
										<g>
											<g>
												<g>
													<g>
														<path class="st0" d="M398.9,225.8c-4.3-80.9-61.8-154.3-139-178.7C178.3,21.3,85.6,55,37.6,125.5
															C-11.6,198-3.9,295.1,38.8,368.6c23.3,40.3,57.3,74.7,97.9,97.7c10.6,6,21.6,11.4,32.9,16.1c11,4.8,22.7,11,35.1,9.8
															c11.8-1.1,23.8-7.5,34.4-12.4c10.1-4.5,20-9.5,29.5-15.2c70.8-42.2,119.9-117.6,129-199.6
															C399,252.1,399.5,238.9,398.9,225.8z"/>
														<path class="st1" d="M201.5,496c-10.5,0-20.4-4.4-29.2-8.4c-1.4-0.6-2.8-1.3-4.2-1.9c-11.2-4.7-22.4-10.2-33.2-16.3
															c-40.8-23.1-75.1-57.3-99.2-99C13.5,332.3,1.2,289.5,0.1,246.7c-1.2-45.7,10.7-88.3,34.5-123.4
															C58.3,88.5,94,61.3,134.9,46.7C176.2,32,221,30.9,261,43.6c79,25,137.2,99.8,141.5,182l0,0
															c0.7,13.3,0.2,26.7-1.4,39.9c-4.5,40.6-19,80.8-41.9,116.2c-22.8,35.2-53.6,65-88.8,86c-9.2,5.5-19.3,10.7-29.9,15.4
															c-1.5,0.7-3.1,1.5-4.8,2.2c-9.4,4.4-20.1,9.5-30.8,10.4C203.8,495.9,202.6,496,201.5,496z M203.6,42.2
															c-63.3,0-126.4,31.5-163,85.3c-45,66.3-44.5,160.2,1.3,239.2c23.5,40.6,56.9,73.9,96.5,96.3
															C149,469,160,474.4,171,479c1.5,0.6,2.9,1.3,4.3,1.9c9.4,4.2,19.1,8.5,28.9,7.6c9.4-0.9,19.1-5.4,28.4-9.8
															c1.6-0.8,3.3-1.5,4.9-2.3c10.4-4.6,20.2-9.7,29.1-15c69.6-41.5,118.4-117,127.2-196.8c1.5-12.8,2-25.8,1.4-38.7
															C391,146.8,334.9,74.7,258.8,50.6C240.8,44.9,222.2,42.2,203.6,42.2z"/>
													</g>
													<g>
														<path class="st1" d="M103.9,147.4c42.3-48.3,118.5-57.2,171.7-22c52.2,34.5,72.4,104.3,47.6,161.6
															c-11.7,26.8-31.9,49.1-57.4,63.4c-12.4,6.9-25.8,11.7-39.7,14.3c-8.1,1.6-16.4,2.3-24.6,2.1
															c-6.9-0.2-20.1-4.4-26.3,0.2c-5.2,3.9-2,10.6-0.7,15.6c1.9,7.4,2.4,15.4-0.2,22.7c-4.3,12.4-17.9,21.7-31,21.6
															c-23.3-0.3-35.6-29.6-43-47.5C70.8,307.8,49.9,212.5,103.9,147.4z"/>
													</g>
												</g>
											</g>
										</g>
									</g>
								</g>
							</g>
						</g>
					</g>
				</g>
			</g>
		</g>
	</g>
	<g>
		<g>
			<path class="st0" d="M191,149.6c-2.2-2.4-5.9-2.5-8.2-0.3c-0.6,0.5-1,1.2-1.3,1.9l-52.6,114.2c-2.4-0.7-4.9-1-7.3-1
				c-16.1,0-29.2,13.1-29.2,29.2s13.1,29.2,29.2,29.2s29.2-13.1,29.2-29.2c0-4.6-1.2-9.2-3.3-13.3L194.8,176
				C199.2,167.3,197.6,156.7,191,149.6z M121.5,311c-9.7,0-17.5-7.8-17.5-17.5c0-9.7,7.8-17.5,17.5-17.5s17.5,7.8,17.5,17.5l0,0
				C139,303.2,131.1,311,121.5,311z"/>
			<path class="st0" d="M191.4,264.4c-2.5,0-4.9,0.4-7.3,1l-8.7-18.8l-12.6,27.6l2.8,6.1c-2.2,4.1-3.3,8.6-3.3,13.3
				c0,16.1,13.1,29.2,29.2,29.2s29.2-13.1,29.2-29.2S207.5,264.4,191.4,264.4L191.4,264.4L191.4,264.4z M191.4,311
				c-9.7,0-17.5-7.8-17.5-17.5c0-9.7,7.8-17.5,17.5-17.5s17.5,7.8,17.5,17.5l0,0C208.9,303.2,201.1,311,191.4,311z"/>
			<path class="st0" d="M273.8,147.8h-35.8c-3.2,0-5.8,2.6-5.8,5.8c0,3.2,2.6,5.8,5.8,5.8h18.3v11.7h-18.3c-3.2,0-5.8,2.6-5.8,5.8
				c0,3.2,2.6,5.8,5.8,5.8h18.3v11.7h-18.3c-3.2,0-5.8,2.6-5.8,5.8c0,3.2,2.6,5.8,5.8,5.8h18.3v11.7h-18.3c-3.2,0-5.8,2.6-5.8,5.8
				c0,3.2,2.6,5.8,5.8,5.8h18.3v11.7h-18.3c-3.2,0-5.8,2.6-5.8,5.8c0,3.2,2.6,5.8,5.8,5.8h18.3v11.7h-18.3c-3.2,0-5.8,2.6-5.8,5.8
				c0,3.2,2.6,5.8,5.8,5.8h18.3v11.7h-18.3c-3.2,0-5.8,2.6-5.8,5.8s2.6,5.8,5.8,5.8h18.3V311h-18.3c-3.2,0-5.8,2.6-5.8,5.8
				c0,3.2,2.6,5.8,5.8,5.8h35.8c9.7,0,17.5-7.8,17.5-17.5V165.3C291.3,155.6,283.5,147.8,273.8,147.8z"/>
			<path class="st0" d="M131.5,151.2c-1.3-2.9-4.8-4.2-7.7-2.9c-0.7,0.3-1.3,0.8-1.9,1.3c-6.7,7.1-8.2,17.6-3.8,26.4l19.4,42.6
				l12.5-27.2L131.5,151.2z"/>
		</g>
	</g>
</g>
<g>
	<g>
		<path class="st2" d="M355.5,149.3c-40,0-72.6-32.5-72.6-72.5S315.4,3.9,355.6,4c40.1,0.1,72.5,32.7,72.5,72.6
			C428,116.8,395.5,149.3,355.5,149.3z"/>
		<path class="st1" d="M355.5,153.3c-42.3,0-76.6-34.3-76.6-76.5c0-20.5,8-39.8,22.6-54.4C315.9,7.9,335.1,0,355.4,0
			c0.1,0,0.1,0,0.2,0c42.2,0.1,76.5,34.5,76.5,76.6C432,118.9,397.6,153.3,355.5,153.3z M355.4,8c-18.2,0-35.3,7.1-48.3,20
			c-13.1,13-20.3,30.3-20.3,48.7c0,37.8,30.8,68.5,68.6,68.5c37.7,0,68.5-30.8,68.6-68.7c0-37.7-30.8-68.5-68.5-68.6
			C355.5,8,355.4,8,355.4,8z"/>
	</g>
</g>
<g>
	<path class="st1" d="M355.8,106.9C355.7,106.9,355.7,106.9,355.8,106.9c-2.6,0-5.1,1-6.9,2.8c-3.7,3.7-3.7,9.9,0.1,13.6l0,0
		c1.8,1.8,4.2,2.7,6.7,2.7l0,0c5.3,0,9.7-4.3,9.7-9.7c0-2.6-1-5-2.8-6.8C360.7,107.9,358.3,106.9,355.8,106.9z"/>
	<path class="st1" d="M386.3,57c0.2-8.1-3.1-15.8-9.1-21.2c-6-5.7-13.9-8.6-22-8.5c-8.5-0.2-16.8,3.1-22.7,9
		c-3.9,3.7-6.5,8.4-7.7,13.6c-0.6,2.3,0,4.5,1.4,6.2c1.4,1.8,3.5,2.7,5.7,2.7c3.4,0,6.2-2.3,7-5.5c0.7-2.7,2-5.3,4.1-7.4
		c3.2-3.3,7.7-5.1,12.3-4.9c4.4-0.1,8.7,1.4,12.2,4.3c3.2,2.8,5,6.9,4.8,11.2c0.1,2.6-0.5,5.3-1.6,7.7c-0.9,1.9-2.5,3.5-4.4,4.5
		l-5.8,3.2c-2,1.2-4.1,2.4-5.9,3.6c-2,1.6-3.7,3.6-4.7,6c-1.4,3.4-1.9,6.9-1.8,10.6V93c0,4.1,3.4,7.5,7.5,7.5s7.5-3.4,7.5-7.5v-1.6
		c-0.1-2.2,0.8-4.4,2.3-6c1.7-1.7,3.5-3.2,5.7-4.2c2.4-1.2,4.8-2.7,7-4.2c2.6-2,4.7-4.7,6-7.6C385.7,65.6,386.4,61.3,386.3,57z"/>
</g>
</svg>
