<?xml version="1.0" encoding="utf-8"?>
<!-- Generator: Adobe Illustrator 24.0.0, SVG Export Plug-In . SVG Version: 6.00 Build 0)  -->
<svg version="1.1" id="Capa_1" xmlns="http://www.w3.org/2000/svg" xmlns:xlink="http://www.w3.org/1999/xlink" x="0px" y="0px"
	 viewBox="0 0 432.1 496" style="enable-background:new 0 0 432.1 496;" xml:space="preserve">
<style type="text/css">
	.st0{fill:#5C8CC9;}
	.st1{fill:#FFFFFF;}
</style>
<g>
	<g>
		<g>
			<path class="st0" d="M427.9,205.5C423.3,118.7,361.6,40,278.8,13.8c-87.5-27.6-187,8.4-238.4,84.1c-52.8,77.8-44.5,182,1.3,260.8
				c25,43.2,61.5,80.1,105,104.8c11.4,6.4,23.2,12.2,35.3,17.3c11.8,5.1,24.4,11.8,37.6,10.5c12.7-1.2,25.5-8.1,36.9-13.3
				c10.8-4.8,21.4-10.2,31.6-16.3c75.9-45.3,128.7-126.2,138.4-214.1C428,233.7,428.5,219.5,427.9,205.5z"/>
			<path class="st1" d="M216.2,495.3c-11.2,0-21.8-4.7-31.3-9c-1.5-0.7-3-1.4-4.5-2c-12-5.1-24-11-35.6-17.5
				C101,442.1,64.2,405.4,38.3,360.6C14.5,319.7,1.3,273.8,0.1,228c-1.3-49,11.5-94.8,37-132.3S100.8,29,144.8,13.4
				C189-2.3,237-3.5,280,10c84.7,26.8,147.1,107.1,151.8,195.2l0,0c0.6,14.3,0.1,28.6-1.5,42.7c-4.8,43.6-20.4,86.8-45,124.7
				c-24.5,37.8-57.4,69.7-95.3,92.3c-9.9,5.9-20.7,11.5-32,16.5c-1.6,0.8-3.4,1.6-5.1,2.4c-10.1,4.8-21.6,10.1-33.1,11.2
				C218.6,495.3,217.4,495.3,216.2,495.3z M218.6,8.5c-68,0-135.7,33.9-175,91.5C-4.7,171.1-4.2,271.9,45,356.7
				C70.2,400.2,106,436,148.5,460c11.3,6.3,23.1,12.1,34.8,17.1c1.6,0.7,3.1,1.4,4.7,2.1c10.1,4.5,20.5,9.2,31,8.2
				c10.1-0.9,20.5-5.8,30.5-10.5c1.8-0.8,3.5-1.6,5.2-2.4c11.1-5,21.6-10.4,31.2-16.1c74.7-44.6,127-125.5,136.5-211.1
				c1.5-13.7,2-27.7,1.5-41.5c-4.5-84.9-64.7-162.3-146.3-188.1C258.4,11.4,238.5,8.5,218.6,8.5z"/>
		</g>
		<path class="st1" d="M110,118.7c45.4-51.9,127.1-61.4,184.2-23.6c56,37,77.7,111.9,51.1,173.3c-12.6,28.8-34.2,52.6-61.6,68
			c-13.3,7.4-27.7,12.6-42.6,15.3c-8.7,1.7-17.6,2.5-26.4,2.3c-7.4-0.2-21.6-4.7-28.2,0.2c-5.6,4.2-2.2,11.4-0.8,16.7
			c2.1,8,2.6,16.5-0.2,24.4c-4.6,13.3-19.2,23.3-33.3,23.2c-25-0.3-38.2-31.7-46.2-51C74.5,290.7,52.1,188.5,110,118.7z"/>
	</g>
</g>
<path d="M198.3,163.2L198.3,163.2C198.1,163.4,197.8,163.9,198.3,163.2z"/>
<path class="st0" d="M214.2,120.8c-18.6,0-36.8,5.6-52.1,16.2v-2.1l6.5-32.1c0.7-3.5,3.8-6,7.4-6h76.4c3.6,0,6.7,2.5,7.4,6l6.5,32.1
	v2.1C251,126.4,232.8,120.7,214.2,120.8z M176,329h76.4c3.6,0,6.7-2.5,7.4-6l6.5-32.1v-2.1c-31.4,21.6-72.9,21.6-104.3,0v2.1
	l6.5,32.1C169.3,326.5,172.4,329,176,329z M296,212.9c0,45.2-36.6,81.8-81.8,81.8s-81.8-36.6-81.8-81.8s36.6-81.8,81.8-81.8
	C259.4,131.1,296,167.7,296,212.9z M271,205.1H222v-49.1c0-4.3-3.5-7.7-7.7-7.7c-4.3,0-7.7,3.5-7.7,7.7v56.8c0,4.3,3.5,7.7,7.7,7.7
	H271c4.3,0,7.7-3.5,7.7-7.7S275.3,205.1,271,205.1z"/>
</svg>
