<?xml version="1.0" encoding="utf-8"?>
<!-- Generator: Adobe Illustrator 24.0.0, SVG Export Plug-In . SVG Version: 6.00 Build 0)  -->
<svg version="1.1" id="Capa_1" xmlns="http://www.w3.org/2000/svg" xmlns:xlink="http://www.w3.org/1999/xlink" x="0px" y="0px"
	 viewBox="0 0 432.1 496" style="enable-background:new 0 0 432.1 496;" xml:space="preserve">
<style type="text/css">
	.st0{fill:#2E9A37;}
	.st1{fill:#FFFFFF;}
</style>
<g>
	<g>
		<g>
			<g>
				<path class="st0" d="M427.9,205.5C423.3,118.7,361.6,40,278.8,13.8c-87.5-27.6-187,8.4-238.4,84.1
					c-52.8,77.8-44.5,182,1.3,260.8c25,43.2,61.5,80.1,105,104.8c11.4,6.4,23.2,12.2,35.3,17.3c11.8,5.1,24.4,11.8,37.6,10.5
					c12.7-1.2,25.5-8.1,36.9-13.3c10.8-4.8,21.4-10.2,31.6-16.3c75.9-45.3,128.7-126.2,138.4-214.1
					C428,233.7,428.5,219.5,427.9,205.5z"/>
				<path class="st1" d="M216.2,495.3c-11.2,0-21.8-4.7-31.3-9c-1.5-0.7-3-1.4-4.5-2c-12-5.1-24-11-35.6-17.5
					C101,442.1,64.2,405.4,38.3,360.6C14.5,319.7,1.3,273.8,0.1,228c-1.3-49,11.5-94.8,37-132.3S100.8,29,144.8,13.4
					C189-2.3,237-3.5,280,10c84.7,26.8,147.1,107.1,151.8,195.2l0,0c0.6,14.3,0.1,28.6-1.5,42.7c-4.8,43.6-20.4,86.8-45,124.7
					c-24.5,37.8-57.4,69.7-95.3,92.3c-9.9,5.9-20.7,11.5-32,16.5c-1.6,0.8-3.4,1.6-5.1,2.4c-10.1,4.8-21.6,10.1-33.1,11.2
					C218.6,495.3,217.4,495.3,216.2,495.3z M218.6,8.5c-68,0-135.7,33.9-175,91.5C-4.7,171.1-4.2,271.9,45,356.7
					C70.2,400.2,106,436,148.5,460c11.3,6.3,23.1,12.1,34.8,17.1c1.6,0.7,3.1,1.4,4.7,2.1c10.1,4.5,20.5,9.2,31,8.2
					c10.1-0.9,20.5-5.8,30.5-10.5c1.8-0.8,3.5-1.6,5.2-2.4c11.1-5,21.6-10.4,31.2-16.1c74.7-44.6,127-125.5,136.5-211.1
					c1.5-13.7,2-27.7,1.5-41.5c-4.5-84.9-64.7-162.3-146.3-188.1C258.4,11.4,238.5,8.5,218.6,8.5z"/>
			</g>
			<path class="st1" d="M110,118.7c45.4-51.9,127.1-61.4,184.2-23.6c56,37,77.7,111.9,51.1,173.3c-12.6,28.8-34.2,52.6-61.6,68
				c-13.3,7.4-27.7,12.6-42.6,15.3c-8.7,1.7-17.6,2.5-26.4,2.3c-7.4-0.2-21.6-4.7-28.2,0.2c-5.6,4.2-2.2,11.4-0.8,16.7
				c2.1,8,2.6,16.5-0.2,24.4c-4.6,13.3-19.2,23.3-33.3,23.2c-25-0.3-38.2-31.7-46.2-51C74.5,290.7,52.1,188.5,110,118.7z"/>
		</g>
	</g>
</g>
<g>
	<g>
		<g>
			<path class="st0" d="M220.9,215.5c0-30.1-5.4-58.2-15.1-79.3c-9-19.5-20.9-30.6-32.7-30.6s-23.7,11.2-32.7,30.6
				c-9.7,21.1-15.1,49.3-15.1,79.3s5.4,58.2,15.1,79.3c9,19.5,20.9,30.6,32.7,30.6c0.2,0,0.5,0,0.7,0c0.4-0.1,0.7-0.1,1.1-0.1h0.4
				c11.1-1.3,22.1-12.3,30.5-30.5C215.5,273.8,220.9,245.6,220.9,215.5z M194.6,256.4L194.6,256.4c-6.3,16.2-15.2,19.6-21.5,19.6
				s-15.3-3.4-21.5-19.6c-4.1-10.5-6.3-25-6.3-40.8s2.2-30.3,6.3-40.8c6.3-16.2,15.2-19.6,21.5-19.6s15.3,3.4,21.5,19.6
				c4.1,10.5,6.3,25,6.3,40.8S198.7,245.8,194.6,256.4z"/>
			<path class="st0" d="M227.4,306.5c0.5-2.9,1-6.2,2.7-9.2c1.5-2.8,3.9-4.8,6-6.6c1.8-1.5,3.7-3.1,4.2-4.6c0.4-1.1,0.2-3.3,0-5.5
				c-0.3-3-0.7-6.5,0.3-9.9c0.9-3.2,3-5.9,4.8-8.2c1.4-1.8,2.9-3.7,3.2-5.1c0.2-1.2-0.3-3.4-0.9-5.5c-0.8-3-1.7-6.3-1.3-9.9
				c0.4-3.4,2.1-6.4,3.6-9c1.1-2,2.3-4,2.4-5.4c0.1-1.3-0.8-3.4-1.6-5.4c-1.2-2.8-2.5-6.1-2.5-9.7c0-3.6,1.3-6.8,2.5-9.7
				c0.8-2,1.7-4.1,1.6-5.4c-0.1-1.4-1.2-3.5-2.4-5.4c-1.5-2.6-3.2-5.5-3.6-9c-0.5-3.6,0.5-6.9,1.3-9.9c0.6-2.1,1.2-4.2,0.9-5.5
				c-0.3-1.5-1.7-3.3-3.2-5.1c-1.8-2.3-3.8-4.9-4.8-8.2c-1-3.5-0.6-6.9-0.3-9.9c0.2-2.1,0.5-4.4,0-5.5c-0.6-1.5-2.4-3.1-4.2-4.6
				c-2.1-1.8-4.5-3.8-6-6.6c-1.7-3-2.2-6.3-2.7-9.2c-0.3-2-0.7-4.4-1.4-5.2c-2-2.4-6-4.6-9.3-6.4c-0.9-0.5-1.8-1-2.6-1.4l-16.2-0.1
				c20.2,18.9,33.8,60.5,33.8,109.9c0,49.3-13.6,90.8-33.7,109.8l7.8,0c0.4-0.5,0.7-1,1.1-1.6c1.7-2.5,3.5-5.1,6-6.6
				c2.1-1.2,4.4-2.1,6.8-2.7c2.6-0.7,5-1.5,6.1-2.8C226.6,310.8,227,308.5,227.4,306.5z"/>
			<path class="st0" d="M173.1,166c-8.3,0-16.9,18.5-16.9,49.5s8.6,49.5,16.9,49.5s16.9-18.5,16.9-49.5S181.4,166,173.1,166z"/>
			<path class="st0" d="M251,306.5c0.5-2.9,1-6.2,2.7-9.2c1.5-2.8,3.9-4.8,6-6.6c1.8-1.5,3.7-3.1,4.2-4.6c0.4-1.1,0.2-3.3,0-5.5
				c-0.3-3-0.7-6.5,0.3-9.9c0.9-3.2,3-5.9,4.8-8.2c1.4-1.8,2.9-3.7,3.2-5.1c0.2-1.2-0.3-3.4-0.9-5.5c-0.8-3-1.7-6.3-1.3-9.9
				c0.4-3.4,2.1-6.4,3.6-9c1.1-2,2.3-4,2.4-5.4c0.1-1.3-0.8-3.4-1.6-5.4c-1.2-2.8-2.5-6.1-2.5-9.7c0-3.6,1.3-6.8,2.5-9.7
				c0.8-2,1.7-4.1,1.6-5.4c-0.1-1.4-1.2-3.5-2.4-5.4c-1.5-2.6-3.2-5.5-3.6-9c-0.5-3.6,0.5-6.9,1.3-9.9c0.6-2.1,1.2-4.2,0.9-5.5
				c-0.3-1.5-1.7-3.3-3.2-5.1c-1.8-2.3-3.8-4.9-4.8-8.2c-1-3.5-0.6-6.9-0.3-9.9c0.2-2.1,0.5-4.4,0-5.5c-0.6-1.5-2.4-3.1-4.2-4.6
				c-2.1-1.8-4.5-3.8-6-6.6c-1.7-3-2.2-6.3-2.7-9.2c-0.3-2-0.7-4.4-1.4-5.2c-2-2.4-6-4.6-9.3-6.4c-0.8-0.5-1.6-0.9-2.4-1.3l-4.2,0
				c0.2,0.2,0.4,0.5,0.6,0.7c2.6,3.1,3.2,6.9,3.8,10.3c0.4,2.2,0.7,4.3,1.5,5.7c0.6,1,2.1,2.3,3.6,3.6c2.6,2.2,5.7,4.9,7.3,8.9
				c1.4,3.6,1,7.3,0.7,10.6c-0.2,2.3-0.5,4.4,0,5.8c0.3,1.2,1.6,2.8,2.9,4.4c2.1,2.7,4.5,5.7,5.2,9.7c0.7,3.7-0.2,7.3-1.1,10.5
				c-0.6,2.1-1.2,4.2-1,5.7c0.2,1.3,1.2,3.1,2.2,4.9c1.7,2.9,3.5,6.2,3.8,10.2c0.2,3.8-1.2,7.2-2.5,10.2c-0.8,2-1.7,4-1.7,5.5
				s0.9,3.5,1.7,5.5c1.3,3,2.7,6.4,2.5,10.2c-0.2,4-2.1,7.3-3.8,10.2c-1,1.8-2.1,3.6-2.2,4.9c-0.2,1.4,0.4,3.6,1,5.7
				c0.9,3.2,1.8,6.7,1.1,10.5c-0.8,4-3.2,7-5.2,9.7c-1.2,1.6-2.5,3.2-2.9,4.4c-0.4,1.5-0.2,3.6,0,5.8c0.3,3.3,0.7,7-0.7,10.6
				c-1.6,4-4.8,6.7-7.3,8.9c-1.5,1.3-3,2.6-3.6,3.6c-0.8,1.4-1.1,3.5-1.5,5.7c-0.6,3.4-1.2,7.3-3.8,10.3c-3.2,3.9-7.8,5.2-11.5,6.3
				c-0.4,0.1-0.8,0.2-1.1,0.3l8,0c0.4-0.5,0.8-1.1,1.1-1.6c1.7-2.5,3.4-5,5.9-6.5c2.1-1.2,4.4-2.1,6.8-2.7c2.6-0.7,5-1.5,6.1-2.8
				C250.3,310.8,250.7,308.5,251,306.5z"/>
			<path class="st0" d="M285.5,136.4c-7.6-16.6-17.4-27.1-27.5-29.8c2.5,3.1,3.2,6.9,3.7,10.3c0.4,2.2,0.7,4.3,1.5,5.7
				c0.6,1,2.1,2.3,3.6,3.6c2.6,2.2,5.7,4.9,7.3,8.9c1.4,3.6,1,7.3,0.7,10.6c-0.2,2.3-0.5,4.4,0,5.8c0.3,1.2,1.6,2.8,2.9,4.4
				c2.1,2.7,4.5,5.7,5.2,9.7c0.7,3.7-0.2,7.3-1.1,10.5c-0.6,2.1-1.2,4.2-1,5.7c0.2,1.3,1.2,3.1,2.2,4.9c1.7,2.9,3.5,6.2,3.8,10.2
				c0.2,3.8-1.2,7.2-2.5,10.2c-0.8,2-1.7,4-1.7,5.5s0.9,3.5,1.7,5.5c1.3,3,2.7,6.4,2.5,10.2c-0.2,4-2.1,7.3-3.8,10.2
				c-1,1.8-2.1,3.6-2.2,4.9c-0.2,1.4,0.4,3.6,1,5.7c0.9,3.2,1.8,6.7,1.1,10.5c-0.8,4-3.2,7-5.2,9.7c-1.2,1.6-2.5,3.2-2.9,4.4
				c-0.4,1.5-0.2,3.6,0,5.8c0.3,3.3,0.7,7-0.7,10.6c-1.6,4-4.8,6.7-7.3,8.9c-1.5,1.3-3,2.6-3.6,3.6c-0.8,1.4-1.1,3.5-1.5,5.7
				c-0.6,3.4-1.2,7.3-3.8,10.3c-3.2,3.9-7.8,5.2-11.5,6.3c-0.3,0.1-0.6,0.2-0.9,0.3l6.8,0c11.9,0,23.8-11.1,32.9-30.5
				c9.8-21,15.2-49.1,15.2-79.1C300.5,185.5,295.2,157.3,285.5,136.4z"/>
		</g>
	</g>
</g>
</svg>
