<?xml version="1.0" encoding="utf-8"?>
<!-- Generator: Adobe Illustrator 24.0.0, SVG Export Plug-In . SVG Version: 6.00 Build 0)  -->
<svg version="1.1" id="Capa_1" xmlns="http://www.w3.org/2000/svg" xmlns:xlink="http://www.w3.org/1999/xlink" x="0px" y="0px"
	 viewBox="0 0 432.1 496" style="enable-background:new 0 0 432.1 496;" xml:space="preserve">
<style type="text/css">
	.st0{fill:#2E9A37;}
	.st1{fill:#FFFFFF;}
	.st2{fill:#929292;}
	.st3{fill:#D32F2F;}
	.st4{fill:#4CAF50;}
</style>
<g>
	<g>
		<g>
			<g>
				<g>
					<g>
						<g>
							<path class="st0" d="M427.9,205.5C423.3,118.7,361.6,40,278.8,13.8c-87.5-27.6-187,8.4-238.4,84.1
								c-52.8,77.8-44.5,182,1.3,260.8c25,43.2,61.5,80.1,105,104.8c11.4,6.4,23.2,12.2,35.3,17.3c11.8,5.1,24.4,11.8,37.6,10.5
								c12.7-1.2,25.5-8.1,36.9-13.3c10.8-4.8,21.4-10.2,31.6-16.3c75.9-45.3,128.7-126.2,138.4-214.1
								C428,233.7,428.5,219.5,427.9,205.5z"/>
							<path class="st1" d="M216.2,495.3c-11.2,0-21.8-4.7-31.3-9c-1.5-0.7-3-1.4-4.5-2c-12-5.1-24-11-35.6-17.5
								C101,442.1,64.2,405.4,38.3,360.6C14.5,319.7,1.3,273.8,0.1,228c-1.3-49,11.5-94.8,37-132.3C62.6,58.2,100.8,29,144.8,13.4
								C189-2.3,237-3.5,280,10c84.7,26.8,147.1,107.1,151.8,195.2l0,0c0.6,14.3,0.1,28.6-1.5,42.7c-4.8,43.6-20.4,86.8-45,124.7
								c-24.5,37.8-57.4,69.7-95.3,92.3c-9.9,5.9-20.7,11.5-32,16.5c-1.6,0.8-3.4,1.6-5.1,2.4c-10.1,4.8-21.6,10.1-33.1,11.2
								C218.6,495.3,217.4,495.3,216.2,495.3z M218.6,8.5C150.6,8.5,82.9,42.4,43.6,100c-48.3,71.1-47.8,171.9,1.4,256.7
								c25.2,43.5,61,79.3,103.5,103.3c11.3,6.3,23.1,12.1,34.8,17.1c1.6,0.7,3.1,1.4,4.7,2.1c10.1,4.5,20.5,9.2,31,8.2
								c10.1-0.9,20.5-5.8,30.5-10.5c1.8-0.8,3.5-1.6,5.2-2.4c11.1-5,21.6-10.4,31.2-16.1c74.7-44.6,127-125.5,136.5-211.1
								c1.5-13.7,2-27.7,1.5-41.5c-4.5-84.9-64.7-162.3-146.3-188.1C258.4,11.4,238.5,8.5,218.6,8.5z"/>
						</g>
						<path class="st1" d="M110,118.7c45.4-51.9,127.1-61.4,184.2-23.6c56,37,77.7,111.9,51.1,173.3c-12.6,28.8-34.2,52.6-61.6,68
							c-13.3,7.4-27.7,12.6-42.6,15.3c-8.7,1.7-17.6,2.5-26.4,2.3c-7.4-0.2-21.6-4.7-28.2,0.2c-5.6,4.2-2.2,11.4-0.8,16.7
							c2.1,8,2.6,16.5-0.2,24.4c-4.6,13.3-19.2,23.3-33.3,23.2c-25-0.3-38.2-31.7-46.2-51C74.5,290.7,52.1,188.5,110,118.7z"/>
					</g>
				</g>
			</g>
		</g>
	</g>
	<g>
		<path class="st0" d="M265.6,237.6c-3.9,0-6.8,1-9.7,1l-28.1-28.1l23.2-23.2l30-10.6l22.3-35.8c1-1.9,1-4.8,0-5.8l-11.6-11.6
			c-1.8-1.7-4.5-2.1-6.8-1l-36.8,21.3l-11.6,31l-23.2,23.2l-26.2-28.1c0-2.9,1-5.8,1-9.7c0-25.2-24.2-43.6-48.4-37.8l14.5,14.5
			c7.7,7.7,7.7,19.4,0,27.1c-7.7,7.7-19.4,7.7-27.1,0l-15.5-13.6c-7.7,28.1,18.4,55.2,47.5,46.5l28.1,28.1l-11.6,11.6
			c-6.6-1.9-13.6-0.1-18.4,4.8l-39.7,39.7c-7.7,7.7-8.7,19.4-1.9,27.1c7.7,8.7,20.3,8.7,28.1,1l40.7-40.7c4.8-4.8,6.8-12.6,4.8-18.4
			l11.6-11.6l28.1,28.1c-1,2.9-1,6.8-1,9.7c0,25.2,24.2,43.6,48.4,37.8l-14.5-14.5c-7.7-7.7-7.7-19.4,0-27.1
			c7.7-7.7,19.4-7.7,27.1,0l14.5,14.5C310.1,261.8,290.7,237.6,265.6,237.6z"/>
	</g>
</g>
</svg>
