<?xml version="1.0" encoding="utf-8"?>
<!-- Generator: Adobe Illustrator 24.0.0, SVG Export Plug-In . SVG Version: 6.00 Build 0)  -->
<svg version="1.1" id="Capa_1" xmlns="http://www.w3.org/2000/svg" xmlns:xlink="http://www.w3.org/1999/xlink" x="0px" y="0px"
	 viewBox="0 0 432.1 496" style="enable-background:new 0 0 432.1 496;" xml:space="preserve">
<style type="text/css">
	.st0{fill:#E84335;}
	.st1{fill:#FFFFFF;}
	.st2{fill:#929292;}
	.st3{fill:#D32F2F;}
	.st4{fill:#4CAF50;}
</style>
<g>
	<g>
		<g>
			<g>
				<g>
					<g>
						<g>
							<g>
								<g>
									<g>
										<g>
											<g>
												<g>
													<g>
														<g>
															<path class="st0" d="M398.9,225.8c-4.3-80.9-61.8-154.3-139-178.7C178.3,21.3,85.6,55,37.6,125.5
																C-11.6,198-3.9,295.1,38.8,368.6c23.3,40.3,57.3,74.7,97.9,97.7c10.6,6,21.6,11.4,32.9,16.1c11,4.8,22.7,11,35.1,9.8
																c11.8-1.1,23.8-7.5,34.4-12.4c10.1-4.5,20-9.5,29.5-15.2c70.8-42.2,119.9-117.6,129-199.6
																C399,252.1,399.5,238.9,398.9,225.8z"/>
															<path class="st1" d="M201.5,496c-10.5,0-20.4-4.4-29.2-8.4c-1.4-0.6-2.8-1.3-4.2-1.9c-11.2-4.7-22.4-10.2-33.2-16.3
																c-40.8-23.1-75.1-57.3-99.2-99C13.5,332.3,1.2,289.5,0.1,246.7c-1.2-45.7,10.7-88.3,34.5-123.4
																C58.3,88.5,94,61.3,134.9,46.7C176.2,32,221,30.9,261,43.6c79,25,137.2,99.8,141.5,182l0,0
																c0.7,13.3,0.2,26.7-1.4,39.9c-4.5,40.6-19,80.8-41.9,116.2c-22.8,35.2-53.6,65-88.8,86c-9.2,5.5-19.3,10.7-29.9,15.4
																c-1.5,0.7-3.1,1.5-4.8,2.2c-9.4,4.4-20.1,9.5-30.8,10.4C203.8,495.9,202.6,496,201.5,496z M203.6,42.2
																c-63.3,0-126.4,31.5-163,85.3c-45,66.3-44.5,160.2,1.3,239.2c23.5,40.6,56.9,73.9,96.5,96.3
																C149,469,160,474.4,171,479c1.5,0.6,2.9,1.3,4.3,1.9c9.4,4.2,19.1,8.5,28.9,7.6c9.4-0.9,19.1-5.4,28.4-9.8
																c1.6-0.8,3.3-1.5,4.9-2.3c10.4-4.6,20.2-9.7,29.1-15c69.6-41.5,118.4-117,127.2-196.8c1.5-12.8,2-25.8,1.4-38.7
																C391,146.8,334.9,74.7,258.8,50.6C240.8,44.9,222.2,42.2,203.6,42.2z"/>
														</g>
														<g>
															<path class="st1" d="M103.9,147.4c42.3-48.3,118.5-57.2,171.7-22c52.2,34.5,72.4,104.3,47.6,161.6
																c-11.7,26.8-31.9,49.1-57.4,63.4c-12.4,6.9-25.8,11.7-39.7,14.3c-8.1,1.6-16.4,2.3-24.6,2.1
																c-6.9-0.2-20.1-4.4-26.3,0.2c-5.2,3.9-2,10.6-0.7,15.6c1.9,7.4,2.4,15.4-0.2,22.7c-4.3,12.4-17.9,21.7-31,21.6
																c-23.3-0.3-35.6-29.6-43-47.5C70.8,307.8,49.9,212.5,103.9,147.4z"/>
														</g>
													</g>
												</g>
											</g>
										</g>
									</g>
								</g>
							</g>
						</g>
					</g>
				</g>
			</g>
		</g>
	</g>
	<g>
		<g>
			<path class="st0" d="M228.8,325.1h-59c-3,0-5.5-2.5-5.5-5.5l0,0v-53.5h-53.5c-3,0-5.5-2.5-5.5-5.5v-59c0-3,2.5-5.5,5.5-5.5h53.5
				v-53.5c0-3,2.5-5.5,5.5-5.5c0,0,0,0,0,0h59c3,0,5.5,2.5,5.5,5.5v53.5h53.5c3,0,5.5,2.5,5.5,5.5v59c0,3-2.5,5.5-5.5,5.5h-53.5
				v53.5C234.3,322.6,231.8,325,228.8,325.1z"/>
		</g>
	</g>
</g>
<g>
	<g>
		<path class="st3" d="M355.5,149.3c-40,0-72.6-32.5-72.6-72.5S315.4,3.9,355.6,4c40.1,0.1,72.5,32.7,72.5,72.6
			C428,116.8,395.5,149.3,355.5,149.3z"/>
		<path class="st1" d="M355.5,153.3c-42.3,0-76.6-34.3-76.6-76.5c0-20.5,8-39.8,22.6-54.4C315.9,7.9,335.1,0,355.4,0
			c0.1,0,0.1,0,0.2,0c42.2,0.1,76.5,34.5,76.5,76.6C432,118.9,397.6,153.3,355.5,153.3z M355.4,8c-18.2,0-35.3,7.1-48.3,20
			c-13.1,13-20.3,30.3-20.3,48.7c0,37.8,30.8,68.5,68.6,68.5c37.7,0,68.5-30.8,68.6-68.7c0-37.7-30.8-68.5-68.5-68.6
			C355.5,8,355.4,8,355.4,8z"/>
	</g>
</g>
<g>
	<path class="st1" d="M318.2,78.3h10.4l-16.3,22.4c-1.6,2.2-1.8,5.1-0.7,7.5c1.2,2.5,3.7,4,6.5,4h24.6c4,0,7.2-3.2,7.2-7.2
		c0-4-3.2-7.2-7.2-7.2h-10.4l16.3-22.4c1.6-2.2,1.8-5.1,0.7-7.5c-1.2-2.5-3.7-4-6.5-4h-24.6c-4,0-7.2,3.2-7.2,7.2
		C311.2,75.1,314.3,78.3,318.2,78.3z"/>
	<path class="st1" d="M392.7,75h-10.4l16.3-22.4c1.6-2.2,1.8-5.1,0.7-7.5c-1.3-2.3-3.8-4-6.5-4h-24.8c-4,0-7.2,3.4-7.2,7.3
		c0,4,3.2,7.2,7.2,7.2h10.4L362,78c-1.6,2.2-1.8,5.1-0.7,7.5c1.2,2.5,3.7,4,6.5,4h24.6c4,0,7.2-3.2,7.2-7.2
		C399.7,78.3,396.6,75,392.7,75z"/>
</g>
</svg>
