<?xml version="1.0" encoding="utf-8"?>
<!-- Generator: Adobe Illustrator 24.0.0, SVG Export Plug-In . SVG Version: 6.00 Build 0)  -->
<svg version="1.1" id="Capa_1" xmlns="http://www.w3.org/2000/svg" xmlns:xlink="http://www.w3.org/1999/xlink" x="0px" y="0px"
	 viewBox="0 0 432.1 496" style="enable-background:new 0 0 432.1 496;" xml:space="preserve">
<style type="text/css">
	.st0{fill:#2E9A37;}
	.st1{fill:#FFFFFF;}
	.st2{fill:#929292;}
	.st3{fill:#D32F2F;}
	.st4{fill:#4CAF50;}
</style>
<g>
	<g>
		<g>
			<g>
				<g>
					<g>
						<g>
							<g>
								<g>
									<g>
										<g>
											<g>
												<path class="st0" d="M398.9,225.8c-4.3-80.9-61.8-154.3-139-178.7C178.3,21.3,85.6,55,37.6,125.5
													C-11.6,198-3.9,295.1,38.8,368.6c23.3,40.3,57.3,74.7,97.9,97.7c10.6,6,21.6,11.4,32.9,16.1c11,4.8,22.7,11,35.1,9.8
													c11.8-1.1,23.8-7.5,34.4-12.4c10.1-4.5,20-9.5,29.5-15.2c70.8-42.2,119.9-117.6,129-199.6
													C399,252.1,399.5,238.9,398.9,225.8z"/>
												<path class="st1" d="M201.5,496c-10.5,0-20.4-4.4-29.2-8.4c-1.4-0.6-2.8-1.3-4.2-1.9c-11.2-4.7-22.4-10.2-33.2-16.3
													c-40.8-23.1-75.1-57.3-99.2-99C13.5,332.3,1.2,289.5,0.1,246.7c-1.2-45.7,10.7-88.3,34.5-123.4
													C58.3,88.5,94,61.3,134.9,46.7C176.2,32,221,30.9,261,43.6c79,25,137.2,99.8,141.5,182l0,0c0.7,13.3,0.2,26.7-1.4,39.9
													c-4.5,40.6-19,80.8-41.9,116.2c-22.8,35.2-53.6,65-88.8,86c-9.2,5.5-19.3,10.7-29.9,15.4c-1.5,0.7-3.1,1.5-4.8,2.2
													c-9.4,4.4-20.1,9.5-30.8,10.4C203.8,495.9,202.6,496,201.5,496z M203.6,42.2c-63.3,0-126.4,31.5-163,85.3
													c-45,66.3-44.5,160.2,1.3,239.2c23.5,40.6,56.9,73.9,96.5,96.3C149,469,160,474.4,171,479c1.5,0.6,2.9,1.3,4.3,1.9
													c9.4,4.2,19.1,8.5,28.9,7.6c9.4-0.9,19.1-5.4,28.4-9.8c1.6-0.8,3.3-1.5,4.9-2.3c10.4-4.6,20.2-9.7,29.1-15
													c69.6-41.5,118.4-117,127.2-196.8c1.5-12.8,2-25.8,1.4-38.7C391,146.8,334.9,74.7,258.8,50.6
													C240.8,44.9,222.2,42.2,203.6,42.2z"/>
											</g>
											<g>
												<path class="st1" d="M103.9,147.4c42.3-48.3,118.5-57.2,171.7-22c52.2,34.5,72.4,104.3,47.6,161.6
													c-11.7,26.8-31.9,49.1-57.4,63.4c-12.4,6.9-25.8,11.7-39.7,14.3c-8.1,1.6-16.4,2.3-24.6,2.1c-6.9-0.2-20.1-4.4-26.3,0.2
													c-5.2,3.9-2,10.6-0.7,15.6c1.9,7.4,2.4,15.4-0.2,22.7c-4.3,12.4-17.9,21.7-31,21.6c-23.3-0.3-35.6-29.6-43-47.5
													C70.8,307.8,49.9,212.5,103.9,147.4z"/>
											</g>
										</g>
									</g>
								</g>
							</g>
						</g>
					</g>
				</g>
			</g>
		</g>
	</g>
	<g>
		<g>
			<path class="st0" d="M281.6,255.9l-8.4-13.5c0-0.2-0.2-0.6-0.2-0.9l-11.6-43c-0.8-2.8-3.3-4.7-6.2-4.7H138.6
				c-2.9,0-5.4,1.9-6.2,4.7l-11.7,43l-10.5,13.8c-0.9,1.2-1.3,2.6-1.3,4.1v48.8c-0.1,3.5,2.7,6.4,6.2,6.4c0.1,0,0.2,0,0.2,0h2.2
				v17.8c-0.1,3.5,2.7,6.4,6.2,6.5c0.1,0,0.1,0,0.2,0h31.4c3.5,0.1,6.4-2.7,6.4-6.2c0-0.1,0-0.2,0-0.2v-17.8h67.9v17.8
				c-0.1,3.5,2.7,6.4,6.2,6.5c0.1,0,0.2,0,0.2,0h31.4c3.5,0.1,6.4-2.7,6.4-6.2c0-0.1,0-0.2,0-0.2v-17.8h2.2c3.5,0.1,6.4-2.7,6.4-6.2
				c0-0.1,0-0.2,0-0.2v-48.8C282.6,258.1,282.2,256.9,281.6,255.9z M160.3,286c0.1,3.5-2.7,6.4-6.2,6.5c-0.1,0-0.2,0-0.2,0h-20
				c-3.5,0.1-6.4-2.7-6.4-6.2c0-0.1,0-0.2,0-0.2v-13.8c-0.1-3.5,2.7-6.4,6.2-6.4c0.1,0,0.2,0,0.2,0h20c3.5-0.1,6.4,2.7,6.4,6.2
				c0,0.1,0,0.2,0,0.2V286z M215.8,284.5h-40v-12.9h40L215.8,284.5z M135.4,236.7l8.2-30.1h106.7l8.2,30.1H135.4z M264.1,286
				c0.1,3.5-2.7,6.4-6.2,6.5c-0.1,0-0.1,0-0.2,0h-20c-3.5,0.1-6.4-2.7-6.5-6.2c0-0.1,0-0.1,0-0.2v-13.8c-0.1-3.5,2.7-6.4,6.2-6.4
				c0.1,0,0.2,0,0.2,0h20.2c3.5-0.1,6.4,2.7,6.5,6.2c0,0.1,0,0.2,0,0.2L264.1,286z"/>
			<path class="st0" d="M248.7,153.7h14.8l-1.5-3.7c-4.5-10.9-17-16-27.9-11.5c-0.1,0-0.2,0.1-0.3,0.1c-3.6,1.5-6.7,4-9,7.1H167
				c-6.9-9.6-20.3-11.8-29.9-4.9c-0.1,0.1-0.2,0.1-0.3,0.2c-3.2,2.3-5.6,5.4-7.1,9l-1.5,3.7h14.8v9.2H128l1.5,3.7
				c4.5,10.9,17,16,27.9,11.5c0.1,0,0.2-0.1,0.3-0.1c3.6-1.5,6.7-4,9-7.1h57.8c6.9,9.6,20.3,11.8,29.9,4.9c0.1-0.1,0.2-0.1,0.3-0.2
				c3.2-2.3,5.6-5.4,7.1-9l1.5-3.7h-14.6L248.7,153.7z"/>
		</g>
	</g>
</g>
<g>
	<g>
		<path class="st2" d="M355.5,149.3c-40,0-72.6-32.5-72.6-72.5S315.4,3.9,355.6,4c40.1,0.1,72.5,32.7,72.5,72.6
			C428,116.8,395.5,149.3,355.5,149.3z"/>
		<path class="st1" d="M355.5,153.3c-42.3,0-76.6-34.3-76.6-76.5c0-20.5,8-39.8,22.6-54.4C315.9,7.9,335.1,0,355.4,0
			c0.1,0,0.1,0,0.2,0c42.2,0.1,76.5,34.5,76.5,76.6C432,118.9,397.6,153.3,355.5,153.3z M355.4,8c-18.2,0-35.3,7.1-48.3,20
			c-13.1,13-20.3,30.3-20.3,48.7c0,37.8,30.8,68.5,68.6,68.5c37.7,0,68.5-30.8,68.6-68.7c0-37.7-30.8-68.5-68.5-68.6
			C355.5,8,355.4,8,355.4,8z"/>
	</g>
</g>
<g>
	<path class="st1" d="M355.8,106.9C355.7,106.9,355.7,106.9,355.8,106.9c-2.6,0-5.1,1-6.9,2.8c-3.7,3.7-3.7,9.9,0.1,13.6l0,0
		c1.8,1.8,4.2,2.7,6.7,2.7l0,0c5.3,0,9.7-4.3,9.7-9.7c0-2.6-1-5-2.8-6.8C360.7,107.9,358.3,106.9,355.8,106.9z"/>
	<path class="st1" d="M386.3,57c0.2-8.1-3.1-15.8-9.1-21.2c-6-5.7-13.9-8.6-22-8.5c-8.5-0.2-16.8,3.1-22.7,9
		c-3.9,3.7-6.5,8.4-7.7,13.6c-0.6,2.3,0,4.5,1.4,6.2c1.4,1.8,3.5,2.7,5.7,2.7c3.4,0,6.2-2.3,7-5.5c0.7-2.7,2-5.3,4.1-7.4
		c3.2-3.3,7.7-5.1,12.3-4.9c4.4-0.1,8.7,1.4,12.2,4.3c3.2,2.8,5,6.9,4.8,11.2c0.1,2.6-0.5,5.3-1.6,7.7c-0.9,1.9-2.5,3.5-4.4,4.5
		l-5.8,3.2c-2,1.2-4.1,2.4-5.9,3.6c-2,1.6-3.7,3.6-4.7,6c-1.4,3.4-1.9,6.9-1.8,10.6V93c0,4.1,3.4,7.5,7.5,7.5s7.5-3.4,7.5-7.5v-1.6
		c-0.1-2.2,0.8-4.4,2.3-6c1.7-1.7,3.5-3.2,5.7-4.2c2.4-1.2,4.8-2.7,7-4.2c2.6-2,4.7-4.7,6-7.6C385.7,65.6,386.4,61.3,386.3,57z"/>
</g>
</svg>
