<?xml version="1.0" encoding="utf-8"?>
<!-- Generator: Adobe Illustrator 24.0.0, SVG Export Plug-In . SVG Version: 6.00 Build 0)  -->
<svg version="1.1" id="Capa_1" xmlns="http://www.w3.org/2000/svg" xmlns:xlink="http://www.w3.org/1999/xlink" x="0px" y="0px"
	 viewBox="0 0 432.1 496" style="enable-background:new 0 0 432.1 496;" xml:space="preserve">
<style type="text/css">
	.st0{fill:#5C8CC9;}
	.st1{fill:#FFFFFF;}
	.st2{fill:#929292;}
	.st3{fill:#D32F2F;}
	.st4{fill:#4CAF50;}
</style>
<g>
	<g>
		<g>
			<g>
				<g>
					<g>
						<g>
							<path class="st0" d="M398.9,225.8c-4.3-80.9-61.8-154.3-139-178.7C178.3,21.3,85.6,55,37.6,125.5
								C-11.6,198-3.9,295.1,38.8,368.6c23.3,40.3,57.3,74.7,97.9,97.7c10.6,6,21.6,11.4,32.9,16.1c11,4.8,22.7,11,35.1,9.8
								c11.8-1.1,23.8-7.5,34.4-12.4c10.1-4.5,20-9.5,29.5-15.2c70.8-42.2,119.9-117.6,129-199.6C399,252.1,399.5,238.9,398.9,225.8
								z"/>
							<path class="st1" d="M201.5,496c-10.5,0-20.4-4.4-29.2-8.4c-1.4-0.6-2.8-1.3-4.2-1.9c-11.2-4.7-22.4-10.2-33.2-16.3
								c-40.8-23.1-75.1-57.3-99.2-99C13.5,332.3,1.2,289.5,0.1,246.7c-1.2-45.7,10.7-88.3,34.5-123.4C58.3,88.5,94,61.3,134.9,46.7
								C176.2,32,221,30.9,261,43.6c79,25,137.2,99.8,141.5,182l0,0c0.7,13.3,0.2,26.7-1.4,39.9c-4.5,40.6-19,80.8-41.9,116.2
								c-22.8,35.2-53.6,65-88.8,86c-9.2,5.5-19.3,10.7-29.9,15.4c-1.5,0.7-3.1,1.5-4.8,2.2c-9.4,4.4-20.1,9.5-30.8,10.4
								C203.8,495.9,202.6,496,201.5,496z M203.6,42.2c-63.3,0-126.4,31.5-163,85.3c-45,66.3-44.5,160.2,1.3,239.2
								c23.5,40.6,56.9,73.9,96.5,96.3C149,469,160,474.4,171,479c1.5,0.6,2.9,1.3,4.3,1.9c9.4,4.2,19.1,8.5,28.9,7.6
								c9.4-0.9,19.1-5.4,28.4-9.8c1.6-0.8,3.3-1.5,4.9-2.3c10.4-4.6,20.2-9.7,29.1-15c69.6-41.5,118.4-117,127.2-196.8
								c1.5-12.8,2-25.8,1.4-38.7C391,146.8,334.9,74.7,258.8,50.6C240.8,44.9,222.2,42.2,203.6,42.2z"/>
						</g>
						<g>
							<path class="st1" d="M103.9,147.4c42.3-48.3,118.5-57.2,171.7-22c52.2,34.5,72.4,104.3,47.6,161.6
								c-11.7,26.8-31.9,49.1-57.4,63.4c-12.4,6.9-25.8,11.7-39.7,14.3c-8.1,1.6-16.4,2.3-24.6,2.1c-6.9-0.2-20.1-4.4-26.3,0.2
								c-5.2,3.9-2,10.6-0.7,15.6c1.9,7.4,2.4,15.4-0.2,22.7c-4.3,12.4-17.9,21.7-31,21.6c-23.3-0.3-35.6-29.6-43-47.5
								C70.8,307.8,49.9,212.5,103.9,147.4z"/>
						</g>
					</g>
				</g>
			</g>
		</g>
	</g>
	<g>
		<g>
			<path class="st0" d="M132.8,260.6c-12.9,0-23.3,10.4-23.3,23.3s10.4,23.3,23.3,23.3c12.9,0,23.3-10.4,23.3-23.3
				C156.1,271,145.6,260.6,132.8,260.6z M132.8,297.9c-7.7,0-14-6.3-14-14s6.3-14,14-14c7.7,0,14,6.3,14,14
				C146.8,291.6,140.5,297.9,132.8,297.9C132.8,297.9,132.8,297.9,132.8,297.9L132.8,297.9z"/>
			<path class="st0" d="M272.8,260.6c-12.9,0-23.3,10.4-23.3,23.3s10.4,23.3,23.3,23.3c12.9,0,23.3-10.4,23.3-23.3
				C296.1,271,285.6,260.6,272.8,260.6z M272.8,297.9c-7.7,0-14-6.3-14-14s6.3-14,14-14c7.7,0,14,6.3,14,14
				C286.8,291.6,280.5,297.9,272.8,297.9C272.8,297.9,272.8,297.9,272.8,297.9L272.8,297.9z"/>
			<path class="st0" d="M286.8,232.6h-7.9c-2.9,0-5.7-1-8-2.8l-36.8-29.4c-4.1-3.3-9.3-5.1-14.6-5.1h-67.5
				c-7.8,0-15.1,3.9-19.4,10.4l-7.9,11.9c-2.4,3.6-6.4,5.7-10.6,5.7c-12.9,0-23.3,10.5-23.3,23.3v18.7c0,12.9,10.5,23.3,23.3,23.3
				c0.2,0,0.4-0.1,0.6-0.1c-0.4-1.5-0.6-3-0.6-4.5c0-10.3,8.4-18.7,18.7-18.7c10.3,0,18.7,8.4,18.7,18.7c0,1.5-0.2,3.1-0.6,4.5
				c0.2,0.1,0.4,0.1,0.6,0.1h102.7c0.2,0,0.4-0.1,0.6-0.1c-0.4-1.5-0.6-3-0.6-4.5c0-10.3,8.4-18.7,18.7-18.7
				c10.3,0,18.7,8.4,18.7,18.7c0,1.5-0.2,3.1-0.6,4.5c0.2,0.1,0.4,0.1,0.6,0.1c13.3,0,23.3-10,23.3-23.3
				C314.8,249.4,305,232.6,286.8,232.6z M179.4,241.9h-37.3c-2.6,0-4.7-2.1-4.7-4.7c0-0.7,0.2-1.4,0.5-2.1l9.3-18.7
				c1.2-2.3,4-3.2,6.3-2.1c2.3,1.2,3.2,4,2.1,6.3l0,0l-6,11.9h29.8c2.6,0,4.7,2.1,4.7,4.7C184.1,239.8,182,241.9,179.4,241.9
				L179.4,241.9z M216.8,260.5h-9.3c-2.6,0-4.7-2.1-4.7-4.7s2.1-4.7,4.7-4.7h9.3c2.6,0,4.7,2.1,4.7,4.7S219.3,260.5,216.8,260.5z
				 M244.8,241.9h-46.6c-2.6,0-4.7-2.1-4.7-4.7v-18.7c0-2.6,2.1-4.7,4.7-4.7c2.6,0,4.7,2.1,4.7,4.7v14h42c2.6,0,4.7,2.1,4.7,4.7
				C249.5,239.8,247.4,241.9,244.8,241.9L244.8,241.9z"/>
		</g>
	</g>
</g>
<g>
	<g>
		<path class="st3" d="M355.5,149.3c-40,0-72.6-32.5-72.6-72.5S315.4,3.9,355.6,4c40.1,0.1,72.5,32.7,72.5,72.6
			C428,116.8,395.5,149.3,355.5,149.3z"/>
		<path class="st1" d="M355.5,153.3c-42.3,0-76.6-34.3-76.6-76.5c0-20.5,8-39.8,22.6-54.4C315.9,7.9,335.1,0,355.4,0
			c0.1,0,0.1,0,0.2,0c42.2,0.1,76.5,34.5,76.5,76.6C432,118.9,397.6,153.3,355.5,153.3z M355.4,8c-18.2,0-35.3,7.1-48.3,20
			c-13.1,13-20.3,30.3-20.3,48.7c0,37.8,30.8,68.5,68.6,68.5c37.7,0,68.5-30.8,68.6-68.7c0-37.7-30.8-68.5-68.5-68.6
			C355.5,8,355.4,8,355.4,8z"/>
	</g>
</g>
<g>
	<path class="st1" d="M318.2,78.3h10.4l-16.3,22.4c-1.6,2.2-1.8,5.1-0.7,7.5c1.2,2.5,3.7,4,6.5,4h24.6c4,0,7.2-3.2,7.2-7.2
		c0-4-3.2-7.2-7.2-7.2h-10.4l16.3-22.4c1.6-2.2,1.8-5.1,0.7-7.5c-1.2-2.5-3.7-4-6.5-4h-24.6c-4,0-7.2,3.2-7.2,7.2
		C311.2,75.1,314.3,78.3,318.2,78.3z"/>
	<path class="st1" d="M392.7,75h-10.4l16.3-22.4c1.6-2.2,1.8-5.1,0.7-7.5c-1.3-2.3-3.8-4-6.5-4h-24.8c-4,0-7.2,3.4-7.2,7.3
		c0,4,3.2,7.2,7.2,7.2h10.4L362,78c-1.6,2.2-1.8,5.1-0.7,7.5c1.2,2.5,3.7,4,6.5,4h24.6c4,0,7.2-3.2,7.2-7.2
		C399.7,78.3,396.6,75,392.7,75z"/>
</g>
</svg>
