<?xml version="1.0" encoding="utf-8"?>
<!-- Generator: Adobe Illustrator 24.0.0, SVG Export Plug-In . SVG Version: 6.00 Build 0)  -->
<svg version="1.1" id="Capa_1" xmlns="http://www.w3.org/2000/svg" xmlns:xlink="http://www.w3.org/1999/xlink" x="0px" y="0px"
	 viewBox="0 0 432.1 496" style="enable-background:new 0 0 432.1 496;" xml:space="preserve">
<style type="text/css">
	.st0{fill:#EFD00C;}
	.st1{fill:#FFFFFF;}
</style>
<g>
	<g>
		<g>
			<g>
				<path class="st0" d="M427.9,205.5C423.3,118.7,361.6,40,278.8,13.8c-87.5-27.6-187,8.4-238.4,84.1
					c-52.8,77.8-44.5,182,1.3,260.8c25,43.2,61.5,80.1,105,104.8c11.4,6.4,23.2,12.2,35.3,17.3c11.8,5.1,24.4,11.8,37.6,10.5
					c12.7-1.2,25.5-8.1,36.9-13.3c10.8-4.8,21.4-10.2,31.6-16.3c75.9-45.3,128.7-126.2,138.4-214.1
					C428,233.7,428.5,219.5,427.9,205.5z"/>
				<path class="st1" d="M216.2,495.3c-11.2,0-21.8-4.7-31.3-9c-1.5-0.7-3-1.4-4.5-2c-12-5.1-24-11-35.6-17.5
					C101,442.1,64.2,405.4,38.3,360.6C14.5,319.7,1.3,273.8,0.1,228c-1.3-49,11.5-94.8,37-132.3S100.8,29,144.8,13.4
					C189-2.3,237-3.5,280,10c84.7,26.8,147.1,107.1,151.8,195.2l0,0c0.6,14.3,0.1,28.6-1.5,42.7c-4.8,43.6-20.4,86.8-45,124.7
					c-24.5,37.8-57.4,69.7-95.3,92.3c-9.9,5.9-20.7,11.5-32,16.5c-1.6,0.8-3.4,1.6-5.1,2.4c-10.1,4.8-21.6,10.1-33.1,11.2
					C218.6,495.3,217.4,495.3,216.2,495.3z M218.6,8.5c-68,0-135.7,33.9-175,91.5C-4.7,171.1-4.2,271.9,45,356.7
					C70.2,400.2,106,436,148.5,460c11.3,6.3,23.1,12.1,34.8,17.1c1.6,0.7,3.1,1.4,4.7,2.1c10.1,4.5,20.5,9.2,31,8.2
					c10.1-0.9,20.5-5.8,30.5-10.5c1.8-0.8,3.5-1.6,5.2-2.4c11.1-5,21.6-10.4,31.2-16.1c74.7-44.6,127-125.5,136.5-211.1
					c1.5-13.7,2-27.7,1.5-41.5c-4.5-84.9-64.7-162.3-146.3-188.1C258.4,11.4,238.5,8.5,218.6,8.5z"/>
			</g>
			<path class="st1" d="M110,118.7c45.4-51.9,127.1-61.4,184.2-23.6c56,37,77.7,111.9,51.1,173.3c-12.6,28.8-34.2,52.6-61.6,68
				c-13.3,7.4-27.7,12.6-42.6,15.3c-8.7,1.7-17.6,2.5-26.4,2.3c-7.4-0.2-21.6-4.7-28.2,0.2c-5.6,4.2-2.2,11.4-0.8,16.7
				c2.1,8,2.6,16.5-0.2,24.4c-4.6,13.3-19.2,23.3-33.3,23.2c-25-0.3-38.2-31.7-46.2-51C74.5,290.7,52.1,188.5,110,118.7z"/>
		</g>
	</g>
</g>
<g>
	<g>
		<path class="st0" d="M132.2,151l-1.1,10.5l26.9,32l4.7-34.5c0.2-1.6,0.7-3.1,1.1-4.6L132.2,151z"/>
		<path class="st0" d="M155.1,214.8l1.4-10.4l-26.6-31.6l-3.9,36.9c-1,9.2,5.7,17.4,14.8,18.3l15.9,1.7
			C155,225.1,154.3,220,155.1,214.8z"/>
		<path class="st0" d="M210.4,152.2c-2.3-6.4-9.4-9.7-15.8-7.4c-6.4,2.3-9.7,9.4-7.4,15.8l14.9,41.4c1.4,3.8,4.5,6.6,8.3,7.7
			l38.7,10.6c1.1,0.3,2.2,0.4,3.3,0.4c5.4,0,10.4-3.6,11.9-9.1c1.8-6.6-2.1-13.3-8.6-15.1l-32.6-9L210.4,152.2z"/>
		<path class="st0" d="M250.9,286.7l-5.1-34.9c-0.6-4-2.9-7.6-6.2-9.9l-20.5-13.7l-7.2-4.8c0-0.2,0.1-0.5,0.1-0.8l0.5-3.8l-4.2-1.2
			c-6.4-1.8-11.6-6.5-13.9-12.8l-4.7-13L164.5,206c0,0-1,7.4-1.3,9.9c-0.3,2.1-0.3,9,0.6,11.9c1.5,4.7,5.8,18.7,5.8,18.7l7.9,25.2
			l-11,41.7c-2,7.7,2.6,15.5,10.2,17.5c1.2,0.3,2.5,0.5,3.7,0.5c6.4,0,12.2-4.3,13.9-10.7l12-45.7c0.7-2.6,0.6-5.4-0.2-7.9
			l-5.2-16.5l17.4,11.6l4.1,28.6c1,7.2,7.2,12.3,14.2,12.3c0.7,0,1.4,0,2.1-0.1C246.6,301.8,252,294.5,250.9,286.7z"/>
		<path class="st0" d="M343.1,196.8c-3.6-2.7-8.8-2-11.5,1.6l-30.8,40.9c-0.6,0.8-1.1,1.7-1.3,2.7l-12.7,44.9l-19.5,2.8
			c-1,0.1-2,0.5-2.9,1l-56.4,31.8c-3.9,2.2-5.3,7.2-3.1,11.2c1.5,2.7,4.3,4.2,7.2,4.2c1.4,0,2.8-0.3,4-1.1l55-31.1l23.2-3.3
			c3.2-0.5,5.9-2.8,6.7-5.9l13.7-48.5l29.9-39.7C347.5,204.7,346.8,199.5,343.1,196.8z"/>
		<path class="st0" d="M135.5,146.6l29.9,3.2l3.8,0.4c1.9,0.2,3.7,0,5.5-0.4c-2,3-3.4,6.4-3.9,10.2l-4.8,35.8l21-11.9l-7.4-20.5
			c-2-5.5-1.4-11.3,1-16.1c0.3-0.2,0.7-0.4,0.9-0.6c2.1-1.7,3.6-3.8,4.7-6.2c0.7-1.6,1.2-3.2,1.4-5c0.1-1.3,0.1-2.6-0.1-3.9
			c-1-7.5-6.9-13.6-14.7-14.4l-33.7-3.6c-4.4-0.5-8.8,0.8-12.2,3.6c-3.4,2.8-5.6,6.8-6.1,11.2C119.7,137.5,126.4,145.7,135.5,146.6z
			"/>
	</g>
	<circle class="st0" cx="210.6" cy="113.6" r="23.9"/>
</g>
</svg>
