<?xml version="1.0" encoding="utf-8"?>
<!-- Generator: Adobe Illustrator 24.0.0, SVG Export Plug-In . SVG Version: 6.00 Build 0)  -->
<svg version="1.1" id="Capa_1" xmlns="http://www.w3.org/2000/svg" xmlns:xlink="http://www.w3.org/1999/xlink" x="0px" y="0px"
	 viewBox="0 0 432.1 496" style="enable-background:new 0 0 432.1 496;" xml:space="preserve">
<style type="text/css">
	.st0{fill:#EFD00C;}
	.st1{fill:#FFFFFF;}
	.st2{fill:#D32F2F;}
</style>
<g>
	<g>
		<g>
			<path class="st0" d="M398.9,225.8c-4.3-80.9-61.8-154.3-139-178.7C178.3,21.3,85.6,55,37.6,125.5C-11.6,198-3.9,295.1,38.8,368.6
				c23.3,40.3,57.3,74.7,97.9,97.7c10.6,6,21.6,11.4,32.9,16.1c11,4.8,22.7,11,35.1,9.8c11.8-1.1,23.8-7.5,34.4-12.4
				c10.1-4.5,20-9.5,29.5-15.2c70.8-42.2,119.9-117.6,129-199.6C399,252.1,399.5,238.9,398.9,225.8z"/>
			<path class="st1" d="M201.5,496c-10.5,0-20.4-4.4-29.2-8.4c-1.4-0.6-2.8-1.3-4.2-1.9c-11.2-4.7-22.4-10.2-33.2-16.3
				c-40.8-23.1-75.1-57.3-99.2-99C13.5,332.3,1.2,289.5,0.1,246.7c-1.2-45.7,10.7-88.3,34.5-123.4c23.7-34.8,59.4-62,100.3-76.6
				C176.2,32,221,30.9,261,43.6c79,25,137.2,99.8,141.5,182l0,0c0.7,13.3,0.2,26.7-1.4,39.9c-4.5,40.6-19,80.8-41.9,116.2
				c-22.8,35.2-53.6,65-88.8,86c-9.2,5.5-19.3,10.7-29.9,15.4c-1.5,0.7-3.1,1.5-4.8,2.2c-9.4,4.4-20.1,9.5-30.8,10.4
				C203.8,495.9,202.6,496,201.5,496z M203.6,42.2c-63.3,0-126.4,31.5-163,85.3c-45,66.3-44.5,160.2,1.3,239.2
				c23.5,40.6,56.9,73.9,96.5,96.3c10.6,6,21.6,11.4,32.6,16c1.5,0.6,2.9,1.3,4.3,1.9c9.4,4.2,19.1,8.5,28.9,7.6
				c9.4-0.9,19.1-5.4,28.4-9.8c1.6-0.8,3.3-1.5,4.9-2.3c10.4-4.6,20.2-9.7,29.1-15c69.6-41.5,118.4-117,127.2-196.8
				c1.5-12.8,2-25.8,1.4-38.7C391,146.8,334.9,74.7,258.8,50.6C240.8,44.9,222.2,42.2,203.6,42.2z"/>
		</g>
		<g>
			<path class="st1" d="M103.9,147.4c42.3-48.3,118.5-57.2,171.7-22c52.2,34.5,72.4,104.3,47.6,161.6
				c-11.7,26.8-31.9,49.1-57.4,63.4c-12.4,6.9-25.8,11.7-39.7,14.3c-8.1,1.6-16.4,2.3-24.6,2.1c-6.9-0.2-20.1-4.4-26.3,0.2
				c-5.2,3.9-2,10.6-0.7,15.6c1.9,7.4,2.4,15.4-0.2,22.7c-4.3,12.4-17.9,21.7-31,21.6c-23.3-0.3-35.6-29.6-43-47.5
				C70.8,307.8,49.9,212.5,103.9,147.4z"/>
		</g>
	</g>
</g>
<g>
	<g>
		<path class="st2" d="M355.5,149.3c-40,0-72.6-32.5-72.6-72.5S315.4,3.9,355.6,4c40.1,0.1,72.5,32.7,72.5,72.6
			C428,116.8,395.5,149.3,355.5,149.3z"/>
		<path class="st1" d="M355.5,153.3c-42.3,0-76.6-34.3-76.6-76.5c0-20.5,8-39.8,22.6-54.4C315.9,7.9,335.1,0,355.4,0
			c0.1,0,0.1,0,0.2,0c42.2,0.1,76.5,34.5,76.5,76.6C432,118.9,397.6,153.3,355.5,153.3z M355.4,8c-18.2,0-35.3,7.1-48.3,20
			c-13.1,13-20.3,30.3-20.3,48.7c0,37.8,30.8,68.5,68.6,68.5c37.7,0,68.5-30.8,68.6-68.7c0-37.7-30.8-68.5-68.5-68.6
			C355.5,8,355.4,8,355.4,8z"/>
	</g>
</g>
<g>
	<path class="st1" d="M318.2,78.3h10.4l-16.3,22.4c-1.6,2.2-1.8,5.1-0.7,7.5c1.2,2.5,3.7,4,6.5,4h24.6c4,0,7.2-3.2,7.2-7.2
		s-3.2-7.2-7.2-7.2h-10.4l16.3-22.4c1.6-2.2,1.8-5.1,0.7-7.5c-1.2-2.5-3.7-4-6.5-4h-24.6c-4,0-7.2,3.2-7.2,7.2
		C311.2,75.1,314.3,78.3,318.2,78.3z"/>
	<path class="st1" d="M392.7,75h-10.4l16.3-22.4c1.6-2.2,1.8-5.1,0.7-7.5c-1.3-2.3-3.8-4-6.5-4H368c-4,0-7.2,3.4-7.2,7.3
		c0,4,3.2,7.2,7.2,7.2h10.4L362,78c-1.6,2.2-1.8,5.1-0.7,7.5c1.2,2.5,3.7,4,6.5,4h24.6c4,0,7.2-3.2,7.2-7.2
		C399.7,78.3,396.6,75,392.7,75z"/>
</g>
<g>
	<g>
		<g>
			<g>
				<path class="st0" d="M124.5,177.5l-1,9.8l25.1,29.8l4.4-32.1c0.2-1.5,0.6-2.9,1-4.3L124.5,177.5z"/>
				<path class="st0" d="M145.9,237l1.3-9.7l-24.8-29.5l-3.7,34.4c-0.9,8.5,5.3,16.2,13.8,17.1l14.8,1.6
					C145.9,246.5,145.2,241.8,145.9,237z"/>
				<path class="st0" d="M197.4,178.6c-2.1-6-8.7-9.1-14.7-6.9c-6,2.2-9.1,8.7-6.9,14.7l13.9,38.6c1.3,3.5,4.2,6.2,7.8,7.2l36.1,9.9
					c1,0.3,2,0.4,3,0.4c5,0,9.7-3.3,11.1-8.4c1.7-6.1-1.9-12.4-8-14.1l-30.4-8.3L197.4,178.6z"/>
				<path class="st0" d="M235.2,304l-4.7-32.6c-0.5-3.8-2.7-7.1-5.8-9.2l-19.1-12.8l-6.7-4.5c0-0.2,0.1-0.4,0.1-0.8l0.5-3.5
					l-3.9-1.1c-6-1.6-10.8-6.1-12.9-11.9l-4.4-12.1l-23.5,13.3c0,0-0.9,6.9-1.2,9.2c-0.3,1.9-0.3,8.3,0.5,11.1
					c1.4,4.4,5.4,17.5,5.4,17.5l7.3,23.5L156.5,329c-1.9,7.2,2.4,14.5,9.5,16.4c1.1,0.3,2.3,0.4,3.4,0.4c5.9,0,11.4-4,12.9-10
					l11.2-42.6c0.6-2.4,0.6-5-0.2-7.4l-4.8-15.4l16.2,10.8l3.9,26.7c1,6.7,6.7,11.5,13.2,11.5c0.6,0,1.3,0,1.9-0.1
					C231.2,318.1,236.3,311.3,235.2,304z"/>
				<path class="st0" d="M321.2,220.2c-3.4-2.5-8.2-1.9-10.7,1.5l-28.7,38.2c-0.6,0.8-1,1.6-1.3,2.5l-11.8,41.8l-18.1,2.6
					c-0.9,0.1-1.8,0.4-2.7,0.9l-52.5,29.7c-3.7,2.1-5,6.7-2.9,10.4c1.4,2.5,4,3.9,6.7,3.9c1.3,0,2.6-0.3,3.8-1l51.3-29l21.6-3.1
					c3-0.4,5.5-2.6,6.3-5.5l12.8-45.2l27.9-37C325.3,227.5,324.6,222.7,321.2,220.2z"/>
				<path class="st0" d="M127.7,173.4l27.8,3l3.5,0.4c1.7,0.2,3.5,0,5.1-0.4c-1.8,2.8-3.2,6-3.7,9.5l-4.5,33.3l19.6-11.1l-6.9-19.2
					c-1.9-5.1-1.3-10.5,0.9-15c0.3-0.2,0.6-0.4,0.9-0.6c1.9-1.6,3.4-3.6,4.4-5.8c0.6-1.5,1.1-3,1.3-4.6c0.1-1.2,0.1-2.5-0.1-3.6
					c-0.9-7-6.4-12.7-13.7-13.5l-31.4-3.3c-4.1-0.4-8.2,0.8-11.4,3.4c-3.2,2.6-5.2,6.3-5.7,10.4C113,164.9,119.2,172.5,127.7,173.4z
					"/>
			</g>
			<circle class="st0" cx="197.7" cy="142.7" r="22.3"/>
		</g>
	</g>
</g>
</svg>
